G04 #@! TF.GenerationSoftware,KiCad,Pcbnew,(5.0.0)*
G04 #@! TF.CreationDate,2019-02-08T13:36:01+02:00*
G04 #@! TF.ProjectId,tp_x2_PnP,74705F78325F506E502E6B696361645F,3*
G04 #@! TF.SameCoordinates,Original*
G04 #@! TF.FileFunction,Legend,Top*
G04 #@! TF.FilePolarity,Positive*
%FSLAX46Y46*%
G04 Gerber Fmt 4.6, Leading zero omitted, Abs format (unit mm)*
G04 Created by KiCad (PCBNEW (5.0.0)) date 02/08/19 13:36:01*
%MOMM*%
%LPD*%
G01*
G04 APERTURE LIST*
%ADD10C,0.200000*%
%ADD11C,0.300000*%
%ADD12C,0.120000*%
%ADD13C,0.150000*%
%ADD14C,0.100000*%
%ADD15C,0.250000*%
%ADD16C,0.400000*%
G04 APERTURE END LIST*
D10*
X230500000Y-146000000D02*
X234500000Y-146000000D01*
X261000000Y-194000000D02*
X265000000Y-194000000D01*
X234500000Y-187000000D02*
X234500000Y-185000000D01*
X257879460Y-190000000D02*
G75*
G03X257879460Y-190000000I-3889730J0D01*
G01*
X205000000Y-185000000D02*
X209000000Y-185000000D01*
X234500000Y-146000000D02*
X234500000Y-144000000D01*
X261000000Y-196000000D02*
X261000000Y-194000000D01*
X265000000Y-196000000D02*
X261000000Y-196000000D01*
X209000000Y-187000000D02*
X205000000Y-187000000D01*
X265000000Y-194000000D02*
X265000000Y-196000000D01*
X271000000Y-185000000D02*
X271000000Y-187000000D01*
X267000000Y-187000000D02*
X267000000Y-185000000D01*
X271000000Y-187000000D02*
X267000000Y-187000000D01*
X221389730Y-190710270D02*
G75*
G03X221389730Y-190710270I-3889730J0D01*
G01*
X265000000Y-155000000D02*
X261000000Y-155000000D01*
X323000000Y-196000000D02*
X323000000Y-194000000D01*
X261000000Y-153000000D02*
X265000000Y-153000000D01*
X257579460Y-149200000D02*
G75*
G03X257579460Y-149200000I-3889730J0D01*
G01*
X209000000Y-185000000D02*
X209000000Y-187000000D01*
X209000000Y-146000000D02*
X205000000Y-146000000D01*
X205000000Y-146000000D02*
X205000000Y-144000000D01*
X221189730Y-149710270D02*
G75*
G03X221189730Y-149710270I-3889730J0D01*
G01*
X205000000Y-144000000D02*
X209000000Y-144000000D01*
X230500000Y-144000000D02*
X230500000Y-146000000D01*
X209000000Y-144000000D02*
X209000000Y-146000000D01*
X230500000Y-187000000D02*
X234500000Y-187000000D01*
X323000000Y-153000000D02*
X327000000Y-153000000D01*
X283389730Y-190710270D02*
G75*
G03X283389730Y-190710270I-3889730J0D01*
G01*
X319579460Y-149200000D02*
G75*
G03X319579460Y-149200000I-3889730J0D01*
G01*
X205000000Y-187000000D02*
X205000000Y-185000000D01*
X230500000Y-185000000D02*
X230500000Y-187000000D01*
X292500000Y-144000000D02*
X292500000Y-146000000D01*
X261000000Y-155000000D02*
X261000000Y-153000000D01*
X265000000Y-153000000D02*
X265000000Y-155000000D01*
X296500000Y-146000000D02*
X296500000Y-144000000D01*
X327000000Y-194000000D02*
X327000000Y-196000000D01*
X323000000Y-194000000D02*
X327000000Y-194000000D01*
X267000000Y-146000000D02*
X267000000Y-144000000D01*
X267000000Y-144000000D02*
X271000000Y-144000000D01*
X319879460Y-190000000D02*
G75*
G03X319879460Y-190000000I-3889730J0D01*
G01*
X292500000Y-146000000D02*
X296500000Y-146000000D01*
X296500000Y-187000000D02*
X296500000Y-185000000D01*
X292500000Y-187000000D02*
X296500000Y-187000000D01*
X271000000Y-146000000D02*
X267000000Y-146000000D01*
X283189730Y-149710270D02*
G75*
G03X283189730Y-149710270I-3889730J0D01*
G01*
X267000000Y-185000000D02*
X271000000Y-185000000D01*
X292500000Y-185000000D02*
X292500000Y-187000000D01*
X327000000Y-196000000D02*
X323000000Y-196000000D01*
X327000000Y-155000000D02*
X323000000Y-155000000D01*
X323000000Y-155000000D02*
X323000000Y-153000000D01*
X271000000Y-144000000D02*
X271000000Y-146000000D01*
X327000000Y-153000000D02*
X327000000Y-155000000D01*
D11*
X324392857Y-144250000D02*
X324250000Y-144178571D01*
X324035714Y-144178571D01*
X323821428Y-144250000D01*
X323678571Y-144392857D01*
X323607142Y-144535714D01*
X323535714Y-144821428D01*
X323535714Y-145035714D01*
X323607142Y-145321428D01*
X323678571Y-145464285D01*
X323821428Y-145607142D01*
X324035714Y-145678571D01*
X324178571Y-145678571D01*
X324392857Y-145607142D01*
X324464285Y-145535714D01*
X324464285Y-145035714D01*
X324178571Y-145035714D01*
X271392857Y-153250000D02*
X271250000Y-153178571D01*
X271035714Y-153178571D01*
X270821428Y-153250000D01*
X270678571Y-153392857D01*
X270607142Y-153535714D01*
X270535714Y-153821428D01*
X270535714Y-154035714D01*
X270607142Y-154321428D01*
X270678571Y-154464285D01*
X270821428Y-154607142D01*
X271035714Y-154678571D01*
X271178571Y-154678571D01*
X271392857Y-154607142D01*
X271464285Y-154535714D01*
X271464285Y-154035714D01*
X271178571Y-154035714D01*
X209392857Y-153250000D02*
X209250000Y-153178571D01*
X209035714Y-153178571D01*
X208821428Y-153250000D01*
X208678571Y-153392857D01*
X208607142Y-153535714D01*
X208535714Y-153821428D01*
X208535714Y-154035714D01*
X208607142Y-154321428D01*
X208678571Y-154464285D01*
X208821428Y-154607142D01*
X209035714Y-154678571D01*
X209178571Y-154678571D01*
X209392857Y-154607142D01*
X209464285Y-154535714D01*
X209464285Y-154035714D01*
X209178571Y-154035714D01*
X324392857Y-185250000D02*
X324250000Y-185178571D01*
X324035714Y-185178571D01*
X323821428Y-185250000D01*
X323678571Y-185392857D01*
X323607142Y-185535714D01*
X323535714Y-185821428D01*
X323535714Y-186035714D01*
X323607142Y-186321428D01*
X323678571Y-186464285D01*
X323821428Y-186607142D01*
X324035714Y-186678571D01*
X324178571Y-186678571D01*
X324392857Y-186607142D01*
X324464285Y-186535714D01*
X324464285Y-186035714D01*
X324178571Y-186035714D01*
X262392857Y-144250000D02*
X262250000Y-144178571D01*
X262035714Y-144178571D01*
X261821428Y-144250000D01*
X261678571Y-144392857D01*
X261607142Y-144535714D01*
X261535714Y-144821428D01*
X261535714Y-145035714D01*
X261607142Y-145321428D01*
X261678571Y-145464285D01*
X261821428Y-145607142D01*
X262035714Y-145678571D01*
X262178571Y-145678571D01*
X262392857Y-145607142D01*
X262464285Y-145535714D01*
X262464285Y-145035714D01*
X262178571Y-145035714D01*
X271392857Y-194250000D02*
X271250000Y-194178571D01*
X271035714Y-194178571D01*
X270821428Y-194250000D01*
X270678571Y-194392857D01*
X270607142Y-194535714D01*
X270535714Y-194821428D01*
X270535714Y-195035714D01*
X270607142Y-195321428D01*
X270678571Y-195464285D01*
X270821428Y-195607142D01*
X271035714Y-195678571D01*
X271178571Y-195678571D01*
X271392857Y-195607142D01*
X271464285Y-195535714D01*
X271464285Y-195035714D01*
X271178571Y-195035714D01*
X209392857Y-194250000D02*
X209250000Y-194178571D01*
X209035714Y-194178571D01*
X208821428Y-194250000D01*
X208678571Y-194392857D01*
X208607142Y-194535714D01*
X208535714Y-194821428D01*
X208535714Y-195035714D01*
X208607142Y-195321428D01*
X208678571Y-195464285D01*
X208821428Y-195607142D01*
X209035714Y-195678571D01*
X209178571Y-195678571D01*
X209392857Y-195607142D01*
X209464285Y-195535714D01*
X209464285Y-195035714D01*
X209178571Y-195035714D01*
X262392857Y-185250000D02*
X262250000Y-185178571D01*
X262035714Y-185178571D01*
X261821428Y-185250000D01*
X261678571Y-185392857D01*
X261607142Y-185535714D01*
X261535714Y-185821428D01*
X261535714Y-186035714D01*
X261607142Y-186321428D01*
X261678571Y-186464285D01*
X261821428Y-186607142D01*
X262035714Y-186678571D01*
X262178571Y-186678571D01*
X262392857Y-186607142D01*
X262464285Y-186535714D01*
X262464285Y-186035714D01*
X262178571Y-186035714D01*
D10*
X106500000Y-146000000D02*
X110500000Y-146000000D01*
X137000000Y-194000000D02*
X141000000Y-194000000D01*
X110500000Y-187000000D02*
X110500000Y-185000000D01*
X133879460Y-190000000D02*
G75*
G03X133879460Y-190000000I-3889730J0D01*
G01*
X81000000Y-185000000D02*
X85000000Y-185000000D01*
X81000000Y-187000000D02*
X81000000Y-185000000D01*
X110500000Y-146000000D02*
X110500000Y-144000000D01*
X106500000Y-185000000D02*
X106500000Y-187000000D01*
X137000000Y-196000000D02*
X137000000Y-194000000D01*
X141000000Y-196000000D02*
X137000000Y-196000000D01*
X85000000Y-187000000D02*
X81000000Y-187000000D01*
X141000000Y-155000000D02*
X137000000Y-155000000D01*
X137000000Y-155000000D02*
X137000000Y-153000000D01*
X133579460Y-149200000D02*
G75*
G03X133579460Y-149200000I-3889730J0D01*
G01*
X81000000Y-144000000D02*
X85000000Y-144000000D01*
X85000000Y-144000000D02*
X85000000Y-146000000D01*
X85000000Y-146000000D02*
X81000000Y-146000000D01*
X141000000Y-194000000D02*
X141000000Y-196000000D01*
X81000000Y-146000000D02*
X81000000Y-144000000D01*
X106500000Y-144000000D02*
X106500000Y-146000000D01*
X137000000Y-153000000D02*
X141000000Y-153000000D01*
X106500000Y-187000000D02*
X110500000Y-187000000D01*
X141000000Y-153000000D02*
X141000000Y-155000000D01*
X85000000Y-185000000D02*
X85000000Y-187000000D01*
X97189730Y-149710270D02*
G75*
G03X97189730Y-149710270I-3889730J0D01*
G01*
X97389730Y-190710270D02*
G75*
G03X97389730Y-190710270I-3889730J0D01*
G01*
D11*
X85392857Y-153250000D02*
X85250000Y-153178571D01*
X85035714Y-153178571D01*
X84821428Y-153250000D01*
X84678571Y-153392857D01*
X84607142Y-153535714D01*
X84535714Y-153821428D01*
X84535714Y-154035714D01*
X84607142Y-154321428D01*
X84678571Y-154464285D01*
X84821428Y-154607142D01*
X85035714Y-154678571D01*
X85178571Y-154678571D01*
X85392857Y-154607142D01*
X85464285Y-154535714D01*
X85464285Y-154035714D01*
X85178571Y-154035714D01*
X200392857Y-185250000D02*
X200250000Y-185178571D01*
X200035714Y-185178571D01*
X199821428Y-185250000D01*
X199678571Y-185392857D01*
X199607142Y-185535714D01*
X199535714Y-185821428D01*
X199535714Y-186035714D01*
X199607142Y-186321428D01*
X199678571Y-186464285D01*
X199821428Y-186607142D01*
X200035714Y-186678571D01*
X200178571Y-186678571D01*
X200392857Y-186607142D01*
X200464285Y-186535714D01*
X200464285Y-186035714D01*
X200178571Y-186035714D01*
X147392857Y-194250000D02*
X147250000Y-194178571D01*
X147035714Y-194178571D01*
X146821428Y-194250000D01*
X146678571Y-194392857D01*
X146607142Y-194535714D01*
X146535714Y-194821428D01*
X146535714Y-195035714D01*
X146607142Y-195321428D01*
X146678571Y-195464285D01*
X146821428Y-195607142D01*
X147035714Y-195678571D01*
X147178571Y-195678571D01*
X147392857Y-195607142D01*
X147464285Y-195535714D01*
X147464285Y-195035714D01*
X147178571Y-195035714D01*
X85392857Y-194250000D02*
X85250000Y-194178571D01*
X85035714Y-194178571D01*
X84821428Y-194250000D01*
X84678571Y-194392857D01*
X84607142Y-194535714D01*
X84535714Y-194821428D01*
X84535714Y-195035714D01*
X84607142Y-195321428D01*
X84678571Y-195464285D01*
X84821428Y-195607142D01*
X85035714Y-195678571D01*
X85178571Y-195678571D01*
X85392857Y-195607142D01*
X85464285Y-195535714D01*
X85464285Y-195035714D01*
X85178571Y-195035714D01*
X200392857Y-144250000D02*
X200250000Y-144178571D01*
X200035714Y-144178571D01*
X199821428Y-144250000D01*
X199678571Y-144392857D01*
X199607142Y-144535714D01*
X199535714Y-144821428D01*
X199535714Y-145035714D01*
X199607142Y-145321428D01*
X199678571Y-145464285D01*
X199821428Y-145607142D01*
X200035714Y-145678571D01*
X200178571Y-145678571D01*
X200392857Y-145607142D01*
X200464285Y-145535714D01*
X200464285Y-145035714D01*
X200178571Y-145035714D01*
X147392857Y-153250000D02*
X147250000Y-153178571D01*
X147035714Y-153178571D01*
X146821428Y-153250000D01*
X146678571Y-153392857D01*
X146607142Y-153535714D01*
X146535714Y-153821428D01*
X146535714Y-154035714D01*
X146607142Y-154321428D01*
X146678571Y-154464285D01*
X146821428Y-154607142D01*
X147035714Y-154678571D01*
X147178571Y-154678571D01*
X147392857Y-154607142D01*
X147464285Y-154535714D01*
X147464285Y-154035714D01*
X147178571Y-154035714D01*
X138392857Y-185250000D02*
X138250000Y-185178571D01*
X138035714Y-185178571D01*
X137821428Y-185250000D01*
X137678571Y-185392857D01*
X137607142Y-185535714D01*
X137535714Y-185821428D01*
X137535714Y-186035714D01*
X137607142Y-186321428D01*
X137678571Y-186464285D01*
X137821428Y-186607142D01*
X138035714Y-186678571D01*
X138178571Y-186678571D01*
X138392857Y-186607142D01*
X138464285Y-186535714D01*
X138464285Y-186035714D01*
X138178571Y-186035714D01*
X138392857Y-144250000D02*
X138250000Y-144178571D01*
X138035714Y-144178571D01*
X137821428Y-144250000D01*
X137678571Y-144392857D01*
X137607142Y-144535714D01*
X137535714Y-144821428D01*
X137535714Y-145035714D01*
X137607142Y-145321428D01*
X137678571Y-145464285D01*
X137821428Y-145607142D01*
X138035714Y-145678571D01*
X138178571Y-145678571D01*
X138392857Y-145607142D01*
X138464285Y-145535714D01*
X138464285Y-145035714D01*
X138178571Y-145035714D01*
D10*
X199000000Y-196000000D02*
X199000000Y-194000000D01*
X199000000Y-153000000D02*
X203000000Y-153000000D01*
X159389730Y-190710270D02*
G75*
G03X159389730Y-190710270I-3889730J0D01*
G01*
X147000000Y-185000000D02*
X147000000Y-187000000D01*
X147000000Y-187000000D02*
X143000000Y-187000000D01*
X143000000Y-187000000D02*
X143000000Y-185000000D01*
X195579460Y-149200000D02*
G75*
G03X195579460Y-149200000I-3889730J0D01*
G01*
X168500000Y-144000000D02*
X168500000Y-146000000D01*
X172500000Y-146000000D02*
X172500000Y-144000000D01*
X203000000Y-194000000D02*
X203000000Y-196000000D01*
X199000000Y-194000000D02*
X203000000Y-194000000D01*
X143000000Y-146000000D02*
X143000000Y-144000000D01*
X143000000Y-144000000D02*
X147000000Y-144000000D01*
X195879460Y-190000000D02*
G75*
G03X195879460Y-190000000I-3889730J0D01*
G01*
X168500000Y-146000000D02*
X172500000Y-146000000D01*
X172500000Y-187000000D02*
X172500000Y-185000000D01*
X147000000Y-144000000D02*
X147000000Y-146000000D01*
X199000000Y-155000000D02*
X199000000Y-153000000D01*
X168500000Y-187000000D02*
X172500000Y-187000000D01*
X147000000Y-146000000D02*
X143000000Y-146000000D01*
X203000000Y-153000000D02*
X203000000Y-155000000D01*
X159189730Y-149710270D02*
G75*
G03X159189730Y-149710270I-3889730J0D01*
G01*
X143000000Y-185000000D02*
X147000000Y-185000000D01*
X168500000Y-185000000D02*
X168500000Y-187000000D01*
X203000000Y-196000000D02*
X199000000Y-196000000D01*
X203000000Y-155000000D02*
X199000000Y-155000000D01*
X230500000Y-64000000D02*
X234500000Y-64000000D01*
X261000000Y-112000000D02*
X265000000Y-112000000D01*
X234500000Y-105000000D02*
X234500000Y-103000000D01*
X257879460Y-108000000D02*
G75*
G03X257879460Y-108000000I-3889730J0D01*
G01*
X205000000Y-103000000D02*
X209000000Y-103000000D01*
X205000000Y-105000000D02*
X205000000Y-103000000D01*
X234500000Y-64000000D02*
X234500000Y-62000000D01*
X230500000Y-103000000D02*
X230500000Y-105000000D01*
X261000000Y-114000000D02*
X261000000Y-112000000D01*
X265000000Y-114000000D02*
X261000000Y-114000000D01*
X209000000Y-105000000D02*
X205000000Y-105000000D01*
X265000000Y-73000000D02*
X261000000Y-73000000D01*
X261000000Y-73000000D02*
X261000000Y-71000000D01*
X257579460Y-67200000D02*
G75*
G03X257579460Y-67200000I-3889730J0D01*
G01*
X205000000Y-62000000D02*
X209000000Y-62000000D01*
X209000000Y-62000000D02*
X209000000Y-64000000D01*
X209000000Y-64000000D02*
X205000000Y-64000000D01*
X265000000Y-112000000D02*
X265000000Y-114000000D01*
X205000000Y-64000000D02*
X205000000Y-62000000D01*
X230500000Y-62000000D02*
X230500000Y-64000000D01*
X261000000Y-71000000D02*
X265000000Y-71000000D01*
X230500000Y-105000000D02*
X234500000Y-105000000D01*
X265000000Y-71000000D02*
X265000000Y-73000000D01*
X209000000Y-103000000D02*
X209000000Y-105000000D01*
X221189730Y-67710270D02*
G75*
G03X221189730Y-67710270I-3889730J0D01*
G01*
X221389730Y-108710270D02*
G75*
G03X221389730Y-108710270I-3889730J0D01*
G01*
D11*
X209392857Y-71250000D02*
X209250000Y-71178571D01*
X209035714Y-71178571D01*
X208821428Y-71250000D01*
X208678571Y-71392857D01*
X208607142Y-71535714D01*
X208535714Y-71821428D01*
X208535714Y-72035714D01*
X208607142Y-72321428D01*
X208678571Y-72464285D01*
X208821428Y-72607142D01*
X209035714Y-72678571D01*
X209178571Y-72678571D01*
X209392857Y-72607142D01*
X209464285Y-72535714D01*
X209464285Y-72035714D01*
X209178571Y-72035714D01*
X324392857Y-103250000D02*
X324250000Y-103178571D01*
X324035714Y-103178571D01*
X323821428Y-103250000D01*
X323678571Y-103392857D01*
X323607142Y-103535714D01*
X323535714Y-103821428D01*
X323535714Y-104035714D01*
X323607142Y-104321428D01*
X323678571Y-104464285D01*
X323821428Y-104607142D01*
X324035714Y-104678571D01*
X324178571Y-104678571D01*
X324392857Y-104607142D01*
X324464285Y-104535714D01*
X324464285Y-104035714D01*
X324178571Y-104035714D01*
X271392857Y-112250000D02*
X271250000Y-112178571D01*
X271035714Y-112178571D01*
X270821428Y-112250000D01*
X270678571Y-112392857D01*
X270607142Y-112535714D01*
X270535714Y-112821428D01*
X270535714Y-113035714D01*
X270607142Y-113321428D01*
X270678571Y-113464285D01*
X270821428Y-113607142D01*
X271035714Y-113678571D01*
X271178571Y-113678571D01*
X271392857Y-113607142D01*
X271464285Y-113535714D01*
X271464285Y-113035714D01*
X271178571Y-113035714D01*
X209392857Y-112250000D02*
X209250000Y-112178571D01*
X209035714Y-112178571D01*
X208821428Y-112250000D01*
X208678571Y-112392857D01*
X208607142Y-112535714D01*
X208535714Y-112821428D01*
X208535714Y-113035714D01*
X208607142Y-113321428D01*
X208678571Y-113464285D01*
X208821428Y-113607142D01*
X209035714Y-113678571D01*
X209178571Y-113678571D01*
X209392857Y-113607142D01*
X209464285Y-113535714D01*
X209464285Y-113035714D01*
X209178571Y-113035714D01*
X324392857Y-62250000D02*
X324250000Y-62178571D01*
X324035714Y-62178571D01*
X323821428Y-62250000D01*
X323678571Y-62392857D01*
X323607142Y-62535714D01*
X323535714Y-62821428D01*
X323535714Y-63035714D01*
X323607142Y-63321428D01*
X323678571Y-63464285D01*
X323821428Y-63607142D01*
X324035714Y-63678571D01*
X324178571Y-63678571D01*
X324392857Y-63607142D01*
X324464285Y-63535714D01*
X324464285Y-63035714D01*
X324178571Y-63035714D01*
X271392857Y-71250000D02*
X271250000Y-71178571D01*
X271035714Y-71178571D01*
X270821428Y-71250000D01*
X270678571Y-71392857D01*
X270607142Y-71535714D01*
X270535714Y-71821428D01*
X270535714Y-72035714D01*
X270607142Y-72321428D01*
X270678571Y-72464285D01*
X270821428Y-72607142D01*
X271035714Y-72678571D01*
X271178571Y-72678571D01*
X271392857Y-72607142D01*
X271464285Y-72535714D01*
X271464285Y-72035714D01*
X271178571Y-72035714D01*
X262392857Y-103250000D02*
X262250000Y-103178571D01*
X262035714Y-103178571D01*
X261821428Y-103250000D01*
X261678571Y-103392857D01*
X261607142Y-103535714D01*
X261535714Y-103821428D01*
X261535714Y-104035714D01*
X261607142Y-104321428D01*
X261678571Y-104464285D01*
X261821428Y-104607142D01*
X262035714Y-104678571D01*
X262178571Y-104678571D01*
X262392857Y-104607142D01*
X262464285Y-104535714D01*
X262464285Y-104035714D01*
X262178571Y-104035714D01*
X262392857Y-62250000D02*
X262250000Y-62178571D01*
X262035714Y-62178571D01*
X261821428Y-62250000D01*
X261678571Y-62392857D01*
X261607142Y-62535714D01*
X261535714Y-62821428D01*
X261535714Y-63035714D01*
X261607142Y-63321428D01*
X261678571Y-63464285D01*
X261821428Y-63607142D01*
X262035714Y-63678571D01*
X262178571Y-63678571D01*
X262392857Y-63607142D01*
X262464285Y-63535714D01*
X262464285Y-63035714D01*
X262178571Y-63035714D01*
D10*
X323000000Y-114000000D02*
X323000000Y-112000000D01*
X323000000Y-71000000D02*
X327000000Y-71000000D01*
X283389730Y-108710270D02*
G75*
G03X283389730Y-108710270I-3889730J0D01*
G01*
X271000000Y-103000000D02*
X271000000Y-105000000D01*
X271000000Y-105000000D02*
X267000000Y-105000000D01*
X267000000Y-105000000D02*
X267000000Y-103000000D01*
X319579460Y-67200000D02*
G75*
G03X319579460Y-67200000I-3889730J0D01*
G01*
X292500000Y-62000000D02*
X292500000Y-64000000D01*
X296500000Y-64000000D02*
X296500000Y-62000000D01*
X327000000Y-112000000D02*
X327000000Y-114000000D01*
X323000000Y-112000000D02*
X327000000Y-112000000D01*
X267000000Y-64000000D02*
X267000000Y-62000000D01*
X267000000Y-62000000D02*
X271000000Y-62000000D01*
X319879460Y-108000000D02*
G75*
G03X319879460Y-108000000I-3889730J0D01*
G01*
X292500000Y-64000000D02*
X296500000Y-64000000D01*
X296500000Y-105000000D02*
X296500000Y-103000000D01*
X271000000Y-62000000D02*
X271000000Y-64000000D01*
X323000000Y-73000000D02*
X323000000Y-71000000D01*
X292500000Y-105000000D02*
X296500000Y-105000000D01*
X271000000Y-64000000D02*
X267000000Y-64000000D01*
X327000000Y-71000000D02*
X327000000Y-73000000D01*
X283189730Y-67710270D02*
G75*
G03X283189730Y-67710270I-3889730J0D01*
G01*
X267000000Y-103000000D02*
X271000000Y-103000000D01*
X292500000Y-103000000D02*
X292500000Y-105000000D01*
X327000000Y-114000000D02*
X323000000Y-114000000D01*
X327000000Y-73000000D02*
X323000000Y-73000000D01*
X168500000Y-64000000D02*
X172500000Y-64000000D01*
X199000000Y-112000000D02*
X203000000Y-112000000D01*
X172500000Y-105000000D02*
X172500000Y-103000000D01*
X195879460Y-108000000D02*
G75*
G03X195879460Y-108000000I-3889730J0D01*
G01*
X143000000Y-103000000D02*
X147000000Y-103000000D01*
X143000000Y-105000000D02*
X143000000Y-103000000D01*
X172500000Y-64000000D02*
X172500000Y-62000000D01*
X168500000Y-103000000D02*
X168500000Y-105000000D01*
X199000000Y-114000000D02*
X199000000Y-112000000D01*
X203000000Y-114000000D02*
X199000000Y-114000000D01*
X147000000Y-105000000D02*
X143000000Y-105000000D01*
X203000000Y-73000000D02*
X199000000Y-73000000D01*
X199000000Y-73000000D02*
X199000000Y-71000000D01*
X195579460Y-67200000D02*
G75*
G03X195579460Y-67200000I-3889730J0D01*
G01*
X143000000Y-62000000D02*
X147000000Y-62000000D01*
X147000000Y-62000000D02*
X147000000Y-64000000D01*
X147000000Y-64000000D02*
X143000000Y-64000000D01*
X203000000Y-112000000D02*
X203000000Y-114000000D01*
X143000000Y-64000000D02*
X143000000Y-62000000D01*
X168500000Y-62000000D02*
X168500000Y-64000000D01*
X199000000Y-71000000D02*
X203000000Y-71000000D01*
X168500000Y-105000000D02*
X172500000Y-105000000D01*
X203000000Y-71000000D02*
X203000000Y-73000000D01*
X147000000Y-103000000D02*
X147000000Y-105000000D01*
X159189730Y-67710270D02*
G75*
G03X159189730Y-67710270I-3889730J0D01*
G01*
X159389730Y-108710270D02*
G75*
G03X159389730Y-108710270I-3889730J0D01*
G01*
D11*
X147392857Y-71250000D02*
X147250000Y-71178571D01*
X147035714Y-71178571D01*
X146821428Y-71250000D01*
X146678571Y-71392857D01*
X146607142Y-71535714D01*
X146535714Y-71821428D01*
X146535714Y-72035714D01*
X146607142Y-72321428D01*
X146678571Y-72464285D01*
X146821428Y-72607142D01*
X147035714Y-72678571D01*
X147178571Y-72678571D01*
X147392857Y-72607142D01*
X147464285Y-72535714D01*
X147464285Y-72035714D01*
X147178571Y-72035714D01*
X147392857Y-112250000D02*
X147250000Y-112178571D01*
X147035714Y-112178571D01*
X146821428Y-112250000D01*
X146678571Y-112392857D01*
X146607142Y-112535714D01*
X146535714Y-112821428D01*
X146535714Y-113035714D01*
X146607142Y-113321428D01*
X146678571Y-113464285D01*
X146821428Y-113607142D01*
X147035714Y-113678571D01*
X147178571Y-113678571D01*
X147392857Y-113607142D01*
X147464285Y-113535714D01*
X147464285Y-113035714D01*
X147178571Y-113035714D01*
X200392857Y-103250000D02*
X200250000Y-103178571D01*
X200035714Y-103178571D01*
X199821428Y-103250000D01*
X199678571Y-103392857D01*
X199607142Y-103535714D01*
X199535714Y-103821428D01*
X199535714Y-104035714D01*
X199607142Y-104321428D01*
X199678571Y-104464285D01*
X199821428Y-104607142D01*
X200035714Y-104678571D01*
X200178571Y-104678571D01*
X200392857Y-104607142D01*
X200464285Y-104535714D01*
X200464285Y-104035714D01*
X200178571Y-104035714D01*
X200392857Y-62250000D02*
X200250000Y-62178571D01*
X200035714Y-62178571D01*
X199821428Y-62250000D01*
X199678571Y-62392857D01*
X199607142Y-62535714D01*
X199535714Y-62821428D01*
X199535714Y-63035714D01*
X199607142Y-63321428D01*
X199678571Y-63464285D01*
X199821428Y-63607142D01*
X200035714Y-63678571D01*
X200178571Y-63678571D01*
X200392857Y-63607142D01*
X200464285Y-63535714D01*
X200464285Y-63035714D01*
X200178571Y-63035714D01*
X85392857Y-112250000D02*
X85250000Y-112178571D01*
X85035714Y-112178571D01*
X84821428Y-112250000D01*
X84678571Y-112392857D01*
X84607142Y-112535714D01*
X84535714Y-112821428D01*
X84535714Y-113035714D01*
X84607142Y-113321428D01*
X84678571Y-113464285D01*
X84821428Y-113607142D01*
X85035714Y-113678571D01*
X85178571Y-113678571D01*
X85392857Y-113607142D01*
X85464285Y-113535714D01*
X85464285Y-113035714D01*
X85178571Y-113035714D01*
X138392857Y-103250000D02*
X138250000Y-103178571D01*
X138035714Y-103178571D01*
X137821428Y-103250000D01*
X137678571Y-103392857D01*
X137607142Y-103535714D01*
X137535714Y-103821428D01*
X137535714Y-104035714D01*
X137607142Y-104321428D01*
X137678571Y-104464285D01*
X137821428Y-104607142D01*
X138035714Y-104678571D01*
X138178571Y-104678571D01*
X138392857Y-104607142D01*
X138464285Y-104535714D01*
X138464285Y-104035714D01*
X138178571Y-104035714D01*
X138392857Y-62250000D02*
X138250000Y-62178571D01*
X138035714Y-62178571D01*
X137821428Y-62250000D01*
X137678571Y-62392857D01*
X137607142Y-62535714D01*
X137535714Y-62821428D01*
X137535714Y-63035714D01*
X137607142Y-63321428D01*
X137678571Y-63464285D01*
X137821428Y-63607142D01*
X138035714Y-63678571D01*
X138178571Y-63678571D01*
X138392857Y-63607142D01*
X138464285Y-63535714D01*
X138464285Y-63035714D01*
X138178571Y-63035714D01*
X85392857Y-71250000D02*
X85250000Y-71178571D01*
X85035714Y-71178571D01*
X84821428Y-71250000D01*
X84678571Y-71392857D01*
X84607142Y-71535714D01*
X84535714Y-71821428D01*
X84535714Y-72035714D01*
X84607142Y-72321428D01*
X84678571Y-72464285D01*
X84821428Y-72607142D01*
X85035714Y-72678571D01*
X85178571Y-72678571D01*
X85392857Y-72607142D01*
X85464285Y-72535714D01*
X85464285Y-72035714D01*
X85178571Y-72035714D01*
D10*
X133879460Y-108000000D02*
G75*
G03X133879460Y-108000000I-3889730J0D01*
G01*
X97389730Y-108710270D02*
G75*
G03X97389730Y-108710270I-3889730J0D01*
G01*
X133579460Y-67200000D02*
G75*
G03X133579460Y-67200000I-3889730J0D01*
G01*
X97189730Y-67710270D02*
G75*
G03X97189730Y-67710270I-3889730J0D01*
G01*
X81000000Y-105000000D02*
X81000000Y-103000000D01*
X85000000Y-105000000D02*
X81000000Y-105000000D01*
X85000000Y-103000000D02*
X85000000Y-105000000D01*
X81000000Y-103000000D02*
X85000000Y-103000000D01*
X137000000Y-73000000D02*
X137000000Y-71000000D01*
X141000000Y-73000000D02*
X137000000Y-73000000D01*
X141000000Y-71000000D02*
X141000000Y-73000000D01*
X137000000Y-71000000D02*
X141000000Y-71000000D01*
X137000000Y-114000000D02*
X137000000Y-112000000D01*
X141000000Y-114000000D02*
X137000000Y-114000000D01*
X141000000Y-112000000D02*
X141000000Y-114000000D01*
X137000000Y-112000000D02*
X141000000Y-112000000D01*
X110500000Y-105000000D02*
X110500000Y-103000000D01*
X106500000Y-105000000D02*
X110500000Y-105000000D01*
X106500000Y-103000000D02*
X106500000Y-105000000D01*
X110500000Y-64000000D02*
X110500000Y-62000000D01*
X106500000Y-64000000D02*
X110500000Y-64000000D01*
X106500000Y-62000000D02*
X106500000Y-64000000D01*
X81000000Y-64000000D02*
X81000000Y-62000000D01*
X85000000Y-64000000D02*
X81000000Y-64000000D01*
X85000000Y-62000000D02*
X85000000Y-64000000D01*
X81000000Y-62000000D02*
X85000000Y-62000000D01*
D12*
G04 #@! TO.C,D1*
X209300000Y-54500000D02*
X215000000Y-54500000D01*
X209300000Y-51500000D02*
X209300000Y-54500000D01*
X215000000Y-51500000D02*
X209300000Y-51500000D01*
G04 #@! TO.C,R9*
X214550000Y-174070000D02*
X212550000Y-174070000D01*
X212550000Y-171930000D02*
X214550000Y-171930000D01*
G04 #@! TO.C,R8*
X261450000Y-206930000D02*
X263450000Y-206930000D01*
X263450000Y-209070000D02*
X261450000Y-209070000D01*
D13*
G04 #@! TO.C,X9*
X205750000Y-183960000D02*
X205750000Y-174710000D01*
X205750000Y-174710000D02*
X208250000Y-174710000D01*
X208250000Y-174710000D02*
X208250000Y-183960000D01*
X208250000Y-183960000D02*
X205750000Y-183960000D01*
D12*
G04 #@! TO.C,R3*
X263450000Y-168070000D02*
X261450000Y-168070000D01*
X261450000Y-165930000D02*
X263450000Y-165930000D01*
D13*
G04 #@! TO.C,X6*
X242000000Y-165750000D02*
X242000000Y-168250000D01*
X232750000Y-165750000D02*
X242000000Y-165750000D01*
X232750000Y-168250000D02*
X232750000Y-165750000D01*
X242000000Y-168250000D02*
X232750000Y-168250000D01*
D12*
G04 #@! TO.C,R1*
X256550000Y-165930000D02*
X258550000Y-165930000D01*
X258550000Y-168070000D02*
X256550000Y-168070000D01*
G04 #@! TO.C,D1*
X215000000Y-133500000D02*
X209300000Y-133500000D01*
X209300000Y-133500000D02*
X209300000Y-136500000D01*
X209300000Y-136500000D02*
X215000000Y-136500000D01*
G04 #@! TO.C,D3*
X209300000Y-177500000D02*
X215000000Y-177500000D01*
X209300000Y-174500000D02*
X209300000Y-177500000D01*
X215000000Y-174500000D02*
X209300000Y-174500000D01*
D14*
G04 #@! TO.C,X4*
X216100000Y-168700000D02*
X216100000Y-157700000D01*
X230100000Y-168700000D02*
X216100000Y-168700000D01*
X230100000Y-157700000D02*
X230100000Y-168700000D01*
X216100000Y-157700000D02*
X230100000Y-157700000D01*
D12*
G04 #@! TO.C,R4*
X212550000Y-130930000D02*
X214550000Y-130930000D01*
X214550000Y-133070000D02*
X212550000Y-133070000D01*
G04 #@! TO.C,R2*
X209550000Y-133070000D02*
X207550000Y-133070000D01*
X207550000Y-130930000D02*
X209550000Y-130930000D01*
G04 #@! TO.C,R6*
X258550000Y-209070000D02*
X256550000Y-209070000D01*
X256550000Y-206930000D02*
X258550000Y-206930000D01*
D13*
G04 #@! TO.C,X12*
X227960000Y-182550000D02*
X237210000Y-182550000D01*
X237210000Y-182550000D02*
X237210000Y-185050000D01*
X237210000Y-185050000D02*
X227960000Y-185050000D01*
X227960000Y-185050000D02*
X227960000Y-182550000D01*
G04 #@! TO.C,X3*
X303960000Y-206750000D02*
X303960000Y-209250000D01*
X294710000Y-206750000D02*
X303960000Y-206750000D01*
X294710000Y-209250000D02*
X294710000Y-206750000D01*
X303960000Y-209250000D02*
X294710000Y-209250000D01*
G04 #@! TO.C,X17*
X270250000Y-142840000D02*
X267750000Y-142840000D01*
X270250000Y-133590000D02*
X270250000Y-142840000D01*
X267750000Y-133590000D02*
X270250000Y-133590000D01*
X267750000Y-142840000D02*
X267750000Y-133590000D01*
G04 #@! TO.C,X7*
X324750000Y-205900000D02*
X324750000Y-196650000D01*
X324750000Y-196650000D02*
X327250000Y-196650000D01*
X327250000Y-196650000D02*
X327250000Y-205900000D01*
X327250000Y-205900000D02*
X324750000Y-205900000D01*
D14*
G04 #@! TO.C,X2*
X237000000Y-170900000D02*
X251000000Y-170900000D01*
X251000000Y-170900000D02*
X251000000Y-181900000D01*
X251000000Y-181900000D02*
X237000000Y-181900000D01*
X237000000Y-181900000D02*
X237000000Y-170900000D01*
D12*
G04 #@! TO.C,R7*
X207550000Y-171930000D02*
X209550000Y-171930000D01*
X209550000Y-174070000D02*
X207550000Y-174070000D01*
D13*
G04 #@! TO.C,X14*
X327250000Y-164900000D02*
X324750000Y-164900000D01*
X327250000Y-155650000D02*
X327250000Y-164900000D01*
X324750000Y-155650000D02*
X327250000Y-155650000D01*
X324750000Y-164900000D02*
X324750000Y-155650000D01*
D14*
G04 #@! TO.C,X1*
X216000000Y-210000000D02*
X216000000Y-199000000D01*
X230000000Y-210000000D02*
X216000000Y-210000000D01*
X230000000Y-199000000D02*
X230000000Y-210000000D01*
X216000000Y-199000000D02*
X230000000Y-199000000D01*
G04 #@! TO.C,X5*
X237000000Y-129900000D02*
X251000000Y-129900000D01*
X251000000Y-129900000D02*
X251000000Y-140900000D01*
X251000000Y-140900000D02*
X237000000Y-140900000D01*
X237000000Y-140900000D02*
X237000000Y-129900000D01*
D12*
G04 #@! TO.C,D2*
X318200000Y-165500000D02*
X323900000Y-165500000D01*
X323900000Y-165500000D02*
X323900000Y-162500000D01*
X323900000Y-162500000D02*
X318200000Y-162500000D01*
G04 #@! TO.C,D4*
X323900000Y-203500000D02*
X318200000Y-203500000D01*
X323900000Y-206500000D02*
X323900000Y-203500000D01*
X318200000Y-206500000D02*
X323900000Y-206500000D01*
D13*
G04 #@! TO.C,X26*
X289960000Y-144050000D02*
X289960000Y-141550000D01*
X299210000Y-144050000D02*
X289960000Y-144050000D01*
X299210000Y-141550000D02*
X299210000Y-144050000D01*
X289960000Y-141550000D02*
X299210000Y-141550000D01*
G04 #@! TO.C,X12*
X289960000Y-185050000D02*
X289960000Y-182550000D01*
X299210000Y-185050000D02*
X289960000Y-185050000D01*
X299210000Y-182550000D02*
X299210000Y-185050000D01*
X289960000Y-182550000D02*
X299210000Y-182550000D01*
D12*
G04 #@! TO.C,R6*
X318550000Y-206930000D02*
X320550000Y-206930000D01*
X320550000Y-209070000D02*
X318550000Y-209070000D01*
G04 #@! TO.C,R2*
X269550000Y-130930000D02*
X271550000Y-130930000D01*
X271550000Y-133070000D02*
X269550000Y-133070000D01*
G04 #@! TO.C,R7*
X271550000Y-174070000D02*
X269550000Y-174070000D01*
X269550000Y-171930000D02*
X271550000Y-171930000D01*
D14*
G04 #@! TO.C,X5*
X299000000Y-140900000D02*
X299000000Y-129900000D01*
X313000000Y-140900000D02*
X299000000Y-140900000D01*
X313000000Y-129900000D02*
X313000000Y-140900000D01*
X299000000Y-129900000D02*
X313000000Y-129900000D01*
G04 #@! TO.C,X1*
X278000000Y-199000000D02*
X292000000Y-199000000D01*
X292000000Y-199000000D02*
X292000000Y-210000000D01*
X292000000Y-210000000D02*
X278000000Y-210000000D01*
X278000000Y-210000000D02*
X278000000Y-199000000D01*
D13*
G04 #@! TO.C,X26*
X227960000Y-141550000D02*
X237210000Y-141550000D01*
X237210000Y-141550000D02*
X237210000Y-144050000D01*
X237210000Y-144050000D02*
X227960000Y-144050000D01*
X227960000Y-144050000D02*
X227960000Y-141550000D01*
G04 #@! TO.C,X17*
X205750000Y-142840000D02*
X205750000Y-133590000D01*
X205750000Y-133590000D02*
X208250000Y-133590000D01*
X208250000Y-133590000D02*
X208250000Y-142840000D01*
X208250000Y-142840000D02*
X205750000Y-142840000D01*
D12*
G04 #@! TO.C,D3*
X277000000Y-174500000D02*
X271300000Y-174500000D01*
X271300000Y-174500000D02*
X271300000Y-177500000D01*
X271300000Y-177500000D02*
X277000000Y-177500000D01*
D14*
G04 #@! TO.C,X4*
X278100000Y-157700000D02*
X292100000Y-157700000D01*
X292100000Y-157700000D02*
X292100000Y-168700000D01*
X292100000Y-168700000D02*
X278100000Y-168700000D01*
X278100000Y-168700000D02*
X278100000Y-157700000D01*
D12*
G04 #@! TO.C,R4*
X276550000Y-133070000D02*
X274550000Y-133070000D01*
X274550000Y-130930000D02*
X276550000Y-130930000D01*
G04 #@! TO.C,R9*
X274550000Y-171930000D02*
X276550000Y-171930000D01*
X276550000Y-174070000D02*
X274550000Y-174070000D01*
D13*
G04 #@! TO.C,X7*
X265250000Y-205900000D02*
X262750000Y-205900000D01*
X265250000Y-196650000D02*
X265250000Y-205900000D01*
X262750000Y-196650000D02*
X265250000Y-196650000D01*
X262750000Y-205900000D02*
X262750000Y-196650000D01*
D12*
G04 #@! TO.C,D4*
X256200000Y-206500000D02*
X261900000Y-206500000D01*
X261900000Y-206500000D02*
X261900000Y-203500000D01*
X261900000Y-203500000D02*
X256200000Y-203500000D01*
D14*
G04 #@! TO.C,X2*
X299000000Y-181900000D02*
X299000000Y-170900000D01*
X313000000Y-181900000D02*
X299000000Y-181900000D01*
X313000000Y-170900000D02*
X313000000Y-181900000D01*
X299000000Y-170900000D02*
X313000000Y-170900000D01*
D13*
G04 #@! TO.C,X14*
X262750000Y-164900000D02*
X262750000Y-155650000D01*
X262750000Y-155650000D02*
X265250000Y-155650000D01*
X265250000Y-155650000D02*
X265250000Y-164900000D01*
X265250000Y-164900000D02*
X262750000Y-164900000D01*
G04 #@! TO.C,X3*
X241960000Y-209250000D02*
X232710000Y-209250000D01*
X232710000Y-209250000D02*
X232710000Y-206750000D01*
X232710000Y-206750000D02*
X241960000Y-206750000D01*
X241960000Y-206750000D02*
X241960000Y-209250000D01*
G04 #@! TO.C,X6*
X304000000Y-168250000D02*
X294750000Y-168250000D01*
X294750000Y-168250000D02*
X294750000Y-165750000D01*
X294750000Y-165750000D02*
X304000000Y-165750000D01*
X304000000Y-165750000D02*
X304000000Y-168250000D01*
D12*
G04 #@! TO.C,D2*
X261900000Y-162500000D02*
X256200000Y-162500000D01*
X261900000Y-165500000D02*
X261900000Y-162500000D01*
X256200000Y-165500000D02*
X261900000Y-165500000D01*
D13*
G04 #@! TO.C,X9*
X270250000Y-183960000D02*
X267750000Y-183960000D01*
X270250000Y-174710000D02*
X270250000Y-183960000D01*
X267750000Y-174710000D02*
X270250000Y-174710000D01*
X267750000Y-183960000D02*
X267750000Y-174710000D01*
D12*
G04 #@! TO.C,R8*
X325450000Y-209070000D02*
X323450000Y-209070000D01*
X323450000Y-206930000D02*
X325450000Y-206930000D01*
G04 #@! TO.C,R1*
X320550000Y-168070000D02*
X318550000Y-168070000D01*
X318550000Y-165930000D02*
X320550000Y-165930000D01*
G04 #@! TO.C,D1*
X271300000Y-136500000D02*
X277000000Y-136500000D01*
X271300000Y-133500000D02*
X271300000Y-136500000D01*
X277000000Y-133500000D02*
X271300000Y-133500000D01*
G04 #@! TO.C,R3*
X323450000Y-165930000D02*
X325450000Y-165930000D01*
X325450000Y-168070000D02*
X323450000Y-168070000D01*
D13*
G04 #@! TO.C,X6*
X118000000Y-168250000D02*
X108750000Y-168250000D01*
X108750000Y-168250000D02*
X108750000Y-165750000D01*
X108750000Y-165750000D02*
X118000000Y-165750000D01*
X118000000Y-165750000D02*
X118000000Y-168250000D01*
D12*
G04 #@! TO.C,R1*
X134550000Y-168070000D02*
X132550000Y-168070000D01*
X132550000Y-165930000D02*
X134550000Y-165930000D01*
G04 #@! TO.C,R8*
X139450000Y-209070000D02*
X137450000Y-209070000D01*
X137450000Y-206930000D02*
X139450000Y-206930000D01*
G04 #@! TO.C,D1*
X85300000Y-136500000D02*
X91000000Y-136500000D01*
X85300000Y-133500000D02*
X85300000Y-136500000D01*
X91000000Y-133500000D02*
X85300000Y-133500000D01*
D13*
G04 #@! TO.C,X9*
X84250000Y-183960000D02*
X81750000Y-183960000D01*
X84250000Y-174710000D02*
X84250000Y-183960000D01*
X81750000Y-174710000D02*
X84250000Y-174710000D01*
X81750000Y-183960000D02*
X81750000Y-174710000D01*
D12*
G04 #@! TO.C,R3*
X137450000Y-165930000D02*
X139450000Y-165930000D01*
X139450000Y-168070000D02*
X137450000Y-168070000D01*
G04 #@! TO.C,D3*
X91000000Y-174500000D02*
X85300000Y-174500000D01*
X85300000Y-174500000D02*
X85300000Y-177500000D01*
X85300000Y-177500000D02*
X91000000Y-177500000D01*
D14*
G04 #@! TO.C,X4*
X92100000Y-157700000D02*
X106100000Y-157700000D01*
X106100000Y-157700000D02*
X106100000Y-168700000D01*
X106100000Y-168700000D02*
X92100000Y-168700000D01*
X92100000Y-168700000D02*
X92100000Y-157700000D01*
D12*
G04 #@! TO.C,R4*
X90550000Y-133070000D02*
X88550000Y-133070000D01*
X88550000Y-130930000D02*
X90550000Y-130930000D01*
G04 #@! TO.C,R9*
X88550000Y-171930000D02*
X90550000Y-171930000D01*
X90550000Y-174070000D02*
X88550000Y-174070000D01*
D14*
G04 #@! TO.C,X5*
X113000000Y-140900000D02*
X113000000Y-129900000D01*
X127000000Y-140900000D02*
X113000000Y-140900000D01*
X127000000Y-129900000D02*
X127000000Y-140900000D01*
X113000000Y-129900000D02*
X127000000Y-129900000D01*
D12*
G04 #@! TO.C,R2*
X83550000Y-130930000D02*
X85550000Y-130930000D01*
X85550000Y-133070000D02*
X83550000Y-133070000D01*
D14*
G04 #@! TO.C,X2*
X113000000Y-181900000D02*
X113000000Y-170900000D01*
X127000000Y-181900000D02*
X113000000Y-181900000D01*
X127000000Y-170900000D02*
X127000000Y-181900000D01*
X113000000Y-170900000D02*
X127000000Y-170900000D01*
G04 #@! TO.C,X1*
X92000000Y-199000000D02*
X106000000Y-199000000D01*
X106000000Y-199000000D02*
X106000000Y-210000000D01*
X106000000Y-210000000D02*
X92000000Y-210000000D01*
X92000000Y-210000000D02*
X92000000Y-199000000D01*
D12*
G04 #@! TO.C,R6*
X132550000Y-206930000D02*
X134550000Y-206930000D01*
X134550000Y-209070000D02*
X132550000Y-209070000D01*
D13*
G04 #@! TO.C,X12*
X103960000Y-185050000D02*
X103960000Y-182550000D01*
X113210000Y-185050000D02*
X103960000Y-185050000D01*
X113210000Y-182550000D02*
X113210000Y-185050000D01*
X103960000Y-182550000D02*
X113210000Y-182550000D01*
D12*
G04 #@! TO.C,R7*
X85550000Y-174070000D02*
X83550000Y-174070000D01*
X83550000Y-171930000D02*
X85550000Y-171930000D01*
G04 #@! TO.C,D2*
X199900000Y-162500000D02*
X194200000Y-162500000D01*
X199900000Y-165500000D02*
X199900000Y-162500000D01*
X194200000Y-165500000D02*
X199900000Y-165500000D01*
D13*
G04 #@! TO.C,X3*
X179960000Y-209250000D02*
X170710000Y-209250000D01*
X170710000Y-209250000D02*
X170710000Y-206750000D01*
X170710000Y-206750000D02*
X179960000Y-206750000D01*
X179960000Y-206750000D02*
X179960000Y-209250000D01*
G04 #@! TO.C,X17*
X143750000Y-142840000D02*
X143750000Y-133590000D01*
X143750000Y-133590000D02*
X146250000Y-133590000D01*
X146250000Y-133590000D02*
X146250000Y-142840000D01*
X146250000Y-142840000D02*
X143750000Y-142840000D01*
G04 #@! TO.C,X14*
X200750000Y-164900000D02*
X200750000Y-155650000D01*
X200750000Y-155650000D02*
X203250000Y-155650000D01*
X203250000Y-155650000D02*
X203250000Y-164900000D01*
X203250000Y-164900000D02*
X200750000Y-164900000D01*
G04 #@! TO.C,X7*
X203250000Y-205900000D02*
X200750000Y-205900000D01*
X203250000Y-196650000D02*
X203250000Y-205900000D01*
X200750000Y-196650000D02*
X203250000Y-196650000D01*
X200750000Y-205900000D02*
X200750000Y-196650000D01*
D12*
G04 #@! TO.C,R4*
X150550000Y-130930000D02*
X152550000Y-130930000D01*
X152550000Y-133070000D02*
X150550000Y-133070000D01*
G04 #@! TO.C,D4*
X194200000Y-206500000D02*
X199900000Y-206500000D01*
X199900000Y-206500000D02*
X199900000Y-203500000D01*
X199900000Y-203500000D02*
X194200000Y-203500000D01*
G04 #@! TO.C,R9*
X152550000Y-174070000D02*
X150550000Y-174070000D01*
X150550000Y-171930000D02*
X152550000Y-171930000D01*
D13*
G04 #@! TO.C,X26*
X165960000Y-141550000D02*
X175210000Y-141550000D01*
X175210000Y-141550000D02*
X175210000Y-144050000D01*
X175210000Y-144050000D02*
X165960000Y-144050000D01*
X165960000Y-144050000D02*
X165960000Y-141550000D01*
D12*
G04 #@! TO.C,D3*
X147300000Y-177500000D02*
X153000000Y-177500000D01*
X147300000Y-174500000D02*
X147300000Y-177500000D01*
X153000000Y-174500000D02*
X147300000Y-174500000D01*
D14*
G04 #@! TO.C,X4*
X154100000Y-168700000D02*
X154100000Y-157700000D01*
X168100000Y-168700000D02*
X154100000Y-168700000D01*
X168100000Y-157700000D02*
X168100000Y-168700000D01*
X154100000Y-157700000D02*
X168100000Y-157700000D01*
D12*
G04 #@! TO.C,R2*
X147550000Y-133070000D02*
X145550000Y-133070000D01*
X145550000Y-130930000D02*
X147550000Y-130930000D01*
D13*
G04 #@! TO.C,X12*
X165960000Y-182550000D02*
X175210000Y-182550000D01*
X175210000Y-182550000D02*
X175210000Y-185050000D01*
X175210000Y-185050000D02*
X165960000Y-185050000D01*
X165960000Y-185050000D02*
X165960000Y-182550000D01*
D12*
G04 #@! TO.C,R7*
X145550000Y-171930000D02*
X147550000Y-171930000D01*
X147550000Y-174070000D02*
X145550000Y-174070000D01*
D14*
G04 #@! TO.C,X5*
X175000000Y-129900000D02*
X189000000Y-129900000D01*
X189000000Y-129900000D02*
X189000000Y-140900000D01*
X189000000Y-140900000D02*
X175000000Y-140900000D01*
X175000000Y-140900000D02*
X175000000Y-129900000D01*
D12*
G04 #@! TO.C,R6*
X196550000Y-209070000D02*
X194550000Y-209070000D01*
X194550000Y-206930000D02*
X196550000Y-206930000D01*
D14*
G04 #@! TO.C,X2*
X175000000Y-170900000D02*
X189000000Y-170900000D01*
X189000000Y-170900000D02*
X189000000Y-181900000D01*
X189000000Y-181900000D02*
X175000000Y-181900000D01*
X175000000Y-181900000D02*
X175000000Y-170900000D01*
G04 #@! TO.C,X1*
X154000000Y-210000000D02*
X154000000Y-199000000D01*
X168000000Y-210000000D02*
X154000000Y-210000000D01*
X168000000Y-199000000D02*
X168000000Y-210000000D01*
X154000000Y-199000000D02*
X168000000Y-199000000D01*
D12*
G04 #@! TO.C,D4*
X137900000Y-203500000D02*
X132200000Y-203500000D01*
X137900000Y-206500000D02*
X137900000Y-203500000D01*
X132200000Y-206500000D02*
X137900000Y-206500000D01*
D13*
G04 #@! TO.C,X26*
X103960000Y-144050000D02*
X103960000Y-141550000D01*
X113210000Y-144050000D02*
X103960000Y-144050000D01*
X113210000Y-141550000D02*
X113210000Y-144050000D01*
X103960000Y-141550000D02*
X113210000Y-141550000D01*
G04 #@! TO.C,X7*
X138750000Y-205900000D02*
X138750000Y-196650000D01*
X138750000Y-196650000D02*
X141250000Y-196650000D01*
X141250000Y-196650000D02*
X141250000Y-205900000D01*
X141250000Y-205900000D02*
X138750000Y-205900000D01*
G04 #@! TO.C,X17*
X84250000Y-142840000D02*
X81750000Y-142840000D01*
X84250000Y-133590000D02*
X84250000Y-142840000D01*
X81750000Y-133590000D02*
X84250000Y-133590000D01*
X81750000Y-142840000D02*
X81750000Y-133590000D01*
D12*
G04 #@! TO.C,D2*
X132200000Y-165500000D02*
X137900000Y-165500000D01*
X137900000Y-165500000D02*
X137900000Y-162500000D01*
X137900000Y-162500000D02*
X132200000Y-162500000D01*
D13*
G04 #@! TO.C,X3*
X117960000Y-206750000D02*
X117960000Y-209250000D01*
X108710000Y-206750000D02*
X117960000Y-206750000D01*
X108710000Y-209250000D02*
X108710000Y-206750000D01*
X117960000Y-209250000D02*
X108710000Y-209250000D01*
G04 #@! TO.C,X14*
X141250000Y-164900000D02*
X138750000Y-164900000D01*
X141250000Y-155650000D02*
X141250000Y-164900000D01*
X138750000Y-155650000D02*
X141250000Y-155650000D01*
X138750000Y-164900000D02*
X138750000Y-155650000D01*
G04 #@! TO.C,X9*
X143750000Y-183960000D02*
X143750000Y-174710000D01*
X143750000Y-174710000D02*
X146250000Y-174710000D01*
X146250000Y-174710000D02*
X146250000Y-183960000D01*
X146250000Y-183960000D02*
X143750000Y-183960000D01*
G04 #@! TO.C,X6*
X180000000Y-165750000D02*
X180000000Y-168250000D01*
X170750000Y-165750000D02*
X180000000Y-165750000D01*
X170750000Y-168250000D02*
X170750000Y-165750000D01*
X180000000Y-168250000D02*
X170750000Y-168250000D01*
D12*
G04 #@! TO.C,R8*
X199450000Y-206930000D02*
X201450000Y-206930000D01*
X201450000Y-209070000D02*
X199450000Y-209070000D01*
G04 #@! TO.C,R1*
X194550000Y-165930000D02*
X196550000Y-165930000D01*
X196550000Y-168070000D02*
X194550000Y-168070000D01*
G04 #@! TO.C,R3*
X201450000Y-168070000D02*
X199450000Y-168070000D01*
X199450000Y-165930000D02*
X201450000Y-165930000D01*
G04 #@! TO.C,D1*
X153000000Y-133500000D02*
X147300000Y-133500000D01*
X147300000Y-133500000D02*
X147300000Y-136500000D01*
X147300000Y-136500000D02*
X153000000Y-136500000D01*
D13*
G04 #@! TO.C,X6*
X242000000Y-86250000D02*
X232750000Y-86250000D01*
X232750000Y-86250000D02*
X232750000Y-83750000D01*
X232750000Y-83750000D02*
X242000000Y-83750000D01*
X242000000Y-83750000D02*
X242000000Y-86250000D01*
D12*
G04 #@! TO.C,R1*
X258550000Y-86070000D02*
X256550000Y-86070000D01*
X256550000Y-83930000D02*
X258550000Y-83930000D01*
G04 #@! TO.C,R8*
X263450000Y-127070000D02*
X261450000Y-127070000D01*
X261450000Y-124930000D02*
X263450000Y-124930000D01*
D13*
G04 #@! TO.C,X9*
X208250000Y-101960000D02*
X205750000Y-101960000D01*
X208250000Y-92710000D02*
X208250000Y-101960000D01*
X205750000Y-92710000D02*
X208250000Y-92710000D01*
X205750000Y-101960000D02*
X205750000Y-92710000D01*
D12*
G04 #@! TO.C,R3*
X261450000Y-83930000D02*
X263450000Y-83930000D01*
X263450000Y-86070000D02*
X261450000Y-86070000D01*
G04 #@! TO.C,D3*
X215000000Y-92500000D02*
X209300000Y-92500000D01*
X209300000Y-92500000D02*
X209300000Y-95500000D01*
X209300000Y-95500000D02*
X215000000Y-95500000D01*
D14*
G04 #@! TO.C,X4*
X216100000Y-75700000D02*
X230100000Y-75700000D01*
X230100000Y-75700000D02*
X230100000Y-86700000D01*
X230100000Y-86700000D02*
X216100000Y-86700000D01*
X216100000Y-86700000D02*
X216100000Y-75700000D01*
D12*
G04 #@! TO.C,R4*
X214550000Y-51070000D02*
X212550000Y-51070000D01*
X212550000Y-48930000D02*
X214550000Y-48930000D01*
G04 #@! TO.C,R9*
X212550000Y-89930000D02*
X214550000Y-89930000D01*
X214550000Y-92070000D02*
X212550000Y-92070000D01*
D14*
G04 #@! TO.C,X5*
X237000000Y-58900000D02*
X237000000Y-47900000D01*
X251000000Y-58900000D02*
X237000000Y-58900000D01*
X251000000Y-47900000D02*
X251000000Y-58900000D01*
X237000000Y-47900000D02*
X251000000Y-47900000D01*
D12*
G04 #@! TO.C,R2*
X207550000Y-48930000D02*
X209550000Y-48930000D01*
X209550000Y-51070000D02*
X207550000Y-51070000D01*
D14*
G04 #@! TO.C,X2*
X237000000Y-99900000D02*
X237000000Y-88900000D01*
X251000000Y-99900000D02*
X237000000Y-99900000D01*
X251000000Y-88900000D02*
X251000000Y-99900000D01*
X237000000Y-88900000D02*
X251000000Y-88900000D01*
G04 #@! TO.C,X1*
X216000000Y-117000000D02*
X230000000Y-117000000D01*
X230000000Y-117000000D02*
X230000000Y-128000000D01*
X230000000Y-128000000D02*
X216000000Y-128000000D01*
X216000000Y-128000000D02*
X216000000Y-117000000D01*
D12*
G04 #@! TO.C,R6*
X256550000Y-124930000D02*
X258550000Y-124930000D01*
X258550000Y-127070000D02*
X256550000Y-127070000D01*
D13*
G04 #@! TO.C,X12*
X227960000Y-103050000D02*
X227960000Y-100550000D01*
X237210000Y-103050000D02*
X227960000Y-103050000D01*
X237210000Y-100550000D02*
X237210000Y-103050000D01*
X227960000Y-100550000D02*
X237210000Y-100550000D01*
D12*
G04 #@! TO.C,R7*
X209550000Y-92070000D02*
X207550000Y-92070000D01*
X207550000Y-89930000D02*
X209550000Y-89930000D01*
G04 #@! TO.C,D2*
X323900000Y-80500000D02*
X318200000Y-80500000D01*
X323900000Y-83500000D02*
X323900000Y-80500000D01*
X318200000Y-83500000D02*
X323900000Y-83500000D01*
D13*
G04 #@! TO.C,X3*
X303960000Y-127250000D02*
X294710000Y-127250000D01*
X294710000Y-127250000D02*
X294710000Y-124750000D01*
X294710000Y-124750000D02*
X303960000Y-124750000D01*
X303960000Y-124750000D02*
X303960000Y-127250000D01*
G04 #@! TO.C,X17*
X267750000Y-60840000D02*
X267750000Y-51590000D01*
X267750000Y-51590000D02*
X270250000Y-51590000D01*
X270250000Y-51590000D02*
X270250000Y-60840000D01*
X270250000Y-60840000D02*
X267750000Y-60840000D01*
G04 #@! TO.C,X14*
X324750000Y-82900000D02*
X324750000Y-73650000D01*
X324750000Y-73650000D02*
X327250000Y-73650000D01*
X327250000Y-73650000D02*
X327250000Y-82900000D01*
X327250000Y-82900000D02*
X324750000Y-82900000D01*
G04 #@! TO.C,X7*
X327250000Y-123900000D02*
X324750000Y-123900000D01*
X327250000Y-114650000D02*
X327250000Y-123900000D01*
X324750000Y-114650000D02*
X327250000Y-114650000D01*
X324750000Y-123900000D02*
X324750000Y-114650000D01*
D12*
G04 #@! TO.C,R4*
X274550000Y-48930000D02*
X276550000Y-48930000D01*
X276550000Y-51070000D02*
X274550000Y-51070000D01*
G04 #@! TO.C,D4*
X318200000Y-124500000D02*
X323900000Y-124500000D01*
X323900000Y-124500000D02*
X323900000Y-121500000D01*
X323900000Y-121500000D02*
X318200000Y-121500000D01*
G04 #@! TO.C,R9*
X276550000Y-92070000D02*
X274550000Y-92070000D01*
X274550000Y-89930000D02*
X276550000Y-89930000D01*
D13*
G04 #@! TO.C,X26*
X289960000Y-59550000D02*
X299210000Y-59550000D01*
X299210000Y-59550000D02*
X299210000Y-62050000D01*
X299210000Y-62050000D02*
X289960000Y-62050000D01*
X289960000Y-62050000D02*
X289960000Y-59550000D01*
D12*
G04 #@! TO.C,D3*
X271300000Y-95500000D02*
X277000000Y-95500000D01*
X271300000Y-92500000D02*
X271300000Y-95500000D01*
X277000000Y-92500000D02*
X271300000Y-92500000D01*
D14*
G04 #@! TO.C,X4*
X278100000Y-86700000D02*
X278100000Y-75700000D01*
X292100000Y-86700000D02*
X278100000Y-86700000D01*
X292100000Y-75700000D02*
X292100000Y-86700000D01*
X278100000Y-75700000D02*
X292100000Y-75700000D01*
D12*
G04 #@! TO.C,R2*
X271550000Y-51070000D02*
X269550000Y-51070000D01*
X269550000Y-48930000D02*
X271550000Y-48930000D01*
D13*
G04 #@! TO.C,X12*
X289960000Y-100550000D02*
X299210000Y-100550000D01*
X299210000Y-100550000D02*
X299210000Y-103050000D01*
X299210000Y-103050000D02*
X289960000Y-103050000D01*
X289960000Y-103050000D02*
X289960000Y-100550000D01*
D12*
G04 #@! TO.C,R7*
X269550000Y-89930000D02*
X271550000Y-89930000D01*
X271550000Y-92070000D02*
X269550000Y-92070000D01*
D14*
G04 #@! TO.C,X5*
X299000000Y-47900000D02*
X313000000Y-47900000D01*
X313000000Y-47900000D02*
X313000000Y-58900000D01*
X313000000Y-58900000D02*
X299000000Y-58900000D01*
X299000000Y-58900000D02*
X299000000Y-47900000D01*
D12*
G04 #@! TO.C,R6*
X320550000Y-127070000D02*
X318550000Y-127070000D01*
X318550000Y-124930000D02*
X320550000Y-124930000D01*
D14*
G04 #@! TO.C,X2*
X299000000Y-88900000D02*
X313000000Y-88900000D01*
X313000000Y-88900000D02*
X313000000Y-99900000D01*
X313000000Y-99900000D02*
X299000000Y-99900000D01*
X299000000Y-99900000D02*
X299000000Y-88900000D01*
G04 #@! TO.C,X1*
X278000000Y-128000000D02*
X278000000Y-117000000D01*
X292000000Y-128000000D02*
X278000000Y-128000000D01*
X292000000Y-117000000D02*
X292000000Y-128000000D01*
X278000000Y-117000000D02*
X292000000Y-117000000D01*
D12*
G04 #@! TO.C,D4*
X261900000Y-121500000D02*
X256200000Y-121500000D01*
X261900000Y-124500000D02*
X261900000Y-121500000D01*
X256200000Y-124500000D02*
X261900000Y-124500000D01*
D13*
G04 #@! TO.C,X26*
X227960000Y-62050000D02*
X227960000Y-59550000D01*
X237210000Y-62050000D02*
X227960000Y-62050000D01*
X237210000Y-59550000D02*
X237210000Y-62050000D01*
X227960000Y-59550000D02*
X237210000Y-59550000D01*
G04 #@! TO.C,X7*
X262750000Y-123900000D02*
X262750000Y-114650000D01*
X262750000Y-114650000D02*
X265250000Y-114650000D01*
X265250000Y-114650000D02*
X265250000Y-123900000D01*
X265250000Y-123900000D02*
X262750000Y-123900000D01*
G04 #@! TO.C,X17*
X208250000Y-60840000D02*
X205750000Y-60840000D01*
X208250000Y-51590000D02*
X208250000Y-60840000D01*
X205750000Y-51590000D02*
X208250000Y-51590000D01*
X205750000Y-60840000D02*
X205750000Y-51590000D01*
D12*
G04 #@! TO.C,D2*
X256200000Y-83500000D02*
X261900000Y-83500000D01*
X261900000Y-83500000D02*
X261900000Y-80500000D01*
X261900000Y-80500000D02*
X256200000Y-80500000D01*
D13*
G04 #@! TO.C,X3*
X241960000Y-124750000D02*
X241960000Y-127250000D01*
X232710000Y-124750000D02*
X241960000Y-124750000D01*
X232710000Y-127250000D02*
X232710000Y-124750000D01*
X241960000Y-127250000D02*
X232710000Y-127250000D01*
G04 #@! TO.C,X14*
X265250000Y-82900000D02*
X262750000Y-82900000D01*
X265250000Y-73650000D02*
X265250000Y-82900000D01*
X262750000Y-73650000D02*
X265250000Y-73650000D01*
X262750000Y-82900000D02*
X262750000Y-73650000D01*
G04 #@! TO.C,X9*
X267750000Y-101960000D02*
X267750000Y-92710000D01*
X267750000Y-92710000D02*
X270250000Y-92710000D01*
X270250000Y-92710000D02*
X270250000Y-101960000D01*
X270250000Y-101960000D02*
X267750000Y-101960000D01*
G04 #@! TO.C,X6*
X304000000Y-83750000D02*
X304000000Y-86250000D01*
X294750000Y-83750000D02*
X304000000Y-83750000D01*
X294750000Y-86250000D02*
X294750000Y-83750000D01*
X304000000Y-86250000D02*
X294750000Y-86250000D01*
D12*
G04 #@! TO.C,R8*
X323450000Y-124930000D02*
X325450000Y-124930000D01*
X325450000Y-127070000D02*
X323450000Y-127070000D01*
G04 #@! TO.C,R1*
X318550000Y-83930000D02*
X320550000Y-83930000D01*
X320550000Y-86070000D02*
X318550000Y-86070000D01*
G04 #@! TO.C,R3*
X325450000Y-86070000D02*
X323450000Y-86070000D01*
X323450000Y-83930000D02*
X325450000Y-83930000D01*
G04 #@! TO.C,D1*
X277000000Y-51500000D02*
X271300000Y-51500000D01*
X271300000Y-51500000D02*
X271300000Y-54500000D01*
X271300000Y-54500000D02*
X277000000Y-54500000D01*
D13*
G04 #@! TO.C,X6*
X180000000Y-86250000D02*
X170750000Y-86250000D01*
X170750000Y-86250000D02*
X170750000Y-83750000D01*
X170750000Y-83750000D02*
X180000000Y-83750000D01*
X180000000Y-83750000D02*
X180000000Y-86250000D01*
D12*
G04 #@! TO.C,R1*
X196550000Y-86070000D02*
X194550000Y-86070000D01*
X194550000Y-83930000D02*
X196550000Y-83930000D01*
G04 #@! TO.C,R8*
X201450000Y-127070000D02*
X199450000Y-127070000D01*
X199450000Y-124930000D02*
X201450000Y-124930000D01*
G04 #@! TO.C,D1*
X147300000Y-54500000D02*
X153000000Y-54500000D01*
X147300000Y-51500000D02*
X147300000Y-54500000D01*
X153000000Y-51500000D02*
X147300000Y-51500000D01*
D13*
G04 #@! TO.C,X9*
X146250000Y-101960000D02*
X143750000Y-101960000D01*
X146250000Y-92710000D02*
X146250000Y-101960000D01*
X143750000Y-92710000D02*
X146250000Y-92710000D01*
X143750000Y-101960000D02*
X143750000Y-92710000D01*
D12*
G04 #@! TO.C,R3*
X199450000Y-83930000D02*
X201450000Y-83930000D01*
X201450000Y-86070000D02*
X199450000Y-86070000D01*
G04 #@! TO.C,D3*
X153000000Y-92500000D02*
X147300000Y-92500000D01*
X147300000Y-92500000D02*
X147300000Y-95500000D01*
X147300000Y-95500000D02*
X153000000Y-95500000D01*
D14*
G04 #@! TO.C,X4*
X154100000Y-75700000D02*
X168100000Y-75700000D01*
X168100000Y-75700000D02*
X168100000Y-86700000D01*
X168100000Y-86700000D02*
X154100000Y-86700000D01*
X154100000Y-86700000D02*
X154100000Y-75700000D01*
D12*
G04 #@! TO.C,R4*
X152550000Y-51070000D02*
X150550000Y-51070000D01*
X150550000Y-48930000D02*
X152550000Y-48930000D01*
G04 #@! TO.C,R9*
X150550000Y-89930000D02*
X152550000Y-89930000D01*
X152550000Y-92070000D02*
X150550000Y-92070000D01*
D14*
G04 #@! TO.C,X5*
X175000000Y-58900000D02*
X175000000Y-47900000D01*
X189000000Y-58900000D02*
X175000000Y-58900000D01*
X189000000Y-47900000D02*
X189000000Y-58900000D01*
X175000000Y-47900000D02*
X189000000Y-47900000D01*
D12*
G04 #@! TO.C,R2*
X145550000Y-48930000D02*
X147550000Y-48930000D01*
X147550000Y-51070000D02*
X145550000Y-51070000D01*
D14*
G04 #@! TO.C,X2*
X175000000Y-99900000D02*
X175000000Y-88900000D01*
X189000000Y-99900000D02*
X175000000Y-99900000D01*
X189000000Y-88900000D02*
X189000000Y-99900000D01*
X175000000Y-88900000D02*
X189000000Y-88900000D01*
G04 #@! TO.C,X1*
X154000000Y-117000000D02*
X168000000Y-117000000D01*
X168000000Y-117000000D02*
X168000000Y-128000000D01*
X168000000Y-128000000D02*
X154000000Y-128000000D01*
X154000000Y-128000000D02*
X154000000Y-117000000D01*
D12*
G04 #@! TO.C,R6*
X194550000Y-124930000D02*
X196550000Y-124930000D01*
X196550000Y-127070000D02*
X194550000Y-127070000D01*
D13*
G04 #@! TO.C,X12*
X165960000Y-103050000D02*
X165960000Y-100550000D01*
X175210000Y-103050000D02*
X165960000Y-103050000D01*
X175210000Y-100550000D02*
X175210000Y-103050000D01*
X165960000Y-100550000D02*
X175210000Y-100550000D01*
D12*
G04 #@! TO.C,R7*
X147550000Y-92070000D02*
X145550000Y-92070000D01*
X145550000Y-89930000D02*
X147550000Y-89930000D01*
G04 #@! TO.C,D4*
X199900000Y-121500000D02*
X194200000Y-121500000D01*
X199900000Y-124500000D02*
X199900000Y-121500000D01*
X194200000Y-124500000D02*
X199900000Y-124500000D01*
D13*
G04 #@! TO.C,X26*
X165960000Y-62050000D02*
X165960000Y-59550000D01*
X175210000Y-62050000D02*
X165960000Y-62050000D01*
X175210000Y-59550000D02*
X175210000Y-62050000D01*
X165960000Y-59550000D02*
X175210000Y-59550000D01*
G04 #@! TO.C,X7*
X200750000Y-123900000D02*
X200750000Y-114650000D01*
X200750000Y-114650000D02*
X203250000Y-114650000D01*
X203250000Y-114650000D02*
X203250000Y-123900000D01*
X203250000Y-123900000D02*
X200750000Y-123900000D01*
G04 #@! TO.C,X17*
X146250000Y-60840000D02*
X143750000Y-60840000D01*
X146250000Y-51590000D02*
X146250000Y-60840000D01*
X143750000Y-51590000D02*
X146250000Y-51590000D01*
X143750000Y-60840000D02*
X143750000Y-51590000D01*
D12*
G04 #@! TO.C,D2*
X194200000Y-83500000D02*
X199900000Y-83500000D01*
X199900000Y-83500000D02*
X199900000Y-80500000D01*
X199900000Y-80500000D02*
X194200000Y-80500000D01*
D13*
G04 #@! TO.C,X3*
X179960000Y-124750000D02*
X179960000Y-127250000D01*
X170710000Y-124750000D02*
X179960000Y-124750000D01*
X170710000Y-127250000D02*
X170710000Y-124750000D01*
X179960000Y-127250000D02*
X170710000Y-127250000D01*
G04 #@! TO.C,X14*
X203250000Y-82900000D02*
X200750000Y-82900000D01*
X203250000Y-73650000D02*
X203250000Y-82900000D01*
X200750000Y-73650000D02*
X203250000Y-73650000D01*
X200750000Y-82900000D02*
X200750000Y-73650000D01*
G04 #@! TO.C,X3*
X117960000Y-127250000D02*
X108710000Y-127250000D01*
X108710000Y-127250000D02*
X108710000Y-124750000D01*
X108710000Y-124750000D02*
X117960000Y-124750000D01*
X117960000Y-124750000D02*
X117960000Y-127250000D01*
G04 #@! TO.C,X14*
X138750000Y-82900000D02*
X138750000Y-73650000D01*
X138750000Y-73650000D02*
X141250000Y-73650000D01*
X141250000Y-73650000D02*
X141250000Y-82900000D01*
X141250000Y-82900000D02*
X138750000Y-82900000D01*
G04 #@! TO.C,X17*
X81750000Y-60840000D02*
X81750000Y-51590000D01*
X81750000Y-51590000D02*
X84250000Y-51590000D01*
X84250000Y-51590000D02*
X84250000Y-60840000D01*
X84250000Y-60840000D02*
X81750000Y-60840000D01*
G04 #@! TO.C,X26*
X103960000Y-59550000D02*
X113210000Y-59550000D01*
X113210000Y-59550000D02*
X113210000Y-62050000D01*
X113210000Y-62050000D02*
X103960000Y-62050000D01*
X103960000Y-62050000D02*
X103960000Y-59550000D01*
D12*
G04 #@! TO.C,D4*
X132200000Y-124500000D02*
X137900000Y-124500000D01*
X137900000Y-124500000D02*
X137900000Y-121500000D01*
X137900000Y-121500000D02*
X132200000Y-121500000D01*
G04 #@! TO.C,D2*
X137900000Y-80500000D02*
X132200000Y-80500000D01*
X137900000Y-83500000D02*
X137900000Y-80500000D01*
X132200000Y-83500000D02*
X137900000Y-83500000D01*
D13*
G04 #@! TO.C,X7*
X141250000Y-123900000D02*
X138750000Y-123900000D01*
X141250000Y-114650000D02*
X141250000Y-123900000D01*
X138750000Y-114650000D02*
X141250000Y-114650000D01*
X138750000Y-123900000D02*
X138750000Y-114650000D01*
G04 #@! TO.C,X12*
X103960000Y-100550000D02*
X113210000Y-100550000D01*
X113210000Y-100550000D02*
X113210000Y-103050000D01*
X113210000Y-103050000D02*
X103960000Y-103050000D01*
X103960000Y-103050000D02*
X103960000Y-100550000D01*
D12*
G04 #@! TO.C,D3*
X85300000Y-95500000D02*
X91000000Y-95500000D01*
X85300000Y-92500000D02*
X85300000Y-95500000D01*
X91000000Y-92500000D02*
X85300000Y-92500000D01*
G04 #@! TO.C,R6*
X134550000Y-127070000D02*
X132550000Y-127070000D01*
X132550000Y-124930000D02*
X134550000Y-124930000D01*
G04 #@! TO.C,R8*
X137450000Y-124930000D02*
X139450000Y-124930000D01*
X139450000Y-127070000D02*
X137450000Y-127070000D01*
G04 #@! TO.C,R7*
X83550000Y-89930000D02*
X85550000Y-89930000D01*
X85550000Y-92070000D02*
X83550000Y-92070000D01*
G04 #@! TO.C,R9*
X90550000Y-92070000D02*
X88550000Y-92070000D01*
X88550000Y-89930000D02*
X90550000Y-89930000D01*
G04 #@! TO.C,D1*
X91000000Y-51500000D02*
X85300000Y-51500000D01*
X85300000Y-51500000D02*
X85300000Y-54500000D01*
X85300000Y-54500000D02*
X91000000Y-54500000D01*
G04 #@! TO.C,R4*
X88550000Y-48930000D02*
X90550000Y-48930000D01*
X90550000Y-51070000D02*
X88550000Y-51070000D01*
G04 #@! TO.C,R3*
X139450000Y-86070000D02*
X137450000Y-86070000D01*
X137450000Y-83930000D02*
X139450000Y-83930000D01*
G04 #@! TO.C,R2*
X85550000Y-51070000D02*
X83550000Y-51070000D01*
X83550000Y-48930000D02*
X85550000Y-48930000D01*
G04 #@! TO.C,R1*
X132550000Y-83930000D02*
X134550000Y-83930000D01*
X134550000Y-86070000D02*
X132550000Y-86070000D01*
D13*
G04 #@! TO.C,X9*
X81750000Y-101960000D02*
X81750000Y-92710000D01*
X81750000Y-92710000D02*
X84250000Y-92710000D01*
X84250000Y-92710000D02*
X84250000Y-101960000D01*
X84250000Y-101960000D02*
X81750000Y-101960000D01*
G04 #@! TO.C,X6*
X118000000Y-83750000D02*
X118000000Y-86250000D01*
X108750000Y-83750000D02*
X118000000Y-83750000D01*
X108750000Y-86250000D02*
X108750000Y-83750000D01*
X118000000Y-86250000D02*
X108750000Y-86250000D01*
D14*
G04 #@! TO.C,X1*
X92000000Y-128000000D02*
X92000000Y-117000000D01*
X106000000Y-128000000D02*
X92000000Y-128000000D01*
X106000000Y-117000000D02*
X106000000Y-128000000D01*
X92000000Y-117000000D02*
X106000000Y-117000000D01*
G04 #@! TO.C,X2*
X113000000Y-88900000D02*
X127000000Y-88900000D01*
X127000000Y-88900000D02*
X127000000Y-99900000D01*
X127000000Y-99900000D02*
X113000000Y-99900000D01*
X113000000Y-99900000D02*
X113000000Y-88900000D01*
G04 #@! TO.C,X4*
X92100000Y-86700000D02*
X92100000Y-75700000D01*
X106100000Y-86700000D02*
X92100000Y-86700000D01*
X106100000Y-75700000D02*
X106100000Y-86700000D01*
X92100000Y-75700000D02*
X106100000Y-75700000D01*
G04 #@! TO.C,X5*
X113000000Y-47900000D02*
X127000000Y-47900000D01*
X127000000Y-47900000D02*
X127000000Y-58900000D01*
X127000000Y-58900000D02*
X113000000Y-58900000D01*
X113000000Y-58900000D02*
X113000000Y-47900000D01*
G04 #@! TO.C,D1*
D13*
X212083333Y-55566666D02*
X212083333Y-54866666D01*
X212250000Y-54866666D01*
X212350000Y-54900000D01*
X212416666Y-54966666D01*
X212450000Y-55033333D01*
X212483333Y-55166666D01*
X212483333Y-55266666D01*
X212450000Y-55400000D01*
X212416666Y-55466666D01*
X212350000Y-55533333D01*
X212250000Y-55566666D01*
X212083333Y-55566666D01*
X213150000Y-55566666D02*
X212750000Y-55566666D01*
X212950000Y-55566666D02*
X212950000Y-54866666D01*
X212883333Y-54966666D01*
X212816666Y-55033333D01*
X212750000Y-55066666D01*
G04 #@! TO.C,R9*
X213383333Y-171566666D02*
X213150000Y-171233333D01*
X212983333Y-171566666D02*
X212983333Y-170866666D01*
X213250000Y-170866666D01*
X213316666Y-170900000D01*
X213350000Y-170933333D01*
X213383333Y-171000000D01*
X213383333Y-171100000D01*
X213350000Y-171166666D01*
X213316666Y-171200000D01*
X213250000Y-171233333D01*
X212983333Y-171233333D01*
X213716666Y-171566666D02*
X213850000Y-171566666D01*
X213916666Y-171533333D01*
X213950000Y-171500000D01*
X214016666Y-171400000D01*
X214050000Y-171266666D01*
X214050000Y-171000000D01*
X214016666Y-170933333D01*
X213983333Y-170900000D01*
X213916666Y-170866666D01*
X213783333Y-170866666D01*
X213716666Y-170900000D01*
X213683333Y-170933333D01*
X213650000Y-171000000D01*
X213650000Y-171166666D01*
X213683333Y-171233333D01*
X213716666Y-171266666D01*
X213783333Y-171300000D01*
X213916666Y-171300000D01*
X213983333Y-171266666D01*
X214016666Y-171233333D01*
X214050000Y-171166666D01*
G04 #@! TO.C,R8*
X262333333Y-210166666D02*
X262100000Y-209833333D01*
X261933333Y-210166666D02*
X261933333Y-209466666D01*
X262200000Y-209466666D01*
X262266666Y-209500000D01*
X262300000Y-209533333D01*
X262333333Y-209600000D01*
X262333333Y-209700000D01*
X262300000Y-209766666D01*
X262266666Y-209800000D01*
X262200000Y-209833333D01*
X261933333Y-209833333D01*
X262733333Y-209766666D02*
X262666666Y-209733333D01*
X262633333Y-209700000D01*
X262600000Y-209633333D01*
X262600000Y-209600000D01*
X262633333Y-209533333D01*
X262666666Y-209500000D01*
X262733333Y-209466666D01*
X262866666Y-209466666D01*
X262933333Y-209500000D01*
X262966666Y-209533333D01*
X263000000Y-209600000D01*
X263000000Y-209633333D01*
X262966666Y-209700000D01*
X262933333Y-209733333D01*
X262866666Y-209766666D01*
X262733333Y-209766666D01*
X262666666Y-209800000D01*
X262633333Y-209833333D01*
X262600000Y-209900000D01*
X262600000Y-210033333D01*
X262633333Y-210100000D01*
X262666666Y-210133333D01*
X262733333Y-210166666D01*
X262866666Y-210166666D01*
X262933333Y-210133333D01*
X262966666Y-210100000D01*
X263000000Y-210033333D01*
X263000000Y-209900000D01*
X262966666Y-209833333D01*
X262933333Y-209800000D01*
X262866666Y-209766666D01*
G04 #@! TO.C,X9*
D15*
X206028571Y-185342857D02*
X206828571Y-186542857D01*
X206828571Y-185342857D02*
X206028571Y-186542857D01*
X207342857Y-186542857D02*
X207571428Y-186542857D01*
X207685714Y-186485714D01*
X207742857Y-186428571D01*
X207857142Y-186257142D01*
X207914285Y-186028571D01*
X207914285Y-185571428D01*
X207857142Y-185457142D01*
X207800000Y-185400000D01*
X207685714Y-185342857D01*
X207457142Y-185342857D01*
X207342857Y-185400000D01*
X207285714Y-185457142D01*
X207228571Y-185571428D01*
X207228571Y-185857142D01*
X207285714Y-185971428D01*
X207342857Y-186028571D01*
X207457142Y-186085714D01*
X207685714Y-186085714D01*
X207800000Y-186028571D01*
X207857142Y-185971428D01*
X207914285Y-185857142D01*
G04 #@! TO.C,R3*
D13*
X262333333Y-169166666D02*
X262100000Y-168833333D01*
X261933333Y-169166666D02*
X261933333Y-168466666D01*
X262200000Y-168466666D01*
X262266666Y-168500000D01*
X262300000Y-168533333D01*
X262333333Y-168600000D01*
X262333333Y-168700000D01*
X262300000Y-168766666D01*
X262266666Y-168800000D01*
X262200000Y-168833333D01*
X261933333Y-168833333D01*
X262566666Y-168466666D02*
X263000000Y-168466666D01*
X262766666Y-168733333D01*
X262866666Y-168733333D01*
X262933333Y-168766666D01*
X262966666Y-168800000D01*
X263000000Y-168866666D01*
X263000000Y-169033333D01*
X262966666Y-169100000D01*
X262933333Y-169133333D01*
X262866666Y-169166666D01*
X262666666Y-169166666D01*
X262600000Y-169133333D01*
X262566666Y-169100000D01*
G04 #@! TO.C,X6*
D11*
X236528571Y-163942857D02*
X237328571Y-165142857D01*
X237328571Y-163942857D02*
X236528571Y-165142857D01*
X238300000Y-163942857D02*
X238071428Y-163942857D01*
X237957142Y-164000000D01*
X237900000Y-164057142D01*
X237785714Y-164228571D01*
X237728571Y-164457142D01*
X237728571Y-164914285D01*
X237785714Y-165028571D01*
X237842857Y-165085714D01*
X237957142Y-165142857D01*
X238185714Y-165142857D01*
X238300000Y-165085714D01*
X238357142Y-165028571D01*
X238414285Y-164914285D01*
X238414285Y-164628571D01*
X238357142Y-164514285D01*
X238300000Y-164457142D01*
X238185714Y-164400000D01*
X237957142Y-164400000D01*
X237842857Y-164457142D01*
X237785714Y-164514285D01*
X237728571Y-164628571D01*
G04 #@! TO.C,R1*
D13*
X257883333Y-169316666D02*
X257650000Y-168983333D01*
X257483333Y-169316666D02*
X257483333Y-168616666D01*
X257750000Y-168616666D01*
X257816666Y-168650000D01*
X257850000Y-168683333D01*
X257883333Y-168750000D01*
X257883333Y-168850000D01*
X257850000Y-168916666D01*
X257816666Y-168950000D01*
X257750000Y-168983333D01*
X257483333Y-168983333D01*
X258550000Y-169316666D02*
X258150000Y-169316666D01*
X258350000Y-169316666D02*
X258350000Y-168616666D01*
X258283333Y-168716666D01*
X258216666Y-168783333D01*
X258150000Y-168816666D01*
G04 #@! TO.C,D1*
X212083333Y-137566666D02*
X212083333Y-136866666D01*
X212250000Y-136866666D01*
X212350000Y-136900000D01*
X212416666Y-136966666D01*
X212450000Y-137033333D01*
X212483333Y-137166666D01*
X212483333Y-137266666D01*
X212450000Y-137400000D01*
X212416666Y-137466666D01*
X212350000Y-137533333D01*
X212250000Y-137566666D01*
X212083333Y-137566666D01*
X213150000Y-137566666D02*
X212750000Y-137566666D01*
X212950000Y-137566666D02*
X212950000Y-136866666D01*
X212883333Y-136966666D01*
X212816666Y-137033333D01*
X212750000Y-137066666D01*
G04 #@! TO.C,D3*
X212083333Y-178566666D02*
X212083333Y-177866666D01*
X212250000Y-177866666D01*
X212350000Y-177900000D01*
X212416666Y-177966666D01*
X212450000Y-178033333D01*
X212483333Y-178166666D01*
X212483333Y-178266666D01*
X212450000Y-178400000D01*
X212416666Y-178466666D01*
X212350000Y-178533333D01*
X212250000Y-178566666D01*
X212083333Y-178566666D01*
X212716666Y-177866666D02*
X213150000Y-177866666D01*
X212916666Y-178133333D01*
X213016666Y-178133333D01*
X213083333Y-178166666D01*
X213116666Y-178200000D01*
X213150000Y-178266666D01*
X213150000Y-178433333D01*
X213116666Y-178500000D01*
X213083333Y-178533333D01*
X213016666Y-178566666D01*
X212816666Y-178566666D01*
X212750000Y-178533333D01*
X212716666Y-178500000D01*
G04 #@! TO.C,X4*
D11*
X214178571Y-165214285D02*
X215678571Y-164214285D01*
X214178571Y-164214285D02*
X215678571Y-165214285D01*
X214678571Y-163000000D02*
X215678571Y-163000000D01*
X214107142Y-163357142D02*
X215178571Y-163714285D01*
X215178571Y-162785714D01*
G04 #@! TO.C,R4*
D13*
X213383333Y-130566666D02*
X213150000Y-130233333D01*
X212983333Y-130566666D02*
X212983333Y-129866666D01*
X213250000Y-129866666D01*
X213316666Y-129900000D01*
X213350000Y-129933333D01*
X213383333Y-130000000D01*
X213383333Y-130100000D01*
X213350000Y-130166666D01*
X213316666Y-130200000D01*
X213250000Y-130233333D01*
X212983333Y-130233333D01*
X213983333Y-130100000D02*
X213983333Y-130566666D01*
X213816666Y-129833333D02*
X213650000Y-130333333D01*
X214083333Y-130333333D01*
G04 #@! TO.C,R2*
X208433333Y-130466666D02*
X208200000Y-130133333D01*
X208033333Y-130466666D02*
X208033333Y-129766666D01*
X208300000Y-129766666D01*
X208366666Y-129800000D01*
X208400000Y-129833333D01*
X208433333Y-129900000D01*
X208433333Y-130000000D01*
X208400000Y-130066666D01*
X208366666Y-130100000D01*
X208300000Y-130133333D01*
X208033333Y-130133333D01*
X208700000Y-129833333D02*
X208733333Y-129800000D01*
X208800000Y-129766666D01*
X208966666Y-129766666D01*
X209033333Y-129800000D01*
X209066666Y-129833333D01*
X209100000Y-129900000D01*
X209100000Y-129966666D01*
X209066666Y-130066666D01*
X208666666Y-130466666D01*
X209100000Y-130466666D01*
G04 #@! TO.C,R6*
X257883333Y-210316666D02*
X257650000Y-209983333D01*
X257483333Y-210316666D02*
X257483333Y-209616666D01*
X257750000Y-209616666D01*
X257816666Y-209650000D01*
X257850000Y-209683333D01*
X257883333Y-209750000D01*
X257883333Y-209850000D01*
X257850000Y-209916666D01*
X257816666Y-209950000D01*
X257750000Y-209983333D01*
X257483333Y-209983333D01*
X258483333Y-209616666D02*
X258350000Y-209616666D01*
X258283333Y-209650000D01*
X258250000Y-209683333D01*
X258183333Y-209783333D01*
X258150000Y-209916666D01*
X258150000Y-210183333D01*
X258183333Y-210250000D01*
X258216666Y-210283333D01*
X258283333Y-210316666D01*
X258416666Y-210316666D01*
X258483333Y-210283333D01*
X258516666Y-210250000D01*
X258550000Y-210183333D01*
X258550000Y-210016666D01*
X258516666Y-209950000D01*
X258483333Y-209916666D01*
X258416666Y-209883333D01*
X258283333Y-209883333D01*
X258216666Y-209916666D01*
X258183333Y-209950000D01*
X258150000Y-210016666D01*
G04 #@! TO.C,X12*
D15*
X230957142Y-185342857D02*
X231757142Y-186542857D01*
X231757142Y-185342857D02*
X230957142Y-186542857D01*
X232842857Y-186542857D02*
X232157142Y-186542857D01*
X232500000Y-186542857D02*
X232500000Y-185342857D01*
X232385714Y-185514285D01*
X232271428Y-185628571D01*
X232157142Y-185685714D01*
X233300000Y-185457142D02*
X233357142Y-185400000D01*
X233471428Y-185342857D01*
X233757142Y-185342857D01*
X233871428Y-185400000D01*
X233928571Y-185457142D01*
X233985714Y-185571428D01*
X233985714Y-185685714D01*
X233928571Y-185857142D01*
X233242857Y-186542857D01*
X233985714Y-186542857D01*
G04 #@! TO.C,V2.1*
D16*
X276371959Y-148651740D02*
X277003619Y-150663070D01*
X277705089Y-148675010D01*
X278273107Y-148875430D02*
X278369992Y-148781868D01*
X278562102Y-148689969D01*
X279038220Y-148698280D01*
X279227005Y-148796828D01*
X279320566Y-148893713D01*
X279412466Y-149085823D01*
X279409141Y-149276270D01*
X279308931Y-149560278D01*
X278146303Y-150683016D01*
X279384209Y-150704624D01*
X280244546Y-150529136D02*
X280338107Y-150626021D01*
X280241222Y-150719583D01*
X280147660Y-150622697D01*
X280244546Y-150529136D01*
X280241222Y-150719583D01*
X282240917Y-150754488D02*
X281098234Y-150734542D01*
X281669575Y-150744515D02*
X281704480Y-148744819D01*
X281509047Y-149027166D01*
X281315275Y-149214289D01*
X281123166Y-149306188D01*
G04 #@! TO.C,X3*
D15*
X298490476Y-205152380D02*
X299157142Y-206152380D01*
X299157142Y-205152380D02*
X298490476Y-206152380D01*
X299442857Y-205152380D02*
X300061904Y-205152380D01*
X299728571Y-205533333D01*
X299871428Y-205533333D01*
X299966666Y-205580952D01*
X300014285Y-205628571D01*
X300061904Y-205723809D01*
X300061904Y-205961904D01*
X300014285Y-206057142D01*
X299966666Y-206104761D01*
X299871428Y-206152380D01*
X299585714Y-206152380D01*
X299490476Y-206104761D01*
X299442857Y-206057142D01*
G04 #@! TO.C,X17*
X267457142Y-144342857D02*
X268257142Y-145542857D01*
X268257142Y-144342857D02*
X267457142Y-145542857D01*
X269342857Y-145542857D02*
X268657142Y-145542857D01*
X269000000Y-145542857D02*
X269000000Y-144342857D01*
X268885714Y-144514285D01*
X268771428Y-144628571D01*
X268657142Y-144685714D01*
X269742857Y-144342857D02*
X270542857Y-144342857D01*
X270028571Y-145542857D01*
G04 #@! TO.C,X7*
X324028571Y-194342857D02*
X324828571Y-195542857D01*
X324828571Y-194342857D02*
X324028571Y-195542857D01*
X325171428Y-194342857D02*
X325971428Y-194342857D01*
X325457142Y-195542857D01*
G04 #@! TO.C,V2.2*
D16*
X312852380Y-148204761D02*
X313519047Y-150204761D01*
X314185714Y-148204761D01*
X314757142Y-148395238D02*
X314852380Y-148300000D01*
X315042857Y-148204761D01*
X315519047Y-148204761D01*
X315709523Y-148300000D01*
X315804761Y-148395238D01*
X315900000Y-148585714D01*
X315900000Y-148776190D01*
X315804761Y-149061904D01*
X314661904Y-150204761D01*
X315900000Y-150204761D01*
X316757142Y-150014285D02*
X316852380Y-150109523D01*
X316757142Y-150204761D01*
X316661904Y-150109523D01*
X316757142Y-150014285D01*
X316757142Y-150204761D01*
X317614285Y-148395238D02*
X317709523Y-148300000D01*
X317900000Y-148204761D01*
X318376190Y-148204761D01*
X318566666Y-148300000D01*
X318661904Y-148395238D01*
X318757142Y-148585714D01*
X318757142Y-148776190D01*
X318661904Y-149061904D01*
X317519047Y-150204761D01*
X318757142Y-150204761D01*
G04 #@! TO.C,V1.1*
X276571959Y-189851740D02*
X277203619Y-191863070D01*
X277905089Y-189875010D01*
X279584209Y-191904624D02*
X278441526Y-191884678D01*
X279012868Y-191894651D02*
X279047773Y-189894955D01*
X278852339Y-190177302D01*
X278658567Y-190364425D01*
X278466458Y-190456324D01*
X280444546Y-191729136D02*
X280538107Y-191826021D01*
X280441222Y-191919583D01*
X280347660Y-191822697D01*
X280444546Y-191729136D01*
X280441222Y-191919583D01*
X282440917Y-191954488D02*
X281298234Y-191934542D01*
X281869575Y-191944515D02*
X281904480Y-189944819D01*
X281709047Y-190227166D01*
X281515275Y-190414289D01*
X281323166Y-190506188D01*
G04 #@! TO.C,X2*
D11*
X253178571Y-177214285D02*
X254678571Y-176214285D01*
X253178571Y-176214285D02*
X254678571Y-177214285D01*
X253321428Y-175714285D02*
X253250000Y-175642857D01*
X253178571Y-175500000D01*
X253178571Y-175142857D01*
X253250000Y-175000000D01*
X253321428Y-174928571D01*
X253464285Y-174857142D01*
X253607142Y-174857142D01*
X253821428Y-174928571D01*
X254678571Y-175785714D01*
X254678571Y-174857142D01*
G04 #@! TO.C,R7*
D13*
X208433333Y-171466666D02*
X208200000Y-171133333D01*
X208033333Y-171466666D02*
X208033333Y-170766666D01*
X208300000Y-170766666D01*
X208366666Y-170800000D01*
X208400000Y-170833333D01*
X208433333Y-170900000D01*
X208433333Y-171000000D01*
X208400000Y-171066666D01*
X208366666Y-171100000D01*
X208300000Y-171133333D01*
X208033333Y-171133333D01*
X208666666Y-170766666D02*
X209133333Y-170766666D01*
X208833333Y-171466666D01*
G04 #@! TO.C,X14*
D15*
X323457142Y-153342857D02*
X324257142Y-154542857D01*
X324257142Y-153342857D02*
X323457142Y-154542857D01*
X325342857Y-154542857D02*
X324657142Y-154542857D01*
X325000000Y-154542857D02*
X325000000Y-153342857D01*
X324885714Y-153514285D01*
X324771428Y-153628571D01*
X324657142Y-153685714D01*
X326371428Y-153742857D02*
X326371428Y-154542857D01*
X326085714Y-153285714D02*
X325800000Y-154142857D01*
X326542857Y-154142857D01*
G04 #@! TO.C,X1*
D11*
X214178571Y-206214285D02*
X215678571Y-205214285D01*
X214178571Y-205214285D02*
X215678571Y-206214285D01*
X215678571Y-203857142D02*
X215678571Y-204714285D01*
X215678571Y-204285714D02*
X214178571Y-204285714D01*
X214392857Y-204428571D01*
X214535714Y-204571428D01*
X214607142Y-204714285D01*
G04 #@! TO.C,X5*
X253178571Y-136214285D02*
X254678571Y-135214285D01*
X253178571Y-135214285D02*
X254678571Y-136214285D01*
X253178571Y-133928571D02*
X253178571Y-134642857D01*
X253892857Y-134714285D01*
X253821428Y-134642857D01*
X253750000Y-134500000D01*
X253750000Y-134142857D01*
X253821428Y-134000000D01*
X253892857Y-133928571D01*
X254035714Y-133857142D01*
X254392857Y-133857142D01*
X254535714Y-133928571D01*
X254607142Y-134000000D01*
X254678571Y-134142857D01*
X254678571Y-134500000D01*
X254607142Y-134642857D01*
X254535714Y-134714285D01*
G04 #@! TO.C,D2*
D13*
X319483333Y-162316666D02*
X319483333Y-161616666D01*
X319650000Y-161616666D01*
X319750000Y-161650000D01*
X319816666Y-161716666D01*
X319850000Y-161783333D01*
X319883333Y-161916666D01*
X319883333Y-162016666D01*
X319850000Y-162150000D01*
X319816666Y-162216666D01*
X319750000Y-162283333D01*
X319650000Y-162316666D01*
X319483333Y-162316666D01*
X320150000Y-161683333D02*
X320183333Y-161650000D01*
X320250000Y-161616666D01*
X320416666Y-161616666D01*
X320483333Y-161650000D01*
X320516666Y-161683333D01*
X320550000Y-161750000D01*
X320550000Y-161816666D01*
X320516666Y-161916666D01*
X320116666Y-162316666D01*
X320550000Y-162316666D01*
G04 #@! TO.C,V1.2*
D16*
X313052381Y-189004761D02*
X313719048Y-191004761D01*
X314385715Y-189004761D01*
X316100001Y-191004761D02*
X314957143Y-191004761D01*
X315528572Y-191004761D02*
X315528572Y-189004761D01*
X315338096Y-189290476D01*
X315147620Y-189480952D01*
X314957143Y-189576190D01*
X316957143Y-190814285D02*
X317052381Y-190909523D01*
X316957143Y-191004761D01*
X316861905Y-190909523D01*
X316957143Y-190814285D01*
X316957143Y-191004761D01*
X317814286Y-189195238D02*
X317909524Y-189100000D01*
X318100001Y-189004761D01*
X318576191Y-189004761D01*
X318766667Y-189100000D01*
X318861905Y-189195238D01*
X318957143Y-189385714D01*
X318957143Y-189576190D01*
X318861905Y-189861904D01*
X317719048Y-191004761D01*
X318957143Y-191004761D01*
G04 #@! TO.C,D4*
D13*
X319483333Y-203316666D02*
X319483333Y-202616666D01*
X319650000Y-202616666D01*
X319750000Y-202650000D01*
X319816666Y-202716666D01*
X319850000Y-202783333D01*
X319883333Y-202916666D01*
X319883333Y-203016666D01*
X319850000Y-203150000D01*
X319816666Y-203216666D01*
X319750000Y-203283333D01*
X319650000Y-203316666D01*
X319483333Y-203316666D01*
X320483333Y-202850000D02*
X320483333Y-203316666D01*
X320316666Y-202583333D02*
X320150000Y-203083333D01*
X320583333Y-203083333D01*
G04 #@! TO.C,X26*
D15*
X292957142Y-144342857D02*
X293757142Y-145542857D01*
X293757142Y-144342857D02*
X292957142Y-145542857D01*
X294157142Y-144457142D02*
X294214285Y-144400000D01*
X294328571Y-144342857D01*
X294614285Y-144342857D01*
X294728571Y-144400000D01*
X294785714Y-144457142D01*
X294842857Y-144571428D01*
X294842857Y-144685714D01*
X294785714Y-144857142D01*
X294100000Y-145542857D01*
X294842857Y-145542857D01*
X295871428Y-144342857D02*
X295642857Y-144342857D01*
X295528571Y-144400000D01*
X295471428Y-144457142D01*
X295357142Y-144628571D01*
X295300000Y-144857142D01*
X295300000Y-145314285D01*
X295357142Y-145428571D01*
X295414285Y-145485714D01*
X295528571Y-145542857D01*
X295757142Y-145542857D01*
X295871428Y-145485714D01*
X295928571Y-145428571D01*
X295985714Y-145314285D01*
X295985714Y-145028571D01*
X295928571Y-144914285D01*
X295871428Y-144857142D01*
X295757142Y-144800000D01*
X295528571Y-144800000D01*
X295414285Y-144857142D01*
X295357142Y-144914285D01*
X295300000Y-145028571D01*
G04 #@! TO.C,X12*
X292957142Y-185342857D02*
X293757142Y-186542857D01*
X293757142Y-185342857D02*
X292957142Y-186542857D01*
X294842857Y-186542857D02*
X294157142Y-186542857D01*
X294500000Y-186542857D02*
X294500000Y-185342857D01*
X294385714Y-185514285D01*
X294271428Y-185628571D01*
X294157142Y-185685714D01*
X295300000Y-185457142D02*
X295357142Y-185400000D01*
X295471428Y-185342857D01*
X295757142Y-185342857D01*
X295871428Y-185400000D01*
X295928571Y-185457142D01*
X295985714Y-185571428D01*
X295985714Y-185685714D01*
X295928571Y-185857142D01*
X295242857Y-186542857D01*
X295985714Y-186542857D01*
G04 #@! TO.C,R6*
D13*
X319883333Y-210316666D02*
X319650000Y-209983333D01*
X319483333Y-210316666D02*
X319483333Y-209616666D01*
X319750000Y-209616666D01*
X319816666Y-209650000D01*
X319850000Y-209683333D01*
X319883333Y-209750000D01*
X319883333Y-209850000D01*
X319850000Y-209916666D01*
X319816666Y-209950000D01*
X319750000Y-209983333D01*
X319483333Y-209983333D01*
X320483333Y-209616666D02*
X320350000Y-209616666D01*
X320283333Y-209650000D01*
X320250000Y-209683333D01*
X320183333Y-209783333D01*
X320150000Y-209916666D01*
X320150000Y-210183333D01*
X320183333Y-210250000D01*
X320216666Y-210283333D01*
X320283333Y-210316666D01*
X320416666Y-210316666D01*
X320483333Y-210283333D01*
X320516666Y-210250000D01*
X320550000Y-210183333D01*
X320550000Y-210016666D01*
X320516666Y-209950000D01*
X320483333Y-209916666D01*
X320416666Y-209883333D01*
X320283333Y-209883333D01*
X320216666Y-209916666D01*
X320183333Y-209950000D01*
X320150000Y-210016666D01*
G04 #@! TO.C,R2*
X270433333Y-130466666D02*
X270200000Y-130133333D01*
X270033333Y-130466666D02*
X270033333Y-129766666D01*
X270300000Y-129766666D01*
X270366666Y-129800000D01*
X270400000Y-129833333D01*
X270433333Y-129900000D01*
X270433333Y-130000000D01*
X270400000Y-130066666D01*
X270366666Y-130100000D01*
X270300000Y-130133333D01*
X270033333Y-130133333D01*
X270700000Y-129833333D02*
X270733333Y-129800000D01*
X270800000Y-129766666D01*
X270966666Y-129766666D01*
X271033333Y-129800000D01*
X271066666Y-129833333D01*
X271100000Y-129900000D01*
X271100000Y-129966666D01*
X271066666Y-130066666D01*
X270666666Y-130466666D01*
X271100000Y-130466666D01*
G04 #@! TO.C,R7*
X270433333Y-171466666D02*
X270200000Y-171133333D01*
X270033333Y-171466666D02*
X270033333Y-170766666D01*
X270300000Y-170766666D01*
X270366666Y-170800000D01*
X270400000Y-170833333D01*
X270433333Y-170900000D01*
X270433333Y-171000000D01*
X270400000Y-171066666D01*
X270366666Y-171100000D01*
X270300000Y-171133333D01*
X270033333Y-171133333D01*
X270666666Y-170766666D02*
X271133333Y-170766666D01*
X270833333Y-171466666D01*
G04 #@! TO.C,X5*
D11*
X315178571Y-136214285D02*
X316678571Y-135214285D01*
X315178571Y-135214285D02*
X316678571Y-136214285D01*
X315178571Y-133928571D02*
X315178571Y-134642857D01*
X315892857Y-134714285D01*
X315821428Y-134642857D01*
X315750000Y-134500000D01*
X315750000Y-134142857D01*
X315821428Y-134000000D01*
X315892857Y-133928571D01*
X316035714Y-133857142D01*
X316392857Y-133857142D01*
X316535714Y-133928571D01*
X316607142Y-134000000D01*
X316678571Y-134142857D01*
X316678571Y-134500000D01*
X316607142Y-134642857D01*
X316535714Y-134714285D01*
G04 #@! TO.C,X1*
X276178571Y-206214285D02*
X277678571Y-205214285D01*
X276178571Y-205214285D02*
X277678571Y-206214285D01*
X277678571Y-203857142D02*
X277678571Y-204714285D01*
X277678571Y-204285714D02*
X276178571Y-204285714D01*
X276392857Y-204428571D01*
X276535714Y-204571428D01*
X276607142Y-204714285D01*
G04 #@! TO.C,X26*
D15*
X230957142Y-144342857D02*
X231757142Y-145542857D01*
X231757142Y-144342857D02*
X230957142Y-145542857D01*
X232157142Y-144457142D02*
X232214285Y-144400000D01*
X232328571Y-144342857D01*
X232614285Y-144342857D01*
X232728571Y-144400000D01*
X232785714Y-144457142D01*
X232842857Y-144571428D01*
X232842857Y-144685714D01*
X232785714Y-144857142D01*
X232100000Y-145542857D01*
X232842857Y-145542857D01*
X233871428Y-144342857D02*
X233642857Y-144342857D01*
X233528571Y-144400000D01*
X233471428Y-144457142D01*
X233357142Y-144628571D01*
X233300000Y-144857142D01*
X233300000Y-145314285D01*
X233357142Y-145428571D01*
X233414285Y-145485714D01*
X233528571Y-145542857D01*
X233757142Y-145542857D01*
X233871428Y-145485714D01*
X233928571Y-145428571D01*
X233985714Y-145314285D01*
X233985714Y-145028571D01*
X233928571Y-144914285D01*
X233871428Y-144857142D01*
X233757142Y-144800000D01*
X233528571Y-144800000D01*
X233414285Y-144857142D01*
X233357142Y-144914285D01*
X233300000Y-145028571D01*
G04 #@! TO.C,X17*
X205457142Y-144342857D02*
X206257142Y-145542857D01*
X206257142Y-144342857D02*
X205457142Y-145542857D01*
X207342857Y-145542857D02*
X206657142Y-145542857D01*
X207000000Y-145542857D02*
X207000000Y-144342857D01*
X206885714Y-144514285D01*
X206771428Y-144628571D01*
X206657142Y-144685714D01*
X207742857Y-144342857D02*
X208542857Y-144342857D01*
X208028571Y-145542857D01*
G04 #@! TO.C,V2.1*
D16*
X214371959Y-148651740D02*
X215003619Y-150663070D01*
X215705089Y-148675010D01*
X216273107Y-148875430D02*
X216369992Y-148781868D01*
X216562102Y-148689969D01*
X217038220Y-148698280D01*
X217227005Y-148796828D01*
X217320566Y-148893713D01*
X217412466Y-149085823D01*
X217409141Y-149276270D01*
X217308931Y-149560278D01*
X216146303Y-150683016D01*
X217384209Y-150704624D01*
X218244546Y-150529136D02*
X218338107Y-150626021D01*
X218241222Y-150719583D01*
X218147660Y-150622697D01*
X218244546Y-150529136D01*
X218241222Y-150719583D01*
X220240917Y-150754488D02*
X219098234Y-150734542D01*
X219669575Y-150744515D02*
X219704480Y-148744819D01*
X219509047Y-149027166D01*
X219315275Y-149214289D01*
X219123166Y-149306188D01*
G04 #@! TO.C,D3*
D13*
X274083333Y-178566666D02*
X274083333Y-177866666D01*
X274250000Y-177866666D01*
X274350000Y-177900000D01*
X274416666Y-177966666D01*
X274450000Y-178033333D01*
X274483333Y-178166666D01*
X274483333Y-178266666D01*
X274450000Y-178400000D01*
X274416666Y-178466666D01*
X274350000Y-178533333D01*
X274250000Y-178566666D01*
X274083333Y-178566666D01*
X274716666Y-177866666D02*
X275150000Y-177866666D01*
X274916666Y-178133333D01*
X275016666Y-178133333D01*
X275083333Y-178166666D01*
X275116666Y-178200000D01*
X275150000Y-178266666D01*
X275150000Y-178433333D01*
X275116666Y-178500000D01*
X275083333Y-178533333D01*
X275016666Y-178566666D01*
X274816666Y-178566666D01*
X274750000Y-178533333D01*
X274716666Y-178500000D01*
G04 #@! TO.C,X4*
D11*
X276178571Y-165214285D02*
X277678571Y-164214285D01*
X276178571Y-164214285D02*
X277678571Y-165214285D01*
X276678571Y-163000000D02*
X277678571Y-163000000D01*
X276107142Y-163357142D02*
X277178571Y-163714285D01*
X277178571Y-162785714D01*
G04 #@! TO.C,R4*
D13*
X275383333Y-130566666D02*
X275150000Y-130233333D01*
X274983333Y-130566666D02*
X274983333Y-129866666D01*
X275250000Y-129866666D01*
X275316666Y-129900000D01*
X275350000Y-129933333D01*
X275383333Y-130000000D01*
X275383333Y-130100000D01*
X275350000Y-130166666D01*
X275316666Y-130200000D01*
X275250000Y-130233333D01*
X274983333Y-130233333D01*
X275983333Y-130100000D02*
X275983333Y-130566666D01*
X275816666Y-129833333D02*
X275650000Y-130333333D01*
X276083333Y-130333333D01*
G04 #@! TO.C,R9*
X275383333Y-171566666D02*
X275150000Y-171233333D01*
X274983333Y-171566666D02*
X274983333Y-170866666D01*
X275250000Y-170866666D01*
X275316666Y-170900000D01*
X275350000Y-170933333D01*
X275383333Y-171000000D01*
X275383333Y-171100000D01*
X275350000Y-171166666D01*
X275316666Y-171200000D01*
X275250000Y-171233333D01*
X274983333Y-171233333D01*
X275716666Y-171566666D02*
X275850000Y-171566666D01*
X275916666Y-171533333D01*
X275950000Y-171500000D01*
X276016666Y-171400000D01*
X276050000Y-171266666D01*
X276050000Y-171000000D01*
X276016666Y-170933333D01*
X275983333Y-170900000D01*
X275916666Y-170866666D01*
X275783333Y-170866666D01*
X275716666Y-170900000D01*
X275683333Y-170933333D01*
X275650000Y-171000000D01*
X275650000Y-171166666D01*
X275683333Y-171233333D01*
X275716666Y-171266666D01*
X275783333Y-171300000D01*
X275916666Y-171300000D01*
X275983333Y-171266666D01*
X276016666Y-171233333D01*
X276050000Y-171166666D01*
G04 #@! TO.C,X7*
D15*
X262028571Y-194342857D02*
X262828571Y-195542857D01*
X262828571Y-194342857D02*
X262028571Y-195542857D01*
X263171428Y-194342857D02*
X263971428Y-194342857D01*
X263457142Y-195542857D01*
G04 #@! TO.C,D4*
D13*
X257483333Y-203316666D02*
X257483333Y-202616666D01*
X257650000Y-202616666D01*
X257750000Y-202650000D01*
X257816666Y-202716666D01*
X257850000Y-202783333D01*
X257883333Y-202916666D01*
X257883333Y-203016666D01*
X257850000Y-203150000D01*
X257816666Y-203216666D01*
X257750000Y-203283333D01*
X257650000Y-203316666D01*
X257483333Y-203316666D01*
X258483333Y-202850000D02*
X258483333Y-203316666D01*
X258316666Y-202583333D02*
X258150000Y-203083333D01*
X258583333Y-203083333D01*
G04 #@! TO.C,V1.1*
D16*
X214571959Y-189851740D02*
X215203619Y-191863070D01*
X215905089Y-189875010D01*
X217584209Y-191904624D02*
X216441526Y-191884678D01*
X217012868Y-191894651D02*
X217047773Y-189894955D01*
X216852339Y-190177302D01*
X216658567Y-190364425D01*
X216466458Y-190456324D01*
X218444546Y-191729136D02*
X218538107Y-191826021D01*
X218441222Y-191919583D01*
X218347660Y-191822697D01*
X218444546Y-191729136D01*
X218441222Y-191919583D01*
X220440917Y-191954488D02*
X219298234Y-191934542D01*
X219869575Y-191944515D02*
X219904480Y-189944819D01*
X219709047Y-190227166D01*
X219515275Y-190414289D01*
X219323166Y-190506188D01*
G04 #@! TO.C,X2*
D11*
X315178571Y-177214285D02*
X316678571Y-176214285D01*
X315178571Y-176214285D02*
X316678571Y-177214285D01*
X315321428Y-175714285D02*
X315250000Y-175642857D01*
X315178571Y-175500000D01*
X315178571Y-175142857D01*
X315250000Y-175000000D01*
X315321428Y-174928571D01*
X315464285Y-174857142D01*
X315607142Y-174857142D01*
X315821428Y-174928571D01*
X316678571Y-175785714D01*
X316678571Y-174857142D01*
G04 #@! TO.C,X14*
D15*
X261457142Y-153342857D02*
X262257142Y-154542857D01*
X262257142Y-153342857D02*
X261457142Y-154542857D01*
X263342857Y-154542857D02*
X262657142Y-154542857D01*
X263000000Y-154542857D02*
X263000000Y-153342857D01*
X262885714Y-153514285D01*
X262771428Y-153628571D01*
X262657142Y-153685714D01*
X264371428Y-153742857D02*
X264371428Y-154542857D01*
X264085714Y-153285714D02*
X263800000Y-154142857D01*
X264542857Y-154142857D01*
G04 #@! TO.C,X3*
X236490476Y-205152380D02*
X237157142Y-206152380D01*
X237157142Y-205152380D02*
X236490476Y-206152380D01*
X237442857Y-205152380D02*
X238061904Y-205152380D01*
X237728571Y-205533333D01*
X237871428Y-205533333D01*
X237966666Y-205580952D01*
X238014285Y-205628571D01*
X238061904Y-205723809D01*
X238061904Y-205961904D01*
X238014285Y-206057142D01*
X237966666Y-206104761D01*
X237871428Y-206152380D01*
X237585714Y-206152380D01*
X237490476Y-206104761D01*
X237442857Y-206057142D01*
G04 #@! TO.C,X6*
D11*
X298528571Y-163942857D02*
X299328571Y-165142857D01*
X299328571Y-163942857D02*
X298528571Y-165142857D01*
X300300000Y-163942857D02*
X300071428Y-163942857D01*
X299957142Y-164000000D01*
X299900000Y-164057142D01*
X299785714Y-164228571D01*
X299728571Y-164457142D01*
X299728571Y-164914285D01*
X299785714Y-165028571D01*
X299842857Y-165085714D01*
X299957142Y-165142857D01*
X300185714Y-165142857D01*
X300300000Y-165085714D01*
X300357142Y-165028571D01*
X300414285Y-164914285D01*
X300414285Y-164628571D01*
X300357142Y-164514285D01*
X300300000Y-164457142D01*
X300185714Y-164400000D01*
X299957142Y-164400000D01*
X299842857Y-164457142D01*
X299785714Y-164514285D01*
X299728571Y-164628571D01*
G04 #@! TO.C,V1.2*
D16*
X251052381Y-189004761D02*
X251719048Y-191004761D01*
X252385715Y-189004761D01*
X254100001Y-191004761D02*
X252957143Y-191004761D01*
X253528572Y-191004761D02*
X253528572Y-189004761D01*
X253338096Y-189290476D01*
X253147620Y-189480952D01*
X252957143Y-189576190D01*
X254957143Y-190814285D02*
X255052381Y-190909523D01*
X254957143Y-191004761D01*
X254861905Y-190909523D01*
X254957143Y-190814285D01*
X254957143Y-191004761D01*
X255814286Y-189195238D02*
X255909524Y-189100000D01*
X256100001Y-189004761D01*
X256576191Y-189004761D01*
X256766667Y-189100000D01*
X256861905Y-189195238D01*
X256957143Y-189385714D01*
X256957143Y-189576190D01*
X256861905Y-189861904D01*
X255719048Y-191004761D01*
X256957143Y-191004761D01*
G04 #@! TO.C,D2*
D13*
X257483333Y-162316666D02*
X257483333Y-161616666D01*
X257650000Y-161616666D01*
X257750000Y-161650000D01*
X257816666Y-161716666D01*
X257850000Y-161783333D01*
X257883333Y-161916666D01*
X257883333Y-162016666D01*
X257850000Y-162150000D01*
X257816666Y-162216666D01*
X257750000Y-162283333D01*
X257650000Y-162316666D01*
X257483333Y-162316666D01*
X258150000Y-161683333D02*
X258183333Y-161650000D01*
X258250000Y-161616666D01*
X258416666Y-161616666D01*
X258483333Y-161650000D01*
X258516666Y-161683333D01*
X258550000Y-161750000D01*
X258550000Y-161816666D01*
X258516666Y-161916666D01*
X258116666Y-162316666D01*
X258550000Y-162316666D01*
G04 #@! TO.C,V2.2*
D16*
X250852380Y-148204761D02*
X251519047Y-150204761D01*
X252185714Y-148204761D01*
X252757142Y-148395238D02*
X252852380Y-148300000D01*
X253042857Y-148204761D01*
X253519047Y-148204761D01*
X253709523Y-148300000D01*
X253804761Y-148395238D01*
X253900000Y-148585714D01*
X253900000Y-148776190D01*
X253804761Y-149061904D01*
X252661904Y-150204761D01*
X253900000Y-150204761D01*
X254757142Y-150014285D02*
X254852380Y-150109523D01*
X254757142Y-150204761D01*
X254661904Y-150109523D01*
X254757142Y-150014285D01*
X254757142Y-150204761D01*
X255614285Y-148395238D02*
X255709523Y-148300000D01*
X255900000Y-148204761D01*
X256376190Y-148204761D01*
X256566666Y-148300000D01*
X256661904Y-148395238D01*
X256757142Y-148585714D01*
X256757142Y-148776190D01*
X256661904Y-149061904D01*
X255519047Y-150204761D01*
X256757142Y-150204761D01*
G04 #@! TO.C,X9*
D15*
X268028571Y-185342857D02*
X268828571Y-186542857D01*
X268828571Y-185342857D02*
X268028571Y-186542857D01*
X269342857Y-186542857D02*
X269571428Y-186542857D01*
X269685714Y-186485714D01*
X269742857Y-186428571D01*
X269857142Y-186257142D01*
X269914285Y-186028571D01*
X269914285Y-185571428D01*
X269857142Y-185457142D01*
X269800000Y-185400000D01*
X269685714Y-185342857D01*
X269457142Y-185342857D01*
X269342857Y-185400000D01*
X269285714Y-185457142D01*
X269228571Y-185571428D01*
X269228571Y-185857142D01*
X269285714Y-185971428D01*
X269342857Y-186028571D01*
X269457142Y-186085714D01*
X269685714Y-186085714D01*
X269800000Y-186028571D01*
X269857142Y-185971428D01*
X269914285Y-185857142D01*
G04 #@! TO.C,R8*
D13*
X324333333Y-210166666D02*
X324100000Y-209833333D01*
X323933333Y-210166666D02*
X323933333Y-209466666D01*
X324200000Y-209466666D01*
X324266666Y-209500000D01*
X324300000Y-209533333D01*
X324333333Y-209600000D01*
X324333333Y-209700000D01*
X324300000Y-209766666D01*
X324266666Y-209800000D01*
X324200000Y-209833333D01*
X323933333Y-209833333D01*
X324733333Y-209766666D02*
X324666666Y-209733333D01*
X324633333Y-209700000D01*
X324600000Y-209633333D01*
X324600000Y-209600000D01*
X324633333Y-209533333D01*
X324666666Y-209500000D01*
X324733333Y-209466666D01*
X324866666Y-209466666D01*
X324933333Y-209500000D01*
X324966666Y-209533333D01*
X325000000Y-209600000D01*
X325000000Y-209633333D01*
X324966666Y-209700000D01*
X324933333Y-209733333D01*
X324866666Y-209766666D01*
X324733333Y-209766666D01*
X324666666Y-209800000D01*
X324633333Y-209833333D01*
X324600000Y-209900000D01*
X324600000Y-210033333D01*
X324633333Y-210100000D01*
X324666666Y-210133333D01*
X324733333Y-210166666D01*
X324866666Y-210166666D01*
X324933333Y-210133333D01*
X324966666Y-210100000D01*
X325000000Y-210033333D01*
X325000000Y-209900000D01*
X324966666Y-209833333D01*
X324933333Y-209800000D01*
X324866666Y-209766666D01*
G04 #@! TO.C,R1*
X319883333Y-169316666D02*
X319650000Y-168983333D01*
X319483333Y-169316666D02*
X319483333Y-168616666D01*
X319750000Y-168616666D01*
X319816666Y-168650000D01*
X319850000Y-168683333D01*
X319883333Y-168750000D01*
X319883333Y-168850000D01*
X319850000Y-168916666D01*
X319816666Y-168950000D01*
X319750000Y-168983333D01*
X319483333Y-168983333D01*
X320550000Y-169316666D02*
X320150000Y-169316666D01*
X320350000Y-169316666D02*
X320350000Y-168616666D01*
X320283333Y-168716666D01*
X320216666Y-168783333D01*
X320150000Y-168816666D01*
G04 #@! TO.C,D1*
X274083333Y-137566666D02*
X274083333Y-136866666D01*
X274250000Y-136866666D01*
X274350000Y-136900000D01*
X274416666Y-136966666D01*
X274450000Y-137033333D01*
X274483333Y-137166666D01*
X274483333Y-137266666D01*
X274450000Y-137400000D01*
X274416666Y-137466666D01*
X274350000Y-137533333D01*
X274250000Y-137566666D01*
X274083333Y-137566666D01*
X275150000Y-137566666D02*
X274750000Y-137566666D01*
X274950000Y-137566666D02*
X274950000Y-136866666D01*
X274883333Y-136966666D01*
X274816666Y-137033333D01*
X274750000Y-137066666D01*
G04 #@! TO.C,R3*
X324333333Y-169166666D02*
X324100000Y-168833333D01*
X323933333Y-169166666D02*
X323933333Y-168466666D01*
X324200000Y-168466666D01*
X324266666Y-168500000D01*
X324300000Y-168533333D01*
X324333333Y-168600000D01*
X324333333Y-168700000D01*
X324300000Y-168766666D01*
X324266666Y-168800000D01*
X324200000Y-168833333D01*
X323933333Y-168833333D01*
X324566666Y-168466666D02*
X325000000Y-168466666D01*
X324766666Y-168733333D01*
X324866666Y-168733333D01*
X324933333Y-168766666D01*
X324966666Y-168800000D01*
X325000000Y-168866666D01*
X325000000Y-169033333D01*
X324966666Y-169100000D01*
X324933333Y-169133333D01*
X324866666Y-169166666D01*
X324666666Y-169166666D01*
X324600000Y-169133333D01*
X324566666Y-169100000D01*
G04 #@! TO.C,X6*
D11*
X112528571Y-163942857D02*
X113328571Y-165142857D01*
X113328571Y-163942857D02*
X112528571Y-165142857D01*
X114300000Y-163942857D02*
X114071428Y-163942857D01*
X113957142Y-164000000D01*
X113900000Y-164057142D01*
X113785714Y-164228571D01*
X113728571Y-164457142D01*
X113728571Y-164914285D01*
X113785714Y-165028571D01*
X113842857Y-165085714D01*
X113957142Y-165142857D01*
X114185714Y-165142857D01*
X114300000Y-165085714D01*
X114357142Y-165028571D01*
X114414285Y-164914285D01*
X114414285Y-164628571D01*
X114357142Y-164514285D01*
X114300000Y-164457142D01*
X114185714Y-164400000D01*
X113957142Y-164400000D01*
X113842857Y-164457142D01*
X113785714Y-164514285D01*
X113728571Y-164628571D01*
G04 #@! TO.C,R1*
D13*
X133883333Y-169316666D02*
X133650000Y-168983333D01*
X133483333Y-169316666D02*
X133483333Y-168616666D01*
X133750000Y-168616666D01*
X133816666Y-168650000D01*
X133850000Y-168683333D01*
X133883333Y-168750000D01*
X133883333Y-168850000D01*
X133850000Y-168916666D01*
X133816666Y-168950000D01*
X133750000Y-168983333D01*
X133483333Y-168983333D01*
X134550000Y-169316666D02*
X134150000Y-169316666D01*
X134350000Y-169316666D02*
X134350000Y-168616666D01*
X134283333Y-168716666D01*
X134216666Y-168783333D01*
X134150000Y-168816666D01*
G04 #@! TO.C,R8*
X138333333Y-210166666D02*
X138100000Y-209833333D01*
X137933333Y-210166666D02*
X137933333Y-209466666D01*
X138200000Y-209466666D01*
X138266666Y-209500000D01*
X138300000Y-209533333D01*
X138333333Y-209600000D01*
X138333333Y-209700000D01*
X138300000Y-209766666D01*
X138266666Y-209800000D01*
X138200000Y-209833333D01*
X137933333Y-209833333D01*
X138733333Y-209766666D02*
X138666666Y-209733333D01*
X138633333Y-209700000D01*
X138600000Y-209633333D01*
X138600000Y-209600000D01*
X138633333Y-209533333D01*
X138666666Y-209500000D01*
X138733333Y-209466666D01*
X138866666Y-209466666D01*
X138933333Y-209500000D01*
X138966666Y-209533333D01*
X139000000Y-209600000D01*
X139000000Y-209633333D01*
X138966666Y-209700000D01*
X138933333Y-209733333D01*
X138866666Y-209766666D01*
X138733333Y-209766666D01*
X138666666Y-209800000D01*
X138633333Y-209833333D01*
X138600000Y-209900000D01*
X138600000Y-210033333D01*
X138633333Y-210100000D01*
X138666666Y-210133333D01*
X138733333Y-210166666D01*
X138866666Y-210166666D01*
X138933333Y-210133333D01*
X138966666Y-210100000D01*
X139000000Y-210033333D01*
X139000000Y-209900000D01*
X138966666Y-209833333D01*
X138933333Y-209800000D01*
X138866666Y-209766666D01*
G04 #@! TO.C,D1*
X88083333Y-137566666D02*
X88083333Y-136866666D01*
X88250000Y-136866666D01*
X88350000Y-136900000D01*
X88416666Y-136966666D01*
X88450000Y-137033333D01*
X88483333Y-137166666D01*
X88483333Y-137266666D01*
X88450000Y-137400000D01*
X88416666Y-137466666D01*
X88350000Y-137533333D01*
X88250000Y-137566666D01*
X88083333Y-137566666D01*
X89150000Y-137566666D02*
X88750000Y-137566666D01*
X88950000Y-137566666D02*
X88950000Y-136866666D01*
X88883333Y-136966666D01*
X88816666Y-137033333D01*
X88750000Y-137066666D01*
G04 #@! TO.C,X9*
D15*
X82028571Y-185342857D02*
X82828571Y-186542857D01*
X82828571Y-185342857D02*
X82028571Y-186542857D01*
X83342857Y-186542857D02*
X83571428Y-186542857D01*
X83685714Y-186485714D01*
X83742857Y-186428571D01*
X83857142Y-186257142D01*
X83914285Y-186028571D01*
X83914285Y-185571428D01*
X83857142Y-185457142D01*
X83800000Y-185400000D01*
X83685714Y-185342857D01*
X83457142Y-185342857D01*
X83342857Y-185400000D01*
X83285714Y-185457142D01*
X83228571Y-185571428D01*
X83228571Y-185857142D01*
X83285714Y-185971428D01*
X83342857Y-186028571D01*
X83457142Y-186085714D01*
X83685714Y-186085714D01*
X83800000Y-186028571D01*
X83857142Y-185971428D01*
X83914285Y-185857142D01*
G04 #@! TO.C,R3*
D13*
X138333333Y-169166666D02*
X138100000Y-168833333D01*
X137933333Y-169166666D02*
X137933333Y-168466666D01*
X138200000Y-168466666D01*
X138266666Y-168500000D01*
X138300000Y-168533333D01*
X138333333Y-168600000D01*
X138333333Y-168700000D01*
X138300000Y-168766666D01*
X138266666Y-168800000D01*
X138200000Y-168833333D01*
X137933333Y-168833333D01*
X138566666Y-168466666D02*
X139000000Y-168466666D01*
X138766666Y-168733333D01*
X138866666Y-168733333D01*
X138933333Y-168766666D01*
X138966666Y-168800000D01*
X139000000Y-168866666D01*
X139000000Y-169033333D01*
X138966666Y-169100000D01*
X138933333Y-169133333D01*
X138866666Y-169166666D01*
X138666666Y-169166666D01*
X138600000Y-169133333D01*
X138566666Y-169100000D01*
G04 #@! TO.C,D3*
X88083333Y-178566666D02*
X88083333Y-177866666D01*
X88250000Y-177866666D01*
X88350000Y-177900000D01*
X88416666Y-177966666D01*
X88450000Y-178033333D01*
X88483333Y-178166666D01*
X88483333Y-178266666D01*
X88450000Y-178400000D01*
X88416666Y-178466666D01*
X88350000Y-178533333D01*
X88250000Y-178566666D01*
X88083333Y-178566666D01*
X88716666Y-177866666D02*
X89150000Y-177866666D01*
X88916666Y-178133333D01*
X89016666Y-178133333D01*
X89083333Y-178166666D01*
X89116666Y-178200000D01*
X89150000Y-178266666D01*
X89150000Y-178433333D01*
X89116666Y-178500000D01*
X89083333Y-178533333D01*
X89016666Y-178566666D01*
X88816666Y-178566666D01*
X88750000Y-178533333D01*
X88716666Y-178500000D01*
G04 #@! TO.C,X4*
D11*
X90178571Y-165214285D02*
X91678571Y-164214285D01*
X90178571Y-164214285D02*
X91678571Y-165214285D01*
X90678571Y-163000000D02*
X91678571Y-163000000D01*
X90107142Y-163357142D02*
X91178571Y-163714285D01*
X91178571Y-162785714D01*
G04 #@! TO.C,R4*
D13*
X89383333Y-130566666D02*
X89150000Y-130233333D01*
X88983333Y-130566666D02*
X88983333Y-129866666D01*
X89250000Y-129866666D01*
X89316666Y-129900000D01*
X89350000Y-129933333D01*
X89383333Y-130000000D01*
X89383333Y-130100000D01*
X89350000Y-130166666D01*
X89316666Y-130200000D01*
X89250000Y-130233333D01*
X88983333Y-130233333D01*
X89983333Y-130100000D02*
X89983333Y-130566666D01*
X89816666Y-129833333D02*
X89650000Y-130333333D01*
X90083333Y-130333333D01*
G04 #@! TO.C,R9*
X89383333Y-171566666D02*
X89150000Y-171233333D01*
X88983333Y-171566666D02*
X88983333Y-170866666D01*
X89250000Y-170866666D01*
X89316666Y-170900000D01*
X89350000Y-170933333D01*
X89383333Y-171000000D01*
X89383333Y-171100000D01*
X89350000Y-171166666D01*
X89316666Y-171200000D01*
X89250000Y-171233333D01*
X88983333Y-171233333D01*
X89716666Y-171566666D02*
X89850000Y-171566666D01*
X89916666Y-171533333D01*
X89950000Y-171500000D01*
X90016666Y-171400000D01*
X90050000Y-171266666D01*
X90050000Y-171000000D01*
X90016666Y-170933333D01*
X89983333Y-170900000D01*
X89916666Y-170866666D01*
X89783333Y-170866666D01*
X89716666Y-170900000D01*
X89683333Y-170933333D01*
X89650000Y-171000000D01*
X89650000Y-171166666D01*
X89683333Y-171233333D01*
X89716666Y-171266666D01*
X89783333Y-171300000D01*
X89916666Y-171300000D01*
X89983333Y-171266666D01*
X90016666Y-171233333D01*
X90050000Y-171166666D01*
G04 #@! TO.C,X5*
D11*
X129178571Y-136214285D02*
X130678571Y-135214285D01*
X129178571Y-135214285D02*
X130678571Y-136214285D01*
X129178571Y-133928571D02*
X129178571Y-134642857D01*
X129892857Y-134714285D01*
X129821428Y-134642857D01*
X129750000Y-134500000D01*
X129750000Y-134142857D01*
X129821428Y-134000000D01*
X129892857Y-133928571D01*
X130035714Y-133857142D01*
X130392857Y-133857142D01*
X130535714Y-133928571D01*
X130607142Y-134000000D01*
X130678571Y-134142857D01*
X130678571Y-134500000D01*
X130607142Y-134642857D01*
X130535714Y-134714285D01*
G04 #@! TO.C,R2*
D13*
X84433333Y-130466666D02*
X84200000Y-130133333D01*
X84033333Y-130466666D02*
X84033333Y-129766666D01*
X84300000Y-129766666D01*
X84366666Y-129800000D01*
X84400000Y-129833333D01*
X84433333Y-129900000D01*
X84433333Y-130000000D01*
X84400000Y-130066666D01*
X84366666Y-130100000D01*
X84300000Y-130133333D01*
X84033333Y-130133333D01*
X84700000Y-129833333D02*
X84733333Y-129800000D01*
X84800000Y-129766666D01*
X84966666Y-129766666D01*
X85033333Y-129800000D01*
X85066666Y-129833333D01*
X85100000Y-129900000D01*
X85100000Y-129966666D01*
X85066666Y-130066666D01*
X84666666Y-130466666D01*
X85100000Y-130466666D01*
G04 #@! TO.C,X2*
D11*
X129178571Y-177214285D02*
X130678571Y-176214285D01*
X129178571Y-176214285D02*
X130678571Y-177214285D01*
X129321428Y-175714285D02*
X129250000Y-175642857D01*
X129178571Y-175500000D01*
X129178571Y-175142857D01*
X129250000Y-175000000D01*
X129321428Y-174928571D01*
X129464285Y-174857142D01*
X129607142Y-174857142D01*
X129821428Y-174928571D01*
X130678571Y-175785714D01*
X130678571Y-174857142D01*
G04 #@! TO.C,X1*
X90178571Y-206214285D02*
X91678571Y-205214285D01*
X90178571Y-205214285D02*
X91678571Y-206214285D01*
X91678571Y-203857142D02*
X91678571Y-204714285D01*
X91678571Y-204285714D02*
X90178571Y-204285714D01*
X90392857Y-204428571D01*
X90535714Y-204571428D01*
X90607142Y-204714285D01*
G04 #@! TO.C,R6*
D13*
X133883333Y-210316666D02*
X133650000Y-209983333D01*
X133483333Y-210316666D02*
X133483333Y-209616666D01*
X133750000Y-209616666D01*
X133816666Y-209650000D01*
X133850000Y-209683333D01*
X133883333Y-209750000D01*
X133883333Y-209850000D01*
X133850000Y-209916666D01*
X133816666Y-209950000D01*
X133750000Y-209983333D01*
X133483333Y-209983333D01*
X134483333Y-209616666D02*
X134350000Y-209616666D01*
X134283333Y-209650000D01*
X134250000Y-209683333D01*
X134183333Y-209783333D01*
X134150000Y-209916666D01*
X134150000Y-210183333D01*
X134183333Y-210250000D01*
X134216666Y-210283333D01*
X134283333Y-210316666D01*
X134416666Y-210316666D01*
X134483333Y-210283333D01*
X134516666Y-210250000D01*
X134550000Y-210183333D01*
X134550000Y-210016666D01*
X134516666Y-209950000D01*
X134483333Y-209916666D01*
X134416666Y-209883333D01*
X134283333Y-209883333D01*
X134216666Y-209916666D01*
X134183333Y-209950000D01*
X134150000Y-210016666D01*
G04 #@! TO.C,X12*
D15*
X106957142Y-185342857D02*
X107757142Y-186542857D01*
X107757142Y-185342857D02*
X106957142Y-186542857D01*
X108842857Y-186542857D02*
X108157142Y-186542857D01*
X108500000Y-186542857D02*
X108500000Y-185342857D01*
X108385714Y-185514285D01*
X108271428Y-185628571D01*
X108157142Y-185685714D01*
X109300000Y-185457142D02*
X109357142Y-185400000D01*
X109471428Y-185342857D01*
X109757142Y-185342857D01*
X109871428Y-185400000D01*
X109928571Y-185457142D01*
X109985714Y-185571428D01*
X109985714Y-185685714D01*
X109928571Y-185857142D01*
X109242857Y-186542857D01*
X109985714Y-186542857D01*
G04 #@! TO.C,R7*
D13*
X84433333Y-171466666D02*
X84200000Y-171133333D01*
X84033333Y-171466666D02*
X84033333Y-170766666D01*
X84300000Y-170766666D01*
X84366666Y-170800000D01*
X84400000Y-170833333D01*
X84433333Y-170900000D01*
X84433333Y-171000000D01*
X84400000Y-171066666D01*
X84366666Y-171100000D01*
X84300000Y-171133333D01*
X84033333Y-171133333D01*
X84666666Y-170766666D02*
X85133333Y-170766666D01*
X84833333Y-171466666D01*
G04 #@! TO.C,V2.1*
D16*
X152371959Y-148651740D02*
X153003619Y-150663070D01*
X153705089Y-148675010D01*
X154273107Y-148875430D02*
X154369992Y-148781868D01*
X154562102Y-148689969D01*
X155038220Y-148698280D01*
X155227005Y-148796828D01*
X155320566Y-148893713D01*
X155412466Y-149085823D01*
X155409141Y-149276270D01*
X155308931Y-149560278D01*
X154146303Y-150683016D01*
X155384209Y-150704624D01*
X156244546Y-150529136D02*
X156338107Y-150626021D01*
X156241222Y-150719583D01*
X156147660Y-150622697D01*
X156244546Y-150529136D01*
X156241222Y-150719583D01*
X158240917Y-150754488D02*
X157098234Y-150734542D01*
X157669575Y-150744515D02*
X157704480Y-148744819D01*
X157509047Y-149027166D01*
X157315275Y-149214289D01*
X157123166Y-149306188D01*
G04 #@! TO.C,D2*
D13*
X195483333Y-162316666D02*
X195483333Y-161616666D01*
X195650000Y-161616666D01*
X195750000Y-161650000D01*
X195816666Y-161716666D01*
X195850000Y-161783333D01*
X195883333Y-161916666D01*
X195883333Y-162016666D01*
X195850000Y-162150000D01*
X195816666Y-162216666D01*
X195750000Y-162283333D01*
X195650000Y-162316666D01*
X195483333Y-162316666D01*
X196150000Y-161683333D02*
X196183333Y-161650000D01*
X196250000Y-161616666D01*
X196416666Y-161616666D01*
X196483333Y-161650000D01*
X196516666Y-161683333D01*
X196550000Y-161750000D01*
X196550000Y-161816666D01*
X196516666Y-161916666D01*
X196116666Y-162316666D01*
X196550000Y-162316666D01*
G04 #@! TO.C,X3*
D15*
X174490476Y-205152380D02*
X175157142Y-206152380D01*
X175157142Y-205152380D02*
X174490476Y-206152380D01*
X175442857Y-205152380D02*
X176061904Y-205152380D01*
X175728571Y-205533333D01*
X175871428Y-205533333D01*
X175966666Y-205580952D01*
X176014285Y-205628571D01*
X176061904Y-205723809D01*
X176061904Y-205961904D01*
X176014285Y-206057142D01*
X175966666Y-206104761D01*
X175871428Y-206152380D01*
X175585714Y-206152380D01*
X175490476Y-206104761D01*
X175442857Y-206057142D01*
G04 #@! TO.C,X17*
X143457142Y-144342857D02*
X144257142Y-145542857D01*
X144257142Y-144342857D02*
X143457142Y-145542857D01*
X145342857Y-145542857D02*
X144657142Y-145542857D01*
X145000000Y-145542857D02*
X145000000Y-144342857D01*
X144885714Y-144514285D01*
X144771428Y-144628571D01*
X144657142Y-144685714D01*
X145742857Y-144342857D02*
X146542857Y-144342857D01*
X146028571Y-145542857D01*
G04 #@! TO.C,V1.2*
D16*
X189052381Y-189004761D02*
X189719048Y-191004761D01*
X190385715Y-189004761D01*
X192100001Y-191004761D02*
X190957143Y-191004761D01*
X191528572Y-191004761D02*
X191528572Y-189004761D01*
X191338096Y-189290476D01*
X191147620Y-189480952D01*
X190957143Y-189576190D01*
X192957143Y-190814285D02*
X193052381Y-190909523D01*
X192957143Y-191004761D01*
X192861905Y-190909523D01*
X192957143Y-190814285D01*
X192957143Y-191004761D01*
X193814286Y-189195238D02*
X193909524Y-189100000D01*
X194100001Y-189004761D01*
X194576191Y-189004761D01*
X194766667Y-189100000D01*
X194861905Y-189195238D01*
X194957143Y-189385714D01*
X194957143Y-189576190D01*
X194861905Y-189861904D01*
X193719048Y-191004761D01*
X194957143Y-191004761D01*
G04 #@! TO.C,V2.2*
X188852380Y-148204761D02*
X189519047Y-150204761D01*
X190185714Y-148204761D01*
X190757142Y-148395238D02*
X190852380Y-148300000D01*
X191042857Y-148204761D01*
X191519047Y-148204761D01*
X191709523Y-148300000D01*
X191804761Y-148395238D01*
X191900000Y-148585714D01*
X191900000Y-148776190D01*
X191804761Y-149061904D01*
X190661904Y-150204761D01*
X191900000Y-150204761D01*
X192757142Y-150014285D02*
X192852380Y-150109523D01*
X192757142Y-150204761D01*
X192661904Y-150109523D01*
X192757142Y-150014285D01*
X192757142Y-150204761D01*
X193614285Y-148395238D02*
X193709523Y-148300000D01*
X193900000Y-148204761D01*
X194376190Y-148204761D01*
X194566666Y-148300000D01*
X194661904Y-148395238D01*
X194757142Y-148585714D01*
X194757142Y-148776190D01*
X194661904Y-149061904D01*
X193519047Y-150204761D01*
X194757142Y-150204761D01*
G04 #@! TO.C,X14*
D15*
X199457142Y-153342857D02*
X200257142Y-154542857D01*
X200257142Y-153342857D02*
X199457142Y-154542857D01*
X201342857Y-154542857D02*
X200657142Y-154542857D01*
X201000000Y-154542857D02*
X201000000Y-153342857D01*
X200885714Y-153514285D01*
X200771428Y-153628571D01*
X200657142Y-153685714D01*
X202371428Y-153742857D02*
X202371428Y-154542857D01*
X202085714Y-153285714D02*
X201800000Y-154142857D01*
X202542857Y-154142857D01*
G04 #@! TO.C,X7*
X200028571Y-194342857D02*
X200828571Y-195542857D01*
X200828571Y-194342857D02*
X200028571Y-195542857D01*
X201171428Y-194342857D02*
X201971428Y-194342857D01*
X201457142Y-195542857D01*
G04 #@! TO.C,V1.1*
D16*
X152571959Y-189851740D02*
X153203619Y-191863070D01*
X153905089Y-189875010D01*
X155584209Y-191904624D02*
X154441526Y-191884678D01*
X155012868Y-191894651D02*
X155047773Y-189894955D01*
X154852339Y-190177302D01*
X154658567Y-190364425D01*
X154466458Y-190456324D01*
X156444546Y-191729136D02*
X156538107Y-191826021D01*
X156441222Y-191919583D01*
X156347660Y-191822697D01*
X156444546Y-191729136D01*
X156441222Y-191919583D01*
X158440917Y-191954488D02*
X157298234Y-191934542D01*
X157869575Y-191944515D02*
X157904480Y-189944819D01*
X157709047Y-190227166D01*
X157515275Y-190414289D01*
X157323166Y-190506188D01*
G04 #@! TO.C,R4*
D13*
X151383333Y-130566666D02*
X151150000Y-130233333D01*
X150983333Y-130566666D02*
X150983333Y-129866666D01*
X151250000Y-129866666D01*
X151316666Y-129900000D01*
X151350000Y-129933333D01*
X151383333Y-130000000D01*
X151383333Y-130100000D01*
X151350000Y-130166666D01*
X151316666Y-130200000D01*
X151250000Y-130233333D01*
X150983333Y-130233333D01*
X151983333Y-130100000D02*
X151983333Y-130566666D01*
X151816666Y-129833333D02*
X151650000Y-130333333D01*
X152083333Y-130333333D01*
G04 #@! TO.C,D4*
X195483333Y-203316666D02*
X195483333Y-202616666D01*
X195650000Y-202616666D01*
X195750000Y-202650000D01*
X195816666Y-202716666D01*
X195850000Y-202783333D01*
X195883333Y-202916666D01*
X195883333Y-203016666D01*
X195850000Y-203150000D01*
X195816666Y-203216666D01*
X195750000Y-203283333D01*
X195650000Y-203316666D01*
X195483333Y-203316666D01*
X196483333Y-202850000D02*
X196483333Y-203316666D01*
X196316666Y-202583333D02*
X196150000Y-203083333D01*
X196583333Y-203083333D01*
G04 #@! TO.C,R9*
X151383333Y-171566666D02*
X151150000Y-171233333D01*
X150983333Y-171566666D02*
X150983333Y-170866666D01*
X151250000Y-170866666D01*
X151316666Y-170900000D01*
X151350000Y-170933333D01*
X151383333Y-171000000D01*
X151383333Y-171100000D01*
X151350000Y-171166666D01*
X151316666Y-171200000D01*
X151250000Y-171233333D01*
X150983333Y-171233333D01*
X151716666Y-171566666D02*
X151850000Y-171566666D01*
X151916666Y-171533333D01*
X151950000Y-171500000D01*
X152016666Y-171400000D01*
X152050000Y-171266666D01*
X152050000Y-171000000D01*
X152016666Y-170933333D01*
X151983333Y-170900000D01*
X151916666Y-170866666D01*
X151783333Y-170866666D01*
X151716666Y-170900000D01*
X151683333Y-170933333D01*
X151650000Y-171000000D01*
X151650000Y-171166666D01*
X151683333Y-171233333D01*
X151716666Y-171266666D01*
X151783333Y-171300000D01*
X151916666Y-171300000D01*
X151983333Y-171266666D01*
X152016666Y-171233333D01*
X152050000Y-171166666D01*
G04 #@! TO.C,X26*
D15*
X168957142Y-144342857D02*
X169757142Y-145542857D01*
X169757142Y-144342857D02*
X168957142Y-145542857D01*
X170157142Y-144457142D02*
X170214285Y-144400000D01*
X170328571Y-144342857D01*
X170614285Y-144342857D01*
X170728571Y-144400000D01*
X170785714Y-144457142D01*
X170842857Y-144571428D01*
X170842857Y-144685714D01*
X170785714Y-144857142D01*
X170100000Y-145542857D01*
X170842857Y-145542857D01*
X171871428Y-144342857D02*
X171642857Y-144342857D01*
X171528571Y-144400000D01*
X171471428Y-144457142D01*
X171357142Y-144628571D01*
X171300000Y-144857142D01*
X171300000Y-145314285D01*
X171357142Y-145428571D01*
X171414285Y-145485714D01*
X171528571Y-145542857D01*
X171757142Y-145542857D01*
X171871428Y-145485714D01*
X171928571Y-145428571D01*
X171985714Y-145314285D01*
X171985714Y-145028571D01*
X171928571Y-144914285D01*
X171871428Y-144857142D01*
X171757142Y-144800000D01*
X171528571Y-144800000D01*
X171414285Y-144857142D01*
X171357142Y-144914285D01*
X171300000Y-145028571D01*
G04 #@! TO.C,D3*
D13*
X150083333Y-178566666D02*
X150083333Y-177866666D01*
X150250000Y-177866666D01*
X150350000Y-177900000D01*
X150416666Y-177966666D01*
X150450000Y-178033333D01*
X150483333Y-178166666D01*
X150483333Y-178266666D01*
X150450000Y-178400000D01*
X150416666Y-178466666D01*
X150350000Y-178533333D01*
X150250000Y-178566666D01*
X150083333Y-178566666D01*
X150716666Y-177866666D02*
X151150000Y-177866666D01*
X150916666Y-178133333D01*
X151016666Y-178133333D01*
X151083333Y-178166666D01*
X151116666Y-178200000D01*
X151150000Y-178266666D01*
X151150000Y-178433333D01*
X151116666Y-178500000D01*
X151083333Y-178533333D01*
X151016666Y-178566666D01*
X150816666Y-178566666D01*
X150750000Y-178533333D01*
X150716666Y-178500000D01*
G04 #@! TO.C,X4*
D11*
X152178571Y-165214285D02*
X153678571Y-164214285D01*
X152178571Y-164214285D02*
X153678571Y-165214285D01*
X152678571Y-163000000D02*
X153678571Y-163000000D01*
X152107142Y-163357142D02*
X153178571Y-163714285D01*
X153178571Y-162785714D01*
G04 #@! TO.C,R2*
D13*
X146433333Y-130466666D02*
X146200000Y-130133333D01*
X146033333Y-130466666D02*
X146033333Y-129766666D01*
X146300000Y-129766666D01*
X146366666Y-129800000D01*
X146400000Y-129833333D01*
X146433333Y-129900000D01*
X146433333Y-130000000D01*
X146400000Y-130066666D01*
X146366666Y-130100000D01*
X146300000Y-130133333D01*
X146033333Y-130133333D01*
X146700000Y-129833333D02*
X146733333Y-129800000D01*
X146800000Y-129766666D01*
X146966666Y-129766666D01*
X147033333Y-129800000D01*
X147066666Y-129833333D01*
X147100000Y-129900000D01*
X147100000Y-129966666D01*
X147066666Y-130066666D01*
X146666666Y-130466666D01*
X147100000Y-130466666D01*
G04 #@! TO.C,X12*
D15*
X168957142Y-185342857D02*
X169757142Y-186542857D01*
X169757142Y-185342857D02*
X168957142Y-186542857D01*
X170842857Y-186542857D02*
X170157142Y-186542857D01*
X170500000Y-186542857D02*
X170500000Y-185342857D01*
X170385714Y-185514285D01*
X170271428Y-185628571D01*
X170157142Y-185685714D01*
X171300000Y-185457142D02*
X171357142Y-185400000D01*
X171471428Y-185342857D01*
X171757142Y-185342857D01*
X171871428Y-185400000D01*
X171928571Y-185457142D01*
X171985714Y-185571428D01*
X171985714Y-185685714D01*
X171928571Y-185857142D01*
X171242857Y-186542857D01*
X171985714Y-186542857D01*
G04 #@! TO.C,R7*
D13*
X146433333Y-171466666D02*
X146200000Y-171133333D01*
X146033333Y-171466666D02*
X146033333Y-170766666D01*
X146300000Y-170766666D01*
X146366666Y-170800000D01*
X146400000Y-170833333D01*
X146433333Y-170900000D01*
X146433333Y-171000000D01*
X146400000Y-171066666D01*
X146366666Y-171100000D01*
X146300000Y-171133333D01*
X146033333Y-171133333D01*
X146666666Y-170766666D02*
X147133333Y-170766666D01*
X146833333Y-171466666D01*
G04 #@! TO.C,X5*
D11*
X191178571Y-136214285D02*
X192678571Y-135214285D01*
X191178571Y-135214285D02*
X192678571Y-136214285D01*
X191178571Y-133928571D02*
X191178571Y-134642857D01*
X191892857Y-134714285D01*
X191821428Y-134642857D01*
X191750000Y-134500000D01*
X191750000Y-134142857D01*
X191821428Y-134000000D01*
X191892857Y-133928571D01*
X192035714Y-133857142D01*
X192392857Y-133857142D01*
X192535714Y-133928571D01*
X192607142Y-134000000D01*
X192678571Y-134142857D01*
X192678571Y-134500000D01*
X192607142Y-134642857D01*
X192535714Y-134714285D01*
G04 #@! TO.C,R6*
D13*
X195883333Y-210316666D02*
X195650000Y-209983333D01*
X195483333Y-210316666D02*
X195483333Y-209616666D01*
X195750000Y-209616666D01*
X195816666Y-209650000D01*
X195850000Y-209683333D01*
X195883333Y-209750000D01*
X195883333Y-209850000D01*
X195850000Y-209916666D01*
X195816666Y-209950000D01*
X195750000Y-209983333D01*
X195483333Y-209983333D01*
X196483333Y-209616666D02*
X196350000Y-209616666D01*
X196283333Y-209650000D01*
X196250000Y-209683333D01*
X196183333Y-209783333D01*
X196150000Y-209916666D01*
X196150000Y-210183333D01*
X196183333Y-210250000D01*
X196216666Y-210283333D01*
X196283333Y-210316666D01*
X196416666Y-210316666D01*
X196483333Y-210283333D01*
X196516666Y-210250000D01*
X196550000Y-210183333D01*
X196550000Y-210016666D01*
X196516666Y-209950000D01*
X196483333Y-209916666D01*
X196416666Y-209883333D01*
X196283333Y-209883333D01*
X196216666Y-209916666D01*
X196183333Y-209950000D01*
X196150000Y-210016666D01*
G04 #@! TO.C,X2*
D11*
X191178571Y-177214285D02*
X192678571Y-176214285D01*
X191178571Y-176214285D02*
X192678571Y-177214285D01*
X191321428Y-175714285D02*
X191250000Y-175642857D01*
X191178571Y-175500000D01*
X191178571Y-175142857D01*
X191250000Y-175000000D01*
X191321428Y-174928571D01*
X191464285Y-174857142D01*
X191607142Y-174857142D01*
X191821428Y-174928571D01*
X192678571Y-175785714D01*
X192678571Y-174857142D01*
G04 #@! TO.C,X1*
X152178571Y-206214285D02*
X153678571Y-205214285D01*
X152178571Y-205214285D02*
X153678571Y-206214285D01*
X153678571Y-203857142D02*
X153678571Y-204714285D01*
X153678571Y-204285714D02*
X152178571Y-204285714D01*
X152392857Y-204428571D01*
X152535714Y-204571428D01*
X152607142Y-204714285D01*
G04 #@! TO.C,D4*
D13*
X133483333Y-203316666D02*
X133483333Y-202616666D01*
X133650000Y-202616666D01*
X133750000Y-202650000D01*
X133816666Y-202716666D01*
X133850000Y-202783333D01*
X133883333Y-202916666D01*
X133883333Y-203016666D01*
X133850000Y-203150000D01*
X133816666Y-203216666D01*
X133750000Y-203283333D01*
X133650000Y-203316666D01*
X133483333Y-203316666D01*
X134483333Y-202850000D02*
X134483333Y-203316666D01*
X134316666Y-202583333D02*
X134150000Y-203083333D01*
X134583333Y-203083333D01*
G04 #@! TO.C,X26*
D15*
X106957142Y-144342857D02*
X107757142Y-145542857D01*
X107757142Y-144342857D02*
X106957142Y-145542857D01*
X108157142Y-144457142D02*
X108214285Y-144400000D01*
X108328571Y-144342857D01*
X108614285Y-144342857D01*
X108728571Y-144400000D01*
X108785714Y-144457142D01*
X108842857Y-144571428D01*
X108842857Y-144685714D01*
X108785714Y-144857142D01*
X108100000Y-145542857D01*
X108842857Y-145542857D01*
X109871428Y-144342857D02*
X109642857Y-144342857D01*
X109528571Y-144400000D01*
X109471428Y-144457142D01*
X109357142Y-144628571D01*
X109300000Y-144857142D01*
X109300000Y-145314285D01*
X109357142Y-145428571D01*
X109414285Y-145485714D01*
X109528571Y-145542857D01*
X109757142Y-145542857D01*
X109871428Y-145485714D01*
X109928571Y-145428571D01*
X109985714Y-145314285D01*
X109985714Y-145028571D01*
X109928571Y-144914285D01*
X109871428Y-144857142D01*
X109757142Y-144800000D01*
X109528571Y-144800000D01*
X109414285Y-144857142D01*
X109357142Y-144914285D01*
X109300000Y-145028571D01*
G04 #@! TO.C,V1.1*
D16*
X90571959Y-189851740D02*
X91203619Y-191863070D01*
X91905089Y-189875010D01*
X93584209Y-191904624D02*
X92441526Y-191884678D01*
X93012868Y-191894651D02*
X93047773Y-189894955D01*
X92852339Y-190177302D01*
X92658567Y-190364425D01*
X92466458Y-190456324D01*
X94444546Y-191729136D02*
X94538107Y-191826021D01*
X94441222Y-191919583D01*
X94347660Y-191822697D01*
X94444546Y-191729136D01*
X94441222Y-191919583D01*
X96440917Y-191954488D02*
X95298234Y-191934542D01*
X95869575Y-191944515D02*
X95904480Y-189944819D01*
X95709047Y-190227166D01*
X95515275Y-190414289D01*
X95323166Y-190506188D01*
G04 #@! TO.C,V2.1*
X90371959Y-148651740D02*
X91003619Y-150663070D01*
X91705089Y-148675010D01*
X92273107Y-148875430D02*
X92369992Y-148781868D01*
X92562102Y-148689969D01*
X93038220Y-148698280D01*
X93227005Y-148796828D01*
X93320566Y-148893713D01*
X93412466Y-149085823D01*
X93409141Y-149276270D01*
X93308931Y-149560278D01*
X92146303Y-150683016D01*
X93384209Y-150704624D01*
X94244546Y-150529136D02*
X94338107Y-150626021D01*
X94241222Y-150719583D01*
X94147660Y-150622697D01*
X94244546Y-150529136D01*
X94241222Y-150719583D01*
X96240917Y-150754488D02*
X95098234Y-150734542D01*
X95669575Y-150744515D02*
X95704480Y-148744819D01*
X95509047Y-149027166D01*
X95315275Y-149214289D01*
X95123166Y-149306188D01*
G04 #@! TO.C,X7*
D15*
X138028571Y-194342857D02*
X138828571Y-195542857D01*
X138828571Y-194342857D02*
X138028571Y-195542857D01*
X139171428Y-194342857D02*
X139971428Y-194342857D01*
X139457142Y-195542857D01*
G04 #@! TO.C,X17*
X81457142Y-144342857D02*
X82257142Y-145542857D01*
X82257142Y-144342857D02*
X81457142Y-145542857D01*
X83342857Y-145542857D02*
X82657142Y-145542857D01*
X83000000Y-145542857D02*
X83000000Y-144342857D01*
X82885714Y-144514285D01*
X82771428Y-144628571D01*
X82657142Y-144685714D01*
X83742857Y-144342857D02*
X84542857Y-144342857D01*
X84028571Y-145542857D01*
G04 #@! TO.C,V1.2*
D16*
X127052381Y-189004761D02*
X127719048Y-191004761D01*
X128385715Y-189004761D01*
X130100001Y-191004761D02*
X128957143Y-191004761D01*
X129528572Y-191004761D02*
X129528572Y-189004761D01*
X129338096Y-189290476D01*
X129147620Y-189480952D01*
X128957143Y-189576190D01*
X130957143Y-190814285D02*
X131052381Y-190909523D01*
X130957143Y-191004761D01*
X130861905Y-190909523D01*
X130957143Y-190814285D01*
X130957143Y-191004761D01*
X131814286Y-189195238D02*
X131909524Y-189100000D01*
X132100001Y-189004761D01*
X132576191Y-189004761D01*
X132766667Y-189100000D01*
X132861905Y-189195238D01*
X132957143Y-189385714D01*
X132957143Y-189576190D01*
X132861905Y-189861904D01*
X131719048Y-191004761D01*
X132957143Y-191004761D01*
G04 #@! TO.C,D2*
D13*
X133483333Y-162316666D02*
X133483333Y-161616666D01*
X133650000Y-161616666D01*
X133750000Y-161650000D01*
X133816666Y-161716666D01*
X133850000Y-161783333D01*
X133883333Y-161916666D01*
X133883333Y-162016666D01*
X133850000Y-162150000D01*
X133816666Y-162216666D01*
X133750000Y-162283333D01*
X133650000Y-162316666D01*
X133483333Y-162316666D01*
X134150000Y-161683333D02*
X134183333Y-161650000D01*
X134250000Y-161616666D01*
X134416666Y-161616666D01*
X134483333Y-161650000D01*
X134516666Y-161683333D01*
X134550000Y-161750000D01*
X134550000Y-161816666D01*
X134516666Y-161916666D01*
X134116666Y-162316666D01*
X134550000Y-162316666D01*
G04 #@! TO.C,V2.2*
D16*
X126852380Y-148204761D02*
X127519047Y-150204761D01*
X128185714Y-148204761D01*
X128757142Y-148395238D02*
X128852380Y-148300000D01*
X129042857Y-148204761D01*
X129519047Y-148204761D01*
X129709523Y-148300000D01*
X129804761Y-148395238D01*
X129900000Y-148585714D01*
X129900000Y-148776190D01*
X129804761Y-149061904D01*
X128661904Y-150204761D01*
X129900000Y-150204761D01*
X130757142Y-150014285D02*
X130852380Y-150109523D01*
X130757142Y-150204761D01*
X130661904Y-150109523D01*
X130757142Y-150014285D01*
X130757142Y-150204761D01*
X131614285Y-148395238D02*
X131709523Y-148300000D01*
X131900000Y-148204761D01*
X132376190Y-148204761D01*
X132566666Y-148300000D01*
X132661904Y-148395238D01*
X132757142Y-148585714D01*
X132757142Y-148776190D01*
X132661904Y-149061904D01*
X131519047Y-150204761D01*
X132757142Y-150204761D01*
G04 #@! TO.C,X3*
D15*
X112490476Y-205152380D02*
X113157142Y-206152380D01*
X113157142Y-205152380D02*
X112490476Y-206152380D01*
X113442857Y-205152380D02*
X114061904Y-205152380D01*
X113728571Y-205533333D01*
X113871428Y-205533333D01*
X113966666Y-205580952D01*
X114014285Y-205628571D01*
X114061904Y-205723809D01*
X114061904Y-205961904D01*
X114014285Y-206057142D01*
X113966666Y-206104761D01*
X113871428Y-206152380D01*
X113585714Y-206152380D01*
X113490476Y-206104761D01*
X113442857Y-206057142D01*
G04 #@! TO.C,X14*
X137457142Y-153342857D02*
X138257142Y-154542857D01*
X138257142Y-153342857D02*
X137457142Y-154542857D01*
X139342857Y-154542857D02*
X138657142Y-154542857D01*
X139000000Y-154542857D02*
X139000000Y-153342857D01*
X138885714Y-153514285D01*
X138771428Y-153628571D01*
X138657142Y-153685714D01*
X140371428Y-153742857D02*
X140371428Y-154542857D01*
X140085714Y-153285714D02*
X139800000Y-154142857D01*
X140542857Y-154142857D01*
G04 #@! TO.C,X9*
X144028571Y-185342857D02*
X144828571Y-186542857D01*
X144828571Y-185342857D02*
X144028571Y-186542857D01*
X145342857Y-186542857D02*
X145571428Y-186542857D01*
X145685714Y-186485714D01*
X145742857Y-186428571D01*
X145857142Y-186257142D01*
X145914285Y-186028571D01*
X145914285Y-185571428D01*
X145857142Y-185457142D01*
X145800000Y-185400000D01*
X145685714Y-185342857D01*
X145457142Y-185342857D01*
X145342857Y-185400000D01*
X145285714Y-185457142D01*
X145228571Y-185571428D01*
X145228571Y-185857142D01*
X145285714Y-185971428D01*
X145342857Y-186028571D01*
X145457142Y-186085714D01*
X145685714Y-186085714D01*
X145800000Y-186028571D01*
X145857142Y-185971428D01*
X145914285Y-185857142D01*
G04 #@! TO.C,X6*
D11*
X174528571Y-163942857D02*
X175328571Y-165142857D01*
X175328571Y-163942857D02*
X174528571Y-165142857D01*
X176300000Y-163942857D02*
X176071428Y-163942857D01*
X175957142Y-164000000D01*
X175900000Y-164057142D01*
X175785714Y-164228571D01*
X175728571Y-164457142D01*
X175728571Y-164914285D01*
X175785714Y-165028571D01*
X175842857Y-165085714D01*
X175957142Y-165142857D01*
X176185714Y-165142857D01*
X176300000Y-165085714D01*
X176357142Y-165028571D01*
X176414285Y-164914285D01*
X176414285Y-164628571D01*
X176357142Y-164514285D01*
X176300000Y-164457142D01*
X176185714Y-164400000D01*
X175957142Y-164400000D01*
X175842857Y-164457142D01*
X175785714Y-164514285D01*
X175728571Y-164628571D01*
G04 #@! TO.C,R8*
D13*
X200333333Y-210166666D02*
X200100000Y-209833333D01*
X199933333Y-210166666D02*
X199933333Y-209466666D01*
X200200000Y-209466666D01*
X200266666Y-209500000D01*
X200300000Y-209533333D01*
X200333333Y-209600000D01*
X200333333Y-209700000D01*
X200300000Y-209766666D01*
X200266666Y-209800000D01*
X200200000Y-209833333D01*
X199933333Y-209833333D01*
X200733333Y-209766666D02*
X200666666Y-209733333D01*
X200633333Y-209700000D01*
X200600000Y-209633333D01*
X200600000Y-209600000D01*
X200633333Y-209533333D01*
X200666666Y-209500000D01*
X200733333Y-209466666D01*
X200866666Y-209466666D01*
X200933333Y-209500000D01*
X200966666Y-209533333D01*
X201000000Y-209600000D01*
X201000000Y-209633333D01*
X200966666Y-209700000D01*
X200933333Y-209733333D01*
X200866666Y-209766666D01*
X200733333Y-209766666D01*
X200666666Y-209800000D01*
X200633333Y-209833333D01*
X200600000Y-209900000D01*
X200600000Y-210033333D01*
X200633333Y-210100000D01*
X200666666Y-210133333D01*
X200733333Y-210166666D01*
X200866666Y-210166666D01*
X200933333Y-210133333D01*
X200966666Y-210100000D01*
X201000000Y-210033333D01*
X201000000Y-209900000D01*
X200966666Y-209833333D01*
X200933333Y-209800000D01*
X200866666Y-209766666D01*
G04 #@! TO.C,R1*
X195883333Y-169316666D02*
X195650000Y-168983333D01*
X195483333Y-169316666D02*
X195483333Y-168616666D01*
X195750000Y-168616666D01*
X195816666Y-168650000D01*
X195850000Y-168683333D01*
X195883333Y-168750000D01*
X195883333Y-168850000D01*
X195850000Y-168916666D01*
X195816666Y-168950000D01*
X195750000Y-168983333D01*
X195483333Y-168983333D01*
X196550000Y-169316666D02*
X196150000Y-169316666D01*
X196350000Y-169316666D02*
X196350000Y-168616666D01*
X196283333Y-168716666D01*
X196216666Y-168783333D01*
X196150000Y-168816666D01*
G04 #@! TO.C,R3*
X200333333Y-169166666D02*
X200100000Y-168833333D01*
X199933333Y-169166666D02*
X199933333Y-168466666D01*
X200200000Y-168466666D01*
X200266666Y-168500000D01*
X200300000Y-168533333D01*
X200333333Y-168600000D01*
X200333333Y-168700000D01*
X200300000Y-168766666D01*
X200266666Y-168800000D01*
X200200000Y-168833333D01*
X199933333Y-168833333D01*
X200566666Y-168466666D02*
X201000000Y-168466666D01*
X200766666Y-168733333D01*
X200866666Y-168733333D01*
X200933333Y-168766666D01*
X200966666Y-168800000D01*
X201000000Y-168866666D01*
X201000000Y-169033333D01*
X200966666Y-169100000D01*
X200933333Y-169133333D01*
X200866666Y-169166666D01*
X200666666Y-169166666D01*
X200600000Y-169133333D01*
X200566666Y-169100000D01*
G04 #@! TO.C,D1*
X150083333Y-137566666D02*
X150083333Y-136866666D01*
X150250000Y-136866666D01*
X150350000Y-136900000D01*
X150416666Y-136966666D01*
X150450000Y-137033333D01*
X150483333Y-137166666D01*
X150483333Y-137266666D01*
X150450000Y-137400000D01*
X150416666Y-137466666D01*
X150350000Y-137533333D01*
X150250000Y-137566666D01*
X150083333Y-137566666D01*
X151150000Y-137566666D02*
X150750000Y-137566666D01*
X150950000Y-137566666D02*
X150950000Y-136866666D01*
X150883333Y-136966666D01*
X150816666Y-137033333D01*
X150750000Y-137066666D01*
G04 #@! TO.C,X6*
D11*
X236528571Y-81942857D02*
X237328571Y-83142857D01*
X237328571Y-81942857D02*
X236528571Y-83142857D01*
X238300000Y-81942857D02*
X238071428Y-81942857D01*
X237957142Y-82000000D01*
X237900000Y-82057142D01*
X237785714Y-82228571D01*
X237728571Y-82457142D01*
X237728571Y-82914285D01*
X237785714Y-83028571D01*
X237842857Y-83085714D01*
X237957142Y-83142857D01*
X238185714Y-83142857D01*
X238300000Y-83085714D01*
X238357142Y-83028571D01*
X238414285Y-82914285D01*
X238414285Y-82628571D01*
X238357142Y-82514285D01*
X238300000Y-82457142D01*
X238185714Y-82400000D01*
X237957142Y-82400000D01*
X237842857Y-82457142D01*
X237785714Y-82514285D01*
X237728571Y-82628571D01*
G04 #@! TO.C,R1*
D13*
X257883333Y-87316666D02*
X257650000Y-86983333D01*
X257483333Y-87316666D02*
X257483333Y-86616666D01*
X257750000Y-86616666D01*
X257816666Y-86650000D01*
X257850000Y-86683333D01*
X257883333Y-86750000D01*
X257883333Y-86850000D01*
X257850000Y-86916666D01*
X257816666Y-86950000D01*
X257750000Y-86983333D01*
X257483333Y-86983333D01*
X258550000Y-87316666D02*
X258150000Y-87316666D01*
X258350000Y-87316666D02*
X258350000Y-86616666D01*
X258283333Y-86716666D01*
X258216666Y-86783333D01*
X258150000Y-86816666D01*
G04 #@! TO.C,R8*
X262333333Y-128166666D02*
X262100000Y-127833333D01*
X261933333Y-128166666D02*
X261933333Y-127466666D01*
X262200000Y-127466666D01*
X262266666Y-127500000D01*
X262300000Y-127533333D01*
X262333333Y-127600000D01*
X262333333Y-127700000D01*
X262300000Y-127766666D01*
X262266666Y-127800000D01*
X262200000Y-127833333D01*
X261933333Y-127833333D01*
X262733333Y-127766666D02*
X262666666Y-127733333D01*
X262633333Y-127700000D01*
X262600000Y-127633333D01*
X262600000Y-127600000D01*
X262633333Y-127533333D01*
X262666666Y-127500000D01*
X262733333Y-127466666D01*
X262866666Y-127466666D01*
X262933333Y-127500000D01*
X262966666Y-127533333D01*
X263000000Y-127600000D01*
X263000000Y-127633333D01*
X262966666Y-127700000D01*
X262933333Y-127733333D01*
X262866666Y-127766666D01*
X262733333Y-127766666D01*
X262666666Y-127800000D01*
X262633333Y-127833333D01*
X262600000Y-127900000D01*
X262600000Y-128033333D01*
X262633333Y-128100000D01*
X262666666Y-128133333D01*
X262733333Y-128166666D01*
X262866666Y-128166666D01*
X262933333Y-128133333D01*
X262966666Y-128100000D01*
X263000000Y-128033333D01*
X263000000Y-127900000D01*
X262966666Y-127833333D01*
X262933333Y-127800000D01*
X262866666Y-127766666D01*
G04 #@! TO.C,X9*
D15*
X206028571Y-103342857D02*
X206828571Y-104542857D01*
X206828571Y-103342857D02*
X206028571Y-104542857D01*
X207342857Y-104542857D02*
X207571428Y-104542857D01*
X207685714Y-104485714D01*
X207742857Y-104428571D01*
X207857142Y-104257142D01*
X207914285Y-104028571D01*
X207914285Y-103571428D01*
X207857142Y-103457142D01*
X207800000Y-103400000D01*
X207685714Y-103342857D01*
X207457142Y-103342857D01*
X207342857Y-103400000D01*
X207285714Y-103457142D01*
X207228571Y-103571428D01*
X207228571Y-103857142D01*
X207285714Y-103971428D01*
X207342857Y-104028571D01*
X207457142Y-104085714D01*
X207685714Y-104085714D01*
X207800000Y-104028571D01*
X207857142Y-103971428D01*
X207914285Y-103857142D01*
G04 #@! TO.C,R3*
D13*
X262333333Y-87166666D02*
X262100000Y-86833333D01*
X261933333Y-87166666D02*
X261933333Y-86466666D01*
X262200000Y-86466666D01*
X262266666Y-86500000D01*
X262300000Y-86533333D01*
X262333333Y-86600000D01*
X262333333Y-86700000D01*
X262300000Y-86766666D01*
X262266666Y-86800000D01*
X262200000Y-86833333D01*
X261933333Y-86833333D01*
X262566666Y-86466666D02*
X263000000Y-86466666D01*
X262766666Y-86733333D01*
X262866666Y-86733333D01*
X262933333Y-86766666D01*
X262966666Y-86800000D01*
X263000000Y-86866666D01*
X263000000Y-87033333D01*
X262966666Y-87100000D01*
X262933333Y-87133333D01*
X262866666Y-87166666D01*
X262666666Y-87166666D01*
X262600000Y-87133333D01*
X262566666Y-87100000D01*
G04 #@! TO.C,D3*
X212083333Y-96566666D02*
X212083333Y-95866666D01*
X212250000Y-95866666D01*
X212350000Y-95900000D01*
X212416666Y-95966666D01*
X212450000Y-96033333D01*
X212483333Y-96166666D01*
X212483333Y-96266666D01*
X212450000Y-96400000D01*
X212416666Y-96466666D01*
X212350000Y-96533333D01*
X212250000Y-96566666D01*
X212083333Y-96566666D01*
X212716666Y-95866666D02*
X213150000Y-95866666D01*
X212916666Y-96133333D01*
X213016666Y-96133333D01*
X213083333Y-96166666D01*
X213116666Y-96200000D01*
X213150000Y-96266666D01*
X213150000Y-96433333D01*
X213116666Y-96500000D01*
X213083333Y-96533333D01*
X213016666Y-96566666D01*
X212816666Y-96566666D01*
X212750000Y-96533333D01*
X212716666Y-96500000D01*
G04 #@! TO.C,X4*
D11*
X214178571Y-83214285D02*
X215678571Y-82214285D01*
X214178571Y-82214285D02*
X215678571Y-83214285D01*
X214678571Y-81000000D02*
X215678571Y-81000000D01*
X214107142Y-81357142D02*
X215178571Y-81714285D01*
X215178571Y-80785714D01*
G04 #@! TO.C,R4*
D13*
X213383333Y-48566666D02*
X213150000Y-48233333D01*
X212983333Y-48566666D02*
X212983333Y-47866666D01*
X213250000Y-47866666D01*
X213316666Y-47900000D01*
X213350000Y-47933333D01*
X213383333Y-48000000D01*
X213383333Y-48100000D01*
X213350000Y-48166666D01*
X213316666Y-48200000D01*
X213250000Y-48233333D01*
X212983333Y-48233333D01*
X213983333Y-48100000D02*
X213983333Y-48566666D01*
X213816666Y-47833333D02*
X213650000Y-48333333D01*
X214083333Y-48333333D01*
G04 #@! TO.C,R9*
X213383333Y-89566666D02*
X213150000Y-89233333D01*
X212983333Y-89566666D02*
X212983333Y-88866666D01*
X213250000Y-88866666D01*
X213316666Y-88900000D01*
X213350000Y-88933333D01*
X213383333Y-89000000D01*
X213383333Y-89100000D01*
X213350000Y-89166666D01*
X213316666Y-89200000D01*
X213250000Y-89233333D01*
X212983333Y-89233333D01*
X213716666Y-89566666D02*
X213850000Y-89566666D01*
X213916666Y-89533333D01*
X213950000Y-89500000D01*
X214016666Y-89400000D01*
X214050000Y-89266666D01*
X214050000Y-89000000D01*
X214016666Y-88933333D01*
X213983333Y-88900000D01*
X213916666Y-88866666D01*
X213783333Y-88866666D01*
X213716666Y-88900000D01*
X213683333Y-88933333D01*
X213650000Y-89000000D01*
X213650000Y-89166666D01*
X213683333Y-89233333D01*
X213716666Y-89266666D01*
X213783333Y-89300000D01*
X213916666Y-89300000D01*
X213983333Y-89266666D01*
X214016666Y-89233333D01*
X214050000Y-89166666D01*
G04 #@! TO.C,X5*
D11*
X253178571Y-54214285D02*
X254678571Y-53214285D01*
X253178571Y-53214285D02*
X254678571Y-54214285D01*
X253178571Y-51928571D02*
X253178571Y-52642857D01*
X253892857Y-52714285D01*
X253821428Y-52642857D01*
X253750000Y-52500000D01*
X253750000Y-52142857D01*
X253821428Y-52000000D01*
X253892857Y-51928571D01*
X254035714Y-51857142D01*
X254392857Y-51857142D01*
X254535714Y-51928571D01*
X254607142Y-52000000D01*
X254678571Y-52142857D01*
X254678571Y-52500000D01*
X254607142Y-52642857D01*
X254535714Y-52714285D01*
G04 #@! TO.C,R2*
D13*
X208433333Y-48466666D02*
X208200000Y-48133333D01*
X208033333Y-48466666D02*
X208033333Y-47766666D01*
X208300000Y-47766666D01*
X208366666Y-47800000D01*
X208400000Y-47833333D01*
X208433333Y-47900000D01*
X208433333Y-48000000D01*
X208400000Y-48066666D01*
X208366666Y-48100000D01*
X208300000Y-48133333D01*
X208033333Y-48133333D01*
X208700000Y-47833333D02*
X208733333Y-47800000D01*
X208800000Y-47766666D01*
X208966666Y-47766666D01*
X209033333Y-47800000D01*
X209066666Y-47833333D01*
X209100000Y-47900000D01*
X209100000Y-47966666D01*
X209066666Y-48066666D01*
X208666666Y-48466666D01*
X209100000Y-48466666D01*
G04 #@! TO.C,X2*
D11*
X253178571Y-95214285D02*
X254678571Y-94214285D01*
X253178571Y-94214285D02*
X254678571Y-95214285D01*
X253321428Y-93714285D02*
X253250000Y-93642857D01*
X253178571Y-93500000D01*
X253178571Y-93142857D01*
X253250000Y-93000000D01*
X253321428Y-92928571D01*
X253464285Y-92857142D01*
X253607142Y-92857142D01*
X253821428Y-92928571D01*
X254678571Y-93785714D01*
X254678571Y-92857142D01*
G04 #@! TO.C,X1*
X214178571Y-124214285D02*
X215678571Y-123214285D01*
X214178571Y-123214285D02*
X215678571Y-124214285D01*
X215678571Y-121857142D02*
X215678571Y-122714285D01*
X215678571Y-122285714D02*
X214178571Y-122285714D01*
X214392857Y-122428571D01*
X214535714Y-122571428D01*
X214607142Y-122714285D01*
G04 #@! TO.C,R6*
D13*
X257883333Y-128316666D02*
X257650000Y-127983333D01*
X257483333Y-128316666D02*
X257483333Y-127616666D01*
X257750000Y-127616666D01*
X257816666Y-127650000D01*
X257850000Y-127683333D01*
X257883333Y-127750000D01*
X257883333Y-127850000D01*
X257850000Y-127916666D01*
X257816666Y-127950000D01*
X257750000Y-127983333D01*
X257483333Y-127983333D01*
X258483333Y-127616666D02*
X258350000Y-127616666D01*
X258283333Y-127650000D01*
X258250000Y-127683333D01*
X258183333Y-127783333D01*
X258150000Y-127916666D01*
X258150000Y-128183333D01*
X258183333Y-128250000D01*
X258216666Y-128283333D01*
X258283333Y-128316666D01*
X258416666Y-128316666D01*
X258483333Y-128283333D01*
X258516666Y-128250000D01*
X258550000Y-128183333D01*
X258550000Y-128016666D01*
X258516666Y-127950000D01*
X258483333Y-127916666D01*
X258416666Y-127883333D01*
X258283333Y-127883333D01*
X258216666Y-127916666D01*
X258183333Y-127950000D01*
X258150000Y-128016666D01*
G04 #@! TO.C,X12*
D15*
X230957142Y-103342857D02*
X231757142Y-104542857D01*
X231757142Y-103342857D02*
X230957142Y-104542857D01*
X232842857Y-104542857D02*
X232157142Y-104542857D01*
X232500000Y-104542857D02*
X232500000Y-103342857D01*
X232385714Y-103514285D01*
X232271428Y-103628571D01*
X232157142Y-103685714D01*
X233300000Y-103457142D02*
X233357142Y-103400000D01*
X233471428Y-103342857D01*
X233757142Y-103342857D01*
X233871428Y-103400000D01*
X233928571Y-103457142D01*
X233985714Y-103571428D01*
X233985714Y-103685714D01*
X233928571Y-103857142D01*
X233242857Y-104542857D01*
X233985714Y-104542857D01*
G04 #@! TO.C,R7*
D13*
X208433333Y-89466666D02*
X208200000Y-89133333D01*
X208033333Y-89466666D02*
X208033333Y-88766666D01*
X208300000Y-88766666D01*
X208366666Y-88800000D01*
X208400000Y-88833333D01*
X208433333Y-88900000D01*
X208433333Y-89000000D01*
X208400000Y-89066666D01*
X208366666Y-89100000D01*
X208300000Y-89133333D01*
X208033333Y-89133333D01*
X208666666Y-88766666D02*
X209133333Y-88766666D01*
X208833333Y-89466666D01*
G04 #@! TO.C,V2.1*
D16*
X276371959Y-66651740D02*
X277003619Y-68663070D01*
X277705089Y-66675010D01*
X278273107Y-66875430D02*
X278369992Y-66781868D01*
X278562102Y-66689969D01*
X279038220Y-66698280D01*
X279227005Y-66796828D01*
X279320566Y-66893713D01*
X279412466Y-67085823D01*
X279409141Y-67276270D01*
X279308931Y-67560278D01*
X278146303Y-68683016D01*
X279384209Y-68704624D01*
X280244546Y-68529136D02*
X280338107Y-68626021D01*
X280241222Y-68719583D01*
X280147660Y-68622697D01*
X280244546Y-68529136D01*
X280241222Y-68719583D01*
X282240917Y-68754488D02*
X281098234Y-68734542D01*
X281669575Y-68744515D02*
X281704480Y-66744819D01*
X281509047Y-67027166D01*
X281315275Y-67214289D01*
X281123166Y-67306188D01*
G04 #@! TO.C,D2*
D13*
X319483333Y-80316666D02*
X319483333Y-79616666D01*
X319650000Y-79616666D01*
X319750000Y-79650000D01*
X319816666Y-79716666D01*
X319850000Y-79783333D01*
X319883333Y-79916666D01*
X319883333Y-80016666D01*
X319850000Y-80150000D01*
X319816666Y-80216666D01*
X319750000Y-80283333D01*
X319650000Y-80316666D01*
X319483333Y-80316666D01*
X320150000Y-79683333D02*
X320183333Y-79650000D01*
X320250000Y-79616666D01*
X320416666Y-79616666D01*
X320483333Y-79650000D01*
X320516666Y-79683333D01*
X320550000Y-79750000D01*
X320550000Y-79816666D01*
X320516666Y-79916666D01*
X320116666Y-80316666D01*
X320550000Y-80316666D01*
G04 #@! TO.C,X3*
D15*
X298490476Y-123152380D02*
X299157142Y-124152380D01*
X299157142Y-123152380D02*
X298490476Y-124152380D01*
X299442857Y-123152380D02*
X300061904Y-123152380D01*
X299728571Y-123533333D01*
X299871428Y-123533333D01*
X299966666Y-123580952D01*
X300014285Y-123628571D01*
X300061904Y-123723809D01*
X300061904Y-123961904D01*
X300014285Y-124057142D01*
X299966666Y-124104761D01*
X299871428Y-124152380D01*
X299585714Y-124152380D01*
X299490476Y-124104761D01*
X299442857Y-124057142D01*
G04 #@! TO.C,X17*
X267457142Y-62342857D02*
X268257142Y-63542857D01*
X268257142Y-62342857D02*
X267457142Y-63542857D01*
X269342857Y-63542857D02*
X268657142Y-63542857D01*
X269000000Y-63542857D02*
X269000000Y-62342857D01*
X268885714Y-62514285D01*
X268771428Y-62628571D01*
X268657142Y-62685714D01*
X269742857Y-62342857D02*
X270542857Y-62342857D01*
X270028571Y-63542857D01*
G04 #@! TO.C,V1.2*
D16*
X313052381Y-107004761D02*
X313719048Y-109004761D01*
X314385715Y-107004761D01*
X316100001Y-109004761D02*
X314957143Y-109004761D01*
X315528572Y-109004761D02*
X315528572Y-107004761D01*
X315338096Y-107290476D01*
X315147620Y-107480952D01*
X314957143Y-107576190D01*
X316957143Y-108814285D02*
X317052381Y-108909523D01*
X316957143Y-109004761D01*
X316861905Y-108909523D01*
X316957143Y-108814285D01*
X316957143Y-109004761D01*
X317814286Y-107195238D02*
X317909524Y-107100000D01*
X318100001Y-107004761D01*
X318576191Y-107004761D01*
X318766667Y-107100000D01*
X318861905Y-107195238D01*
X318957143Y-107385714D01*
X318957143Y-107576190D01*
X318861905Y-107861904D01*
X317719048Y-109004761D01*
X318957143Y-109004761D01*
G04 #@! TO.C,V2.2*
X312852380Y-66204761D02*
X313519047Y-68204761D01*
X314185714Y-66204761D01*
X314757142Y-66395238D02*
X314852380Y-66300000D01*
X315042857Y-66204761D01*
X315519047Y-66204761D01*
X315709523Y-66300000D01*
X315804761Y-66395238D01*
X315900000Y-66585714D01*
X315900000Y-66776190D01*
X315804761Y-67061904D01*
X314661904Y-68204761D01*
X315900000Y-68204761D01*
X316757142Y-68014285D02*
X316852380Y-68109523D01*
X316757142Y-68204761D01*
X316661904Y-68109523D01*
X316757142Y-68014285D01*
X316757142Y-68204761D01*
X317614285Y-66395238D02*
X317709523Y-66300000D01*
X317900000Y-66204761D01*
X318376190Y-66204761D01*
X318566666Y-66300000D01*
X318661904Y-66395238D01*
X318757142Y-66585714D01*
X318757142Y-66776190D01*
X318661904Y-67061904D01*
X317519047Y-68204761D01*
X318757142Y-68204761D01*
G04 #@! TO.C,X14*
D15*
X323457142Y-71342857D02*
X324257142Y-72542857D01*
X324257142Y-71342857D02*
X323457142Y-72542857D01*
X325342857Y-72542857D02*
X324657142Y-72542857D01*
X325000000Y-72542857D02*
X325000000Y-71342857D01*
X324885714Y-71514285D01*
X324771428Y-71628571D01*
X324657142Y-71685714D01*
X326371428Y-71742857D02*
X326371428Y-72542857D01*
X326085714Y-71285714D02*
X325800000Y-72142857D01*
X326542857Y-72142857D01*
G04 #@! TO.C,X7*
X324028571Y-112342857D02*
X324828571Y-113542857D01*
X324828571Y-112342857D02*
X324028571Y-113542857D01*
X325171428Y-112342857D02*
X325971428Y-112342857D01*
X325457142Y-113542857D01*
G04 #@! TO.C,V1.1*
D16*
X276571959Y-107851740D02*
X277203619Y-109863070D01*
X277905089Y-107875010D01*
X279584209Y-109904624D02*
X278441526Y-109884678D01*
X279012868Y-109894651D02*
X279047773Y-107894955D01*
X278852339Y-108177302D01*
X278658567Y-108364425D01*
X278466458Y-108456324D01*
X280444546Y-109729136D02*
X280538107Y-109826021D01*
X280441222Y-109919583D01*
X280347660Y-109822697D01*
X280444546Y-109729136D01*
X280441222Y-109919583D01*
X282440917Y-109954488D02*
X281298234Y-109934542D01*
X281869575Y-109944515D02*
X281904480Y-107944819D01*
X281709047Y-108227166D01*
X281515275Y-108414289D01*
X281323166Y-108506188D01*
G04 #@! TO.C,R4*
D13*
X275383333Y-48566666D02*
X275150000Y-48233333D01*
X274983333Y-48566666D02*
X274983333Y-47866666D01*
X275250000Y-47866666D01*
X275316666Y-47900000D01*
X275350000Y-47933333D01*
X275383333Y-48000000D01*
X275383333Y-48100000D01*
X275350000Y-48166666D01*
X275316666Y-48200000D01*
X275250000Y-48233333D01*
X274983333Y-48233333D01*
X275983333Y-48100000D02*
X275983333Y-48566666D01*
X275816666Y-47833333D02*
X275650000Y-48333333D01*
X276083333Y-48333333D01*
G04 #@! TO.C,D4*
X319483333Y-121316666D02*
X319483333Y-120616666D01*
X319650000Y-120616666D01*
X319750000Y-120650000D01*
X319816666Y-120716666D01*
X319850000Y-120783333D01*
X319883333Y-120916666D01*
X319883333Y-121016666D01*
X319850000Y-121150000D01*
X319816666Y-121216666D01*
X319750000Y-121283333D01*
X319650000Y-121316666D01*
X319483333Y-121316666D01*
X320483333Y-120850000D02*
X320483333Y-121316666D01*
X320316666Y-120583333D02*
X320150000Y-121083333D01*
X320583333Y-121083333D01*
G04 #@! TO.C,R9*
X275383333Y-89566666D02*
X275150000Y-89233333D01*
X274983333Y-89566666D02*
X274983333Y-88866666D01*
X275250000Y-88866666D01*
X275316666Y-88900000D01*
X275350000Y-88933333D01*
X275383333Y-89000000D01*
X275383333Y-89100000D01*
X275350000Y-89166666D01*
X275316666Y-89200000D01*
X275250000Y-89233333D01*
X274983333Y-89233333D01*
X275716666Y-89566666D02*
X275850000Y-89566666D01*
X275916666Y-89533333D01*
X275950000Y-89500000D01*
X276016666Y-89400000D01*
X276050000Y-89266666D01*
X276050000Y-89000000D01*
X276016666Y-88933333D01*
X275983333Y-88900000D01*
X275916666Y-88866666D01*
X275783333Y-88866666D01*
X275716666Y-88900000D01*
X275683333Y-88933333D01*
X275650000Y-89000000D01*
X275650000Y-89166666D01*
X275683333Y-89233333D01*
X275716666Y-89266666D01*
X275783333Y-89300000D01*
X275916666Y-89300000D01*
X275983333Y-89266666D01*
X276016666Y-89233333D01*
X276050000Y-89166666D01*
G04 #@! TO.C,X26*
D15*
X292957142Y-62342857D02*
X293757142Y-63542857D01*
X293757142Y-62342857D02*
X292957142Y-63542857D01*
X294157142Y-62457142D02*
X294214285Y-62400000D01*
X294328571Y-62342857D01*
X294614285Y-62342857D01*
X294728571Y-62400000D01*
X294785714Y-62457142D01*
X294842857Y-62571428D01*
X294842857Y-62685714D01*
X294785714Y-62857142D01*
X294100000Y-63542857D01*
X294842857Y-63542857D01*
X295871428Y-62342857D02*
X295642857Y-62342857D01*
X295528571Y-62400000D01*
X295471428Y-62457142D01*
X295357142Y-62628571D01*
X295300000Y-62857142D01*
X295300000Y-63314285D01*
X295357142Y-63428571D01*
X295414285Y-63485714D01*
X295528571Y-63542857D01*
X295757142Y-63542857D01*
X295871428Y-63485714D01*
X295928571Y-63428571D01*
X295985714Y-63314285D01*
X295985714Y-63028571D01*
X295928571Y-62914285D01*
X295871428Y-62857142D01*
X295757142Y-62800000D01*
X295528571Y-62800000D01*
X295414285Y-62857142D01*
X295357142Y-62914285D01*
X295300000Y-63028571D01*
G04 #@! TO.C,D3*
D13*
X274083333Y-96566666D02*
X274083333Y-95866666D01*
X274250000Y-95866666D01*
X274350000Y-95900000D01*
X274416666Y-95966666D01*
X274450000Y-96033333D01*
X274483333Y-96166666D01*
X274483333Y-96266666D01*
X274450000Y-96400000D01*
X274416666Y-96466666D01*
X274350000Y-96533333D01*
X274250000Y-96566666D01*
X274083333Y-96566666D01*
X274716666Y-95866666D02*
X275150000Y-95866666D01*
X274916666Y-96133333D01*
X275016666Y-96133333D01*
X275083333Y-96166666D01*
X275116666Y-96200000D01*
X275150000Y-96266666D01*
X275150000Y-96433333D01*
X275116666Y-96500000D01*
X275083333Y-96533333D01*
X275016666Y-96566666D01*
X274816666Y-96566666D01*
X274750000Y-96533333D01*
X274716666Y-96500000D01*
G04 #@! TO.C,X4*
D11*
X276178571Y-83214285D02*
X277678571Y-82214285D01*
X276178571Y-82214285D02*
X277678571Y-83214285D01*
X276678571Y-81000000D02*
X277678571Y-81000000D01*
X276107142Y-81357142D02*
X277178571Y-81714285D01*
X277178571Y-80785714D01*
G04 #@! TO.C,R2*
D13*
X270433333Y-48466666D02*
X270200000Y-48133333D01*
X270033333Y-48466666D02*
X270033333Y-47766666D01*
X270300000Y-47766666D01*
X270366666Y-47800000D01*
X270400000Y-47833333D01*
X270433333Y-47900000D01*
X270433333Y-48000000D01*
X270400000Y-48066666D01*
X270366666Y-48100000D01*
X270300000Y-48133333D01*
X270033333Y-48133333D01*
X270700000Y-47833333D02*
X270733333Y-47800000D01*
X270800000Y-47766666D01*
X270966666Y-47766666D01*
X271033333Y-47800000D01*
X271066666Y-47833333D01*
X271100000Y-47900000D01*
X271100000Y-47966666D01*
X271066666Y-48066666D01*
X270666666Y-48466666D01*
X271100000Y-48466666D01*
G04 #@! TO.C,X12*
D15*
X292957142Y-103342857D02*
X293757142Y-104542857D01*
X293757142Y-103342857D02*
X292957142Y-104542857D01*
X294842857Y-104542857D02*
X294157142Y-104542857D01*
X294500000Y-104542857D02*
X294500000Y-103342857D01*
X294385714Y-103514285D01*
X294271428Y-103628571D01*
X294157142Y-103685714D01*
X295300000Y-103457142D02*
X295357142Y-103400000D01*
X295471428Y-103342857D01*
X295757142Y-103342857D01*
X295871428Y-103400000D01*
X295928571Y-103457142D01*
X295985714Y-103571428D01*
X295985714Y-103685714D01*
X295928571Y-103857142D01*
X295242857Y-104542857D01*
X295985714Y-104542857D01*
G04 #@! TO.C,R7*
D13*
X270433333Y-89466666D02*
X270200000Y-89133333D01*
X270033333Y-89466666D02*
X270033333Y-88766666D01*
X270300000Y-88766666D01*
X270366666Y-88800000D01*
X270400000Y-88833333D01*
X270433333Y-88900000D01*
X270433333Y-89000000D01*
X270400000Y-89066666D01*
X270366666Y-89100000D01*
X270300000Y-89133333D01*
X270033333Y-89133333D01*
X270666666Y-88766666D02*
X271133333Y-88766666D01*
X270833333Y-89466666D01*
G04 #@! TO.C,X5*
D11*
X315178571Y-54214285D02*
X316678571Y-53214285D01*
X315178571Y-53214285D02*
X316678571Y-54214285D01*
X315178571Y-51928571D02*
X315178571Y-52642857D01*
X315892857Y-52714285D01*
X315821428Y-52642857D01*
X315750000Y-52500000D01*
X315750000Y-52142857D01*
X315821428Y-52000000D01*
X315892857Y-51928571D01*
X316035714Y-51857142D01*
X316392857Y-51857142D01*
X316535714Y-51928571D01*
X316607142Y-52000000D01*
X316678571Y-52142857D01*
X316678571Y-52500000D01*
X316607142Y-52642857D01*
X316535714Y-52714285D01*
G04 #@! TO.C,R6*
D13*
X319883333Y-128316666D02*
X319650000Y-127983333D01*
X319483333Y-128316666D02*
X319483333Y-127616666D01*
X319750000Y-127616666D01*
X319816666Y-127650000D01*
X319850000Y-127683333D01*
X319883333Y-127750000D01*
X319883333Y-127850000D01*
X319850000Y-127916666D01*
X319816666Y-127950000D01*
X319750000Y-127983333D01*
X319483333Y-127983333D01*
X320483333Y-127616666D02*
X320350000Y-127616666D01*
X320283333Y-127650000D01*
X320250000Y-127683333D01*
X320183333Y-127783333D01*
X320150000Y-127916666D01*
X320150000Y-128183333D01*
X320183333Y-128250000D01*
X320216666Y-128283333D01*
X320283333Y-128316666D01*
X320416666Y-128316666D01*
X320483333Y-128283333D01*
X320516666Y-128250000D01*
X320550000Y-128183333D01*
X320550000Y-128016666D01*
X320516666Y-127950000D01*
X320483333Y-127916666D01*
X320416666Y-127883333D01*
X320283333Y-127883333D01*
X320216666Y-127916666D01*
X320183333Y-127950000D01*
X320150000Y-128016666D01*
G04 #@! TO.C,X2*
D11*
X315178571Y-95214285D02*
X316678571Y-94214285D01*
X315178571Y-94214285D02*
X316678571Y-95214285D01*
X315321428Y-93714285D02*
X315250000Y-93642857D01*
X315178571Y-93500000D01*
X315178571Y-93142857D01*
X315250000Y-93000000D01*
X315321428Y-92928571D01*
X315464285Y-92857142D01*
X315607142Y-92857142D01*
X315821428Y-92928571D01*
X316678571Y-93785714D01*
X316678571Y-92857142D01*
G04 #@! TO.C,X1*
X276178571Y-124214285D02*
X277678571Y-123214285D01*
X276178571Y-123214285D02*
X277678571Y-124214285D01*
X277678571Y-121857142D02*
X277678571Y-122714285D01*
X277678571Y-122285714D02*
X276178571Y-122285714D01*
X276392857Y-122428571D01*
X276535714Y-122571428D01*
X276607142Y-122714285D01*
G04 #@! TO.C,D4*
D13*
X257483333Y-121316666D02*
X257483333Y-120616666D01*
X257650000Y-120616666D01*
X257750000Y-120650000D01*
X257816666Y-120716666D01*
X257850000Y-120783333D01*
X257883333Y-120916666D01*
X257883333Y-121016666D01*
X257850000Y-121150000D01*
X257816666Y-121216666D01*
X257750000Y-121283333D01*
X257650000Y-121316666D01*
X257483333Y-121316666D01*
X258483333Y-120850000D02*
X258483333Y-121316666D01*
X258316666Y-120583333D02*
X258150000Y-121083333D01*
X258583333Y-121083333D01*
G04 #@! TO.C,X26*
D15*
X230957142Y-62342857D02*
X231757142Y-63542857D01*
X231757142Y-62342857D02*
X230957142Y-63542857D01*
X232157142Y-62457142D02*
X232214285Y-62400000D01*
X232328571Y-62342857D01*
X232614285Y-62342857D01*
X232728571Y-62400000D01*
X232785714Y-62457142D01*
X232842857Y-62571428D01*
X232842857Y-62685714D01*
X232785714Y-62857142D01*
X232100000Y-63542857D01*
X232842857Y-63542857D01*
X233871428Y-62342857D02*
X233642857Y-62342857D01*
X233528571Y-62400000D01*
X233471428Y-62457142D01*
X233357142Y-62628571D01*
X233300000Y-62857142D01*
X233300000Y-63314285D01*
X233357142Y-63428571D01*
X233414285Y-63485714D01*
X233528571Y-63542857D01*
X233757142Y-63542857D01*
X233871428Y-63485714D01*
X233928571Y-63428571D01*
X233985714Y-63314285D01*
X233985714Y-63028571D01*
X233928571Y-62914285D01*
X233871428Y-62857142D01*
X233757142Y-62800000D01*
X233528571Y-62800000D01*
X233414285Y-62857142D01*
X233357142Y-62914285D01*
X233300000Y-63028571D01*
G04 #@! TO.C,V1.1*
D16*
X214571959Y-107851740D02*
X215203619Y-109863070D01*
X215905089Y-107875010D01*
X217584209Y-109904624D02*
X216441526Y-109884678D01*
X217012868Y-109894651D02*
X217047773Y-107894955D01*
X216852339Y-108177302D01*
X216658567Y-108364425D01*
X216466458Y-108456324D01*
X218444546Y-109729136D02*
X218538107Y-109826021D01*
X218441222Y-109919583D01*
X218347660Y-109822697D01*
X218444546Y-109729136D01*
X218441222Y-109919583D01*
X220440917Y-109954488D02*
X219298234Y-109934542D01*
X219869575Y-109944515D02*
X219904480Y-107944819D01*
X219709047Y-108227166D01*
X219515275Y-108414289D01*
X219323166Y-108506188D01*
G04 #@! TO.C,V2.1*
X214371959Y-66651740D02*
X215003619Y-68663070D01*
X215705089Y-66675010D01*
X216273107Y-66875430D02*
X216369992Y-66781868D01*
X216562102Y-66689969D01*
X217038220Y-66698280D01*
X217227005Y-66796828D01*
X217320566Y-66893713D01*
X217412466Y-67085823D01*
X217409141Y-67276270D01*
X217308931Y-67560278D01*
X216146303Y-68683016D01*
X217384209Y-68704624D01*
X218244546Y-68529136D02*
X218338107Y-68626021D01*
X218241222Y-68719583D01*
X218147660Y-68622697D01*
X218244546Y-68529136D01*
X218241222Y-68719583D01*
X220240917Y-68754488D02*
X219098234Y-68734542D01*
X219669575Y-68744515D02*
X219704480Y-66744819D01*
X219509047Y-67027166D01*
X219315275Y-67214289D01*
X219123166Y-67306188D01*
G04 #@! TO.C,X7*
D15*
X262028571Y-112342857D02*
X262828571Y-113542857D01*
X262828571Y-112342857D02*
X262028571Y-113542857D01*
X263171428Y-112342857D02*
X263971428Y-112342857D01*
X263457142Y-113542857D01*
G04 #@! TO.C,X17*
X205457142Y-62342857D02*
X206257142Y-63542857D01*
X206257142Y-62342857D02*
X205457142Y-63542857D01*
X207342857Y-63542857D02*
X206657142Y-63542857D01*
X207000000Y-63542857D02*
X207000000Y-62342857D01*
X206885714Y-62514285D01*
X206771428Y-62628571D01*
X206657142Y-62685714D01*
X207742857Y-62342857D02*
X208542857Y-62342857D01*
X208028571Y-63542857D01*
G04 #@! TO.C,V1.2*
D16*
X251052381Y-107004761D02*
X251719048Y-109004761D01*
X252385715Y-107004761D01*
X254100001Y-109004761D02*
X252957143Y-109004761D01*
X253528572Y-109004761D02*
X253528572Y-107004761D01*
X253338096Y-107290476D01*
X253147620Y-107480952D01*
X252957143Y-107576190D01*
X254957143Y-108814285D02*
X255052381Y-108909523D01*
X254957143Y-109004761D01*
X254861905Y-108909523D01*
X254957143Y-108814285D01*
X254957143Y-109004761D01*
X255814286Y-107195238D02*
X255909524Y-107100000D01*
X256100001Y-107004761D01*
X256576191Y-107004761D01*
X256766667Y-107100000D01*
X256861905Y-107195238D01*
X256957143Y-107385714D01*
X256957143Y-107576190D01*
X256861905Y-107861904D01*
X255719048Y-109004761D01*
X256957143Y-109004761D01*
G04 #@! TO.C,D2*
D13*
X257483333Y-80316666D02*
X257483333Y-79616666D01*
X257650000Y-79616666D01*
X257750000Y-79650000D01*
X257816666Y-79716666D01*
X257850000Y-79783333D01*
X257883333Y-79916666D01*
X257883333Y-80016666D01*
X257850000Y-80150000D01*
X257816666Y-80216666D01*
X257750000Y-80283333D01*
X257650000Y-80316666D01*
X257483333Y-80316666D01*
X258150000Y-79683333D02*
X258183333Y-79650000D01*
X258250000Y-79616666D01*
X258416666Y-79616666D01*
X258483333Y-79650000D01*
X258516666Y-79683333D01*
X258550000Y-79750000D01*
X258550000Y-79816666D01*
X258516666Y-79916666D01*
X258116666Y-80316666D01*
X258550000Y-80316666D01*
G04 #@! TO.C,V2.2*
D16*
X250852380Y-66204761D02*
X251519047Y-68204761D01*
X252185714Y-66204761D01*
X252757142Y-66395238D02*
X252852380Y-66300000D01*
X253042857Y-66204761D01*
X253519047Y-66204761D01*
X253709523Y-66300000D01*
X253804761Y-66395238D01*
X253900000Y-66585714D01*
X253900000Y-66776190D01*
X253804761Y-67061904D01*
X252661904Y-68204761D01*
X253900000Y-68204761D01*
X254757142Y-68014285D02*
X254852380Y-68109523D01*
X254757142Y-68204761D01*
X254661904Y-68109523D01*
X254757142Y-68014285D01*
X254757142Y-68204761D01*
X255614285Y-66395238D02*
X255709523Y-66300000D01*
X255900000Y-66204761D01*
X256376190Y-66204761D01*
X256566666Y-66300000D01*
X256661904Y-66395238D01*
X256757142Y-66585714D01*
X256757142Y-66776190D01*
X256661904Y-67061904D01*
X255519047Y-68204761D01*
X256757142Y-68204761D01*
G04 #@! TO.C,X3*
D15*
X236490476Y-123152380D02*
X237157142Y-124152380D01*
X237157142Y-123152380D02*
X236490476Y-124152380D01*
X237442857Y-123152380D02*
X238061904Y-123152380D01*
X237728571Y-123533333D01*
X237871428Y-123533333D01*
X237966666Y-123580952D01*
X238014285Y-123628571D01*
X238061904Y-123723809D01*
X238061904Y-123961904D01*
X238014285Y-124057142D01*
X237966666Y-124104761D01*
X237871428Y-124152380D01*
X237585714Y-124152380D01*
X237490476Y-124104761D01*
X237442857Y-124057142D01*
G04 #@! TO.C,X14*
X261457142Y-71342857D02*
X262257142Y-72542857D01*
X262257142Y-71342857D02*
X261457142Y-72542857D01*
X263342857Y-72542857D02*
X262657142Y-72542857D01*
X263000000Y-72542857D02*
X263000000Y-71342857D01*
X262885714Y-71514285D01*
X262771428Y-71628571D01*
X262657142Y-71685714D01*
X264371428Y-71742857D02*
X264371428Y-72542857D01*
X264085714Y-71285714D02*
X263800000Y-72142857D01*
X264542857Y-72142857D01*
G04 #@! TO.C,X9*
X268028571Y-103342857D02*
X268828571Y-104542857D01*
X268828571Y-103342857D02*
X268028571Y-104542857D01*
X269342857Y-104542857D02*
X269571428Y-104542857D01*
X269685714Y-104485714D01*
X269742857Y-104428571D01*
X269857142Y-104257142D01*
X269914285Y-104028571D01*
X269914285Y-103571428D01*
X269857142Y-103457142D01*
X269800000Y-103400000D01*
X269685714Y-103342857D01*
X269457142Y-103342857D01*
X269342857Y-103400000D01*
X269285714Y-103457142D01*
X269228571Y-103571428D01*
X269228571Y-103857142D01*
X269285714Y-103971428D01*
X269342857Y-104028571D01*
X269457142Y-104085714D01*
X269685714Y-104085714D01*
X269800000Y-104028571D01*
X269857142Y-103971428D01*
X269914285Y-103857142D01*
G04 #@! TO.C,X6*
D11*
X298528571Y-81942857D02*
X299328571Y-83142857D01*
X299328571Y-81942857D02*
X298528571Y-83142857D01*
X300300000Y-81942857D02*
X300071428Y-81942857D01*
X299957142Y-82000000D01*
X299900000Y-82057142D01*
X299785714Y-82228571D01*
X299728571Y-82457142D01*
X299728571Y-82914285D01*
X299785714Y-83028571D01*
X299842857Y-83085714D01*
X299957142Y-83142857D01*
X300185714Y-83142857D01*
X300300000Y-83085714D01*
X300357142Y-83028571D01*
X300414285Y-82914285D01*
X300414285Y-82628571D01*
X300357142Y-82514285D01*
X300300000Y-82457142D01*
X300185714Y-82400000D01*
X299957142Y-82400000D01*
X299842857Y-82457142D01*
X299785714Y-82514285D01*
X299728571Y-82628571D01*
G04 #@! TO.C,R8*
D13*
X324333333Y-128166666D02*
X324100000Y-127833333D01*
X323933333Y-128166666D02*
X323933333Y-127466666D01*
X324200000Y-127466666D01*
X324266666Y-127500000D01*
X324300000Y-127533333D01*
X324333333Y-127600000D01*
X324333333Y-127700000D01*
X324300000Y-127766666D01*
X324266666Y-127800000D01*
X324200000Y-127833333D01*
X323933333Y-127833333D01*
X324733333Y-127766666D02*
X324666666Y-127733333D01*
X324633333Y-127700000D01*
X324600000Y-127633333D01*
X324600000Y-127600000D01*
X324633333Y-127533333D01*
X324666666Y-127500000D01*
X324733333Y-127466666D01*
X324866666Y-127466666D01*
X324933333Y-127500000D01*
X324966666Y-127533333D01*
X325000000Y-127600000D01*
X325000000Y-127633333D01*
X324966666Y-127700000D01*
X324933333Y-127733333D01*
X324866666Y-127766666D01*
X324733333Y-127766666D01*
X324666666Y-127800000D01*
X324633333Y-127833333D01*
X324600000Y-127900000D01*
X324600000Y-128033333D01*
X324633333Y-128100000D01*
X324666666Y-128133333D01*
X324733333Y-128166666D01*
X324866666Y-128166666D01*
X324933333Y-128133333D01*
X324966666Y-128100000D01*
X325000000Y-128033333D01*
X325000000Y-127900000D01*
X324966666Y-127833333D01*
X324933333Y-127800000D01*
X324866666Y-127766666D01*
G04 #@! TO.C,R1*
X319883333Y-87316666D02*
X319650000Y-86983333D01*
X319483333Y-87316666D02*
X319483333Y-86616666D01*
X319750000Y-86616666D01*
X319816666Y-86650000D01*
X319850000Y-86683333D01*
X319883333Y-86750000D01*
X319883333Y-86850000D01*
X319850000Y-86916666D01*
X319816666Y-86950000D01*
X319750000Y-86983333D01*
X319483333Y-86983333D01*
X320550000Y-87316666D02*
X320150000Y-87316666D01*
X320350000Y-87316666D02*
X320350000Y-86616666D01*
X320283333Y-86716666D01*
X320216666Y-86783333D01*
X320150000Y-86816666D01*
G04 #@! TO.C,R3*
X324333333Y-87166666D02*
X324100000Y-86833333D01*
X323933333Y-87166666D02*
X323933333Y-86466666D01*
X324200000Y-86466666D01*
X324266666Y-86500000D01*
X324300000Y-86533333D01*
X324333333Y-86600000D01*
X324333333Y-86700000D01*
X324300000Y-86766666D01*
X324266666Y-86800000D01*
X324200000Y-86833333D01*
X323933333Y-86833333D01*
X324566666Y-86466666D02*
X325000000Y-86466666D01*
X324766666Y-86733333D01*
X324866666Y-86733333D01*
X324933333Y-86766666D01*
X324966666Y-86800000D01*
X325000000Y-86866666D01*
X325000000Y-87033333D01*
X324966666Y-87100000D01*
X324933333Y-87133333D01*
X324866666Y-87166666D01*
X324666666Y-87166666D01*
X324600000Y-87133333D01*
X324566666Y-87100000D01*
G04 #@! TO.C,D1*
X274083333Y-55566666D02*
X274083333Y-54866666D01*
X274250000Y-54866666D01*
X274350000Y-54900000D01*
X274416666Y-54966666D01*
X274450000Y-55033333D01*
X274483333Y-55166666D01*
X274483333Y-55266666D01*
X274450000Y-55400000D01*
X274416666Y-55466666D01*
X274350000Y-55533333D01*
X274250000Y-55566666D01*
X274083333Y-55566666D01*
X275150000Y-55566666D02*
X274750000Y-55566666D01*
X274950000Y-55566666D02*
X274950000Y-54866666D01*
X274883333Y-54966666D01*
X274816666Y-55033333D01*
X274750000Y-55066666D01*
G04 #@! TO.C,X6*
D11*
X174528571Y-81942857D02*
X175328571Y-83142857D01*
X175328571Y-81942857D02*
X174528571Y-83142857D01*
X176300000Y-81942857D02*
X176071428Y-81942857D01*
X175957142Y-82000000D01*
X175900000Y-82057142D01*
X175785714Y-82228571D01*
X175728571Y-82457142D01*
X175728571Y-82914285D01*
X175785714Y-83028571D01*
X175842857Y-83085714D01*
X175957142Y-83142857D01*
X176185714Y-83142857D01*
X176300000Y-83085714D01*
X176357142Y-83028571D01*
X176414285Y-82914285D01*
X176414285Y-82628571D01*
X176357142Y-82514285D01*
X176300000Y-82457142D01*
X176185714Y-82400000D01*
X175957142Y-82400000D01*
X175842857Y-82457142D01*
X175785714Y-82514285D01*
X175728571Y-82628571D01*
G04 #@! TO.C,R1*
D13*
X195883333Y-87316666D02*
X195650000Y-86983333D01*
X195483333Y-87316666D02*
X195483333Y-86616666D01*
X195750000Y-86616666D01*
X195816666Y-86650000D01*
X195850000Y-86683333D01*
X195883333Y-86750000D01*
X195883333Y-86850000D01*
X195850000Y-86916666D01*
X195816666Y-86950000D01*
X195750000Y-86983333D01*
X195483333Y-86983333D01*
X196550000Y-87316666D02*
X196150000Y-87316666D01*
X196350000Y-87316666D02*
X196350000Y-86616666D01*
X196283333Y-86716666D01*
X196216666Y-86783333D01*
X196150000Y-86816666D01*
G04 #@! TO.C,R8*
X200333333Y-128166666D02*
X200100000Y-127833333D01*
X199933333Y-128166666D02*
X199933333Y-127466666D01*
X200200000Y-127466666D01*
X200266666Y-127500000D01*
X200300000Y-127533333D01*
X200333333Y-127600000D01*
X200333333Y-127700000D01*
X200300000Y-127766666D01*
X200266666Y-127800000D01*
X200200000Y-127833333D01*
X199933333Y-127833333D01*
X200733333Y-127766666D02*
X200666666Y-127733333D01*
X200633333Y-127700000D01*
X200600000Y-127633333D01*
X200600000Y-127600000D01*
X200633333Y-127533333D01*
X200666666Y-127500000D01*
X200733333Y-127466666D01*
X200866666Y-127466666D01*
X200933333Y-127500000D01*
X200966666Y-127533333D01*
X201000000Y-127600000D01*
X201000000Y-127633333D01*
X200966666Y-127700000D01*
X200933333Y-127733333D01*
X200866666Y-127766666D01*
X200733333Y-127766666D01*
X200666666Y-127800000D01*
X200633333Y-127833333D01*
X200600000Y-127900000D01*
X200600000Y-128033333D01*
X200633333Y-128100000D01*
X200666666Y-128133333D01*
X200733333Y-128166666D01*
X200866666Y-128166666D01*
X200933333Y-128133333D01*
X200966666Y-128100000D01*
X201000000Y-128033333D01*
X201000000Y-127900000D01*
X200966666Y-127833333D01*
X200933333Y-127800000D01*
X200866666Y-127766666D01*
G04 #@! TO.C,D1*
X150083333Y-55566666D02*
X150083333Y-54866666D01*
X150250000Y-54866666D01*
X150350000Y-54900000D01*
X150416666Y-54966666D01*
X150450000Y-55033333D01*
X150483333Y-55166666D01*
X150483333Y-55266666D01*
X150450000Y-55400000D01*
X150416666Y-55466666D01*
X150350000Y-55533333D01*
X150250000Y-55566666D01*
X150083333Y-55566666D01*
X151150000Y-55566666D02*
X150750000Y-55566666D01*
X150950000Y-55566666D02*
X150950000Y-54866666D01*
X150883333Y-54966666D01*
X150816666Y-55033333D01*
X150750000Y-55066666D01*
G04 #@! TO.C,X9*
D15*
X144028571Y-103342857D02*
X144828571Y-104542857D01*
X144828571Y-103342857D02*
X144028571Y-104542857D01*
X145342857Y-104542857D02*
X145571428Y-104542857D01*
X145685714Y-104485714D01*
X145742857Y-104428571D01*
X145857142Y-104257142D01*
X145914285Y-104028571D01*
X145914285Y-103571428D01*
X145857142Y-103457142D01*
X145800000Y-103400000D01*
X145685714Y-103342857D01*
X145457142Y-103342857D01*
X145342857Y-103400000D01*
X145285714Y-103457142D01*
X145228571Y-103571428D01*
X145228571Y-103857142D01*
X145285714Y-103971428D01*
X145342857Y-104028571D01*
X145457142Y-104085714D01*
X145685714Y-104085714D01*
X145800000Y-104028571D01*
X145857142Y-103971428D01*
X145914285Y-103857142D01*
G04 #@! TO.C,R3*
D13*
X200333333Y-87166666D02*
X200100000Y-86833333D01*
X199933333Y-87166666D02*
X199933333Y-86466666D01*
X200200000Y-86466666D01*
X200266666Y-86500000D01*
X200300000Y-86533333D01*
X200333333Y-86600000D01*
X200333333Y-86700000D01*
X200300000Y-86766666D01*
X200266666Y-86800000D01*
X200200000Y-86833333D01*
X199933333Y-86833333D01*
X200566666Y-86466666D02*
X201000000Y-86466666D01*
X200766666Y-86733333D01*
X200866666Y-86733333D01*
X200933333Y-86766666D01*
X200966666Y-86800000D01*
X201000000Y-86866666D01*
X201000000Y-87033333D01*
X200966666Y-87100000D01*
X200933333Y-87133333D01*
X200866666Y-87166666D01*
X200666666Y-87166666D01*
X200600000Y-87133333D01*
X200566666Y-87100000D01*
G04 #@! TO.C,D3*
X150083333Y-96566666D02*
X150083333Y-95866666D01*
X150250000Y-95866666D01*
X150350000Y-95900000D01*
X150416666Y-95966666D01*
X150450000Y-96033333D01*
X150483333Y-96166666D01*
X150483333Y-96266666D01*
X150450000Y-96400000D01*
X150416666Y-96466666D01*
X150350000Y-96533333D01*
X150250000Y-96566666D01*
X150083333Y-96566666D01*
X150716666Y-95866666D02*
X151150000Y-95866666D01*
X150916666Y-96133333D01*
X151016666Y-96133333D01*
X151083333Y-96166666D01*
X151116666Y-96200000D01*
X151150000Y-96266666D01*
X151150000Y-96433333D01*
X151116666Y-96500000D01*
X151083333Y-96533333D01*
X151016666Y-96566666D01*
X150816666Y-96566666D01*
X150750000Y-96533333D01*
X150716666Y-96500000D01*
G04 #@! TO.C,X4*
D11*
X152178571Y-83214285D02*
X153678571Y-82214285D01*
X152178571Y-82214285D02*
X153678571Y-83214285D01*
X152678571Y-81000000D02*
X153678571Y-81000000D01*
X152107142Y-81357142D02*
X153178571Y-81714285D01*
X153178571Y-80785714D01*
G04 #@! TO.C,R4*
D13*
X151383333Y-48566666D02*
X151150000Y-48233333D01*
X150983333Y-48566666D02*
X150983333Y-47866666D01*
X151250000Y-47866666D01*
X151316666Y-47900000D01*
X151350000Y-47933333D01*
X151383333Y-48000000D01*
X151383333Y-48100000D01*
X151350000Y-48166666D01*
X151316666Y-48200000D01*
X151250000Y-48233333D01*
X150983333Y-48233333D01*
X151983333Y-48100000D02*
X151983333Y-48566666D01*
X151816666Y-47833333D02*
X151650000Y-48333333D01*
X152083333Y-48333333D01*
G04 #@! TO.C,R9*
X151383333Y-89566666D02*
X151150000Y-89233333D01*
X150983333Y-89566666D02*
X150983333Y-88866666D01*
X151250000Y-88866666D01*
X151316666Y-88900000D01*
X151350000Y-88933333D01*
X151383333Y-89000000D01*
X151383333Y-89100000D01*
X151350000Y-89166666D01*
X151316666Y-89200000D01*
X151250000Y-89233333D01*
X150983333Y-89233333D01*
X151716666Y-89566666D02*
X151850000Y-89566666D01*
X151916666Y-89533333D01*
X151950000Y-89500000D01*
X152016666Y-89400000D01*
X152050000Y-89266666D01*
X152050000Y-89000000D01*
X152016666Y-88933333D01*
X151983333Y-88900000D01*
X151916666Y-88866666D01*
X151783333Y-88866666D01*
X151716666Y-88900000D01*
X151683333Y-88933333D01*
X151650000Y-89000000D01*
X151650000Y-89166666D01*
X151683333Y-89233333D01*
X151716666Y-89266666D01*
X151783333Y-89300000D01*
X151916666Y-89300000D01*
X151983333Y-89266666D01*
X152016666Y-89233333D01*
X152050000Y-89166666D01*
G04 #@! TO.C,X5*
D11*
X191178571Y-54214285D02*
X192678571Y-53214285D01*
X191178571Y-53214285D02*
X192678571Y-54214285D01*
X191178571Y-51928571D02*
X191178571Y-52642857D01*
X191892857Y-52714285D01*
X191821428Y-52642857D01*
X191750000Y-52500000D01*
X191750000Y-52142857D01*
X191821428Y-52000000D01*
X191892857Y-51928571D01*
X192035714Y-51857142D01*
X192392857Y-51857142D01*
X192535714Y-51928571D01*
X192607142Y-52000000D01*
X192678571Y-52142857D01*
X192678571Y-52500000D01*
X192607142Y-52642857D01*
X192535714Y-52714285D01*
G04 #@! TO.C,R2*
D13*
X146433333Y-48466666D02*
X146200000Y-48133333D01*
X146033333Y-48466666D02*
X146033333Y-47766666D01*
X146300000Y-47766666D01*
X146366666Y-47800000D01*
X146400000Y-47833333D01*
X146433333Y-47900000D01*
X146433333Y-48000000D01*
X146400000Y-48066666D01*
X146366666Y-48100000D01*
X146300000Y-48133333D01*
X146033333Y-48133333D01*
X146700000Y-47833333D02*
X146733333Y-47800000D01*
X146800000Y-47766666D01*
X146966666Y-47766666D01*
X147033333Y-47800000D01*
X147066666Y-47833333D01*
X147100000Y-47900000D01*
X147100000Y-47966666D01*
X147066666Y-48066666D01*
X146666666Y-48466666D01*
X147100000Y-48466666D01*
G04 #@! TO.C,X2*
D11*
X191178571Y-95214285D02*
X192678571Y-94214285D01*
X191178571Y-94214285D02*
X192678571Y-95214285D01*
X191321428Y-93714285D02*
X191250000Y-93642857D01*
X191178571Y-93500000D01*
X191178571Y-93142857D01*
X191250000Y-93000000D01*
X191321428Y-92928571D01*
X191464285Y-92857142D01*
X191607142Y-92857142D01*
X191821428Y-92928571D01*
X192678571Y-93785714D01*
X192678571Y-92857142D01*
G04 #@! TO.C,X1*
X152178571Y-124214285D02*
X153678571Y-123214285D01*
X152178571Y-123214285D02*
X153678571Y-124214285D01*
X153678571Y-121857142D02*
X153678571Y-122714285D01*
X153678571Y-122285714D02*
X152178571Y-122285714D01*
X152392857Y-122428571D01*
X152535714Y-122571428D01*
X152607142Y-122714285D01*
G04 #@! TO.C,R6*
D13*
X195883333Y-128316666D02*
X195650000Y-127983333D01*
X195483333Y-128316666D02*
X195483333Y-127616666D01*
X195750000Y-127616666D01*
X195816666Y-127650000D01*
X195850000Y-127683333D01*
X195883333Y-127750000D01*
X195883333Y-127850000D01*
X195850000Y-127916666D01*
X195816666Y-127950000D01*
X195750000Y-127983333D01*
X195483333Y-127983333D01*
X196483333Y-127616666D02*
X196350000Y-127616666D01*
X196283333Y-127650000D01*
X196250000Y-127683333D01*
X196183333Y-127783333D01*
X196150000Y-127916666D01*
X196150000Y-128183333D01*
X196183333Y-128250000D01*
X196216666Y-128283333D01*
X196283333Y-128316666D01*
X196416666Y-128316666D01*
X196483333Y-128283333D01*
X196516666Y-128250000D01*
X196550000Y-128183333D01*
X196550000Y-128016666D01*
X196516666Y-127950000D01*
X196483333Y-127916666D01*
X196416666Y-127883333D01*
X196283333Y-127883333D01*
X196216666Y-127916666D01*
X196183333Y-127950000D01*
X196150000Y-128016666D01*
G04 #@! TO.C,X12*
D15*
X168957142Y-103342857D02*
X169757142Y-104542857D01*
X169757142Y-103342857D02*
X168957142Y-104542857D01*
X170842857Y-104542857D02*
X170157142Y-104542857D01*
X170500000Y-104542857D02*
X170500000Y-103342857D01*
X170385714Y-103514285D01*
X170271428Y-103628571D01*
X170157142Y-103685714D01*
X171300000Y-103457142D02*
X171357142Y-103400000D01*
X171471428Y-103342857D01*
X171757142Y-103342857D01*
X171871428Y-103400000D01*
X171928571Y-103457142D01*
X171985714Y-103571428D01*
X171985714Y-103685714D01*
X171928571Y-103857142D01*
X171242857Y-104542857D01*
X171985714Y-104542857D01*
G04 #@! TO.C,R7*
D13*
X146433333Y-89466666D02*
X146200000Y-89133333D01*
X146033333Y-89466666D02*
X146033333Y-88766666D01*
X146300000Y-88766666D01*
X146366666Y-88800000D01*
X146400000Y-88833333D01*
X146433333Y-88900000D01*
X146433333Y-89000000D01*
X146400000Y-89066666D01*
X146366666Y-89100000D01*
X146300000Y-89133333D01*
X146033333Y-89133333D01*
X146666666Y-88766666D02*
X147133333Y-88766666D01*
X146833333Y-89466666D01*
G04 #@! TO.C,D4*
X195483333Y-121316666D02*
X195483333Y-120616666D01*
X195650000Y-120616666D01*
X195750000Y-120650000D01*
X195816666Y-120716666D01*
X195850000Y-120783333D01*
X195883333Y-120916666D01*
X195883333Y-121016666D01*
X195850000Y-121150000D01*
X195816666Y-121216666D01*
X195750000Y-121283333D01*
X195650000Y-121316666D01*
X195483333Y-121316666D01*
X196483333Y-120850000D02*
X196483333Y-121316666D01*
X196316666Y-120583333D02*
X196150000Y-121083333D01*
X196583333Y-121083333D01*
G04 #@! TO.C,X26*
D15*
X168957142Y-62342857D02*
X169757142Y-63542857D01*
X169757142Y-62342857D02*
X168957142Y-63542857D01*
X170157142Y-62457142D02*
X170214285Y-62400000D01*
X170328571Y-62342857D01*
X170614285Y-62342857D01*
X170728571Y-62400000D01*
X170785714Y-62457142D01*
X170842857Y-62571428D01*
X170842857Y-62685714D01*
X170785714Y-62857142D01*
X170100000Y-63542857D01*
X170842857Y-63542857D01*
X171871428Y-62342857D02*
X171642857Y-62342857D01*
X171528571Y-62400000D01*
X171471428Y-62457142D01*
X171357142Y-62628571D01*
X171300000Y-62857142D01*
X171300000Y-63314285D01*
X171357142Y-63428571D01*
X171414285Y-63485714D01*
X171528571Y-63542857D01*
X171757142Y-63542857D01*
X171871428Y-63485714D01*
X171928571Y-63428571D01*
X171985714Y-63314285D01*
X171985714Y-63028571D01*
X171928571Y-62914285D01*
X171871428Y-62857142D01*
X171757142Y-62800000D01*
X171528571Y-62800000D01*
X171414285Y-62857142D01*
X171357142Y-62914285D01*
X171300000Y-63028571D01*
G04 #@! TO.C,V1.1*
D16*
X152571959Y-107851740D02*
X153203619Y-109863070D01*
X153905089Y-107875010D01*
X155584209Y-109904624D02*
X154441526Y-109884678D01*
X155012868Y-109894651D02*
X155047773Y-107894955D01*
X154852339Y-108177302D01*
X154658567Y-108364425D01*
X154466458Y-108456324D01*
X156444546Y-109729136D02*
X156538107Y-109826021D01*
X156441222Y-109919583D01*
X156347660Y-109822697D01*
X156444546Y-109729136D01*
X156441222Y-109919583D01*
X158440917Y-109954488D02*
X157298234Y-109934542D01*
X157869575Y-109944515D02*
X157904480Y-107944819D01*
X157709047Y-108227166D01*
X157515275Y-108414289D01*
X157323166Y-108506188D01*
G04 #@! TO.C,V2.1*
X152371959Y-66651740D02*
X153003619Y-68663070D01*
X153705089Y-66675010D01*
X154273107Y-66875430D02*
X154369992Y-66781868D01*
X154562102Y-66689969D01*
X155038220Y-66698280D01*
X155227005Y-66796828D01*
X155320566Y-66893713D01*
X155412466Y-67085823D01*
X155409141Y-67276270D01*
X155308931Y-67560278D01*
X154146303Y-68683016D01*
X155384209Y-68704624D01*
X156244546Y-68529136D02*
X156338107Y-68626021D01*
X156241222Y-68719583D01*
X156147660Y-68622697D01*
X156244546Y-68529136D01*
X156241222Y-68719583D01*
X158240917Y-68754488D02*
X157098234Y-68734542D01*
X157669575Y-68744515D02*
X157704480Y-66744819D01*
X157509047Y-67027166D01*
X157315275Y-67214289D01*
X157123166Y-67306188D01*
G04 #@! TO.C,X7*
D15*
X200028571Y-112342857D02*
X200828571Y-113542857D01*
X200828571Y-112342857D02*
X200028571Y-113542857D01*
X201171428Y-112342857D02*
X201971428Y-112342857D01*
X201457142Y-113542857D01*
G04 #@! TO.C,X17*
X143457142Y-62342857D02*
X144257142Y-63542857D01*
X144257142Y-62342857D02*
X143457142Y-63542857D01*
X145342857Y-63542857D02*
X144657142Y-63542857D01*
X145000000Y-63542857D02*
X145000000Y-62342857D01*
X144885714Y-62514285D01*
X144771428Y-62628571D01*
X144657142Y-62685714D01*
X145742857Y-62342857D02*
X146542857Y-62342857D01*
X146028571Y-63542857D01*
G04 #@! TO.C,V1.2*
D16*
X189052381Y-107004761D02*
X189719048Y-109004761D01*
X190385715Y-107004761D01*
X192100001Y-109004761D02*
X190957143Y-109004761D01*
X191528572Y-109004761D02*
X191528572Y-107004761D01*
X191338096Y-107290476D01*
X191147620Y-107480952D01*
X190957143Y-107576190D01*
X192957143Y-108814285D02*
X193052381Y-108909523D01*
X192957143Y-109004761D01*
X192861905Y-108909523D01*
X192957143Y-108814285D01*
X192957143Y-109004761D01*
X193814286Y-107195238D02*
X193909524Y-107100000D01*
X194100001Y-107004761D01*
X194576191Y-107004761D01*
X194766667Y-107100000D01*
X194861905Y-107195238D01*
X194957143Y-107385714D01*
X194957143Y-107576190D01*
X194861905Y-107861904D01*
X193719048Y-109004761D01*
X194957143Y-109004761D01*
G04 #@! TO.C,D2*
D13*
X195483333Y-80316666D02*
X195483333Y-79616666D01*
X195650000Y-79616666D01*
X195750000Y-79650000D01*
X195816666Y-79716666D01*
X195850000Y-79783333D01*
X195883333Y-79916666D01*
X195883333Y-80016666D01*
X195850000Y-80150000D01*
X195816666Y-80216666D01*
X195750000Y-80283333D01*
X195650000Y-80316666D01*
X195483333Y-80316666D01*
X196150000Y-79683333D02*
X196183333Y-79650000D01*
X196250000Y-79616666D01*
X196416666Y-79616666D01*
X196483333Y-79650000D01*
X196516666Y-79683333D01*
X196550000Y-79750000D01*
X196550000Y-79816666D01*
X196516666Y-79916666D01*
X196116666Y-80316666D01*
X196550000Y-80316666D01*
G04 #@! TO.C,V2.2*
D16*
X188852380Y-66204761D02*
X189519047Y-68204761D01*
X190185714Y-66204761D01*
X190757142Y-66395238D02*
X190852380Y-66300000D01*
X191042857Y-66204761D01*
X191519047Y-66204761D01*
X191709523Y-66300000D01*
X191804761Y-66395238D01*
X191900000Y-66585714D01*
X191900000Y-66776190D01*
X191804761Y-67061904D01*
X190661904Y-68204761D01*
X191900000Y-68204761D01*
X192757142Y-68014285D02*
X192852380Y-68109523D01*
X192757142Y-68204761D01*
X192661904Y-68109523D01*
X192757142Y-68014285D01*
X192757142Y-68204761D01*
X193614285Y-66395238D02*
X193709523Y-66300000D01*
X193900000Y-66204761D01*
X194376190Y-66204761D01*
X194566666Y-66300000D01*
X194661904Y-66395238D01*
X194757142Y-66585714D01*
X194757142Y-66776190D01*
X194661904Y-67061904D01*
X193519047Y-68204761D01*
X194757142Y-68204761D01*
G04 #@! TO.C,X3*
D15*
X174490476Y-123152380D02*
X175157142Y-124152380D01*
X175157142Y-123152380D02*
X174490476Y-124152380D01*
X175442857Y-123152380D02*
X176061904Y-123152380D01*
X175728571Y-123533333D01*
X175871428Y-123533333D01*
X175966666Y-123580952D01*
X176014285Y-123628571D01*
X176061904Y-123723809D01*
X176061904Y-123961904D01*
X176014285Y-124057142D01*
X175966666Y-124104761D01*
X175871428Y-124152380D01*
X175585714Y-124152380D01*
X175490476Y-124104761D01*
X175442857Y-124057142D01*
G04 #@! TO.C,X14*
X199457142Y-71342857D02*
X200257142Y-72542857D01*
X200257142Y-71342857D02*
X199457142Y-72542857D01*
X201342857Y-72542857D02*
X200657142Y-72542857D01*
X201000000Y-72542857D02*
X201000000Y-71342857D01*
X200885714Y-71514285D01*
X200771428Y-71628571D01*
X200657142Y-71685714D01*
X202371428Y-71742857D02*
X202371428Y-72542857D01*
X202085714Y-71285714D02*
X201800000Y-72142857D01*
X202542857Y-72142857D01*
G04 #@! TO.C,X3*
X112490476Y-123152380D02*
X113157142Y-124152380D01*
X113157142Y-123152380D02*
X112490476Y-124152380D01*
X113442857Y-123152380D02*
X114061904Y-123152380D01*
X113728571Y-123533333D01*
X113871428Y-123533333D01*
X113966666Y-123580952D01*
X114014285Y-123628571D01*
X114061904Y-123723809D01*
X114061904Y-123961904D01*
X114014285Y-124057142D01*
X113966666Y-124104761D01*
X113871428Y-124152380D01*
X113585714Y-124152380D01*
X113490476Y-124104761D01*
X113442857Y-124057142D01*
G04 #@! TO.C,V1.2*
D16*
X127052381Y-107004761D02*
X127719048Y-109004761D01*
X128385715Y-107004761D01*
X130100001Y-109004761D02*
X128957143Y-109004761D01*
X129528572Y-109004761D02*
X129528572Y-107004761D01*
X129338096Y-107290476D01*
X129147620Y-107480952D01*
X128957143Y-107576190D01*
X130957143Y-108814285D02*
X131052381Y-108909523D01*
X130957143Y-109004761D01*
X130861905Y-108909523D01*
X130957143Y-108814285D01*
X130957143Y-109004761D01*
X131814286Y-107195238D02*
X131909524Y-107100000D01*
X132100001Y-107004761D01*
X132576191Y-107004761D01*
X132766667Y-107100000D01*
X132861905Y-107195238D01*
X132957143Y-107385714D01*
X132957143Y-107576190D01*
X132861905Y-107861904D01*
X131719048Y-109004761D01*
X132957143Y-109004761D01*
G04 #@! TO.C,V2.1*
X90371959Y-66651740D02*
X91003619Y-68663070D01*
X91705089Y-66675010D01*
X92273107Y-66875430D02*
X92369992Y-66781868D01*
X92562102Y-66689969D01*
X93038220Y-66698280D01*
X93227005Y-66796828D01*
X93320566Y-66893713D01*
X93412466Y-67085823D01*
X93409141Y-67276270D01*
X93308931Y-67560278D01*
X92146303Y-68683016D01*
X93384209Y-68704624D01*
X94244546Y-68529136D02*
X94338107Y-68626021D01*
X94241222Y-68719583D01*
X94147660Y-68622697D01*
X94244546Y-68529136D01*
X94241222Y-68719583D01*
X96240917Y-68754488D02*
X95098234Y-68734542D01*
X95669575Y-68744515D02*
X95704480Y-66744819D01*
X95509047Y-67027166D01*
X95315275Y-67214289D01*
X95123166Y-67306188D01*
G04 #@! TO.C,V1.1*
X90571959Y-107851740D02*
X91203619Y-109863070D01*
X91905089Y-107875010D01*
X93584209Y-109904624D02*
X92441526Y-109884678D01*
X93012868Y-109894651D02*
X93047773Y-107894955D01*
X92852339Y-108177302D01*
X92658567Y-108364425D01*
X92466458Y-108456324D01*
X94444546Y-109729136D02*
X94538107Y-109826021D01*
X94441222Y-109919583D01*
X94347660Y-109822697D01*
X94444546Y-109729136D01*
X94441222Y-109919583D01*
X96440917Y-109954488D02*
X95298234Y-109934542D01*
X95869575Y-109944515D02*
X95904480Y-107944819D01*
X95709047Y-108227166D01*
X95515275Y-108414289D01*
X95323166Y-108506188D01*
G04 #@! TO.C,V2.2*
X126852380Y-66204761D02*
X127519047Y-68204761D01*
X128185714Y-66204761D01*
X128757142Y-66395238D02*
X128852380Y-66300000D01*
X129042857Y-66204761D01*
X129519047Y-66204761D01*
X129709523Y-66300000D01*
X129804761Y-66395238D01*
X129900000Y-66585714D01*
X129900000Y-66776190D01*
X129804761Y-67061904D01*
X128661904Y-68204761D01*
X129900000Y-68204761D01*
X130757142Y-68014285D02*
X130852380Y-68109523D01*
X130757142Y-68204761D01*
X130661904Y-68109523D01*
X130757142Y-68014285D01*
X130757142Y-68204761D01*
X131614285Y-66395238D02*
X131709523Y-66300000D01*
X131900000Y-66204761D01*
X132376190Y-66204761D01*
X132566666Y-66300000D01*
X132661904Y-66395238D01*
X132757142Y-66585714D01*
X132757142Y-66776190D01*
X132661904Y-67061904D01*
X131519047Y-68204761D01*
X132757142Y-68204761D01*
G04 #@! TO.C,X14*
D15*
X137457142Y-71342857D02*
X138257142Y-72542857D01*
X138257142Y-71342857D02*
X137457142Y-72542857D01*
X139342857Y-72542857D02*
X138657142Y-72542857D01*
X139000000Y-72542857D02*
X139000000Y-71342857D01*
X138885714Y-71514285D01*
X138771428Y-71628571D01*
X138657142Y-71685714D01*
X140371428Y-71742857D02*
X140371428Y-72542857D01*
X140085714Y-71285714D02*
X139800000Y-72142857D01*
X140542857Y-72142857D01*
G04 #@! TO.C,X17*
X81457142Y-62342857D02*
X82257142Y-63542857D01*
X82257142Y-62342857D02*
X81457142Y-63542857D01*
X83342857Y-63542857D02*
X82657142Y-63542857D01*
X83000000Y-63542857D02*
X83000000Y-62342857D01*
X82885714Y-62514285D01*
X82771428Y-62628571D01*
X82657142Y-62685714D01*
X83742857Y-62342857D02*
X84542857Y-62342857D01*
X84028571Y-63542857D01*
G04 #@! TO.C,X26*
X106957142Y-62342857D02*
X107757142Y-63542857D01*
X107757142Y-62342857D02*
X106957142Y-63542857D01*
X108157142Y-62457142D02*
X108214285Y-62400000D01*
X108328571Y-62342857D01*
X108614285Y-62342857D01*
X108728571Y-62400000D01*
X108785714Y-62457142D01*
X108842857Y-62571428D01*
X108842857Y-62685714D01*
X108785714Y-62857142D01*
X108100000Y-63542857D01*
X108842857Y-63542857D01*
X109871428Y-62342857D02*
X109642857Y-62342857D01*
X109528571Y-62400000D01*
X109471428Y-62457142D01*
X109357142Y-62628571D01*
X109300000Y-62857142D01*
X109300000Y-63314285D01*
X109357142Y-63428571D01*
X109414285Y-63485714D01*
X109528571Y-63542857D01*
X109757142Y-63542857D01*
X109871428Y-63485714D01*
X109928571Y-63428571D01*
X109985714Y-63314285D01*
X109985714Y-63028571D01*
X109928571Y-62914285D01*
X109871428Y-62857142D01*
X109757142Y-62800000D01*
X109528571Y-62800000D01*
X109414285Y-62857142D01*
X109357142Y-62914285D01*
X109300000Y-63028571D01*
G04 #@! TO.C,D4*
D13*
X133483333Y-121316666D02*
X133483333Y-120616666D01*
X133650000Y-120616666D01*
X133750000Y-120650000D01*
X133816666Y-120716666D01*
X133850000Y-120783333D01*
X133883333Y-120916666D01*
X133883333Y-121016666D01*
X133850000Y-121150000D01*
X133816666Y-121216666D01*
X133750000Y-121283333D01*
X133650000Y-121316666D01*
X133483333Y-121316666D01*
X134483333Y-120850000D02*
X134483333Y-121316666D01*
X134316666Y-120583333D02*
X134150000Y-121083333D01*
X134583333Y-121083333D01*
G04 #@! TO.C,D2*
X133483333Y-80316666D02*
X133483333Y-79616666D01*
X133650000Y-79616666D01*
X133750000Y-79650000D01*
X133816666Y-79716666D01*
X133850000Y-79783333D01*
X133883333Y-79916666D01*
X133883333Y-80016666D01*
X133850000Y-80150000D01*
X133816666Y-80216666D01*
X133750000Y-80283333D01*
X133650000Y-80316666D01*
X133483333Y-80316666D01*
X134150000Y-79683333D02*
X134183333Y-79650000D01*
X134250000Y-79616666D01*
X134416666Y-79616666D01*
X134483333Y-79650000D01*
X134516666Y-79683333D01*
X134550000Y-79750000D01*
X134550000Y-79816666D01*
X134516666Y-79916666D01*
X134116666Y-80316666D01*
X134550000Y-80316666D01*
G04 #@! TO.C,X7*
D15*
X138028571Y-112342857D02*
X138828571Y-113542857D01*
X138828571Y-112342857D02*
X138028571Y-113542857D01*
X139171428Y-112342857D02*
X139971428Y-112342857D01*
X139457142Y-113542857D01*
G04 #@! TO.C,X12*
X106957142Y-103342857D02*
X107757142Y-104542857D01*
X107757142Y-103342857D02*
X106957142Y-104542857D01*
X108842857Y-104542857D02*
X108157142Y-104542857D01*
X108500000Y-104542857D02*
X108500000Y-103342857D01*
X108385714Y-103514285D01*
X108271428Y-103628571D01*
X108157142Y-103685714D01*
X109300000Y-103457142D02*
X109357142Y-103400000D01*
X109471428Y-103342857D01*
X109757142Y-103342857D01*
X109871428Y-103400000D01*
X109928571Y-103457142D01*
X109985714Y-103571428D01*
X109985714Y-103685714D01*
X109928571Y-103857142D01*
X109242857Y-104542857D01*
X109985714Y-104542857D01*
G04 #@! TO.C,D3*
D13*
X88083333Y-96566666D02*
X88083333Y-95866666D01*
X88250000Y-95866666D01*
X88350000Y-95900000D01*
X88416666Y-95966666D01*
X88450000Y-96033333D01*
X88483333Y-96166666D01*
X88483333Y-96266666D01*
X88450000Y-96400000D01*
X88416666Y-96466666D01*
X88350000Y-96533333D01*
X88250000Y-96566666D01*
X88083333Y-96566666D01*
X88716666Y-95866666D02*
X89150000Y-95866666D01*
X88916666Y-96133333D01*
X89016666Y-96133333D01*
X89083333Y-96166666D01*
X89116666Y-96200000D01*
X89150000Y-96266666D01*
X89150000Y-96433333D01*
X89116666Y-96500000D01*
X89083333Y-96533333D01*
X89016666Y-96566666D01*
X88816666Y-96566666D01*
X88750000Y-96533333D01*
X88716666Y-96500000D01*
G04 #@! TO.C,R6*
X133883333Y-128316666D02*
X133650000Y-127983333D01*
X133483333Y-128316666D02*
X133483333Y-127616666D01*
X133750000Y-127616666D01*
X133816666Y-127650000D01*
X133850000Y-127683333D01*
X133883333Y-127750000D01*
X133883333Y-127850000D01*
X133850000Y-127916666D01*
X133816666Y-127950000D01*
X133750000Y-127983333D01*
X133483333Y-127983333D01*
X134483333Y-127616666D02*
X134350000Y-127616666D01*
X134283333Y-127650000D01*
X134250000Y-127683333D01*
X134183333Y-127783333D01*
X134150000Y-127916666D01*
X134150000Y-128183333D01*
X134183333Y-128250000D01*
X134216666Y-128283333D01*
X134283333Y-128316666D01*
X134416666Y-128316666D01*
X134483333Y-128283333D01*
X134516666Y-128250000D01*
X134550000Y-128183333D01*
X134550000Y-128016666D01*
X134516666Y-127950000D01*
X134483333Y-127916666D01*
X134416666Y-127883333D01*
X134283333Y-127883333D01*
X134216666Y-127916666D01*
X134183333Y-127950000D01*
X134150000Y-128016666D01*
G04 #@! TO.C,R8*
X138333333Y-128166666D02*
X138100000Y-127833333D01*
X137933333Y-128166666D02*
X137933333Y-127466666D01*
X138200000Y-127466666D01*
X138266666Y-127500000D01*
X138300000Y-127533333D01*
X138333333Y-127600000D01*
X138333333Y-127700000D01*
X138300000Y-127766666D01*
X138266666Y-127800000D01*
X138200000Y-127833333D01*
X137933333Y-127833333D01*
X138733333Y-127766666D02*
X138666666Y-127733333D01*
X138633333Y-127700000D01*
X138600000Y-127633333D01*
X138600000Y-127600000D01*
X138633333Y-127533333D01*
X138666666Y-127500000D01*
X138733333Y-127466666D01*
X138866666Y-127466666D01*
X138933333Y-127500000D01*
X138966666Y-127533333D01*
X139000000Y-127600000D01*
X139000000Y-127633333D01*
X138966666Y-127700000D01*
X138933333Y-127733333D01*
X138866666Y-127766666D01*
X138733333Y-127766666D01*
X138666666Y-127800000D01*
X138633333Y-127833333D01*
X138600000Y-127900000D01*
X138600000Y-128033333D01*
X138633333Y-128100000D01*
X138666666Y-128133333D01*
X138733333Y-128166666D01*
X138866666Y-128166666D01*
X138933333Y-128133333D01*
X138966666Y-128100000D01*
X139000000Y-128033333D01*
X139000000Y-127900000D01*
X138966666Y-127833333D01*
X138933333Y-127800000D01*
X138866666Y-127766666D01*
G04 #@! TO.C,R7*
X84433333Y-89466666D02*
X84200000Y-89133333D01*
X84033333Y-89466666D02*
X84033333Y-88766666D01*
X84300000Y-88766666D01*
X84366666Y-88800000D01*
X84400000Y-88833333D01*
X84433333Y-88900000D01*
X84433333Y-89000000D01*
X84400000Y-89066666D01*
X84366666Y-89100000D01*
X84300000Y-89133333D01*
X84033333Y-89133333D01*
X84666666Y-88766666D02*
X85133333Y-88766666D01*
X84833333Y-89466666D01*
G04 #@! TO.C,R9*
X89383333Y-89566666D02*
X89150000Y-89233333D01*
X88983333Y-89566666D02*
X88983333Y-88866666D01*
X89250000Y-88866666D01*
X89316666Y-88900000D01*
X89350000Y-88933333D01*
X89383333Y-89000000D01*
X89383333Y-89100000D01*
X89350000Y-89166666D01*
X89316666Y-89200000D01*
X89250000Y-89233333D01*
X88983333Y-89233333D01*
X89716666Y-89566666D02*
X89850000Y-89566666D01*
X89916666Y-89533333D01*
X89950000Y-89500000D01*
X90016666Y-89400000D01*
X90050000Y-89266666D01*
X90050000Y-89000000D01*
X90016666Y-88933333D01*
X89983333Y-88900000D01*
X89916666Y-88866666D01*
X89783333Y-88866666D01*
X89716666Y-88900000D01*
X89683333Y-88933333D01*
X89650000Y-89000000D01*
X89650000Y-89166666D01*
X89683333Y-89233333D01*
X89716666Y-89266666D01*
X89783333Y-89300000D01*
X89916666Y-89300000D01*
X89983333Y-89266666D01*
X90016666Y-89233333D01*
X90050000Y-89166666D01*
G04 #@! TO.C,D1*
X88083333Y-55566666D02*
X88083333Y-54866666D01*
X88250000Y-54866666D01*
X88350000Y-54900000D01*
X88416666Y-54966666D01*
X88450000Y-55033333D01*
X88483333Y-55166666D01*
X88483333Y-55266666D01*
X88450000Y-55400000D01*
X88416666Y-55466666D01*
X88350000Y-55533333D01*
X88250000Y-55566666D01*
X88083333Y-55566666D01*
X89150000Y-55566666D02*
X88750000Y-55566666D01*
X88950000Y-55566666D02*
X88950000Y-54866666D01*
X88883333Y-54966666D01*
X88816666Y-55033333D01*
X88750000Y-55066666D01*
G04 #@! TO.C,R4*
X89383333Y-48566666D02*
X89150000Y-48233333D01*
X88983333Y-48566666D02*
X88983333Y-47866666D01*
X89250000Y-47866666D01*
X89316666Y-47900000D01*
X89350000Y-47933333D01*
X89383333Y-48000000D01*
X89383333Y-48100000D01*
X89350000Y-48166666D01*
X89316666Y-48200000D01*
X89250000Y-48233333D01*
X88983333Y-48233333D01*
X89983333Y-48100000D02*
X89983333Y-48566666D01*
X89816666Y-47833333D02*
X89650000Y-48333333D01*
X90083333Y-48333333D01*
G04 #@! TO.C,R3*
X138333333Y-87166666D02*
X138100000Y-86833333D01*
X137933333Y-87166666D02*
X137933333Y-86466666D01*
X138200000Y-86466666D01*
X138266666Y-86500000D01*
X138300000Y-86533333D01*
X138333333Y-86600000D01*
X138333333Y-86700000D01*
X138300000Y-86766666D01*
X138266666Y-86800000D01*
X138200000Y-86833333D01*
X137933333Y-86833333D01*
X138566666Y-86466666D02*
X139000000Y-86466666D01*
X138766666Y-86733333D01*
X138866666Y-86733333D01*
X138933333Y-86766666D01*
X138966666Y-86800000D01*
X139000000Y-86866666D01*
X139000000Y-87033333D01*
X138966666Y-87100000D01*
X138933333Y-87133333D01*
X138866666Y-87166666D01*
X138666666Y-87166666D01*
X138600000Y-87133333D01*
X138566666Y-87100000D01*
G04 #@! TO.C,R2*
X84433333Y-48466666D02*
X84200000Y-48133333D01*
X84033333Y-48466666D02*
X84033333Y-47766666D01*
X84300000Y-47766666D01*
X84366666Y-47800000D01*
X84400000Y-47833333D01*
X84433333Y-47900000D01*
X84433333Y-48000000D01*
X84400000Y-48066666D01*
X84366666Y-48100000D01*
X84300000Y-48133333D01*
X84033333Y-48133333D01*
X84700000Y-47833333D02*
X84733333Y-47800000D01*
X84800000Y-47766666D01*
X84966666Y-47766666D01*
X85033333Y-47800000D01*
X85066666Y-47833333D01*
X85100000Y-47900000D01*
X85100000Y-47966666D01*
X85066666Y-48066666D01*
X84666666Y-48466666D01*
X85100000Y-48466666D01*
G04 #@! TO.C,R1*
X133883333Y-87316666D02*
X133650000Y-86983333D01*
X133483333Y-87316666D02*
X133483333Y-86616666D01*
X133750000Y-86616666D01*
X133816666Y-86650000D01*
X133850000Y-86683333D01*
X133883333Y-86750000D01*
X133883333Y-86850000D01*
X133850000Y-86916666D01*
X133816666Y-86950000D01*
X133750000Y-86983333D01*
X133483333Y-86983333D01*
X134550000Y-87316666D02*
X134150000Y-87316666D01*
X134350000Y-87316666D02*
X134350000Y-86616666D01*
X134283333Y-86716666D01*
X134216666Y-86783333D01*
X134150000Y-86816666D01*
G04 #@! TO.C,X9*
D15*
X82028571Y-103342857D02*
X82828571Y-104542857D01*
X82828571Y-103342857D02*
X82028571Y-104542857D01*
X83342857Y-104542857D02*
X83571428Y-104542857D01*
X83685714Y-104485714D01*
X83742857Y-104428571D01*
X83857142Y-104257142D01*
X83914285Y-104028571D01*
X83914285Y-103571428D01*
X83857142Y-103457142D01*
X83800000Y-103400000D01*
X83685714Y-103342857D01*
X83457142Y-103342857D01*
X83342857Y-103400000D01*
X83285714Y-103457142D01*
X83228571Y-103571428D01*
X83228571Y-103857142D01*
X83285714Y-103971428D01*
X83342857Y-104028571D01*
X83457142Y-104085714D01*
X83685714Y-104085714D01*
X83800000Y-104028571D01*
X83857142Y-103971428D01*
X83914285Y-103857142D01*
G04 #@! TO.C,X6*
D11*
X112528571Y-81942857D02*
X113328571Y-83142857D01*
X113328571Y-81942857D02*
X112528571Y-83142857D01*
X114300000Y-81942857D02*
X114071428Y-81942857D01*
X113957142Y-82000000D01*
X113900000Y-82057142D01*
X113785714Y-82228571D01*
X113728571Y-82457142D01*
X113728571Y-82914285D01*
X113785714Y-83028571D01*
X113842857Y-83085714D01*
X113957142Y-83142857D01*
X114185714Y-83142857D01*
X114300000Y-83085714D01*
X114357142Y-83028571D01*
X114414285Y-82914285D01*
X114414285Y-82628571D01*
X114357142Y-82514285D01*
X114300000Y-82457142D01*
X114185714Y-82400000D01*
X113957142Y-82400000D01*
X113842857Y-82457142D01*
X113785714Y-82514285D01*
X113728571Y-82628571D01*
G04 #@! TO.C,X1*
X90178571Y-124214285D02*
X91678571Y-123214285D01*
X90178571Y-123214285D02*
X91678571Y-124214285D01*
X91678571Y-121857142D02*
X91678571Y-122714285D01*
X91678571Y-122285714D02*
X90178571Y-122285714D01*
X90392857Y-122428571D01*
X90535714Y-122571428D01*
X90607142Y-122714285D01*
G04 #@! TO.C,X2*
X129178571Y-95214285D02*
X130678571Y-94214285D01*
X129178571Y-94214285D02*
X130678571Y-95214285D01*
X129321428Y-93714285D02*
X129250000Y-93642857D01*
X129178571Y-93500000D01*
X129178571Y-93142857D01*
X129250000Y-93000000D01*
X129321428Y-92928571D01*
X129464285Y-92857142D01*
X129607142Y-92857142D01*
X129821428Y-92928571D01*
X130678571Y-93785714D01*
X130678571Y-92857142D01*
G04 #@! TO.C,X4*
X90178571Y-83214285D02*
X91678571Y-82214285D01*
X90178571Y-82214285D02*
X91678571Y-83214285D01*
X90678571Y-81000000D02*
X91678571Y-81000000D01*
X90107142Y-81357142D02*
X91178571Y-81714285D01*
X91178571Y-80785714D01*
G04 #@! TO.C,X5*
X129178571Y-54214285D02*
X130678571Y-53214285D01*
X129178571Y-53214285D02*
X130678571Y-54214285D01*
X129178571Y-51928571D02*
X129178571Y-52642857D01*
X129892857Y-52714285D01*
X129821428Y-52642857D01*
X129750000Y-52500000D01*
X129750000Y-52142857D01*
X129821428Y-52000000D01*
X129892857Y-51928571D01*
X130035714Y-51857142D01*
X130392857Y-51857142D01*
X130535714Y-51928571D01*
X130607142Y-52000000D01*
X130678571Y-52142857D01*
X130678571Y-52500000D01*
X130607142Y-52642857D01*
X130535714Y-52714285D01*
G04 #@! TD*
M02*
