M48
;DRILL file {KiCad (5.0.0)} date 02/08/19 13:36:04
;FORMAT={-:-/ absolute / metric / decimal}
FMAT,2
METRIC,TZ
T1C1.000
T2C1.200
T3C1.500
T4C1.600
T5C2.000
T6C8.000
%
G90
G05
M71
T1
X92.Y-58.
X92.Y-99.
X92.Y-140.
X92.Y-181.
X97.Y-50.
X97.Y-91.
X97.Y-132.
X97.Y-173.
X97.5Y-62.5
X97.5Y-103.5
X97.5Y-144.5
X97.5Y-185.5
X101.5Y-61.5
X101.5Y-73.5
X101.5Y-102.5
X101.5Y-115.
X101.5Y-143.5
X101.5Y-155.5
X101.5Y-184.5
X101.5Y-197.
X104.Y-69.5
X104.Y-110.5
X104.Y-151.5
X104.Y-192.5
X106.Y-50.
X106.Y-91.
X106.Y-132.
X106.Y-173.
X108.Y-68.5
X108.Y-109.
X108.Y-150.5
X108.Y-191.
X109.Y-56.5
X109.Y-97.5
X109.Y-138.5
X109.Y-179.5
X110.5Y-52.
X110.5Y-93.5
X110.5Y-134.
X110.5Y-175.5
X117.Y-62.
X117.Y-103.
X117.Y-144.
X117.Y-185.
X118.5Y-73.5
X118.5Y-114.5
X118.5Y-155.5
X118.5Y-196.5
X121.5Y-60.5
X121.5Y-102.
X121.5Y-142.5
X121.5Y-184.
X123.5Y-73.5
X123.5Y-114.5
X123.5Y-155.5
X123.5Y-196.5
X126.5Y-85.5
X126.5Y-126.5
X126.5Y-167.5
X126.5Y-208.5
X131.5Y-77.
X131.5Y-118.
X131.5Y-159.
X131.5Y-200.
X154.Y-58.
X154.Y-99.
X154.Y-140.
X154.Y-181.
X159.Y-50.
X159.Y-91.
X159.Y-132.
X159.Y-173.
X159.5Y-62.5
X159.5Y-103.5
X159.5Y-144.5
X159.5Y-185.5
X163.5Y-61.5
X163.5Y-73.5
X163.5Y-102.5
X163.5Y-115.
X163.5Y-143.5
X163.5Y-155.5
X163.5Y-184.5
X163.5Y-197.
X166.Y-69.5
X166.Y-110.5
X166.Y-151.5
X166.Y-192.5
X168.Y-50.
X168.Y-91.
X168.Y-132.
X168.Y-173.
X170.Y-68.5
X170.Y-109.
X170.Y-150.5
X170.Y-191.
X171.Y-56.5
X171.Y-97.5
X171.Y-138.5
X171.Y-179.5
X172.5Y-52.
X172.5Y-93.5
X172.5Y-134.
X172.5Y-175.5
X179.Y-62.
X179.Y-103.
X179.Y-144.
X179.Y-185.
X180.5Y-73.5
X180.5Y-114.5
X180.5Y-155.5
X180.5Y-196.5
X183.5Y-60.5
X183.5Y-102.
X183.5Y-142.5
X183.5Y-184.
X185.5Y-73.5
X185.5Y-114.5
X185.5Y-155.5
X185.5Y-196.5
X188.5Y-85.5
X188.5Y-126.5
X188.5Y-167.5
X188.5Y-208.5
X193.5Y-77.
X193.5Y-118.
X193.5Y-159.
X193.5Y-200.
X216.Y-58.
X216.Y-99.
X216.Y-140.
X216.Y-181.
X221.Y-50.
X221.Y-91.
X221.Y-132.
X221.Y-173.
X221.5Y-62.5
X221.5Y-103.5
X221.5Y-144.5
X221.5Y-185.5
X225.5Y-61.5
X225.5Y-73.5
X225.5Y-102.5
X225.5Y-115.
X225.5Y-143.5
X225.5Y-155.5
X225.5Y-184.5
X225.5Y-197.
X228.Y-69.5
X228.Y-110.5
X228.Y-151.5
X228.Y-192.5
X230.Y-50.
X230.Y-91.
X230.Y-132.
X230.Y-173.
X232.Y-68.5
X232.Y-109.
X232.Y-150.5
X232.Y-191.
X233.Y-56.5
X233.Y-97.5
X233.Y-138.5
X233.Y-179.5
X234.5Y-52.
X234.5Y-93.5
X234.5Y-134.
X234.5Y-175.5
X241.Y-62.
X241.Y-103.
X241.Y-144.
X241.Y-185.
X242.5Y-73.5
X242.5Y-114.5
X242.5Y-155.5
X242.5Y-196.5
X245.5Y-60.5
X245.5Y-102.
X245.5Y-142.5
X245.5Y-184.
X247.5Y-73.5
X247.5Y-114.5
X247.5Y-155.5
X247.5Y-196.5
X250.5Y-85.5
X250.5Y-126.5
X250.5Y-167.5
X250.5Y-208.5
X255.5Y-77.
X255.5Y-118.
X255.5Y-159.
X255.5Y-200.
X278.Y-58.
X278.Y-99.
X278.Y-140.
X278.Y-181.
X283.Y-50.
X283.Y-91.
X283.Y-132.
X283.Y-173.
X283.5Y-62.5
X283.5Y-103.5
X283.5Y-144.5
X283.5Y-185.5
X287.5Y-61.5
X287.5Y-73.5
X287.5Y-102.5
X287.5Y-115.
X287.5Y-143.5
X287.5Y-155.5
X287.5Y-184.5
X287.5Y-197.
X290.Y-69.5
X290.Y-110.5
X290.Y-151.5
X290.Y-192.5
X292.Y-50.
X292.Y-91.
X292.Y-132.
X292.Y-173.
X294.Y-68.5
X294.Y-109.
X294.Y-150.5
X294.Y-191.
X295.Y-56.5
X295.Y-97.5
X295.Y-138.5
X295.Y-179.5
X296.5Y-52.
X296.5Y-93.5
X296.5Y-134.
X296.5Y-175.5
X303.Y-62.
X303.Y-103.
X303.Y-144.
X303.Y-185.
X304.5Y-73.5
X304.5Y-114.5
X304.5Y-155.5
X304.5Y-196.5
X307.5Y-60.5
X307.5Y-102.
X307.5Y-142.5
X307.5Y-184.
X309.5Y-73.5
X309.5Y-114.5
X309.5Y-155.5
X309.5Y-196.5
X312.5Y-85.5
X312.5Y-126.5
X312.5Y-167.5
X312.5Y-208.5
X317.5Y-77.
X317.5Y-118.
X317.5Y-159.
X317.5Y-200.
T2
X174.5Y-151.5
X305.005Y-65.399
X112.5Y-110.5
X119.005Y-188.399
X298.5Y-110.5
X181.005Y-65.399
X243.005Y-65.399
X305.005Y-147.399
X181.005Y-147.399
X236.5Y-151.5
X174.5Y-69.5
X236.5Y-69.5
X174.5Y-110.5
X298.5Y-151.5
X112.5Y-151.5
X181.005Y-188.399
X243.005Y-188.399
X174.5Y-192.5
X119.005Y-65.399
X243.005Y-106.399
X119.005Y-106.399
X305.005Y-188.399
X119.005Y-147.399
X243.005Y-147.399
X112.5Y-69.5
X236.5Y-110.5
X298.5Y-192.5
X236.5Y-192.5
X112.5Y-192.5
X305.005Y-106.399
X298.5Y-69.5
X181.005Y-106.399
T3
X296.96Y-167.
X302.04Y-167.
X229.92Y-142.8
X235.Y-142.8
X83.Y-53.8
X83.Y-58.88
X202.Y-116.86
X202.Y-121.94
X110.96Y-85.
X116.04Y-85.
X296.92Y-126.
X302.Y-126.
X207.Y-53.8
X207.Y-58.88
X234.92Y-126.
X240.Y-126.
X234.96Y-85.
X240.04Y-85.
X207.Y-176.92
X207.Y-182.
X202.Y-198.86
X202.Y-203.94
X105.92Y-142.8
X111.Y-142.8
X269.Y-135.8
X269.Y-140.88
X269.Y-53.8
X269.Y-58.88
X172.96Y-85.
X178.04Y-85.
X207.Y-135.8
X207.Y-140.88
X145.Y-135.8
X145.Y-140.88
X83.Y-135.8
X83.Y-140.88
X202.Y-157.86
X202.Y-162.94
X264.Y-157.86
X264.Y-162.94
X296.92Y-208.
X302.Y-208.
X110.92Y-126.
X116.Y-126.
X202.Y-75.86
X202.Y-80.94
X145.Y-53.8
X145.Y-58.88
X172.92Y-126.
X178.Y-126.
X264.Y-75.86
X264.Y-80.94
X207.Y-94.92
X207.Y-100.
X145.Y-176.92
X145.Y-182.
X140.Y-198.86
X140.Y-203.94
X291.92Y-142.8
X297.Y-142.8
X167.92Y-183.8
X173.Y-183.8
X140.Y-75.86
X140.Y-80.94
X145.Y-94.92
X145.Y-100.
X326.Y-116.86
X326.Y-121.94
X105.92Y-101.8
X111.Y-101.8
X140.Y-116.86
X140.Y-121.94
X140.Y-157.86
X140.Y-162.94
X326.Y-198.86
X326.Y-203.94
X110.96Y-167.
X116.04Y-167.
X229.92Y-183.8
X235.Y-183.8
X105.92Y-60.8
X111.Y-60.8
X269.Y-94.92
X269.Y-100.
X229.92Y-101.8
X235.Y-101.8
X264.Y-116.86
X264.Y-121.94
X264.Y-198.86
X264.Y-203.94
X110.92Y-208.
X116.Y-208.
X167.92Y-142.8
X173.Y-142.8
X269.Y-176.92
X269.Y-182.
X326.Y-157.86
X326.Y-162.94
X291.92Y-183.8
X297.Y-183.8
X83.Y-176.92
X83.Y-182.
X229.92Y-60.8
X235.Y-60.8
X291.92Y-101.8
X297.Y-101.8
X167.92Y-60.8
X173.Y-60.8
X291.92Y-60.8
X297.Y-60.8
X83.Y-94.92
X83.Y-100.
X105.92Y-183.8
X111.Y-183.8
X296.96Y-85.
X302.04Y-85.
X234.92Y-208.
X240.Y-208.
X167.92Y-101.8
X173.Y-101.8
X326.Y-75.86
X326.Y-80.94
X172.92Y-208.
X178.Y-208.
X172.96Y-167.
X178.04Y-167.
X234.96Y-167.
X240.04Y-167.
T5
X156.Y-119.
X156.Y-126.1
X161.Y-119.
X161.Y-126.1
X166.Y-119.
X166.Y-126.1
X280.Y-119.
X280.Y-126.1
X285.Y-119.
X285.Y-126.1
X290.Y-119.
X290.Y-126.1
X156.1Y-77.7
X156.1Y-84.8
X161.1Y-77.7
X161.1Y-84.8
X166.1Y-77.7
X166.1Y-84.8
X239.Y-49.9
X239.Y-57.
X244.Y-49.9
X244.Y-57.
X249.Y-49.9
X249.Y-57.
X115.Y-131.9
X115.Y-139.
X120.Y-131.9
X120.Y-139.
X125.Y-131.9
X125.Y-139.
X239.Y-172.9
X239.Y-180.
X244.Y-172.9
X244.Y-180.
X249.Y-172.9
X249.Y-180.
X301.Y-90.9
X301.Y-98.
X306.Y-90.9
X306.Y-98.
X311.Y-90.9
X311.Y-98.
X239.Y-90.9
X239.Y-98.
X244.Y-90.9
X244.Y-98.
X249.Y-90.9
X249.Y-98.
X94.1Y-77.7
X94.1Y-84.8
X99.1Y-77.7
X99.1Y-84.8
X104.1Y-77.7
X104.1Y-84.8
X301.Y-172.9
X301.Y-180.
X306.Y-172.9
X306.Y-180.
X311.Y-172.9
X311.Y-180.
X94.Y-201.
X94.Y-208.1
X99.Y-201.
X99.Y-208.1
X104.Y-201.
X104.Y-208.1
X218.1Y-159.7
X218.1Y-166.8
X223.1Y-159.7
X223.1Y-166.8
X228.1Y-159.7
X228.1Y-166.8
X177.Y-172.9
X177.Y-180.
X182.Y-172.9
X182.Y-180.
X187.Y-172.9
X187.Y-180.
X301.Y-131.9
X301.Y-139.
X306.Y-131.9
X306.Y-139.
X311.Y-131.9
X311.Y-139.
X177.Y-131.9
X177.Y-139.
X182.Y-131.9
X182.Y-139.
X187.Y-131.9
X187.Y-139.
X301.Y-49.9
X301.Y-57.
X306.Y-49.9
X306.Y-57.
X311.Y-49.9
X311.Y-57.
X177.Y-90.9
X177.Y-98.
X182.Y-90.9
X182.Y-98.
X187.Y-90.9
X187.Y-98.
X280.1Y-77.7
X280.1Y-84.8
X285.1Y-77.7
X285.1Y-84.8
X290.1Y-77.7
X290.1Y-84.8
X94.Y-119.
X94.Y-126.1
X99.Y-119.
X99.Y-126.1
X104.Y-119.
X104.Y-126.1
X218.1Y-77.7
X218.1Y-84.8
X223.1Y-77.7
X223.1Y-84.8
X228.1Y-77.7
X228.1Y-84.8
X115.Y-172.9
X115.Y-180.
X120.Y-172.9
X120.Y-180.
X125.Y-172.9
X125.Y-180.
X280.1Y-159.7
X280.1Y-166.8
X285.1Y-159.7
X285.1Y-166.8
X290.1Y-159.7
X290.1Y-166.8
X156.Y-201.
X156.Y-208.1
X161.Y-201.
X161.Y-208.1
X166.Y-201.
X166.Y-208.1
X218.Y-201.
X218.Y-208.1
X223.Y-201.
X223.Y-208.1
X228.Y-201.
X228.Y-208.1
X177.Y-49.9
X177.Y-57.
X182.Y-49.9
X182.Y-57.
X187.Y-49.9
X187.Y-57.
X115.Y-49.9
X115.Y-57.
X120.Y-49.9
X120.Y-57.
X125.Y-49.9
X125.Y-57.
X218.Y-119.
X218.Y-126.1
X223.Y-119.
X223.Y-126.1
X228.Y-119.
X228.Y-126.1
X156.1Y-159.7
X156.1Y-166.8
X161.1Y-159.7
X161.1Y-166.8
X166.1Y-159.7
X166.1Y-166.8
X115.Y-90.9
X115.Y-98.
X120.Y-90.9
X120.Y-98.
X125.Y-90.9
X125.Y-98.
X94.1Y-159.7
X94.1Y-166.8
X99.1Y-159.7
X99.1Y-166.8
X104.1Y-159.7
X104.1Y-166.8
X239.Y-131.9
X239.Y-139.
X244.Y-131.9
X244.Y-139.
X249.Y-131.9
X249.Y-139.
X280.Y-201.
X280.Y-208.1
X285.Y-201.
X285.Y-208.1
X290.Y-201.
X290.Y-208.1
T6
X235.3Y-157.6
X183.4Y-161.9
X101.3Y-177.9
X225.3Y-177.9
X121.4Y-121.
X111.3Y-75.6
X163.3Y-95.9
X183.4Y-121.
X245.4Y-121.
X163.3Y-177.9
X235.4Y-198.6
X111.4Y-198.6
X173.4Y-116.6
X297.4Y-116.6
X101.4Y-54.9
X307.4Y-121.
X235.3Y-75.6
X245.4Y-161.9
X163.4Y-136.9
X121.4Y-203.
X225.4Y-136.9
X287.4Y-136.9
X173.3Y-75.6
X307.4Y-79.9
X225.3Y-95.9
X121.4Y-161.9
X173.4Y-198.6
X173.3Y-157.6
X307.4Y-203.
X225.4Y-54.9
X297.3Y-157.6
X121.4Y-79.9
X163.4Y-54.9
X297.3Y-75.6
X183.4Y-79.9
X245.4Y-79.9
X287.3Y-95.9
X307.4Y-161.9
X297.4Y-198.6
X101.3Y-95.9
X111.4Y-116.6
X101.4Y-136.9
X235.4Y-116.6
X245.4Y-203.
X183.4Y-203.
X111.3Y-157.6
X287.3Y-177.9
X287.4Y-54.9
T4
X187.796Y-61.537G85X184.637Y-66.401
G05
X195.541Y-73.151G85X189.829Y-74.158
G05
X198.366Y-66.795G85X196.495Y-62.592
G05
X148.334Y-109.005G85X150.205Y-113.208
G05
X151.159Y-102.649G85X156.871Y-101.642
G05
X158.904Y-114.263G85X162.063Y-109.399
G05
X272.334Y-109.005G85X274.205Y-113.208
G05
X275.159Y-102.649G85X280.871Y-101.642
G05
X282.904Y-114.263G85X286.063Y-109.399
G05
X249.796Y-102.537G85X246.637Y-107.401
G05
X257.541Y-114.151G85X251.829Y-115.158
G05
X260.366Y-107.795G85X258.495Y-103.592
G05
X210.334Y-150.005G85X212.205Y-154.208
G05
X213.159Y-143.649G85X218.871Y-142.642
G05
X220.904Y-155.263G85X224.063Y-150.399
G05
X311.796Y-143.537G85X308.637Y-148.401
G05
X319.541Y-155.151G85X313.829Y-156.158
G05
X322.366Y-148.795G85X320.495Y-144.592
G05
X125.796Y-102.537G85X122.637Y-107.401
G05
X133.541Y-114.151G85X127.829Y-115.158
G05
X136.366Y-107.795G85X134.495Y-103.592
G05
X187.796Y-102.537G85X184.637Y-107.401
G05
X195.541Y-114.151G85X189.829Y-115.158
G05
X198.366Y-107.795G85X196.495Y-103.592
G05
X311.796Y-102.537G85X308.637Y-107.401
G05
X319.541Y-114.151G85X313.829Y-115.158
G05
X322.366Y-107.795G85X320.495Y-103.592
G05
X272.334Y-68.005G85X274.205Y-72.208
G05
X275.159Y-61.649G85X280.871Y-60.642
G05
X282.904Y-73.263G85X286.063Y-68.399
G05
X125.796Y-184.537G85X122.637Y-189.401
G05
X133.541Y-196.151G85X127.829Y-197.158
G05
X136.366Y-189.795G85X134.495Y-185.592
G05
X187.796Y-143.537G85X184.637Y-148.401
G05
X195.541Y-155.151G85X189.829Y-156.158
G05
X198.366Y-148.795G85X196.495Y-144.592
G05
X249.796Y-143.537G85X246.637Y-148.401
G05
X257.541Y-155.151G85X251.829Y-156.158
G05
X260.366Y-148.795G85X258.495Y-144.592
G05
X272.334Y-150.005G85X274.205Y-154.208
G05
X275.159Y-143.649G85X280.871Y-142.642
G05
X282.904Y-155.263G85X286.063Y-150.399
G05
X86.334Y-191.005G85X88.205Y-195.208
G05
X89.159Y-184.649G85X94.871Y-183.642
G05
X96.904Y-196.263G85X100.063Y-191.399
G05
X86.334Y-150.005G85X88.205Y-154.208
G05
X89.159Y-143.649G85X94.871Y-142.642
G05
X96.904Y-155.263G85X100.063Y-150.399
G05
X311.796Y-184.537G85X308.637Y-189.401
G05
X319.541Y-196.151G85X313.829Y-197.158
G05
X322.366Y-189.795G85X320.495Y-185.592
G05
X210.334Y-191.005G85X212.205Y-195.208
G05
X213.159Y-184.649G85X218.871Y-183.642
G05
X220.904Y-196.263G85X224.063Y-191.399
G05
X249.796Y-184.537G85X246.637Y-189.401
G05
X257.541Y-196.151G85X251.829Y-197.158
G05
X260.366Y-189.795G85X258.495Y-185.592
G05
X210.334Y-68.005G85X212.205Y-72.208
G05
X213.159Y-61.649G85X218.871Y-60.642
G05
X220.904Y-73.263G85X224.063Y-68.399
G05
X311.796Y-61.537G85X308.637Y-66.401
G05
X319.541Y-73.151G85X313.829Y-74.158
G05
X322.366Y-66.795G85X320.495Y-62.592
G05
X86.334Y-109.005G85X88.205Y-113.208
G05
X89.159Y-102.649G85X94.871Y-101.642
G05
X96.904Y-114.263G85X100.063Y-109.399
G05
X210.334Y-109.005G85X212.205Y-113.208
G05
X213.159Y-102.649G85X218.871Y-101.642
G05
X220.904Y-114.263G85X224.063Y-109.399
G05
X125.796Y-61.537G85X122.637Y-66.401
G05
X133.541Y-73.151G85X127.829Y-74.158
G05
X136.366Y-66.795G85X134.495Y-62.592
G05
X148.334Y-68.005G85X150.205Y-72.208
G05
X151.159Y-61.649G85X156.871Y-60.642
G05
X158.904Y-73.263G85X162.063Y-68.399
G05
X148.334Y-150.005G85X150.205Y-154.208
G05
X151.159Y-143.649G85X156.871Y-142.642
G05
X158.904Y-155.263G85X162.063Y-150.399
G05
X148.334Y-191.005G85X150.205Y-195.208
G05
X151.159Y-184.649G85X156.871Y-183.642
G05
X158.904Y-196.263G85X162.063Y-191.399
G05
X86.334Y-68.005G85X88.205Y-72.208
G05
X89.159Y-61.649G85X94.871Y-60.642
G05
X96.904Y-73.263G85X100.063Y-68.399
G05
X249.796Y-61.537G85X246.637Y-66.401
G05
X257.541Y-73.151G85X251.829Y-74.158
G05
X260.366Y-66.795G85X258.495Y-62.592
G05
X125.796Y-143.537G85X122.637Y-148.401
G05
X133.541Y-155.151G85X127.829Y-156.158
G05
X136.366Y-148.795G85X134.495Y-144.592
G05
X187.796Y-184.537G85X184.637Y-189.401
G05
X195.541Y-196.151G85X189.829Y-197.158
G05
X198.366Y-189.795G85X196.495Y-185.592
G05
X272.334Y-191.005G85X274.205Y-195.208
G05
X275.159Y-184.649G85X280.871Y-183.642
G05
X282.904Y-196.263G85X286.063Y-191.399
G05
T0
M30
