G04 #@! TF.GenerationSoftware,KiCad,Pcbnew,(5.0.0)*
G04 #@! TF.CreationDate,2019-02-08T13:36:01+02:00*
G04 #@! TF.ProjectId,tp_x2_PnP,74705F78325F506E502E6B696361645F,3*
G04 #@! TF.SameCoordinates,Original*
G04 #@! TF.FileFunction,Soldermask,Top*
G04 #@! TF.FilePolarity,Negative*
%FSLAX46Y46*%
G04 Gerber Fmt 4.6, Leading zero omitted, Abs format (unit mm)*
G04 Created by KiCad (PCBNEW (5.0.0)) date 02/08/19 13:36:01*
%MOMM*%
%LPD*%
G01*
G04 APERTURE LIST*
%ADD10R,1.900000X3.100000*%
%ADD11C,2.000000*%
%ADD12R,1.900000X2.100000*%
%ADD13O,2.200000X4.000000*%
%ADD14O,4.000000X2.200000*%
%ADD15C,3.200000*%
%ADD16C,8.400000*%
%ADD17C,3.200000*%
%ADD18C,2.899360*%
%ADD19C,0.254000*%
G04 APERTURE END LIST*
D10*
G04 #@! TO.C,D1*
X215000000Y-53000000D03*
X210200000Y-53000000D03*
G04 #@! TD*
D11*
G04 #@! TO.C,REF\002A\002A*
X338000000Y-39000000D03*
G04 #@! TD*
G04 #@! TO.C,REF\002A\002A*
X70000000Y-218000000D03*
G04 #@! TD*
G04 #@! TO.C,REF04*
X330000000Y-213000000D03*
G04 #@! TD*
G04 #@! TO.C,REF03*
X330000000Y-45000000D03*
G04 #@! TD*
G04 #@! TO.C,REF02*
X78000000Y-45000000D03*
G04 #@! TD*
D12*
G04 #@! TO.C,R9*
X212100000Y-173000000D03*
X215000000Y-173000000D03*
G04 #@! TD*
G04 #@! TO.C,R8*
X263900000Y-208000000D03*
X261000000Y-208000000D03*
G04 #@! TD*
D13*
G04 #@! TO.C,X9*
X207000000Y-176920000D03*
X207000000Y-182000000D03*
G04 #@! TD*
D12*
G04 #@! TO.C,R3*
X261000000Y-167000000D03*
X263900000Y-167000000D03*
G04 #@! TD*
D14*
G04 #@! TO.C,X6*
X240040000Y-167000000D03*
X234960000Y-167000000D03*
G04 #@! TD*
D12*
G04 #@! TO.C,R1*
X259000000Y-167000000D03*
X256100000Y-167000000D03*
G04 #@! TD*
D10*
G04 #@! TO.C,D1*
X210200000Y-135000000D03*
X215000000Y-135000000D03*
G04 #@! TD*
G04 #@! TO.C,D3*
X215000000Y-176000000D03*
X210200000Y-176000000D03*
G04 #@! TD*
D15*
G04 #@! TO.C,X4*
X228100000Y-166800000D03*
X223100000Y-166800000D03*
X218100000Y-166800000D03*
X228100000Y-159700000D03*
X223100000Y-159700000D03*
X218100000Y-159700000D03*
G04 #@! TD*
D12*
G04 #@! TO.C,R4*
X215000000Y-132000000D03*
X212100000Y-132000000D03*
G04 #@! TD*
D16*
G04 #@! TO.C,REF\002A\002A*
X225400000Y-136900000D03*
G04 #@! TD*
D12*
G04 #@! TO.C,R2*
X207100000Y-132000000D03*
X210000000Y-132000000D03*
G04 #@! TD*
G04 #@! TO.C,R6*
X256100000Y-208000000D03*
X259000000Y-208000000D03*
G04 #@! TD*
D14*
G04 #@! TO.C,X12*
X235000000Y-183800000D03*
X229920000Y-183800000D03*
G04 #@! TD*
D15*
G04 #@! TO.C,V2.1*
X278015189Y-143145704D03*
D17*
X275060766Y-143666649D02*
X280969612Y-142624759D01*
D15*
X284483625Y-152831226D03*
D17*
X282849708Y-155347238D02*
X286117542Y-150315214D01*
D15*
X273269138Y-152106452D03*
D17*
X272252296Y-149822588D02*
X274285980Y-154390316D01*
G04 #@! TD*
D14*
G04 #@! TO.C,X3*
X302000000Y-208000000D03*
X296920000Y-208000000D03*
G04 #@! TD*
D18*
G04 #@! TO.C,H1*
X236500000Y-192500000D03*
G04 #@! TD*
D16*
G04 #@! TO.C,REF\002A\002A*
X297400000Y-198600000D03*
G04 #@! TD*
G04 #@! TO.C,REF\002A\002A*
X307400000Y-203000000D03*
G04 #@! TD*
D13*
G04 #@! TO.C,X17*
X269000000Y-140880000D03*
X269000000Y-135800000D03*
G04 #@! TD*
G04 #@! TO.C,X7*
X326000000Y-198860000D03*
X326000000Y-203940000D03*
G04 #@! TD*
D15*
G04 #@! TO.C,V2.2*
X316684811Y-155654296D03*
D17*
X319639234Y-155133351D02*
X313730388Y-156175241D01*
D15*
X310216375Y-145968774D03*
D17*
X311850292Y-143452762D02*
X308582458Y-148484786D01*
D15*
X321430862Y-146693548D03*
D17*
X322447704Y-148977412D02*
X320414020Y-144409684D01*
G04 #@! TD*
D18*
G04 #@! TO.C,H2*
X243005382Y-188398781D03*
G04 #@! TD*
D15*
G04 #@! TO.C,V1.1*
X278015189Y-184145704D03*
D17*
X275060766Y-184666649D02*
X280969612Y-183624759D01*
D15*
X284483625Y-193831226D03*
D17*
X282849708Y-196347238D02*
X286117542Y-191315214D01*
D15*
X273269138Y-193106452D03*
D17*
X272252296Y-190822588D02*
X274285980Y-195390316D01*
G04 #@! TD*
D15*
G04 #@! TO.C,X2*
X239000000Y-172900000D03*
X244000000Y-172900000D03*
X249000000Y-172900000D03*
X239000000Y-180000000D03*
X244000000Y-180000000D03*
X249000000Y-180000000D03*
G04 #@! TD*
D12*
G04 #@! TO.C,R7*
X210000000Y-173000000D03*
X207100000Y-173000000D03*
G04 #@! TD*
D13*
G04 #@! TO.C,X14*
X326000000Y-162940000D03*
X326000000Y-157860000D03*
G04 #@! TD*
D15*
G04 #@! TO.C,X1*
X228000000Y-208100000D03*
X223000000Y-208100000D03*
X218000000Y-208100000D03*
X228000000Y-201000000D03*
X223000000Y-201000000D03*
X218000000Y-201000000D03*
G04 #@! TD*
G04 #@! TO.C,X5*
X239000000Y-131900000D03*
X244000000Y-131900000D03*
X249000000Y-131900000D03*
X239000000Y-139000000D03*
X244000000Y-139000000D03*
X249000000Y-139000000D03*
G04 #@! TD*
D16*
G04 #@! TO.C,REF\002A\002A*
X287300000Y-177900000D03*
G04 #@! TD*
D18*
G04 #@! TO.C,H3*
X236500000Y-151500000D03*
G04 #@! TD*
D16*
G04 #@! TO.C,REF\002A\002A*
X307400000Y-161900000D03*
G04 #@! TD*
D10*
G04 #@! TO.C,D2*
X323000000Y-164000000D03*
X318200000Y-164000000D03*
G04 #@! TD*
D18*
G04 #@! TO.C,H4*
X243005382Y-147398781D03*
G04 #@! TD*
D15*
G04 #@! TO.C,V1.2*
X316684811Y-196654296D03*
D17*
X319639234Y-196133351D02*
X313730388Y-197175241D01*
D15*
X310216375Y-186968774D03*
D17*
X311850292Y-184452762D02*
X308582458Y-189484786D01*
D15*
X321430862Y-187693548D03*
D17*
X322447704Y-189977412D02*
X320414020Y-185409684D01*
G04 #@! TD*
D16*
G04 #@! TO.C,REF\002A\002A*
X297300000Y-157600000D03*
G04 #@! TD*
D10*
G04 #@! TO.C,D4*
X318200000Y-205000000D03*
X323000000Y-205000000D03*
G04 #@! TD*
D14*
G04 #@! TO.C,X26*
X291920000Y-142800000D03*
X297000000Y-142800000D03*
G04 #@! TD*
D16*
G04 #@! TO.C,REF\002A\002A*
X287400000Y-136900000D03*
G04 #@! TD*
D14*
G04 #@! TO.C,X12*
X291920000Y-183800000D03*
X297000000Y-183800000D03*
G04 #@! TD*
D12*
G04 #@! TO.C,R6*
X321000000Y-208000000D03*
X318100000Y-208000000D03*
G04 #@! TD*
G04 #@! TO.C,R2*
X272000000Y-132000000D03*
X269100000Y-132000000D03*
G04 #@! TD*
G04 #@! TO.C,R7*
X269100000Y-173000000D03*
X272000000Y-173000000D03*
G04 #@! TD*
D15*
G04 #@! TO.C,X5*
X311000000Y-139000000D03*
X306000000Y-139000000D03*
X301000000Y-139000000D03*
X311000000Y-131900000D03*
X306000000Y-131900000D03*
X301000000Y-131900000D03*
G04 #@! TD*
G04 #@! TO.C,X1*
X280000000Y-201000000D03*
X285000000Y-201000000D03*
X290000000Y-201000000D03*
X280000000Y-208100000D03*
X285000000Y-208100000D03*
X290000000Y-208100000D03*
G04 #@! TD*
D14*
G04 #@! TO.C,X26*
X235000000Y-142800000D03*
X229920000Y-142800000D03*
G04 #@! TD*
D13*
G04 #@! TO.C,X17*
X207000000Y-135800000D03*
X207000000Y-140880000D03*
G04 #@! TD*
D18*
G04 #@! TO.C,H4*
X305005382Y-147398781D03*
G04 #@! TD*
D15*
G04 #@! TO.C,V2.1*
X211269138Y-152106452D03*
D17*
X210252296Y-149822588D02*
X212285980Y-154390316D01*
D15*
X222483625Y-152831226D03*
D17*
X220849708Y-155347238D02*
X224117542Y-150315214D01*
D15*
X216015189Y-143145704D03*
D17*
X213060766Y-143666649D02*
X218969612Y-142624759D01*
G04 #@! TD*
D18*
G04 #@! TO.C,H3*
X298500000Y-151500000D03*
G04 #@! TD*
D10*
G04 #@! TO.C,D3*
X272200000Y-176000000D03*
X277000000Y-176000000D03*
G04 #@! TD*
D15*
G04 #@! TO.C,X4*
X280100000Y-159700000D03*
X285100000Y-159700000D03*
X290100000Y-159700000D03*
X280100000Y-166800000D03*
X285100000Y-166800000D03*
X290100000Y-166800000D03*
G04 #@! TD*
D16*
G04 #@! TO.C,REF\002A\002A*
X245400000Y-203000000D03*
G04 #@! TD*
D12*
G04 #@! TO.C,R4*
X274100000Y-132000000D03*
X277000000Y-132000000D03*
G04 #@! TD*
G04 #@! TO.C,R9*
X277000000Y-173000000D03*
X274100000Y-173000000D03*
G04 #@! TD*
D18*
G04 #@! TO.C,H1*
X298500000Y-192500000D03*
G04 #@! TD*
D16*
G04 #@! TO.C,REF\002A\002A*
X235400000Y-198600000D03*
G04 #@! TD*
D13*
G04 #@! TO.C,X7*
X264000000Y-203940000D03*
X264000000Y-198860000D03*
G04 #@! TD*
D18*
G04 #@! TO.C,H2*
X305005382Y-188398781D03*
G04 #@! TD*
D10*
G04 #@! TO.C,D4*
X261000000Y-205000000D03*
X256200000Y-205000000D03*
G04 #@! TD*
D15*
G04 #@! TO.C,V1.1*
X211269138Y-193106452D03*
D17*
X210252296Y-190822588D02*
X212285980Y-195390316D01*
D15*
X222483625Y-193831226D03*
D17*
X220849708Y-196347238D02*
X224117542Y-191315214D01*
D15*
X216015189Y-184145704D03*
D17*
X213060766Y-184666649D02*
X218969612Y-183624759D01*
G04 #@! TD*
D15*
G04 #@! TO.C,X2*
X311000000Y-180000000D03*
X306000000Y-180000000D03*
X301000000Y-180000000D03*
X311000000Y-172900000D03*
X306000000Y-172900000D03*
X301000000Y-172900000D03*
G04 #@! TD*
D16*
G04 #@! TO.C,REF\002A\002A*
X245400000Y-161900000D03*
G04 #@! TD*
G04 #@! TO.C,REF\002A\002A*
X235300000Y-157600000D03*
G04 #@! TD*
D13*
G04 #@! TO.C,X14*
X264000000Y-157860000D03*
X264000000Y-162940000D03*
G04 #@! TD*
D14*
G04 #@! TO.C,X3*
X234920000Y-208000000D03*
X240000000Y-208000000D03*
G04 #@! TD*
G04 #@! TO.C,X6*
X296960000Y-167000000D03*
X302040000Y-167000000D03*
G04 #@! TD*
D16*
G04 #@! TO.C,REF\002A\002A*
X225300000Y-177900000D03*
G04 #@! TD*
D15*
G04 #@! TO.C,V1.2*
X259430862Y-187693548D03*
D17*
X260447704Y-189977412D02*
X258414020Y-185409684D01*
D15*
X248216375Y-186968774D03*
D17*
X249850292Y-184452762D02*
X246582458Y-189484786D01*
D15*
X254684811Y-196654296D03*
D17*
X257639234Y-196133351D02*
X251730388Y-197175241D01*
G04 #@! TD*
D10*
G04 #@! TO.C,D2*
X256200000Y-164000000D03*
X261000000Y-164000000D03*
G04 #@! TD*
D15*
G04 #@! TO.C,V2.2*
X259430862Y-146693548D03*
D17*
X260447704Y-148977412D02*
X258414020Y-144409684D01*
D15*
X248216375Y-145968774D03*
D17*
X249850292Y-143452762D02*
X246582458Y-148484786D01*
D15*
X254684811Y-155654296D03*
D17*
X257639234Y-155133351D02*
X251730388Y-156175241D01*
G04 #@! TD*
D13*
G04 #@! TO.C,X9*
X269000000Y-182000000D03*
X269000000Y-176920000D03*
G04 #@! TD*
D12*
G04 #@! TO.C,R8*
X323000000Y-208000000D03*
X325900000Y-208000000D03*
G04 #@! TD*
G04 #@! TO.C,R1*
X318100000Y-167000000D03*
X321000000Y-167000000D03*
G04 #@! TD*
D10*
G04 #@! TO.C,D1*
X277000000Y-135000000D03*
X272200000Y-135000000D03*
G04 #@! TD*
D12*
G04 #@! TO.C,R3*
X325900000Y-167000000D03*
X323000000Y-167000000D03*
G04 #@! TD*
D14*
G04 #@! TO.C,X6*
X110960000Y-167000000D03*
X116040000Y-167000000D03*
G04 #@! TD*
D12*
G04 #@! TO.C,R1*
X132100000Y-167000000D03*
X135000000Y-167000000D03*
G04 #@! TD*
G04 #@! TO.C,R8*
X137000000Y-208000000D03*
X139900000Y-208000000D03*
G04 #@! TD*
D10*
G04 #@! TO.C,D1*
X91000000Y-135000000D03*
X86200000Y-135000000D03*
G04 #@! TD*
D13*
G04 #@! TO.C,X9*
X83000000Y-182000000D03*
X83000000Y-176920000D03*
G04 #@! TD*
D12*
G04 #@! TO.C,R3*
X139900000Y-167000000D03*
X137000000Y-167000000D03*
G04 #@! TD*
D10*
G04 #@! TO.C,D3*
X86200000Y-176000000D03*
X91000000Y-176000000D03*
G04 #@! TD*
D15*
G04 #@! TO.C,X4*
X94100000Y-159700000D03*
X99100000Y-159700000D03*
X104100000Y-159700000D03*
X94100000Y-166800000D03*
X99100000Y-166800000D03*
X104100000Y-166800000D03*
G04 #@! TD*
D12*
G04 #@! TO.C,R4*
X88100000Y-132000000D03*
X91000000Y-132000000D03*
G04 #@! TD*
G04 #@! TO.C,R9*
X91000000Y-173000000D03*
X88100000Y-173000000D03*
G04 #@! TD*
D16*
G04 #@! TO.C,REF\002A\002A*
X101400000Y-136900000D03*
G04 #@! TD*
D15*
G04 #@! TO.C,X5*
X125000000Y-139000000D03*
X120000000Y-139000000D03*
X115000000Y-139000000D03*
X125000000Y-131900000D03*
X120000000Y-131900000D03*
X115000000Y-131900000D03*
G04 #@! TD*
D12*
G04 #@! TO.C,R2*
X86000000Y-132000000D03*
X83100000Y-132000000D03*
G04 #@! TD*
D15*
G04 #@! TO.C,X2*
X125000000Y-180000000D03*
X120000000Y-180000000D03*
X115000000Y-180000000D03*
X125000000Y-172900000D03*
X120000000Y-172900000D03*
X115000000Y-172900000D03*
G04 #@! TD*
G04 #@! TO.C,X1*
X94000000Y-201000000D03*
X99000000Y-201000000D03*
X104000000Y-201000000D03*
X94000000Y-208100000D03*
X99000000Y-208100000D03*
X104000000Y-208100000D03*
G04 #@! TD*
D12*
G04 #@! TO.C,R6*
X135000000Y-208000000D03*
X132100000Y-208000000D03*
G04 #@! TD*
D14*
G04 #@! TO.C,X12*
X105920000Y-183800000D03*
X111000000Y-183800000D03*
G04 #@! TD*
D12*
G04 #@! TO.C,R7*
X83100000Y-173000000D03*
X86000000Y-173000000D03*
G04 #@! TD*
D15*
G04 #@! TO.C,V2.1*
X149269138Y-152106452D03*
D17*
X148252296Y-149822588D02*
X150285980Y-154390316D01*
D15*
X160483625Y-152831226D03*
D17*
X158849708Y-155347238D02*
X162117542Y-150315214D01*
D15*
X154015189Y-143145704D03*
D17*
X151060766Y-143666649D02*
X156969612Y-142624759D01*
G04 #@! TD*
D16*
G04 #@! TO.C,REF\002A\002A*
X183400000Y-161900000D03*
G04 #@! TD*
G04 #@! TO.C,REF\002A\002A*
X163300000Y-177900000D03*
G04 #@! TD*
D10*
G04 #@! TO.C,D2*
X194200000Y-164000000D03*
X199000000Y-164000000D03*
G04 #@! TD*
D14*
G04 #@! TO.C,X3*
X172920000Y-208000000D03*
X178000000Y-208000000D03*
G04 #@! TD*
D18*
G04 #@! TO.C,H1*
X112500000Y-192500000D03*
G04 #@! TD*
D13*
G04 #@! TO.C,X17*
X145000000Y-135800000D03*
X145000000Y-140880000D03*
G04 #@! TD*
D15*
G04 #@! TO.C,V1.2*
X197430862Y-187693548D03*
D17*
X198447704Y-189977412D02*
X196414020Y-185409684D01*
D15*
X186216375Y-186968774D03*
D17*
X187850292Y-184452762D02*
X184582458Y-189484786D01*
D15*
X192684811Y-196654296D03*
D17*
X195639234Y-196133351D02*
X189730388Y-197175241D01*
G04 #@! TD*
D15*
G04 #@! TO.C,V2.2*
X197430862Y-146693548D03*
D17*
X198447704Y-148977412D02*
X196414020Y-144409684D01*
D15*
X186216375Y-145968774D03*
D17*
X187850292Y-143452762D02*
X184582458Y-148484786D01*
D15*
X192684811Y-155654296D03*
D17*
X195639234Y-155133351D02*
X189730388Y-156175241D01*
G04 #@! TD*
D13*
G04 #@! TO.C,X14*
X202000000Y-157860000D03*
X202000000Y-162940000D03*
G04 #@! TD*
D18*
G04 #@! TO.C,H3*
X112500000Y-151500000D03*
G04 #@! TD*
D13*
G04 #@! TO.C,X7*
X202000000Y-203940000D03*
X202000000Y-198860000D03*
G04 #@! TD*
D18*
G04 #@! TO.C,H2*
X119005382Y-188398781D03*
G04 #@! TD*
G04 #@! TO.C,H4*
X119005382Y-147398781D03*
G04 #@! TD*
D16*
G04 #@! TO.C,REF\002A\002A*
X173400000Y-198600000D03*
G04 #@! TD*
D15*
G04 #@! TO.C,V1.1*
X149269138Y-193106452D03*
D17*
X148252296Y-190822588D02*
X150285980Y-195390316D01*
D15*
X160483625Y-193831226D03*
D17*
X158849708Y-196347238D02*
X162117542Y-191315214D01*
D15*
X154015189Y-184145704D03*
D17*
X151060766Y-184666649D02*
X156969612Y-183624759D01*
G04 #@! TD*
D16*
G04 #@! TO.C,REF\002A\002A*
X183400000Y-203000000D03*
G04 #@! TD*
G04 #@! TO.C,REF\002A\002A*
X173300000Y-157600000D03*
G04 #@! TD*
D12*
G04 #@! TO.C,R4*
X153000000Y-132000000D03*
X150100000Y-132000000D03*
G04 #@! TD*
D10*
G04 #@! TO.C,D4*
X199000000Y-205000000D03*
X194200000Y-205000000D03*
G04 #@! TD*
D12*
G04 #@! TO.C,R9*
X150100000Y-173000000D03*
X153000000Y-173000000D03*
G04 #@! TD*
D14*
G04 #@! TO.C,X26*
X173000000Y-142800000D03*
X167920000Y-142800000D03*
G04 #@! TD*
D10*
G04 #@! TO.C,D3*
X153000000Y-176000000D03*
X148200000Y-176000000D03*
G04 #@! TD*
D18*
G04 #@! TO.C,H3*
X174500000Y-151500000D03*
G04 #@! TD*
D15*
G04 #@! TO.C,X4*
X166100000Y-166800000D03*
X161100000Y-166800000D03*
X156100000Y-166800000D03*
X166100000Y-159700000D03*
X161100000Y-159700000D03*
X156100000Y-159700000D03*
G04 #@! TD*
D18*
G04 #@! TO.C,H4*
X181005382Y-147398781D03*
G04 #@! TD*
D16*
G04 #@! TO.C,REF\002A\002A*
X163400000Y-136900000D03*
G04 #@! TD*
D12*
G04 #@! TO.C,R2*
X145100000Y-132000000D03*
X148000000Y-132000000D03*
G04 #@! TD*
D14*
G04 #@! TO.C,X12*
X173000000Y-183800000D03*
X167920000Y-183800000D03*
G04 #@! TD*
D12*
G04 #@! TO.C,R7*
X148000000Y-173000000D03*
X145100000Y-173000000D03*
G04 #@! TD*
D15*
G04 #@! TO.C,X5*
X177000000Y-131900000D03*
X182000000Y-131900000D03*
X187000000Y-131900000D03*
X177000000Y-139000000D03*
X182000000Y-139000000D03*
X187000000Y-139000000D03*
G04 #@! TD*
D12*
G04 #@! TO.C,R6*
X194100000Y-208000000D03*
X197000000Y-208000000D03*
G04 #@! TD*
D15*
G04 #@! TO.C,X2*
X177000000Y-172900000D03*
X182000000Y-172900000D03*
X187000000Y-172900000D03*
X177000000Y-180000000D03*
X182000000Y-180000000D03*
X187000000Y-180000000D03*
G04 #@! TD*
D18*
G04 #@! TO.C,H1*
X174500000Y-192500000D03*
G04 #@! TD*
D15*
G04 #@! TO.C,X1*
X166000000Y-208100000D03*
X161000000Y-208100000D03*
X156000000Y-208100000D03*
X166000000Y-201000000D03*
X161000000Y-201000000D03*
X156000000Y-201000000D03*
G04 #@! TD*
D18*
G04 #@! TO.C,H2*
X181005382Y-188398781D03*
G04 #@! TD*
D10*
G04 #@! TO.C,D4*
X132200000Y-205000000D03*
X137000000Y-205000000D03*
G04 #@! TD*
D14*
G04 #@! TO.C,X26*
X105920000Y-142800000D03*
X111000000Y-142800000D03*
G04 #@! TD*
D15*
G04 #@! TO.C,V1.1*
X92015189Y-184145704D03*
D17*
X89060766Y-184666649D02*
X94969612Y-183624759D01*
D15*
X98483625Y-193831226D03*
D17*
X96849708Y-196347238D02*
X100117542Y-191315214D01*
D15*
X87269138Y-193106452D03*
D17*
X86252296Y-190822588D02*
X88285980Y-195390316D01*
G04 #@! TD*
D16*
G04 #@! TO.C,REF\002A\002A*
X111300000Y-157600000D03*
G04 #@! TD*
G04 #@! TO.C,REF\002A\002A*
X121400000Y-203000000D03*
G04 #@! TD*
G04 #@! TO.C,REF\002A\002A*
X111400000Y-198600000D03*
G04 #@! TD*
G04 #@! TO.C,REF\002A\002A*
X121400000Y-161900000D03*
G04 #@! TD*
D15*
G04 #@! TO.C,V2.1*
X92015189Y-143145704D03*
D17*
X89060766Y-143666649D02*
X94969612Y-142624759D01*
D15*
X98483625Y-152831226D03*
D17*
X96849708Y-155347238D02*
X100117542Y-150315214D01*
D15*
X87269138Y-152106452D03*
D17*
X86252296Y-149822588D02*
X88285980Y-154390316D01*
G04 #@! TD*
D13*
G04 #@! TO.C,X7*
X140000000Y-198860000D03*
X140000000Y-203940000D03*
G04 #@! TD*
G04 #@! TO.C,X17*
X83000000Y-140880000D03*
X83000000Y-135800000D03*
G04 #@! TD*
D16*
G04 #@! TO.C,REF\002A\002A*
X101300000Y-177900000D03*
G04 #@! TD*
D15*
G04 #@! TO.C,V1.2*
X130684811Y-196654296D03*
D17*
X133639234Y-196133351D02*
X127730388Y-197175241D01*
D15*
X124216375Y-186968774D03*
D17*
X125850292Y-184452762D02*
X122582458Y-189484786D01*
D15*
X135430862Y-187693548D03*
D17*
X136447704Y-189977412D02*
X134414020Y-185409684D01*
G04 #@! TD*
D10*
G04 #@! TO.C,D2*
X137000000Y-164000000D03*
X132200000Y-164000000D03*
G04 #@! TD*
D15*
G04 #@! TO.C,V2.2*
X130684811Y-155654296D03*
D17*
X133639234Y-155133351D02*
X127730388Y-156175241D01*
D15*
X124216375Y-145968774D03*
D17*
X125850292Y-143452762D02*
X122582458Y-148484786D01*
D15*
X135430862Y-146693548D03*
D17*
X136447704Y-148977412D02*
X134414020Y-144409684D01*
G04 #@! TD*
D14*
G04 #@! TO.C,X3*
X116000000Y-208000000D03*
X110920000Y-208000000D03*
G04 #@! TD*
D13*
G04 #@! TO.C,X14*
X140000000Y-162940000D03*
X140000000Y-157860000D03*
G04 #@! TD*
G04 #@! TO.C,X9*
X145000000Y-176920000D03*
X145000000Y-182000000D03*
G04 #@! TD*
D14*
G04 #@! TO.C,X6*
X178040000Y-167000000D03*
X172960000Y-167000000D03*
G04 #@! TD*
D12*
G04 #@! TO.C,R8*
X201900000Y-208000000D03*
X199000000Y-208000000D03*
G04 #@! TD*
G04 #@! TO.C,R1*
X197000000Y-167000000D03*
X194100000Y-167000000D03*
G04 #@! TD*
G04 #@! TO.C,R3*
X199000000Y-167000000D03*
X201900000Y-167000000D03*
G04 #@! TD*
D10*
G04 #@! TO.C,D1*
X148200000Y-135000000D03*
X153000000Y-135000000D03*
G04 #@! TD*
D14*
G04 #@! TO.C,X6*
X234960000Y-85000000D03*
X240040000Y-85000000D03*
G04 #@! TD*
D12*
G04 #@! TO.C,R1*
X256100000Y-85000000D03*
X259000000Y-85000000D03*
G04 #@! TD*
G04 #@! TO.C,R8*
X261000000Y-126000000D03*
X263900000Y-126000000D03*
G04 #@! TD*
D13*
G04 #@! TO.C,X9*
X207000000Y-100000000D03*
X207000000Y-94920000D03*
G04 #@! TD*
D12*
G04 #@! TO.C,R3*
X263900000Y-85000000D03*
X261000000Y-85000000D03*
G04 #@! TD*
D10*
G04 #@! TO.C,D3*
X210200000Y-94000000D03*
X215000000Y-94000000D03*
G04 #@! TD*
D15*
G04 #@! TO.C,X4*
X218100000Y-77700000D03*
X223100000Y-77700000D03*
X228100000Y-77700000D03*
X218100000Y-84800000D03*
X223100000Y-84800000D03*
X228100000Y-84800000D03*
G04 #@! TD*
D12*
G04 #@! TO.C,R4*
X212100000Y-50000000D03*
X215000000Y-50000000D03*
G04 #@! TD*
G04 #@! TO.C,R9*
X215000000Y-91000000D03*
X212100000Y-91000000D03*
G04 #@! TD*
D16*
G04 #@! TO.C,REF\002A\002A*
X225400000Y-54900000D03*
G04 #@! TD*
D15*
G04 #@! TO.C,X5*
X249000000Y-57000000D03*
X244000000Y-57000000D03*
X239000000Y-57000000D03*
X249000000Y-49900000D03*
X244000000Y-49900000D03*
X239000000Y-49900000D03*
G04 #@! TD*
D12*
G04 #@! TO.C,R2*
X210000000Y-50000000D03*
X207100000Y-50000000D03*
G04 #@! TD*
D15*
G04 #@! TO.C,X2*
X249000000Y-98000000D03*
X244000000Y-98000000D03*
X239000000Y-98000000D03*
X249000000Y-90900000D03*
X244000000Y-90900000D03*
X239000000Y-90900000D03*
G04 #@! TD*
G04 #@! TO.C,X1*
X218000000Y-119000000D03*
X223000000Y-119000000D03*
X228000000Y-119000000D03*
X218000000Y-126100000D03*
X223000000Y-126100000D03*
X228000000Y-126100000D03*
G04 #@! TD*
D12*
G04 #@! TO.C,R6*
X259000000Y-126000000D03*
X256100000Y-126000000D03*
G04 #@! TD*
D14*
G04 #@! TO.C,X12*
X229920000Y-101800000D03*
X235000000Y-101800000D03*
G04 #@! TD*
D12*
G04 #@! TO.C,R7*
X207100000Y-91000000D03*
X210000000Y-91000000D03*
G04 #@! TD*
D15*
G04 #@! TO.C,V2.1*
X273269138Y-70106452D03*
D17*
X272252296Y-67822588D02*
X274285980Y-72390316D01*
D15*
X284483625Y-70831226D03*
D17*
X282849708Y-73347238D02*
X286117542Y-68315214D01*
D15*
X278015189Y-61145704D03*
D17*
X275060766Y-61666649D02*
X280969612Y-60624759D01*
G04 #@! TD*
D16*
G04 #@! TO.C,REF\002A\002A*
X307400000Y-79900000D03*
G04 #@! TD*
G04 #@! TO.C,REF\002A\002A*
X287300000Y-95900000D03*
G04 #@! TD*
D10*
G04 #@! TO.C,D2*
X318200000Y-82000000D03*
X323000000Y-82000000D03*
G04 #@! TD*
D14*
G04 #@! TO.C,X3*
X296920000Y-126000000D03*
X302000000Y-126000000D03*
G04 #@! TD*
D18*
G04 #@! TO.C,H1*
X236500000Y-110500000D03*
G04 #@! TD*
D13*
G04 #@! TO.C,X17*
X269000000Y-53800000D03*
X269000000Y-58880000D03*
G04 #@! TD*
D15*
G04 #@! TO.C,V1.2*
X321430862Y-105693548D03*
D17*
X322447704Y-107977412D02*
X320414020Y-103409684D01*
D15*
X310216375Y-104968774D03*
D17*
X311850292Y-102452762D02*
X308582458Y-107484786D01*
D15*
X316684811Y-114654296D03*
D17*
X319639234Y-114133351D02*
X313730388Y-115175241D01*
G04 #@! TD*
D15*
G04 #@! TO.C,V2.2*
X321430862Y-64693548D03*
D17*
X322447704Y-66977412D02*
X320414020Y-62409684D01*
D15*
X310216375Y-63968774D03*
D17*
X311850292Y-61452762D02*
X308582458Y-66484786D01*
D15*
X316684811Y-73654296D03*
D17*
X319639234Y-73133351D02*
X313730388Y-74175241D01*
G04 #@! TD*
D13*
G04 #@! TO.C,X14*
X326000000Y-75860000D03*
X326000000Y-80940000D03*
G04 #@! TD*
D18*
G04 #@! TO.C,H3*
X236500000Y-69500000D03*
G04 #@! TD*
D13*
G04 #@! TO.C,X7*
X326000000Y-121940000D03*
X326000000Y-116860000D03*
G04 #@! TD*
D18*
G04 #@! TO.C,H2*
X243005382Y-106398781D03*
G04 #@! TD*
G04 #@! TO.C,H4*
X243005382Y-65398781D03*
G04 #@! TD*
D16*
G04 #@! TO.C,REF\002A\002A*
X297400000Y-116600000D03*
G04 #@! TD*
D15*
G04 #@! TO.C,V1.1*
X273269138Y-111106452D03*
D17*
X272252296Y-108822588D02*
X274285980Y-113390316D01*
D15*
X284483625Y-111831226D03*
D17*
X282849708Y-114347238D02*
X286117542Y-109315214D01*
D15*
X278015189Y-102145704D03*
D17*
X275060766Y-102666649D02*
X280969612Y-101624759D01*
G04 #@! TD*
D16*
G04 #@! TO.C,REF\002A\002A*
X307400000Y-121000000D03*
G04 #@! TD*
G04 #@! TO.C,REF\002A\002A*
X297300000Y-75600000D03*
G04 #@! TD*
D12*
G04 #@! TO.C,R4*
X277000000Y-50000000D03*
X274100000Y-50000000D03*
G04 #@! TD*
D10*
G04 #@! TO.C,D4*
X323000000Y-123000000D03*
X318200000Y-123000000D03*
G04 #@! TD*
D12*
G04 #@! TO.C,R9*
X274100000Y-91000000D03*
X277000000Y-91000000D03*
G04 #@! TD*
D14*
G04 #@! TO.C,X26*
X297000000Y-60800000D03*
X291920000Y-60800000D03*
G04 #@! TD*
D10*
G04 #@! TO.C,D3*
X277000000Y-94000000D03*
X272200000Y-94000000D03*
G04 #@! TD*
D18*
G04 #@! TO.C,H3*
X298500000Y-69500000D03*
G04 #@! TD*
D15*
G04 #@! TO.C,X4*
X290100000Y-84800000D03*
X285100000Y-84800000D03*
X280100000Y-84800000D03*
X290100000Y-77700000D03*
X285100000Y-77700000D03*
X280100000Y-77700000D03*
G04 #@! TD*
D18*
G04 #@! TO.C,H4*
X305005382Y-65398781D03*
G04 #@! TD*
D16*
G04 #@! TO.C,REF\002A\002A*
X287400000Y-54900000D03*
G04 #@! TD*
D12*
G04 #@! TO.C,R2*
X269100000Y-50000000D03*
X272000000Y-50000000D03*
G04 #@! TD*
D14*
G04 #@! TO.C,X12*
X297000000Y-101800000D03*
X291920000Y-101800000D03*
G04 #@! TD*
D12*
G04 #@! TO.C,R7*
X272000000Y-91000000D03*
X269100000Y-91000000D03*
G04 #@! TD*
D15*
G04 #@! TO.C,X5*
X301000000Y-49900000D03*
X306000000Y-49900000D03*
X311000000Y-49900000D03*
X301000000Y-57000000D03*
X306000000Y-57000000D03*
X311000000Y-57000000D03*
G04 #@! TD*
D12*
G04 #@! TO.C,R6*
X318100000Y-126000000D03*
X321000000Y-126000000D03*
G04 #@! TD*
D15*
G04 #@! TO.C,X2*
X301000000Y-90900000D03*
X306000000Y-90900000D03*
X311000000Y-90900000D03*
X301000000Y-98000000D03*
X306000000Y-98000000D03*
X311000000Y-98000000D03*
G04 #@! TD*
D18*
G04 #@! TO.C,H1*
X298500000Y-110500000D03*
G04 #@! TD*
D15*
G04 #@! TO.C,X1*
X290000000Y-126100000D03*
X285000000Y-126100000D03*
X280000000Y-126100000D03*
X290000000Y-119000000D03*
X285000000Y-119000000D03*
X280000000Y-119000000D03*
G04 #@! TD*
D18*
G04 #@! TO.C,H2*
X305005382Y-106398781D03*
G04 #@! TD*
D10*
G04 #@! TO.C,D4*
X256200000Y-123000000D03*
X261000000Y-123000000D03*
G04 #@! TD*
D14*
G04 #@! TO.C,X26*
X229920000Y-60800000D03*
X235000000Y-60800000D03*
G04 #@! TD*
D15*
G04 #@! TO.C,V1.1*
X216015189Y-102145704D03*
D17*
X213060766Y-102666649D02*
X218969612Y-101624759D01*
D15*
X222483625Y-111831226D03*
D17*
X220849708Y-114347238D02*
X224117542Y-109315214D01*
D15*
X211269138Y-111106452D03*
D17*
X210252296Y-108822588D02*
X212285980Y-113390316D01*
G04 #@! TD*
D16*
G04 #@! TO.C,REF\002A\002A*
X235300000Y-75600000D03*
G04 #@! TD*
G04 #@! TO.C,REF\002A\002A*
X245400000Y-121000000D03*
G04 #@! TD*
G04 #@! TO.C,REF\002A\002A*
X235400000Y-116600000D03*
G04 #@! TD*
G04 #@! TO.C,REF\002A\002A*
X245400000Y-79900000D03*
G04 #@! TD*
D15*
G04 #@! TO.C,V2.1*
X216015189Y-61145704D03*
D17*
X213060766Y-61666649D02*
X218969612Y-60624759D01*
D15*
X222483625Y-70831226D03*
D17*
X220849708Y-73347238D02*
X224117542Y-68315214D01*
D15*
X211269138Y-70106452D03*
D17*
X210252296Y-67822588D02*
X212285980Y-72390316D01*
G04 #@! TD*
D13*
G04 #@! TO.C,X7*
X264000000Y-116860000D03*
X264000000Y-121940000D03*
G04 #@! TD*
G04 #@! TO.C,X17*
X207000000Y-58880000D03*
X207000000Y-53800000D03*
G04 #@! TD*
D16*
G04 #@! TO.C,REF\002A\002A*
X225300000Y-95900000D03*
G04 #@! TD*
D15*
G04 #@! TO.C,V1.2*
X254684811Y-114654296D03*
D17*
X257639234Y-114133351D02*
X251730388Y-115175241D01*
D15*
X248216375Y-104968774D03*
D17*
X249850292Y-102452762D02*
X246582458Y-107484786D01*
D15*
X259430862Y-105693548D03*
D17*
X260447704Y-107977412D02*
X258414020Y-103409684D01*
G04 #@! TD*
D10*
G04 #@! TO.C,D2*
X261000000Y-82000000D03*
X256200000Y-82000000D03*
G04 #@! TD*
D15*
G04 #@! TO.C,V2.2*
X254684811Y-73654296D03*
D17*
X257639234Y-73133351D02*
X251730388Y-74175241D01*
D15*
X248216375Y-63968774D03*
D17*
X249850292Y-61452762D02*
X246582458Y-66484786D01*
D15*
X259430862Y-64693548D03*
D17*
X260447704Y-66977412D02*
X258414020Y-62409684D01*
G04 #@! TD*
D14*
G04 #@! TO.C,X3*
X240000000Y-126000000D03*
X234920000Y-126000000D03*
G04 #@! TD*
D13*
G04 #@! TO.C,X14*
X264000000Y-80940000D03*
X264000000Y-75860000D03*
G04 #@! TD*
G04 #@! TO.C,X9*
X269000000Y-94920000D03*
X269000000Y-100000000D03*
G04 #@! TD*
D14*
G04 #@! TO.C,X6*
X302040000Y-85000000D03*
X296960000Y-85000000D03*
G04 #@! TD*
D12*
G04 #@! TO.C,R8*
X325900000Y-126000000D03*
X323000000Y-126000000D03*
G04 #@! TD*
G04 #@! TO.C,R1*
X321000000Y-85000000D03*
X318100000Y-85000000D03*
G04 #@! TD*
G04 #@! TO.C,R3*
X323000000Y-85000000D03*
X325900000Y-85000000D03*
G04 #@! TD*
D10*
G04 #@! TO.C,D1*
X272200000Y-53000000D03*
X277000000Y-53000000D03*
G04 #@! TD*
D14*
G04 #@! TO.C,X6*
X172960000Y-85000000D03*
X178040000Y-85000000D03*
G04 #@! TD*
D12*
G04 #@! TO.C,R1*
X194100000Y-85000000D03*
X197000000Y-85000000D03*
G04 #@! TD*
G04 #@! TO.C,R8*
X199000000Y-126000000D03*
X201900000Y-126000000D03*
G04 #@! TD*
D10*
G04 #@! TO.C,D1*
X153000000Y-53000000D03*
X148200000Y-53000000D03*
G04 #@! TD*
D13*
G04 #@! TO.C,X9*
X145000000Y-100000000D03*
X145000000Y-94920000D03*
G04 #@! TD*
D12*
G04 #@! TO.C,R3*
X201900000Y-85000000D03*
X199000000Y-85000000D03*
G04 #@! TD*
D10*
G04 #@! TO.C,D3*
X148200000Y-94000000D03*
X153000000Y-94000000D03*
G04 #@! TD*
D15*
G04 #@! TO.C,X4*
X156100000Y-77700000D03*
X161100000Y-77700000D03*
X166100000Y-77700000D03*
X156100000Y-84800000D03*
X161100000Y-84800000D03*
X166100000Y-84800000D03*
G04 #@! TD*
D12*
G04 #@! TO.C,R4*
X150100000Y-50000000D03*
X153000000Y-50000000D03*
G04 #@! TD*
G04 #@! TO.C,R9*
X153000000Y-91000000D03*
X150100000Y-91000000D03*
G04 #@! TD*
D16*
G04 #@! TO.C,REF\002A\002A*
X163400000Y-54900000D03*
G04 #@! TD*
D15*
G04 #@! TO.C,X5*
X187000000Y-57000000D03*
X182000000Y-57000000D03*
X177000000Y-57000000D03*
X187000000Y-49900000D03*
X182000000Y-49900000D03*
X177000000Y-49900000D03*
G04 #@! TD*
D12*
G04 #@! TO.C,R2*
X148000000Y-50000000D03*
X145100000Y-50000000D03*
G04 #@! TD*
D15*
G04 #@! TO.C,X2*
X187000000Y-98000000D03*
X182000000Y-98000000D03*
X177000000Y-98000000D03*
X187000000Y-90900000D03*
X182000000Y-90900000D03*
X177000000Y-90900000D03*
G04 #@! TD*
G04 #@! TO.C,X1*
X156000000Y-119000000D03*
X161000000Y-119000000D03*
X166000000Y-119000000D03*
X156000000Y-126100000D03*
X161000000Y-126100000D03*
X166000000Y-126100000D03*
G04 #@! TD*
D12*
G04 #@! TO.C,R6*
X197000000Y-126000000D03*
X194100000Y-126000000D03*
G04 #@! TD*
D14*
G04 #@! TO.C,X12*
X167920000Y-101800000D03*
X173000000Y-101800000D03*
G04 #@! TD*
D12*
G04 #@! TO.C,R7*
X145100000Y-91000000D03*
X148000000Y-91000000D03*
G04 #@! TD*
D18*
G04 #@! TO.C,H1*
X174500000Y-110500000D03*
G04 #@! TD*
G04 #@! TO.C,H3*
X174500000Y-69500000D03*
G04 #@! TD*
G04 #@! TO.C,H2*
X181005382Y-106398781D03*
G04 #@! TD*
G04 #@! TO.C,H4*
X181005382Y-65398781D03*
G04 #@! TD*
D10*
G04 #@! TO.C,D4*
X194200000Y-123000000D03*
X199000000Y-123000000D03*
G04 #@! TD*
D14*
G04 #@! TO.C,X26*
X167920000Y-60800000D03*
X173000000Y-60800000D03*
G04 #@! TD*
D15*
G04 #@! TO.C,V1.1*
X154015189Y-102145704D03*
D17*
X151060766Y-102666649D02*
X156969612Y-101624759D01*
D15*
X160483625Y-111831226D03*
D17*
X158849708Y-114347238D02*
X162117542Y-109315214D01*
D15*
X149269138Y-111106452D03*
D17*
X148252296Y-108822588D02*
X150285980Y-113390316D01*
G04 #@! TD*
D16*
G04 #@! TO.C,REF\002A\002A*
X173300000Y-75600000D03*
G04 #@! TD*
G04 #@! TO.C,REF\002A\002A*
X183400000Y-121000000D03*
G04 #@! TD*
G04 #@! TO.C,REF\002A\002A*
X173400000Y-116600000D03*
G04 #@! TD*
G04 #@! TO.C,REF\002A\002A*
X183400000Y-79900000D03*
G04 #@! TD*
D15*
G04 #@! TO.C,V2.1*
X154015189Y-61145704D03*
D17*
X151060766Y-61666649D02*
X156969612Y-60624759D01*
D15*
X160483625Y-70831226D03*
D17*
X158849708Y-73347238D02*
X162117542Y-68315214D01*
D15*
X149269138Y-70106452D03*
D17*
X148252296Y-67822588D02*
X150285980Y-72390316D01*
G04 #@! TD*
D13*
G04 #@! TO.C,X7*
X202000000Y-116860000D03*
X202000000Y-121940000D03*
G04 #@! TD*
G04 #@! TO.C,X17*
X145000000Y-58880000D03*
X145000000Y-53800000D03*
G04 #@! TD*
D16*
G04 #@! TO.C,REF\002A\002A*
X163300000Y-95900000D03*
G04 #@! TD*
D15*
G04 #@! TO.C,V1.2*
X192684811Y-114654296D03*
D17*
X195639234Y-114133351D02*
X189730388Y-115175241D01*
D15*
X186216375Y-104968774D03*
D17*
X187850292Y-102452762D02*
X184582458Y-107484786D01*
D15*
X197430862Y-105693548D03*
D17*
X198447704Y-107977412D02*
X196414020Y-103409684D01*
G04 #@! TD*
D10*
G04 #@! TO.C,D2*
X199000000Y-82000000D03*
X194200000Y-82000000D03*
G04 #@! TD*
D15*
G04 #@! TO.C,V2.2*
X192684811Y-73654296D03*
D17*
X195639234Y-73133351D02*
X189730388Y-74175241D01*
D15*
X186216375Y-63968774D03*
D17*
X187850292Y-61452762D02*
X184582458Y-66484786D01*
D15*
X197430862Y-64693548D03*
D17*
X198447704Y-66977412D02*
X196414020Y-62409684D01*
G04 #@! TD*
D14*
G04 #@! TO.C,X3*
X178000000Y-126000000D03*
X172920000Y-126000000D03*
G04 #@! TD*
D13*
G04 #@! TO.C,X14*
X202000000Y-80940000D03*
X202000000Y-75860000D03*
G04 #@! TD*
D14*
G04 #@! TO.C,X3*
X110920000Y-126000000D03*
X116000000Y-126000000D03*
G04 #@! TD*
D15*
G04 #@! TO.C,V1.2*
X135430862Y-105693548D03*
D17*
X136447704Y-107977412D02*
X134414020Y-103409684D01*
D15*
X124216375Y-104968774D03*
D17*
X125850292Y-102452762D02*
X122582458Y-107484786D01*
D15*
X130684811Y-114654296D03*
D17*
X133639234Y-114133351D02*
X127730388Y-115175241D01*
G04 #@! TD*
D15*
G04 #@! TO.C,V2.1*
X87269138Y-70106452D03*
D17*
X86252296Y-67822588D02*
X88285980Y-72390316D01*
D15*
X98483625Y-70831226D03*
D17*
X96849708Y-73347238D02*
X100117542Y-68315214D01*
D15*
X92015189Y-61145704D03*
D17*
X89060766Y-61666649D02*
X94969612Y-60624759D01*
G04 #@! TD*
D16*
G04 #@! TO.C,REF\002A\002A*
X121400000Y-121000000D03*
G04 #@! TD*
G04 #@! TO.C,REF\002A\002A*
X111400000Y-116600000D03*
G04 #@! TD*
G04 #@! TO.C,REF\002A\002A*
X101300000Y-95900000D03*
G04 #@! TD*
G04 #@! TO.C,REF\002A\002A*
X121400000Y-79900000D03*
G04 #@! TD*
G04 #@! TO.C,REF\002A\002A*
X111300000Y-75600000D03*
G04 #@! TD*
D15*
G04 #@! TO.C,V1.1*
X87269138Y-111106452D03*
D17*
X86252296Y-108822588D02*
X88285980Y-113390316D01*
D15*
X98483625Y-111831226D03*
D17*
X96849708Y-114347238D02*
X100117542Y-109315214D01*
D15*
X92015189Y-102145704D03*
D17*
X89060766Y-102666649D02*
X94969612Y-101624759D01*
G04 #@! TD*
D15*
G04 #@! TO.C,V2.2*
X135430862Y-64693548D03*
D17*
X136447704Y-66977412D02*
X134414020Y-62409684D01*
D15*
X124216375Y-63968774D03*
D17*
X125850292Y-61452762D02*
X122582458Y-66484786D01*
D15*
X130684811Y-73654296D03*
D17*
X133639234Y-73133351D02*
X127730388Y-74175241D01*
G04 #@! TD*
D13*
G04 #@! TO.C,X14*
X140000000Y-75860000D03*
X140000000Y-80940000D03*
G04 #@! TD*
G04 #@! TO.C,X17*
X83000000Y-53800000D03*
X83000000Y-58880000D03*
G04 #@! TD*
D14*
G04 #@! TO.C,X26*
X111000000Y-60800000D03*
X105920000Y-60800000D03*
G04 #@! TD*
D10*
G04 #@! TO.C,D4*
X137000000Y-123000000D03*
X132200000Y-123000000D03*
G04 #@! TD*
G04 #@! TO.C,D2*
X132200000Y-82000000D03*
X137000000Y-82000000D03*
G04 #@! TD*
D13*
G04 #@! TO.C,X7*
X140000000Y-121940000D03*
X140000000Y-116860000D03*
G04 #@! TD*
D14*
G04 #@! TO.C,X12*
X111000000Y-101800000D03*
X105920000Y-101800000D03*
G04 #@! TD*
D10*
G04 #@! TO.C,D3*
X91000000Y-94000000D03*
X86200000Y-94000000D03*
G04 #@! TD*
D12*
G04 #@! TO.C,R6*
X132100000Y-126000000D03*
X135000000Y-126000000D03*
G04 #@! TD*
G04 #@! TO.C,R8*
X139900000Y-126000000D03*
X137000000Y-126000000D03*
G04 #@! TD*
G04 #@! TO.C,R7*
X86000000Y-91000000D03*
X83100000Y-91000000D03*
G04 #@! TD*
G04 #@! TO.C,R9*
X88100000Y-91000000D03*
X91000000Y-91000000D03*
G04 #@! TD*
D10*
G04 #@! TO.C,D1*
X86200000Y-53000000D03*
X91000000Y-53000000D03*
G04 #@! TD*
D12*
G04 #@! TO.C,R4*
X91000000Y-50000000D03*
X88100000Y-50000000D03*
G04 #@! TD*
G04 #@! TO.C,R3*
X137000000Y-85000000D03*
X139900000Y-85000000D03*
G04 #@! TD*
G04 #@! TO.C,R2*
X83100000Y-50000000D03*
X86000000Y-50000000D03*
G04 #@! TD*
G04 #@! TO.C,R1*
X135000000Y-85000000D03*
X132100000Y-85000000D03*
G04 #@! TD*
D13*
G04 #@! TO.C,X9*
X83000000Y-94920000D03*
X83000000Y-100000000D03*
G04 #@! TD*
D14*
G04 #@! TO.C,X6*
X116040000Y-85000000D03*
X110960000Y-85000000D03*
G04 #@! TD*
D15*
G04 #@! TO.C,X1*
X104000000Y-126100000D03*
X99000000Y-126100000D03*
X94000000Y-126100000D03*
X104000000Y-119000000D03*
X99000000Y-119000000D03*
X94000000Y-119000000D03*
G04 #@! TD*
G04 #@! TO.C,X2*
X115000000Y-90900000D03*
X120000000Y-90900000D03*
X125000000Y-90900000D03*
X115000000Y-98000000D03*
X120000000Y-98000000D03*
X125000000Y-98000000D03*
G04 #@! TD*
G04 #@! TO.C,X4*
X104100000Y-84800000D03*
X99100000Y-84800000D03*
X94100000Y-84800000D03*
X104100000Y-77700000D03*
X99100000Y-77700000D03*
X94100000Y-77700000D03*
G04 #@! TD*
G04 #@! TO.C,X5*
X115000000Y-49900000D03*
X120000000Y-49900000D03*
X125000000Y-49900000D03*
X115000000Y-57000000D03*
X120000000Y-57000000D03*
X125000000Y-57000000D03*
G04 #@! TD*
D16*
G04 #@! TO.C,REF\002A\002A*
X101400000Y-54900000D03*
G04 #@! TD*
D18*
G04 #@! TO.C,H1*
X112500000Y-110500000D03*
G04 #@! TD*
G04 #@! TO.C,H2*
X119005382Y-106398781D03*
G04 #@! TD*
G04 #@! TO.C,H3*
X112500000Y-69500000D03*
G04 #@! TD*
G04 #@! TO.C,H4*
X119005382Y-65398781D03*
G04 #@! TD*
D11*
G04 #@! TO.C,REF01*
X78000000Y-213000000D03*
G04 #@! TD*
D19*
G36*
X127873000Y-62947394D02*
X125910197Y-64910197D01*
X125882667Y-64951399D01*
X125873000Y-65000000D01*
X125873000Y-68873000D01*
X121047376Y-68873000D01*
X113627000Y-62442008D01*
X113627000Y-59000000D01*
X113617333Y-58951399D01*
X113589803Y-58910197D01*
X113548601Y-58882667D01*
X113500000Y-58873000D01*
X103500000Y-58873000D01*
X103451399Y-58882667D01*
X103410197Y-58910197D01*
X103382667Y-58951399D01*
X103373000Y-59000000D01*
X103373000Y-61947394D01*
X101947394Y-63373000D01*
X88052606Y-63373000D01*
X87127000Y-62447394D01*
X87127000Y-60052606D01*
X89552606Y-57627000D01*
X95000000Y-57627000D01*
X95048601Y-57617333D01*
X95089803Y-57589803D01*
X95117333Y-57548601D01*
X95127000Y-57500000D01*
X95127000Y-48127000D01*
X127873000Y-48127000D01*
X127873000Y-62947394D01*
X127873000Y-62947394D01*
G37*
X127873000Y-62947394D02*
X125910197Y-64910197D01*
X125882667Y-64951399D01*
X125873000Y-65000000D01*
X125873000Y-68873000D01*
X121047376Y-68873000D01*
X113627000Y-62442008D01*
X113627000Y-59000000D01*
X113617333Y-58951399D01*
X113589803Y-58910197D01*
X113548601Y-58882667D01*
X113500000Y-58873000D01*
X103500000Y-58873000D01*
X103451399Y-58882667D01*
X103410197Y-58910197D01*
X103382667Y-58951399D01*
X103373000Y-59000000D01*
X103373000Y-61947394D01*
X101947394Y-63373000D01*
X88052606Y-63373000D01*
X87127000Y-62447394D01*
X87127000Y-60052606D01*
X89552606Y-57627000D01*
X95000000Y-57627000D01*
X95048601Y-57617333D01*
X95089803Y-57589803D01*
X95117333Y-57548601D01*
X95127000Y-57500000D01*
X95127000Y-48127000D01*
X127873000Y-48127000D01*
X127873000Y-62947394D01*
G36*
X116918697Y-71097564D02*
X116962222Y-71121251D01*
X117000000Y-71127000D01*
X134947394Y-71127000D01*
X135873000Y-72052606D01*
X135873000Y-74947394D01*
X131947394Y-78873000D01*
X129000000Y-78873000D01*
X128951399Y-78882667D01*
X128910197Y-78910197D01*
X128882667Y-78951399D01*
X128873000Y-79000000D01*
X128873000Y-87273000D01*
X92127000Y-87273000D01*
X92127000Y-77041298D01*
X100064671Y-66127000D01*
X110954020Y-66127000D01*
X116918697Y-71097564D01*
X116918697Y-71097564D01*
G37*
X116918697Y-71097564D02*
X116962222Y-71121251D01*
X117000000Y-71127000D01*
X134947394Y-71127000D01*
X135873000Y-72052606D01*
X135873000Y-74947394D01*
X131947394Y-78873000D01*
X129000000Y-78873000D01*
X128951399Y-78882667D01*
X128910197Y-78910197D01*
X128882667Y-78951399D01*
X128873000Y-79000000D01*
X128873000Y-87273000D01*
X92127000Y-87273000D01*
X92127000Y-77041298D01*
X100064671Y-66127000D01*
X110954020Y-66127000D01*
X116918697Y-71097564D01*
G36*
X127873000Y-102947394D02*
X125910197Y-104910197D01*
X125882667Y-104951399D01*
X125873000Y-105000000D01*
X125873000Y-109873000D01*
X121047376Y-109873000D01*
X113627000Y-103442008D01*
X113627000Y-100000000D01*
X113617333Y-99951399D01*
X113589803Y-99910197D01*
X113548601Y-99882667D01*
X113500000Y-99873000D01*
X103500000Y-99873000D01*
X103451399Y-99882667D01*
X103410197Y-99910197D01*
X103382667Y-99951399D01*
X103373000Y-100000000D01*
X103373000Y-102947394D01*
X101947394Y-104373000D01*
X88052606Y-104373000D01*
X87127000Y-103447394D01*
X87127000Y-101052606D01*
X89552606Y-98627000D01*
X95000000Y-98627000D01*
X95048601Y-98617333D01*
X95089803Y-98589803D01*
X95117333Y-98548601D01*
X95127000Y-98500000D01*
X95127000Y-89127000D01*
X127873000Y-89127000D01*
X127873000Y-102947394D01*
X127873000Y-102947394D01*
G37*
X127873000Y-102947394D02*
X125910197Y-104910197D01*
X125882667Y-104951399D01*
X125873000Y-105000000D01*
X125873000Y-109873000D01*
X121047376Y-109873000D01*
X113627000Y-103442008D01*
X113627000Y-100000000D01*
X113617333Y-99951399D01*
X113589803Y-99910197D01*
X113548601Y-99882667D01*
X113500000Y-99873000D01*
X103500000Y-99873000D01*
X103451399Y-99882667D01*
X103410197Y-99910197D01*
X103382667Y-99951399D01*
X103373000Y-100000000D01*
X103373000Y-102947394D01*
X101947394Y-104373000D01*
X88052606Y-104373000D01*
X87127000Y-103447394D01*
X87127000Y-101052606D01*
X89552606Y-98627000D01*
X95000000Y-98627000D01*
X95048601Y-98617333D01*
X95089803Y-98589803D01*
X95117333Y-98548601D01*
X95127000Y-98500000D01*
X95127000Y-89127000D01*
X127873000Y-89127000D01*
X127873000Y-102947394D01*
G36*
X116918697Y-112097564D02*
X116962222Y-112121251D01*
X117000000Y-112127000D01*
X134947394Y-112127000D01*
X135873000Y-113052606D01*
X135873000Y-115947394D01*
X131947394Y-119873000D01*
X129000000Y-119873000D01*
X128951399Y-119882667D01*
X128910197Y-119910197D01*
X128882667Y-119951399D01*
X128873000Y-120000000D01*
X128873000Y-128273000D01*
X92127000Y-128273000D01*
X92127000Y-118041298D01*
X100064671Y-107127000D01*
X110954020Y-107127000D01*
X116918697Y-112097564D01*
X116918697Y-112097564D01*
G37*
X116918697Y-112097564D02*
X116962222Y-112121251D01*
X117000000Y-112127000D01*
X134947394Y-112127000D01*
X135873000Y-113052606D01*
X135873000Y-115947394D01*
X131947394Y-119873000D01*
X129000000Y-119873000D01*
X128951399Y-119882667D01*
X128910197Y-119910197D01*
X128882667Y-119951399D01*
X128873000Y-120000000D01*
X128873000Y-128273000D01*
X92127000Y-128273000D01*
X92127000Y-118041298D01*
X100064671Y-107127000D01*
X110954020Y-107127000D01*
X116918697Y-112097564D01*
G36*
X178918697Y-112097564D02*
X178962222Y-112121251D01*
X179000000Y-112127000D01*
X196947394Y-112127000D01*
X197873000Y-113052606D01*
X197873000Y-115947394D01*
X193947394Y-119873000D01*
X191000000Y-119873000D01*
X190951399Y-119882667D01*
X190910197Y-119910197D01*
X190882667Y-119951399D01*
X190873000Y-120000000D01*
X190873000Y-128273000D01*
X154127000Y-128273000D01*
X154127000Y-118041298D01*
X162064671Y-107127000D01*
X172954020Y-107127000D01*
X178918697Y-112097564D01*
X178918697Y-112097564D01*
G37*
X178918697Y-112097564D02*
X178962222Y-112121251D01*
X179000000Y-112127000D01*
X196947394Y-112127000D01*
X197873000Y-113052606D01*
X197873000Y-115947394D01*
X193947394Y-119873000D01*
X191000000Y-119873000D01*
X190951399Y-119882667D01*
X190910197Y-119910197D01*
X190882667Y-119951399D01*
X190873000Y-120000000D01*
X190873000Y-128273000D01*
X154127000Y-128273000D01*
X154127000Y-118041298D01*
X162064671Y-107127000D01*
X172954020Y-107127000D01*
X178918697Y-112097564D01*
G36*
X189873000Y-62947394D02*
X187910197Y-64910197D01*
X187882667Y-64951399D01*
X187873000Y-65000000D01*
X187873000Y-68873000D01*
X183047376Y-68873000D01*
X175627000Y-62442008D01*
X175627000Y-59000000D01*
X175617333Y-58951399D01*
X175589803Y-58910197D01*
X175548601Y-58882667D01*
X175500000Y-58873000D01*
X165500000Y-58873000D01*
X165451399Y-58882667D01*
X165410197Y-58910197D01*
X165382667Y-58951399D01*
X165373000Y-59000000D01*
X165373000Y-61947394D01*
X163947394Y-63373000D01*
X150052606Y-63373000D01*
X149127000Y-62447394D01*
X149127000Y-60052606D01*
X151552606Y-57627000D01*
X157000000Y-57627000D01*
X157048601Y-57617333D01*
X157089803Y-57589803D01*
X157117333Y-57548601D01*
X157127000Y-57500000D01*
X157127000Y-48127000D01*
X189873000Y-48127000D01*
X189873000Y-62947394D01*
X189873000Y-62947394D01*
G37*
X189873000Y-62947394D02*
X187910197Y-64910197D01*
X187882667Y-64951399D01*
X187873000Y-65000000D01*
X187873000Y-68873000D01*
X183047376Y-68873000D01*
X175627000Y-62442008D01*
X175627000Y-59000000D01*
X175617333Y-58951399D01*
X175589803Y-58910197D01*
X175548601Y-58882667D01*
X175500000Y-58873000D01*
X165500000Y-58873000D01*
X165451399Y-58882667D01*
X165410197Y-58910197D01*
X165382667Y-58951399D01*
X165373000Y-59000000D01*
X165373000Y-61947394D01*
X163947394Y-63373000D01*
X150052606Y-63373000D01*
X149127000Y-62447394D01*
X149127000Y-60052606D01*
X151552606Y-57627000D01*
X157000000Y-57627000D01*
X157048601Y-57617333D01*
X157089803Y-57589803D01*
X157117333Y-57548601D01*
X157127000Y-57500000D01*
X157127000Y-48127000D01*
X189873000Y-48127000D01*
X189873000Y-62947394D01*
G36*
X178918697Y-71097564D02*
X178962222Y-71121251D01*
X179000000Y-71127000D01*
X196947394Y-71127000D01*
X197873000Y-72052606D01*
X197873000Y-74947394D01*
X193947394Y-78873000D01*
X191000000Y-78873000D01*
X190951399Y-78882667D01*
X190910197Y-78910197D01*
X190882667Y-78951399D01*
X190873000Y-79000000D01*
X190873000Y-87273000D01*
X154127000Y-87273000D01*
X154127000Y-77041298D01*
X162064671Y-66127000D01*
X172954020Y-66127000D01*
X178918697Y-71097564D01*
X178918697Y-71097564D01*
G37*
X178918697Y-71097564D02*
X178962222Y-71121251D01*
X179000000Y-71127000D01*
X196947394Y-71127000D01*
X197873000Y-72052606D01*
X197873000Y-74947394D01*
X193947394Y-78873000D01*
X191000000Y-78873000D01*
X190951399Y-78882667D01*
X190910197Y-78910197D01*
X190882667Y-78951399D01*
X190873000Y-79000000D01*
X190873000Y-87273000D01*
X154127000Y-87273000D01*
X154127000Y-77041298D01*
X162064671Y-66127000D01*
X172954020Y-66127000D01*
X178918697Y-71097564D01*
G36*
X189873000Y-102947394D02*
X187910197Y-104910197D01*
X187882667Y-104951399D01*
X187873000Y-105000000D01*
X187873000Y-109873000D01*
X183047376Y-109873000D01*
X175627000Y-103442008D01*
X175627000Y-100000000D01*
X175617333Y-99951399D01*
X175589803Y-99910197D01*
X175548601Y-99882667D01*
X175500000Y-99873000D01*
X165500000Y-99873000D01*
X165451399Y-99882667D01*
X165410197Y-99910197D01*
X165382667Y-99951399D01*
X165373000Y-100000000D01*
X165373000Y-102947394D01*
X163947394Y-104373000D01*
X150052606Y-104373000D01*
X149127000Y-103447394D01*
X149127000Y-101052606D01*
X151552606Y-98627000D01*
X157000000Y-98627000D01*
X157048601Y-98617333D01*
X157089803Y-98589803D01*
X157117333Y-98548601D01*
X157127000Y-98500000D01*
X157127000Y-89127000D01*
X189873000Y-89127000D01*
X189873000Y-102947394D01*
X189873000Y-102947394D01*
G37*
X189873000Y-102947394D02*
X187910197Y-104910197D01*
X187882667Y-104951399D01*
X187873000Y-105000000D01*
X187873000Y-109873000D01*
X183047376Y-109873000D01*
X175627000Y-103442008D01*
X175627000Y-100000000D01*
X175617333Y-99951399D01*
X175589803Y-99910197D01*
X175548601Y-99882667D01*
X175500000Y-99873000D01*
X165500000Y-99873000D01*
X165451399Y-99882667D01*
X165410197Y-99910197D01*
X165382667Y-99951399D01*
X165373000Y-100000000D01*
X165373000Y-102947394D01*
X163947394Y-104373000D01*
X150052606Y-104373000D01*
X149127000Y-103447394D01*
X149127000Y-101052606D01*
X151552606Y-98627000D01*
X157000000Y-98627000D01*
X157048601Y-98617333D01*
X157089803Y-98589803D01*
X157117333Y-98548601D01*
X157127000Y-98500000D01*
X157127000Y-89127000D01*
X189873000Y-89127000D01*
X189873000Y-102947394D01*
G36*
X313873000Y-102947394D02*
X311910197Y-104910197D01*
X311882667Y-104951399D01*
X311873000Y-105000000D01*
X311873000Y-109873000D01*
X307047376Y-109873000D01*
X299627000Y-103442008D01*
X299627000Y-100000000D01*
X299617333Y-99951399D01*
X299589803Y-99910197D01*
X299548601Y-99882667D01*
X299500000Y-99873000D01*
X289500000Y-99873000D01*
X289451399Y-99882667D01*
X289410197Y-99910197D01*
X289382667Y-99951399D01*
X289373000Y-100000000D01*
X289373000Y-102947394D01*
X287947394Y-104373000D01*
X274052606Y-104373000D01*
X273127000Y-103447394D01*
X273127000Y-101052606D01*
X275552606Y-98627000D01*
X281000000Y-98627000D01*
X281048601Y-98617333D01*
X281089803Y-98589803D01*
X281117333Y-98548601D01*
X281127000Y-98500000D01*
X281127000Y-89127000D01*
X313873000Y-89127000D01*
X313873000Y-102947394D01*
X313873000Y-102947394D01*
G37*
X313873000Y-102947394D02*
X311910197Y-104910197D01*
X311882667Y-104951399D01*
X311873000Y-105000000D01*
X311873000Y-109873000D01*
X307047376Y-109873000D01*
X299627000Y-103442008D01*
X299627000Y-100000000D01*
X299617333Y-99951399D01*
X299589803Y-99910197D01*
X299548601Y-99882667D01*
X299500000Y-99873000D01*
X289500000Y-99873000D01*
X289451399Y-99882667D01*
X289410197Y-99910197D01*
X289382667Y-99951399D01*
X289373000Y-100000000D01*
X289373000Y-102947394D01*
X287947394Y-104373000D01*
X274052606Y-104373000D01*
X273127000Y-103447394D01*
X273127000Y-101052606D01*
X275552606Y-98627000D01*
X281000000Y-98627000D01*
X281048601Y-98617333D01*
X281089803Y-98589803D01*
X281117333Y-98548601D01*
X281127000Y-98500000D01*
X281127000Y-89127000D01*
X313873000Y-89127000D01*
X313873000Y-102947394D01*
G36*
X302918697Y-71097564D02*
X302962222Y-71121251D01*
X303000000Y-71127000D01*
X320947394Y-71127000D01*
X321873000Y-72052606D01*
X321873000Y-74947394D01*
X317947394Y-78873000D01*
X315000000Y-78873000D01*
X314951399Y-78882667D01*
X314910197Y-78910197D01*
X314882667Y-78951399D01*
X314873000Y-79000000D01*
X314873000Y-87273000D01*
X278127000Y-87273000D01*
X278127000Y-77041298D01*
X286064671Y-66127000D01*
X296954020Y-66127000D01*
X302918697Y-71097564D01*
X302918697Y-71097564D01*
G37*
X302918697Y-71097564D02*
X302962222Y-71121251D01*
X303000000Y-71127000D01*
X320947394Y-71127000D01*
X321873000Y-72052606D01*
X321873000Y-74947394D01*
X317947394Y-78873000D01*
X315000000Y-78873000D01*
X314951399Y-78882667D01*
X314910197Y-78910197D01*
X314882667Y-78951399D01*
X314873000Y-79000000D01*
X314873000Y-87273000D01*
X278127000Y-87273000D01*
X278127000Y-77041298D01*
X286064671Y-66127000D01*
X296954020Y-66127000D01*
X302918697Y-71097564D01*
G36*
X240918697Y-112097564D02*
X240962222Y-112121251D01*
X241000000Y-112127000D01*
X258947394Y-112127000D01*
X259873000Y-113052606D01*
X259873000Y-115947394D01*
X255947394Y-119873000D01*
X253000000Y-119873000D01*
X252951399Y-119882667D01*
X252910197Y-119910197D01*
X252882667Y-119951399D01*
X252873000Y-120000000D01*
X252873000Y-128273000D01*
X216127000Y-128273000D01*
X216127000Y-118041298D01*
X224064671Y-107127000D01*
X234954020Y-107127000D01*
X240918697Y-112097564D01*
X240918697Y-112097564D01*
G37*
X240918697Y-112097564D02*
X240962222Y-112121251D01*
X241000000Y-112127000D01*
X258947394Y-112127000D01*
X259873000Y-113052606D01*
X259873000Y-115947394D01*
X255947394Y-119873000D01*
X253000000Y-119873000D01*
X252951399Y-119882667D01*
X252910197Y-119910197D01*
X252882667Y-119951399D01*
X252873000Y-120000000D01*
X252873000Y-128273000D01*
X216127000Y-128273000D01*
X216127000Y-118041298D01*
X224064671Y-107127000D01*
X234954020Y-107127000D01*
X240918697Y-112097564D01*
G36*
X251873000Y-62947394D02*
X249910197Y-64910197D01*
X249882667Y-64951399D01*
X249873000Y-65000000D01*
X249873000Y-68873000D01*
X245047376Y-68873000D01*
X237627000Y-62442008D01*
X237627000Y-59000000D01*
X237617333Y-58951399D01*
X237589803Y-58910197D01*
X237548601Y-58882667D01*
X237500000Y-58873000D01*
X227500000Y-58873000D01*
X227451399Y-58882667D01*
X227410197Y-58910197D01*
X227382667Y-58951399D01*
X227373000Y-59000000D01*
X227373000Y-61947394D01*
X225947394Y-63373000D01*
X212052606Y-63373000D01*
X211127000Y-62447394D01*
X211127000Y-60052606D01*
X213552606Y-57627000D01*
X219000000Y-57627000D01*
X219048601Y-57617333D01*
X219089803Y-57589803D01*
X219117333Y-57548601D01*
X219127000Y-57500000D01*
X219127000Y-48127000D01*
X251873000Y-48127000D01*
X251873000Y-62947394D01*
X251873000Y-62947394D01*
G37*
X251873000Y-62947394D02*
X249910197Y-64910197D01*
X249882667Y-64951399D01*
X249873000Y-65000000D01*
X249873000Y-68873000D01*
X245047376Y-68873000D01*
X237627000Y-62442008D01*
X237627000Y-59000000D01*
X237617333Y-58951399D01*
X237589803Y-58910197D01*
X237548601Y-58882667D01*
X237500000Y-58873000D01*
X227500000Y-58873000D01*
X227451399Y-58882667D01*
X227410197Y-58910197D01*
X227382667Y-58951399D01*
X227373000Y-59000000D01*
X227373000Y-61947394D01*
X225947394Y-63373000D01*
X212052606Y-63373000D01*
X211127000Y-62447394D01*
X211127000Y-60052606D01*
X213552606Y-57627000D01*
X219000000Y-57627000D01*
X219048601Y-57617333D01*
X219089803Y-57589803D01*
X219117333Y-57548601D01*
X219127000Y-57500000D01*
X219127000Y-48127000D01*
X251873000Y-48127000D01*
X251873000Y-62947394D01*
G36*
X240918697Y-71097564D02*
X240962222Y-71121251D01*
X241000000Y-71127000D01*
X258947394Y-71127000D01*
X259873000Y-72052606D01*
X259873000Y-74947394D01*
X255947394Y-78873000D01*
X253000000Y-78873000D01*
X252951399Y-78882667D01*
X252910197Y-78910197D01*
X252882667Y-78951399D01*
X252873000Y-79000000D01*
X252873000Y-87273000D01*
X216127000Y-87273000D01*
X216127000Y-77041298D01*
X224064671Y-66127000D01*
X234954020Y-66127000D01*
X240918697Y-71097564D01*
X240918697Y-71097564D01*
G37*
X240918697Y-71097564D02*
X240962222Y-71121251D01*
X241000000Y-71127000D01*
X258947394Y-71127000D01*
X259873000Y-72052606D01*
X259873000Y-74947394D01*
X255947394Y-78873000D01*
X253000000Y-78873000D01*
X252951399Y-78882667D01*
X252910197Y-78910197D01*
X252882667Y-78951399D01*
X252873000Y-79000000D01*
X252873000Y-87273000D01*
X216127000Y-87273000D01*
X216127000Y-77041298D01*
X224064671Y-66127000D01*
X234954020Y-66127000D01*
X240918697Y-71097564D01*
G36*
X251873000Y-102947394D02*
X249910197Y-104910197D01*
X249882667Y-104951399D01*
X249873000Y-105000000D01*
X249873000Y-109873000D01*
X245047376Y-109873000D01*
X237627000Y-103442008D01*
X237627000Y-100000000D01*
X237617333Y-99951399D01*
X237589803Y-99910197D01*
X237548601Y-99882667D01*
X237500000Y-99873000D01*
X227500000Y-99873000D01*
X227451399Y-99882667D01*
X227410197Y-99910197D01*
X227382667Y-99951399D01*
X227373000Y-100000000D01*
X227373000Y-102947394D01*
X225947394Y-104373000D01*
X212052606Y-104373000D01*
X211127000Y-103447394D01*
X211127000Y-101052606D01*
X213552606Y-98627000D01*
X219000000Y-98627000D01*
X219048601Y-98617333D01*
X219089803Y-98589803D01*
X219117333Y-98548601D01*
X219127000Y-98500000D01*
X219127000Y-89127000D01*
X251873000Y-89127000D01*
X251873000Y-102947394D01*
X251873000Y-102947394D01*
G37*
X251873000Y-102947394D02*
X249910197Y-104910197D01*
X249882667Y-104951399D01*
X249873000Y-105000000D01*
X249873000Y-109873000D01*
X245047376Y-109873000D01*
X237627000Y-103442008D01*
X237627000Y-100000000D01*
X237617333Y-99951399D01*
X237589803Y-99910197D01*
X237548601Y-99882667D01*
X237500000Y-99873000D01*
X227500000Y-99873000D01*
X227451399Y-99882667D01*
X227410197Y-99910197D01*
X227382667Y-99951399D01*
X227373000Y-100000000D01*
X227373000Y-102947394D01*
X225947394Y-104373000D01*
X212052606Y-104373000D01*
X211127000Y-103447394D01*
X211127000Y-101052606D01*
X213552606Y-98627000D01*
X219000000Y-98627000D01*
X219048601Y-98617333D01*
X219089803Y-98589803D01*
X219117333Y-98548601D01*
X219127000Y-98500000D01*
X219127000Y-89127000D01*
X251873000Y-89127000D01*
X251873000Y-102947394D01*
G36*
X313873000Y-62947394D02*
X311910197Y-64910197D01*
X311882667Y-64951399D01*
X311873000Y-65000000D01*
X311873000Y-68873000D01*
X307047376Y-68873000D01*
X299627000Y-62442008D01*
X299627000Y-59000000D01*
X299617333Y-58951399D01*
X299589803Y-58910197D01*
X299548601Y-58882667D01*
X299500000Y-58873000D01*
X289500000Y-58873000D01*
X289451399Y-58882667D01*
X289410197Y-58910197D01*
X289382667Y-58951399D01*
X289373000Y-59000000D01*
X289373000Y-61947394D01*
X287947394Y-63373000D01*
X274052606Y-63373000D01*
X273127000Y-62447394D01*
X273127000Y-60052606D01*
X275552606Y-57627000D01*
X281000000Y-57627000D01*
X281048601Y-57617333D01*
X281089803Y-57589803D01*
X281117333Y-57548601D01*
X281127000Y-57500000D01*
X281127000Y-48127000D01*
X313873000Y-48127000D01*
X313873000Y-62947394D01*
X313873000Y-62947394D01*
G37*
X313873000Y-62947394D02*
X311910197Y-64910197D01*
X311882667Y-64951399D01*
X311873000Y-65000000D01*
X311873000Y-68873000D01*
X307047376Y-68873000D01*
X299627000Y-62442008D01*
X299627000Y-59000000D01*
X299617333Y-58951399D01*
X299589803Y-58910197D01*
X299548601Y-58882667D01*
X299500000Y-58873000D01*
X289500000Y-58873000D01*
X289451399Y-58882667D01*
X289410197Y-58910197D01*
X289382667Y-58951399D01*
X289373000Y-59000000D01*
X289373000Y-61947394D01*
X287947394Y-63373000D01*
X274052606Y-63373000D01*
X273127000Y-62447394D01*
X273127000Y-60052606D01*
X275552606Y-57627000D01*
X281000000Y-57627000D01*
X281048601Y-57617333D01*
X281089803Y-57589803D01*
X281117333Y-57548601D01*
X281127000Y-57500000D01*
X281127000Y-48127000D01*
X313873000Y-48127000D01*
X313873000Y-62947394D01*
G36*
X302918697Y-112097564D02*
X302962222Y-112121251D01*
X303000000Y-112127000D01*
X320947394Y-112127000D01*
X321873000Y-113052606D01*
X321873000Y-115947394D01*
X317947394Y-119873000D01*
X315000000Y-119873000D01*
X314951399Y-119882667D01*
X314910197Y-119910197D01*
X314882667Y-119951399D01*
X314873000Y-120000000D01*
X314873000Y-128273000D01*
X278127000Y-128273000D01*
X278127000Y-118041298D01*
X286064671Y-107127000D01*
X296954020Y-107127000D01*
X302918697Y-112097564D01*
X302918697Y-112097564D01*
G37*
X302918697Y-112097564D02*
X302962222Y-112121251D01*
X303000000Y-112127000D01*
X320947394Y-112127000D01*
X321873000Y-113052606D01*
X321873000Y-115947394D01*
X317947394Y-119873000D01*
X315000000Y-119873000D01*
X314951399Y-119882667D01*
X314910197Y-119910197D01*
X314882667Y-119951399D01*
X314873000Y-120000000D01*
X314873000Y-128273000D01*
X278127000Y-128273000D01*
X278127000Y-118041298D01*
X286064671Y-107127000D01*
X296954020Y-107127000D01*
X302918697Y-112097564D01*
G36*
X189873000Y-184947394D02*
X187910197Y-186910197D01*
X187882667Y-186951399D01*
X187873000Y-187000000D01*
X187873000Y-191873000D01*
X183047376Y-191873000D01*
X175627000Y-185442008D01*
X175627000Y-182000000D01*
X175617333Y-181951399D01*
X175589803Y-181910197D01*
X175548601Y-181882667D01*
X175500000Y-181873000D01*
X165500000Y-181873000D01*
X165451399Y-181882667D01*
X165410197Y-181910197D01*
X165382667Y-181951399D01*
X165373000Y-182000000D01*
X165373000Y-184947394D01*
X163947394Y-186373000D01*
X150052606Y-186373000D01*
X149127000Y-185447394D01*
X149127000Y-183052606D01*
X151552606Y-180627000D01*
X157000000Y-180627000D01*
X157048601Y-180617333D01*
X157089803Y-180589803D01*
X157117333Y-180548601D01*
X157127000Y-180500000D01*
X157127000Y-171127000D01*
X189873000Y-171127000D01*
X189873000Y-184947394D01*
X189873000Y-184947394D01*
G37*
X189873000Y-184947394D02*
X187910197Y-186910197D01*
X187882667Y-186951399D01*
X187873000Y-187000000D01*
X187873000Y-191873000D01*
X183047376Y-191873000D01*
X175627000Y-185442008D01*
X175627000Y-182000000D01*
X175617333Y-181951399D01*
X175589803Y-181910197D01*
X175548601Y-181882667D01*
X175500000Y-181873000D01*
X165500000Y-181873000D01*
X165451399Y-181882667D01*
X165410197Y-181910197D01*
X165382667Y-181951399D01*
X165373000Y-182000000D01*
X165373000Y-184947394D01*
X163947394Y-186373000D01*
X150052606Y-186373000D01*
X149127000Y-185447394D01*
X149127000Y-183052606D01*
X151552606Y-180627000D01*
X157000000Y-180627000D01*
X157048601Y-180617333D01*
X157089803Y-180589803D01*
X157117333Y-180548601D01*
X157127000Y-180500000D01*
X157127000Y-171127000D01*
X189873000Y-171127000D01*
X189873000Y-184947394D01*
G36*
X178918697Y-153097564D02*
X178962222Y-153121251D01*
X179000000Y-153127000D01*
X196947394Y-153127000D01*
X197873000Y-154052606D01*
X197873000Y-156947394D01*
X193947394Y-160873000D01*
X191000000Y-160873000D01*
X190951399Y-160882667D01*
X190910197Y-160910197D01*
X190882667Y-160951399D01*
X190873000Y-161000000D01*
X190873000Y-169273000D01*
X154127000Y-169273000D01*
X154127000Y-159041298D01*
X162064671Y-148127000D01*
X172954020Y-148127000D01*
X178918697Y-153097564D01*
X178918697Y-153097564D01*
G37*
X178918697Y-153097564D02*
X178962222Y-153121251D01*
X179000000Y-153127000D01*
X196947394Y-153127000D01*
X197873000Y-154052606D01*
X197873000Y-156947394D01*
X193947394Y-160873000D01*
X191000000Y-160873000D01*
X190951399Y-160882667D01*
X190910197Y-160910197D01*
X190882667Y-160951399D01*
X190873000Y-161000000D01*
X190873000Y-169273000D01*
X154127000Y-169273000D01*
X154127000Y-159041298D01*
X162064671Y-148127000D01*
X172954020Y-148127000D01*
X178918697Y-153097564D01*
G36*
X116918697Y-194097564D02*
X116962222Y-194121251D01*
X117000000Y-194127000D01*
X134947394Y-194127000D01*
X135873000Y-195052606D01*
X135873000Y-197947394D01*
X131947394Y-201873000D01*
X129000000Y-201873000D01*
X128951399Y-201882667D01*
X128910197Y-201910197D01*
X128882667Y-201951399D01*
X128873000Y-202000000D01*
X128873000Y-210273000D01*
X92127000Y-210273000D01*
X92127000Y-200041298D01*
X100064671Y-189127000D01*
X110954020Y-189127000D01*
X116918697Y-194097564D01*
X116918697Y-194097564D01*
G37*
X116918697Y-194097564D02*
X116962222Y-194121251D01*
X117000000Y-194127000D01*
X134947394Y-194127000D01*
X135873000Y-195052606D01*
X135873000Y-197947394D01*
X131947394Y-201873000D01*
X129000000Y-201873000D01*
X128951399Y-201882667D01*
X128910197Y-201910197D01*
X128882667Y-201951399D01*
X128873000Y-202000000D01*
X128873000Y-210273000D01*
X92127000Y-210273000D01*
X92127000Y-200041298D01*
X100064671Y-189127000D01*
X110954020Y-189127000D01*
X116918697Y-194097564D01*
G36*
X127873000Y-144947394D02*
X125910197Y-146910197D01*
X125882667Y-146951399D01*
X125873000Y-147000000D01*
X125873000Y-150873000D01*
X121047376Y-150873000D01*
X113627000Y-144442008D01*
X113627000Y-141000000D01*
X113617333Y-140951399D01*
X113589803Y-140910197D01*
X113548601Y-140882667D01*
X113500000Y-140873000D01*
X103500000Y-140873000D01*
X103451399Y-140882667D01*
X103410197Y-140910197D01*
X103382667Y-140951399D01*
X103373000Y-141000000D01*
X103373000Y-143947394D01*
X101947394Y-145373000D01*
X88052606Y-145373000D01*
X87127000Y-144447394D01*
X87127000Y-142052606D01*
X89552606Y-139627000D01*
X95000000Y-139627000D01*
X95048601Y-139617333D01*
X95089803Y-139589803D01*
X95117333Y-139548601D01*
X95127000Y-139500000D01*
X95127000Y-130127000D01*
X127873000Y-130127000D01*
X127873000Y-144947394D01*
X127873000Y-144947394D01*
G37*
X127873000Y-144947394D02*
X125910197Y-146910197D01*
X125882667Y-146951399D01*
X125873000Y-147000000D01*
X125873000Y-150873000D01*
X121047376Y-150873000D01*
X113627000Y-144442008D01*
X113627000Y-141000000D01*
X113617333Y-140951399D01*
X113589803Y-140910197D01*
X113548601Y-140882667D01*
X113500000Y-140873000D01*
X103500000Y-140873000D01*
X103451399Y-140882667D01*
X103410197Y-140910197D01*
X103382667Y-140951399D01*
X103373000Y-141000000D01*
X103373000Y-143947394D01*
X101947394Y-145373000D01*
X88052606Y-145373000D01*
X87127000Y-144447394D01*
X87127000Y-142052606D01*
X89552606Y-139627000D01*
X95000000Y-139627000D01*
X95048601Y-139617333D01*
X95089803Y-139589803D01*
X95117333Y-139548601D01*
X95127000Y-139500000D01*
X95127000Y-130127000D01*
X127873000Y-130127000D01*
X127873000Y-144947394D01*
G36*
X116918697Y-153097564D02*
X116962222Y-153121251D01*
X117000000Y-153127000D01*
X134947394Y-153127000D01*
X135873000Y-154052606D01*
X135873000Y-156947394D01*
X131947394Y-160873000D01*
X129000000Y-160873000D01*
X128951399Y-160882667D01*
X128910197Y-160910197D01*
X128882667Y-160951399D01*
X128873000Y-161000000D01*
X128873000Y-169273000D01*
X92127000Y-169273000D01*
X92127000Y-159041298D01*
X100064671Y-148127000D01*
X110954020Y-148127000D01*
X116918697Y-153097564D01*
X116918697Y-153097564D01*
G37*
X116918697Y-153097564D02*
X116962222Y-153121251D01*
X117000000Y-153127000D01*
X134947394Y-153127000D01*
X135873000Y-154052606D01*
X135873000Y-156947394D01*
X131947394Y-160873000D01*
X129000000Y-160873000D01*
X128951399Y-160882667D01*
X128910197Y-160910197D01*
X128882667Y-160951399D01*
X128873000Y-161000000D01*
X128873000Y-169273000D01*
X92127000Y-169273000D01*
X92127000Y-159041298D01*
X100064671Y-148127000D01*
X110954020Y-148127000D01*
X116918697Y-153097564D01*
G36*
X127873000Y-184947394D02*
X125910197Y-186910197D01*
X125882667Y-186951399D01*
X125873000Y-187000000D01*
X125873000Y-191873000D01*
X121047376Y-191873000D01*
X113627000Y-185442008D01*
X113627000Y-182000000D01*
X113617333Y-181951399D01*
X113589803Y-181910197D01*
X113548601Y-181882667D01*
X113500000Y-181873000D01*
X103500000Y-181873000D01*
X103451399Y-181882667D01*
X103410197Y-181910197D01*
X103382667Y-181951399D01*
X103373000Y-182000000D01*
X103373000Y-184947394D01*
X101947394Y-186373000D01*
X88052606Y-186373000D01*
X87127000Y-185447394D01*
X87127000Y-183052606D01*
X89552606Y-180627000D01*
X95000000Y-180627000D01*
X95048601Y-180617333D01*
X95089803Y-180589803D01*
X95117333Y-180548601D01*
X95127000Y-180500000D01*
X95127000Y-171127000D01*
X127873000Y-171127000D01*
X127873000Y-184947394D01*
X127873000Y-184947394D01*
G37*
X127873000Y-184947394D02*
X125910197Y-186910197D01*
X125882667Y-186951399D01*
X125873000Y-187000000D01*
X125873000Y-191873000D01*
X121047376Y-191873000D01*
X113627000Y-185442008D01*
X113627000Y-182000000D01*
X113617333Y-181951399D01*
X113589803Y-181910197D01*
X113548601Y-181882667D01*
X113500000Y-181873000D01*
X103500000Y-181873000D01*
X103451399Y-181882667D01*
X103410197Y-181910197D01*
X103382667Y-181951399D01*
X103373000Y-182000000D01*
X103373000Y-184947394D01*
X101947394Y-186373000D01*
X88052606Y-186373000D01*
X87127000Y-185447394D01*
X87127000Y-183052606D01*
X89552606Y-180627000D01*
X95000000Y-180627000D01*
X95048601Y-180617333D01*
X95089803Y-180589803D01*
X95117333Y-180548601D01*
X95127000Y-180500000D01*
X95127000Y-171127000D01*
X127873000Y-171127000D01*
X127873000Y-184947394D01*
G36*
X189873000Y-144947394D02*
X187910197Y-146910197D01*
X187882667Y-146951399D01*
X187873000Y-147000000D01*
X187873000Y-150873000D01*
X183047376Y-150873000D01*
X175627000Y-144442008D01*
X175627000Y-141000000D01*
X175617333Y-140951399D01*
X175589803Y-140910197D01*
X175548601Y-140882667D01*
X175500000Y-140873000D01*
X165500000Y-140873000D01*
X165451399Y-140882667D01*
X165410197Y-140910197D01*
X165382667Y-140951399D01*
X165373000Y-141000000D01*
X165373000Y-143947394D01*
X163947394Y-145373000D01*
X150052606Y-145373000D01*
X149127000Y-144447394D01*
X149127000Y-142052606D01*
X151552606Y-139627000D01*
X157000000Y-139627000D01*
X157048601Y-139617333D01*
X157089803Y-139589803D01*
X157117333Y-139548601D01*
X157127000Y-139500000D01*
X157127000Y-130127000D01*
X189873000Y-130127000D01*
X189873000Y-144947394D01*
X189873000Y-144947394D01*
G37*
X189873000Y-144947394D02*
X187910197Y-146910197D01*
X187882667Y-146951399D01*
X187873000Y-147000000D01*
X187873000Y-150873000D01*
X183047376Y-150873000D01*
X175627000Y-144442008D01*
X175627000Y-141000000D01*
X175617333Y-140951399D01*
X175589803Y-140910197D01*
X175548601Y-140882667D01*
X175500000Y-140873000D01*
X165500000Y-140873000D01*
X165451399Y-140882667D01*
X165410197Y-140910197D01*
X165382667Y-140951399D01*
X165373000Y-141000000D01*
X165373000Y-143947394D01*
X163947394Y-145373000D01*
X150052606Y-145373000D01*
X149127000Y-144447394D01*
X149127000Y-142052606D01*
X151552606Y-139627000D01*
X157000000Y-139627000D01*
X157048601Y-139617333D01*
X157089803Y-139589803D01*
X157117333Y-139548601D01*
X157127000Y-139500000D01*
X157127000Y-130127000D01*
X189873000Y-130127000D01*
X189873000Y-144947394D01*
G36*
X178918697Y-194097564D02*
X178962222Y-194121251D01*
X179000000Y-194127000D01*
X196947394Y-194127000D01*
X197873000Y-195052606D01*
X197873000Y-197947394D01*
X193947394Y-201873000D01*
X191000000Y-201873000D01*
X190951399Y-201882667D01*
X190910197Y-201910197D01*
X190882667Y-201951399D01*
X190873000Y-202000000D01*
X190873000Y-210273000D01*
X154127000Y-210273000D01*
X154127000Y-200041298D01*
X162064671Y-189127000D01*
X172954020Y-189127000D01*
X178918697Y-194097564D01*
X178918697Y-194097564D01*
G37*
X178918697Y-194097564D02*
X178962222Y-194121251D01*
X179000000Y-194127000D01*
X196947394Y-194127000D01*
X197873000Y-195052606D01*
X197873000Y-197947394D01*
X193947394Y-201873000D01*
X191000000Y-201873000D01*
X190951399Y-201882667D01*
X190910197Y-201910197D01*
X190882667Y-201951399D01*
X190873000Y-202000000D01*
X190873000Y-210273000D01*
X154127000Y-210273000D01*
X154127000Y-200041298D01*
X162064671Y-189127000D01*
X172954020Y-189127000D01*
X178918697Y-194097564D01*
G36*
X313873000Y-144947394D02*
X311910197Y-146910197D01*
X311882667Y-146951399D01*
X311873000Y-147000000D01*
X311873000Y-150873000D01*
X307047376Y-150873000D01*
X299627000Y-144442008D01*
X299627000Y-141000000D01*
X299617333Y-140951399D01*
X299589803Y-140910197D01*
X299548601Y-140882667D01*
X299500000Y-140873000D01*
X289500000Y-140873000D01*
X289451399Y-140882667D01*
X289410197Y-140910197D01*
X289382667Y-140951399D01*
X289373000Y-141000000D01*
X289373000Y-143947394D01*
X287947394Y-145373000D01*
X274052606Y-145373000D01*
X273127000Y-144447394D01*
X273127000Y-142052606D01*
X275552606Y-139627000D01*
X281000000Y-139627000D01*
X281048601Y-139617333D01*
X281089803Y-139589803D01*
X281117333Y-139548601D01*
X281127000Y-139500000D01*
X281127000Y-130127000D01*
X313873000Y-130127000D01*
X313873000Y-144947394D01*
X313873000Y-144947394D01*
G37*
X313873000Y-144947394D02*
X311910197Y-146910197D01*
X311882667Y-146951399D01*
X311873000Y-147000000D01*
X311873000Y-150873000D01*
X307047376Y-150873000D01*
X299627000Y-144442008D01*
X299627000Y-141000000D01*
X299617333Y-140951399D01*
X299589803Y-140910197D01*
X299548601Y-140882667D01*
X299500000Y-140873000D01*
X289500000Y-140873000D01*
X289451399Y-140882667D01*
X289410197Y-140910197D01*
X289382667Y-140951399D01*
X289373000Y-141000000D01*
X289373000Y-143947394D01*
X287947394Y-145373000D01*
X274052606Y-145373000D01*
X273127000Y-144447394D01*
X273127000Y-142052606D01*
X275552606Y-139627000D01*
X281000000Y-139627000D01*
X281048601Y-139617333D01*
X281089803Y-139589803D01*
X281117333Y-139548601D01*
X281127000Y-139500000D01*
X281127000Y-130127000D01*
X313873000Y-130127000D01*
X313873000Y-144947394D01*
G36*
X313873000Y-184947394D02*
X311910197Y-186910197D01*
X311882667Y-186951399D01*
X311873000Y-187000000D01*
X311873000Y-191873000D01*
X307047376Y-191873000D01*
X299627000Y-185442008D01*
X299627000Y-182000000D01*
X299617333Y-181951399D01*
X299589803Y-181910197D01*
X299548601Y-181882667D01*
X299500000Y-181873000D01*
X289500000Y-181873000D01*
X289451399Y-181882667D01*
X289410197Y-181910197D01*
X289382667Y-181951399D01*
X289373000Y-182000000D01*
X289373000Y-184947394D01*
X287947394Y-186373000D01*
X274052606Y-186373000D01*
X273127000Y-185447394D01*
X273127000Y-183052606D01*
X275552606Y-180627000D01*
X281000000Y-180627000D01*
X281048601Y-180617333D01*
X281089803Y-180589803D01*
X281117333Y-180548601D01*
X281127000Y-180500000D01*
X281127000Y-171127000D01*
X313873000Y-171127000D01*
X313873000Y-184947394D01*
X313873000Y-184947394D01*
G37*
X313873000Y-184947394D02*
X311910197Y-186910197D01*
X311882667Y-186951399D01*
X311873000Y-187000000D01*
X311873000Y-191873000D01*
X307047376Y-191873000D01*
X299627000Y-185442008D01*
X299627000Y-182000000D01*
X299617333Y-181951399D01*
X299589803Y-181910197D01*
X299548601Y-181882667D01*
X299500000Y-181873000D01*
X289500000Y-181873000D01*
X289451399Y-181882667D01*
X289410197Y-181910197D01*
X289382667Y-181951399D01*
X289373000Y-182000000D01*
X289373000Y-184947394D01*
X287947394Y-186373000D01*
X274052606Y-186373000D01*
X273127000Y-185447394D01*
X273127000Y-183052606D01*
X275552606Y-180627000D01*
X281000000Y-180627000D01*
X281048601Y-180617333D01*
X281089803Y-180589803D01*
X281117333Y-180548601D01*
X281127000Y-180500000D01*
X281127000Y-171127000D01*
X313873000Y-171127000D01*
X313873000Y-184947394D01*
G36*
X302918697Y-153097564D02*
X302962222Y-153121251D01*
X303000000Y-153127000D01*
X320947394Y-153127000D01*
X321873000Y-154052606D01*
X321873000Y-156947394D01*
X317947394Y-160873000D01*
X315000000Y-160873000D01*
X314951399Y-160882667D01*
X314910197Y-160910197D01*
X314882667Y-160951399D01*
X314873000Y-161000000D01*
X314873000Y-169273000D01*
X278127000Y-169273000D01*
X278127000Y-159041298D01*
X286064671Y-148127000D01*
X296954020Y-148127000D01*
X302918697Y-153097564D01*
X302918697Y-153097564D01*
G37*
X302918697Y-153097564D02*
X302962222Y-153121251D01*
X303000000Y-153127000D01*
X320947394Y-153127000D01*
X321873000Y-154052606D01*
X321873000Y-156947394D01*
X317947394Y-160873000D01*
X315000000Y-160873000D01*
X314951399Y-160882667D01*
X314910197Y-160910197D01*
X314882667Y-160951399D01*
X314873000Y-161000000D01*
X314873000Y-169273000D01*
X278127000Y-169273000D01*
X278127000Y-159041298D01*
X286064671Y-148127000D01*
X296954020Y-148127000D01*
X302918697Y-153097564D01*
G36*
X240918697Y-194097564D02*
X240962222Y-194121251D01*
X241000000Y-194127000D01*
X258947394Y-194127000D01*
X259873000Y-195052606D01*
X259873000Y-197947394D01*
X255947394Y-201873000D01*
X253000000Y-201873000D01*
X252951399Y-201882667D01*
X252910197Y-201910197D01*
X252882667Y-201951399D01*
X252873000Y-202000000D01*
X252873000Y-210273000D01*
X216127000Y-210273000D01*
X216127000Y-200041298D01*
X224064671Y-189127000D01*
X234954020Y-189127000D01*
X240918697Y-194097564D01*
X240918697Y-194097564D01*
G37*
X240918697Y-194097564D02*
X240962222Y-194121251D01*
X241000000Y-194127000D01*
X258947394Y-194127000D01*
X259873000Y-195052606D01*
X259873000Y-197947394D01*
X255947394Y-201873000D01*
X253000000Y-201873000D01*
X252951399Y-201882667D01*
X252910197Y-201910197D01*
X252882667Y-201951399D01*
X252873000Y-202000000D01*
X252873000Y-210273000D01*
X216127000Y-210273000D01*
X216127000Y-200041298D01*
X224064671Y-189127000D01*
X234954020Y-189127000D01*
X240918697Y-194097564D01*
G36*
X251873000Y-144947394D02*
X249910197Y-146910197D01*
X249882667Y-146951399D01*
X249873000Y-147000000D01*
X249873000Y-150873000D01*
X245047376Y-150873000D01*
X237627000Y-144442008D01*
X237627000Y-141000000D01*
X237617333Y-140951399D01*
X237589803Y-140910197D01*
X237548601Y-140882667D01*
X237500000Y-140873000D01*
X227500000Y-140873000D01*
X227451399Y-140882667D01*
X227410197Y-140910197D01*
X227382667Y-140951399D01*
X227373000Y-141000000D01*
X227373000Y-143947394D01*
X225947394Y-145373000D01*
X212052606Y-145373000D01*
X211127000Y-144447394D01*
X211127000Y-142052606D01*
X213552606Y-139627000D01*
X219000000Y-139627000D01*
X219048601Y-139617333D01*
X219089803Y-139589803D01*
X219117333Y-139548601D01*
X219127000Y-139500000D01*
X219127000Y-130127000D01*
X251873000Y-130127000D01*
X251873000Y-144947394D01*
X251873000Y-144947394D01*
G37*
X251873000Y-144947394D02*
X249910197Y-146910197D01*
X249882667Y-146951399D01*
X249873000Y-147000000D01*
X249873000Y-150873000D01*
X245047376Y-150873000D01*
X237627000Y-144442008D01*
X237627000Y-141000000D01*
X237617333Y-140951399D01*
X237589803Y-140910197D01*
X237548601Y-140882667D01*
X237500000Y-140873000D01*
X227500000Y-140873000D01*
X227451399Y-140882667D01*
X227410197Y-140910197D01*
X227382667Y-140951399D01*
X227373000Y-141000000D01*
X227373000Y-143947394D01*
X225947394Y-145373000D01*
X212052606Y-145373000D01*
X211127000Y-144447394D01*
X211127000Y-142052606D01*
X213552606Y-139627000D01*
X219000000Y-139627000D01*
X219048601Y-139617333D01*
X219089803Y-139589803D01*
X219117333Y-139548601D01*
X219127000Y-139500000D01*
X219127000Y-130127000D01*
X251873000Y-130127000D01*
X251873000Y-144947394D01*
G36*
X240918697Y-153097564D02*
X240962222Y-153121251D01*
X241000000Y-153127000D01*
X258947394Y-153127000D01*
X259873000Y-154052606D01*
X259873000Y-156947394D01*
X255947394Y-160873000D01*
X253000000Y-160873000D01*
X252951399Y-160882667D01*
X252910197Y-160910197D01*
X252882667Y-160951399D01*
X252873000Y-161000000D01*
X252873000Y-169273000D01*
X216127000Y-169273000D01*
X216127000Y-159041298D01*
X224064671Y-148127000D01*
X234954020Y-148127000D01*
X240918697Y-153097564D01*
X240918697Y-153097564D01*
G37*
X240918697Y-153097564D02*
X240962222Y-153121251D01*
X241000000Y-153127000D01*
X258947394Y-153127000D01*
X259873000Y-154052606D01*
X259873000Y-156947394D01*
X255947394Y-160873000D01*
X253000000Y-160873000D01*
X252951399Y-160882667D01*
X252910197Y-160910197D01*
X252882667Y-160951399D01*
X252873000Y-161000000D01*
X252873000Y-169273000D01*
X216127000Y-169273000D01*
X216127000Y-159041298D01*
X224064671Y-148127000D01*
X234954020Y-148127000D01*
X240918697Y-153097564D01*
G36*
X251873000Y-184947394D02*
X249910197Y-186910197D01*
X249882667Y-186951399D01*
X249873000Y-187000000D01*
X249873000Y-191873000D01*
X245047376Y-191873000D01*
X237627000Y-185442008D01*
X237627000Y-182000000D01*
X237617333Y-181951399D01*
X237589803Y-181910197D01*
X237548601Y-181882667D01*
X237500000Y-181873000D01*
X227500000Y-181873000D01*
X227451399Y-181882667D01*
X227410197Y-181910197D01*
X227382667Y-181951399D01*
X227373000Y-182000000D01*
X227373000Y-184947394D01*
X225947394Y-186373000D01*
X212052606Y-186373000D01*
X211127000Y-185447394D01*
X211127000Y-183052606D01*
X213552606Y-180627000D01*
X219000000Y-180627000D01*
X219048601Y-180617333D01*
X219089803Y-180589803D01*
X219117333Y-180548601D01*
X219127000Y-180500000D01*
X219127000Y-171127000D01*
X251873000Y-171127000D01*
X251873000Y-184947394D01*
X251873000Y-184947394D01*
G37*
X251873000Y-184947394D02*
X249910197Y-186910197D01*
X249882667Y-186951399D01*
X249873000Y-187000000D01*
X249873000Y-191873000D01*
X245047376Y-191873000D01*
X237627000Y-185442008D01*
X237627000Y-182000000D01*
X237617333Y-181951399D01*
X237589803Y-181910197D01*
X237548601Y-181882667D01*
X237500000Y-181873000D01*
X227500000Y-181873000D01*
X227451399Y-181882667D01*
X227410197Y-181910197D01*
X227382667Y-181951399D01*
X227373000Y-182000000D01*
X227373000Y-184947394D01*
X225947394Y-186373000D01*
X212052606Y-186373000D01*
X211127000Y-185447394D01*
X211127000Y-183052606D01*
X213552606Y-180627000D01*
X219000000Y-180627000D01*
X219048601Y-180617333D01*
X219089803Y-180589803D01*
X219117333Y-180548601D01*
X219127000Y-180500000D01*
X219127000Y-171127000D01*
X251873000Y-171127000D01*
X251873000Y-184947394D01*
G36*
X302918697Y-194097564D02*
X302962222Y-194121251D01*
X303000000Y-194127000D01*
X320947394Y-194127000D01*
X321873000Y-195052606D01*
X321873000Y-197947394D01*
X317947394Y-201873000D01*
X315000000Y-201873000D01*
X314951399Y-201882667D01*
X314910197Y-201910197D01*
X314882667Y-201951399D01*
X314873000Y-202000000D01*
X314873000Y-210273000D01*
X278127000Y-210273000D01*
X278127000Y-200041298D01*
X286064671Y-189127000D01*
X296954020Y-189127000D01*
X302918697Y-194097564D01*
X302918697Y-194097564D01*
G37*
X302918697Y-194097564D02*
X302962222Y-194121251D01*
X303000000Y-194127000D01*
X320947394Y-194127000D01*
X321873000Y-195052606D01*
X321873000Y-197947394D01*
X317947394Y-201873000D01*
X315000000Y-201873000D01*
X314951399Y-201882667D01*
X314910197Y-201910197D01*
X314882667Y-201951399D01*
X314873000Y-202000000D01*
X314873000Y-210273000D01*
X278127000Y-210273000D01*
X278127000Y-200041298D01*
X286064671Y-189127000D01*
X296954020Y-189127000D01*
X302918697Y-194097564D01*
M02*
