G04 #@! TF.GenerationSoftware,KiCad,Pcbnew,(5.0.0)*
G04 #@! TF.CreationDate,2018-12-19T14:03:44+02:00*
G04 #@! TF.ProjectId,tp_x2_EKA,74705F78325F454B412E6B696361645F,3*
G04 #@! TF.SameCoordinates,Original*
G04 #@! TF.FileFunction,Copper,L1,Top,Signal*
G04 #@! TF.FilePolarity,Positive*
%FSLAX46Y46*%
G04 Gerber Fmt 4.6, Leading zero omitted, Abs format (unit mm)*
G04 Created by KiCad (PCBNEW (5.0.0)) date 12/19/18 14:03:44*
%MOMM*%
%LPD*%
G01*
G04 APERTURE LIST*
G04 #@! TA.AperFunction,SMDPad,CuDef*
%ADD10R,2.400000X2.700000*%
G04 #@! TD*
G04 #@! TA.AperFunction,ComponentPad*
%ADD11O,1.800000X3.600000*%
G04 #@! TD*
G04 #@! TA.AperFunction,ComponentPad*
%ADD12O,3.600000X1.800000*%
G04 #@! TD*
G04 #@! TA.AperFunction,ComponentPad*
%ADD13O,8.800000X2.800000*%
G04 #@! TD*
G04 #@! TA.AperFunction,ComponentPad*
%ADD14C,2.800000*%
G04 #@! TD*
G04 #@! TA.AperFunction,Conductor*
%ADD15C,2.800000*%
G04 #@! TD*
G04 #@! TA.AperFunction,ComponentPad*
%ADD16C,2.499360*%
G04 #@! TD*
G04 #@! TA.AperFunction,SMDPad,CuDef*
%ADD17R,1.800000X1.700000*%
G04 #@! TD*
G04 #@! TA.AperFunction,Conductor*
%ADD18C,1.600000*%
G04 #@! TD*
G04 #@! TA.AperFunction,Conductor*
%ADD19C,0.800000*%
G04 #@! TD*
G04 #@! TA.AperFunction,Conductor*
%ADD20C,0.250000*%
G04 #@! TD*
G04 #@! TA.AperFunction,Conductor*
%ADD21C,0.254000*%
G04 #@! TD*
G04 APERTURE END LIST*
D10*
G04 #@! TO.P,D2,2*
G04 #@! TO.N,/LD3*
X206700000Y-126500000D03*
G04 #@! TO.P,D2,1*
G04 #@! TO.N,Net-(D2-Pad1)*
X211500000Y-126500000D03*
G04 #@! TD*
D11*
G04 #@! TO.P,X14,1*
G04 #@! TO.N,/CTRL3B*
X214500000Y-120360000D03*
X214500000Y-125440000D03*
G04 #@! TD*
D12*
G04 #@! TO.P,X26,1*
G04 #@! TO.N,/PH3*
X140660000Y-103900000D03*
X145740000Y-103900000D03*
G04 #@! TD*
D13*
G04 #@! TO.P,V2.1,3*
G04 #@! TO.N,/PH3*
X113619236Y-108634980D03*
D14*
G04 #@! TO.P,V2.1,1*
G04 #@! TO.N,/LD3*
X118307528Y-119296590D03*
D15*
G04 #@! TD*
G04 #@! TO.N,/LD3*
G04 #@! TO.C,V2.1*
X116261533Y-121490651D02*
X120353523Y-117102529D01*
D14*
G04 #@! TO.P,V2.1,2*
G04 #@! TO.N,Net-(D1-Pad1)*
X107389270Y-116635452D03*
D15*
G04 #@! TD*
G04 #@! TO.N,Net-(D1-Pad1)*
G04 #@! TO.C,V2.1*
X106784465Y-114209713D02*
X107994075Y-119061191D01*
D13*
G04 #@! TO.P,V2.2,3*
G04 #@! TO.N,/LD3*
X202880764Y-121465020D03*
D14*
G04 #@! TO.P,V2.2,1*
G04 #@! TO.N,/PH3*
X198192472Y-110803410D03*
D15*
G04 #@! TD*
G04 #@! TO.N,/PH3*
G04 #@! TO.C,V2.2*
X200238467Y-108609349D02*
X196146477Y-112997471D01*
D14*
G04 #@! TO.P,V2.2,2*
G04 #@! TO.N,Net-(D2-Pad1)*
X209110730Y-113464548D03*
D15*
G04 #@! TD*
G04 #@! TO.N,Net-(D2-Pad1)*
G04 #@! TO.C,V2.2*
X209715535Y-115890287D02*
X208505925Y-111038809D01*
D12*
G04 #@! TO.P,X6,1*
G04 #@! TO.N,/LD3*
X171040000Y-125000000D03*
X165960000Y-125000000D03*
G04 #@! TD*
D16*
G04 #@! TO.P,H1,1*
G04 #@! TO.N,/LD3*
X185000000Y-124000000D03*
G04 #@! TD*
G04 #@! TO.P,H1,1*
G04 #@! TO.N,/LD3*
X179000000Y-131000000D03*
G04 #@! TD*
G04 #@! TO.P,H1,1*
G04 #@! TO.N,/LD3*
X161000000Y-131000000D03*
G04 #@! TD*
G04 #@! TO.P,H1,1*
G04 #@! TO.N,/LD3*
X126000000Y-119000000D03*
G04 #@! TD*
G04 #@! TO.P,H1,1*
G04 #@! TO.N,/LD3*
X131000000Y-129000000D03*
G04 #@! TD*
G04 #@! TO.P,H2,1*
G04 #@! TO.N,/PH3*
X190000000Y-111000000D03*
G04 #@! TD*
G04 #@! TO.P,H1,1*
G04 #@! TO.N,/LD3*
X200000000Y-128000000D03*
G04 #@! TD*
G04 #@! TO.P,H2,1*
G04 #@! TO.N,/PH3*
X197000000Y-104000000D03*
G04 #@! TD*
D11*
G04 #@! TO.P,X17,1*
G04 #@! TO.N,/CTRL3A*
X99400000Y-109500000D03*
X99400000Y-104420000D03*
G04 #@! TD*
D17*
G04 #@! TO.P,R1,2*
G04 #@! TO.N,Net-(D2-Pad1)*
X209500000Y-129700000D03*
G04 #@! TO.P,R1,1*
G04 #@! TO.N,/LD3*
X206600000Y-129700000D03*
G04 #@! TD*
D14*
G04 #@! TO.P,X5,1*
G04 #@! TO.N,/PH3*
X168000000Y-108000000D03*
X163000000Y-108000000D03*
X158000000Y-108000000D03*
X168000000Y-100900000D03*
X163000000Y-100900000D03*
X158000000Y-100900000D03*
G04 #@! TD*
G04 #@! TO.P,X4,1*
G04 #@! TO.N,/LD3*
X142500000Y-124000000D03*
X147500000Y-124000000D03*
X152500000Y-124000000D03*
X142500000Y-131100000D03*
X147500000Y-131100000D03*
X152500000Y-131100000D03*
G04 #@! TD*
D17*
G04 #@! TO.P,R4,1*
G04 #@! TO.N,/PH3*
X107400000Y-100500000D03*
G04 #@! TO.P,R4,2*
G04 #@! TO.N,Net-(D1-Pad1)*
X104500000Y-100500000D03*
G04 #@! TD*
D10*
G04 #@! TO.P,D1,1*
G04 #@! TO.N,Net-(D1-Pad1)*
X102600000Y-103500000D03*
G04 #@! TO.P,D1,2*
G04 #@! TO.N,/PH3*
X107400000Y-103500000D03*
G04 #@! TD*
D17*
G04 #@! TO.P,R2,1*
G04 #@! TO.N,/CTRL3A*
X99500000Y-100500000D03*
G04 #@! TO.P,R2,2*
G04 #@! TO.N,Net-(D1-Pad1)*
X102400000Y-100500000D03*
G04 #@! TD*
G04 #@! TO.P,R3,2*
G04 #@! TO.N,Net-(D2-Pad1)*
X211500000Y-129700000D03*
G04 #@! TO.P,R3,1*
G04 #@! TO.N,/CTRL3B*
X214400000Y-129700000D03*
G04 #@! TD*
D16*
G04 #@! TO.P,H1,1*
G04 #@! TO.N,/LD3*
X119000000Y-127000000D03*
G04 #@! TD*
G04 #@! TO.P,H2,1*
G04 #@! TO.N,/PH3*
X151000000Y-99000000D03*
G04 #@! TD*
G04 #@! TO.P,H2,1*
G04 #@! TO.N,/PH3*
X133000000Y-99000000D03*
G04 #@! TD*
G04 #@! TO.P,H2,1*
G04 #@! TO.N,/PH3*
X187000000Y-99000000D03*
G04 #@! TD*
G04 #@! TO.P,H2,1*
G04 #@! TO.N,/PH3*
X115000000Y-101000000D03*
G04 #@! TD*
G04 #@! TO.P,H2,1*
G04 #@! TO.N,/PH1*
X115000000Y-53000000D03*
G04 #@! TD*
G04 #@! TO.P,H2,1*
G04 #@! TO.N,/PH1*
X133000000Y-51000000D03*
G04 #@! TD*
G04 #@! TO.P,H2,1*
G04 #@! TO.N,/PH1*
X151000000Y-51000000D03*
G04 #@! TD*
G04 #@! TO.P,H2,1*
G04 #@! TO.N,/PH1*
X187000000Y-51000000D03*
G04 #@! TD*
G04 #@! TO.P,H2,1*
G04 #@! TO.N,/PH1*
X190000000Y-63000000D03*
G04 #@! TD*
G04 #@! TO.P,H1,1*
G04 #@! TO.N,/LD1*
X200000000Y-80000000D03*
G04 #@! TD*
G04 #@! TO.P,H1,1*
G04 #@! TO.N,/LD1*
X185000000Y-76000000D03*
G04 #@! TD*
G04 #@! TO.P,H1,1*
G04 #@! TO.N,/LD1*
X179000000Y-83000000D03*
G04 #@! TD*
G04 #@! TO.P,H1,1*
G04 #@! TO.N,/LD1*
X161000000Y-83000000D03*
G04 #@! TD*
G04 #@! TO.P,H1,1*
G04 #@! TO.N,/LD1*
X131000000Y-81000000D03*
G04 #@! TD*
G04 #@! TO.P,H1,1*
G04 #@! TO.N,/LD1*
X126000000Y-71000000D03*
G04 #@! TD*
D12*
G04 #@! TO.P,X3,1*
G04 #@! TO.N,/LD1*
X165960000Y-77000000D03*
X171040000Y-77000000D03*
G04 #@! TD*
D14*
G04 #@! TO.P,V1.2,2*
G04 #@! TO.N,Net-(D4-Pad1)*
X209110730Y-65464548D03*
D15*
G04 #@! TD*
G04 #@! TO.N,Net-(D4-Pad1)*
G04 #@! TO.C,V1.2*
X209715535Y-67890287D02*
X208505925Y-63038809D01*
D14*
G04 #@! TO.P,V1.2,1*
G04 #@! TO.N,/PH1*
X198192472Y-62803410D03*
D15*
G04 #@! TD*
G04 #@! TO.N,/PH1*
G04 #@! TO.C,V1.2*
X200238467Y-60609349D02*
X196146477Y-64997471D01*
D13*
G04 #@! TO.P,V1.2,3*
G04 #@! TO.N,/LD1*
X202880764Y-73465020D03*
G04 #@! TD*
D14*
G04 #@! TO.P,V1.1,2*
G04 #@! TO.N,Net-(D3-Pad1)*
X107389270Y-68635452D03*
D15*
G04 #@! TD*
G04 #@! TO.N,Net-(D3-Pad1)*
G04 #@! TO.C,V1.1*
X106784465Y-66209713D02*
X107994075Y-71061191D01*
D14*
G04 #@! TO.P,V1.1,1*
G04 #@! TO.N,/LD1*
X118307528Y-71296590D03*
D15*
G04 #@! TD*
G04 #@! TO.N,/LD1*
G04 #@! TO.C,V1.1*
X116261533Y-73490651D02*
X120353523Y-69102529D01*
D13*
G04 #@! TO.P,V1.1,3*
G04 #@! TO.N,/PH1*
X113619236Y-60634980D03*
G04 #@! TD*
D10*
G04 #@! TO.P,D4,1*
G04 #@! TO.N,Net-(D4-Pad1)*
X211500000Y-78500000D03*
G04 #@! TO.P,D4,2*
G04 #@! TO.N,/LD1*
X206700000Y-78500000D03*
G04 #@! TD*
D11*
G04 #@! TO.P,X7,1*
G04 #@! TO.N,/CTRL1B*
X214500000Y-77440000D03*
X214500000Y-72360000D03*
G04 #@! TD*
D12*
G04 #@! TO.P,X12,1*
G04 #@! TO.N,/PH1*
X145740000Y-55900000D03*
X140660000Y-55900000D03*
G04 #@! TD*
D10*
G04 #@! TO.P,D3,2*
G04 #@! TO.N,/PH1*
X107400000Y-55500000D03*
G04 #@! TO.P,D3,1*
G04 #@! TO.N,Net-(D3-Pad1)*
X102600000Y-55500000D03*
G04 #@! TD*
D17*
G04 #@! TO.P,R6,1*
G04 #@! TO.N,/LD1*
X206600000Y-81700000D03*
G04 #@! TO.P,R6,2*
G04 #@! TO.N,Net-(D4-Pad1)*
X209500000Y-81700000D03*
G04 #@! TD*
G04 #@! TO.P,R8,1*
G04 #@! TO.N,/CTRL1B*
X214400000Y-81700000D03*
G04 #@! TO.P,R8,2*
G04 #@! TO.N,Net-(D4-Pad1)*
X211500000Y-81700000D03*
G04 #@! TD*
G04 #@! TO.P,R7,2*
G04 #@! TO.N,Net-(D3-Pad1)*
X102400000Y-52500000D03*
G04 #@! TO.P,R7,1*
G04 #@! TO.N,/CTRL1A*
X99500000Y-52500000D03*
G04 #@! TD*
G04 #@! TO.P,R9,2*
G04 #@! TO.N,Net-(D3-Pad1)*
X104500000Y-52500000D03*
G04 #@! TO.P,R9,1*
G04 #@! TO.N,/PH1*
X107400000Y-52500000D03*
G04 #@! TD*
D11*
G04 #@! TO.P,X9,1*
G04 #@! TO.N,/CTRL1A*
X99400000Y-56420000D03*
X99400000Y-61500000D03*
G04 #@! TD*
D14*
G04 #@! TO.P,X1,1*
G04 #@! TO.N,/LD1*
X152500000Y-83100000D03*
X147500000Y-83100000D03*
X142500000Y-83100000D03*
X152500000Y-76000000D03*
X147500000Y-76000000D03*
X142500000Y-76000000D03*
G04 #@! TD*
G04 #@! TO.P,X2,1*
G04 #@! TO.N,/PH1*
X158000000Y-52900000D03*
X163000000Y-52900000D03*
X168000000Y-52900000D03*
X158000000Y-60000000D03*
X163000000Y-60000000D03*
X168000000Y-60000000D03*
G04 #@! TD*
D16*
G04 #@! TO.P,H1,1*
G04 #@! TO.N,/LD1*
X119000000Y-79000000D03*
G04 #@! TD*
G04 #@! TO.P,H2,1*
G04 #@! TO.N,/PH1*
X197000000Y-56000000D03*
G04 #@! TD*
D18*
G04 #@! TO.N,/CTRL1A*
X99400000Y-61500000D02*
X99400000Y-56500000D01*
D19*
X99500000Y-52500000D02*
X99500000Y-56400000D01*
D20*
G04 #@! TO.N,/CTRL1B*
X214400000Y-77600000D02*
X214500000Y-77500000D01*
D18*
X214500000Y-72360000D02*
X214500000Y-77400000D01*
D19*
X214500000Y-77700000D02*
X214400000Y-77600000D01*
X214400000Y-81700000D02*
X214500000Y-81600000D01*
X214500000Y-81600000D02*
X214500000Y-77700000D01*
D18*
G04 #@! TO.N,/CTRL3A*
X99400000Y-109500000D02*
X99400000Y-104500000D01*
D19*
X99500000Y-100500000D02*
X99500000Y-104400000D01*
D20*
G04 #@! TO.N,/CTRL3B*
X214400000Y-125600000D02*
X214500000Y-125500000D01*
D19*
X214500000Y-125700000D02*
X214400000Y-125600000D01*
X214400000Y-129700000D02*
X214500000Y-129600000D01*
X214500000Y-129600000D02*
X214500000Y-125700000D01*
D18*
X214500000Y-120360000D02*
X214500000Y-125400000D01*
G04 #@! TD*
D21*
G04 #@! TO.N,/LD1*
G36*
X150410197Y-73089803D02*
X150451399Y-73117333D01*
X150500000Y-73127000D01*
X184000000Y-73127000D01*
X184048601Y-73117333D01*
X184089803Y-73089803D01*
X185552606Y-71627000D01*
X206547394Y-71627000D01*
X207473000Y-72552606D01*
X207473000Y-76723000D01*
X207079750Y-76723000D01*
X206973000Y-76829750D01*
X206973000Y-78227000D01*
X206993000Y-78227000D01*
X206993000Y-78773000D01*
X206973000Y-78773000D01*
X206973000Y-80170250D01*
X207079750Y-80277000D01*
X207473000Y-80277000D01*
X207473000Y-80423000D01*
X206979750Y-80423000D01*
X206873000Y-80529750D01*
X206873000Y-81427000D01*
X206893000Y-81427000D01*
X206893000Y-81973000D01*
X206873000Y-81973000D01*
X206873000Y-82870250D01*
X206979750Y-82977000D01*
X207473000Y-82977000D01*
X207473000Y-86315000D01*
X204827000Y-86315000D01*
X204827000Y-82079750D01*
X205273000Y-82079750D01*
X205273000Y-82634936D01*
X205338007Y-82791876D01*
X205458124Y-82911993D01*
X205615065Y-82977000D01*
X206220250Y-82977000D01*
X206327000Y-82870250D01*
X206327000Y-81973000D01*
X205379750Y-81973000D01*
X205273000Y-82079750D01*
X204827000Y-82079750D01*
X204827000Y-80765064D01*
X205273000Y-80765064D01*
X205273000Y-81320250D01*
X205379750Y-81427000D01*
X206327000Y-81427000D01*
X206327000Y-80529750D01*
X206220250Y-80423000D01*
X205615065Y-80423000D01*
X205458124Y-80488007D01*
X205338007Y-80608124D01*
X205273000Y-80765064D01*
X204827000Y-80765064D01*
X204827000Y-78879750D01*
X205073000Y-78879750D01*
X205073000Y-79934936D01*
X205138007Y-80091876D01*
X205258124Y-80211993D01*
X205415065Y-80277000D01*
X206320250Y-80277000D01*
X206427000Y-80170250D01*
X206427000Y-78773000D01*
X205179750Y-78773000D01*
X205073000Y-78879750D01*
X204827000Y-78879750D01*
X204827000Y-77065064D01*
X205073000Y-77065064D01*
X205073000Y-78120250D01*
X205179750Y-78227000D01*
X206427000Y-78227000D01*
X206427000Y-76829750D01*
X206320250Y-76723000D01*
X205415065Y-76723000D01*
X205258124Y-76788007D01*
X205138007Y-76908124D01*
X205073000Y-77065064D01*
X204827000Y-77065064D01*
X204827000Y-75500000D01*
X204817333Y-75451399D01*
X204789803Y-75410197D01*
X204748601Y-75382667D01*
X204700000Y-75373000D01*
X203800000Y-75373000D01*
X203751399Y-75382667D01*
X203710197Y-75410197D01*
X203682667Y-75451399D01*
X203673000Y-75500000D01*
X203673000Y-86315000D01*
X114127000Y-86315000D01*
X114127000Y-77078041D01*
X187965000Y-77078041D01*
X187965000Y-78921959D01*
X188670637Y-80625517D01*
X189974483Y-81929363D01*
X191678041Y-82635000D01*
X193521959Y-82635000D01*
X195225517Y-81929363D01*
X196529363Y-80625517D01*
X197235000Y-78921959D01*
X197235000Y-77078041D01*
X196529363Y-75374483D01*
X195225517Y-74070637D01*
X193521959Y-73365000D01*
X191678041Y-73365000D01*
X189974483Y-74070637D01*
X188670637Y-75374483D01*
X187965000Y-77078041D01*
X114127000Y-77078041D01*
X114127000Y-72052606D01*
X119552606Y-66627000D01*
X143947394Y-66627000D01*
X150410197Y-73089803D01*
X150410197Y-73089803D01*
G37*
X150410197Y-73089803D02*
X150451399Y-73117333D01*
X150500000Y-73127000D01*
X184000000Y-73127000D01*
X184048601Y-73117333D01*
X184089803Y-73089803D01*
X185552606Y-71627000D01*
X206547394Y-71627000D01*
X207473000Y-72552606D01*
X207473000Y-76723000D01*
X207079750Y-76723000D01*
X206973000Y-76829750D01*
X206973000Y-78227000D01*
X206993000Y-78227000D01*
X206993000Y-78773000D01*
X206973000Y-78773000D01*
X206973000Y-80170250D01*
X207079750Y-80277000D01*
X207473000Y-80277000D01*
X207473000Y-80423000D01*
X206979750Y-80423000D01*
X206873000Y-80529750D01*
X206873000Y-81427000D01*
X206893000Y-81427000D01*
X206893000Y-81973000D01*
X206873000Y-81973000D01*
X206873000Y-82870250D01*
X206979750Y-82977000D01*
X207473000Y-82977000D01*
X207473000Y-86315000D01*
X204827000Y-86315000D01*
X204827000Y-82079750D01*
X205273000Y-82079750D01*
X205273000Y-82634936D01*
X205338007Y-82791876D01*
X205458124Y-82911993D01*
X205615065Y-82977000D01*
X206220250Y-82977000D01*
X206327000Y-82870250D01*
X206327000Y-81973000D01*
X205379750Y-81973000D01*
X205273000Y-82079750D01*
X204827000Y-82079750D01*
X204827000Y-80765064D01*
X205273000Y-80765064D01*
X205273000Y-81320250D01*
X205379750Y-81427000D01*
X206327000Y-81427000D01*
X206327000Y-80529750D01*
X206220250Y-80423000D01*
X205615065Y-80423000D01*
X205458124Y-80488007D01*
X205338007Y-80608124D01*
X205273000Y-80765064D01*
X204827000Y-80765064D01*
X204827000Y-78879750D01*
X205073000Y-78879750D01*
X205073000Y-79934936D01*
X205138007Y-80091876D01*
X205258124Y-80211993D01*
X205415065Y-80277000D01*
X206320250Y-80277000D01*
X206427000Y-80170250D01*
X206427000Y-78773000D01*
X205179750Y-78773000D01*
X205073000Y-78879750D01*
X204827000Y-78879750D01*
X204827000Y-77065064D01*
X205073000Y-77065064D01*
X205073000Y-78120250D01*
X205179750Y-78227000D01*
X206427000Y-78227000D01*
X206427000Y-76829750D01*
X206320250Y-76723000D01*
X205415065Y-76723000D01*
X205258124Y-76788007D01*
X205138007Y-76908124D01*
X205073000Y-77065064D01*
X204827000Y-77065064D01*
X204827000Y-75500000D01*
X204817333Y-75451399D01*
X204789803Y-75410197D01*
X204748601Y-75382667D01*
X204700000Y-75373000D01*
X203800000Y-75373000D01*
X203751399Y-75382667D01*
X203710197Y-75410197D01*
X203682667Y-75451399D01*
X203673000Y-75500000D01*
X203673000Y-86315000D01*
X114127000Y-86315000D01*
X114127000Y-77078041D01*
X187965000Y-77078041D01*
X187965000Y-78921959D01*
X188670637Y-80625517D01*
X189974483Y-81929363D01*
X191678041Y-82635000D01*
X193521959Y-82635000D01*
X195225517Y-81929363D01*
X196529363Y-80625517D01*
X197235000Y-78921959D01*
X197235000Y-77078041D01*
X196529363Y-75374483D01*
X195225517Y-74070637D01*
X193521959Y-73365000D01*
X191678041Y-73365000D01*
X189974483Y-74070637D01*
X188670637Y-75374483D01*
X187965000Y-77078041D01*
X114127000Y-77078041D01*
X114127000Y-72052606D01*
X119552606Y-66627000D01*
X143947394Y-66627000D01*
X150410197Y-73089803D01*
G04 #@! TO.N,Net-(D4-Pad1)*
G36*
X211873000Y-64052606D02*
X211873000Y-76769000D01*
X211722250Y-76769000D01*
X211627000Y-76864250D01*
X211627000Y-78373000D01*
X211647000Y-78373000D01*
X211647000Y-78627000D01*
X211627000Y-78627000D01*
X211627000Y-80135750D01*
X211722250Y-80231000D01*
X211873000Y-80231000D01*
X211873000Y-80469000D01*
X211722250Y-80469000D01*
X211627000Y-80564250D01*
X211627000Y-81573000D01*
X211647000Y-81573000D01*
X211647000Y-81827000D01*
X211627000Y-81827000D01*
X211627000Y-82835750D01*
X211722250Y-82931000D01*
X211873000Y-82931000D01*
X211873000Y-83873000D01*
X209127000Y-83873000D01*
X209127000Y-82931000D01*
X209277750Y-82931000D01*
X209373000Y-82835750D01*
X209373000Y-81827000D01*
X209627000Y-81827000D01*
X209627000Y-82835750D01*
X209722250Y-82931000D01*
X210475786Y-82931000D01*
X210500000Y-82920970D01*
X210524214Y-82931000D01*
X211277750Y-82931000D01*
X211373000Y-82835750D01*
X211373000Y-81827000D01*
X209627000Y-81827000D01*
X209373000Y-81827000D01*
X209353000Y-81827000D01*
X209353000Y-81573000D01*
X209373000Y-81573000D01*
X209373000Y-80564250D01*
X209627000Y-80564250D01*
X209627000Y-81573000D01*
X211373000Y-81573000D01*
X211373000Y-80564250D01*
X211277750Y-80469000D01*
X210524214Y-80469000D01*
X210500000Y-80479030D01*
X210475786Y-80469000D01*
X209722250Y-80469000D01*
X209627000Y-80564250D01*
X209373000Y-80564250D01*
X209277750Y-80469000D01*
X209127000Y-80469000D01*
X209127000Y-78722250D01*
X209919000Y-78722250D01*
X209919000Y-79925785D01*
X209977004Y-80065819D01*
X210084180Y-80172996D01*
X210224214Y-80231000D01*
X211277750Y-80231000D01*
X211373000Y-80135750D01*
X211373000Y-78627000D01*
X210014250Y-78627000D01*
X209919000Y-78722250D01*
X209127000Y-78722250D01*
X209127000Y-77074215D01*
X209919000Y-77074215D01*
X209919000Y-78277750D01*
X210014250Y-78373000D01*
X211373000Y-78373000D01*
X211373000Y-76864250D01*
X211277750Y-76769000D01*
X210224214Y-76769000D01*
X210084180Y-76827004D01*
X209977004Y-76934181D01*
X209919000Y-77074215D01*
X209127000Y-77074215D01*
X209127000Y-70000000D01*
X209117333Y-69951399D01*
X209089803Y-69910197D01*
X209048601Y-69882667D01*
X209000000Y-69873000D01*
X206627000Y-69873000D01*
X206627000Y-61127000D01*
X208947394Y-61127000D01*
X211873000Y-64052606D01*
X211873000Y-64052606D01*
G37*
X211873000Y-64052606D02*
X211873000Y-76769000D01*
X211722250Y-76769000D01*
X211627000Y-76864250D01*
X211627000Y-78373000D01*
X211647000Y-78373000D01*
X211647000Y-78627000D01*
X211627000Y-78627000D01*
X211627000Y-80135750D01*
X211722250Y-80231000D01*
X211873000Y-80231000D01*
X211873000Y-80469000D01*
X211722250Y-80469000D01*
X211627000Y-80564250D01*
X211627000Y-81573000D01*
X211647000Y-81573000D01*
X211647000Y-81827000D01*
X211627000Y-81827000D01*
X211627000Y-82835750D01*
X211722250Y-82931000D01*
X211873000Y-82931000D01*
X211873000Y-83873000D01*
X209127000Y-83873000D01*
X209127000Y-82931000D01*
X209277750Y-82931000D01*
X209373000Y-82835750D01*
X209373000Y-81827000D01*
X209627000Y-81827000D01*
X209627000Y-82835750D01*
X209722250Y-82931000D01*
X210475786Y-82931000D01*
X210500000Y-82920970D01*
X210524214Y-82931000D01*
X211277750Y-82931000D01*
X211373000Y-82835750D01*
X211373000Y-81827000D01*
X209627000Y-81827000D01*
X209373000Y-81827000D01*
X209353000Y-81827000D01*
X209353000Y-81573000D01*
X209373000Y-81573000D01*
X209373000Y-80564250D01*
X209627000Y-80564250D01*
X209627000Y-81573000D01*
X211373000Y-81573000D01*
X211373000Y-80564250D01*
X211277750Y-80469000D01*
X210524214Y-80469000D01*
X210500000Y-80479030D01*
X210475786Y-80469000D01*
X209722250Y-80469000D01*
X209627000Y-80564250D01*
X209373000Y-80564250D01*
X209277750Y-80469000D01*
X209127000Y-80469000D01*
X209127000Y-78722250D01*
X209919000Y-78722250D01*
X209919000Y-79925785D01*
X209977004Y-80065819D01*
X210084180Y-80172996D01*
X210224214Y-80231000D01*
X211277750Y-80231000D01*
X211373000Y-80135750D01*
X211373000Y-78627000D01*
X210014250Y-78627000D01*
X209919000Y-78722250D01*
X209127000Y-78722250D01*
X209127000Y-77074215D01*
X209919000Y-77074215D01*
X209919000Y-78277750D01*
X210014250Y-78373000D01*
X211373000Y-78373000D01*
X211373000Y-76864250D01*
X211277750Y-76769000D01*
X210224214Y-76769000D01*
X210084180Y-76827004D01*
X209977004Y-76934181D01*
X209919000Y-77074215D01*
X209127000Y-77074215D01*
X209127000Y-70000000D01*
X209117333Y-69951399D01*
X209089803Y-69910197D01*
X209048601Y-69882667D01*
X209000000Y-69873000D01*
X206627000Y-69873000D01*
X206627000Y-61127000D01*
X208947394Y-61127000D01*
X211873000Y-64052606D01*
G04 #@! TO.N,/PH1*
G36*
X109373000Y-58500000D02*
X109382667Y-58548601D01*
X109410197Y-58589803D01*
X109451399Y-58617333D01*
X109500000Y-58627000D01*
X110500000Y-58627000D01*
X110548601Y-58617333D01*
X110589803Y-58589803D01*
X110617333Y-58548601D01*
X110627000Y-58500000D01*
X110627000Y-55178041D01*
X119265000Y-55178041D01*
X119265000Y-57021959D01*
X119970637Y-58725517D01*
X121274483Y-60029363D01*
X122978041Y-60735000D01*
X124821959Y-60735000D01*
X126525517Y-60029363D01*
X127829363Y-58725517D01*
X128097556Y-58078041D01*
X174365000Y-58078041D01*
X174365000Y-59921959D01*
X175070637Y-61625517D01*
X176374483Y-62929363D01*
X178078041Y-63635000D01*
X179921959Y-63635000D01*
X181625517Y-62929363D01*
X182929363Y-61625517D01*
X183635000Y-59921959D01*
X183635000Y-58078041D01*
X182929363Y-56374483D01*
X181625517Y-55070637D01*
X179921959Y-54365000D01*
X178078041Y-54365000D01*
X176374483Y-55070637D01*
X175070637Y-56374483D01*
X174365000Y-58078041D01*
X128097556Y-58078041D01*
X128535000Y-57021959D01*
X128535000Y-55178041D01*
X127829363Y-53474483D01*
X126525517Y-52170637D01*
X124821959Y-51465000D01*
X122978041Y-51465000D01*
X121274483Y-52170637D01*
X119970637Y-53474483D01*
X119265000Y-55178041D01*
X110627000Y-55178041D01*
X110627000Y-47685000D01*
X202373000Y-47685000D01*
X202373000Y-62947394D01*
X197447394Y-67873000D01*
X156052606Y-67873000D01*
X151089803Y-62910197D01*
X151048601Y-62882667D01*
X151000000Y-62873000D01*
X109552606Y-62873000D01*
X106627000Y-59947394D01*
X106627000Y-57231000D01*
X107177750Y-57231000D01*
X107273000Y-57135750D01*
X107273000Y-55627000D01*
X107527000Y-55627000D01*
X107527000Y-57135750D01*
X107622250Y-57231000D01*
X108675786Y-57231000D01*
X108815820Y-57172996D01*
X108922996Y-57065819D01*
X108981000Y-56925785D01*
X108981000Y-55722250D01*
X108885750Y-55627000D01*
X107527000Y-55627000D01*
X107273000Y-55627000D01*
X107253000Y-55627000D01*
X107253000Y-55373000D01*
X107273000Y-55373000D01*
X107273000Y-53864250D01*
X107527000Y-53864250D01*
X107527000Y-55373000D01*
X108885750Y-55373000D01*
X108981000Y-55277750D01*
X108981000Y-54074215D01*
X108922996Y-53934181D01*
X108815820Y-53827004D01*
X108675786Y-53769000D01*
X107622250Y-53769000D01*
X107527000Y-53864250D01*
X107273000Y-53864250D01*
X107177750Y-53769000D01*
X106627000Y-53769000D01*
X106627000Y-53731000D01*
X107177750Y-53731000D01*
X107273000Y-53635750D01*
X107273000Y-52627000D01*
X107527000Y-52627000D01*
X107527000Y-53635750D01*
X107622250Y-53731000D01*
X108375786Y-53731000D01*
X108515820Y-53672996D01*
X108622996Y-53565819D01*
X108681000Y-53425785D01*
X108681000Y-52722250D01*
X108585750Y-52627000D01*
X107527000Y-52627000D01*
X107273000Y-52627000D01*
X107253000Y-52627000D01*
X107253000Y-52373000D01*
X107273000Y-52373000D01*
X107273000Y-51364250D01*
X107527000Y-51364250D01*
X107527000Y-52373000D01*
X108585750Y-52373000D01*
X108681000Y-52277750D01*
X108681000Y-51574215D01*
X108622996Y-51434181D01*
X108515820Y-51327004D01*
X108375786Y-51269000D01*
X107622250Y-51269000D01*
X107527000Y-51364250D01*
X107273000Y-51364250D01*
X107177750Y-51269000D01*
X106627000Y-51269000D01*
X106627000Y-47685000D01*
X109373000Y-47685000D01*
X109373000Y-58500000D01*
X109373000Y-58500000D01*
G37*
X109373000Y-58500000D02*
X109382667Y-58548601D01*
X109410197Y-58589803D01*
X109451399Y-58617333D01*
X109500000Y-58627000D01*
X110500000Y-58627000D01*
X110548601Y-58617333D01*
X110589803Y-58589803D01*
X110617333Y-58548601D01*
X110627000Y-58500000D01*
X110627000Y-55178041D01*
X119265000Y-55178041D01*
X119265000Y-57021959D01*
X119970637Y-58725517D01*
X121274483Y-60029363D01*
X122978041Y-60735000D01*
X124821959Y-60735000D01*
X126525517Y-60029363D01*
X127829363Y-58725517D01*
X128097556Y-58078041D01*
X174365000Y-58078041D01*
X174365000Y-59921959D01*
X175070637Y-61625517D01*
X176374483Y-62929363D01*
X178078041Y-63635000D01*
X179921959Y-63635000D01*
X181625517Y-62929363D01*
X182929363Y-61625517D01*
X183635000Y-59921959D01*
X183635000Y-58078041D01*
X182929363Y-56374483D01*
X181625517Y-55070637D01*
X179921959Y-54365000D01*
X178078041Y-54365000D01*
X176374483Y-55070637D01*
X175070637Y-56374483D01*
X174365000Y-58078041D01*
X128097556Y-58078041D01*
X128535000Y-57021959D01*
X128535000Y-55178041D01*
X127829363Y-53474483D01*
X126525517Y-52170637D01*
X124821959Y-51465000D01*
X122978041Y-51465000D01*
X121274483Y-52170637D01*
X119970637Y-53474483D01*
X119265000Y-55178041D01*
X110627000Y-55178041D01*
X110627000Y-47685000D01*
X202373000Y-47685000D01*
X202373000Y-62947394D01*
X197447394Y-67873000D01*
X156052606Y-67873000D01*
X151089803Y-62910197D01*
X151048601Y-62882667D01*
X151000000Y-62873000D01*
X109552606Y-62873000D01*
X106627000Y-59947394D01*
X106627000Y-57231000D01*
X107177750Y-57231000D01*
X107273000Y-57135750D01*
X107273000Y-55627000D01*
X107527000Y-55627000D01*
X107527000Y-57135750D01*
X107622250Y-57231000D01*
X108675786Y-57231000D01*
X108815820Y-57172996D01*
X108922996Y-57065819D01*
X108981000Y-56925785D01*
X108981000Y-55722250D01*
X108885750Y-55627000D01*
X107527000Y-55627000D01*
X107273000Y-55627000D01*
X107253000Y-55627000D01*
X107253000Y-55373000D01*
X107273000Y-55373000D01*
X107273000Y-53864250D01*
X107527000Y-53864250D01*
X107527000Y-55373000D01*
X108885750Y-55373000D01*
X108981000Y-55277750D01*
X108981000Y-54074215D01*
X108922996Y-53934181D01*
X108815820Y-53827004D01*
X108675786Y-53769000D01*
X107622250Y-53769000D01*
X107527000Y-53864250D01*
X107273000Y-53864250D01*
X107177750Y-53769000D01*
X106627000Y-53769000D01*
X106627000Y-53731000D01*
X107177750Y-53731000D01*
X107273000Y-53635750D01*
X107273000Y-52627000D01*
X107527000Y-52627000D01*
X107527000Y-53635750D01*
X107622250Y-53731000D01*
X108375786Y-53731000D01*
X108515820Y-53672996D01*
X108622996Y-53565819D01*
X108681000Y-53425785D01*
X108681000Y-52722250D01*
X108585750Y-52627000D01*
X107527000Y-52627000D01*
X107273000Y-52627000D01*
X107253000Y-52627000D01*
X107253000Y-52373000D01*
X107273000Y-52373000D01*
X107273000Y-51364250D01*
X107527000Y-51364250D01*
X107527000Y-52373000D01*
X108585750Y-52373000D01*
X108681000Y-52277750D01*
X108681000Y-51574215D01*
X108622996Y-51434181D01*
X108515820Y-51327004D01*
X108375786Y-51269000D01*
X107622250Y-51269000D01*
X107527000Y-51364250D01*
X107273000Y-51364250D01*
X107177750Y-51269000D01*
X106627000Y-51269000D01*
X106627000Y-47685000D01*
X109373000Y-47685000D01*
X109373000Y-58500000D01*
G04 #@! TO.N,Net-(D3-Pad1)*
G36*
X104873000Y-51269000D02*
X104722250Y-51269000D01*
X104627000Y-51364250D01*
X104627000Y-52373000D01*
X104647000Y-52373000D01*
X104647000Y-52627000D01*
X104627000Y-52627000D01*
X104627000Y-53635750D01*
X104722250Y-53731000D01*
X104873000Y-53731000D01*
X104873000Y-61000000D01*
X104882667Y-61048601D01*
X104910197Y-61089803D01*
X109873000Y-66052606D01*
X109873000Y-73373000D01*
X105052606Y-73373000D01*
X102127000Y-70447394D01*
X102127000Y-57231000D01*
X102377750Y-57231000D01*
X102473000Y-57135750D01*
X102473000Y-55627000D01*
X102727000Y-55627000D01*
X102727000Y-57135750D01*
X102822250Y-57231000D01*
X103875786Y-57231000D01*
X104015820Y-57172996D01*
X104122996Y-57065819D01*
X104181000Y-56925785D01*
X104181000Y-55722250D01*
X104085750Y-55627000D01*
X102727000Y-55627000D01*
X102473000Y-55627000D01*
X102453000Y-55627000D01*
X102453000Y-55373000D01*
X102473000Y-55373000D01*
X102473000Y-53864250D01*
X102727000Y-53864250D01*
X102727000Y-55373000D01*
X104085750Y-55373000D01*
X104181000Y-55277750D01*
X104181000Y-54074215D01*
X104122996Y-53934181D01*
X104015820Y-53827004D01*
X103875786Y-53769000D01*
X102822250Y-53769000D01*
X102727000Y-53864250D01*
X102473000Y-53864250D01*
X102377750Y-53769000D01*
X102127000Y-53769000D01*
X102127000Y-53731000D01*
X102177750Y-53731000D01*
X102273000Y-53635750D01*
X102273000Y-52627000D01*
X102527000Y-52627000D01*
X102527000Y-53635750D01*
X102622250Y-53731000D01*
X103375786Y-53731000D01*
X103450000Y-53700260D01*
X103524214Y-53731000D01*
X104277750Y-53731000D01*
X104373000Y-53635750D01*
X104373000Y-52627000D01*
X102527000Y-52627000D01*
X102273000Y-52627000D01*
X102253000Y-52627000D01*
X102253000Y-52373000D01*
X102273000Y-52373000D01*
X102273000Y-51364250D01*
X102527000Y-51364250D01*
X102527000Y-52373000D01*
X104373000Y-52373000D01*
X104373000Y-51364250D01*
X104277750Y-51269000D01*
X103524214Y-51269000D01*
X103450000Y-51299740D01*
X103375786Y-51269000D01*
X102622250Y-51269000D01*
X102527000Y-51364250D01*
X102273000Y-51364250D01*
X102177750Y-51269000D01*
X102127000Y-51269000D01*
X102127000Y-50627000D01*
X104873000Y-50627000D01*
X104873000Y-51269000D01*
X104873000Y-51269000D01*
G37*
X104873000Y-51269000D02*
X104722250Y-51269000D01*
X104627000Y-51364250D01*
X104627000Y-52373000D01*
X104647000Y-52373000D01*
X104647000Y-52627000D01*
X104627000Y-52627000D01*
X104627000Y-53635750D01*
X104722250Y-53731000D01*
X104873000Y-53731000D01*
X104873000Y-61000000D01*
X104882667Y-61048601D01*
X104910197Y-61089803D01*
X109873000Y-66052606D01*
X109873000Y-73373000D01*
X105052606Y-73373000D01*
X102127000Y-70447394D01*
X102127000Y-57231000D01*
X102377750Y-57231000D01*
X102473000Y-57135750D01*
X102473000Y-55627000D01*
X102727000Y-55627000D01*
X102727000Y-57135750D01*
X102822250Y-57231000D01*
X103875786Y-57231000D01*
X104015820Y-57172996D01*
X104122996Y-57065819D01*
X104181000Y-56925785D01*
X104181000Y-55722250D01*
X104085750Y-55627000D01*
X102727000Y-55627000D01*
X102473000Y-55627000D01*
X102453000Y-55627000D01*
X102453000Y-55373000D01*
X102473000Y-55373000D01*
X102473000Y-53864250D01*
X102727000Y-53864250D01*
X102727000Y-55373000D01*
X104085750Y-55373000D01*
X104181000Y-55277750D01*
X104181000Y-54074215D01*
X104122996Y-53934181D01*
X104015820Y-53827004D01*
X103875786Y-53769000D01*
X102822250Y-53769000D01*
X102727000Y-53864250D01*
X102473000Y-53864250D01*
X102377750Y-53769000D01*
X102127000Y-53769000D01*
X102127000Y-53731000D01*
X102177750Y-53731000D01*
X102273000Y-53635750D01*
X102273000Y-52627000D01*
X102527000Y-52627000D01*
X102527000Y-53635750D01*
X102622250Y-53731000D01*
X103375786Y-53731000D01*
X103450000Y-53700260D01*
X103524214Y-53731000D01*
X104277750Y-53731000D01*
X104373000Y-53635750D01*
X104373000Y-52627000D01*
X102527000Y-52627000D01*
X102273000Y-52627000D01*
X102253000Y-52627000D01*
X102253000Y-52373000D01*
X102273000Y-52373000D01*
X102273000Y-51364250D01*
X102527000Y-51364250D01*
X102527000Y-52373000D01*
X104373000Y-52373000D01*
X104373000Y-51364250D01*
X104277750Y-51269000D01*
X103524214Y-51269000D01*
X103450000Y-51299740D01*
X103375786Y-51269000D01*
X102622250Y-51269000D01*
X102527000Y-51364250D01*
X102273000Y-51364250D01*
X102177750Y-51269000D01*
X102127000Y-51269000D01*
X102127000Y-50627000D01*
X104873000Y-50627000D01*
X104873000Y-51269000D01*
G04 #@! TO.N,Net-(D2-Pad1)*
G36*
X211873000Y-112052606D02*
X211873000Y-124769000D01*
X211722250Y-124769000D01*
X211627000Y-124864250D01*
X211627000Y-126373000D01*
X211647000Y-126373000D01*
X211647000Y-126627000D01*
X211627000Y-126627000D01*
X211627000Y-128135750D01*
X211722250Y-128231000D01*
X211873000Y-128231000D01*
X211873000Y-128469000D01*
X211722250Y-128469000D01*
X211627000Y-128564250D01*
X211627000Y-129573000D01*
X211647000Y-129573000D01*
X211647000Y-129827000D01*
X211627000Y-129827000D01*
X211627000Y-130835750D01*
X211722250Y-130931000D01*
X211873000Y-130931000D01*
X211873000Y-131873000D01*
X209127000Y-131873000D01*
X209127000Y-130931000D01*
X209277750Y-130931000D01*
X209373000Y-130835750D01*
X209373000Y-129827000D01*
X209627000Y-129827000D01*
X209627000Y-130835750D01*
X209722250Y-130931000D01*
X210475786Y-130931000D01*
X210500000Y-130920970D01*
X210524214Y-130931000D01*
X211277750Y-130931000D01*
X211373000Y-130835750D01*
X211373000Y-129827000D01*
X209627000Y-129827000D01*
X209373000Y-129827000D01*
X209353000Y-129827000D01*
X209353000Y-129573000D01*
X209373000Y-129573000D01*
X209373000Y-128564250D01*
X209627000Y-128564250D01*
X209627000Y-129573000D01*
X211373000Y-129573000D01*
X211373000Y-128564250D01*
X211277750Y-128469000D01*
X210524214Y-128469000D01*
X210500000Y-128479030D01*
X210475786Y-128469000D01*
X209722250Y-128469000D01*
X209627000Y-128564250D01*
X209373000Y-128564250D01*
X209277750Y-128469000D01*
X209127000Y-128469000D01*
X209127000Y-126722250D01*
X209919000Y-126722250D01*
X209919000Y-127925785D01*
X209977004Y-128065819D01*
X210084180Y-128172996D01*
X210224214Y-128231000D01*
X211277750Y-128231000D01*
X211373000Y-128135750D01*
X211373000Y-126627000D01*
X210014250Y-126627000D01*
X209919000Y-126722250D01*
X209127000Y-126722250D01*
X209127000Y-125074215D01*
X209919000Y-125074215D01*
X209919000Y-126277750D01*
X210014250Y-126373000D01*
X211373000Y-126373000D01*
X211373000Y-124864250D01*
X211277750Y-124769000D01*
X210224214Y-124769000D01*
X210084180Y-124827004D01*
X209977004Y-124934181D01*
X209919000Y-125074215D01*
X209127000Y-125074215D01*
X209127000Y-118000000D01*
X209117333Y-117951399D01*
X209089803Y-117910197D01*
X209048601Y-117882667D01*
X209000000Y-117873000D01*
X206627000Y-117873000D01*
X206627000Y-109127000D01*
X208947394Y-109127000D01*
X211873000Y-112052606D01*
X211873000Y-112052606D01*
G37*
X211873000Y-112052606D02*
X211873000Y-124769000D01*
X211722250Y-124769000D01*
X211627000Y-124864250D01*
X211627000Y-126373000D01*
X211647000Y-126373000D01*
X211647000Y-126627000D01*
X211627000Y-126627000D01*
X211627000Y-128135750D01*
X211722250Y-128231000D01*
X211873000Y-128231000D01*
X211873000Y-128469000D01*
X211722250Y-128469000D01*
X211627000Y-128564250D01*
X211627000Y-129573000D01*
X211647000Y-129573000D01*
X211647000Y-129827000D01*
X211627000Y-129827000D01*
X211627000Y-130835750D01*
X211722250Y-130931000D01*
X211873000Y-130931000D01*
X211873000Y-131873000D01*
X209127000Y-131873000D01*
X209127000Y-130931000D01*
X209277750Y-130931000D01*
X209373000Y-130835750D01*
X209373000Y-129827000D01*
X209627000Y-129827000D01*
X209627000Y-130835750D01*
X209722250Y-130931000D01*
X210475786Y-130931000D01*
X210500000Y-130920970D01*
X210524214Y-130931000D01*
X211277750Y-130931000D01*
X211373000Y-130835750D01*
X211373000Y-129827000D01*
X209627000Y-129827000D01*
X209373000Y-129827000D01*
X209353000Y-129827000D01*
X209353000Y-129573000D01*
X209373000Y-129573000D01*
X209373000Y-128564250D01*
X209627000Y-128564250D01*
X209627000Y-129573000D01*
X211373000Y-129573000D01*
X211373000Y-128564250D01*
X211277750Y-128469000D01*
X210524214Y-128469000D01*
X210500000Y-128479030D01*
X210475786Y-128469000D01*
X209722250Y-128469000D01*
X209627000Y-128564250D01*
X209373000Y-128564250D01*
X209277750Y-128469000D01*
X209127000Y-128469000D01*
X209127000Y-126722250D01*
X209919000Y-126722250D01*
X209919000Y-127925785D01*
X209977004Y-128065819D01*
X210084180Y-128172996D01*
X210224214Y-128231000D01*
X211277750Y-128231000D01*
X211373000Y-128135750D01*
X211373000Y-126627000D01*
X210014250Y-126627000D01*
X209919000Y-126722250D01*
X209127000Y-126722250D01*
X209127000Y-125074215D01*
X209919000Y-125074215D01*
X209919000Y-126277750D01*
X210014250Y-126373000D01*
X211373000Y-126373000D01*
X211373000Y-124864250D01*
X211277750Y-124769000D01*
X210224214Y-124769000D01*
X210084180Y-124827004D01*
X209977004Y-124934181D01*
X209919000Y-125074215D01*
X209127000Y-125074215D01*
X209127000Y-118000000D01*
X209117333Y-117951399D01*
X209089803Y-117910197D01*
X209048601Y-117882667D01*
X209000000Y-117873000D01*
X206627000Y-117873000D01*
X206627000Y-109127000D01*
X208947394Y-109127000D01*
X211873000Y-112052606D01*
G04 #@! TO.N,/LD3*
G36*
X150410197Y-121089803D02*
X150451399Y-121117333D01*
X150500000Y-121127000D01*
X184000000Y-121127000D01*
X184048601Y-121117333D01*
X184089803Y-121089803D01*
X185552606Y-119627000D01*
X206547394Y-119627000D01*
X207473000Y-120552606D01*
X207473000Y-124723000D01*
X207079750Y-124723000D01*
X206973000Y-124829750D01*
X206973000Y-126227000D01*
X206993000Y-126227000D01*
X206993000Y-126773000D01*
X206973000Y-126773000D01*
X206973000Y-128170250D01*
X207079750Y-128277000D01*
X207473000Y-128277000D01*
X207473000Y-128423000D01*
X206979750Y-128423000D01*
X206873000Y-128529750D01*
X206873000Y-129427000D01*
X206893000Y-129427000D01*
X206893000Y-129973000D01*
X206873000Y-129973000D01*
X206873000Y-130870250D01*
X206979750Y-130977000D01*
X207473000Y-130977000D01*
X207473000Y-134315000D01*
X204827000Y-134315000D01*
X204827000Y-130079750D01*
X205273000Y-130079750D01*
X205273000Y-130634936D01*
X205338007Y-130791876D01*
X205458124Y-130911993D01*
X205615065Y-130977000D01*
X206220250Y-130977000D01*
X206327000Y-130870250D01*
X206327000Y-129973000D01*
X205379750Y-129973000D01*
X205273000Y-130079750D01*
X204827000Y-130079750D01*
X204827000Y-128765064D01*
X205273000Y-128765064D01*
X205273000Y-129320250D01*
X205379750Y-129427000D01*
X206327000Y-129427000D01*
X206327000Y-128529750D01*
X206220250Y-128423000D01*
X205615065Y-128423000D01*
X205458124Y-128488007D01*
X205338007Y-128608124D01*
X205273000Y-128765064D01*
X204827000Y-128765064D01*
X204827000Y-126879750D01*
X205073000Y-126879750D01*
X205073000Y-127934936D01*
X205138007Y-128091876D01*
X205258124Y-128211993D01*
X205415065Y-128277000D01*
X206320250Y-128277000D01*
X206427000Y-128170250D01*
X206427000Y-126773000D01*
X205179750Y-126773000D01*
X205073000Y-126879750D01*
X204827000Y-126879750D01*
X204827000Y-125065064D01*
X205073000Y-125065064D01*
X205073000Y-126120250D01*
X205179750Y-126227000D01*
X206427000Y-126227000D01*
X206427000Y-124829750D01*
X206320250Y-124723000D01*
X205415065Y-124723000D01*
X205258124Y-124788007D01*
X205138007Y-124908124D01*
X205073000Y-125065064D01*
X204827000Y-125065064D01*
X204827000Y-123500000D01*
X204817333Y-123451399D01*
X204789803Y-123410197D01*
X204748601Y-123382667D01*
X204700000Y-123373000D01*
X203800000Y-123373000D01*
X203751399Y-123382667D01*
X203710197Y-123410197D01*
X203682667Y-123451399D01*
X203673000Y-123500000D01*
X203673000Y-134315000D01*
X114127000Y-134315000D01*
X114127000Y-125078041D01*
X187965000Y-125078041D01*
X187965000Y-126921959D01*
X188670637Y-128625517D01*
X189974483Y-129929363D01*
X191678041Y-130635000D01*
X193521959Y-130635000D01*
X195225517Y-129929363D01*
X196529363Y-128625517D01*
X197235000Y-126921959D01*
X197235000Y-125078041D01*
X196529363Y-123374483D01*
X195225517Y-122070637D01*
X193521959Y-121365000D01*
X191678041Y-121365000D01*
X189974483Y-122070637D01*
X188670637Y-123374483D01*
X187965000Y-125078041D01*
X114127000Y-125078041D01*
X114127000Y-120052606D01*
X119552606Y-114627000D01*
X143947394Y-114627000D01*
X150410197Y-121089803D01*
X150410197Y-121089803D01*
G37*
X150410197Y-121089803D02*
X150451399Y-121117333D01*
X150500000Y-121127000D01*
X184000000Y-121127000D01*
X184048601Y-121117333D01*
X184089803Y-121089803D01*
X185552606Y-119627000D01*
X206547394Y-119627000D01*
X207473000Y-120552606D01*
X207473000Y-124723000D01*
X207079750Y-124723000D01*
X206973000Y-124829750D01*
X206973000Y-126227000D01*
X206993000Y-126227000D01*
X206993000Y-126773000D01*
X206973000Y-126773000D01*
X206973000Y-128170250D01*
X207079750Y-128277000D01*
X207473000Y-128277000D01*
X207473000Y-128423000D01*
X206979750Y-128423000D01*
X206873000Y-128529750D01*
X206873000Y-129427000D01*
X206893000Y-129427000D01*
X206893000Y-129973000D01*
X206873000Y-129973000D01*
X206873000Y-130870250D01*
X206979750Y-130977000D01*
X207473000Y-130977000D01*
X207473000Y-134315000D01*
X204827000Y-134315000D01*
X204827000Y-130079750D01*
X205273000Y-130079750D01*
X205273000Y-130634936D01*
X205338007Y-130791876D01*
X205458124Y-130911993D01*
X205615065Y-130977000D01*
X206220250Y-130977000D01*
X206327000Y-130870250D01*
X206327000Y-129973000D01*
X205379750Y-129973000D01*
X205273000Y-130079750D01*
X204827000Y-130079750D01*
X204827000Y-128765064D01*
X205273000Y-128765064D01*
X205273000Y-129320250D01*
X205379750Y-129427000D01*
X206327000Y-129427000D01*
X206327000Y-128529750D01*
X206220250Y-128423000D01*
X205615065Y-128423000D01*
X205458124Y-128488007D01*
X205338007Y-128608124D01*
X205273000Y-128765064D01*
X204827000Y-128765064D01*
X204827000Y-126879750D01*
X205073000Y-126879750D01*
X205073000Y-127934936D01*
X205138007Y-128091876D01*
X205258124Y-128211993D01*
X205415065Y-128277000D01*
X206320250Y-128277000D01*
X206427000Y-128170250D01*
X206427000Y-126773000D01*
X205179750Y-126773000D01*
X205073000Y-126879750D01*
X204827000Y-126879750D01*
X204827000Y-125065064D01*
X205073000Y-125065064D01*
X205073000Y-126120250D01*
X205179750Y-126227000D01*
X206427000Y-126227000D01*
X206427000Y-124829750D01*
X206320250Y-124723000D01*
X205415065Y-124723000D01*
X205258124Y-124788007D01*
X205138007Y-124908124D01*
X205073000Y-125065064D01*
X204827000Y-125065064D01*
X204827000Y-123500000D01*
X204817333Y-123451399D01*
X204789803Y-123410197D01*
X204748601Y-123382667D01*
X204700000Y-123373000D01*
X203800000Y-123373000D01*
X203751399Y-123382667D01*
X203710197Y-123410197D01*
X203682667Y-123451399D01*
X203673000Y-123500000D01*
X203673000Y-134315000D01*
X114127000Y-134315000D01*
X114127000Y-125078041D01*
X187965000Y-125078041D01*
X187965000Y-126921959D01*
X188670637Y-128625517D01*
X189974483Y-129929363D01*
X191678041Y-130635000D01*
X193521959Y-130635000D01*
X195225517Y-129929363D01*
X196529363Y-128625517D01*
X197235000Y-126921959D01*
X197235000Y-125078041D01*
X196529363Y-123374483D01*
X195225517Y-122070637D01*
X193521959Y-121365000D01*
X191678041Y-121365000D01*
X189974483Y-122070637D01*
X188670637Y-123374483D01*
X187965000Y-125078041D01*
X114127000Y-125078041D01*
X114127000Y-120052606D01*
X119552606Y-114627000D01*
X143947394Y-114627000D01*
X150410197Y-121089803D01*
G04 #@! TO.N,Net-(D1-Pad1)*
G36*
X104873000Y-99269000D02*
X104722250Y-99269000D01*
X104627000Y-99364250D01*
X104627000Y-100373000D01*
X104647000Y-100373000D01*
X104647000Y-100627000D01*
X104627000Y-100627000D01*
X104627000Y-101635750D01*
X104722250Y-101731000D01*
X104873000Y-101731000D01*
X104873000Y-109000000D01*
X104882667Y-109048601D01*
X104910197Y-109089803D01*
X109873000Y-114052606D01*
X109873000Y-121373000D01*
X105052606Y-121373000D01*
X102127000Y-118447394D01*
X102127000Y-105231000D01*
X102377750Y-105231000D01*
X102473000Y-105135750D01*
X102473000Y-103627000D01*
X102727000Y-103627000D01*
X102727000Y-105135750D01*
X102822250Y-105231000D01*
X103875786Y-105231000D01*
X104015820Y-105172996D01*
X104122996Y-105065819D01*
X104181000Y-104925785D01*
X104181000Y-103722250D01*
X104085750Y-103627000D01*
X102727000Y-103627000D01*
X102473000Y-103627000D01*
X102453000Y-103627000D01*
X102453000Y-103373000D01*
X102473000Y-103373000D01*
X102473000Y-101864250D01*
X102727000Y-101864250D01*
X102727000Y-103373000D01*
X104085750Y-103373000D01*
X104181000Y-103277750D01*
X104181000Y-102074215D01*
X104122996Y-101934181D01*
X104015820Y-101827004D01*
X103875786Y-101769000D01*
X102822250Y-101769000D01*
X102727000Y-101864250D01*
X102473000Y-101864250D01*
X102377750Y-101769000D01*
X102127000Y-101769000D01*
X102127000Y-101731000D01*
X102177750Y-101731000D01*
X102273000Y-101635750D01*
X102273000Y-100627000D01*
X102527000Y-100627000D01*
X102527000Y-101635750D01*
X102622250Y-101731000D01*
X103375786Y-101731000D01*
X103450000Y-101700260D01*
X103524214Y-101731000D01*
X104277750Y-101731000D01*
X104373000Y-101635750D01*
X104373000Y-100627000D01*
X102527000Y-100627000D01*
X102273000Y-100627000D01*
X102253000Y-100627000D01*
X102253000Y-100373000D01*
X102273000Y-100373000D01*
X102273000Y-99364250D01*
X102527000Y-99364250D01*
X102527000Y-100373000D01*
X104373000Y-100373000D01*
X104373000Y-99364250D01*
X104277750Y-99269000D01*
X103524214Y-99269000D01*
X103450000Y-99299740D01*
X103375786Y-99269000D01*
X102622250Y-99269000D01*
X102527000Y-99364250D01*
X102273000Y-99364250D01*
X102177750Y-99269000D01*
X102127000Y-99269000D01*
X102127000Y-98627000D01*
X104873000Y-98627000D01*
X104873000Y-99269000D01*
X104873000Y-99269000D01*
G37*
X104873000Y-99269000D02*
X104722250Y-99269000D01*
X104627000Y-99364250D01*
X104627000Y-100373000D01*
X104647000Y-100373000D01*
X104647000Y-100627000D01*
X104627000Y-100627000D01*
X104627000Y-101635750D01*
X104722250Y-101731000D01*
X104873000Y-101731000D01*
X104873000Y-109000000D01*
X104882667Y-109048601D01*
X104910197Y-109089803D01*
X109873000Y-114052606D01*
X109873000Y-121373000D01*
X105052606Y-121373000D01*
X102127000Y-118447394D01*
X102127000Y-105231000D01*
X102377750Y-105231000D01*
X102473000Y-105135750D01*
X102473000Y-103627000D01*
X102727000Y-103627000D01*
X102727000Y-105135750D01*
X102822250Y-105231000D01*
X103875786Y-105231000D01*
X104015820Y-105172996D01*
X104122996Y-105065819D01*
X104181000Y-104925785D01*
X104181000Y-103722250D01*
X104085750Y-103627000D01*
X102727000Y-103627000D01*
X102473000Y-103627000D01*
X102453000Y-103627000D01*
X102453000Y-103373000D01*
X102473000Y-103373000D01*
X102473000Y-101864250D01*
X102727000Y-101864250D01*
X102727000Y-103373000D01*
X104085750Y-103373000D01*
X104181000Y-103277750D01*
X104181000Y-102074215D01*
X104122996Y-101934181D01*
X104015820Y-101827004D01*
X103875786Y-101769000D01*
X102822250Y-101769000D01*
X102727000Y-101864250D01*
X102473000Y-101864250D01*
X102377750Y-101769000D01*
X102127000Y-101769000D01*
X102127000Y-101731000D01*
X102177750Y-101731000D01*
X102273000Y-101635750D01*
X102273000Y-100627000D01*
X102527000Y-100627000D01*
X102527000Y-101635750D01*
X102622250Y-101731000D01*
X103375786Y-101731000D01*
X103450000Y-101700260D01*
X103524214Y-101731000D01*
X104277750Y-101731000D01*
X104373000Y-101635750D01*
X104373000Y-100627000D01*
X102527000Y-100627000D01*
X102273000Y-100627000D01*
X102253000Y-100627000D01*
X102253000Y-100373000D01*
X102273000Y-100373000D01*
X102273000Y-99364250D01*
X102527000Y-99364250D01*
X102527000Y-100373000D01*
X104373000Y-100373000D01*
X104373000Y-99364250D01*
X104277750Y-99269000D01*
X103524214Y-99269000D01*
X103450000Y-99299740D01*
X103375786Y-99269000D01*
X102622250Y-99269000D01*
X102527000Y-99364250D01*
X102273000Y-99364250D01*
X102177750Y-99269000D01*
X102127000Y-99269000D01*
X102127000Y-98627000D01*
X104873000Y-98627000D01*
X104873000Y-99269000D01*
G04 #@! TO.N,/PH3*
G36*
X109373000Y-106500000D02*
X109382667Y-106548601D01*
X109410197Y-106589803D01*
X109451399Y-106617333D01*
X109500000Y-106627000D01*
X110500000Y-106627000D01*
X110548601Y-106617333D01*
X110589803Y-106589803D01*
X110617333Y-106548601D01*
X110627000Y-106500000D01*
X110627000Y-103178041D01*
X119265000Y-103178041D01*
X119265000Y-105021959D01*
X119970637Y-106725517D01*
X121274483Y-108029363D01*
X122978041Y-108735000D01*
X124821959Y-108735000D01*
X126525517Y-108029363D01*
X127829363Y-106725517D01*
X128097556Y-106078041D01*
X174365000Y-106078041D01*
X174365000Y-107921959D01*
X175070637Y-109625517D01*
X176374483Y-110929363D01*
X178078041Y-111635000D01*
X179921959Y-111635000D01*
X181625517Y-110929363D01*
X182929363Y-109625517D01*
X183635000Y-107921959D01*
X183635000Y-106078041D01*
X182929363Y-104374483D01*
X181625517Y-103070637D01*
X179921959Y-102365000D01*
X178078041Y-102365000D01*
X176374483Y-103070637D01*
X175070637Y-104374483D01*
X174365000Y-106078041D01*
X128097556Y-106078041D01*
X128535000Y-105021959D01*
X128535000Y-103178041D01*
X127829363Y-101474483D01*
X126525517Y-100170637D01*
X124821959Y-99465000D01*
X122978041Y-99465000D01*
X121274483Y-100170637D01*
X119970637Y-101474483D01*
X119265000Y-103178041D01*
X110627000Y-103178041D01*
X110627000Y-95685000D01*
X202373000Y-95685000D01*
X202373000Y-110947394D01*
X197447394Y-115873000D01*
X156052606Y-115873000D01*
X151089803Y-110910197D01*
X151048601Y-110882667D01*
X151000000Y-110873000D01*
X109552606Y-110873000D01*
X106627000Y-107947394D01*
X106627000Y-105231000D01*
X107177750Y-105231000D01*
X107273000Y-105135750D01*
X107273000Y-103627000D01*
X107527000Y-103627000D01*
X107527000Y-105135750D01*
X107622250Y-105231000D01*
X108675786Y-105231000D01*
X108815820Y-105172996D01*
X108922996Y-105065819D01*
X108981000Y-104925785D01*
X108981000Y-103722250D01*
X108885750Y-103627000D01*
X107527000Y-103627000D01*
X107273000Y-103627000D01*
X107253000Y-103627000D01*
X107253000Y-103373000D01*
X107273000Y-103373000D01*
X107273000Y-101864250D01*
X107527000Y-101864250D01*
X107527000Y-103373000D01*
X108885750Y-103373000D01*
X108981000Y-103277750D01*
X108981000Y-102074215D01*
X108922996Y-101934181D01*
X108815820Y-101827004D01*
X108675786Y-101769000D01*
X107622250Y-101769000D01*
X107527000Y-101864250D01*
X107273000Y-101864250D01*
X107177750Y-101769000D01*
X106627000Y-101769000D01*
X106627000Y-101731000D01*
X107177750Y-101731000D01*
X107273000Y-101635750D01*
X107273000Y-100627000D01*
X107527000Y-100627000D01*
X107527000Y-101635750D01*
X107622250Y-101731000D01*
X108375786Y-101731000D01*
X108515820Y-101672996D01*
X108622996Y-101565819D01*
X108681000Y-101425785D01*
X108681000Y-100722250D01*
X108585750Y-100627000D01*
X107527000Y-100627000D01*
X107273000Y-100627000D01*
X107253000Y-100627000D01*
X107253000Y-100373000D01*
X107273000Y-100373000D01*
X107273000Y-99364250D01*
X107527000Y-99364250D01*
X107527000Y-100373000D01*
X108585750Y-100373000D01*
X108681000Y-100277750D01*
X108681000Y-99574215D01*
X108622996Y-99434181D01*
X108515820Y-99327004D01*
X108375786Y-99269000D01*
X107622250Y-99269000D01*
X107527000Y-99364250D01*
X107273000Y-99364250D01*
X107177750Y-99269000D01*
X106627000Y-99269000D01*
X106627000Y-95685000D01*
X109373000Y-95685000D01*
X109373000Y-106500000D01*
X109373000Y-106500000D01*
G37*
X109373000Y-106500000D02*
X109382667Y-106548601D01*
X109410197Y-106589803D01*
X109451399Y-106617333D01*
X109500000Y-106627000D01*
X110500000Y-106627000D01*
X110548601Y-106617333D01*
X110589803Y-106589803D01*
X110617333Y-106548601D01*
X110627000Y-106500000D01*
X110627000Y-103178041D01*
X119265000Y-103178041D01*
X119265000Y-105021959D01*
X119970637Y-106725517D01*
X121274483Y-108029363D01*
X122978041Y-108735000D01*
X124821959Y-108735000D01*
X126525517Y-108029363D01*
X127829363Y-106725517D01*
X128097556Y-106078041D01*
X174365000Y-106078041D01*
X174365000Y-107921959D01*
X175070637Y-109625517D01*
X176374483Y-110929363D01*
X178078041Y-111635000D01*
X179921959Y-111635000D01*
X181625517Y-110929363D01*
X182929363Y-109625517D01*
X183635000Y-107921959D01*
X183635000Y-106078041D01*
X182929363Y-104374483D01*
X181625517Y-103070637D01*
X179921959Y-102365000D01*
X178078041Y-102365000D01*
X176374483Y-103070637D01*
X175070637Y-104374483D01*
X174365000Y-106078041D01*
X128097556Y-106078041D01*
X128535000Y-105021959D01*
X128535000Y-103178041D01*
X127829363Y-101474483D01*
X126525517Y-100170637D01*
X124821959Y-99465000D01*
X122978041Y-99465000D01*
X121274483Y-100170637D01*
X119970637Y-101474483D01*
X119265000Y-103178041D01*
X110627000Y-103178041D01*
X110627000Y-95685000D01*
X202373000Y-95685000D01*
X202373000Y-110947394D01*
X197447394Y-115873000D01*
X156052606Y-115873000D01*
X151089803Y-110910197D01*
X151048601Y-110882667D01*
X151000000Y-110873000D01*
X109552606Y-110873000D01*
X106627000Y-107947394D01*
X106627000Y-105231000D01*
X107177750Y-105231000D01*
X107273000Y-105135750D01*
X107273000Y-103627000D01*
X107527000Y-103627000D01*
X107527000Y-105135750D01*
X107622250Y-105231000D01*
X108675786Y-105231000D01*
X108815820Y-105172996D01*
X108922996Y-105065819D01*
X108981000Y-104925785D01*
X108981000Y-103722250D01*
X108885750Y-103627000D01*
X107527000Y-103627000D01*
X107273000Y-103627000D01*
X107253000Y-103627000D01*
X107253000Y-103373000D01*
X107273000Y-103373000D01*
X107273000Y-101864250D01*
X107527000Y-101864250D01*
X107527000Y-103373000D01*
X108885750Y-103373000D01*
X108981000Y-103277750D01*
X108981000Y-102074215D01*
X108922996Y-101934181D01*
X108815820Y-101827004D01*
X108675786Y-101769000D01*
X107622250Y-101769000D01*
X107527000Y-101864250D01*
X107273000Y-101864250D01*
X107177750Y-101769000D01*
X106627000Y-101769000D01*
X106627000Y-101731000D01*
X107177750Y-101731000D01*
X107273000Y-101635750D01*
X107273000Y-100627000D01*
X107527000Y-100627000D01*
X107527000Y-101635750D01*
X107622250Y-101731000D01*
X108375786Y-101731000D01*
X108515820Y-101672996D01*
X108622996Y-101565819D01*
X108681000Y-101425785D01*
X108681000Y-100722250D01*
X108585750Y-100627000D01*
X107527000Y-100627000D01*
X107273000Y-100627000D01*
X107253000Y-100627000D01*
X107253000Y-100373000D01*
X107273000Y-100373000D01*
X107273000Y-99364250D01*
X107527000Y-99364250D01*
X107527000Y-100373000D01*
X108585750Y-100373000D01*
X108681000Y-100277750D01*
X108681000Y-99574215D01*
X108622996Y-99434181D01*
X108515820Y-99327004D01*
X108375786Y-99269000D01*
X107622250Y-99269000D01*
X107527000Y-99364250D01*
X107273000Y-99364250D01*
X107177750Y-99269000D01*
X106627000Y-99269000D01*
X106627000Y-95685000D01*
X109373000Y-95685000D01*
X109373000Y-106500000D01*
G04 #@! TD*
M02*
