G04 #@! TF.GenerationSoftware,KiCad,Pcbnew,(5.0.0)*
G04 #@! TF.CreationDate,2018-12-19T14:03:44+02:00*
G04 #@! TF.ProjectId,tp_x2_EKA,74705F78325F454B412E6B696361645F,3*
G04 #@! TF.SameCoordinates,Original*
G04 #@! TF.FileFunction,Soldermask,Top*
G04 #@! TF.FilePolarity,Negative*
%FSLAX46Y46*%
G04 Gerber Fmt 4.6, Leading zero omitted, Abs format (unit mm)*
G04 Created by KiCad (PCBNEW (5.0.0)) date 12/19/18 14:03:44*
%MOMM*%
%LPD*%
G01*
G04 APERTURE LIST*
%ADD10R,2.800000X3.100000*%
%ADD11O,2.200000X4.000000*%
%ADD12C,8.400000*%
%ADD13O,4.000000X2.200000*%
%ADD14O,9.200000X3.200000*%
%ADD15C,3.200000*%
%ADD16C,3.200000*%
%ADD17C,2.899360*%
%ADD18R,2.200000X2.100000*%
%ADD19C,0.254000*%
G04 APERTURE END LIST*
D10*
G04 #@! TO.C,D2*
X206700000Y-126500000D03*
X211500000Y-126500000D03*
G04 #@! TD*
D11*
G04 #@! TO.C,X14*
X214500000Y-120360000D03*
X214500000Y-125440000D03*
G04 #@! TD*
D12*
G04 #@! TO.C,REF\002A\002A*
X179000000Y-107000000D03*
G04 #@! TD*
D13*
G04 #@! TO.C,X26*
X140660000Y-103900000D03*
X145740000Y-103900000D03*
G04 #@! TD*
D14*
G04 #@! TO.C,V2.1*
X113619236Y-108634980D03*
D15*
X118307528Y-119296590D03*
D16*
X116261533Y-121490651D02*
X120353523Y-117102529D01*
D15*
X107389270Y-116635452D03*
D16*
X106784465Y-114209713D02*
X107994075Y-119061191D01*
G04 #@! TD*
D14*
G04 #@! TO.C,V2.2*
X202880764Y-121465020D03*
D15*
X198192472Y-110803410D03*
D16*
X200238467Y-108609349D02*
X196146477Y-112997471D01*
D15*
X209110730Y-113464548D03*
D16*
X209715535Y-115890287D02*
X208505925Y-111038809D01*
G04 #@! TD*
D12*
G04 #@! TO.C,REF\002A\002A*
X123900000Y-104100000D03*
G04 #@! TD*
D13*
G04 #@! TO.C,X6*
X171040000Y-125000000D03*
X165960000Y-125000000D03*
G04 #@! TD*
D12*
G04 #@! TO.C,REF\002A\002A*
X103400000Y-126000000D03*
G04 #@! TD*
D17*
G04 #@! TO.C,H1*
X185000000Y-124000000D03*
G04 #@! TD*
G04 #@! TO.C,H1*
X179000000Y-131000000D03*
G04 #@! TD*
G04 #@! TO.C,H1*
X161000000Y-131000000D03*
G04 #@! TD*
G04 #@! TO.C,H1*
X126000000Y-119000000D03*
G04 #@! TD*
G04 #@! TO.C,H1*
X131000000Y-129000000D03*
G04 #@! TD*
G04 #@! TO.C,H2*
X190000000Y-111000000D03*
G04 #@! TD*
G04 #@! TO.C,H1*
X200000000Y-128000000D03*
G04 #@! TD*
G04 #@! TO.C,H2*
X197000000Y-104000000D03*
G04 #@! TD*
D11*
G04 #@! TO.C,X17*
X99400000Y-109500000D03*
X99400000Y-104420000D03*
G04 #@! TD*
D18*
G04 #@! TO.C,R1*
X209500000Y-129700000D03*
X206600000Y-129700000D03*
G04 #@! TD*
D15*
G04 #@! TO.C,X5*
X168000000Y-108000000D03*
X163000000Y-108000000D03*
X158000000Y-108000000D03*
X168000000Y-100900000D03*
X163000000Y-100900000D03*
X158000000Y-100900000D03*
G04 #@! TD*
G04 #@! TO.C,X4*
X142500000Y-124000000D03*
X147500000Y-124000000D03*
X152500000Y-124000000D03*
X142500000Y-131100000D03*
X147500000Y-131100000D03*
X152500000Y-131100000D03*
G04 #@! TD*
D18*
G04 #@! TO.C,R4*
X107400000Y-100500000D03*
X104500000Y-100500000D03*
G04 #@! TD*
D10*
G04 #@! TO.C,D1*
X102600000Y-103500000D03*
X107400000Y-103500000D03*
G04 #@! TD*
D18*
G04 #@! TO.C,R2*
X99500000Y-100500000D03*
X102400000Y-100500000D03*
G04 #@! TD*
G04 #@! TO.C,R3*
X211500000Y-129700000D03*
X214400000Y-129700000D03*
G04 #@! TD*
D17*
G04 #@! TO.C,H1*
X119000000Y-127000000D03*
G04 #@! TD*
G04 #@! TO.C,H2*
X151000000Y-99000000D03*
G04 #@! TD*
G04 #@! TO.C,H2*
X133000000Y-99000000D03*
G04 #@! TD*
G04 #@! TO.C,H2*
X187000000Y-99000000D03*
G04 #@! TD*
G04 #@! TO.C,H2*
X115000000Y-101000000D03*
G04 #@! TD*
D12*
G04 #@! TO.C,REF\002A\002A*
X213000000Y-104200000D03*
G04 #@! TD*
G04 #@! TO.C,REF\002A\002A*
X192600000Y-126000000D03*
G04 #@! TD*
D17*
G04 #@! TO.C,H2*
X115000000Y-53000000D03*
G04 #@! TD*
G04 #@! TO.C,H2*
X133000000Y-51000000D03*
G04 #@! TD*
G04 #@! TO.C,H2*
X151000000Y-51000000D03*
G04 #@! TD*
G04 #@! TO.C,H2*
X187000000Y-51000000D03*
G04 #@! TD*
G04 #@! TO.C,H2*
X190000000Y-63000000D03*
G04 #@! TD*
G04 #@! TO.C,H1*
X200000000Y-80000000D03*
G04 #@! TD*
G04 #@! TO.C,H1*
X185000000Y-76000000D03*
G04 #@! TD*
G04 #@! TO.C,H1*
X179000000Y-83000000D03*
G04 #@! TD*
G04 #@! TO.C,H1*
X161000000Y-83000000D03*
G04 #@! TD*
G04 #@! TO.C,H1*
X131000000Y-81000000D03*
G04 #@! TD*
G04 #@! TO.C,H1*
X126000000Y-71000000D03*
G04 #@! TD*
D12*
G04 #@! TO.C,REF\002A\002A*
X213000000Y-56200000D03*
G04 #@! TD*
G04 #@! TO.C,REF\002A\002A*
X192600000Y-78000000D03*
G04 #@! TD*
D13*
G04 #@! TO.C,X3*
X165960000Y-77000000D03*
X171040000Y-77000000D03*
G04 #@! TD*
D15*
G04 #@! TO.C,V1.2*
X209110730Y-65464548D03*
D16*
X209715535Y-67890287D02*
X208505925Y-63038809D01*
D15*
X198192472Y-62803410D03*
D16*
X200238467Y-60609349D02*
X196146477Y-64997471D01*
D14*
X202880764Y-73465020D03*
G04 #@! TD*
D12*
G04 #@! TO.C,REF\002A\002A*
X179000000Y-59000000D03*
G04 #@! TD*
G04 #@! TO.C,REF\002A\002A*
X103400000Y-78000000D03*
G04 #@! TD*
G04 #@! TO.C,REF\002A\002A*
X123900000Y-56100000D03*
G04 #@! TD*
D15*
G04 #@! TO.C,V1.1*
X107389270Y-68635452D03*
D16*
X106784465Y-66209713D02*
X107994075Y-71061191D01*
D15*
X118307528Y-71296590D03*
D16*
X116261533Y-73490651D02*
X120353523Y-69102529D01*
D14*
X113619236Y-60634980D03*
G04 #@! TD*
D10*
G04 #@! TO.C,D4*
X211500000Y-78500000D03*
X206700000Y-78500000D03*
G04 #@! TD*
D11*
G04 #@! TO.C,X7*
X214500000Y-77440000D03*
X214500000Y-72360000D03*
G04 #@! TD*
D13*
G04 #@! TO.C,X12*
X145740000Y-55900000D03*
X140660000Y-55900000D03*
G04 #@! TD*
D10*
G04 #@! TO.C,D3*
X107400000Y-55500000D03*
X102600000Y-55500000D03*
G04 #@! TD*
D18*
G04 #@! TO.C,R6*
X206600000Y-81700000D03*
X209500000Y-81700000D03*
G04 #@! TD*
G04 #@! TO.C,R8*
X214400000Y-81700000D03*
X211500000Y-81700000D03*
G04 #@! TD*
G04 #@! TO.C,R7*
X102400000Y-52500000D03*
X99500000Y-52500000D03*
G04 #@! TD*
G04 #@! TO.C,R9*
X104500000Y-52500000D03*
X107400000Y-52500000D03*
G04 #@! TD*
D11*
G04 #@! TO.C,X9*
X99400000Y-56420000D03*
X99400000Y-61500000D03*
G04 #@! TD*
D15*
G04 #@! TO.C,X1*
X152500000Y-83100000D03*
X147500000Y-83100000D03*
X142500000Y-83100000D03*
X152500000Y-76000000D03*
X147500000Y-76000000D03*
X142500000Y-76000000D03*
G04 #@! TD*
G04 #@! TO.C,X2*
X158000000Y-52900000D03*
X163000000Y-52900000D03*
X168000000Y-52900000D03*
X158000000Y-60000000D03*
X163000000Y-60000000D03*
X168000000Y-60000000D03*
G04 #@! TD*
D17*
G04 #@! TO.C,H1*
X119000000Y-79000000D03*
G04 #@! TD*
G04 #@! TO.C,H2*
X197000000Y-56000000D03*
G04 #@! TD*
D19*
G36*
X202373000Y-62947394D02*
X197447394Y-67873000D01*
X178052606Y-67873000D01*
X173089803Y-62910197D01*
X173048601Y-62882667D01*
X173000000Y-62873000D01*
X151552606Y-62873000D01*
X147089803Y-58410197D01*
X147048601Y-58382667D01*
X147000000Y-58373000D01*
X139500000Y-58373000D01*
X139451399Y-58382667D01*
X139410197Y-58410197D01*
X134947394Y-62873000D01*
X110627000Y-62873000D01*
X110627000Y-47127000D01*
X202373000Y-47127000D01*
X202373000Y-62947394D01*
X202373000Y-62947394D01*
G37*
X202373000Y-62947394D02*
X197447394Y-67873000D01*
X178052606Y-67873000D01*
X173089803Y-62910197D01*
X173048601Y-62882667D01*
X173000000Y-62873000D01*
X151552606Y-62873000D01*
X147089803Y-58410197D01*
X147048601Y-58382667D01*
X147000000Y-58373000D01*
X139500000Y-58373000D01*
X139451399Y-58382667D01*
X139410197Y-58410197D01*
X134947394Y-62873000D01*
X110627000Y-62873000D01*
X110627000Y-47127000D01*
X202373000Y-47127000D01*
X202373000Y-62947394D01*
G36*
X146910197Y-73089803D02*
X146951399Y-73117333D01*
X147000000Y-73127000D01*
X162947394Y-73127000D01*
X164910197Y-75089803D01*
X164951399Y-75117333D01*
X165000000Y-75127000D01*
X171500000Y-75127000D01*
X171548601Y-75117333D01*
X171589803Y-75089803D01*
X173552606Y-73127000D01*
X184000000Y-73127000D01*
X184048601Y-73117333D01*
X184089803Y-73089803D01*
X185552606Y-71627000D01*
X203373000Y-71627000D01*
X203373000Y-86873000D01*
X114127000Y-86873000D01*
X114127000Y-72052606D01*
X119552606Y-66627000D01*
X140447394Y-66627000D01*
X146910197Y-73089803D01*
X146910197Y-73089803D01*
G37*
X146910197Y-73089803D02*
X146951399Y-73117333D01*
X147000000Y-73127000D01*
X162947394Y-73127000D01*
X164910197Y-75089803D01*
X164951399Y-75117333D01*
X165000000Y-75127000D01*
X171500000Y-75127000D01*
X171548601Y-75117333D01*
X171589803Y-75089803D01*
X173552606Y-73127000D01*
X184000000Y-73127000D01*
X184048601Y-73117333D01*
X184089803Y-73089803D01*
X185552606Y-71627000D01*
X203373000Y-71627000D01*
X203373000Y-86873000D01*
X114127000Y-86873000D01*
X114127000Y-72052606D01*
X119552606Y-66627000D01*
X140447394Y-66627000D01*
X146910197Y-73089803D01*
G36*
X202373000Y-110947394D02*
X197447394Y-115873000D01*
X178052606Y-115873000D01*
X173089803Y-110910197D01*
X173048601Y-110882667D01*
X173000000Y-110873000D01*
X151052606Y-110873000D01*
X147089803Y-106910197D01*
X147048601Y-106882667D01*
X147000000Y-106873000D01*
X139500000Y-106873000D01*
X139451399Y-106882667D01*
X139415626Y-106905079D01*
X134951715Y-110873000D01*
X110627000Y-110873000D01*
X110627000Y-95127000D01*
X202373000Y-95127000D01*
X202373000Y-110947394D01*
X202373000Y-110947394D01*
G37*
X202373000Y-110947394D02*
X197447394Y-115873000D01*
X178052606Y-115873000D01*
X173089803Y-110910197D01*
X173048601Y-110882667D01*
X173000000Y-110873000D01*
X151052606Y-110873000D01*
X147089803Y-106910197D01*
X147048601Y-106882667D01*
X147000000Y-106873000D01*
X139500000Y-106873000D01*
X139451399Y-106882667D01*
X139415626Y-106905079D01*
X134951715Y-110873000D01*
X110627000Y-110873000D01*
X110627000Y-95127000D01*
X202373000Y-95127000D01*
X202373000Y-110947394D01*
G36*
X146910197Y-121089803D02*
X146951399Y-121117333D01*
X147000000Y-121127000D01*
X162947394Y-121127000D01*
X164910197Y-123089803D01*
X164951399Y-123117333D01*
X165000000Y-123127000D01*
X171500000Y-123127000D01*
X171548601Y-123117333D01*
X171588957Y-123090640D01*
X173589733Y-121127000D01*
X184075648Y-121127000D01*
X184124249Y-121117333D01*
X184165451Y-121089803D01*
X185628254Y-119627000D01*
X203448648Y-119627000D01*
X203448648Y-134873000D01*
X114202648Y-134873000D01*
X114202648Y-120052606D01*
X119628254Y-114627000D01*
X140447394Y-114627000D01*
X146910197Y-121089803D01*
X146910197Y-121089803D01*
G37*
X146910197Y-121089803D02*
X146951399Y-121117333D01*
X147000000Y-121127000D01*
X162947394Y-121127000D01*
X164910197Y-123089803D01*
X164951399Y-123117333D01*
X165000000Y-123127000D01*
X171500000Y-123127000D01*
X171548601Y-123117333D01*
X171588957Y-123090640D01*
X173589733Y-121127000D01*
X184075648Y-121127000D01*
X184124249Y-121117333D01*
X184165451Y-121089803D01*
X185628254Y-119627000D01*
X203448648Y-119627000D01*
X203448648Y-134873000D01*
X114202648Y-134873000D01*
X114202648Y-120052606D01*
X119628254Y-114627000D01*
X140447394Y-114627000D01*
X146910197Y-121089803D01*
M02*
