M48
;DRILL file {KiCad (5.0.0)} date 12/19/18 13:57:47
;FORMAT={-:-/ absolute / metric / decimal}
FMAT,2
METRIC,TZ
T1C1.200
T2C1.500
T3C1.600
T4C2.000
T5C8.000
%
G90
G05
M71
T1
X133.Y-51.
X151.Y-99.
X119.Y-127.
X115.Y-101.
X151.Y-51.
X131.Y-129.
X187.Y-99.
X161.Y-131.
X126.Y-119.
X200.Y-80.
X133.Y-99.
X197.Y-104.
X179.Y-131.
X115.Y-53.
X126.Y-71.
X197.Y-56.
X161.Y-83.
X190.Y-111.
X179.Y-83.
X200.Y-128.
X185.Y-124.
X119.Y-79.
X131.Y-81.
X190.Y-63.
X185.Y-76.
X187.Y-51.
T2
X165.96Y-77.
X171.04Y-77.
X140.66Y-55.9
X145.74Y-55.9
X140.66Y-103.9
X145.74Y-103.9
X214.5Y-120.36
X214.5Y-125.44
X99.4Y-56.42
X99.4Y-61.5
X99.4Y-104.42
X99.4Y-109.5
X214.5Y-72.36
X214.5Y-77.44
X165.96Y-125.
X171.04Y-125.
T4
X158.Y-52.9
X158.Y-60.
X163.Y-52.9
X163.Y-60.
X168.Y-52.9
X168.Y-60.
X158.Y-100.9
X158.Y-108.
X163.Y-100.9
X163.Y-108.
X168.Y-100.9
X168.Y-108.
X142.5Y-76.
X142.5Y-83.1
X147.5Y-76.
X147.5Y-83.1
X152.5Y-76.
X152.5Y-83.1
X142.5Y-124.
X142.5Y-131.1
X147.5Y-124.
X147.5Y-131.1
X152.5Y-124.
X152.5Y-131.1
T5
X179.Y-59.
X123.9Y-56.1
X192.6Y-126.
X103.4Y-78.
X213.Y-104.2
X213.Y-56.2
X123.9Y-104.1
X192.6Y-78.
X103.4Y-126.
X179.Y-107.
T3
X106.833Y-66.404G85X107.946Y-70.867
G05
X110.719Y-60.635G85X116.519Y-60.635
G05
X116.33Y-73.418G85X120.285Y-69.176
G05
X106.833Y-114.404G85X107.946Y-118.867
G05
X110.719Y-108.635G85X116.519Y-108.635
G05
X116.33Y-121.418G85X120.285Y-117.176
G05
X200.17Y-60.682G85X196.215Y-64.924
G05
X205.781Y-73.465G85X199.981Y-73.465
G05
X209.667Y-67.696G85X208.554Y-63.233
G05
X200.17Y-108.682G85X196.215Y-112.924
G05
X205.781Y-121.465G85X199.981Y-121.465
G05
X209.667Y-115.696G85X208.554Y-111.233
G05
T0
M30
