G04 #@! TF.FileFunction,Soldermask,Top*
%FSLAX46Y46*%
G04 Gerber Fmt 4.6, Leading zero omitted, Abs format (unit mm)*
G04 Created by KiCad (PCBNEW 4.0.7) date 07/04/18 12:00:08*
%MOMM*%
%LPD*%
G01*
G04 APERTURE LIST*
%ADD10C,0.100000*%
%ADD11C,0.150000*%
%ADD12C,1.600000*%
%ADD13C,2.899360*%
%ADD14C,4.700000*%
%ADD15R,3.100000X1.900000*%
%ADD16O,4.000000X2.200000*%
%ADD17R,1.300000X2.100000*%
%ADD18O,2.200000X4.000000*%
%ADD19C,0.127000*%
G04 APERTURE END LIST*
D10*
D11*
X141000000Y-124000000D02*
X141000000Y-118250000D01*
X142000000Y-124000000D02*
X141000000Y-124000000D01*
X142000000Y-118250000D02*
X142000000Y-124000000D01*
X141000000Y-118250000D02*
X142000000Y-118250000D01*
X141000000Y-105000000D02*
X141000000Y-94000000D01*
X142000000Y-105000000D02*
X141000000Y-105000000D01*
X142000000Y-94000000D02*
X142000000Y-105000000D01*
X141000000Y-94000000D02*
X142000000Y-94000000D01*
X141000000Y-92000000D02*
X141000000Y-81000000D01*
X142000000Y-92000000D02*
X141000000Y-92000000D01*
X142000000Y-81000000D02*
X142000000Y-92000000D01*
X141000000Y-81000000D02*
X142000000Y-81000000D01*
X141000000Y-79000000D02*
X141000000Y-69000000D01*
X142000000Y-79000000D02*
X141000000Y-79000000D01*
X142000000Y-69000000D02*
X142000000Y-79000000D01*
X141000000Y-69000000D02*
X142000000Y-69000000D01*
X142000000Y-61000000D02*
X141000000Y-61000000D01*
X142000000Y-66000000D02*
X142000000Y-61000000D01*
X141000000Y-66000000D02*
X142000000Y-66000000D01*
X141000000Y-61000000D02*
X141000000Y-66000000D01*
X116000000Y-126000000D02*
X116000000Y-59000000D01*
X167000000Y-126000000D02*
X116000000Y-126000000D01*
X167000000Y-59000000D02*
X167000000Y-126000000D01*
X116000000Y-59000000D02*
X167000000Y-59000000D01*
D12*
X159250000Y-119500000D03*
X157250000Y-118500000D03*
X159250000Y-117250000D03*
X159250000Y-113000000D03*
X157250000Y-112000000D03*
X159250000Y-111000000D03*
X159250000Y-106750000D03*
X157250000Y-105750000D03*
X159250000Y-104500000D03*
X125750000Y-118500000D03*
X123750000Y-119250000D03*
X123750000Y-117500000D03*
X125750000Y-112000000D03*
X123750000Y-113000000D03*
X123750000Y-111000000D03*
X125750000Y-105750000D03*
X123750000Y-106500000D03*
X123750000Y-104500000D03*
X157250000Y-80000000D03*
X125750000Y-80000000D03*
X159250000Y-72500000D03*
X159250000Y-78750000D03*
X159250000Y-66250000D03*
X159250000Y-81000000D03*
X159250000Y-74500000D03*
X123750000Y-79000000D03*
X157250000Y-73500000D03*
X123750000Y-81000000D03*
X123750000Y-72500000D03*
X123750000Y-66250000D03*
X159250000Y-68250000D03*
X125750000Y-73750000D03*
X157250000Y-67250000D03*
X125750000Y-67250000D03*
X123750000Y-74500000D03*
D13*
X148000000Y-64000000D03*
X135000000Y-64000000D03*
X144000000Y-62000000D03*
X139000000Y-62000000D03*
X152000000Y-62000000D03*
X131000000Y-62000000D03*
X135000000Y-120000000D03*
X148000000Y-120000000D03*
X144000000Y-122500000D03*
X152000000Y-122500000D03*
X131000000Y-122500000D03*
D14*
X152000000Y-72000000D03*
X131000000Y-72000000D03*
X152000000Y-113000000D03*
D15*
X132000000Y-82400000D03*
X132000000Y-77600000D03*
X132000000Y-103200000D03*
X132000000Y-108000000D03*
X150800000Y-82400000D03*
X150800000Y-77600000D03*
X150800000Y-103200000D03*
X150800000Y-108000000D03*
D16*
X119720000Y-64000000D03*
X124800000Y-64000000D03*
X119720000Y-70400000D03*
X124800000Y-70400000D03*
X158000000Y-64000000D03*
X163080000Y-64000000D03*
X158000000Y-70400000D03*
X163080000Y-70400000D03*
X119720000Y-121600000D03*
X124800000Y-121600000D03*
X119720000Y-115200000D03*
X124800000Y-115200000D03*
X158000000Y-115200000D03*
X163080000Y-115200000D03*
X158000000Y-121600000D03*
X163080000Y-121600000D03*
D17*
X131200000Y-89600000D03*
X134100000Y-89600000D03*
X131200000Y-96000000D03*
X134100000Y-96000000D03*
X151300000Y-89600000D03*
X148400000Y-89600000D03*
X151300000Y-96000000D03*
X148400000Y-96000000D03*
D16*
X119720000Y-108800000D03*
X124800000Y-108800000D03*
X119720000Y-76800000D03*
X124800000Y-76800000D03*
X119720000Y-83200000D03*
X124800000Y-83200000D03*
X119720000Y-102400000D03*
X124800000Y-102400000D03*
X158000000Y-108800000D03*
X163080000Y-108800000D03*
X158000000Y-76800000D03*
X163080000Y-76800000D03*
X158000000Y-83200000D03*
X163080000Y-83200000D03*
X158000000Y-102400000D03*
X163080000Y-102400000D03*
X119720000Y-89600000D03*
X124800000Y-89600000D03*
X119720000Y-96000000D03*
X124800000Y-96000000D03*
X158000000Y-89600000D03*
X163080000Y-89600000D03*
X158000000Y-96000000D03*
X163080000Y-96000000D03*
D18*
X137600000Y-102080000D03*
X137600000Y-97000000D03*
X137600000Y-88280000D03*
X137600000Y-83200000D03*
X137600000Y-76800000D03*
X137600000Y-71720000D03*
X145200000Y-102080000D03*
X145200000Y-97000000D03*
X145200000Y-88280000D03*
X145200000Y-83200000D03*
X145200000Y-76800000D03*
X145200000Y-71720000D03*
D14*
X131000000Y-113000000D03*
D13*
X139000000Y-122500000D03*
D12*
X123750000Y-68250000D03*
D19*
G36*
X127436500Y-84686500D02*
X117063500Y-84686500D01*
X117063500Y-81813500D01*
X127436500Y-81813500D01*
X127436500Y-84686500D01*
X127436500Y-84686500D01*
G37*
X127436500Y-84686500D02*
X117063500Y-84686500D01*
X117063500Y-81813500D01*
X127436500Y-81813500D01*
X127436500Y-84686500D01*
G36*
X127436500Y-78186500D02*
X117063500Y-78186500D01*
X117063500Y-75313500D01*
X127436500Y-75313500D01*
X127436500Y-78186500D01*
X127436500Y-78186500D01*
G37*
X127436500Y-78186500D02*
X117063500Y-78186500D01*
X117063500Y-75313500D01*
X127436500Y-75313500D01*
X127436500Y-78186500D01*
G36*
X127436500Y-71686500D02*
X117063500Y-71686500D01*
X117063500Y-68813500D01*
X127436500Y-68813500D01*
X127436500Y-71686500D01*
X127436500Y-71686500D01*
G37*
X127436500Y-71686500D02*
X117063500Y-71686500D01*
X117063500Y-68813500D01*
X127436500Y-68813500D01*
X127436500Y-71686500D01*
G36*
X127436500Y-65436500D02*
X117063500Y-65436500D01*
X117063500Y-62563500D01*
X127436500Y-62563500D01*
X127436500Y-65436500D01*
X127436500Y-65436500D01*
G37*
X127436500Y-65436500D02*
X117063500Y-65436500D01*
X117063500Y-62563500D01*
X127436500Y-62563500D01*
X127436500Y-65436500D01*
G36*
X127436500Y-103936500D02*
X117063500Y-103936500D01*
X117063500Y-101063500D01*
X127436500Y-101063500D01*
X127436500Y-103936500D01*
X127436500Y-103936500D01*
G37*
X127436500Y-103936500D02*
X117063500Y-103936500D01*
X117063500Y-101063500D01*
X127436500Y-101063500D01*
X127436500Y-103936500D01*
G36*
X127436500Y-110186500D02*
X117063500Y-110186500D01*
X117063500Y-107313500D01*
X127436500Y-107313500D01*
X127436500Y-110186500D01*
X127436500Y-110186500D01*
G37*
X127436500Y-110186500D02*
X117063500Y-110186500D01*
X117063500Y-107313500D01*
X127436500Y-107313500D01*
X127436500Y-110186500D01*
G36*
X127436500Y-116686500D02*
X117063500Y-116686500D01*
X117063500Y-113813500D01*
X127436500Y-113813500D01*
X127436500Y-116686500D01*
X127436500Y-116686500D01*
G37*
X127436500Y-116686500D02*
X117063500Y-116686500D01*
X117063500Y-113813500D01*
X127436500Y-113813500D01*
X127436500Y-116686500D01*
G36*
X127436500Y-122936500D02*
X117063500Y-122936500D01*
X117063500Y-120063500D01*
X127436500Y-120063500D01*
X127436500Y-122936500D01*
X127436500Y-122936500D01*
G37*
X127436500Y-122936500D02*
X117063500Y-122936500D01*
X117063500Y-120063500D01*
X127436500Y-120063500D01*
X127436500Y-122936500D01*
G36*
X165686500Y-123186500D02*
X155313500Y-123186500D01*
X155313500Y-120313500D01*
X165686500Y-120313500D01*
X165686500Y-123186500D01*
X165686500Y-123186500D01*
G37*
X165686500Y-123186500D02*
X155313500Y-123186500D01*
X155313500Y-120313500D01*
X165686500Y-120313500D01*
X165686500Y-123186500D01*
G36*
X165686500Y-116686500D02*
X155313500Y-116686500D01*
X155313500Y-113813500D01*
X165686500Y-113813500D01*
X165686500Y-116686500D01*
X165686500Y-116686500D01*
G37*
X165686500Y-116686500D02*
X155313500Y-116686500D01*
X155313500Y-113813500D01*
X165686500Y-113813500D01*
X165686500Y-116686500D01*
G36*
X165686500Y-110436500D02*
X155313500Y-110436500D01*
X155313500Y-107563500D01*
X165686500Y-107563500D01*
X165686500Y-110436500D01*
X165686500Y-110436500D01*
G37*
X165686500Y-110436500D02*
X155313500Y-110436500D01*
X155313500Y-107563500D01*
X165686500Y-107563500D01*
X165686500Y-110436500D01*
G36*
X165686500Y-103936500D02*
X155313500Y-103936500D01*
X155313500Y-101063500D01*
X165686500Y-101063500D01*
X165686500Y-103936500D01*
X165686500Y-103936500D01*
G37*
X165686500Y-103936500D02*
X155313500Y-103936500D01*
X155313500Y-101063500D01*
X165686500Y-101063500D01*
X165686500Y-103936500D01*
G36*
X165737262Y-65436500D02*
X155364262Y-65436500D01*
X155364262Y-62563500D01*
X165737262Y-62563500D01*
X165737262Y-65436500D01*
X165737262Y-65436500D01*
G37*
X165737262Y-65436500D02*
X155364262Y-65436500D01*
X155364262Y-62563500D01*
X165737262Y-62563500D01*
X165737262Y-65436500D01*
G36*
X165752202Y-71686500D02*
X155379202Y-71686500D01*
X155379202Y-68813500D01*
X165752202Y-68813500D01*
X165752202Y-71686500D01*
X165752202Y-71686500D01*
G37*
X165752202Y-71686500D02*
X155379202Y-71686500D01*
X155379202Y-68813500D01*
X165752202Y-68813500D01*
X165752202Y-71686500D01*
G36*
X165752202Y-78186500D02*
X155379202Y-78186500D01*
X155379202Y-75313500D01*
X165752202Y-75313500D01*
X165752202Y-78186500D01*
X165752202Y-78186500D01*
G37*
X165752202Y-78186500D02*
X155379202Y-78186500D01*
X155379202Y-75313500D01*
X165752202Y-75313500D01*
X165752202Y-78186500D01*
G36*
X165752202Y-84686500D02*
X155379202Y-84686500D01*
X155379202Y-81813500D01*
X165752202Y-81813500D01*
X165752202Y-84686500D01*
X165752202Y-84686500D01*
G37*
X165752202Y-84686500D02*
X155379202Y-84686500D01*
X155379202Y-81813500D01*
X165752202Y-81813500D01*
X165752202Y-84686500D01*
M02*
