G04 #@! TF.FileFunction,Copper,L1,Top,Signal*
%FSLAX46Y46*%
G04 Gerber Fmt 4.6, Leading zero omitted, Abs format (unit mm)*
G04 Created by KiCad (PCBNEW 4.0.7) date 07/04/18 12:00:08*
%MOMM*%
%LPD*%
G01*
G04 APERTURE LIST*
%ADD10C,0.100000*%
%ADD11C,0.150000*%
%ADD12C,1.200000*%
%ADD13C,2.499360*%
%ADD14R,2.700000X1.500000*%
%ADD15O,3.600000X1.800000*%
%ADD16R,0.900000X1.700000*%
%ADD17O,1.800000X3.600000*%
%ADD18C,0.600000*%
%ADD19C,0.800000*%
%ADD20C,0.127000*%
%ADD21C,0.254000*%
G04 APERTURE END LIST*
D10*
D11*
X141000000Y-124000000D02*
X141000000Y-118250000D01*
X142000000Y-124000000D02*
X141000000Y-124000000D01*
X142000000Y-118250000D02*
X142000000Y-124000000D01*
X141000000Y-118250000D02*
X142000000Y-118250000D01*
X141000000Y-105000000D02*
X141000000Y-94000000D01*
X142000000Y-105000000D02*
X141000000Y-105000000D01*
X142000000Y-94000000D02*
X142000000Y-105000000D01*
X141000000Y-94000000D02*
X142000000Y-94000000D01*
X141000000Y-92000000D02*
X141000000Y-81000000D01*
X142000000Y-92000000D02*
X141000000Y-92000000D01*
X142000000Y-81000000D02*
X142000000Y-92000000D01*
X141000000Y-81000000D02*
X142000000Y-81000000D01*
X141000000Y-79000000D02*
X141000000Y-69000000D01*
X142000000Y-79000000D02*
X141000000Y-79000000D01*
X142000000Y-69000000D02*
X142000000Y-79000000D01*
X141000000Y-69000000D02*
X142000000Y-69000000D01*
X142000000Y-61000000D02*
X141000000Y-61000000D01*
X142000000Y-66000000D02*
X142000000Y-61000000D01*
X141000000Y-66000000D02*
X142000000Y-66000000D01*
X141000000Y-61000000D02*
X141000000Y-66000000D01*
X116000000Y-126000000D02*
X116000000Y-59000000D01*
X167000000Y-126000000D02*
X116000000Y-126000000D01*
X167000000Y-59000000D02*
X167000000Y-126000000D01*
X116000000Y-59000000D02*
X167000000Y-59000000D01*
D12*
X154000000Y-89500000D03*
X128750000Y-89500000D03*
X148000000Y-74750000D03*
X147750000Y-82750000D03*
X134750000Y-74750000D03*
X135000000Y-82750000D03*
X159250000Y-119500000D03*
X157250000Y-118500000D03*
X159250000Y-117250000D03*
X159250000Y-113000000D03*
X157250000Y-112000000D03*
X159250000Y-111000000D03*
X159250000Y-106750000D03*
X157250000Y-105750000D03*
X159250000Y-104500000D03*
X125750000Y-118500000D03*
X123750000Y-119250000D03*
X123750000Y-117500000D03*
X125750000Y-112000000D03*
X123750000Y-113000000D03*
X123750000Y-111000000D03*
X125750000Y-105750000D03*
X123750000Y-106500000D03*
X123750000Y-104500000D03*
X157250000Y-80000000D03*
X125750000Y-80000000D03*
X159250000Y-72500000D03*
X159250000Y-78750000D03*
X159250000Y-66250000D03*
X159250000Y-81000000D03*
X159250000Y-74500000D03*
X123750000Y-79000000D03*
X157250000Y-73500000D03*
X123750000Y-81000000D03*
X123750000Y-72500000D03*
X123750000Y-66250000D03*
X159250000Y-68250000D03*
X125750000Y-73750000D03*
X157250000Y-67250000D03*
X125750000Y-67250000D03*
X123750000Y-74500000D03*
D13*
X148000000Y-64000000D03*
X135000000Y-64000000D03*
X144000000Y-62000000D03*
X139000000Y-62000000D03*
X152000000Y-62000000D03*
X131000000Y-62000000D03*
X135000000Y-120000000D03*
X148000000Y-120000000D03*
X144000000Y-122500000D03*
X152000000Y-122500000D03*
X131000000Y-122500000D03*
D14*
X132000000Y-82400000D03*
X132000000Y-77600000D03*
X132000000Y-103200000D03*
X132000000Y-108000000D03*
X150800000Y-82400000D03*
X150800000Y-77600000D03*
X150800000Y-103200000D03*
X150800000Y-108000000D03*
D15*
X119720000Y-64000000D03*
X124800000Y-64000000D03*
X119720000Y-70400000D03*
X124800000Y-70400000D03*
X158000000Y-64000000D03*
X163080000Y-64000000D03*
X158000000Y-70400000D03*
X163080000Y-70400000D03*
X119720000Y-121600000D03*
X124800000Y-121600000D03*
X119720000Y-115200000D03*
X124800000Y-115200000D03*
X158000000Y-115200000D03*
X163080000Y-115200000D03*
X158000000Y-121600000D03*
X163080000Y-121600000D03*
D16*
X131200000Y-89600000D03*
X134100000Y-89600000D03*
X131200000Y-96000000D03*
X134100000Y-96000000D03*
X151300000Y-89600000D03*
X148400000Y-89600000D03*
X151300000Y-96000000D03*
X148400000Y-96000000D03*
D15*
X119720000Y-108800000D03*
X124800000Y-108800000D03*
X119720000Y-76800000D03*
X124800000Y-76800000D03*
X119720000Y-83200000D03*
X124800000Y-83200000D03*
X119720000Y-102400000D03*
X124800000Y-102400000D03*
X158000000Y-108800000D03*
X163080000Y-108800000D03*
X158000000Y-76800000D03*
X163080000Y-76800000D03*
X158000000Y-83200000D03*
X163080000Y-83200000D03*
X158000000Y-102400000D03*
X163080000Y-102400000D03*
X119720000Y-89600000D03*
X124800000Y-89600000D03*
X119720000Y-96000000D03*
X124800000Y-96000000D03*
X158000000Y-89600000D03*
X163080000Y-89600000D03*
X158000000Y-96000000D03*
X163080000Y-96000000D03*
D17*
X137600000Y-102080000D03*
X137600000Y-97000000D03*
X137600000Y-88280000D03*
X137600000Y-83200000D03*
X137600000Y-76800000D03*
X137600000Y-71720000D03*
X145200000Y-102080000D03*
X145200000Y-97000000D03*
X145200000Y-88280000D03*
X145200000Y-83200000D03*
X145200000Y-76800000D03*
X145200000Y-71720000D03*
D13*
X139000000Y-122500000D03*
D12*
X123750000Y-68250000D03*
D18*
X134755410Y-74749036D02*
X134754370Y-74747996D01*
X134754370Y-68745630D02*
X139000000Y-64500000D01*
X134754370Y-74747996D02*
X134754370Y-68745630D01*
X139000000Y-64500000D02*
X139000000Y-62000000D01*
D19*
X124800000Y-64000000D02*
X124813380Y-64000000D01*
X124813380Y-64000000D02*
X126813380Y-62000000D01*
X126813380Y-62000000D02*
X131000000Y-62000000D01*
X137600000Y-102080000D02*
X137600000Y-117340679D01*
X137600000Y-117340679D02*
X139000000Y-118740679D01*
X139000000Y-118740679D02*
X139000000Y-122500000D01*
X124800000Y-121600000D02*
X125714467Y-122514467D01*
X125714467Y-122514467D02*
X130985533Y-122514467D01*
X130985533Y-122514467D02*
X131000000Y-122500000D01*
D18*
X147998998Y-74750424D02*
X147999533Y-74749889D01*
X147999533Y-74749889D02*
X147999533Y-68599405D01*
X144000000Y-64599872D02*
X144000000Y-62000000D01*
X147999533Y-68599405D02*
X144000000Y-64599872D01*
D19*
X158000000Y-64000000D02*
X158000000Y-63991106D01*
X158000000Y-63991106D02*
X156008894Y-62000000D01*
X156008894Y-62000000D02*
X152000000Y-62000000D01*
X145200000Y-102080000D02*
X145200000Y-117623717D01*
X145200000Y-117623717D02*
X144000000Y-118823717D01*
X144000000Y-118823717D02*
X144000000Y-122500000D01*
X158000000Y-121600000D02*
X157085533Y-122514467D01*
X157085533Y-122514467D02*
X152014467Y-122514467D01*
X152014467Y-122514467D02*
X152000000Y-122500000D01*
D20*
G36*
X127436500Y-76000000D02*
X127441503Y-76024705D01*
X127455723Y-76045517D01*
X127476920Y-76059157D01*
X127500000Y-76063500D01*
X136000000Y-76063500D01*
X136024705Y-76058497D01*
X136045517Y-76044277D01*
X136059157Y-76023080D01*
X136063500Y-76000000D01*
X136063500Y-75463500D01*
X136382500Y-75463500D01*
X136382500Y-76363500D01*
X137163500Y-76363500D01*
X137163500Y-74848907D01*
X138036500Y-74848907D01*
X138036500Y-76363500D01*
X138817500Y-76363500D01*
X138817500Y-75463500D01*
X138557782Y-75030810D01*
X138208923Y-74845715D01*
X138036500Y-74848907D01*
X137163500Y-74848907D01*
X136991077Y-74845715D01*
X136642218Y-75030810D01*
X136382500Y-75463500D01*
X136063500Y-75463500D01*
X136063500Y-72156500D01*
X136382500Y-72156500D01*
X136382500Y-73056500D01*
X136642218Y-73489190D01*
X136991077Y-73674285D01*
X137163500Y-73671093D01*
X137163500Y-72156500D01*
X138036500Y-72156500D01*
X138036500Y-73671093D01*
X138208923Y-73674285D01*
X138557782Y-73489190D01*
X138817500Y-73056500D01*
X138817500Y-72156500D01*
X138036500Y-72156500D01*
X137163500Y-72156500D01*
X136382500Y-72156500D01*
X136063500Y-72156500D01*
X136063500Y-70383500D01*
X136382500Y-70383500D01*
X136382500Y-71283500D01*
X137163500Y-71283500D01*
X137163500Y-69768907D01*
X138036500Y-69768907D01*
X138036500Y-71283500D01*
X138817500Y-71283500D01*
X138817500Y-70383500D01*
X138557782Y-69950810D01*
X138208923Y-69765715D01*
X138036500Y-69768907D01*
X137163500Y-69768907D01*
X136991077Y-69765715D01*
X136642218Y-69950810D01*
X136382500Y-70383500D01*
X136063500Y-70383500D01*
X136063500Y-69563500D01*
X138936500Y-69563500D01*
X138936500Y-78936500D01*
X127500000Y-78936500D01*
X127475295Y-78941503D01*
X127454483Y-78955723D01*
X127440843Y-78976920D01*
X127436500Y-79000000D01*
X127436500Y-84936500D01*
X117063500Y-84936500D01*
X117063500Y-78054375D01*
X130332500Y-78054375D01*
X130332500Y-78413155D01*
X130380837Y-78529850D01*
X130470151Y-78619164D01*
X130586846Y-78667500D01*
X131484125Y-78667500D01*
X131563500Y-78588125D01*
X131563500Y-77975000D01*
X132436500Y-77975000D01*
X132436500Y-78588125D01*
X132515875Y-78667500D01*
X133413154Y-78667500D01*
X133529849Y-78619164D01*
X133619163Y-78529850D01*
X133667500Y-78413155D01*
X133667500Y-78054375D01*
X133588125Y-77975000D01*
X132436500Y-77975000D01*
X131563500Y-77975000D01*
X130411875Y-77975000D01*
X130332500Y-78054375D01*
X117063500Y-78054375D01*
X117063500Y-77236500D01*
X136382500Y-77236500D01*
X136382500Y-78136500D01*
X136642218Y-78569190D01*
X136991077Y-78754285D01*
X137163500Y-78751093D01*
X137163500Y-77236500D01*
X138036500Y-77236500D01*
X138036500Y-78751093D01*
X138208923Y-78754285D01*
X138557782Y-78569190D01*
X138817500Y-78136500D01*
X138817500Y-77236500D01*
X138036500Y-77236500D01*
X137163500Y-77236500D01*
X136382500Y-77236500D01*
X117063500Y-77236500D01*
X117063500Y-76786845D01*
X130332500Y-76786845D01*
X130332500Y-77145625D01*
X130411875Y-77225000D01*
X131563500Y-77225000D01*
X131563500Y-76611875D01*
X132436500Y-76611875D01*
X132436500Y-77225000D01*
X133588125Y-77225000D01*
X133667500Y-77145625D01*
X133667500Y-76786845D01*
X133619163Y-76670150D01*
X133529849Y-76580836D01*
X133413154Y-76532500D01*
X132515875Y-76532500D01*
X132436500Y-76611875D01*
X131563500Y-76611875D01*
X131484125Y-76532500D01*
X130586846Y-76532500D01*
X130470151Y-76580836D01*
X130380837Y-76670150D01*
X130332500Y-76786845D01*
X117063500Y-76786845D01*
X117063500Y-61563500D01*
X127436500Y-61563500D01*
X127436500Y-76000000D01*
X127436500Y-76000000D01*
G37*
X127436500Y-76000000D02*
X127441503Y-76024705D01*
X127455723Y-76045517D01*
X127476920Y-76059157D01*
X127500000Y-76063500D01*
X136000000Y-76063500D01*
X136024705Y-76058497D01*
X136045517Y-76044277D01*
X136059157Y-76023080D01*
X136063500Y-76000000D01*
X136063500Y-75463500D01*
X136382500Y-75463500D01*
X136382500Y-76363500D01*
X137163500Y-76363500D01*
X137163500Y-74848907D01*
X138036500Y-74848907D01*
X138036500Y-76363500D01*
X138817500Y-76363500D01*
X138817500Y-75463500D01*
X138557782Y-75030810D01*
X138208923Y-74845715D01*
X138036500Y-74848907D01*
X137163500Y-74848907D01*
X136991077Y-74845715D01*
X136642218Y-75030810D01*
X136382500Y-75463500D01*
X136063500Y-75463500D01*
X136063500Y-72156500D01*
X136382500Y-72156500D01*
X136382500Y-73056500D01*
X136642218Y-73489190D01*
X136991077Y-73674285D01*
X137163500Y-73671093D01*
X137163500Y-72156500D01*
X138036500Y-72156500D01*
X138036500Y-73671093D01*
X138208923Y-73674285D01*
X138557782Y-73489190D01*
X138817500Y-73056500D01*
X138817500Y-72156500D01*
X138036500Y-72156500D01*
X137163500Y-72156500D01*
X136382500Y-72156500D01*
X136063500Y-72156500D01*
X136063500Y-70383500D01*
X136382500Y-70383500D01*
X136382500Y-71283500D01*
X137163500Y-71283500D01*
X137163500Y-69768907D01*
X138036500Y-69768907D01*
X138036500Y-71283500D01*
X138817500Y-71283500D01*
X138817500Y-70383500D01*
X138557782Y-69950810D01*
X138208923Y-69765715D01*
X138036500Y-69768907D01*
X137163500Y-69768907D01*
X136991077Y-69765715D01*
X136642218Y-69950810D01*
X136382500Y-70383500D01*
X136063500Y-70383500D01*
X136063500Y-69563500D01*
X138936500Y-69563500D01*
X138936500Y-78936500D01*
X127500000Y-78936500D01*
X127475295Y-78941503D01*
X127454483Y-78955723D01*
X127440843Y-78976920D01*
X127436500Y-79000000D01*
X127436500Y-84936500D01*
X117063500Y-84936500D01*
X117063500Y-78054375D01*
X130332500Y-78054375D01*
X130332500Y-78413155D01*
X130380837Y-78529850D01*
X130470151Y-78619164D01*
X130586846Y-78667500D01*
X131484125Y-78667500D01*
X131563500Y-78588125D01*
X131563500Y-77975000D01*
X132436500Y-77975000D01*
X132436500Y-78588125D01*
X132515875Y-78667500D01*
X133413154Y-78667500D01*
X133529849Y-78619164D01*
X133619163Y-78529850D01*
X133667500Y-78413155D01*
X133667500Y-78054375D01*
X133588125Y-77975000D01*
X132436500Y-77975000D01*
X131563500Y-77975000D01*
X130411875Y-77975000D01*
X130332500Y-78054375D01*
X117063500Y-78054375D01*
X117063500Y-77236500D01*
X136382500Y-77236500D01*
X136382500Y-78136500D01*
X136642218Y-78569190D01*
X136991077Y-78754285D01*
X137163500Y-78751093D01*
X137163500Y-77236500D01*
X138036500Y-77236500D01*
X138036500Y-78751093D01*
X138208923Y-78754285D01*
X138557782Y-78569190D01*
X138817500Y-78136500D01*
X138817500Y-77236500D01*
X138036500Y-77236500D01*
X137163500Y-77236500D01*
X136382500Y-77236500D01*
X117063500Y-77236500D01*
X117063500Y-76786845D01*
X130332500Y-76786845D01*
X130332500Y-77145625D01*
X130411875Y-77225000D01*
X131563500Y-77225000D01*
X131563500Y-76611875D01*
X132436500Y-76611875D01*
X132436500Y-77225000D01*
X133588125Y-77225000D01*
X133667500Y-77145625D01*
X133667500Y-76786845D01*
X133619163Y-76670150D01*
X133529849Y-76580836D01*
X133413154Y-76532500D01*
X132515875Y-76532500D01*
X132436500Y-76611875D01*
X131563500Y-76611875D01*
X131484125Y-76532500D01*
X130586846Y-76532500D01*
X130470151Y-76580836D01*
X130380837Y-76670150D01*
X130332500Y-76786845D01*
X117063500Y-76786845D01*
X117063500Y-61563500D01*
X127436500Y-61563500D01*
X127436500Y-76000000D01*
G36*
X131686500Y-88432500D02*
X131469875Y-88432500D01*
X131390500Y-88511875D01*
X131390500Y-89409500D01*
X131410500Y-89409500D01*
X131410500Y-89790500D01*
X131390500Y-89790500D01*
X131390500Y-90688125D01*
X131469875Y-90767500D01*
X131686500Y-90767500D01*
X131686500Y-90936500D01*
X117063500Y-90936500D01*
X117063500Y-89976268D01*
X117662102Y-89976268D01*
X117824394Y-90326199D01*
X118178084Y-90651922D01*
X118629500Y-90817500D01*
X119529500Y-90817500D01*
X119529500Y-89790500D01*
X119910500Y-89790500D01*
X119910500Y-90817500D01*
X120810500Y-90817500D01*
X121261916Y-90651922D01*
X121615606Y-90326199D01*
X121777898Y-89976268D01*
X122742102Y-89976268D01*
X122904394Y-90326199D01*
X123258084Y-90651922D01*
X123709500Y-90817500D01*
X124609500Y-90817500D01*
X124609500Y-89790500D01*
X124990500Y-89790500D01*
X124990500Y-90817500D01*
X125890500Y-90817500D01*
X126341916Y-90651922D01*
X126695606Y-90326199D01*
X126857898Y-89976268D01*
X126837379Y-89869875D01*
X130432500Y-89869875D01*
X130432500Y-90513154D01*
X130480836Y-90629849D01*
X130570150Y-90719163D01*
X130686845Y-90767500D01*
X130930125Y-90767500D01*
X131009500Y-90688125D01*
X131009500Y-89790500D01*
X130511875Y-89790500D01*
X130432500Y-89869875D01*
X126837379Y-89869875D01*
X126822069Y-89790500D01*
X124990500Y-89790500D01*
X124609500Y-89790500D01*
X122777931Y-89790500D01*
X122742102Y-89976268D01*
X121777898Y-89976268D01*
X121742069Y-89790500D01*
X119910500Y-89790500D01*
X119529500Y-89790500D01*
X117697931Y-89790500D01*
X117662102Y-89976268D01*
X117063500Y-89976268D01*
X117063500Y-89223732D01*
X117662102Y-89223732D01*
X117697931Y-89409500D01*
X119529500Y-89409500D01*
X119529500Y-88382500D01*
X119910500Y-88382500D01*
X119910500Y-89409500D01*
X121742069Y-89409500D01*
X121777898Y-89223732D01*
X122742102Y-89223732D01*
X122777931Y-89409500D01*
X124609500Y-89409500D01*
X124609500Y-88382500D01*
X124990500Y-88382500D01*
X124990500Y-89409500D01*
X126822069Y-89409500D01*
X126857898Y-89223732D01*
X126695606Y-88873801D01*
X126492599Y-88686846D01*
X130432500Y-88686846D01*
X130432500Y-89330125D01*
X130511875Y-89409500D01*
X131009500Y-89409500D01*
X131009500Y-88511875D01*
X130930125Y-88432500D01*
X130686845Y-88432500D01*
X130570150Y-88480837D01*
X130480836Y-88570151D01*
X130432500Y-88686846D01*
X126492599Y-88686846D01*
X126341916Y-88548078D01*
X125890500Y-88382500D01*
X124990500Y-88382500D01*
X124609500Y-88382500D01*
X123709500Y-88382500D01*
X123258084Y-88548078D01*
X122904394Y-88873801D01*
X122742102Y-89223732D01*
X121777898Y-89223732D01*
X121615606Y-88873801D01*
X121261916Y-88548078D01*
X120810500Y-88382500D01*
X119910500Y-88382500D01*
X119529500Y-88382500D01*
X118629500Y-88382500D01*
X118178084Y-88548078D01*
X117824394Y-88873801D01*
X117662102Y-89223732D01*
X117063500Y-89223732D01*
X117063500Y-88063500D01*
X131686500Y-88063500D01*
X131686500Y-88432500D01*
X131686500Y-88432500D01*
G37*
X131686500Y-88432500D02*
X131469875Y-88432500D01*
X131390500Y-88511875D01*
X131390500Y-89409500D01*
X131410500Y-89409500D01*
X131410500Y-89790500D01*
X131390500Y-89790500D01*
X131390500Y-90688125D01*
X131469875Y-90767500D01*
X131686500Y-90767500D01*
X131686500Y-90936500D01*
X117063500Y-90936500D01*
X117063500Y-89976268D01*
X117662102Y-89976268D01*
X117824394Y-90326199D01*
X118178084Y-90651922D01*
X118629500Y-90817500D01*
X119529500Y-90817500D01*
X119529500Y-89790500D01*
X119910500Y-89790500D01*
X119910500Y-90817500D01*
X120810500Y-90817500D01*
X121261916Y-90651922D01*
X121615606Y-90326199D01*
X121777898Y-89976268D01*
X122742102Y-89976268D01*
X122904394Y-90326199D01*
X123258084Y-90651922D01*
X123709500Y-90817500D01*
X124609500Y-90817500D01*
X124609500Y-89790500D01*
X124990500Y-89790500D01*
X124990500Y-90817500D01*
X125890500Y-90817500D01*
X126341916Y-90651922D01*
X126695606Y-90326199D01*
X126857898Y-89976268D01*
X126837379Y-89869875D01*
X130432500Y-89869875D01*
X130432500Y-90513154D01*
X130480836Y-90629849D01*
X130570150Y-90719163D01*
X130686845Y-90767500D01*
X130930125Y-90767500D01*
X131009500Y-90688125D01*
X131009500Y-89790500D01*
X130511875Y-89790500D01*
X130432500Y-89869875D01*
X126837379Y-89869875D01*
X126822069Y-89790500D01*
X124990500Y-89790500D01*
X124609500Y-89790500D01*
X122777931Y-89790500D01*
X122742102Y-89976268D01*
X121777898Y-89976268D01*
X121742069Y-89790500D01*
X119910500Y-89790500D01*
X119529500Y-89790500D01*
X117697931Y-89790500D01*
X117662102Y-89976268D01*
X117063500Y-89976268D01*
X117063500Y-89223732D01*
X117662102Y-89223732D01*
X117697931Y-89409500D01*
X119529500Y-89409500D01*
X119529500Y-88382500D01*
X119910500Y-88382500D01*
X119910500Y-89409500D01*
X121742069Y-89409500D01*
X121777898Y-89223732D01*
X122742102Y-89223732D01*
X122777931Y-89409500D01*
X124609500Y-89409500D01*
X124609500Y-88382500D01*
X124990500Y-88382500D01*
X124990500Y-89409500D01*
X126822069Y-89409500D01*
X126857898Y-89223732D01*
X126695606Y-88873801D01*
X126492599Y-88686846D01*
X130432500Y-88686846D01*
X130432500Y-89330125D01*
X130511875Y-89409500D01*
X131009500Y-89409500D01*
X131009500Y-88511875D01*
X130930125Y-88432500D01*
X130686845Y-88432500D01*
X130570150Y-88480837D01*
X130480836Y-88570151D01*
X130432500Y-88686846D01*
X126492599Y-88686846D01*
X126341916Y-88548078D01*
X125890500Y-88382500D01*
X124990500Y-88382500D01*
X124609500Y-88382500D01*
X123709500Y-88382500D01*
X123258084Y-88548078D01*
X122904394Y-88873801D01*
X122742102Y-89223732D01*
X121777898Y-89223732D01*
X121615606Y-88873801D01*
X121261916Y-88548078D01*
X120810500Y-88382500D01*
X119910500Y-88382500D01*
X119529500Y-88382500D01*
X118629500Y-88382500D01*
X118178084Y-88548078D01*
X117824394Y-88873801D01*
X117662102Y-89223732D01*
X117063500Y-89223732D01*
X117063500Y-88063500D01*
X131686500Y-88063500D01*
X131686500Y-88432500D01*
G36*
X131686500Y-94832500D02*
X131469875Y-94832500D01*
X131390500Y-94911875D01*
X131390500Y-95809500D01*
X131410500Y-95809500D01*
X131410500Y-96190500D01*
X131390500Y-96190500D01*
X131390500Y-97088125D01*
X131469875Y-97167500D01*
X131686500Y-97167500D01*
X131686500Y-97436500D01*
X117063500Y-97436500D01*
X117063500Y-96376268D01*
X117662102Y-96376268D01*
X117824394Y-96726199D01*
X118178084Y-97051922D01*
X118629500Y-97217500D01*
X119529500Y-97217500D01*
X119529500Y-96190500D01*
X119910500Y-96190500D01*
X119910500Y-97217500D01*
X120810500Y-97217500D01*
X121261916Y-97051922D01*
X121615606Y-96726199D01*
X121777898Y-96376268D01*
X122742102Y-96376268D01*
X122904394Y-96726199D01*
X123258084Y-97051922D01*
X123709500Y-97217500D01*
X124609500Y-97217500D01*
X124609500Y-96190500D01*
X124990500Y-96190500D01*
X124990500Y-97217500D01*
X125890500Y-97217500D01*
X126341916Y-97051922D01*
X126695606Y-96726199D01*
X126857898Y-96376268D01*
X126837379Y-96269875D01*
X130432500Y-96269875D01*
X130432500Y-96913154D01*
X130480836Y-97029849D01*
X130570150Y-97119163D01*
X130686845Y-97167500D01*
X130930125Y-97167500D01*
X131009500Y-97088125D01*
X131009500Y-96190500D01*
X130511875Y-96190500D01*
X130432500Y-96269875D01*
X126837379Y-96269875D01*
X126822069Y-96190500D01*
X124990500Y-96190500D01*
X124609500Y-96190500D01*
X122777931Y-96190500D01*
X122742102Y-96376268D01*
X121777898Y-96376268D01*
X121742069Y-96190500D01*
X119910500Y-96190500D01*
X119529500Y-96190500D01*
X117697931Y-96190500D01*
X117662102Y-96376268D01*
X117063500Y-96376268D01*
X117063500Y-95623732D01*
X117662102Y-95623732D01*
X117697931Y-95809500D01*
X119529500Y-95809500D01*
X119529500Y-94782500D01*
X119910500Y-94782500D01*
X119910500Y-95809500D01*
X121742069Y-95809500D01*
X121777898Y-95623732D01*
X122742102Y-95623732D01*
X122777931Y-95809500D01*
X124609500Y-95809500D01*
X124609500Y-94782500D01*
X124990500Y-94782500D01*
X124990500Y-95809500D01*
X126822069Y-95809500D01*
X126857898Y-95623732D01*
X126695606Y-95273801D01*
X126492599Y-95086846D01*
X130432500Y-95086846D01*
X130432500Y-95730125D01*
X130511875Y-95809500D01*
X131009500Y-95809500D01*
X131009500Y-94911875D01*
X130930125Y-94832500D01*
X130686845Y-94832500D01*
X130570150Y-94880837D01*
X130480836Y-94970151D01*
X130432500Y-95086846D01*
X126492599Y-95086846D01*
X126341916Y-94948078D01*
X125890500Y-94782500D01*
X124990500Y-94782500D01*
X124609500Y-94782500D01*
X123709500Y-94782500D01*
X123258084Y-94948078D01*
X122904394Y-95273801D01*
X122742102Y-95623732D01*
X121777898Y-95623732D01*
X121615606Y-95273801D01*
X121261916Y-94948078D01*
X120810500Y-94782500D01*
X119910500Y-94782500D01*
X119529500Y-94782500D01*
X118629500Y-94782500D01*
X118178084Y-94948078D01*
X117824394Y-95273801D01*
X117662102Y-95623732D01*
X117063500Y-95623732D01*
X117063500Y-94563500D01*
X131686500Y-94563500D01*
X131686500Y-94832500D01*
X131686500Y-94832500D01*
G37*
X131686500Y-94832500D02*
X131469875Y-94832500D01*
X131390500Y-94911875D01*
X131390500Y-95809500D01*
X131410500Y-95809500D01*
X131410500Y-96190500D01*
X131390500Y-96190500D01*
X131390500Y-97088125D01*
X131469875Y-97167500D01*
X131686500Y-97167500D01*
X131686500Y-97436500D01*
X117063500Y-97436500D01*
X117063500Y-96376268D01*
X117662102Y-96376268D01*
X117824394Y-96726199D01*
X118178084Y-97051922D01*
X118629500Y-97217500D01*
X119529500Y-97217500D01*
X119529500Y-96190500D01*
X119910500Y-96190500D01*
X119910500Y-97217500D01*
X120810500Y-97217500D01*
X121261916Y-97051922D01*
X121615606Y-96726199D01*
X121777898Y-96376268D01*
X122742102Y-96376268D01*
X122904394Y-96726199D01*
X123258084Y-97051922D01*
X123709500Y-97217500D01*
X124609500Y-97217500D01*
X124609500Y-96190500D01*
X124990500Y-96190500D01*
X124990500Y-97217500D01*
X125890500Y-97217500D01*
X126341916Y-97051922D01*
X126695606Y-96726199D01*
X126857898Y-96376268D01*
X126837379Y-96269875D01*
X130432500Y-96269875D01*
X130432500Y-96913154D01*
X130480836Y-97029849D01*
X130570150Y-97119163D01*
X130686845Y-97167500D01*
X130930125Y-97167500D01*
X131009500Y-97088125D01*
X131009500Y-96190500D01*
X130511875Y-96190500D01*
X130432500Y-96269875D01*
X126837379Y-96269875D01*
X126822069Y-96190500D01*
X124990500Y-96190500D01*
X124609500Y-96190500D01*
X122777931Y-96190500D01*
X122742102Y-96376268D01*
X121777898Y-96376268D01*
X121742069Y-96190500D01*
X119910500Y-96190500D01*
X119529500Y-96190500D01*
X117697931Y-96190500D01*
X117662102Y-96376268D01*
X117063500Y-96376268D01*
X117063500Y-95623732D01*
X117662102Y-95623732D01*
X117697931Y-95809500D01*
X119529500Y-95809500D01*
X119529500Y-94782500D01*
X119910500Y-94782500D01*
X119910500Y-95809500D01*
X121742069Y-95809500D01*
X121777898Y-95623732D01*
X122742102Y-95623732D01*
X122777931Y-95809500D01*
X124609500Y-95809500D01*
X124609500Y-94782500D01*
X124990500Y-94782500D01*
X124990500Y-95809500D01*
X126822069Y-95809500D01*
X126857898Y-95623732D01*
X126695606Y-95273801D01*
X126492599Y-95086846D01*
X130432500Y-95086846D01*
X130432500Y-95730125D01*
X130511875Y-95809500D01*
X131009500Y-95809500D01*
X131009500Y-94911875D01*
X130930125Y-94832500D01*
X130686845Y-94832500D01*
X130570150Y-94880837D01*
X130480836Y-94970151D01*
X130432500Y-95086846D01*
X126492599Y-95086846D01*
X126341916Y-94948078D01*
X125890500Y-94782500D01*
X124990500Y-94782500D01*
X124609500Y-94782500D01*
X123709500Y-94782500D01*
X123258084Y-94948078D01*
X122904394Y-95273801D01*
X122742102Y-95623732D01*
X121777898Y-95623732D01*
X121615606Y-95273801D01*
X121261916Y-94948078D01*
X120810500Y-94782500D01*
X119910500Y-94782500D01*
X119529500Y-94782500D01*
X118629500Y-94782500D01*
X118178084Y-94948078D01*
X117824394Y-95273801D01*
X117662102Y-95623732D01*
X117063500Y-95623732D01*
X117063500Y-94563500D01*
X131686500Y-94563500D01*
X131686500Y-94832500D01*
G36*
X165423157Y-90936500D02*
X150813500Y-90936500D01*
X150813500Y-90767500D01*
X151030125Y-90767500D01*
X151109500Y-90688125D01*
X151109500Y-89790500D01*
X151490500Y-89790500D01*
X151490500Y-90688125D01*
X151569875Y-90767500D01*
X151813155Y-90767500D01*
X151929850Y-90719163D01*
X152019164Y-90629849D01*
X152067500Y-90513154D01*
X152067500Y-89976268D01*
X155942102Y-89976268D01*
X156104394Y-90326199D01*
X156458084Y-90651922D01*
X156909500Y-90817500D01*
X157809500Y-90817500D01*
X157809500Y-89790500D01*
X158190500Y-89790500D01*
X158190500Y-90817500D01*
X159090500Y-90817500D01*
X159541916Y-90651922D01*
X159895606Y-90326199D01*
X160057898Y-89976268D01*
X161022102Y-89976268D01*
X161184394Y-90326199D01*
X161538084Y-90651922D01*
X161989500Y-90817500D01*
X162889500Y-90817500D01*
X162889500Y-89790500D01*
X163270500Y-89790500D01*
X163270500Y-90817500D01*
X164170500Y-90817500D01*
X164621916Y-90651922D01*
X164975606Y-90326199D01*
X165137898Y-89976268D01*
X165102069Y-89790500D01*
X163270500Y-89790500D01*
X162889500Y-89790500D01*
X161057931Y-89790500D01*
X161022102Y-89976268D01*
X160057898Y-89976268D01*
X160022069Y-89790500D01*
X158190500Y-89790500D01*
X157809500Y-89790500D01*
X155977931Y-89790500D01*
X155942102Y-89976268D01*
X152067500Y-89976268D01*
X152067500Y-89869875D01*
X151988125Y-89790500D01*
X151490500Y-89790500D01*
X151109500Y-89790500D01*
X151089500Y-89790500D01*
X151089500Y-89409500D01*
X151109500Y-89409500D01*
X151109500Y-88511875D01*
X151490500Y-88511875D01*
X151490500Y-89409500D01*
X151988125Y-89409500D01*
X152067500Y-89330125D01*
X152067500Y-89223732D01*
X155942102Y-89223732D01*
X155977931Y-89409500D01*
X157809500Y-89409500D01*
X157809500Y-88382500D01*
X158190500Y-88382500D01*
X158190500Y-89409500D01*
X160022069Y-89409500D01*
X160057898Y-89223732D01*
X161022102Y-89223732D01*
X161057931Y-89409500D01*
X162889500Y-89409500D01*
X162889500Y-88382500D01*
X163270500Y-88382500D01*
X163270500Y-89409500D01*
X165102069Y-89409500D01*
X165137898Y-89223732D01*
X164975606Y-88873801D01*
X164621916Y-88548078D01*
X164170500Y-88382500D01*
X163270500Y-88382500D01*
X162889500Y-88382500D01*
X161989500Y-88382500D01*
X161538084Y-88548078D01*
X161184394Y-88873801D01*
X161022102Y-89223732D01*
X160057898Y-89223732D01*
X159895606Y-88873801D01*
X159541916Y-88548078D01*
X159090500Y-88382500D01*
X158190500Y-88382500D01*
X157809500Y-88382500D01*
X156909500Y-88382500D01*
X156458084Y-88548078D01*
X156104394Y-88873801D01*
X155942102Y-89223732D01*
X152067500Y-89223732D01*
X152067500Y-88686846D01*
X152019164Y-88570151D01*
X151929850Y-88480837D01*
X151813155Y-88432500D01*
X151569875Y-88432500D01*
X151490500Y-88511875D01*
X151109500Y-88511875D01*
X151030125Y-88432500D01*
X150813500Y-88432500D01*
X150813500Y-88063500D01*
X165423157Y-88063500D01*
X165423157Y-90936500D01*
X165423157Y-90936500D01*
G37*
X165423157Y-90936500D02*
X150813500Y-90936500D01*
X150813500Y-90767500D01*
X151030125Y-90767500D01*
X151109500Y-90688125D01*
X151109500Y-89790500D01*
X151490500Y-89790500D01*
X151490500Y-90688125D01*
X151569875Y-90767500D01*
X151813155Y-90767500D01*
X151929850Y-90719163D01*
X152019164Y-90629849D01*
X152067500Y-90513154D01*
X152067500Y-89976268D01*
X155942102Y-89976268D01*
X156104394Y-90326199D01*
X156458084Y-90651922D01*
X156909500Y-90817500D01*
X157809500Y-90817500D01*
X157809500Y-89790500D01*
X158190500Y-89790500D01*
X158190500Y-90817500D01*
X159090500Y-90817500D01*
X159541916Y-90651922D01*
X159895606Y-90326199D01*
X160057898Y-89976268D01*
X161022102Y-89976268D01*
X161184394Y-90326199D01*
X161538084Y-90651922D01*
X161989500Y-90817500D01*
X162889500Y-90817500D01*
X162889500Y-89790500D01*
X163270500Y-89790500D01*
X163270500Y-90817500D01*
X164170500Y-90817500D01*
X164621916Y-90651922D01*
X164975606Y-90326199D01*
X165137898Y-89976268D01*
X165102069Y-89790500D01*
X163270500Y-89790500D01*
X162889500Y-89790500D01*
X161057931Y-89790500D01*
X161022102Y-89976268D01*
X160057898Y-89976268D01*
X160022069Y-89790500D01*
X158190500Y-89790500D01*
X157809500Y-89790500D01*
X155977931Y-89790500D01*
X155942102Y-89976268D01*
X152067500Y-89976268D01*
X152067500Y-89869875D01*
X151988125Y-89790500D01*
X151490500Y-89790500D01*
X151109500Y-89790500D01*
X151089500Y-89790500D01*
X151089500Y-89409500D01*
X151109500Y-89409500D01*
X151109500Y-88511875D01*
X151490500Y-88511875D01*
X151490500Y-89409500D01*
X151988125Y-89409500D01*
X152067500Y-89330125D01*
X152067500Y-89223732D01*
X155942102Y-89223732D01*
X155977931Y-89409500D01*
X157809500Y-89409500D01*
X157809500Y-88382500D01*
X158190500Y-88382500D01*
X158190500Y-89409500D01*
X160022069Y-89409500D01*
X160057898Y-89223732D01*
X161022102Y-89223732D01*
X161057931Y-89409500D01*
X162889500Y-89409500D01*
X162889500Y-88382500D01*
X163270500Y-88382500D01*
X163270500Y-89409500D01*
X165102069Y-89409500D01*
X165137898Y-89223732D01*
X164975606Y-88873801D01*
X164621916Y-88548078D01*
X164170500Y-88382500D01*
X163270500Y-88382500D01*
X162889500Y-88382500D01*
X161989500Y-88382500D01*
X161538084Y-88548078D01*
X161184394Y-88873801D01*
X161022102Y-89223732D01*
X160057898Y-89223732D01*
X159895606Y-88873801D01*
X159541916Y-88548078D01*
X159090500Y-88382500D01*
X158190500Y-88382500D01*
X157809500Y-88382500D01*
X156909500Y-88382500D01*
X156458084Y-88548078D01*
X156104394Y-88873801D01*
X155942102Y-89223732D01*
X152067500Y-89223732D01*
X152067500Y-88686846D01*
X152019164Y-88570151D01*
X151929850Y-88480837D01*
X151813155Y-88432500D01*
X151569875Y-88432500D01*
X151490500Y-88511875D01*
X151109500Y-88511875D01*
X151030125Y-88432500D01*
X150813500Y-88432500D01*
X150813500Y-88063500D01*
X165423157Y-88063500D01*
X165423157Y-90936500D01*
G36*
X165423157Y-97436500D02*
X150813500Y-97436500D01*
X150813500Y-97167500D01*
X151030125Y-97167500D01*
X151109500Y-97088125D01*
X151109500Y-96190500D01*
X151490500Y-96190500D01*
X151490500Y-97088125D01*
X151569875Y-97167500D01*
X151813155Y-97167500D01*
X151929850Y-97119163D01*
X152019164Y-97029849D01*
X152067500Y-96913154D01*
X152067500Y-96376268D01*
X155942102Y-96376268D01*
X156104394Y-96726199D01*
X156458084Y-97051922D01*
X156909500Y-97217500D01*
X157809500Y-97217500D01*
X157809500Y-96190500D01*
X158190500Y-96190500D01*
X158190500Y-97217500D01*
X159090500Y-97217500D01*
X159541916Y-97051922D01*
X159895606Y-96726199D01*
X160057898Y-96376268D01*
X161022102Y-96376268D01*
X161184394Y-96726199D01*
X161538084Y-97051922D01*
X161989500Y-97217500D01*
X162889500Y-97217500D01*
X162889500Y-96190500D01*
X163270500Y-96190500D01*
X163270500Y-97217500D01*
X164170500Y-97217500D01*
X164621916Y-97051922D01*
X164975606Y-96726199D01*
X165137898Y-96376268D01*
X165102069Y-96190500D01*
X163270500Y-96190500D01*
X162889500Y-96190500D01*
X161057931Y-96190500D01*
X161022102Y-96376268D01*
X160057898Y-96376268D01*
X160022069Y-96190500D01*
X158190500Y-96190500D01*
X157809500Y-96190500D01*
X155977931Y-96190500D01*
X155942102Y-96376268D01*
X152067500Y-96376268D01*
X152067500Y-96269875D01*
X151988125Y-96190500D01*
X151490500Y-96190500D01*
X151109500Y-96190500D01*
X151089500Y-96190500D01*
X151089500Y-95809500D01*
X151109500Y-95809500D01*
X151109500Y-94911875D01*
X151490500Y-94911875D01*
X151490500Y-95809500D01*
X151988125Y-95809500D01*
X152067500Y-95730125D01*
X152067500Y-95623732D01*
X155942102Y-95623732D01*
X155977931Y-95809500D01*
X157809500Y-95809500D01*
X157809500Y-94782500D01*
X158190500Y-94782500D01*
X158190500Y-95809500D01*
X160022069Y-95809500D01*
X160057898Y-95623732D01*
X161022102Y-95623732D01*
X161057931Y-95809500D01*
X162889500Y-95809500D01*
X162889500Y-94782500D01*
X163270500Y-94782500D01*
X163270500Y-95809500D01*
X165102069Y-95809500D01*
X165137898Y-95623732D01*
X164975606Y-95273801D01*
X164621916Y-94948078D01*
X164170500Y-94782500D01*
X163270500Y-94782500D01*
X162889500Y-94782500D01*
X161989500Y-94782500D01*
X161538084Y-94948078D01*
X161184394Y-95273801D01*
X161022102Y-95623732D01*
X160057898Y-95623732D01*
X159895606Y-95273801D01*
X159541916Y-94948078D01*
X159090500Y-94782500D01*
X158190500Y-94782500D01*
X157809500Y-94782500D01*
X156909500Y-94782500D01*
X156458084Y-94948078D01*
X156104394Y-95273801D01*
X155942102Y-95623732D01*
X152067500Y-95623732D01*
X152067500Y-95086846D01*
X152019164Y-94970151D01*
X151929850Y-94880837D01*
X151813155Y-94832500D01*
X151569875Y-94832500D01*
X151490500Y-94911875D01*
X151109500Y-94911875D01*
X151030125Y-94832500D01*
X150813500Y-94832500D01*
X150813500Y-94563500D01*
X165423157Y-94563500D01*
X165423157Y-97436500D01*
X165423157Y-97436500D01*
G37*
X165423157Y-97436500D02*
X150813500Y-97436500D01*
X150813500Y-97167500D01*
X151030125Y-97167500D01*
X151109500Y-97088125D01*
X151109500Y-96190500D01*
X151490500Y-96190500D01*
X151490500Y-97088125D01*
X151569875Y-97167500D01*
X151813155Y-97167500D01*
X151929850Y-97119163D01*
X152019164Y-97029849D01*
X152067500Y-96913154D01*
X152067500Y-96376268D01*
X155942102Y-96376268D01*
X156104394Y-96726199D01*
X156458084Y-97051922D01*
X156909500Y-97217500D01*
X157809500Y-97217500D01*
X157809500Y-96190500D01*
X158190500Y-96190500D01*
X158190500Y-97217500D01*
X159090500Y-97217500D01*
X159541916Y-97051922D01*
X159895606Y-96726199D01*
X160057898Y-96376268D01*
X161022102Y-96376268D01*
X161184394Y-96726199D01*
X161538084Y-97051922D01*
X161989500Y-97217500D01*
X162889500Y-97217500D01*
X162889500Y-96190500D01*
X163270500Y-96190500D01*
X163270500Y-97217500D01*
X164170500Y-97217500D01*
X164621916Y-97051922D01*
X164975606Y-96726199D01*
X165137898Y-96376268D01*
X165102069Y-96190500D01*
X163270500Y-96190500D01*
X162889500Y-96190500D01*
X161057931Y-96190500D01*
X161022102Y-96376268D01*
X160057898Y-96376268D01*
X160022069Y-96190500D01*
X158190500Y-96190500D01*
X157809500Y-96190500D01*
X155977931Y-96190500D01*
X155942102Y-96376268D01*
X152067500Y-96376268D01*
X152067500Y-96269875D01*
X151988125Y-96190500D01*
X151490500Y-96190500D01*
X151109500Y-96190500D01*
X151089500Y-96190500D01*
X151089500Y-95809500D01*
X151109500Y-95809500D01*
X151109500Y-94911875D01*
X151490500Y-94911875D01*
X151490500Y-95809500D01*
X151988125Y-95809500D01*
X152067500Y-95730125D01*
X152067500Y-95623732D01*
X155942102Y-95623732D01*
X155977931Y-95809500D01*
X157809500Y-95809500D01*
X157809500Y-94782500D01*
X158190500Y-94782500D01*
X158190500Y-95809500D01*
X160022069Y-95809500D01*
X160057898Y-95623732D01*
X161022102Y-95623732D01*
X161057931Y-95809500D01*
X162889500Y-95809500D01*
X162889500Y-94782500D01*
X163270500Y-94782500D01*
X163270500Y-95809500D01*
X165102069Y-95809500D01*
X165137898Y-95623732D01*
X164975606Y-95273801D01*
X164621916Y-94948078D01*
X164170500Y-94782500D01*
X163270500Y-94782500D01*
X162889500Y-94782500D01*
X161989500Y-94782500D01*
X161538084Y-94948078D01*
X161184394Y-95273801D01*
X161022102Y-95623732D01*
X160057898Y-95623732D01*
X159895606Y-95273801D01*
X159541916Y-94948078D01*
X159090500Y-94782500D01*
X158190500Y-94782500D01*
X157809500Y-94782500D01*
X156909500Y-94782500D01*
X156458084Y-94948078D01*
X156104394Y-95273801D01*
X155942102Y-95623732D01*
X152067500Y-95623732D01*
X152067500Y-95086846D01*
X152019164Y-94970151D01*
X151929850Y-94880837D01*
X151813155Y-94832500D01*
X151569875Y-94832500D01*
X151490500Y-94911875D01*
X151109500Y-94911875D01*
X151030125Y-94832500D01*
X150813500Y-94832500D01*
X150813500Y-94563500D01*
X165423157Y-94563500D01*
X165423157Y-97436500D01*
G36*
X165936500Y-85202644D02*
X155313500Y-85202644D01*
X155313500Y-79000000D01*
X155308497Y-78975295D01*
X155294277Y-78954483D01*
X155273080Y-78940843D01*
X155250000Y-78936500D01*
X143813500Y-78936500D01*
X143813500Y-77236500D01*
X143982500Y-77236500D01*
X143982500Y-78136500D01*
X144242218Y-78569190D01*
X144591077Y-78754285D01*
X144763500Y-78751093D01*
X144763500Y-77236500D01*
X145636500Y-77236500D01*
X145636500Y-78751093D01*
X145808923Y-78754285D01*
X146157782Y-78569190D01*
X146417500Y-78136500D01*
X146417500Y-78054375D01*
X149132500Y-78054375D01*
X149132500Y-78413155D01*
X149180837Y-78529850D01*
X149270151Y-78619164D01*
X149386846Y-78667500D01*
X150284125Y-78667500D01*
X150363500Y-78588125D01*
X150363500Y-77975000D01*
X151236500Y-77975000D01*
X151236500Y-78588125D01*
X151315875Y-78667500D01*
X152213154Y-78667500D01*
X152329849Y-78619164D01*
X152419163Y-78529850D01*
X152467500Y-78413155D01*
X152467500Y-78054375D01*
X152388125Y-77975000D01*
X151236500Y-77975000D01*
X150363500Y-77975000D01*
X149211875Y-77975000D01*
X149132500Y-78054375D01*
X146417500Y-78054375D01*
X146417500Y-77236500D01*
X145636500Y-77236500D01*
X144763500Y-77236500D01*
X143982500Y-77236500D01*
X143813500Y-77236500D01*
X143813500Y-76786845D01*
X149132500Y-76786845D01*
X149132500Y-77145625D01*
X149211875Y-77225000D01*
X150363500Y-77225000D01*
X150363500Y-76611875D01*
X151236500Y-76611875D01*
X151236500Y-77225000D01*
X152388125Y-77225000D01*
X152467500Y-77145625D01*
X152467500Y-76786845D01*
X152419163Y-76670150D01*
X152329849Y-76580836D01*
X152213154Y-76532500D01*
X151315875Y-76532500D01*
X151236500Y-76611875D01*
X150363500Y-76611875D01*
X150284125Y-76532500D01*
X149386846Y-76532500D01*
X149270151Y-76580836D01*
X149180837Y-76670150D01*
X149132500Y-76786845D01*
X143813500Y-76786845D01*
X143813500Y-75463500D01*
X143982500Y-75463500D01*
X143982500Y-76363500D01*
X144763500Y-76363500D01*
X144763500Y-74848907D01*
X145636500Y-74848907D01*
X145636500Y-76363500D01*
X146417500Y-76363500D01*
X146417500Y-75463500D01*
X146157782Y-75030810D01*
X145808923Y-74845715D01*
X145636500Y-74848907D01*
X144763500Y-74848907D01*
X144591077Y-74845715D01*
X144242218Y-75030810D01*
X143982500Y-75463500D01*
X143813500Y-75463500D01*
X143813500Y-72156500D01*
X143982500Y-72156500D01*
X143982500Y-73056500D01*
X144242218Y-73489190D01*
X144591077Y-73674285D01*
X144763500Y-73671093D01*
X144763500Y-72156500D01*
X145636500Y-72156500D01*
X145636500Y-73671093D01*
X145808923Y-73674285D01*
X146157782Y-73489190D01*
X146417500Y-73056500D01*
X146417500Y-72156500D01*
X145636500Y-72156500D01*
X144763500Y-72156500D01*
X143982500Y-72156500D01*
X143813500Y-72156500D01*
X143813500Y-70383500D01*
X143982500Y-70383500D01*
X143982500Y-71283500D01*
X144763500Y-71283500D01*
X144763500Y-69768907D01*
X145636500Y-69768907D01*
X145636500Y-71283500D01*
X146417500Y-71283500D01*
X146417500Y-70383500D01*
X146157782Y-69950810D01*
X145808923Y-69765715D01*
X145636500Y-69768907D01*
X144763500Y-69768907D01*
X144591077Y-69765715D01*
X144242218Y-69950810D01*
X143982500Y-70383500D01*
X143813500Y-70383500D01*
X143813500Y-69563500D01*
X146686500Y-69563500D01*
X146686500Y-76000000D01*
X146691503Y-76024705D01*
X146705723Y-76045517D01*
X146726920Y-76059157D01*
X146750000Y-76063500D01*
X155250000Y-76063500D01*
X155274705Y-76058497D01*
X155295517Y-76044277D01*
X155309157Y-76023080D01*
X155313500Y-76000000D01*
X155313500Y-61563500D01*
X165936500Y-61563500D01*
X165936500Y-85202644D01*
X165936500Y-85202644D01*
G37*
X165936500Y-85202644D02*
X155313500Y-85202644D01*
X155313500Y-79000000D01*
X155308497Y-78975295D01*
X155294277Y-78954483D01*
X155273080Y-78940843D01*
X155250000Y-78936500D01*
X143813500Y-78936500D01*
X143813500Y-77236500D01*
X143982500Y-77236500D01*
X143982500Y-78136500D01*
X144242218Y-78569190D01*
X144591077Y-78754285D01*
X144763500Y-78751093D01*
X144763500Y-77236500D01*
X145636500Y-77236500D01*
X145636500Y-78751093D01*
X145808923Y-78754285D01*
X146157782Y-78569190D01*
X146417500Y-78136500D01*
X146417500Y-78054375D01*
X149132500Y-78054375D01*
X149132500Y-78413155D01*
X149180837Y-78529850D01*
X149270151Y-78619164D01*
X149386846Y-78667500D01*
X150284125Y-78667500D01*
X150363500Y-78588125D01*
X150363500Y-77975000D01*
X151236500Y-77975000D01*
X151236500Y-78588125D01*
X151315875Y-78667500D01*
X152213154Y-78667500D01*
X152329849Y-78619164D01*
X152419163Y-78529850D01*
X152467500Y-78413155D01*
X152467500Y-78054375D01*
X152388125Y-77975000D01*
X151236500Y-77975000D01*
X150363500Y-77975000D01*
X149211875Y-77975000D01*
X149132500Y-78054375D01*
X146417500Y-78054375D01*
X146417500Y-77236500D01*
X145636500Y-77236500D01*
X144763500Y-77236500D01*
X143982500Y-77236500D01*
X143813500Y-77236500D01*
X143813500Y-76786845D01*
X149132500Y-76786845D01*
X149132500Y-77145625D01*
X149211875Y-77225000D01*
X150363500Y-77225000D01*
X150363500Y-76611875D01*
X151236500Y-76611875D01*
X151236500Y-77225000D01*
X152388125Y-77225000D01*
X152467500Y-77145625D01*
X152467500Y-76786845D01*
X152419163Y-76670150D01*
X152329849Y-76580836D01*
X152213154Y-76532500D01*
X151315875Y-76532500D01*
X151236500Y-76611875D01*
X150363500Y-76611875D01*
X150284125Y-76532500D01*
X149386846Y-76532500D01*
X149270151Y-76580836D01*
X149180837Y-76670150D01*
X149132500Y-76786845D01*
X143813500Y-76786845D01*
X143813500Y-75463500D01*
X143982500Y-75463500D01*
X143982500Y-76363500D01*
X144763500Y-76363500D01*
X144763500Y-74848907D01*
X145636500Y-74848907D01*
X145636500Y-76363500D01*
X146417500Y-76363500D01*
X146417500Y-75463500D01*
X146157782Y-75030810D01*
X145808923Y-74845715D01*
X145636500Y-74848907D01*
X144763500Y-74848907D01*
X144591077Y-74845715D01*
X144242218Y-75030810D01*
X143982500Y-75463500D01*
X143813500Y-75463500D01*
X143813500Y-72156500D01*
X143982500Y-72156500D01*
X143982500Y-73056500D01*
X144242218Y-73489190D01*
X144591077Y-73674285D01*
X144763500Y-73671093D01*
X144763500Y-72156500D01*
X145636500Y-72156500D01*
X145636500Y-73671093D01*
X145808923Y-73674285D01*
X146157782Y-73489190D01*
X146417500Y-73056500D01*
X146417500Y-72156500D01*
X145636500Y-72156500D01*
X144763500Y-72156500D01*
X143982500Y-72156500D01*
X143813500Y-72156500D01*
X143813500Y-70383500D01*
X143982500Y-70383500D01*
X143982500Y-71283500D01*
X144763500Y-71283500D01*
X144763500Y-69768907D01*
X145636500Y-69768907D01*
X145636500Y-71283500D01*
X146417500Y-71283500D01*
X146417500Y-70383500D01*
X146157782Y-69950810D01*
X145808923Y-69765715D01*
X145636500Y-69768907D01*
X144763500Y-69768907D01*
X144591077Y-69765715D01*
X144242218Y-69950810D01*
X143982500Y-70383500D01*
X143813500Y-70383500D01*
X143813500Y-69563500D01*
X146686500Y-69563500D01*
X146686500Y-76000000D01*
X146691503Y-76024705D01*
X146705723Y-76045517D01*
X146726920Y-76059157D01*
X146750000Y-76063500D01*
X155250000Y-76063500D01*
X155274705Y-76058497D01*
X155295517Y-76044277D01*
X155309157Y-76023080D01*
X155313500Y-76000000D01*
X155313500Y-61563500D01*
X165936500Y-61563500D01*
X165936500Y-85202644D01*
G36*
X127436500Y-106500000D02*
X127441503Y-106524705D01*
X127455723Y-106545517D01*
X127476920Y-106559157D01*
X127500000Y-106563500D01*
X133936500Y-106563500D01*
X133936500Y-109686500D01*
X127500000Y-109686500D01*
X127475295Y-109691503D01*
X127454483Y-109705723D01*
X127440843Y-109726920D01*
X127436500Y-109750000D01*
X127436500Y-123686500D01*
X117063500Y-123686500D01*
X117063500Y-108454375D01*
X130332500Y-108454375D01*
X130332500Y-108813155D01*
X130380837Y-108929850D01*
X130470151Y-109019164D01*
X130586846Y-109067500D01*
X131484125Y-109067500D01*
X131563500Y-108988125D01*
X131563500Y-108375000D01*
X132436500Y-108375000D01*
X132436500Y-108988125D01*
X132515875Y-109067500D01*
X133413154Y-109067500D01*
X133529849Y-109019164D01*
X133619163Y-108929850D01*
X133667500Y-108813155D01*
X133667500Y-108454375D01*
X133588125Y-108375000D01*
X132436500Y-108375000D01*
X131563500Y-108375000D01*
X130411875Y-108375000D01*
X130332500Y-108454375D01*
X117063500Y-108454375D01*
X117063500Y-107186845D01*
X130332500Y-107186845D01*
X130332500Y-107545625D01*
X130411875Y-107625000D01*
X131563500Y-107625000D01*
X131563500Y-107011875D01*
X132436500Y-107011875D01*
X132436500Y-107625000D01*
X133588125Y-107625000D01*
X133667500Y-107545625D01*
X133667500Y-107186845D01*
X133619163Y-107070150D01*
X133529849Y-106980836D01*
X133413154Y-106932500D01*
X132515875Y-106932500D01*
X132436500Y-107011875D01*
X131563500Y-107011875D01*
X131484125Y-106932500D01*
X130586846Y-106932500D01*
X130470151Y-106980836D01*
X130380837Y-107070150D01*
X130332500Y-107186845D01*
X117063500Y-107186845D01*
X117063500Y-100063500D01*
X127436500Y-100063500D01*
X127436500Y-106500000D01*
X127436500Y-106500000D01*
G37*
X127436500Y-106500000D02*
X127441503Y-106524705D01*
X127455723Y-106545517D01*
X127476920Y-106559157D01*
X127500000Y-106563500D01*
X133936500Y-106563500D01*
X133936500Y-109686500D01*
X127500000Y-109686500D01*
X127475295Y-109691503D01*
X127454483Y-109705723D01*
X127440843Y-109726920D01*
X127436500Y-109750000D01*
X127436500Y-123686500D01*
X117063500Y-123686500D01*
X117063500Y-108454375D01*
X130332500Y-108454375D01*
X130332500Y-108813155D01*
X130380837Y-108929850D01*
X130470151Y-109019164D01*
X130586846Y-109067500D01*
X131484125Y-109067500D01*
X131563500Y-108988125D01*
X131563500Y-108375000D01*
X132436500Y-108375000D01*
X132436500Y-108988125D01*
X132515875Y-109067500D01*
X133413154Y-109067500D01*
X133529849Y-109019164D01*
X133619163Y-108929850D01*
X133667500Y-108813155D01*
X133667500Y-108454375D01*
X133588125Y-108375000D01*
X132436500Y-108375000D01*
X131563500Y-108375000D01*
X130411875Y-108375000D01*
X130332500Y-108454375D01*
X117063500Y-108454375D01*
X117063500Y-107186845D01*
X130332500Y-107186845D01*
X130332500Y-107545625D01*
X130411875Y-107625000D01*
X131563500Y-107625000D01*
X131563500Y-107011875D01*
X132436500Y-107011875D01*
X132436500Y-107625000D01*
X133588125Y-107625000D01*
X133667500Y-107545625D01*
X133667500Y-107186845D01*
X133619163Y-107070150D01*
X133529849Y-106980836D01*
X133413154Y-106932500D01*
X132515875Y-106932500D01*
X132436500Y-107011875D01*
X131563500Y-107011875D01*
X131484125Y-106932500D01*
X130586846Y-106932500D01*
X130470151Y-106980836D01*
X130380837Y-107070150D01*
X130332500Y-107186845D01*
X117063500Y-107186845D01*
X117063500Y-100063500D01*
X127436500Y-100063500D01*
X127436500Y-106500000D01*
G36*
X165686500Y-123936500D02*
X155313500Y-123936500D01*
X155313500Y-110000000D01*
X155308497Y-109975295D01*
X155294277Y-109954483D01*
X155273080Y-109940843D01*
X155250000Y-109936500D01*
X148869569Y-109936500D01*
X148869569Y-108454375D01*
X149132500Y-108454375D01*
X149132500Y-108813155D01*
X149180837Y-108929850D01*
X149270151Y-109019164D01*
X149386846Y-109067500D01*
X150284125Y-109067500D01*
X150363500Y-108988125D01*
X150363500Y-108375000D01*
X151236500Y-108375000D01*
X151236500Y-108988125D01*
X151315875Y-109067500D01*
X152213154Y-109067500D01*
X152329849Y-109019164D01*
X152419163Y-108929850D01*
X152467500Y-108813155D01*
X152467500Y-108454375D01*
X152388125Y-108375000D01*
X151236500Y-108375000D01*
X150363500Y-108375000D01*
X149211875Y-108375000D01*
X149132500Y-108454375D01*
X148869569Y-108454375D01*
X148869569Y-107186845D01*
X149132500Y-107186845D01*
X149132500Y-107545625D01*
X149211875Y-107625000D01*
X150363500Y-107625000D01*
X150363500Y-107011875D01*
X151236500Y-107011875D01*
X151236500Y-107625000D01*
X152388125Y-107625000D01*
X152467500Y-107545625D01*
X152467500Y-107186845D01*
X152419163Y-107070150D01*
X152329849Y-106980836D01*
X152213154Y-106932500D01*
X151315875Y-106932500D01*
X151236500Y-107011875D01*
X150363500Y-107011875D01*
X150284125Y-106932500D01*
X149386846Y-106932500D01*
X149270151Y-106980836D01*
X149180837Y-107070150D01*
X149132500Y-107186845D01*
X148869569Y-107186845D01*
X148869569Y-106813500D01*
X155250000Y-106813500D01*
X155274705Y-106808497D01*
X155295517Y-106794277D01*
X155309157Y-106773080D01*
X155313500Y-106750000D01*
X155313500Y-100313500D01*
X165686500Y-100313500D01*
X165686500Y-123936500D01*
X165686500Y-123936500D01*
G37*
X165686500Y-123936500D02*
X155313500Y-123936500D01*
X155313500Y-110000000D01*
X155308497Y-109975295D01*
X155294277Y-109954483D01*
X155273080Y-109940843D01*
X155250000Y-109936500D01*
X148869569Y-109936500D01*
X148869569Y-108454375D01*
X149132500Y-108454375D01*
X149132500Y-108813155D01*
X149180837Y-108929850D01*
X149270151Y-109019164D01*
X149386846Y-109067500D01*
X150284125Y-109067500D01*
X150363500Y-108988125D01*
X150363500Y-108375000D01*
X151236500Y-108375000D01*
X151236500Y-108988125D01*
X151315875Y-109067500D01*
X152213154Y-109067500D01*
X152329849Y-109019164D01*
X152419163Y-108929850D01*
X152467500Y-108813155D01*
X152467500Y-108454375D01*
X152388125Y-108375000D01*
X151236500Y-108375000D01*
X150363500Y-108375000D01*
X149211875Y-108375000D01*
X149132500Y-108454375D01*
X148869569Y-108454375D01*
X148869569Y-107186845D01*
X149132500Y-107186845D01*
X149132500Y-107545625D01*
X149211875Y-107625000D01*
X150363500Y-107625000D01*
X150363500Y-107011875D01*
X151236500Y-107011875D01*
X151236500Y-107625000D01*
X152388125Y-107625000D01*
X152467500Y-107545625D01*
X152467500Y-107186845D01*
X152419163Y-107070150D01*
X152329849Y-106980836D01*
X152213154Y-106932500D01*
X151315875Y-106932500D01*
X151236500Y-107011875D01*
X150363500Y-107011875D01*
X150284125Y-106932500D01*
X149386846Y-106932500D01*
X149270151Y-106980836D01*
X149180837Y-107070150D01*
X149132500Y-107186845D01*
X148869569Y-107186845D01*
X148869569Y-106813500D01*
X155250000Y-106813500D01*
X155274705Y-106808497D01*
X155295517Y-106794277D01*
X155309157Y-106773080D01*
X155313500Y-106750000D01*
X155313500Y-100313500D01*
X165686500Y-100313500D01*
X165686500Y-123936500D01*
D21*
G36*
X137226998Y-81174445D02*
X137039883Y-81147945D01*
X136559251Y-81465175D01*
X136319000Y-81927000D01*
X136319000Y-82827000D01*
X137227000Y-82827000D01*
X137227000Y-82807000D01*
X137973000Y-82807000D01*
X137973000Y-82827000D01*
X138881000Y-82827000D01*
X138881000Y-81927000D01*
X138640749Y-81465175D01*
X138160117Y-81147945D01*
X137973002Y-81174445D01*
X137973002Y-81127000D01*
X139123000Y-81127000D01*
X139123000Y-90873000D01*
X133877000Y-90873000D01*
X133877000Y-90831000D01*
X133877750Y-90831000D01*
X133973000Y-90735750D01*
X133973000Y-89727000D01*
X134227000Y-89727000D01*
X134227000Y-90735750D01*
X134322250Y-90831000D01*
X134625786Y-90831000D01*
X134765820Y-90772996D01*
X134872996Y-90665819D01*
X134931000Y-90525785D01*
X134931000Y-89822250D01*
X134835750Y-89727000D01*
X134227000Y-89727000D01*
X133973000Y-89727000D01*
X133953000Y-89727000D01*
X133953000Y-89473000D01*
X133973000Y-89473000D01*
X133973000Y-88464250D01*
X134227000Y-88464250D01*
X134227000Y-89473000D01*
X134835750Y-89473000D01*
X134931000Y-89377750D01*
X134931000Y-88674215D01*
X134922213Y-88653000D01*
X136319000Y-88653000D01*
X136319000Y-89553000D01*
X136559251Y-90014825D01*
X137039883Y-90332055D01*
X137227000Y-90305555D01*
X137227000Y-88653000D01*
X137973000Y-88653000D01*
X137973000Y-90305555D01*
X138160117Y-90332055D01*
X138640749Y-90014825D01*
X138881000Y-89553000D01*
X138881000Y-88653000D01*
X137973000Y-88653000D01*
X137227000Y-88653000D01*
X136319000Y-88653000D01*
X134922213Y-88653000D01*
X134872996Y-88534181D01*
X134765820Y-88427004D01*
X134625786Y-88369000D01*
X134322250Y-88369000D01*
X134227000Y-88464250D01*
X133973000Y-88464250D01*
X133877750Y-88369000D01*
X133877000Y-88369000D01*
X133877000Y-87007000D01*
X136319000Y-87007000D01*
X136319000Y-87907000D01*
X137227000Y-87907000D01*
X137227000Y-86254445D01*
X137973000Y-86254445D01*
X137973000Y-87907000D01*
X138881000Y-87907000D01*
X138881000Y-87007000D01*
X138640749Y-86545175D01*
X138160117Y-86227945D01*
X137973000Y-86254445D01*
X137227000Y-86254445D01*
X137039883Y-86227945D01*
X136559251Y-86545175D01*
X136319000Y-87007000D01*
X133877000Y-87007000D01*
X133877000Y-84250000D01*
X133866994Y-84200590D01*
X133838553Y-84158965D01*
X133796159Y-84131685D01*
X133750000Y-84123000D01*
X130127000Y-84123000D01*
X130127000Y-83573000D01*
X136319000Y-83573000D01*
X136319000Y-84473000D01*
X136559251Y-84934825D01*
X137039883Y-85252055D01*
X137227000Y-85225555D01*
X137227000Y-83573000D01*
X137973000Y-83573000D01*
X137973000Y-85225555D01*
X138160117Y-85252055D01*
X138640749Y-84934825D01*
X138881000Y-84473000D01*
X138881000Y-83573000D01*
X137973000Y-83573000D01*
X137227000Y-83573000D01*
X136319000Y-83573000D01*
X130127000Y-83573000D01*
X130127000Y-82622250D01*
X130269000Y-82622250D01*
X130269000Y-83225786D01*
X130327004Y-83365820D01*
X130434181Y-83472996D01*
X130574215Y-83531000D01*
X131777750Y-83531000D01*
X131873000Y-83435750D01*
X131873000Y-82527000D01*
X132127000Y-82527000D01*
X132127000Y-83435750D01*
X132222250Y-83531000D01*
X133425785Y-83531000D01*
X133565819Y-83472996D01*
X133672996Y-83365820D01*
X133731000Y-83225786D01*
X133731000Y-82622250D01*
X133635750Y-82527000D01*
X132127000Y-82527000D01*
X131873000Y-82527000D01*
X130364250Y-82527000D01*
X130269000Y-82622250D01*
X130127000Y-82622250D01*
X130127000Y-81574214D01*
X130269000Y-81574214D01*
X130269000Y-82177750D01*
X130364250Y-82273000D01*
X131873000Y-82273000D01*
X131873000Y-81364250D01*
X132127000Y-81364250D01*
X132127000Y-82273000D01*
X133635750Y-82273000D01*
X133731000Y-82177750D01*
X133731000Y-81574214D01*
X133672996Y-81434180D01*
X133565819Y-81327004D01*
X133425785Y-81269000D01*
X132222250Y-81269000D01*
X132127000Y-81364250D01*
X131873000Y-81364250D01*
X131777750Y-81269000D01*
X130574215Y-81269000D01*
X130434181Y-81327004D01*
X130327004Y-81434180D01*
X130269000Y-81574214D01*
X130127000Y-81574214D01*
X130127000Y-81127000D01*
X137226998Y-81127000D01*
X137226998Y-81174445D01*
X137226998Y-81174445D01*
G37*
X137226998Y-81174445D02*
X137039883Y-81147945D01*
X136559251Y-81465175D01*
X136319000Y-81927000D01*
X136319000Y-82827000D01*
X137227000Y-82827000D01*
X137227000Y-82807000D01*
X137973000Y-82807000D01*
X137973000Y-82827000D01*
X138881000Y-82827000D01*
X138881000Y-81927000D01*
X138640749Y-81465175D01*
X138160117Y-81147945D01*
X137973002Y-81174445D01*
X137973002Y-81127000D01*
X139123000Y-81127000D01*
X139123000Y-90873000D01*
X133877000Y-90873000D01*
X133877000Y-90831000D01*
X133877750Y-90831000D01*
X133973000Y-90735750D01*
X133973000Y-89727000D01*
X134227000Y-89727000D01*
X134227000Y-90735750D01*
X134322250Y-90831000D01*
X134625786Y-90831000D01*
X134765820Y-90772996D01*
X134872996Y-90665819D01*
X134931000Y-90525785D01*
X134931000Y-89822250D01*
X134835750Y-89727000D01*
X134227000Y-89727000D01*
X133973000Y-89727000D01*
X133953000Y-89727000D01*
X133953000Y-89473000D01*
X133973000Y-89473000D01*
X133973000Y-88464250D01*
X134227000Y-88464250D01*
X134227000Y-89473000D01*
X134835750Y-89473000D01*
X134931000Y-89377750D01*
X134931000Y-88674215D01*
X134922213Y-88653000D01*
X136319000Y-88653000D01*
X136319000Y-89553000D01*
X136559251Y-90014825D01*
X137039883Y-90332055D01*
X137227000Y-90305555D01*
X137227000Y-88653000D01*
X137973000Y-88653000D01*
X137973000Y-90305555D01*
X138160117Y-90332055D01*
X138640749Y-90014825D01*
X138881000Y-89553000D01*
X138881000Y-88653000D01*
X137973000Y-88653000D01*
X137227000Y-88653000D01*
X136319000Y-88653000D01*
X134922213Y-88653000D01*
X134872996Y-88534181D01*
X134765820Y-88427004D01*
X134625786Y-88369000D01*
X134322250Y-88369000D01*
X134227000Y-88464250D01*
X133973000Y-88464250D01*
X133877750Y-88369000D01*
X133877000Y-88369000D01*
X133877000Y-87007000D01*
X136319000Y-87007000D01*
X136319000Y-87907000D01*
X137227000Y-87907000D01*
X137227000Y-86254445D01*
X137973000Y-86254445D01*
X137973000Y-87907000D01*
X138881000Y-87907000D01*
X138881000Y-87007000D01*
X138640749Y-86545175D01*
X138160117Y-86227945D01*
X137973000Y-86254445D01*
X137227000Y-86254445D01*
X137039883Y-86227945D01*
X136559251Y-86545175D01*
X136319000Y-87007000D01*
X133877000Y-87007000D01*
X133877000Y-84250000D01*
X133866994Y-84200590D01*
X133838553Y-84158965D01*
X133796159Y-84131685D01*
X133750000Y-84123000D01*
X130127000Y-84123000D01*
X130127000Y-83573000D01*
X136319000Y-83573000D01*
X136319000Y-84473000D01*
X136559251Y-84934825D01*
X137039883Y-85252055D01*
X137227000Y-85225555D01*
X137227000Y-83573000D01*
X137973000Y-83573000D01*
X137973000Y-85225555D01*
X138160117Y-85252055D01*
X138640749Y-84934825D01*
X138881000Y-84473000D01*
X138881000Y-83573000D01*
X137973000Y-83573000D01*
X137227000Y-83573000D01*
X136319000Y-83573000D01*
X130127000Y-83573000D01*
X130127000Y-82622250D01*
X130269000Y-82622250D01*
X130269000Y-83225786D01*
X130327004Y-83365820D01*
X130434181Y-83472996D01*
X130574215Y-83531000D01*
X131777750Y-83531000D01*
X131873000Y-83435750D01*
X131873000Y-82527000D01*
X132127000Y-82527000D01*
X132127000Y-83435750D01*
X132222250Y-83531000D01*
X133425785Y-83531000D01*
X133565819Y-83472996D01*
X133672996Y-83365820D01*
X133731000Y-83225786D01*
X133731000Y-82622250D01*
X133635750Y-82527000D01*
X132127000Y-82527000D01*
X131873000Y-82527000D01*
X130364250Y-82527000D01*
X130269000Y-82622250D01*
X130127000Y-82622250D01*
X130127000Y-81574214D01*
X130269000Y-81574214D01*
X130269000Y-82177750D01*
X130364250Y-82273000D01*
X131873000Y-82273000D01*
X131873000Y-81364250D01*
X132127000Y-81364250D01*
X132127000Y-82273000D01*
X133635750Y-82273000D01*
X133731000Y-82177750D01*
X133731000Y-81574214D01*
X133672996Y-81434180D01*
X133565819Y-81327004D01*
X133425785Y-81269000D01*
X132222250Y-81269000D01*
X132127000Y-81364250D01*
X131873000Y-81364250D01*
X131777750Y-81269000D01*
X130574215Y-81269000D01*
X130434181Y-81327004D01*
X130327004Y-81434180D01*
X130269000Y-81574214D01*
X130127000Y-81574214D01*
X130127000Y-81127000D01*
X137226998Y-81127000D01*
X137226998Y-81174445D01*
G36*
X144826998Y-81174445D02*
X144639883Y-81147945D01*
X144159251Y-81465175D01*
X143919000Y-81927000D01*
X143919000Y-82827000D01*
X144827000Y-82827000D01*
X144827000Y-82807000D01*
X145573000Y-82807000D01*
X145573000Y-82827000D01*
X146481000Y-82827000D01*
X146481000Y-82622250D01*
X149069000Y-82622250D01*
X149069000Y-83225786D01*
X149127004Y-83365820D01*
X149234181Y-83472996D01*
X149374215Y-83531000D01*
X150577750Y-83531000D01*
X150673000Y-83435750D01*
X150673000Y-82527000D01*
X150927000Y-82527000D01*
X150927000Y-83435750D01*
X151022250Y-83531000D01*
X152225785Y-83531000D01*
X152365819Y-83472996D01*
X152472996Y-83365820D01*
X152531000Y-83225786D01*
X152531000Y-82622250D01*
X152435750Y-82527000D01*
X150927000Y-82527000D01*
X150673000Y-82527000D01*
X149164250Y-82527000D01*
X149069000Y-82622250D01*
X146481000Y-82622250D01*
X146481000Y-81927000D01*
X146297474Y-81574214D01*
X149069000Y-81574214D01*
X149069000Y-82177750D01*
X149164250Y-82273000D01*
X150673000Y-82273000D01*
X150673000Y-81364250D01*
X150927000Y-81364250D01*
X150927000Y-82273000D01*
X152435750Y-82273000D01*
X152531000Y-82177750D01*
X152531000Y-81574214D01*
X152472996Y-81434180D01*
X152365819Y-81327004D01*
X152225785Y-81269000D01*
X151022250Y-81269000D01*
X150927000Y-81364250D01*
X150673000Y-81364250D01*
X150577750Y-81269000D01*
X149374215Y-81269000D01*
X149234181Y-81327004D01*
X149127004Y-81434180D01*
X149069000Y-81574214D01*
X146297474Y-81574214D01*
X146240749Y-81465175D01*
X145760117Y-81147945D01*
X145573002Y-81174445D01*
X145573002Y-81127000D01*
X152623000Y-81127000D01*
X152623000Y-84072119D01*
X149000000Y-84072119D01*
X148950590Y-84082125D01*
X148908965Y-84110566D01*
X148881685Y-84152960D01*
X148873000Y-84199119D01*
X148873000Y-88369000D01*
X148622250Y-88369000D01*
X148527000Y-88464250D01*
X148527000Y-89473000D01*
X148547000Y-89473000D01*
X148547000Y-89727000D01*
X148527000Y-89727000D01*
X148527000Y-90735750D01*
X148622250Y-90831000D01*
X148873000Y-90831000D01*
X148873000Y-90873000D01*
X143627000Y-90873000D01*
X143627000Y-88653000D01*
X143919000Y-88653000D01*
X143919000Y-89553000D01*
X144159251Y-90014825D01*
X144639883Y-90332055D01*
X144827000Y-90305555D01*
X144827000Y-88653000D01*
X145573000Y-88653000D01*
X145573000Y-90305555D01*
X145760117Y-90332055D01*
X146240749Y-90014825D01*
X146340930Y-89822250D01*
X147569000Y-89822250D01*
X147569000Y-90525785D01*
X147627004Y-90665819D01*
X147734180Y-90772996D01*
X147874214Y-90831000D01*
X148177750Y-90831000D01*
X148273000Y-90735750D01*
X148273000Y-89727000D01*
X147664250Y-89727000D01*
X147569000Y-89822250D01*
X146340930Y-89822250D01*
X146481000Y-89553000D01*
X146481000Y-88674215D01*
X147569000Y-88674215D01*
X147569000Y-89377750D01*
X147664250Y-89473000D01*
X148273000Y-89473000D01*
X148273000Y-88464250D01*
X148177750Y-88369000D01*
X147874214Y-88369000D01*
X147734180Y-88427004D01*
X147627004Y-88534181D01*
X147569000Y-88674215D01*
X146481000Y-88674215D01*
X146481000Y-88653000D01*
X145573000Y-88653000D01*
X144827000Y-88653000D01*
X143919000Y-88653000D01*
X143627000Y-88653000D01*
X143627000Y-87007000D01*
X143919000Y-87007000D01*
X143919000Y-87907000D01*
X144827000Y-87907000D01*
X144827000Y-86254445D01*
X145573000Y-86254445D01*
X145573000Y-87907000D01*
X146481000Y-87907000D01*
X146481000Y-87007000D01*
X146240749Y-86545175D01*
X145760117Y-86227945D01*
X145573000Y-86254445D01*
X144827000Y-86254445D01*
X144639883Y-86227945D01*
X144159251Y-86545175D01*
X143919000Y-87007000D01*
X143627000Y-87007000D01*
X143627000Y-83573000D01*
X143919000Y-83573000D01*
X143919000Y-84473000D01*
X144159251Y-84934825D01*
X144639883Y-85252055D01*
X144827000Y-85225555D01*
X144827000Y-83573000D01*
X145573000Y-83573000D01*
X145573000Y-85225555D01*
X145760117Y-85252055D01*
X146240749Y-84934825D01*
X146481000Y-84473000D01*
X146481000Y-83573000D01*
X145573000Y-83573000D01*
X144827000Y-83573000D01*
X143919000Y-83573000D01*
X143627000Y-83573000D01*
X143627000Y-81127000D01*
X144826998Y-81127000D01*
X144826998Y-81174445D01*
X144826998Y-81174445D01*
G37*
X144826998Y-81174445D02*
X144639883Y-81147945D01*
X144159251Y-81465175D01*
X143919000Y-81927000D01*
X143919000Y-82827000D01*
X144827000Y-82827000D01*
X144827000Y-82807000D01*
X145573000Y-82807000D01*
X145573000Y-82827000D01*
X146481000Y-82827000D01*
X146481000Y-82622250D01*
X149069000Y-82622250D01*
X149069000Y-83225786D01*
X149127004Y-83365820D01*
X149234181Y-83472996D01*
X149374215Y-83531000D01*
X150577750Y-83531000D01*
X150673000Y-83435750D01*
X150673000Y-82527000D01*
X150927000Y-82527000D01*
X150927000Y-83435750D01*
X151022250Y-83531000D01*
X152225785Y-83531000D01*
X152365819Y-83472996D01*
X152472996Y-83365820D01*
X152531000Y-83225786D01*
X152531000Y-82622250D01*
X152435750Y-82527000D01*
X150927000Y-82527000D01*
X150673000Y-82527000D01*
X149164250Y-82527000D01*
X149069000Y-82622250D01*
X146481000Y-82622250D01*
X146481000Y-81927000D01*
X146297474Y-81574214D01*
X149069000Y-81574214D01*
X149069000Y-82177750D01*
X149164250Y-82273000D01*
X150673000Y-82273000D01*
X150673000Y-81364250D01*
X150927000Y-81364250D01*
X150927000Y-82273000D01*
X152435750Y-82273000D01*
X152531000Y-82177750D01*
X152531000Y-81574214D01*
X152472996Y-81434180D01*
X152365819Y-81327004D01*
X152225785Y-81269000D01*
X151022250Y-81269000D01*
X150927000Y-81364250D01*
X150673000Y-81364250D01*
X150577750Y-81269000D01*
X149374215Y-81269000D01*
X149234181Y-81327004D01*
X149127004Y-81434180D01*
X149069000Y-81574214D01*
X146297474Y-81574214D01*
X146240749Y-81465175D01*
X145760117Y-81147945D01*
X145573002Y-81174445D01*
X145573002Y-81127000D01*
X152623000Y-81127000D01*
X152623000Y-84072119D01*
X149000000Y-84072119D01*
X148950590Y-84082125D01*
X148908965Y-84110566D01*
X148881685Y-84152960D01*
X148873000Y-84199119D01*
X148873000Y-88369000D01*
X148622250Y-88369000D01*
X148527000Y-88464250D01*
X148527000Y-89473000D01*
X148547000Y-89473000D01*
X148547000Y-89727000D01*
X148527000Y-89727000D01*
X148527000Y-90735750D01*
X148622250Y-90831000D01*
X148873000Y-90831000D01*
X148873000Y-90873000D01*
X143627000Y-90873000D01*
X143627000Y-88653000D01*
X143919000Y-88653000D01*
X143919000Y-89553000D01*
X144159251Y-90014825D01*
X144639883Y-90332055D01*
X144827000Y-90305555D01*
X144827000Y-88653000D01*
X145573000Y-88653000D01*
X145573000Y-90305555D01*
X145760117Y-90332055D01*
X146240749Y-90014825D01*
X146340930Y-89822250D01*
X147569000Y-89822250D01*
X147569000Y-90525785D01*
X147627004Y-90665819D01*
X147734180Y-90772996D01*
X147874214Y-90831000D01*
X148177750Y-90831000D01*
X148273000Y-90735750D01*
X148273000Y-89727000D01*
X147664250Y-89727000D01*
X147569000Y-89822250D01*
X146340930Y-89822250D01*
X146481000Y-89553000D01*
X146481000Y-88674215D01*
X147569000Y-88674215D01*
X147569000Y-89377750D01*
X147664250Y-89473000D01*
X148273000Y-89473000D01*
X148273000Y-88464250D01*
X148177750Y-88369000D01*
X147874214Y-88369000D01*
X147734180Y-88427004D01*
X147627004Y-88534181D01*
X147569000Y-88674215D01*
X146481000Y-88674215D01*
X146481000Y-88653000D01*
X145573000Y-88653000D01*
X144827000Y-88653000D01*
X143919000Y-88653000D01*
X143627000Y-88653000D01*
X143627000Y-87007000D01*
X143919000Y-87007000D01*
X143919000Y-87907000D01*
X144827000Y-87907000D01*
X144827000Y-86254445D01*
X145573000Y-86254445D01*
X145573000Y-87907000D01*
X146481000Y-87907000D01*
X146481000Y-87007000D01*
X146240749Y-86545175D01*
X145760117Y-86227945D01*
X145573000Y-86254445D01*
X144827000Y-86254445D01*
X144639883Y-86227945D01*
X144159251Y-86545175D01*
X143919000Y-87007000D01*
X143627000Y-87007000D01*
X143627000Y-83573000D01*
X143919000Y-83573000D01*
X143919000Y-84473000D01*
X144159251Y-84934825D01*
X144639883Y-85252055D01*
X144827000Y-85225555D01*
X144827000Y-83573000D01*
X145573000Y-83573000D01*
X145573000Y-85225555D01*
X145760117Y-85252055D01*
X146240749Y-84934825D01*
X146481000Y-84473000D01*
X146481000Y-83573000D01*
X145573000Y-83573000D01*
X144827000Y-83573000D01*
X143919000Y-83573000D01*
X143627000Y-83573000D01*
X143627000Y-81127000D01*
X144826998Y-81127000D01*
X144826998Y-81174445D01*
D20*
G36*
X138936500Y-104436500D02*
X129813500Y-104436500D01*
X129813500Y-103469875D01*
X130332500Y-103469875D01*
X130332500Y-104013155D01*
X130380837Y-104129850D01*
X130470151Y-104219164D01*
X130586846Y-104267500D01*
X131730125Y-104267500D01*
X131809500Y-104188125D01*
X131809500Y-103390500D01*
X132190500Y-103390500D01*
X132190500Y-104188125D01*
X132269875Y-104267500D01*
X133413154Y-104267500D01*
X133529849Y-104219164D01*
X133619163Y-104129850D01*
X133667500Y-104013155D01*
X133667500Y-103469875D01*
X133588125Y-103390500D01*
X132190500Y-103390500D01*
X131809500Y-103390500D01*
X130411875Y-103390500D01*
X130332500Y-103469875D01*
X129813500Y-103469875D01*
X129813500Y-102386845D01*
X130332500Y-102386845D01*
X130332500Y-102930125D01*
X130411875Y-103009500D01*
X131809500Y-103009500D01*
X131809500Y-102211875D01*
X132190500Y-102211875D01*
X132190500Y-103009500D01*
X133588125Y-103009500D01*
X133667500Y-102930125D01*
X133667500Y-102516500D01*
X136382500Y-102516500D01*
X136382500Y-103416500D01*
X136642218Y-103849190D01*
X136991077Y-104034285D01*
X137163500Y-104031093D01*
X137163500Y-102516500D01*
X138036500Y-102516500D01*
X138036500Y-104031093D01*
X138208923Y-104034285D01*
X138557782Y-103849190D01*
X138817500Y-103416500D01*
X138817500Y-102516500D01*
X138036500Y-102516500D01*
X137163500Y-102516500D01*
X136382500Y-102516500D01*
X133667500Y-102516500D01*
X133667500Y-102386845D01*
X133619163Y-102270150D01*
X133529849Y-102180836D01*
X133413154Y-102132500D01*
X132269875Y-102132500D01*
X132190500Y-102211875D01*
X131809500Y-102211875D01*
X131730125Y-102132500D01*
X130586846Y-102132500D01*
X130470151Y-102180836D01*
X130380837Y-102270150D01*
X130332500Y-102386845D01*
X129813500Y-102386845D01*
X129813500Y-101563500D01*
X133500000Y-101563500D01*
X133524705Y-101558497D01*
X133545517Y-101544277D01*
X133559157Y-101523080D01*
X133563500Y-101500000D01*
X133563500Y-100743500D01*
X136382500Y-100743500D01*
X136382500Y-101643500D01*
X137163500Y-101643500D01*
X137163500Y-100128907D01*
X138036500Y-100128907D01*
X138036500Y-101643500D01*
X138817500Y-101643500D01*
X138817500Y-100743500D01*
X138557782Y-100310810D01*
X138208923Y-100125715D01*
X138036500Y-100128907D01*
X137163500Y-100128907D01*
X136991077Y-100125715D01*
X136642218Y-100310810D01*
X136382500Y-100743500D01*
X133563500Y-100743500D01*
X133563500Y-97436500D01*
X136382500Y-97436500D01*
X136382500Y-98336500D01*
X136642218Y-98769190D01*
X136991077Y-98954285D01*
X137163500Y-98951093D01*
X137163500Y-97436500D01*
X138036500Y-97436500D01*
X138036500Y-98951093D01*
X138208923Y-98954285D01*
X138557782Y-98769190D01*
X138817500Y-98336500D01*
X138817500Y-97436500D01*
X138036500Y-97436500D01*
X137163500Y-97436500D01*
X136382500Y-97436500D01*
X133563500Y-97436500D01*
X133563500Y-97157830D01*
X133586845Y-97167500D01*
X133830125Y-97167500D01*
X133909500Y-97088125D01*
X133909500Y-96190500D01*
X134290500Y-96190500D01*
X134290500Y-97088125D01*
X134369875Y-97167500D01*
X134613155Y-97167500D01*
X134729850Y-97119163D01*
X134819164Y-97029849D01*
X134867500Y-96913154D01*
X134867500Y-96269875D01*
X134788125Y-96190500D01*
X134290500Y-96190500D01*
X133909500Y-96190500D01*
X133889500Y-96190500D01*
X133889500Y-95809500D01*
X133909500Y-95809500D01*
X133909500Y-94911875D01*
X134290500Y-94911875D01*
X134290500Y-95809500D01*
X134788125Y-95809500D01*
X134867500Y-95730125D01*
X134867500Y-95663500D01*
X136382500Y-95663500D01*
X136382500Y-96563500D01*
X137163500Y-96563500D01*
X137163500Y-95048907D01*
X138036500Y-95048907D01*
X138036500Y-96563500D01*
X138817500Y-96563500D01*
X138817500Y-95663500D01*
X138557782Y-95230810D01*
X138208923Y-95045715D01*
X138036500Y-95048907D01*
X137163500Y-95048907D01*
X136991077Y-95045715D01*
X136642218Y-95230810D01*
X136382500Y-95663500D01*
X134867500Y-95663500D01*
X134867500Y-95086846D01*
X134819164Y-94970151D01*
X134729850Y-94880837D01*
X134613155Y-94832500D01*
X134369875Y-94832500D01*
X134290500Y-94911875D01*
X133909500Y-94911875D01*
X133830125Y-94832500D01*
X133586845Y-94832500D01*
X133563500Y-94842170D01*
X133563500Y-94563500D01*
X138936500Y-94563500D01*
X138936500Y-104436500D01*
X138936500Y-104436500D01*
G37*
X138936500Y-104436500D02*
X129813500Y-104436500D01*
X129813500Y-103469875D01*
X130332500Y-103469875D01*
X130332500Y-104013155D01*
X130380837Y-104129850D01*
X130470151Y-104219164D01*
X130586846Y-104267500D01*
X131730125Y-104267500D01*
X131809500Y-104188125D01*
X131809500Y-103390500D01*
X132190500Y-103390500D01*
X132190500Y-104188125D01*
X132269875Y-104267500D01*
X133413154Y-104267500D01*
X133529849Y-104219164D01*
X133619163Y-104129850D01*
X133667500Y-104013155D01*
X133667500Y-103469875D01*
X133588125Y-103390500D01*
X132190500Y-103390500D01*
X131809500Y-103390500D01*
X130411875Y-103390500D01*
X130332500Y-103469875D01*
X129813500Y-103469875D01*
X129813500Y-102386845D01*
X130332500Y-102386845D01*
X130332500Y-102930125D01*
X130411875Y-103009500D01*
X131809500Y-103009500D01*
X131809500Y-102211875D01*
X132190500Y-102211875D01*
X132190500Y-103009500D01*
X133588125Y-103009500D01*
X133667500Y-102930125D01*
X133667500Y-102516500D01*
X136382500Y-102516500D01*
X136382500Y-103416500D01*
X136642218Y-103849190D01*
X136991077Y-104034285D01*
X137163500Y-104031093D01*
X137163500Y-102516500D01*
X138036500Y-102516500D01*
X138036500Y-104031093D01*
X138208923Y-104034285D01*
X138557782Y-103849190D01*
X138817500Y-103416500D01*
X138817500Y-102516500D01*
X138036500Y-102516500D01*
X137163500Y-102516500D01*
X136382500Y-102516500D01*
X133667500Y-102516500D01*
X133667500Y-102386845D01*
X133619163Y-102270150D01*
X133529849Y-102180836D01*
X133413154Y-102132500D01*
X132269875Y-102132500D01*
X132190500Y-102211875D01*
X131809500Y-102211875D01*
X131730125Y-102132500D01*
X130586846Y-102132500D01*
X130470151Y-102180836D01*
X130380837Y-102270150D01*
X130332500Y-102386845D01*
X129813500Y-102386845D01*
X129813500Y-101563500D01*
X133500000Y-101563500D01*
X133524705Y-101558497D01*
X133545517Y-101544277D01*
X133559157Y-101523080D01*
X133563500Y-101500000D01*
X133563500Y-100743500D01*
X136382500Y-100743500D01*
X136382500Y-101643500D01*
X137163500Y-101643500D01*
X137163500Y-100128907D01*
X138036500Y-100128907D01*
X138036500Y-101643500D01*
X138817500Y-101643500D01*
X138817500Y-100743500D01*
X138557782Y-100310810D01*
X138208923Y-100125715D01*
X138036500Y-100128907D01*
X137163500Y-100128907D01*
X136991077Y-100125715D01*
X136642218Y-100310810D01*
X136382500Y-100743500D01*
X133563500Y-100743500D01*
X133563500Y-97436500D01*
X136382500Y-97436500D01*
X136382500Y-98336500D01*
X136642218Y-98769190D01*
X136991077Y-98954285D01*
X137163500Y-98951093D01*
X137163500Y-97436500D01*
X138036500Y-97436500D01*
X138036500Y-98951093D01*
X138208923Y-98954285D01*
X138557782Y-98769190D01*
X138817500Y-98336500D01*
X138817500Y-97436500D01*
X138036500Y-97436500D01*
X137163500Y-97436500D01*
X136382500Y-97436500D01*
X133563500Y-97436500D01*
X133563500Y-97157830D01*
X133586845Y-97167500D01*
X133830125Y-97167500D01*
X133909500Y-97088125D01*
X133909500Y-96190500D01*
X134290500Y-96190500D01*
X134290500Y-97088125D01*
X134369875Y-97167500D01*
X134613155Y-97167500D01*
X134729850Y-97119163D01*
X134819164Y-97029849D01*
X134867500Y-96913154D01*
X134867500Y-96269875D01*
X134788125Y-96190500D01*
X134290500Y-96190500D01*
X133909500Y-96190500D01*
X133889500Y-96190500D01*
X133889500Y-95809500D01*
X133909500Y-95809500D01*
X133909500Y-94911875D01*
X134290500Y-94911875D01*
X134290500Y-95809500D01*
X134788125Y-95809500D01*
X134867500Y-95730125D01*
X134867500Y-95663500D01*
X136382500Y-95663500D01*
X136382500Y-96563500D01*
X137163500Y-96563500D01*
X137163500Y-95048907D01*
X138036500Y-95048907D01*
X138036500Y-96563500D01*
X138817500Y-96563500D01*
X138817500Y-95663500D01*
X138557782Y-95230810D01*
X138208923Y-95045715D01*
X138036500Y-95048907D01*
X137163500Y-95048907D01*
X136991077Y-95045715D01*
X136642218Y-95230810D01*
X136382500Y-95663500D01*
X134867500Y-95663500D01*
X134867500Y-95086846D01*
X134819164Y-94970151D01*
X134729850Y-94880837D01*
X134613155Y-94832500D01*
X134369875Y-94832500D01*
X134290500Y-94911875D01*
X133909500Y-94911875D01*
X133830125Y-94832500D01*
X133586845Y-94832500D01*
X133563500Y-94842170D01*
X133563500Y-94563500D01*
X138936500Y-94563500D01*
X138936500Y-104436500D01*
G36*
X148936500Y-94842170D02*
X148913155Y-94832500D01*
X148669875Y-94832500D01*
X148590500Y-94911875D01*
X148590500Y-95809500D01*
X148610500Y-95809500D01*
X148610500Y-96190500D01*
X148590500Y-96190500D01*
X148590500Y-97088125D01*
X148669875Y-97167500D01*
X148913155Y-97167500D01*
X148936500Y-97157830D01*
X148936500Y-101494192D01*
X148941503Y-101518897D01*
X148955723Y-101539709D01*
X148976920Y-101553349D01*
X149000000Y-101557692D01*
X152686500Y-101557692D01*
X152686500Y-104430692D01*
X143563500Y-104430692D01*
X143563500Y-102516500D01*
X143982500Y-102516500D01*
X143982500Y-103416500D01*
X144242218Y-103849190D01*
X144591077Y-104034285D01*
X144763500Y-104031093D01*
X144763500Y-102516500D01*
X145636500Y-102516500D01*
X145636500Y-104031093D01*
X145808923Y-104034285D01*
X146157782Y-103849190D01*
X146385462Y-103469875D01*
X149132500Y-103469875D01*
X149132500Y-104013155D01*
X149180837Y-104129850D01*
X149270151Y-104219164D01*
X149386846Y-104267500D01*
X150530125Y-104267500D01*
X150609500Y-104188125D01*
X150609500Y-103390500D01*
X150990500Y-103390500D01*
X150990500Y-104188125D01*
X151069875Y-104267500D01*
X152213154Y-104267500D01*
X152329849Y-104219164D01*
X152419163Y-104129850D01*
X152467500Y-104013155D01*
X152467500Y-103469875D01*
X152388125Y-103390500D01*
X150990500Y-103390500D01*
X150609500Y-103390500D01*
X149211875Y-103390500D01*
X149132500Y-103469875D01*
X146385462Y-103469875D01*
X146417500Y-103416500D01*
X146417500Y-102516500D01*
X145636500Y-102516500D01*
X144763500Y-102516500D01*
X143982500Y-102516500D01*
X143563500Y-102516500D01*
X143563500Y-102386845D01*
X149132500Y-102386845D01*
X149132500Y-102930125D01*
X149211875Y-103009500D01*
X150609500Y-103009500D01*
X150609500Y-102211875D01*
X150990500Y-102211875D01*
X150990500Y-103009500D01*
X152388125Y-103009500D01*
X152467500Y-102930125D01*
X152467500Y-102386845D01*
X152419163Y-102270150D01*
X152329849Y-102180836D01*
X152213154Y-102132500D01*
X151069875Y-102132500D01*
X150990500Y-102211875D01*
X150609500Y-102211875D01*
X150530125Y-102132500D01*
X149386846Y-102132500D01*
X149270151Y-102180836D01*
X149180837Y-102270150D01*
X149132500Y-102386845D01*
X143563500Y-102386845D01*
X143563500Y-100743500D01*
X143982500Y-100743500D01*
X143982500Y-101643500D01*
X144763500Y-101643500D01*
X144763500Y-100128907D01*
X145636500Y-100128907D01*
X145636500Y-101643500D01*
X146417500Y-101643500D01*
X146417500Y-100743500D01*
X146157782Y-100310810D01*
X145808923Y-100125715D01*
X145636500Y-100128907D01*
X144763500Y-100128907D01*
X144591077Y-100125715D01*
X144242218Y-100310810D01*
X143982500Y-100743500D01*
X143563500Y-100743500D01*
X143563500Y-97436500D01*
X143982500Y-97436500D01*
X143982500Y-98336500D01*
X144242218Y-98769190D01*
X144591077Y-98954285D01*
X144763500Y-98951093D01*
X144763500Y-97436500D01*
X145636500Y-97436500D01*
X145636500Y-98951093D01*
X145808923Y-98954285D01*
X146157782Y-98769190D01*
X146417500Y-98336500D01*
X146417500Y-97436500D01*
X145636500Y-97436500D01*
X144763500Y-97436500D01*
X143982500Y-97436500D01*
X143563500Y-97436500D01*
X143563500Y-95663500D01*
X143982500Y-95663500D01*
X143982500Y-96563500D01*
X144763500Y-96563500D01*
X144763500Y-95048907D01*
X145636500Y-95048907D01*
X145636500Y-96563500D01*
X146417500Y-96563500D01*
X146417500Y-96269875D01*
X147632500Y-96269875D01*
X147632500Y-96913154D01*
X147680836Y-97029849D01*
X147770150Y-97119163D01*
X147886845Y-97167500D01*
X148130125Y-97167500D01*
X148209500Y-97088125D01*
X148209500Y-96190500D01*
X147711875Y-96190500D01*
X147632500Y-96269875D01*
X146417500Y-96269875D01*
X146417500Y-95663500D01*
X146157782Y-95230810D01*
X145886445Y-95086846D01*
X147632500Y-95086846D01*
X147632500Y-95730125D01*
X147711875Y-95809500D01*
X148209500Y-95809500D01*
X148209500Y-94911875D01*
X148130125Y-94832500D01*
X147886845Y-94832500D01*
X147770150Y-94880837D01*
X147680836Y-94970151D01*
X147632500Y-95086846D01*
X145886445Y-95086846D01*
X145808923Y-95045715D01*
X145636500Y-95048907D01*
X144763500Y-95048907D01*
X144591077Y-95045715D01*
X144242218Y-95230810D01*
X143982500Y-95663500D01*
X143563500Y-95663500D01*
X143563500Y-94557692D01*
X148936500Y-94557692D01*
X148936500Y-94842170D01*
X148936500Y-94842170D01*
G37*
X148936500Y-94842170D02*
X148913155Y-94832500D01*
X148669875Y-94832500D01*
X148590500Y-94911875D01*
X148590500Y-95809500D01*
X148610500Y-95809500D01*
X148610500Y-96190500D01*
X148590500Y-96190500D01*
X148590500Y-97088125D01*
X148669875Y-97167500D01*
X148913155Y-97167500D01*
X148936500Y-97157830D01*
X148936500Y-101494192D01*
X148941503Y-101518897D01*
X148955723Y-101539709D01*
X148976920Y-101553349D01*
X149000000Y-101557692D01*
X152686500Y-101557692D01*
X152686500Y-104430692D01*
X143563500Y-104430692D01*
X143563500Y-102516500D01*
X143982500Y-102516500D01*
X143982500Y-103416500D01*
X144242218Y-103849190D01*
X144591077Y-104034285D01*
X144763500Y-104031093D01*
X144763500Y-102516500D01*
X145636500Y-102516500D01*
X145636500Y-104031093D01*
X145808923Y-104034285D01*
X146157782Y-103849190D01*
X146385462Y-103469875D01*
X149132500Y-103469875D01*
X149132500Y-104013155D01*
X149180837Y-104129850D01*
X149270151Y-104219164D01*
X149386846Y-104267500D01*
X150530125Y-104267500D01*
X150609500Y-104188125D01*
X150609500Y-103390500D01*
X150990500Y-103390500D01*
X150990500Y-104188125D01*
X151069875Y-104267500D01*
X152213154Y-104267500D01*
X152329849Y-104219164D01*
X152419163Y-104129850D01*
X152467500Y-104013155D01*
X152467500Y-103469875D01*
X152388125Y-103390500D01*
X150990500Y-103390500D01*
X150609500Y-103390500D01*
X149211875Y-103390500D01*
X149132500Y-103469875D01*
X146385462Y-103469875D01*
X146417500Y-103416500D01*
X146417500Y-102516500D01*
X145636500Y-102516500D01*
X144763500Y-102516500D01*
X143982500Y-102516500D01*
X143563500Y-102516500D01*
X143563500Y-102386845D01*
X149132500Y-102386845D01*
X149132500Y-102930125D01*
X149211875Y-103009500D01*
X150609500Y-103009500D01*
X150609500Y-102211875D01*
X150990500Y-102211875D01*
X150990500Y-103009500D01*
X152388125Y-103009500D01*
X152467500Y-102930125D01*
X152467500Y-102386845D01*
X152419163Y-102270150D01*
X152329849Y-102180836D01*
X152213154Y-102132500D01*
X151069875Y-102132500D01*
X150990500Y-102211875D01*
X150609500Y-102211875D01*
X150530125Y-102132500D01*
X149386846Y-102132500D01*
X149270151Y-102180836D01*
X149180837Y-102270150D01*
X149132500Y-102386845D01*
X143563500Y-102386845D01*
X143563500Y-100743500D01*
X143982500Y-100743500D01*
X143982500Y-101643500D01*
X144763500Y-101643500D01*
X144763500Y-100128907D01*
X145636500Y-100128907D01*
X145636500Y-101643500D01*
X146417500Y-101643500D01*
X146417500Y-100743500D01*
X146157782Y-100310810D01*
X145808923Y-100125715D01*
X145636500Y-100128907D01*
X144763500Y-100128907D01*
X144591077Y-100125715D01*
X144242218Y-100310810D01*
X143982500Y-100743500D01*
X143563500Y-100743500D01*
X143563500Y-97436500D01*
X143982500Y-97436500D01*
X143982500Y-98336500D01*
X144242218Y-98769190D01*
X144591077Y-98954285D01*
X144763500Y-98951093D01*
X144763500Y-97436500D01*
X145636500Y-97436500D01*
X145636500Y-98951093D01*
X145808923Y-98954285D01*
X146157782Y-98769190D01*
X146417500Y-98336500D01*
X146417500Y-97436500D01*
X145636500Y-97436500D01*
X144763500Y-97436500D01*
X143982500Y-97436500D01*
X143563500Y-97436500D01*
X143563500Y-95663500D01*
X143982500Y-95663500D01*
X143982500Y-96563500D01*
X144763500Y-96563500D01*
X144763500Y-95048907D01*
X145636500Y-95048907D01*
X145636500Y-96563500D01*
X146417500Y-96563500D01*
X146417500Y-96269875D01*
X147632500Y-96269875D01*
X147632500Y-96913154D01*
X147680836Y-97029849D01*
X147770150Y-97119163D01*
X147886845Y-97167500D01*
X148130125Y-97167500D01*
X148209500Y-97088125D01*
X148209500Y-96190500D01*
X147711875Y-96190500D01*
X147632500Y-96269875D01*
X146417500Y-96269875D01*
X146417500Y-95663500D01*
X146157782Y-95230810D01*
X145886445Y-95086846D01*
X147632500Y-95086846D01*
X147632500Y-95730125D01*
X147711875Y-95809500D01*
X148209500Y-95809500D01*
X148209500Y-94911875D01*
X148130125Y-94832500D01*
X147886845Y-94832500D01*
X147770150Y-94880837D01*
X147680836Y-94970151D01*
X147632500Y-95086846D01*
X145886445Y-95086846D01*
X145808923Y-95045715D01*
X145636500Y-95048907D01*
X144763500Y-95048907D01*
X144591077Y-95045715D01*
X144242218Y-95230810D01*
X143982500Y-95663500D01*
X143563500Y-95663500D01*
X143563500Y-94557692D01*
X148936500Y-94557692D01*
X148936500Y-94842170D01*
M02*
