G04 #@! TF.FileFunction,Soldermask,Top*
%FSLAX46Y46*%
G04 Gerber Fmt 4.6, Leading zero omitted, Abs format (unit mm)*
G04 Created by KiCad (PCBNEW 4.0.7) date 10/05/18 10:38:53*
%MOMM*%
%LPD*%
G01*
G04 APERTURE LIST*
%ADD10C,0.100000*%
%ADD11C,0.150000*%
%ADD12C,2.398980*%
%ADD13C,2.400000*%
%ADD14R,2.100000X1.300000*%
%ADD15R,3.100000X1.900000*%
%ADD16O,4.000000X2.200000*%
%ADD17C,3.000000*%
%ADD18C,2.600000*%
%ADD19C,0.254000*%
G04 APERTURE END LIST*
D10*
X129600000Y-117800000D02*
X134000000Y-114350000D01*
X134004135Y-114354512D02*
G75*
G03X132950000Y-113100000I-554135J604512D01*
G01*
X128642620Y-116440405D02*
X132950000Y-113100000D01*
X128642620Y-116440405D02*
G75*
G03X129600000Y-117800000I507380J-659595D01*
G01*
X130908677Y-105407543D02*
G75*
G03X131152655Y-103800000I141323J800837D01*
G01*
X121950000Y-113400000D02*
X121525000Y-108550000D01*
X119950000Y-108750000D02*
X120350000Y-113500000D01*
X121524622Y-108550098D02*
G75*
G03X119950000Y-108750000I-774622J-199902D01*
G01*
X120350992Y-113513920D02*
G75*
G03X121950000Y-113400000I799008J63920D01*
G01*
X125550000Y-104550000D02*
X130900000Y-105400000D01*
X125800000Y-102950000D02*
X131150000Y-103800000D01*
X125815108Y-102944239D02*
G75*
G03X125550000Y-104550000I-115108J-805761D01*
G01*
D11*
X135500000Y-110000000D02*
X133500000Y-110000000D01*
X135500000Y-109000000D02*
X135500000Y-110000000D01*
X133500000Y-109000000D02*
X135500000Y-109000000D01*
X123500000Y-119000000D02*
X124500000Y-119000000D01*
X133500000Y-109000000D02*
G75*
G03X123500000Y-119000000I0J-10000000D01*
G01*
X133500000Y-110000000D02*
G75*
G03X124500000Y-119000000I0J-9000000D01*
G01*
X139300000Y-105300000D02*
X143000000Y-105300000D01*
X135300000Y-101300000D02*
X135300000Y-95000000D01*
X115700000Y-115700000D02*
X110000000Y-115700000D01*
X119700000Y-119700000D02*
X119700000Y-126000000D01*
X119700000Y-119700000D02*
G75*
G03X115700000Y-115700000I-4000000J0D01*
G01*
X135300000Y-101300000D02*
G75*
G03X139300000Y-105300000I4000000J0D01*
G01*
X143000000Y-126000000D02*
X119700000Y-126000000D01*
X143000000Y-105300000D02*
X143000000Y-126000000D01*
X110000000Y-95000000D02*
X135300000Y-95000000D01*
X110000000Y-115700000D02*
X110000000Y-95000000D01*
D12*
X139300000Y-101300000D03*
X115600000Y-119800000D03*
X133500000Y-106500000D03*
X127000000Y-123000000D03*
X123000000Y-103000000D03*
X123000000Y-100000000D03*
X131000000Y-97000000D03*
X127000000Y-97000000D03*
X123000000Y-97000000D03*
X139000000Y-123000000D03*
X135000000Y-123000000D03*
X131000000Y-123000000D03*
X129000000Y-120000000D03*
X141000000Y-120000000D03*
X139000000Y-117000000D03*
X135000000Y-117000000D03*
X141000000Y-114000000D03*
D13*
X111490000Y-98000000D03*
X115300000Y-98000000D03*
D14*
X113000000Y-110450000D03*
X113000000Y-107550000D03*
D15*
X117000000Y-106400000D03*
X117000000Y-101600000D03*
D14*
X113000000Y-102550000D03*
X113000000Y-105450000D03*
D12*
X137000000Y-114000000D03*
D16*
X132420000Y-120000000D03*
X137500000Y-120000000D03*
X117500000Y-113500000D03*
X112420000Y-113500000D03*
X127420000Y-100000000D03*
X132500000Y-100000000D03*
D17*
X125490517Y-103718950D02*
X131219109Y-104626270D01*
X129032310Y-117221786D02*
X133602772Y-113650950D01*
D18*
X120732111Y-108609513D02*
X121167889Y-113590487D01*
D19*
G36*
X134873000Y-107873000D02*
X126052606Y-107873000D01*
X121089803Y-102910197D01*
X121047789Y-102882334D01*
X121000000Y-102873000D01*
X120627000Y-102873000D01*
X120627000Y-95127000D01*
X134873000Y-95127000D01*
X134873000Y-107873000D01*
X134873000Y-107873000D01*
G37*
X134873000Y-107873000D02*
X126052606Y-107873000D01*
X121089803Y-102910197D01*
X121047789Y-102882334D01*
X121000000Y-102873000D01*
X120627000Y-102873000D01*
X120627000Y-95127000D01*
X134873000Y-95127000D01*
X134873000Y-107873000D01*
G36*
X142873000Y-125873000D02*
X126127000Y-125873000D01*
X126127000Y-115061039D01*
X131044549Y-111127000D01*
X142873000Y-111127000D01*
X142873000Y-125873000D01*
X142873000Y-125873000D01*
G37*
X142873000Y-125873000D02*
X126127000Y-125873000D01*
X126127000Y-115061039D01*
X131044549Y-111127000D01*
X142873000Y-111127000D01*
X142873000Y-125873000D01*
G36*
X122373000Y-108052606D02*
X122373000Y-114873000D01*
X121052606Y-114873000D01*
X119627000Y-113447394D01*
X119627000Y-107127000D01*
X121447394Y-107127000D01*
X122373000Y-108052606D01*
X122373000Y-108052606D01*
G37*
X122373000Y-108052606D02*
X122373000Y-114873000D01*
X121052606Y-114873000D01*
X119627000Y-113447394D01*
X119627000Y-107127000D01*
X121447394Y-107127000D01*
X122373000Y-108052606D01*
G36*
X119373000Y-114873000D02*
X110127000Y-114873000D01*
X110127000Y-112127000D01*
X119373000Y-112127000D01*
X119373000Y-114873000D01*
X119373000Y-114873000D01*
G37*
X119373000Y-114873000D02*
X110127000Y-114873000D01*
X110127000Y-112127000D01*
X119373000Y-112127000D01*
X119373000Y-114873000D01*
G36*
X116952442Y-99373000D02*
X110206442Y-99373000D01*
X110206442Y-96627000D01*
X116952442Y-96627000D01*
X116952442Y-99373000D01*
X116952442Y-99373000D01*
G37*
X116952442Y-99373000D02*
X110206442Y-99373000D01*
X110206442Y-96627000D01*
X116952442Y-96627000D01*
X116952442Y-99373000D01*
M02*
