G04 #@! TF.FileFunction,Legend,Top*
%FSLAX46Y46*%
G04 Gerber Fmt 4.6, Leading zero omitted, Abs format (unit mm)*
G04 Created by KiCad (PCBNEW 4.0.7) date 10/05/18 10:38:53*
%MOMM*%
%LPD*%
G01*
G04 APERTURE LIST*
%ADD10C,0.100000*%
%ADD11C,0.150000*%
%ADD12C,0.120000*%
G04 APERTURE END LIST*
D10*
X129600000Y-117800000D02*
X134000000Y-114350000D01*
X134004135Y-114354512D02*
G75*
G03X132950000Y-113100000I-554135J604512D01*
G01*
X128642620Y-116440405D02*
X132950000Y-113100000D01*
X128642620Y-116440405D02*
G75*
G03X129600000Y-117800000I507380J-659595D01*
G01*
X130908677Y-105407543D02*
G75*
G03X131152655Y-103800000I141323J800837D01*
G01*
X121950000Y-113400000D02*
X121525000Y-108550000D01*
X119950000Y-108750000D02*
X120350000Y-113500000D01*
X121524622Y-108550098D02*
G75*
G03X119950000Y-108750000I-774622J-199902D01*
G01*
X120350992Y-113513920D02*
G75*
G03X121950000Y-113400000I799008J63920D01*
G01*
X125550000Y-104550000D02*
X130900000Y-105400000D01*
X125800000Y-102950000D02*
X131150000Y-103800000D01*
X125815108Y-102944239D02*
G75*
G03X125550000Y-104550000I-115108J-805761D01*
G01*
D11*
X135500000Y-110000000D02*
X133500000Y-110000000D01*
X135500000Y-109000000D02*
X135500000Y-110000000D01*
X133500000Y-109000000D02*
X135500000Y-109000000D01*
X123500000Y-119000000D02*
X124500000Y-119000000D01*
X133500000Y-109000000D02*
G75*
G03X123500000Y-119000000I0J-10000000D01*
G01*
X133500000Y-110000000D02*
G75*
G03X124500000Y-119000000I0J-9000000D01*
G01*
X139300000Y-105300000D02*
X143000000Y-105300000D01*
X135300000Y-101300000D02*
X135300000Y-95000000D01*
X115700000Y-115700000D02*
X110000000Y-115700000D01*
X119700000Y-119700000D02*
X119700000Y-126000000D01*
X119700000Y-119700000D02*
G75*
G03X115700000Y-115700000I-4000000J0D01*
G01*
X135300000Y-101300000D02*
G75*
G03X139300000Y-105300000I4000000J0D01*
G01*
X143000000Y-126000000D02*
X119700000Y-126000000D01*
X143000000Y-105300000D02*
X143000000Y-126000000D01*
X110000000Y-95000000D02*
X135300000Y-95000000D01*
X110000000Y-115700000D02*
X110000000Y-95000000D01*
D12*
X114070000Y-108000000D02*
X114070000Y-110000000D01*
X111930000Y-110000000D02*
X111930000Y-108000000D01*
X115500000Y-101600000D02*
X115500000Y-107300000D01*
X115500000Y-107300000D02*
X118500000Y-107300000D01*
X118500000Y-107300000D02*
X118500000Y-101600000D01*
X111930000Y-105000000D02*
X111930000Y-103000000D01*
X114070000Y-103000000D02*
X114070000Y-105000000D01*
D11*
X130460000Y-121250000D02*
X130460000Y-118750000D01*
X139710000Y-121250000D02*
X130460000Y-121250000D01*
X139710000Y-118750000D02*
X139710000Y-121250000D01*
X130460000Y-118750000D02*
X139710000Y-118750000D01*
X119460000Y-112250000D02*
X119460000Y-114750000D01*
X110210000Y-112250000D02*
X119460000Y-112250000D01*
X110210000Y-114750000D02*
X110210000Y-112250000D01*
X119460000Y-114750000D02*
X110210000Y-114750000D01*
X125460000Y-101250000D02*
X125460000Y-98750000D01*
X134710000Y-101250000D02*
X125460000Y-101250000D01*
X134710000Y-98750000D02*
X134710000Y-101250000D01*
X125460000Y-98750000D02*
X134710000Y-98750000D01*
X134823333Y-117866667D02*
X135290000Y-118566667D01*
X135290000Y-117866667D02*
X134823333Y-118566667D01*
X135923333Y-118566667D02*
X135523333Y-118566667D01*
X135723333Y-118566667D02*
X135723333Y-117866667D01*
X135656667Y-117966667D01*
X135590000Y-118033333D01*
X135523333Y-118066667D01*
X113963333Y-114866667D02*
X114430000Y-115566667D01*
X114430000Y-114866667D02*
X113963333Y-115566667D01*
X114663333Y-114933333D02*
X114696667Y-114900000D01*
X114763333Y-114866667D01*
X114930000Y-114866667D01*
X114996667Y-114900000D01*
X115030000Y-114933333D01*
X115063333Y-115000000D01*
X115063333Y-115066667D01*
X115030000Y-115166667D01*
X114630000Y-115566667D01*
X115063333Y-115566667D01*
X129823333Y-97866667D02*
X130290000Y-98566667D01*
X130290000Y-97866667D02*
X129823333Y-98566667D01*
X130490000Y-97866667D02*
X130923333Y-97866667D01*
X130690000Y-98133333D01*
X130790000Y-98133333D01*
X130856667Y-98166667D01*
X130890000Y-98200000D01*
X130923333Y-98266667D01*
X130923333Y-98433333D01*
X130890000Y-98500000D01*
X130856667Y-98533333D01*
X130790000Y-98566667D01*
X130590000Y-98566667D01*
X130523333Y-98533333D01*
X130490000Y-98500000D01*
X127443592Y-111676803D02*
X126827930Y-110888792D01*
X127015552Y-110742206D01*
X127157443Y-110691778D01*
X127291125Y-110708192D01*
X127387284Y-110753924D01*
X127542077Y-110874704D01*
X127630029Y-110987277D01*
X127709774Y-111166692D01*
X127730884Y-111271057D01*
X127714470Y-111404740D01*
X127631213Y-111530217D01*
X127443592Y-111676803D01*
X128644370Y-110738652D02*
X128194078Y-111090458D01*
X128419224Y-110914555D02*
X127803562Y-110126545D01*
X127816465Y-110297752D01*
X127800051Y-110431435D01*
X127754320Y-110527593D01*
M02*
