G04 #@! TF.FileFunction,Copper,L1,Top,Signal*
%FSLAX46Y46*%
G04 Gerber Fmt 4.6, Leading zero omitted, Abs format (unit mm)*
G04 Created by KiCad (PCBNEW 4.0.7) date 10/05/18 10:38:53*
%MOMM*%
%LPD*%
G01*
G04 APERTURE LIST*
%ADD10C,0.100000*%
%ADD11C,0.150000*%
%ADD12C,1.998980*%
%ADD13C,2.000000*%
%ADD14R,1.700000X0.900000*%
%ADD15R,2.700000X1.500000*%
%ADD16O,3.600000X1.800000*%
%ADD17C,2.600000*%
%ADD18C,2.200000*%
%ADD19C,0.254000*%
G04 APERTURE END LIST*
D10*
X129600000Y-117800000D02*
X134000000Y-114350000D01*
X134004135Y-114354512D02*
G75*
G03X132950000Y-113100000I-554135J604512D01*
G01*
X128642620Y-116440405D02*
X132950000Y-113100000D01*
X128642620Y-116440405D02*
G75*
G03X129600000Y-117800000I507380J-659595D01*
G01*
X130908677Y-105407543D02*
G75*
G03X131152655Y-103800000I141323J800837D01*
G01*
X121950000Y-113400000D02*
X121525000Y-108550000D01*
X119950000Y-108750000D02*
X120350000Y-113500000D01*
X121524622Y-108550098D02*
G75*
G03X119950000Y-108750000I-774622J-199902D01*
G01*
X120350992Y-113513920D02*
G75*
G03X121950000Y-113400000I799008J63920D01*
G01*
X125550000Y-104550000D02*
X130900000Y-105400000D01*
X125800000Y-102950000D02*
X131150000Y-103800000D01*
X125815108Y-102944239D02*
G75*
G03X125550000Y-104550000I-115108J-805761D01*
G01*
D11*
X135500000Y-110000000D02*
X133500000Y-110000000D01*
X135500000Y-109000000D02*
X135500000Y-110000000D01*
X133500000Y-109000000D02*
X135500000Y-109000000D01*
X123500000Y-119000000D02*
X124500000Y-119000000D01*
X133500000Y-109000000D02*
G75*
G03X123500000Y-119000000I0J-10000000D01*
G01*
X133500000Y-110000000D02*
G75*
G03X124500000Y-119000000I0J-9000000D01*
G01*
X139300000Y-105300000D02*
X143000000Y-105300000D01*
X135300000Y-101300000D02*
X135300000Y-95000000D01*
X115700000Y-115700000D02*
X110000000Y-115700000D01*
X119700000Y-119700000D02*
X119700000Y-126000000D01*
X119700000Y-119700000D02*
G75*
G03X115700000Y-115700000I-4000000J0D01*
G01*
X135300000Y-101300000D02*
G75*
G03X139300000Y-105300000I4000000J0D01*
G01*
X143000000Y-126000000D02*
X119700000Y-126000000D01*
X143000000Y-105300000D02*
X143000000Y-126000000D01*
X110000000Y-95000000D02*
X135300000Y-95000000D01*
X110000000Y-115700000D02*
X110000000Y-95000000D01*
D12*
X139300000Y-101300000D03*
X115600000Y-119800000D03*
X133500000Y-106500000D03*
X127000000Y-123000000D03*
X123000000Y-103000000D03*
X123000000Y-100000000D03*
X131000000Y-97000000D03*
X127000000Y-97000000D03*
X123000000Y-97000000D03*
X139000000Y-123000000D03*
X135000000Y-123000000D03*
X131000000Y-123000000D03*
X129000000Y-120000000D03*
X141000000Y-120000000D03*
X139000000Y-117000000D03*
X135000000Y-117000000D03*
X141000000Y-114000000D03*
D13*
X111490000Y-98000000D03*
X115300000Y-98000000D03*
D14*
X113000000Y-110450000D03*
X113000000Y-107550000D03*
D15*
X117000000Y-106400000D03*
X117000000Y-101600000D03*
D14*
X113000000Y-102550000D03*
X113000000Y-105450000D03*
D12*
X137000000Y-114000000D03*
D16*
X132420000Y-120000000D03*
X137500000Y-120000000D03*
X117500000Y-113500000D03*
X112420000Y-113500000D03*
X127420000Y-100000000D03*
X132500000Y-100000000D03*
D17*
X125490517Y-103718950D02*
X131219109Y-104626270D01*
X129032310Y-117221786D02*
X133602772Y-113650950D01*
D18*
X120732111Y-108609513D02*
X121167889Y-113590487D01*
D19*
G36*
X134873000Y-107873000D02*
X126052606Y-107873000D01*
X121782951Y-103603345D01*
X124596018Y-103603345D01*
X124599512Y-103920909D01*
X124622342Y-104029424D01*
X124623932Y-104036984D01*
X124748687Y-104329038D01*
X124755018Y-104338291D01*
X124815666Y-104426931D01*
X125042688Y-104649013D01*
X125142032Y-104713823D01*
X125436761Y-104832122D01*
X125470294Y-104838409D01*
X125502299Y-104850234D01*
X130832686Y-105697118D01*
X130863059Y-105708101D01*
X130901727Y-105713970D01*
X130935252Y-105712436D01*
X130968540Y-105716672D01*
X131285067Y-105694550D01*
X131285068Y-105694550D01*
X131399507Y-105663355D01*
X131683471Y-105521787D01*
X131683473Y-105521786D01*
X131777263Y-105449172D01*
X131985439Y-105209711D01*
X132012787Y-105161866D01*
X132044302Y-105106731D01*
X132144993Y-104805832D01*
X132159966Y-104688166D01*
X132137844Y-104371639D01*
X132124547Y-104322858D01*
X132106649Y-104257199D01*
X131965080Y-103973232D01*
X131892464Y-103879442D01*
X131653005Y-103671267D01*
X131550025Y-103612404D01*
X131550023Y-103612404D01*
X131249126Y-103511713D01*
X131220009Y-103508008D01*
X131197701Y-103499766D01*
X125926245Y-102662245D01*
X125922191Y-102659724D01*
X125805160Y-102640402D01*
X125522487Y-102649657D01*
X125467865Y-102662393D01*
X125413016Y-102673932D01*
X125120962Y-102798687D01*
X125092370Y-102818250D01*
X125023069Y-102865666D01*
X124800987Y-103092688D01*
X124761372Y-103153412D01*
X124736177Y-103192032D01*
X124617878Y-103486761D01*
X124596018Y-103603345D01*
X121782951Y-103603345D01*
X121089803Y-102910197D01*
X121047789Y-102882334D01*
X121000000Y-102873000D01*
X120627000Y-102873000D01*
X120627000Y-99000000D01*
X120616994Y-98950590D01*
X120588553Y-98908965D01*
X120546159Y-98881685D01*
X120500000Y-98873000D01*
X119500000Y-98873000D01*
X119450590Y-98883006D01*
X119408965Y-98911447D01*
X119381685Y-98953841D01*
X119373000Y-99000000D01*
X119373000Y-102873000D01*
X114231000Y-102873000D01*
X114231000Y-102818250D01*
X114135750Y-102723000D01*
X113173000Y-102723000D01*
X113173000Y-102743000D01*
X112827000Y-102743000D01*
X112827000Y-102723000D01*
X111864250Y-102723000D01*
X111769000Y-102818250D01*
X111769000Y-102873000D01*
X110329000Y-102873000D01*
X110329000Y-102024214D01*
X111769000Y-102024214D01*
X111769000Y-102281750D01*
X111864250Y-102377000D01*
X112827000Y-102377000D01*
X112827000Y-101814250D01*
X113173000Y-101814250D01*
X113173000Y-102377000D01*
X114135750Y-102377000D01*
X114231000Y-102281750D01*
X114231000Y-102024214D01*
X114172996Y-101884180D01*
X114157066Y-101868250D01*
X115269000Y-101868250D01*
X115269000Y-102425786D01*
X115327004Y-102565820D01*
X115434181Y-102672996D01*
X115574215Y-102731000D01*
X116731750Y-102731000D01*
X116827000Y-102635750D01*
X116827000Y-101773000D01*
X117173000Y-101773000D01*
X117173000Y-102635750D01*
X117268250Y-102731000D01*
X118425785Y-102731000D01*
X118565819Y-102672996D01*
X118672996Y-102565820D01*
X118731000Y-102425786D01*
X118731000Y-101868250D01*
X118635750Y-101773000D01*
X117173000Y-101773000D01*
X116827000Y-101773000D01*
X115364250Y-101773000D01*
X115269000Y-101868250D01*
X114157066Y-101868250D01*
X114065819Y-101777004D01*
X113925785Y-101719000D01*
X113268250Y-101719000D01*
X113173000Y-101814250D01*
X112827000Y-101814250D01*
X112731750Y-101719000D01*
X112074215Y-101719000D01*
X111934181Y-101777004D01*
X111827004Y-101884180D01*
X111769000Y-102024214D01*
X110329000Y-102024214D01*
X110329000Y-100774214D01*
X115269000Y-100774214D01*
X115269000Y-101331750D01*
X115364250Y-101427000D01*
X116827000Y-101427000D01*
X116827000Y-100564250D01*
X117173000Y-100564250D01*
X117173000Y-101427000D01*
X118635750Y-101427000D01*
X118731000Y-101331750D01*
X118731000Y-100774214D01*
X118672996Y-100634180D01*
X118565819Y-100527004D01*
X118425785Y-100469000D01*
X117268250Y-100469000D01*
X117173000Y-100564250D01*
X116827000Y-100564250D01*
X116731750Y-100469000D01*
X115574215Y-100469000D01*
X115434181Y-100527004D01*
X115327004Y-100634180D01*
X115269000Y-100774214D01*
X110329000Y-100774214D01*
X110329000Y-95329000D01*
X134873000Y-95329000D01*
X134873000Y-107873000D01*
X134873000Y-107873000D01*
G37*
X134873000Y-107873000D02*
X126052606Y-107873000D01*
X121782951Y-103603345D01*
X124596018Y-103603345D01*
X124599512Y-103920909D01*
X124622342Y-104029424D01*
X124623932Y-104036984D01*
X124748687Y-104329038D01*
X124755018Y-104338291D01*
X124815666Y-104426931D01*
X125042688Y-104649013D01*
X125142032Y-104713823D01*
X125436761Y-104832122D01*
X125470294Y-104838409D01*
X125502299Y-104850234D01*
X130832686Y-105697118D01*
X130863059Y-105708101D01*
X130901727Y-105713970D01*
X130935252Y-105712436D01*
X130968540Y-105716672D01*
X131285067Y-105694550D01*
X131285068Y-105694550D01*
X131399507Y-105663355D01*
X131683471Y-105521787D01*
X131683473Y-105521786D01*
X131777263Y-105449172D01*
X131985439Y-105209711D01*
X132012787Y-105161866D01*
X132044302Y-105106731D01*
X132144993Y-104805832D01*
X132159966Y-104688166D01*
X132137844Y-104371639D01*
X132124547Y-104322858D01*
X132106649Y-104257199D01*
X131965080Y-103973232D01*
X131892464Y-103879442D01*
X131653005Y-103671267D01*
X131550025Y-103612404D01*
X131550023Y-103612404D01*
X131249126Y-103511713D01*
X131220009Y-103508008D01*
X131197701Y-103499766D01*
X125926245Y-102662245D01*
X125922191Y-102659724D01*
X125805160Y-102640402D01*
X125522487Y-102649657D01*
X125467865Y-102662393D01*
X125413016Y-102673932D01*
X125120962Y-102798687D01*
X125092370Y-102818250D01*
X125023069Y-102865666D01*
X124800987Y-103092688D01*
X124761372Y-103153412D01*
X124736177Y-103192032D01*
X124617878Y-103486761D01*
X124596018Y-103603345D01*
X121782951Y-103603345D01*
X121089803Y-102910197D01*
X121047789Y-102882334D01*
X121000000Y-102873000D01*
X120627000Y-102873000D01*
X120627000Y-99000000D01*
X120616994Y-98950590D01*
X120588553Y-98908965D01*
X120546159Y-98881685D01*
X120500000Y-98873000D01*
X119500000Y-98873000D01*
X119450590Y-98883006D01*
X119408965Y-98911447D01*
X119381685Y-98953841D01*
X119373000Y-99000000D01*
X119373000Y-102873000D01*
X114231000Y-102873000D01*
X114231000Y-102818250D01*
X114135750Y-102723000D01*
X113173000Y-102723000D01*
X113173000Y-102743000D01*
X112827000Y-102743000D01*
X112827000Y-102723000D01*
X111864250Y-102723000D01*
X111769000Y-102818250D01*
X111769000Y-102873000D01*
X110329000Y-102873000D01*
X110329000Y-102024214D01*
X111769000Y-102024214D01*
X111769000Y-102281750D01*
X111864250Y-102377000D01*
X112827000Y-102377000D01*
X112827000Y-101814250D01*
X113173000Y-101814250D01*
X113173000Y-102377000D01*
X114135750Y-102377000D01*
X114231000Y-102281750D01*
X114231000Y-102024214D01*
X114172996Y-101884180D01*
X114157066Y-101868250D01*
X115269000Y-101868250D01*
X115269000Y-102425786D01*
X115327004Y-102565820D01*
X115434181Y-102672996D01*
X115574215Y-102731000D01*
X116731750Y-102731000D01*
X116827000Y-102635750D01*
X116827000Y-101773000D01*
X117173000Y-101773000D01*
X117173000Y-102635750D01*
X117268250Y-102731000D01*
X118425785Y-102731000D01*
X118565819Y-102672996D01*
X118672996Y-102565820D01*
X118731000Y-102425786D01*
X118731000Y-101868250D01*
X118635750Y-101773000D01*
X117173000Y-101773000D01*
X116827000Y-101773000D01*
X115364250Y-101773000D01*
X115269000Y-101868250D01*
X114157066Y-101868250D01*
X114065819Y-101777004D01*
X113925785Y-101719000D01*
X113268250Y-101719000D01*
X113173000Y-101814250D01*
X112827000Y-101814250D01*
X112731750Y-101719000D01*
X112074215Y-101719000D01*
X111934181Y-101777004D01*
X111827004Y-101884180D01*
X111769000Y-102024214D01*
X110329000Y-102024214D01*
X110329000Y-100774214D01*
X115269000Y-100774214D01*
X115269000Y-101331750D01*
X115364250Y-101427000D01*
X116827000Y-101427000D01*
X116827000Y-100564250D01*
X117173000Y-100564250D01*
X117173000Y-101427000D01*
X118635750Y-101427000D01*
X118731000Y-101331750D01*
X118731000Y-100774214D01*
X118672996Y-100634180D01*
X118565819Y-100527004D01*
X118425785Y-100469000D01*
X117268250Y-100469000D01*
X117173000Y-100564250D01*
X116827000Y-100564250D01*
X116731750Y-100469000D01*
X115574215Y-100469000D01*
X115434181Y-100527004D01*
X115327004Y-100634180D01*
X115269000Y-100774214D01*
X110329000Y-100774214D01*
X110329000Y-95329000D01*
X134873000Y-95329000D01*
X134873000Y-107873000D01*
G36*
X131082471Y-104097084D02*
X131299739Y-104169789D01*
X131447929Y-104298618D01*
X131535540Y-104474351D01*
X131549230Y-104670234D01*
X131486917Y-104856446D01*
X131358088Y-105004635D01*
X131182353Y-105092246D01*
X130967912Y-105107233D01*
X130947701Y-105099766D01*
X125631489Y-104255134D01*
X125424628Y-104172104D01*
X125284057Y-104034591D01*
X125206811Y-103853756D01*
X125204647Y-103657120D01*
X125277896Y-103474628D01*
X125415409Y-103334057D01*
X125599396Y-103255464D01*
X125753469Y-103250420D01*
X131082471Y-104097084D01*
X131082471Y-104097084D01*
G37*
X131082471Y-104097084D02*
X131299739Y-104169789D01*
X131447929Y-104298618D01*
X131535540Y-104474351D01*
X131549230Y-104670234D01*
X131486917Y-104856446D01*
X131358088Y-105004635D01*
X131182353Y-105092246D01*
X130967912Y-105107233D01*
X130947701Y-105099766D01*
X125631489Y-104255134D01*
X125424628Y-104172104D01*
X125284057Y-104034591D01*
X125206811Y-103853756D01*
X125204647Y-103657120D01*
X125277896Y-103474628D01*
X125415409Y-103334057D01*
X125599396Y-103255464D01*
X125753469Y-103250420D01*
X131082471Y-104097084D01*
G36*
X120937533Y-108297258D02*
X121096514Y-108403487D01*
X121213704Y-108578873D01*
X121225443Y-108613988D01*
X121644212Y-113392882D01*
X121615034Y-113609433D01*
X121518624Y-113775257D01*
X121366096Y-113891563D01*
X121180667Y-113940648D01*
X120990567Y-113915034D01*
X120824743Y-113818624D01*
X120707603Y-113665002D01*
X120651834Y-113461496D01*
X120256528Y-108767235D01*
X120297258Y-108562467D01*
X120403487Y-108403486D01*
X120562467Y-108297258D01*
X120750000Y-108259956D01*
X120937533Y-108297258D01*
X120937533Y-108297258D01*
G37*
X120937533Y-108297258D02*
X121096514Y-108403487D01*
X121213704Y-108578873D01*
X121225443Y-108613988D01*
X121644212Y-113392882D01*
X121615034Y-113609433D01*
X121518624Y-113775257D01*
X121366096Y-113891563D01*
X121180667Y-113940648D01*
X120990567Y-113915034D01*
X120824743Y-113818624D01*
X120707603Y-113665002D01*
X120651834Y-113461496D01*
X120256528Y-108767235D01*
X120297258Y-108562467D01*
X120403487Y-108403486D01*
X120562467Y-108297258D01*
X120750000Y-108259956D01*
X120937533Y-108297258D01*
G36*
X111769000Y-105181750D02*
X111864250Y-105277000D01*
X112827000Y-105277000D01*
X112827000Y-105257000D01*
X113173000Y-105257000D01*
X113173000Y-105277000D01*
X114135750Y-105277000D01*
X114231000Y-105181750D01*
X114231000Y-105127000D01*
X119247394Y-105127000D01*
X122173000Y-108052606D01*
X122173000Y-112462350D01*
X121827839Y-108523463D01*
X121817131Y-108486746D01*
X121812938Y-108453714D01*
X121777420Y-108347468D01*
X121757352Y-108312335D01*
X121741870Y-108274958D01*
X121568451Y-108015421D01*
X121484579Y-107931549D01*
X121225041Y-107758130D01*
X121225040Y-107758129D01*
X121115454Y-107712737D01*
X120809307Y-107651841D01*
X120750000Y-107651841D01*
X120384546Y-107712737D01*
X120274960Y-107758129D01*
X120274958Y-107758130D01*
X120015421Y-107931549D01*
X119931549Y-108015421D01*
X119758131Y-108274958D01*
X119758129Y-108274960D01*
X119712737Y-108384546D01*
X119651841Y-108690693D01*
X119651841Y-108733233D01*
X119647072Y-108775510D01*
X119711405Y-109539463D01*
X119689803Y-109510197D01*
X118089803Y-107910197D01*
X118047789Y-107882334D01*
X118000000Y-107873000D01*
X114231000Y-107873000D01*
X114231000Y-107818250D01*
X114135750Y-107723000D01*
X113173000Y-107723000D01*
X113173000Y-107743000D01*
X112827000Y-107743000D01*
X112827000Y-107723000D01*
X111864250Y-107723000D01*
X111769000Y-107818250D01*
X111769000Y-107873000D01*
X110329000Y-107873000D01*
X110329000Y-107024214D01*
X111769000Y-107024214D01*
X111769000Y-107281750D01*
X111864250Y-107377000D01*
X112827000Y-107377000D01*
X112827000Y-106814250D01*
X113173000Y-106814250D01*
X113173000Y-107377000D01*
X114135750Y-107377000D01*
X114231000Y-107281750D01*
X114231000Y-107024214D01*
X114172996Y-106884180D01*
X114065819Y-106777004D01*
X113925785Y-106719000D01*
X113268250Y-106719000D01*
X113173000Y-106814250D01*
X112827000Y-106814250D01*
X112731750Y-106719000D01*
X112074215Y-106719000D01*
X111934181Y-106777004D01*
X111827004Y-106884180D01*
X111769000Y-107024214D01*
X110329000Y-107024214D01*
X110329000Y-106668250D01*
X115269000Y-106668250D01*
X115269000Y-107225786D01*
X115327004Y-107365820D01*
X115434181Y-107472996D01*
X115574215Y-107531000D01*
X116731750Y-107531000D01*
X116827000Y-107435750D01*
X116827000Y-106573000D01*
X117173000Y-106573000D01*
X117173000Y-107435750D01*
X117268250Y-107531000D01*
X118425785Y-107531000D01*
X118565819Y-107472996D01*
X118672996Y-107365820D01*
X118731000Y-107225786D01*
X118731000Y-106668250D01*
X118635750Y-106573000D01*
X117173000Y-106573000D01*
X116827000Y-106573000D01*
X115364250Y-106573000D01*
X115269000Y-106668250D01*
X110329000Y-106668250D01*
X110329000Y-105718250D01*
X111769000Y-105718250D01*
X111769000Y-105975786D01*
X111827004Y-106115820D01*
X111934181Y-106222996D01*
X112074215Y-106281000D01*
X112731750Y-106281000D01*
X112827000Y-106185750D01*
X112827000Y-105623000D01*
X113173000Y-105623000D01*
X113173000Y-106185750D01*
X113268250Y-106281000D01*
X113925785Y-106281000D01*
X114065819Y-106222996D01*
X114172996Y-106115820D01*
X114231000Y-105975786D01*
X114231000Y-105718250D01*
X114135750Y-105623000D01*
X113173000Y-105623000D01*
X112827000Y-105623000D01*
X111864250Y-105623000D01*
X111769000Y-105718250D01*
X110329000Y-105718250D01*
X110329000Y-105574214D01*
X115269000Y-105574214D01*
X115269000Y-106131750D01*
X115364250Y-106227000D01*
X116827000Y-106227000D01*
X116827000Y-105364250D01*
X117173000Y-105364250D01*
X117173000Y-106227000D01*
X118635750Y-106227000D01*
X118731000Y-106131750D01*
X118731000Y-105574214D01*
X118672996Y-105434180D01*
X118565819Y-105327004D01*
X118425785Y-105269000D01*
X117268250Y-105269000D01*
X117173000Y-105364250D01*
X116827000Y-105364250D01*
X116731750Y-105269000D01*
X115574215Y-105269000D01*
X115434181Y-105327004D01*
X115327004Y-105434180D01*
X115269000Y-105574214D01*
X110329000Y-105574214D01*
X110329000Y-105127000D01*
X111769000Y-105127000D01*
X111769000Y-105181750D01*
X111769000Y-105181750D01*
G37*
X111769000Y-105181750D02*
X111864250Y-105277000D01*
X112827000Y-105277000D01*
X112827000Y-105257000D01*
X113173000Y-105257000D01*
X113173000Y-105277000D01*
X114135750Y-105277000D01*
X114231000Y-105181750D01*
X114231000Y-105127000D01*
X119247394Y-105127000D01*
X122173000Y-108052606D01*
X122173000Y-112462350D01*
X121827839Y-108523463D01*
X121817131Y-108486746D01*
X121812938Y-108453714D01*
X121777420Y-108347468D01*
X121757352Y-108312335D01*
X121741870Y-108274958D01*
X121568451Y-108015421D01*
X121484579Y-107931549D01*
X121225041Y-107758130D01*
X121225040Y-107758129D01*
X121115454Y-107712737D01*
X120809307Y-107651841D01*
X120750000Y-107651841D01*
X120384546Y-107712737D01*
X120274960Y-107758129D01*
X120274958Y-107758130D01*
X120015421Y-107931549D01*
X119931549Y-108015421D01*
X119758131Y-108274958D01*
X119758129Y-108274960D01*
X119712737Y-108384546D01*
X119651841Y-108690693D01*
X119651841Y-108733233D01*
X119647072Y-108775510D01*
X119711405Y-109539463D01*
X119689803Y-109510197D01*
X118089803Y-107910197D01*
X118047789Y-107882334D01*
X118000000Y-107873000D01*
X114231000Y-107873000D01*
X114231000Y-107818250D01*
X114135750Y-107723000D01*
X113173000Y-107723000D01*
X113173000Y-107743000D01*
X112827000Y-107743000D01*
X112827000Y-107723000D01*
X111864250Y-107723000D01*
X111769000Y-107818250D01*
X111769000Y-107873000D01*
X110329000Y-107873000D01*
X110329000Y-107024214D01*
X111769000Y-107024214D01*
X111769000Y-107281750D01*
X111864250Y-107377000D01*
X112827000Y-107377000D01*
X112827000Y-106814250D01*
X113173000Y-106814250D01*
X113173000Y-107377000D01*
X114135750Y-107377000D01*
X114231000Y-107281750D01*
X114231000Y-107024214D01*
X114172996Y-106884180D01*
X114065819Y-106777004D01*
X113925785Y-106719000D01*
X113268250Y-106719000D01*
X113173000Y-106814250D01*
X112827000Y-106814250D01*
X112731750Y-106719000D01*
X112074215Y-106719000D01*
X111934181Y-106777004D01*
X111827004Y-106884180D01*
X111769000Y-107024214D01*
X110329000Y-107024214D01*
X110329000Y-106668250D01*
X115269000Y-106668250D01*
X115269000Y-107225786D01*
X115327004Y-107365820D01*
X115434181Y-107472996D01*
X115574215Y-107531000D01*
X116731750Y-107531000D01*
X116827000Y-107435750D01*
X116827000Y-106573000D01*
X117173000Y-106573000D01*
X117173000Y-107435750D01*
X117268250Y-107531000D01*
X118425785Y-107531000D01*
X118565819Y-107472996D01*
X118672996Y-107365820D01*
X118731000Y-107225786D01*
X118731000Y-106668250D01*
X118635750Y-106573000D01*
X117173000Y-106573000D01*
X116827000Y-106573000D01*
X115364250Y-106573000D01*
X115269000Y-106668250D01*
X110329000Y-106668250D01*
X110329000Y-105718250D01*
X111769000Y-105718250D01*
X111769000Y-105975786D01*
X111827004Y-106115820D01*
X111934181Y-106222996D01*
X112074215Y-106281000D01*
X112731750Y-106281000D01*
X112827000Y-106185750D01*
X112827000Y-105623000D01*
X113173000Y-105623000D01*
X113173000Y-106185750D01*
X113268250Y-106281000D01*
X113925785Y-106281000D01*
X114065819Y-106222996D01*
X114172996Y-106115820D01*
X114231000Y-105975786D01*
X114231000Y-105718250D01*
X114135750Y-105623000D01*
X113173000Y-105623000D01*
X112827000Y-105623000D01*
X111864250Y-105623000D01*
X111769000Y-105718250D01*
X110329000Y-105718250D01*
X110329000Y-105574214D01*
X115269000Y-105574214D01*
X115269000Y-106131750D01*
X115364250Y-106227000D01*
X116827000Y-106227000D01*
X116827000Y-105364250D01*
X117173000Y-105364250D01*
X117173000Y-106227000D01*
X118635750Y-106227000D01*
X118731000Y-106131750D01*
X118731000Y-105574214D01*
X118672996Y-105434180D01*
X118565819Y-105327004D01*
X118425785Y-105269000D01*
X117268250Y-105269000D01*
X117173000Y-105364250D01*
X116827000Y-105364250D01*
X116731750Y-105269000D01*
X115574215Y-105269000D01*
X115434181Y-105327004D01*
X115327004Y-105434180D01*
X115269000Y-105574214D01*
X110329000Y-105574214D01*
X110329000Y-105127000D01*
X111769000Y-105127000D01*
X111769000Y-105181750D01*
G36*
X111769000Y-110181750D02*
X111864250Y-110277000D01*
X112827000Y-110277000D01*
X112827000Y-110257000D01*
X113173000Y-110257000D01*
X113173000Y-110277000D01*
X114135750Y-110277000D01*
X114231000Y-110181750D01*
X114231000Y-110127000D01*
X115373000Y-110127000D01*
X115373000Y-112000000D01*
X115383006Y-112049410D01*
X115411447Y-112091035D01*
X115453841Y-112118315D01*
X115500000Y-112127000D01*
X118247394Y-112127000D01*
X119173000Y-113052606D01*
X119173000Y-114873000D01*
X110329000Y-114873000D01*
X110329000Y-110718250D01*
X111769000Y-110718250D01*
X111769000Y-110975786D01*
X111827004Y-111115820D01*
X111934181Y-111222996D01*
X112074215Y-111281000D01*
X112731750Y-111281000D01*
X112827000Y-111185750D01*
X112827000Y-110623000D01*
X113173000Y-110623000D01*
X113173000Y-111185750D01*
X113268250Y-111281000D01*
X113925785Y-111281000D01*
X114065819Y-111222996D01*
X114172996Y-111115820D01*
X114231000Y-110975786D01*
X114231000Y-110718250D01*
X114135750Y-110623000D01*
X113173000Y-110623000D01*
X112827000Y-110623000D01*
X111864250Y-110623000D01*
X111769000Y-110718250D01*
X110329000Y-110718250D01*
X110329000Y-110127000D01*
X111769000Y-110127000D01*
X111769000Y-110181750D01*
X111769000Y-110181750D01*
G37*
X111769000Y-110181750D02*
X111864250Y-110277000D01*
X112827000Y-110277000D01*
X112827000Y-110257000D01*
X113173000Y-110257000D01*
X113173000Y-110277000D01*
X114135750Y-110277000D01*
X114231000Y-110181750D01*
X114231000Y-110127000D01*
X115373000Y-110127000D01*
X115373000Y-112000000D01*
X115383006Y-112049410D01*
X115411447Y-112091035D01*
X115453841Y-112118315D01*
X115500000Y-112127000D01*
X118247394Y-112127000D01*
X119173000Y-113052606D01*
X119173000Y-114873000D01*
X110329000Y-114873000D01*
X110329000Y-110718250D01*
X111769000Y-110718250D01*
X111769000Y-110975786D01*
X111827004Y-111115820D01*
X111934181Y-111222996D01*
X112074215Y-111281000D01*
X112731750Y-111281000D01*
X112827000Y-111185750D01*
X112827000Y-110623000D01*
X113173000Y-110623000D01*
X113173000Y-111185750D01*
X113268250Y-111281000D01*
X113925785Y-111281000D01*
X114065819Y-111222996D01*
X114172996Y-111115820D01*
X114231000Y-110975786D01*
X114231000Y-110718250D01*
X114135750Y-110623000D01*
X113173000Y-110623000D01*
X112827000Y-110623000D01*
X111864250Y-110623000D01*
X111769000Y-110718250D01*
X110329000Y-110718250D01*
X110329000Y-110127000D01*
X111769000Y-110127000D01*
X111769000Y-110181750D01*
G36*
X142671000Y-111126600D02*
X142671000Y-125671000D01*
X126127000Y-125671000D01*
X126127000Y-117242482D01*
X128027125Y-117242482D01*
X128048201Y-117359210D01*
X128167124Y-117661343D01*
X128206167Y-117722077D01*
X128231266Y-117761120D01*
X128456758Y-117994744D01*
X128491321Y-118018734D01*
X128554200Y-118062379D01*
X128851931Y-118191928D01*
X128967839Y-118217125D01*
X129292482Y-118222875D01*
X129292484Y-118222875D01*
X129328189Y-118216428D01*
X129409210Y-118201799D01*
X129711343Y-118082876D01*
X129748338Y-118059093D01*
X129787578Y-118039229D01*
X134144848Y-114622733D01*
X134150538Y-114620935D01*
X134241351Y-114544629D01*
X134397899Y-114349298D01*
X134422279Y-114302386D01*
X134448667Y-114256553D01*
X134551156Y-113953439D01*
X134566498Y-113835820D01*
X134566498Y-113835819D01*
X134545188Y-113516558D01*
X134514351Y-113402021D01*
X134514350Y-113402019D01*
X134372488Y-113115218D01*
X134300167Y-113021201D01*
X134059350Y-112810520D01*
X134059348Y-112810517D01*
X133956553Y-112751333D01*
X133653439Y-112648844D01*
X133535820Y-112633502D01*
X133216558Y-112654812D01*
X133102021Y-112685649D01*
X133102019Y-112685650D01*
X132815218Y-112827512D01*
X132791017Y-112846128D01*
X132763702Y-112859773D01*
X128456322Y-116200178D01*
X128441257Y-116217536D01*
X128422465Y-116230768D01*
X128246221Y-116415855D01*
X128217858Y-116460639D01*
X128187621Y-116504200D01*
X128058072Y-116801931D01*
X128032875Y-116917839D01*
X128027125Y-117242482D01*
X126127000Y-117242482D01*
X126127000Y-115046430D01*
X131044481Y-111112445D01*
X142671000Y-111126600D01*
X142671000Y-111126600D01*
G37*
X142671000Y-111126600D02*
X142671000Y-125671000D01*
X126127000Y-125671000D01*
X126127000Y-117242482D01*
X128027125Y-117242482D01*
X128048201Y-117359210D01*
X128167124Y-117661343D01*
X128206167Y-117722077D01*
X128231266Y-117761120D01*
X128456758Y-117994744D01*
X128491321Y-118018734D01*
X128554200Y-118062379D01*
X128851931Y-118191928D01*
X128967839Y-118217125D01*
X129292482Y-118222875D01*
X129292484Y-118222875D01*
X129328189Y-118216428D01*
X129409210Y-118201799D01*
X129711343Y-118082876D01*
X129748338Y-118059093D01*
X129787578Y-118039229D01*
X134144848Y-114622733D01*
X134150538Y-114620935D01*
X134241351Y-114544629D01*
X134397899Y-114349298D01*
X134422279Y-114302386D01*
X134448667Y-114256553D01*
X134551156Y-113953439D01*
X134566498Y-113835820D01*
X134566498Y-113835819D01*
X134545188Y-113516558D01*
X134514351Y-113402021D01*
X134514350Y-113402019D01*
X134372488Y-113115218D01*
X134300167Y-113021201D01*
X134059350Y-112810520D01*
X134059348Y-112810517D01*
X133956553Y-112751333D01*
X133653439Y-112648844D01*
X133535820Y-112633502D01*
X133216558Y-112654812D01*
X133102021Y-112685649D01*
X133102019Y-112685650D01*
X132815218Y-112827512D01*
X132791017Y-112846128D01*
X132763702Y-112859773D01*
X128456322Y-116200178D01*
X128441257Y-116217536D01*
X128422465Y-116230768D01*
X128246221Y-116415855D01*
X128217858Y-116460639D01*
X128187621Y-116504200D01*
X128058072Y-116801931D01*
X128032875Y-116917839D01*
X128027125Y-117242482D01*
X126127000Y-117242482D01*
X126127000Y-115046430D01*
X131044481Y-111112445D01*
X142671000Y-111126600D01*
G36*
X133704523Y-113307930D02*
X133854322Y-113438983D01*
X133942565Y-113617385D01*
X133955821Y-113815978D01*
X133889896Y-114010951D01*
X133805619Y-114116106D01*
X129447354Y-117533382D01*
X129242790Y-117613900D01*
X129039068Y-117610292D01*
X128852232Y-117528996D01*
X128710728Y-117382389D01*
X128636100Y-117192790D01*
X128639708Y-116989068D01*
X128723653Y-116796144D01*
X128846997Y-116666611D01*
X133112161Y-113358945D01*
X133317385Y-113257435D01*
X133515978Y-113244179D01*
X133704523Y-113307930D01*
X133704523Y-113307930D01*
G37*
X133704523Y-113307930D02*
X133854322Y-113438983D01*
X133942565Y-113617385D01*
X133955821Y-113815978D01*
X133889896Y-114010951D01*
X133805619Y-114116106D01*
X129447354Y-117533382D01*
X129242790Y-117613900D01*
X129039068Y-117610292D01*
X128852232Y-117528996D01*
X128710728Y-117382389D01*
X128636100Y-117192790D01*
X128639708Y-116989068D01*
X128723653Y-116796144D01*
X128846997Y-116666611D01*
X133112161Y-113358945D01*
X133317385Y-113257435D01*
X133515978Y-113244179D01*
X133704523Y-113307930D01*
M02*
