M48
;DRILL file {KiCad 4.0.7} date 10/05/18 10:33:05
;FORMAT={-:-/ absolute / metric / decimal}
FMAT,2
METRIC,TZ
T1C0.800
T2C1.200
T3C1.400
T4C1.500
T5C1.600
%
G90
G05
M71
T1
X115.6Y-119.8
X123.Y-97.
X123.Y-100.
X123.Y-103.
X127.Y-97.
X127.Y-123.
X129.Y-120.
X131.Y-97.
X131.Y-123.
X133.5Y-106.5
X135.Y-117.
X135.Y-123.
X137.Y-114.
X139.Y-117.
X139.Y-123.
X139.3Y-101.3
X141.Y-114.
X141.Y-120.
T2
X111.49Y-98.
X115.3Y-98.
T3
X117.5Y-113.5
X127.42Y-100.
X132.42Y-120.
T4
X112.42Y-113.5
X132.5Y-100.
X137.5Y-120.
T5
X120.75Y-108.809G85X121.15Y-113.391
G05
X125.688Y-103.75G85X131.022Y-104.595
G05
X129.19Y-117.099G85X133.445Y-113.774
G05
T0
M30
