G04 #@! TF.FileFunction,Profile,NP*
%FSLAX46Y46*%
G04 Gerber Fmt 4.6, Leading zero omitted, Abs format (unit mm)*
G04 Created by KiCad (PCBNEW 4.0.7) date 07/04/18 12:00:08*
%MOMM*%
%LPD*%
G01*
G04 APERTURE LIST*
%ADD10C,0.100000*%
%ADD11C,0.150000*%
G04 APERTURE END LIST*
D10*
D11*
X141000000Y-124000000D02*
X141000000Y-118250000D01*
X142000000Y-124000000D02*
X141000000Y-124000000D01*
X142000000Y-118250000D02*
X142000000Y-124000000D01*
X141000000Y-118250000D02*
X142000000Y-118250000D01*
X141000000Y-105000000D02*
X141000000Y-94000000D01*
X142000000Y-105000000D02*
X141000000Y-105000000D01*
X142000000Y-94000000D02*
X142000000Y-105000000D01*
X141000000Y-94000000D02*
X142000000Y-94000000D01*
X141000000Y-92000000D02*
X141000000Y-81000000D01*
X142000000Y-92000000D02*
X141000000Y-92000000D01*
X142000000Y-81000000D02*
X142000000Y-92000000D01*
X141000000Y-81000000D02*
X142000000Y-81000000D01*
X141000000Y-79000000D02*
X141000000Y-69000000D01*
X142000000Y-79000000D02*
X141000000Y-79000000D01*
X142000000Y-69000000D02*
X142000000Y-79000000D01*
X141000000Y-69000000D02*
X142000000Y-69000000D01*
X142000000Y-61000000D02*
X141000000Y-61000000D01*
X142000000Y-66000000D02*
X142000000Y-61000000D01*
X141000000Y-66000000D02*
X142000000Y-66000000D01*
X141000000Y-61000000D02*
X141000000Y-66000000D01*
X116000000Y-126000000D02*
X116000000Y-59000000D01*
X167000000Y-126000000D02*
X116000000Y-126000000D01*
X167000000Y-59000000D02*
X167000000Y-126000000D01*
X116000000Y-59000000D02*
X167000000Y-59000000D01*
M02*
