M48
;DRILL file {KiCad 4.0.7} date 07/04/18 11:55:27
;FORMAT={-:-/ absolute / metric / decimal}
FMAT,2
METRIC,TZ
T1C0.600
T2C1.001
T3C1.400
T4C1.500
%
G90
G05
M71
T1
X123.75Y-66.25
X123.75Y-68.25
X123.75Y-72.5
X123.75Y-74.5
X123.75Y-79.
X123.75Y-81.
X123.75Y-104.5
X123.75Y-106.5
X123.75Y-111.
X123.75Y-113.
X123.75Y-117.5
X123.75Y-119.25
X125.75Y-67.25
X125.75Y-73.75
X125.75Y-80.
X125.75Y-105.75
X125.75Y-112.
X125.75Y-118.5
X128.75Y-89.5
X134.75Y-74.75
X135.Y-82.75
X147.75Y-82.75
X148.Y-74.75
X154.Y-89.5
X157.25Y-67.25
X157.25Y-73.5
X157.25Y-80.
X157.25Y-105.75
X157.25Y-112.
X157.25Y-118.5
X159.25Y-66.25
X159.25Y-68.25
X159.25Y-72.5
X159.25Y-74.5
X159.25Y-78.75
X159.25Y-81.
X159.25Y-104.5
X159.25Y-106.75
X159.25Y-111.
X159.25Y-113.
X159.25Y-117.25
X159.25Y-119.5
T2
X131.Y-62.
X131.Y-122.5
X135.Y-64.
X135.Y-120.
X139.Y-62.
X139.Y-122.5
X144.Y-62.
X144.Y-122.5
X148.Y-64.
X148.Y-120.
X152.Y-62.
X152.Y-122.5
T3
X119.72Y-64.
X119.72Y-70.4
X119.72Y-76.8
X119.72Y-83.2
X119.72Y-89.6
X119.72Y-96.
X119.72Y-102.4
X119.72Y-108.8
X119.72Y-115.2
X119.72Y-121.6
X137.6Y-76.8
X137.6Y-88.28
X137.6Y-102.08
X145.2Y-76.8
X145.2Y-88.28
X145.2Y-102.08
X158.Y-64.
X158.Y-70.4
X158.Y-76.8
X158.Y-83.2
X158.Y-89.6
X158.Y-96.
X158.Y-102.4
X158.Y-108.8
X158.Y-115.2
X158.Y-121.6
T4
X124.8Y-64.
X124.8Y-70.4
X124.8Y-76.8
X124.8Y-83.2
X124.8Y-89.6
X124.8Y-96.
X124.8Y-102.4
X124.8Y-108.8
X124.8Y-115.2
X124.8Y-121.6
X137.6Y-71.72
X137.6Y-83.2
X137.6Y-97.
X145.2Y-71.72
X145.2Y-83.2
X145.2Y-97.
X163.08Y-64.
X163.08Y-70.4
X163.08Y-76.8
X163.08Y-83.2
X163.08Y-89.6
X163.08Y-96.
X163.08Y-102.4
X163.08Y-108.8
X163.08Y-115.2
X163.08Y-121.6
T0
M30
