G04 #@! TF.FileFunction,Legend,Top*
%FSLAX46Y46*%
G04 Gerber Fmt 4.6, Leading zero omitted, Abs format (unit mm)*
G04 Created by KiCad (PCBNEW 4.0.7) date 10/05/18 13:25:49*
%MOMM*%
%LPD*%
G01*
G04 APERTURE LIST*
%ADD10C,0.100000*%
%ADD11C,0.150000*%
%ADD12C,0.120000*%
%ADD13C,0.250000*%
%ADD14C,0.300000*%
G04 APERTURE END LIST*
D10*
D11*
X135500000Y-110000000D02*
X133500000Y-110000000D01*
X135500000Y-109000000D02*
X135500000Y-110000000D01*
X133500000Y-109000000D02*
X135500000Y-109000000D01*
X123500000Y-119000000D02*
X124500000Y-119000000D01*
X133500000Y-109000000D02*
G75*
G03X123500000Y-119000000I0J-10000000D01*
G01*
X133500000Y-110000000D02*
G75*
G03X124500000Y-119000000I0J-9000000D01*
G01*
X139300000Y-105300000D02*
X143000000Y-105300000D01*
X135300000Y-101300000D02*
X135300000Y-95000000D01*
X115700000Y-115700000D02*
X110000000Y-115700000D01*
X119700000Y-119700000D02*
X119700000Y-126000000D01*
X119700000Y-119700000D02*
G75*
G03X115700000Y-115700000I-4000000J0D01*
G01*
X135300000Y-101300000D02*
G75*
G03X139300000Y-105300000I4000000J0D01*
G01*
X143000000Y-126000000D02*
X119700000Y-126000000D01*
X143000000Y-105300000D02*
X143000000Y-126000000D01*
X110000000Y-95000000D02*
X135300000Y-95000000D01*
X110000000Y-115700000D02*
X110000000Y-95000000D01*
D12*
X114070000Y-108000000D02*
X114070000Y-110000000D01*
X111930000Y-110000000D02*
X111930000Y-108000000D01*
X115500000Y-101600000D02*
X115500000Y-107300000D01*
X115500000Y-107300000D02*
X118500000Y-107300000D01*
X118500000Y-107300000D02*
X118500000Y-101600000D01*
X111930000Y-105000000D02*
X111930000Y-103000000D01*
X114070000Y-103000000D02*
X114070000Y-105000000D01*
D11*
X131860000Y-121950000D02*
X131860000Y-119450000D01*
X141110000Y-121950000D02*
X131860000Y-121950000D01*
X141110000Y-119450000D02*
X141110000Y-121950000D01*
X131860000Y-119450000D02*
X141110000Y-119450000D01*
X119460000Y-112250000D02*
X119460000Y-114750000D01*
X110210000Y-112250000D02*
X119460000Y-112250000D01*
X110210000Y-114750000D02*
X110210000Y-112250000D01*
X119460000Y-114750000D02*
X110210000Y-114750000D01*
X123360000Y-98850000D02*
X123360000Y-96350000D01*
X132610000Y-98850000D02*
X123360000Y-98850000D01*
X132610000Y-96350000D02*
X132610000Y-98850000D01*
X123360000Y-96350000D02*
X132610000Y-96350000D01*
X110460000Y-98850000D02*
X110460000Y-96350000D01*
X119710000Y-98850000D02*
X110460000Y-98850000D01*
X119710000Y-96350000D02*
X119710000Y-98850000D01*
X110460000Y-96350000D02*
X119710000Y-96350000D01*
X111602381Y-109166666D02*
X111126190Y-109500000D01*
X111602381Y-109738095D02*
X110602381Y-109738095D01*
X110602381Y-109357142D01*
X110650000Y-109261904D01*
X110697619Y-109214285D01*
X110792857Y-109166666D01*
X110935714Y-109166666D01*
X111030952Y-109214285D01*
X111078571Y-109261904D01*
X111126190Y-109357142D01*
X111126190Y-109738095D01*
X111602381Y-108214285D02*
X111602381Y-108785714D01*
X111602381Y-108500000D02*
X110602381Y-108500000D01*
X110745238Y-108595238D01*
X110840476Y-108690476D01*
X110888095Y-108785714D01*
X119752381Y-104738095D02*
X118752381Y-104738095D01*
X118752381Y-104500000D01*
X118800000Y-104357142D01*
X118895238Y-104261904D01*
X118990476Y-104214285D01*
X119180952Y-104166666D01*
X119323810Y-104166666D01*
X119514286Y-104214285D01*
X119609524Y-104261904D01*
X119704762Y-104357142D01*
X119752381Y-104500000D01*
X119752381Y-104738095D01*
X118847619Y-103785714D02*
X118800000Y-103738095D01*
X118752381Y-103642857D01*
X118752381Y-103404761D01*
X118800000Y-103309523D01*
X118847619Y-103261904D01*
X118942857Y-103214285D01*
X119038095Y-103214285D01*
X119180952Y-103261904D01*
X119752381Y-103833333D01*
X119752381Y-103214285D01*
X111652381Y-104066666D02*
X111176190Y-104400000D01*
X111652381Y-104638095D02*
X110652381Y-104638095D01*
X110652381Y-104257142D01*
X110700000Y-104161904D01*
X110747619Y-104114285D01*
X110842857Y-104066666D01*
X110985714Y-104066666D01*
X111080952Y-104114285D01*
X111128571Y-104161904D01*
X111176190Y-104257142D01*
X111176190Y-104638095D01*
X110747619Y-103685714D02*
X110700000Y-103638095D01*
X110652381Y-103542857D01*
X110652381Y-103304761D01*
X110700000Y-103209523D01*
X110747619Y-103161904D01*
X110842857Y-103114285D01*
X110938095Y-103114285D01*
X111080952Y-103161904D01*
X111652381Y-103733333D01*
X111652381Y-103114285D01*
D13*
X133690476Y-118052381D02*
X134357143Y-119052381D01*
X134357143Y-118052381D02*
X133690476Y-119052381D01*
X135261905Y-119052381D02*
X134690476Y-119052381D01*
X134976190Y-119052381D02*
X134976190Y-118052381D01*
X134880952Y-118195238D01*
X134785714Y-118290476D01*
X134690476Y-118338095D01*
X115290476Y-110752381D02*
X115957143Y-111752381D01*
X115957143Y-110752381D02*
X115290476Y-111752381D01*
X116290476Y-110847619D02*
X116338095Y-110800000D01*
X116433333Y-110752381D01*
X116671429Y-110752381D01*
X116766667Y-110800000D01*
X116814286Y-110847619D01*
X116861905Y-110942857D01*
X116861905Y-111038095D01*
X116814286Y-111180952D01*
X116242857Y-111752381D01*
X116861905Y-111752381D01*
X130490476Y-99252381D02*
X131157143Y-100252381D01*
X131157143Y-99252381D02*
X130490476Y-100252381D01*
X131442857Y-99252381D02*
X132061905Y-99252381D01*
X131728571Y-99633333D01*
X131871429Y-99633333D01*
X131966667Y-99680952D01*
X132014286Y-99728571D01*
X132061905Y-99823810D01*
X132061905Y-100061905D01*
X132014286Y-100157143D01*
X131966667Y-100204762D01*
X131871429Y-100252381D01*
X131585714Y-100252381D01*
X131490476Y-100204762D01*
X131442857Y-100157143D01*
D14*
X126145330Y-111016346D02*
X125221838Y-109834330D01*
X125503271Y-109614451D01*
X125716106Y-109538810D01*
X125916631Y-109563431D01*
X126060868Y-109632028D01*
X126293059Y-109813199D01*
X126424986Y-109982058D01*
X126544603Y-110251180D01*
X126576268Y-110407729D01*
X126551646Y-110608254D01*
X126426763Y-110796467D01*
X126145330Y-111016346D01*
X127946497Y-109609120D02*
X127271060Y-110136830D01*
X127608779Y-109872975D02*
X126685287Y-108690958D01*
X126704641Y-108947770D01*
X126680019Y-109148295D01*
X126611423Y-109292533D01*
D13*
X111890476Y-99352381D02*
X112557143Y-100352381D01*
X112557143Y-99352381D02*
X111890476Y-100352381D01*
X113366667Y-99685714D02*
X113366667Y-100352381D01*
X113128571Y-99304762D02*
X112890476Y-100019048D01*
X113509524Y-100019048D01*
M02*
