G04 #@! TF.GenerationSoftware,KiCad,Pcbnew,(5.0.0)*
G04 #@! TF.CreationDate,2018-10-11T14:10:44+03:00*
G04 #@! TF.ProjectId,dviguba_plokste,647669677562615F706C6F6B7374652E,rev?*
G04 #@! TF.SameCoordinates,Original*
G04 #@! TF.FileFunction,Copper,L2,Bot,Signal*
G04 #@! TF.FilePolarity,Positive*
%FSLAX46Y46*%
G04 Gerber Fmt 4.6, Leading zero omitted, Abs format (unit mm)*
G04 Created by KiCad (PCBNEW (5.0.0)) date 10/11/18 14:10:44*
%MOMM*%
%LPD*%
G01*
G04 APERTURE LIST*
G04 #@! TA.AperFunction,ComponentPad*
%ADD10C,2.800000*%
G04 #@! TD*
G04 #@! TA.AperFunction,Conductor*
%ADD11C,2.800000*%
G04 #@! TD*
G04 #@! TA.AperFunction,ComponentPad*
%ADD12C,1.998980*%
G04 #@! TD*
G04 #@! TA.AperFunction,ComponentPad*
%ADD13O,1.800000X3.600000*%
G04 #@! TD*
G04 #@! TA.AperFunction,ComponentPad*
%ADD14O,3.600000X1.800000*%
G04 #@! TD*
G04 #@! TA.AperFunction,Conductor*
%ADD15C,0.254000*%
G04 #@! TD*
G04 APERTURE END LIST*
D10*
G04 #@! TO.P,V2,3*
G04 #@! TO.N,Net-(D2-Pad2)*
X129684811Y-72654296D03*
D11*
G04 #@! TD*
G04 #@! TO.N,Net-(D2-Pad2)*
G04 #@! TO.C,V2*
X132639234Y-72133351D02*
X126730388Y-73175241D01*
D10*
G04 #@! TO.P,V2,1*
G04 #@! TO.N,Net-(D1-Pad2)*
X123216375Y-62968774D03*
D11*
G04 #@! TD*
G04 #@! TO.N,Net-(D1-Pad2)*
G04 #@! TO.C,V2*
X124850292Y-60452762D02*
X121582458Y-65484786D01*
D10*
G04 #@! TO.P,V2,2*
G04 #@! TO.N,Net-(D2-Pad1)*
X134430862Y-63693548D03*
D11*
G04 #@! TD*
G04 #@! TO.N,Net-(D2-Pad1)*
G04 #@! TO.C,V2*
X135447704Y-65977412D02*
X133414020Y-61409684D01*
D12*
G04 #@! TO.P,REF\002A\002A,1*
G04 #@! TO.N,Net-(D4-Pad2)*
X106000000Y-123000000D03*
G04 #@! TD*
G04 #@! TO.P,REF\002A\002A,1*
G04 #@! TO.N,Net-(D2-Pad2)*
X106000000Y-80000000D03*
G04 #@! TD*
G04 #@! TO.P,REF\002A\002A,1*
G04 #@! TO.N,Net-(D2-Pad2)*
X104000000Y-72000000D03*
G04 #@! TD*
G04 #@! TO.P,REF\002A\002A,1*
G04 #@! TO.N,Net-(D2-Pad2)*
X102000000Y-69000000D03*
G04 #@! TD*
G04 #@! TO.P,REF\002A\002A,1*
G04 #@! TO.N,Net-(D2-Pad2)*
X100000000Y-73000000D03*
G04 #@! TD*
G04 #@! TO.P,REF\002A\002A,1*
G04 #@! TO.N,Net-(D4-Pad2)*
X104000000Y-115000000D03*
G04 #@! TD*
G04 #@! TO.P,REF\002A\002A,1*
G04 #@! TO.N,Net-(D4-Pad2)*
X102000000Y-112000000D03*
G04 #@! TD*
G04 #@! TO.P,REF\002A\002A,1*
G04 #@! TO.N,Net-(D4-Pad2)*
X100000000Y-116000000D03*
G04 #@! TD*
G04 #@! TO.P,REF\002A\002A,1*
G04 #@! TO.N,Net-(D1-Pad2)*
X117000000Y-60000000D03*
G04 #@! TD*
G04 #@! TO.P,REF\002A\002A,1*
G04 #@! TO.N,Net-(D1-Pad2)*
X121000000Y-60000000D03*
G04 #@! TD*
G04 #@! TO.P,REF\002A\002A,1*
G04 #@! TO.N,Net-(D1-Pad2)*
X118000000Y-64000000D03*
G04 #@! TD*
G04 #@! TO.P,REF\002A\002A,1*
G04 #@! TO.N,Net-(D3-Pad2)*
X121000000Y-103000000D03*
G04 #@! TD*
G04 #@! TO.P,REF\002A\002A,1*
G04 #@! TO.N,Net-(D3-Pad2)*
X118000000Y-107000000D03*
G04 #@! TD*
G04 #@! TO.P,REF\002A\002A,1*
G04 #@! TO.N,Net-(D3-Pad2)*
X117000000Y-103000000D03*
G04 #@! TD*
G04 #@! TO.P,REF\002A\002A,1*
G04 #@! TO.N,Net-(D4-Pad2)*
X106000000Y-111000000D03*
G04 #@! TD*
G04 #@! TO.P,REF\002A\002A,1*
G04 #@! TO.N,Net-(D4-Pad2)*
X117000000Y-116000000D03*
G04 #@! TD*
G04 #@! TO.P,REF\002A\002A,1*
G04 #@! TO.N,Net-(D4-Pad2)*
X126000000Y-127000000D03*
G04 #@! TD*
G04 #@! TO.P,REF\002A\002A,1*
G04 #@! TO.N,Net-(D4-Pad2)*
X112000000Y-124000000D03*
G04 #@! TD*
G04 #@! TO.P,REF\002A\002A,1*
G04 #@! TO.N,Net-(D4-Pad2)*
X115000000Y-127000000D03*
G04 #@! TD*
G04 #@! TO.P,REF\002A\002A,1*
G04 #@! TO.N,Net-(D4-Pad2)*
X108000000Y-127000000D03*
G04 #@! TD*
G04 #@! TO.P,REF\002A\002A,1*
G04 #@! TO.N,Net-(D2-Pad2)*
X126000000Y-84000000D03*
G04 #@! TD*
G04 #@! TO.P,REF\002A\002A,1*
G04 #@! TO.N,Net-(D2-Pad2)*
X117000000Y-73000000D03*
G04 #@! TD*
G04 #@! TO.P,REF\002A\002A,1*
G04 #@! TO.N,Net-(D2-Pad2)*
X112000000Y-81000000D03*
G04 #@! TD*
G04 #@! TO.P,REF\002A\002A,1*
G04 #@! TO.N,Net-(D2-Pad2)*
X115000000Y-84000000D03*
G04 #@! TD*
G04 #@! TO.P,REF\002A\002A,1*
G04 #@! TO.N,Net-(D2-Pad2)*
X108000000Y-84000000D03*
G04 #@! TD*
G04 #@! TO.P,REF\002A\002A,1*
G04 #@! TO.N,Net-(D2-Pad2)*
X106000000Y-68000000D03*
G04 #@! TD*
G04 #@! TO.P,REF\002A\002A,1*
G04 #@! TO.N,Net-(D3-Pad2)*
X98000000Y-103000000D03*
G04 #@! TD*
G04 #@! TO.P,REF\002A\002A,1*
G04 #@! TO.N,Net-(D3-Pad2)*
X110000000Y-99000000D03*
G04 #@! TD*
G04 #@! TO.P,REF\002A\002A,1*
G04 #@! TO.N,Net-(D3-Pad2)*
X106000000Y-99000000D03*
G04 #@! TD*
G04 #@! TO.P,REF\002A\002A,1*
G04 #@! TO.N,Net-(D3-Pad2)*
X108000000Y-96000000D03*
G04 #@! TD*
G04 #@! TO.P,REF\002A\002A,1*
G04 #@! TO.N,Net-(D3-Pad2)*
X110000000Y-92000000D03*
G04 #@! TD*
G04 #@! TO.P,REF\002A\002A,1*
G04 #@! TO.N,Net-(D3-Pad2)*
X105000000Y-92000000D03*
G04 #@! TD*
G04 #@! TO.P,REF\002A\002A,1*
G04 #@! TO.N,Net-(D3-Pad2)*
X96000000Y-92000000D03*
G04 #@! TD*
G04 #@! TO.P,REF\002A\002A,1*
G04 #@! TO.N,Net-(D1-Pad2)*
X98000000Y-60000000D03*
G04 #@! TD*
G04 #@! TO.P,REF\002A\002A,1*
G04 #@! TO.N,Net-(D1-Pad2)*
X96000000Y-49000000D03*
G04 #@! TD*
G04 #@! TO.P,REF\002A\002A,1*
G04 #@! TO.N,Net-(D1-Pad2)*
X110000000Y-56000000D03*
G04 #@! TD*
G04 #@! TO.P,REF\002A\002A,1*
G04 #@! TO.N,Net-(D1-Pad2)*
X106000000Y-56000000D03*
G04 #@! TD*
G04 #@! TO.P,REF\002A\002A,1*
G04 #@! TO.N,Net-(D1-Pad2)*
X108000000Y-53000000D03*
G04 #@! TD*
G04 #@! TO.P,REF\002A\002A,1*
G04 #@! TO.N,Net-(D1-Pad2)*
X110000000Y-49000000D03*
G04 #@! TD*
G04 #@! TO.P,REF\002A\002A,1*
G04 #@! TO.N,Net-(D1-Pad2)*
X105000000Y-49000000D03*
G04 #@! TD*
D10*
G04 #@! TO.P,X1,1*
G04 #@! TO.N,Net-(D4-Pad2)*
X93000000Y-120000000D03*
X98000000Y-120000000D03*
X103000000Y-120000000D03*
X93000000Y-127100000D03*
X98000000Y-127100000D03*
X103000000Y-127100000D03*
G04 #@! TD*
G04 #@! TO.P,X2,1*
G04 #@! TO.N,Net-(D3-Pad2)*
X114000000Y-91900000D03*
X119000000Y-91900000D03*
X124000000Y-91900000D03*
X114000000Y-99000000D03*
X119000000Y-99000000D03*
X124000000Y-99000000D03*
G04 #@! TD*
G04 #@! TO.P,X4,1*
G04 #@! TO.N,Net-(D2-Pad2)*
X93100000Y-76700000D03*
X98100000Y-76700000D03*
X103100000Y-76700000D03*
X93100000Y-83800000D03*
X98100000Y-83800000D03*
X103100000Y-83800000D03*
G04 #@! TD*
G04 #@! TO.P,X5,1*
G04 #@! TO.N,Net-(D1-Pad2)*
X114000000Y-48900000D03*
X119000000Y-48900000D03*
X124000000Y-48900000D03*
X114000000Y-56000000D03*
X119000000Y-56000000D03*
X124000000Y-56000000D03*
G04 #@! TD*
G04 #@! TO.P,V1,3*
G04 #@! TO.N,Net-(D1-Pad2)*
X91015189Y-60145704D03*
D11*
G04 #@! TD*
G04 #@! TO.N,Net-(D1-Pad2)*
G04 #@! TO.C,V1*
X88060766Y-60666649D02*
X93969612Y-59624759D01*
D10*
G04 #@! TO.P,V1,1*
G04 #@! TO.N,Net-(D2-Pad2)*
X97483625Y-69831226D03*
D11*
G04 #@! TD*
G04 #@! TO.N,Net-(D2-Pad2)*
G04 #@! TO.C,V1*
X95849708Y-72347238D02*
X99117542Y-67315214D01*
D10*
G04 #@! TO.P,V1,2*
G04 #@! TO.N,Net-(D1-Pad1)*
X86269138Y-69106452D03*
D11*
G04 #@! TD*
G04 #@! TO.N,Net-(D1-Pad1)*
G04 #@! TO.C,V1*
X85252296Y-66822588D02*
X87285980Y-71390316D01*
D10*
G04 #@! TO.P,V3,2*
G04 #@! TO.N,Net-(D3-Pad1)*
X86269138Y-112106452D03*
D11*
G04 #@! TD*
G04 #@! TO.N,Net-(D3-Pad1)*
G04 #@! TO.C,V3*
X85252296Y-109822588D02*
X87285980Y-114390316D01*
D10*
G04 #@! TO.P,V3,1*
G04 #@! TO.N,Net-(D4-Pad2)*
X97483625Y-112831226D03*
D11*
G04 #@! TD*
G04 #@! TO.N,Net-(D4-Pad2)*
G04 #@! TO.C,V3*
X95849708Y-115347238D02*
X99117542Y-110315214D01*
D10*
G04 #@! TO.P,V3,3*
G04 #@! TO.N,Net-(D3-Pad2)*
X91015189Y-103145704D03*
D11*
G04 #@! TD*
G04 #@! TO.N,Net-(D3-Pad2)*
G04 #@! TO.C,V3*
X88060766Y-103666649D02*
X93969612Y-102624759D01*
D10*
G04 #@! TO.P,V4,2*
G04 #@! TO.N,Net-(D4-Pad1)*
X134430862Y-106693548D03*
D11*
G04 #@! TD*
G04 #@! TO.N,Net-(D4-Pad1)*
G04 #@! TO.C,V4*
X135447704Y-108977412D02*
X133414020Y-104409684D01*
D10*
G04 #@! TO.P,V4,1*
G04 #@! TO.N,Net-(D3-Pad2)*
X123216375Y-105968774D03*
D11*
G04 #@! TD*
G04 #@! TO.N,Net-(D3-Pad2)*
G04 #@! TO.C,V4*
X124850292Y-103452762D02*
X121582458Y-108484786D01*
D10*
G04 #@! TO.P,V4,3*
G04 #@! TO.N,Net-(D4-Pad2)*
X129684811Y-115654296D03*
D11*
G04 #@! TD*
G04 #@! TO.N,Net-(D4-Pad2)*
G04 #@! TO.C,V4*
X132639234Y-115133351D02*
X126730388Y-116175241D01*
D13*
G04 #@! TO.P,X7,1*
G04 #@! TO.N,/CTRL3B*
X139000000Y-122940000D03*
X139000000Y-117860000D03*
G04 #@! TD*
D14*
G04 #@! TO.P,X12,1*
G04 #@! TO.N,Net-(D3-Pad2)*
X110000000Y-102800000D03*
X104920000Y-102800000D03*
G04 #@! TD*
D13*
G04 #@! TO.P,X14,1*
G04 #@! TO.N,/CTRL1B*
X139000000Y-74860000D03*
X139000000Y-79940000D03*
G04 #@! TD*
D14*
G04 #@! TO.P,X26,1*
G04 #@! TO.N,Net-(D1-Pad2)*
X104920000Y-59800000D03*
X110000000Y-59800000D03*
G04 #@! TD*
D13*
G04 #@! TO.P,X17,1*
G04 #@! TO.N,/CTRL1A*
X82000000Y-52800000D03*
X82000000Y-57880000D03*
G04 #@! TD*
G04 #@! TO.P,X9,1*
G04 #@! TO.N,/CTRL3A*
X82000000Y-95920000D03*
X82000000Y-101000000D03*
G04 #@! TD*
D15*
G04 #@! TO.N,Net-(D1-Pad2)*
G36*
X126873000Y-67765000D02*
X119916380Y-67765000D01*
X114081303Y-62902436D01*
X114037778Y-62878749D01*
X114000000Y-62873000D01*
X113884592Y-62873000D01*
X113786783Y-62807646D01*
X113572388Y-62765000D01*
X113500000Y-62750601D01*
X113427612Y-62765000D01*
X97072388Y-62765000D01*
X97000000Y-62750601D01*
X96927612Y-62765000D01*
X96713217Y-62807646D01*
X96615408Y-62873000D01*
X87052606Y-62873000D01*
X86127000Y-61947394D01*
X86127000Y-54047718D01*
X86714759Y-53375993D01*
X95627694Y-53375993D01*
X95631048Y-54337033D01*
X95827578Y-55277769D01*
X96209256Y-56159773D01*
X96760489Y-56947015D01*
X97458760Y-57607337D01*
X98275545Y-58113766D01*
X99177480Y-58445613D01*
X100127719Y-58589323D01*
X101087448Y-58539026D01*
X102017460Y-58296776D01*
X102879766Y-57872469D01*
X103639141Y-57283437D01*
X104264564Y-56553743D01*
X104730489Y-55713194D01*
X105017880Y-54796126D01*
X105115000Y-53840000D01*
X105114884Y-53806804D01*
X105011092Y-52851380D01*
X104717305Y-51936340D01*
X104245524Y-51099064D01*
X103615021Y-50373754D01*
X102851553Y-49790038D01*
X101986306Y-49371762D01*
X101054625Y-49136010D01*
X100094569Y-49092414D01*
X99145355Y-49242755D01*
X98245760Y-49580891D01*
X97432530Y-50093009D01*
X96738885Y-50758190D01*
X96193162Y-51549261D01*
X95817651Y-52433908D01*
X95627694Y-53375993D01*
X86714759Y-53375993D01*
X92525628Y-46735000D01*
X126873000Y-46735000D01*
X126873000Y-67765000D01*
X126873000Y-67765000D01*
G37*
X126873000Y-67765000D02*
X119916380Y-67765000D01*
X114081303Y-62902436D01*
X114037778Y-62878749D01*
X114000000Y-62873000D01*
X113884592Y-62873000D01*
X113786783Y-62807646D01*
X113572388Y-62765000D01*
X113500000Y-62750601D01*
X113427612Y-62765000D01*
X97072388Y-62765000D01*
X97000000Y-62750601D01*
X96927612Y-62765000D01*
X96713217Y-62807646D01*
X96615408Y-62873000D01*
X87052606Y-62873000D01*
X86127000Y-61947394D01*
X86127000Y-54047718D01*
X86714759Y-53375993D01*
X95627694Y-53375993D01*
X95631048Y-54337033D01*
X95827578Y-55277769D01*
X96209256Y-56159773D01*
X96760489Y-56947015D01*
X97458760Y-57607337D01*
X98275545Y-58113766D01*
X99177480Y-58445613D01*
X100127719Y-58589323D01*
X101087448Y-58539026D01*
X102017460Y-58296776D01*
X102879766Y-57872469D01*
X103639141Y-57283437D01*
X104264564Y-56553743D01*
X104730489Y-55713194D01*
X105017880Y-54796126D01*
X105115000Y-53840000D01*
X105114884Y-53806804D01*
X105011092Y-52851380D01*
X104717305Y-51936340D01*
X104245524Y-51099064D01*
X103615021Y-50373754D01*
X102851553Y-49790038D01*
X101986306Y-49371762D01*
X101054625Y-49136010D01*
X100094569Y-49092414D01*
X99145355Y-49242755D01*
X98245760Y-49580891D01*
X97432530Y-50093009D01*
X96738885Y-50758190D01*
X96193162Y-51549261D01*
X95817651Y-52433908D01*
X95627694Y-53375993D01*
X86714759Y-53375993D01*
X92525628Y-46735000D01*
X126873000Y-46735000D01*
X126873000Y-67765000D01*
G04 #@! TO.N,Net-(D2-Pad2)*
G36*
X115918697Y-70097564D02*
X115962222Y-70121251D01*
X116000000Y-70127000D01*
X116115408Y-70127000D01*
X116213217Y-70192354D01*
X116500000Y-70249399D01*
X116572388Y-70235000D01*
X128427612Y-70235000D01*
X128500000Y-70249399D01*
X128572388Y-70235000D01*
X128786783Y-70192354D01*
X128884592Y-70127000D01*
X133947394Y-70127000D01*
X134873000Y-71052606D01*
X134873000Y-78947394D01*
X127555394Y-86265000D01*
X90127000Y-86265000D01*
X90127000Y-76041298D01*
X91527221Y-74115993D01*
X105597694Y-74115993D01*
X105601048Y-75077033D01*
X105797578Y-76017769D01*
X106179256Y-76899773D01*
X106730489Y-77687015D01*
X107428760Y-78347337D01*
X108245545Y-78853766D01*
X109147480Y-79185613D01*
X110097719Y-79329323D01*
X111057448Y-79279026D01*
X111987460Y-79036776D01*
X112849766Y-78612469D01*
X112948358Y-78535993D01*
X115667694Y-78535993D01*
X115671048Y-79497033D01*
X115867578Y-80437769D01*
X116249256Y-81319773D01*
X116800489Y-82107015D01*
X117498760Y-82767337D01*
X118315545Y-83273766D01*
X119217480Y-83605613D01*
X120167719Y-83749323D01*
X121127448Y-83699026D01*
X122057460Y-83456776D01*
X122919766Y-83032469D01*
X123679141Y-82443437D01*
X124304564Y-81713743D01*
X124770489Y-80873194D01*
X125057880Y-79956126D01*
X125155000Y-79000000D01*
X125154884Y-78966804D01*
X125051092Y-78011380D01*
X124757305Y-77096340D01*
X124285524Y-76259064D01*
X123655021Y-75533754D01*
X122891553Y-74950038D01*
X122026306Y-74531762D01*
X121094625Y-74296010D01*
X120134569Y-74252414D01*
X119185355Y-74402755D01*
X118285760Y-74740891D01*
X117472530Y-75253009D01*
X116778885Y-75918190D01*
X116233162Y-76709261D01*
X115857651Y-77593908D01*
X115667694Y-78535993D01*
X112948358Y-78535993D01*
X113609141Y-78023437D01*
X114234564Y-77293743D01*
X114700489Y-76453194D01*
X114987880Y-75536126D01*
X115085000Y-74580000D01*
X115084884Y-74546804D01*
X114981092Y-73591380D01*
X114687305Y-72676340D01*
X114215524Y-71839064D01*
X113585021Y-71113754D01*
X112821553Y-70530038D01*
X111956306Y-70111762D01*
X111024625Y-69876010D01*
X110064569Y-69832414D01*
X109115355Y-69982755D01*
X108215760Y-70320891D01*
X107402530Y-70833009D01*
X106708885Y-71498190D01*
X106163162Y-72289261D01*
X105787651Y-73173908D01*
X105597694Y-74115993D01*
X91527221Y-74115993D01*
X97986126Y-65235000D01*
X110083620Y-65235000D01*
X115918697Y-70097564D01*
X115918697Y-70097564D01*
G37*
X115918697Y-70097564D02*
X115962222Y-70121251D01*
X116000000Y-70127000D01*
X116115408Y-70127000D01*
X116213217Y-70192354D01*
X116500000Y-70249399D01*
X116572388Y-70235000D01*
X128427612Y-70235000D01*
X128500000Y-70249399D01*
X128572388Y-70235000D01*
X128786783Y-70192354D01*
X128884592Y-70127000D01*
X133947394Y-70127000D01*
X134873000Y-71052606D01*
X134873000Y-78947394D01*
X127555394Y-86265000D01*
X90127000Y-86265000D01*
X90127000Y-76041298D01*
X91527221Y-74115993D01*
X105597694Y-74115993D01*
X105601048Y-75077033D01*
X105797578Y-76017769D01*
X106179256Y-76899773D01*
X106730489Y-77687015D01*
X107428760Y-78347337D01*
X108245545Y-78853766D01*
X109147480Y-79185613D01*
X110097719Y-79329323D01*
X111057448Y-79279026D01*
X111987460Y-79036776D01*
X112849766Y-78612469D01*
X112948358Y-78535993D01*
X115667694Y-78535993D01*
X115671048Y-79497033D01*
X115867578Y-80437769D01*
X116249256Y-81319773D01*
X116800489Y-82107015D01*
X117498760Y-82767337D01*
X118315545Y-83273766D01*
X119217480Y-83605613D01*
X120167719Y-83749323D01*
X121127448Y-83699026D01*
X122057460Y-83456776D01*
X122919766Y-83032469D01*
X123679141Y-82443437D01*
X124304564Y-81713743D01*
X124770489Y-80873194D01*
X125057880Y-79956126D01*
X125155000Y-79000000D01*
X125154884Y-78966804D01*
X125051092Y-78011380D01*
X124757305Y-77096340D01*
X124285524Y-76259064D01*
X123655021Y-75533754D01*
X122891553Y-74950038D01*
X122026306Y-74531762D01*
X121094625Y-74296010D01*
X120134569Y-74252414D01*
X119185355Y-74402755D01*
X118285760Y-74740891D01*
X117472530Y-75253009D01*
X116778885Y-75918190D01*
X116233162Y-76709261D01*
X115857651Y-77593908D01*
X115667694Y-78535993D01*
X112948358Y-78535993D01*
X113609141Y-78023437D01*
X114234564Y-77293743D01*
X114700489Y-76453194D01*
X114987880Y-75536126D01*
X115085000Y-74580000D01*
X115084884Y-74546804D01*
X114981092Y-73591380D01*
X114687305Y-72676340D01*
X114215524Y-71839064D01*
X113585021Y-71113754D01*
X112821553Y-70530038D01*
X111956306Y-70111762D01*
X111024625Y-69876010D01*
X110064569Y-69832414D01*
X109115355Y-69982755D01*
X108215760Y-70320891D01*
X107402530Y-70833009D01*
X106708885Y-71498190D01*
X106163162Y-72289261D01*
X105787651Y-73173908D01*
X105597694Y-74115993D01*
X91527221Y-74115993D01*
X97986126Y-65235000D01*
X110083620Y-65235000D01*
X115918697Y-70097564D01*
G04 #@! TO.N,Net-(D3-Pad2)*
G36*
X126873000Y-110765000D02*
X119916380Y-110765000D01*
X114081303Y-105902436D01*
X114037778Y-105878749D01*
X114000000Y-105873000D01*
X113884592Y-105873000D01*
X113786783Y-105807646D01*
X113572388Y-105765000D01*
X113500000Y-105750601D01*
X113427612Y-105765000D01*
X97072388Y-105765000D01*
X97000000Y-105750601D01*
X96927612Y-105765000D01*
X96713217Y-105807646D01*
X96615408Y-105873000D01*
X87052606Y-105873000D01*
X86127000Y-104947394D01*
X86127000Y-97047718D01*
X86714759Y-96375993D01*
X95627694Y-96375993D01*
X95631048Y-97337033D01*
X95827578Y-98277769D01*
X96209256Y-99159773D01*
X96760489Y-99947015D01*
X97458760Y-100607337D01*
X98275545Y-101113766D01*
X99177480Y-101445613D01*
X100127719Y-101589323D01*
X101087448Y-101539026D01*
X102017460Y-101296776D01*
X102879766Y-100872469D01*
X103639141Y-100283437D01*
X104264564Y-99553743D01*
X104730489Y-98713194D01*
X105017880Y-97796126D01*
X105115000Y-96840000D01*
X105114884Y-96806804D01*
X105011092Y-95851380D01*
X104717305Y-94936340D01*
X104245524Y-94099064D01*
X103615021Y-93373754D01*
X102851553Y-92790038D01*
X101986306Y-92371762D01*
X101054625Y-92136010D01*
X100094569Y-92092414D01*
X99145355Y-92242755D01*
X98245760Y-92580891D01*
X97432530Y-93093009D01*
X96738885Y-93758190D01*
X96193162Y-94549261D01*
X95817651Y-95433908D01*
X95627694Y-96375993D01*
X86714759Y-96375993D01*
X92525628Y-89735000D01*
X126873000Y-89735000D01*
X126873000Y-110765000D01*
X126873000Y-110765000D01*
G37*
X126873000Y-110765000D02*
X119916380Y-110765000D01*
X114081303Y-105902436D01*
X114037778Y-105878749D01*
X114000000Y-105873000D01*
X113884592Y-105873000D01*
X113786783Y-105807646D01*
X113572388Y-105765000D01*
X113500000Y-105750601D01*
X113427612Y-105765000D01*
X97072388Y-105765000D01*
X97000000Y-105750601D01*
X96927612Y-105765000D01*
X96713217Y-105807646D01*
X96615408Y-105873000D01*
X87052606Y-105873000D01*
X86127000Y-104947394D01*
X86127000Y-97047718D01*
X86714759Y-96375993D01*
X95627694Y-96375993D01*
X95631048Y-97337033D01*
X95827578Y-98277769D01*
X96209256Y-99159773D01*
X96760489Y-99947015D01*
X97458760Y-100607337D01*
X98275545Y-101113766D01*
X99177480Y-101445613D01*
X100127719Y-101589323D01*
X101087448Y-101539026D01*
X102017460Y-101296776D01*
X102879766Y-100872469D01*
X103639141Y-100283437D01*
X104264564Y-99553743D01*
X104730489Y-98713194D01*
X105017880Y-97796126D01*
X105115000Y-96840000D01*
X105114884Y-96806804D01*
X105011092Y-95851380D01*
X104717305Y-94936340D01*
X104245524Y-94099064D01*
X103615021Y-93373754D01*
X102851553Y-92790038D01*
X101986306Y-92371762D01*
X101054625Y-92136010D01*
X100094569Y-92092414D01*
X99145355Y-92242755D01*
X98245760Y-92580891D01*
X97432530Y-93093009D01*
X96738885Y-93758190D01*
X96193162Y-94549261D01*
X95817651Y-95433908D01*
X95627694Y-96375993D01*
X86714759Y-96375993D01*
X92525628Y-89735000D01*
X126873000Y-89735000D01*
X126873000Y-110765000D01*
G04 #@! TO.N,Net-(D4-Pad2)*
G36*
X115918697Y-113097564D02*
X115962222Y-113121251D01*
X116000000Y-113127000D01*
X116115408Y-113127000D01*
X116213217Y-113192354D01*
X116500000Y-113249399D01*
X116572388Y-113235000D01*
X128427612Y-113235000D01*
X128500000Y-113249399D01*
X128572388Y-113235000D01*
X128786783Y-113192354D01*
X128884592Y-113127000D01*
X133947394Y-113127000D01*
X134873000Y-114052606D01*
X134873000Y-121947394D01*
X127555394Y-129265000D01*
X90127000Y-129265000D01*
X90127000Y-119041298D01*
X91527221Y-117115993D01*
X105597694Y-117115993D01*
X105601048Y-118077033D01*
X105797578Y-119017769D01*
X106179256Y-119899773D01*
X106730489Y-120687015D01*
X107428760Y-121347337D01*
X108245545Y-121853766D01*
X109147480Y-122185613D01*
X110097719Y-122329323D01*
X111057448Y-122279026D01*
X111987460Y-122036776D01*
X112849766Y-121612469D01*
X112948358Y-121535993D01*
X115667694Y-121535993D01*
X115671048Y-122497033D01*
X115867578Y-123437769D01*
X116249256Y-124319773D01*
X116800489Y-125107015D01*
X117498760Y-125767337D01*
X118315545Y-126273766D01*
X119217480Y-126605613D01*
X120167719Y-126749323D01*
X121127448Y-126699026D01*
X122057460Y-126456776D01*
X122919766Y-126032469D01*
X123679141Y-125443437D01*
X124304564Y-124713743D01*
X124770489Y-123873194D01*
X125057880Y-122956126D01*
X125155000Y-122000000D01*
X125154884Y-121966804D01*
X125051092Y-121011380D01*
X124757305Y-120096340D01*
X124285524Y-119259064D01*
X123655021Y-118533754D01*
X122891553Y-117950038D01*
X122026306Y-117531762D01*
X121094625Y-117296010D01*
X120134569Y-117252414D01*
X119185355Y-117402755D01*
X118285760Y-117740891D01*
X117472530Y-118253009D01*
X116778885Y-118918190D01*
X116233162Y-119709261D01*
X115857651Y-120593908D01*
X115667694Y-121535993D01*
X112948358Y-121535993D01*
X113609141Y-121023437D01*
X114234564Y-120293743D01*
X114700489Y-119453194D01*
X114987880Y-118536126D01*
X115085000Y-117580000D01*
X115084884Y-117546804D01*
X114981092Y-116591380D01*
X114687305Y-115676340D01*
X114215524Y-114839064D01*
X113585021Y-114113754D01*
X112821553Y-113530038D01*
X111956306Y-113111762D01*
X111024625Y-112876010D01*
X110064569Y-112832414D01*
X109115355Y-112982755D01*
X108215760Y-113320891D01*
X107402530Y-113833009D01*
X106708885Y-114498190D01*
X106163162Y-115289261D01*
X105787651Y-116173908D01*
X105597694Y-117115993D01*
X91527221Y-117115993D01*
X97986126Y-108235000D01*
X110083620Y-108235000D01*
X115918697Y-113097564D01*
X115918697Y-113097564D01*
G37*
X115918697Y-113097564D02*
X115962222Y-113121251D01*
X116000000Y-113127000D01*
X116115408Y-113127000D01*
X116213217Y-113192354D01*
X116500000Y-113249399D01*
X116572388Y-113235000D01*
X128427612Y-113235000D01*
X128500000Y-113249399D01*
X128572388Y-113235000D01*
X128786783Y-113192354D01*
X128884592Y-113127000D01*
X133947394Y-113127000D01*
X134873000Y-114052606D01*
X134873000Y-121947394D01*
X127555394Y-129265000D01*
X90127000Y-129265000D01*
X90127000Y-119041298D01*
X91527221Y-117115993D01*
X105597694Y-117115993D01*
X105601048Y-118077033D01*
X105797578Y-119017769D01*
X106179256Y-119899773D01*
X106730489Y-120687015D01*
X107428760Y-121347337D01*
X108245545Y-121853766D01*
X109147480Y-122185613D01*
X110097719Y-122329323D01*
X111057448Y-122279026D01*
X111987460Y-122036776D01*
X112849766Y-121612469D01*
X112948358Y-121535993D01*
X115667694Y-121535993D01*
X115671048Y-122497033D01*
X115867578Y-123437769D01*
X116249256Y-124319773D01*
X116800489Y-125107015D01*
X117498760Y-125767337D01*
X118315545Y-126273766D01*
X119217480Y-126605613D01*
X120167719Y-126749323D01*
X121127448Y-126699026D01*
X122057460Y-126456776D01*
X122919766Y-126032469D01*
X123679141Y-125443437D01*
X124304564Y-124713743D01*
X124770489Y-123873194D01*
X125057880Y-122956126D01*
X125155000Y-122000000D01*
X125154884Y-121966804D01*
X125051092Y-121011380D01*
X124757305Y-120096340D01*
X124285524Y-119259064D01*
X123655021Y-118533754D01*
X122891553Y-117950038D01*
X122026306Y-117531762D01*
X121094625Y-117296010D01*
X120134569Y-117252414D01*
X119185355Y-117402755D01*
X118285760Y-117740891D01*
X117472530Y-118253009D01*
X116778885Y-118918190D01*
X116233162Y-119709261D01*
X115857651Y-120593908D01*
X115667694Y-121535993D01*
X112948358Y-121535993D01*
X113609141Y-121023437D01*
X114234564Y-120293743D01*
X114700489Y-119453194D01*
X114987880Y-118536126D01*
X115085000Y-117580000D01*
X115084884Y-117546804D01*
X114981092Y-116591380D01*
X114687305Y-115676340D01*
X114215524Y-114839064D01*
X113585021Y-114113754D01*
X112821553Y-113530038D01*
X111956306Y-113111762D01*
X111024625Y-112876010D01*
X110064569Y-112832414D01*
X109115355Y-112982755D01*
X108215760Y-113320891D01*
X107402530Y-113833009D01*
X106708885Y-114498190D01*
X106163162Y-115289261D01*
X105787651Y-116173908D01*
X105597694Y-117115993D01*
X91527221Y-117115993D01*
X97986126Y-108235000D01*
X110083620Y-108235000D01*
X115918697Y-113097564D01*
G04 #@! TD*
M02*
