M48
;DRILL file {KiCad (5.0.0)} date 10/11/18 14:10:49
;FORMAT={-:-/ absolute / metric / decimal}
FMAT,2
METRIC,TZ
T1C1.200
T2C1.400
T3C1.500
T4C1.600
T5C2.000
%
G90
G05
M71
T1
X118.Y-64.
X117.Y-60.
X108.Y-84.
X108.Y-127.
X112.Y-124.
X117.Y-116.
X110.Y-49.
X100.Y-116.
X102.Y-69.
X112.Y-81.
X106.Y-68.
X110.Y-92.
X118.Y-107.
X104.Y-72.
X126.Y-84.
X117.Y-73.
X106.Y-80.
X100.Y-73.
X105.Y-49.
X105.Y-92.
X115.Y-127.
X106.Y-123.
X121.Y-103.
X110.Y-99.
X106.Y-99.
X110.Y-56.
X106.Y-111.
X121.Y-60.
X96.Y-49.
X98.Y-60.
X115.Y-84.
X102.Y-112.
X117.Y-103.
X106.Y-56.
X104.Y-115.
X108.Y-96.
X96.Y-92.
X98.Y-103.
X126.Y-127.
X108.Y-53.
T2
X104.92Y-102.8
X139.Y-122.94
X82.Y-101.
X82.Y-57.88
X139.Y-79.94
X104.92Y-59.8
T3
X82.Y-95.92
X82.Y-52.8
X139.Y-74.86
X110.Y-59.8
X110.Y-102.8
X139.Y-117.86
T5
X114.Y-48.9
X114.Y-56.
X119.Y-48.9
X119.Y-56.
X124.Y-48.9
X124.Y-56.
X114.Y-91.9
X114.Y-99.
X119.Y-91.9
X119.Y-99.
X124.Y-91.9
X124.Y-99.
X93.1Y-76.7
X93.1Y-83.8
X98.1Y-76.7
X98.1Y-83.8
X103.1Y-76.7
X103.1Y-83.8
X93.Y-120.
X93.Y-127.1
X98.Y-120.
X98.Y-127.1
X103.Y-120.
X103.Y-127.1
T4
X124.796Y-103.537G85X121.637Y-108.401
G05
X132.541Y-115.151G85X126.829Y-116.158
G05
X135.427Y-108.932G85X133.434Y-104.455
G05
X124.796Y-60.537G85X121.637Y-65.401
G05
X132.541Y-72.151G85X126.829Y-73.158
G05
X135.427Y-65.932G85X133.434Y-61.455
G05
X85.273Y-109.868G85X87.266Y-114.345
G05
X88.159Y-103.649G85X93.871Y-102.642
G05
X95.904Y-115.263G85X99.063Y-110.399
G05
X85.273Y-66.868G85X87.266Y-71.345
G05
X88.159Y-60.649G85X93.871Y-59.642
G05
X95.904Y-72.263G85X99.063Y-67.399
G05
T0
M30
