G04 #@! TF.GenerationSoftware,KiCad,Pcbnew,(5.0.0)*
G04 #@! TF.CreationDate,2018-10-11T14:10:44+03:00*
G04 #@! TF.ProjectId,dviguba_plokste,647669677562615F706C6F6B7374652E,rev?*
G04 #@! TF.SameCoordinates,Original*
G04 #@! TF.FileFunction,Soldermask,Top*
G04 #@! TF.FilePolarity,Negative*
%FSLAX46Y46*%
G04 Gerber Fmt 4.6, Leading zero omitted, Abs format (unit mm)*
G04 Created by KiCad (PCBNEW (5.0.0)) date 10/11/18 14:10:44*
%MOMM*%
%LPD*%
G01*
G04 APERTURE LIST*
%ADD10C,3.200000*%
%ADD11C,3.200000*%
%ADD12C,2.398980*%
%ADD13R,1.900000X3.100000*%
%ADD14O,2.200000X4.000000*%
%ADD15O,4.000000X2.200000*%
%ADD16R,1.300000X2.100000*%
%ADD17C,0.254000*%
G04 APERTURE END LIST*
D10*
G04 #@! TO.C,V2*
X129684811Y-72654296D03*
D11*
X132639234Y-72133351D02*
X126730388Y-73175241D01*
D10*
X123216375Y-62968774D03*
D11*
X124850292Y-60452762D02*
X121582458Y-65484786D01*
D10*
X134430862Y-63693548D03*
D11*
X135447704Y-65977412D02*
X133414020Y-61409684D01*
G04 #@! TD*
D12*
G04 #@! TO.C,REF\002A\002A*
X106000000Y-123000000D03*
G04 #@! TD*
G04 #@! TO.C,REF\002A\002A*
X106000000Y-80000000D03*
G04 #@! TD*
G04 #@! TO.C,REF\002A\002A*
X104000000Y-72000000D03*
G04 #@! TD*
G04 #@! TO.C,REF\002A\002A*
X102000000Y-69000000D03*
G04 #@! TD*
G04 #@! TO.C,REF\002A\002A*
X100000000Y-73000000D03*
G04 #@! TD*
G04 #@! TO.C,REF\002A\002A*
X104000000Y-115000000D03*
G04 #@! TD*
G04 #@! TO.C,REF\002A\002A*
X102000000Y-112000000D03*
G04 #@! TD*
G04 #@! TO.C,REF\002A\002A*
X100000000Y-116000000D03*
G04 #@! TD*
G04 #@! TO.C,REF\002A\002A*
X117000000Y-60000000D03*
G04 #@! TD*
G04 #@! TO.C,REF\002A\002A*
X121000000Y-60000000D03*
G04 #@! TD*
G04 #@! TO.C,REF\002A\002A*
X118000000Y-64000000D03*
G04 #@! TD*
G04 #@! TO.C,REF\002A\002A*
X121000000Y-103000000D03*
G04 #@! TD*
G04 #@! TO.C,REF\002A\002A*
X118000000Y-107000000D03*
G04 #@! TD*
G04 #@! TO.C,REF\002A\002A*
X117000000Y-103000000D03*
G04 #@! TD*
G04 #@! TO.C,REF\002A\002A*
X106000000Y-111000000D03*
G04 #@! TD*
G04 #@! TO.C,REF\002A\002A*
X117000000Y-116000000D03*
G04 #@! TD*
G04 #@! TO.C,REF\002A\002A*
X126000000Y-127000000D03*
G04 #@! TD*
G04 #@! TO.C,REF\002A\002A*
X112000000Y-124000000D03*
G04 #@! TD*
G04 #@! TO.C,REF\002A\002A*
X115000000Y-127000000D03*
G04 #@! TD*
G04 #@! TO.C,REF\002A\002A*
X108000000Y-127000000D03*
G04 #@! TD*
G04 #@! TO.C,REF\002A\002A*
X126000000Y-84000000D03*
G04 #@! TD*
G04 #@! TO.C,REF\002A\002A*
X117000000Y-73000000D03*
G04 #@! TD*
G04 #@! TO.C,REF\002A\002A*
X112000000Y-81000000D03*
G04 #@! TD*
G04 #@! TO.C,REF\002A\002A*
X115000000Y-84000000D03*
G04 #@! TD*
G04 #@! TO.C,REF\002A\002A*
X108000000Y-84000000D03*
G04 #@! TD*
G04 #@! TO.C,REF\002A\002A*
X106000000Y-68000000D03*
G04 #@! TD*
G04 #@! TO.C,REF\002A\002A*
X98000000Y-103000000D03*
G04 #@! TD*
G04 #@! TO.C,REF\002A\002A*
X110000000Y-99000000D03*
G04 #@! TD*
G04 #@! TO.C,REF\002A\002A*
X106000000Y-99000000D03*
G04 #@! TD*
G04 #@! TO.C,REF\002A\002A*
X108000000Y-96000000D03*
G04 #@! TD*
G04 #@! TO.C,REF\002A\002A*
X110000000Y-92000000D03*
G04 #@! TD*
G04 #@! TO.C,REF\002A\002A*
X105000000Y-92000000D03*
G04 #@! TD*
G04 #@! TO.C,REF\002A\002A*
X96000000Y-92000000D03*
G04 #@! TD*
G04 #@! TO.C,REF\002A\002A*
X98000000Y-60000000D03*
G04 #@! TD*
G04 #@! TO.C,REF\002A\002A*
X96000000Y-49000000D03*
G04 #@! TD*
G04 #@! TO.C,REF\002A\002A*
X110000000Y-56000000D03*
G04 #@! TD*
G04 #@! TO.C,REF\002A\002A*
X106000000Y-56000000D03*
G04 #@! TD*
G04 #@! TO.C,REF\002A\002A*
X108000000Y-53000000D03*
G04 #@! TD*
G04 #@! TO.C,REF\002A\002A*
X110000000Y-49000000D03*
G04 #@! TD*
G04 #@! TO.C,REF\002A\002A*
X105000000Y-49000000D03*
G04 #@! TD*
D10*
G04 #@! TO.C,X1*
X93000000Y-120000000D03*
X98000000Y-120000000D03*
X103000000Y-120000000D03*
X93000000Y-127100000D03*
X98000000Y-127100000D03*
X103000000Y-127100000D03*
G04 #@! TD*
G04 #@! TO.C,X2*
X114000000Y-91900000D03*
X119000000Y-91900000D03*
X124000000Y-91900000D03*
X114000000Y-99000000D03*
X119000000Y-99000000D03*
X124000000Y-99000000D03*
G04 #@! TD*
G04 #@! TO.C,X4*
X93100000Y-76700000D03*
X98100000Y-76700000D03*
X103100000Y-76700000D03*
X93100000Y-83800000D03*
X98100000Y-83800000D03*
X103100000Y-83800000D03*
G04 #@! TD*
G04 #@! TO.C,X5*
X114000000Y-48900000D03*
X119000000Y-48900000D03*
X124000000Y-48900000D03*
X114000000Y-56000000D03*
X119000000Y-56000000D03*
X124000000Y-56000000D03*
G04 #@! TD*
G04 #@! TO.C,V1*
X91015189Y-60145704D03*
D11*
X88060766Y-60666649D02*
X93969612Y-59624759D01*
D10*
X97483625Y-69831226D03*
D11*
X95849708Y-72347238D02*
X99117542Y-67315214D01*
D10*
X86269138Y-69106452D03*
D11*
X85252296Y-66822588D02*
X87285980Y-71390316D01*
G04 #@! TD*
D10*
G04 #@! TO.C,V3*
X86269138Y-112106452D03*
D11*
X85252296Y-109822588D02*
X87285980Y-114390316D01*
D10*
X97483625Y-112831226D03*
D11*
X95849708Y-115347238D02*
X99117542Y-110315214D01*
D10*
X91015189Y-103145704D03*
D11*
X88060766Y-103666649D02*
X93969612Y-102624759D01*
G04 #@! TD*
D13*
G04 #@! TO.C,D4*
X136000000Y-124000000D03*
X131200000Y-124000000D03*
G04 #@! TD*
G04 #@! TO.C,D2*
X131200000Y-81000000D03*
X136000000Y-81000000D03*
G04 #@! TD*
D10*
G04 #@! TO.C,V4*
X134430862Y-106693548D03*
D11*
X135447704Y-108977412D02*
X133414020Y-104409684D01*
D10*
X123216375Y-105968774D03*
D11*
X124850292Y-103452762D02*
X121582458Y-108484786D01*
D10*
X129684811Y-115654296D03*
D11*
X132639234Y-115133351D02*
X126730388Y-116175241D01*
G04 #@! TD*
D14*
G04 #@! TO.C,X7*
X139000000Y-122940000D03*
X139000000Y-117860000D03*
G04 #@! TD*
D15*
G04 #@! TO.C,X12*
X110000000Y-102800000D03*
X104920000Y-102800000D03*
G04 #@! TD*
D13*
G04 #@! TO.C,D3*
X90000000Y-95000000D03*
X85200000Y-95000000D03*
G04 #@! TD*
D16*
G04 #@! TO.C,R6*
X131100000Y-127000000D03*
X134000000Y-127000000D03*
G04 #@! TD*
G04 #@! TO.C,R8*
X138900000Y-127000000D03*
X136000000Y-127000000D03*
G04 #@! TD*
G04 #@! TO.C,R7*
X85000000Y-92000000D03*
X82100000Y-92000000D03*
G04 #@! TD*
G04 #@! TO.C,R9*
X87100000Y-92000000D03*
X90000000Y-92000000D03*
G04 #@! TD*
D14*
G04 #@! TO.C,X14*
X139000000Y-74860000D03*
X139000000Y-79940000D03*
G04 #@! TD*
D15*
G04 #@! TO.C,X26*
X104920000Y-59800000D03*
X110000000Y-59800000D03*
G04 #@! TD*
D14*
G04 #@! TO.C,X17*
X82000000Y-52800000D03*
X82000000Y-57880000D03*
G04 #@! TD*
D13*
G04 #@! TO.C,D1*
X85200000Y-52000000D03*
X90000000Y-52000000D03*
G04 #@! TD*
D16*
G04 #@! TO.C,R4*
X90000000Y-49000000D03*
X87100000Y-49000000D03*
G04 #@! TD*
G04 #@! TO.C,R3*
X136000000Y-84000000D03*
X138900000Y-84000000D03*
G04 #@! TD*
G04 #@! TO.C,R2*
X82100000Y-49000000D03*
X85000000Y-49000000D03*
G04 #@! TD*
G04 #@! TO.C,R1*
X134000000Y-84000000D03*
X131100000Y-84000000D03*
G04 #@! TD*
D14*
G04 #@! TO.C,X9*
X82000000Y-95920000D03*
X82000000Y-101000000D03*
G04 #@! TD*
D17*
G36*
X126873000Y-62947394D02*
X125910197Y-63910197D01*
X125882667Y-63951399D01*
X125873000Y-64000000D01*
X125873000Y-67873000D01*
X120047376Y-67873000D01*
X112627000Y-61442008D01*
X112627000Y-58000000D01*
X112617333Y-57951399D01*
X112589803Y-57910197D01*
X112548601Y-57882667D01*
X112500000Y-57873000D01*
X102500000Y-57873000D01*
X102451399Y-57882667D01*
X102410197Y-57910197D01*
X102382667Y-57951399D01*
X102373000Y-58000000D01*
X102373000Y-61447394D01*
X100947394Y-62873000D01*
X87052606Y-62873000D01*
X86127000Y-61947394D01*
X86127000Y-59052606D01*
X88552606Y-56627000D01*
X94000000Y-56627000D01*
X94048601Y-56617333D01*
X94089803Y-56589803D01*
X94117333Y-56548601D01*
X94127000Y-56500000D01*
X94127000Y-46127000D01*
X126873000Y-46127000D01*
X126873000Y-62947394D01*
X126873000Y-62947394D01*
G37*
X126873000Y-62947394D02*
X125910197Y-63910197D01*
X125882667Y-63951399D01*
X125873000Y-64000000D01*
X125873000Y-67873000D01*
X120047376Y-67873000D01*
X112627000Y-61442008D01*
X112627000Y-58000000D01*
X112617333Y-57951399D01*
X112589803Y-57910197D01*
X112548601Y-57882667D01*
X112500000Y-57873000D01*
X102500000Y-57873000D01*
X102451399Y-57882667D01*
X102410197Y-57910197D01*
X102382667Y-57951399D01*
X102373000Y-58000000D01*
X102373000Y-61447394D01*
X100947394Y-62873000D01*
X87052606Y-62873000D01*
X86127000Y-61947394D01*
X86127000Y-59052606D01*
X88552606Y-56627000D01*
X94000000Y-56627000D01*
X94048601Y-56617333D01*
X94089803Y-56589803D01*
X94117333Y-56548601D01*
X94127000Y-56500000D01*
X94127000Y-46127000D01*
X126873000Y-46127000D01*
X126873000Y-62947394D01*
G36*
X115918697Y-70097564D02*
X115962222Y-70121251D01*
X116000000Y-70127000D01*
X133947394Y-70127000D01*
X134873000Y-71052606D01*
X134873000Y-73947394D01*
X130947394Y-77873000D01*
X128000000Y-77873000D01*
X127951399Y-77882667D01*
X127910197Y-77910197D01*
X127882667Y-77951399D01*
X127873000Y-78000000D01*
X127873000Y-86873000D01*
X91127000Y-86873000D01*
X91127000Y-74541736D01*
X98064174Y-65127000D01*
X109954020Y-65127000D01*
X115918697Y-70097564D01*
X115918697Y-70097564D01*
G37*
X115918697Y-70097564D02*
X115962222Y-70121251D01*
X116000000Y-70127000D01*
X133947394Y-70127000D01*
X134873000Y-71052606D01*
X134873000Y-73947394D01*
X130947394Y-77873000D01*
X128000000Y-77873000D01*
X127951399Y-77882667D01*
X127910197Y-77910197D01*
X127882667Y-77951399D01*
X127873000Y-78000000D01*
X127873000Y-86873000D01*
X91127000Y-86873000D01*
X91127000Y-74541736D01*
X98064174Y-65127000D01*
X109954020Y-65127000D01*
X115918697Y-70097564D01*
G36*
X126873000Y-105947394D02*
X125910197Y-106910197D01*
X125882667Y-106951399D01*
X125873000Y-107000000D01*
X125873000Y-110873000D01*
X120047376Y-110873000D01*
X112627000Y-104442008D01*
X112627000Y-101000000D01*
X112617333Y-100951399D01*
X112589803Y-100910197D01*
X112548601Y-100882667D01*
X112500000Y-100873000D01*
X102500000Y-100873000D01*
X102451399Y-100882667D01*
X102410197Y-100910197D01*
X102382667Y-100951399D01*
X102373000Y-101000000D01*
X102373000Y-104447394D01*
X100947394Y-105873000D01*
X87052606Y-105873000D01*
X86127000Y-104947394D01*
X86127000Y-102052606D01*
X88552606Y-99627000D01*
X94000000Y-99627000D01*
X94048601Y-99617333D01*
X94089803Y-99589803D01*
X94117333Y-99548601D01*
X94127000Y-99500000D01*
X94127000Y-89127000D01*
X126873000Y-89127000D01*
X126873000Y-105947394D01*
X126873000Y-105947394D01*
G37*
X126873000Y-105947394D02*
X125910197Y-106910197D01*
X125882667Y-106951399D01*
X125873000Y-107000000D01*
X125873000Y-110873000D01*
X120047376Y-110873000D01*
X112627000Y-104442008D01*
X112627000Y-101000000D01*
X112617333Y-100951399D01*
X112589803Y-100910197D01*
X112548601Y-100882667D01*
X112500000Y-100873000D01*
X102500000Y-100873000D01*
X102451399Y-100882667D01*
X102410197Y-100910197D01*
X102382667Y-100951399D01*
X102373000Y-101000000D01*
X102373000Y-104447394D01*
X100947394Y-105873000D01*
X87052606Y-105873000D01*
X86127000Y-104947394D01*
X86127000Y-102052606D01*
X88552606Y-99627000D01*
X94000000Y-99627000D01*
X94048601Y-99617333D01*
X94089803Y-99589803D01*
X94117333Y-99548601D01*
X94127000Y-99500000D01*
X94127000Y-89127000D01*
X126873000Y-89127000D01*
X126873000Y-105947394D01*
G36*
X115918697Y-113097564D02*
X115962222Y-113121251D01*
X116000000Y-113127000D01*
X133947394Y-113127000D01*
X134873000Y-114052606D01*
X134873000Y-116947394D01*
X130947394Y-120873000D01*
X128000000Y-120873000D01*
X127951399Y-120882667D01*
X127910197Y-120910197D01*
X127882667Y-120951399D01*
X127873000Y-121000000D01*
X127873000Y-129873000D01*
X91127000Y-129873000D01*
X91127000Y-117541736D01*
X98064174Y-108127000D01*
X109954020Y-108127000D01*
X115918697Y-113097564D01*
X115918697Y-113097564D01*
G37*
X115918697Y-113097564D02*
X115962222Y-113121251D01*
X116000000Y-113127000D01*
X133947394Y-113127000D01*
X134873000Y-114052606D01*
X134873000Y-116947394D01*
X130947394Y-120873000D01*
X128000000Y-120873000D01*
X127951399Y-120882667D01*
X127910197Y-120910197D01*
X127882667Y-120951399D01*
X127873000Y-121000000D01*
X127873000Y-129873000D01*
X91127000Y-129873000D01*
X91127000Y-117541736D01*
X98064174Y-108127000D01*
X109954020Y-108127000D01*
X115918697Y-113097564D01*
M02*
