G04 #@! TF.GenerationSoftware,KiCad,Pcbnew,(5.0.0)*
G04 #@! TF.CreationDate,2018-10-17T16:15:22+03:00*
G04 #@! TF.ProjectId,tp_x2,74705F78322E6B696361645F70636200,rev?*
G04 #@! TF.SameCoordinates,Original*
G04 #@! TF.FileFunction,Legend,Top*
G04 #@! TF.FilePolarity,Positive*
%FSLAX46Y46*%
G04 Gerber Fmt 4.6, Leading zero omitted, Abs format (unit mm)*
G04 Created by KiCad (PCBNEW (5.0.0)) date 10/17/18 16:15:22*
%MOMM*%
%LPD*%
G01*
G04 APERTURE LIST*
%ADD10C,0.300000*%
%ADD11C,0.200000*%
%ADD12C,0.120000*%
%ADD13C,0.150000*%
%ADD14C,0.100000*%
%ADD15C,0.400000*%
%ADD16C,0.250000*%
G04 APERTURE END LIST*
D10*
X84392857Y-113250000D02*
X84250000Y-113178571D01*
X84035714Y-113178571D01*
X83821428Y-113250000D01*
X83678571Y-113392857D01*
X83607142Y-113535714D01*
X83535714Y-113821428D01*
X83535714Y-114035714D01*
X83607142Y-114321428D01*
X83678571Y-114464285D01*
X83821428Y-114607142D01*
X84035714Y-114678571D01*
X84178571Y-114678571D01*
X84392857Y-114607142D01*
X84464285Y-114535714D01*
X84464285Y-114035714D01*
X84178571Y-114035714D01*
X137392857Y-104250000D02*
X137250000Y-104178571D01*
X137035714Y-104178571D01*
X136821428Y-104250000D01*
X136678571Y-104392857D01*
X136607142Y-104535714D01*
X136535714Y-104821428D01*
X136535714Y-105035714D01*
X136607142Y-105321428D01*
X136678571Y-105464285D01*
X136821428Y-105607142D01*
X137035714Y-105678571D01*
X137178571Y-105678571D01*
X137392857Y-105607142D01*
X137464285Y-105535714D01*
X137464285Y-105035714D01*
X137178571Y-105035714D01*
X137392857Y-61250000D02*
X137250000Y-61178571D01*
X137035714Y-61178571D01*
X136821428Y-61250000D01*
X136678571Y-61392857D01*
X136607142Y-61535714D01*
X136535714Y-61821428D01*
X136535714Y-62035714D01*
X136607142Y-62321428D01*
X136678571Y-62464285D01*
X136821428Y-62607142D01*
X137035714Y-62678571D01*
X137178571Y-62678571D01*
X137392857Y-62607142D01*
X137464285Y-62535714D01*
X137464285Y-62035714D01*
X137178571Y-62035714D01*
X84392857Y-70250000D02*
X84250000Y-70178571D01*
X84035714Y-70178571D01*
X83821428Y-70250000D01*
X83678571Y-70392857D01*
X83607142Y-70535714D01*
X83535714Y-70821428D01*
X83535714Y-71035714D01*
X83607142Y-71321428D01*
X83678571Y-71464285D01*
X83821428Y-71607142D01*
X84035714Y-71678571D01*
X84178571Y-71678571D01*
X84392857Y-71607142D01*
X84464285Y-71535714D01*
X84464285Y-71035714D01*
X84178571Y-71035714D01*
D11*
X133389730Y-108807418D02*
G75*
G03X133389730Y-108807418I-3889730J0D01*
G01*
X96389730Y-109889730D02*
G75*
G03X96389730Y-109889730I-3889730J0D01*
G01*
X133389730Y-65807418D02*
G75*
G03X133389730Y-65807418I-3889730J0D01*
G01*
X96389730Y-66500000D02*
G75*
G03X96389730Y-66500000I-3889730J0D01*
G01*
X80000000Y-106000000D02*
X80000000Y-104000000D01*
X84000000Y-106000000D02*
X80000000Y-106000000D01*
X84000000Y-104000000D02*
X84000000Y-106000000D01*
X80000000Y-104000000D02*
X84000000Y-104000000D01*
X136000000Y-72000000D02*
X136000000Y-70000000D01*
X140000000Y-72000000D02*
X136000000Y-72000000D01*
X140000000Y-70000000D02*
X140000000Y-72000000D01*
X136000000Y-70000000D02*
X140000000Y-70000000D01*
X136000000Y-115000000D02*
X136000000Y-113000000D01*
X140000000Y-115000000D02*
X136000000Y-115000000D01*
X140000000Y-113000000D02*
X140000000Y-115000000D01*
X136000000Y-113000000D02*
X140000000Y-113000000D01*
X109500000Y-106000000D02*
X109500000Y-104000000D01*
X105500000Y-106000000D02*
X109500000Y-106000000D01*
X105500000Y-104000000D02*
X105500000Y-106000000D01*
X109500000Y-63000000D02*
X109500000Y-61000000D01*
X105500000Y-63000000D02*
X109500000Y-63000000D01*
X105500000Y-61000000D02*
X105500000Y-63000000D01*
X80000000Y-63000000D02*
X80000000Y-61000000D01*
X84000000Y-63000000D02*
X80000000Y-63000000D01*
X84000000Y-61000000D02*
X84000000Y-63000000D01*
X80000000Y-61000000D02*
X84000000Y-61000000D01*
D12*
G04 #@! TO.C,RV3*
X109025126Y-111712132D02*
X117086144Y-103651115D01*
X112560660Y-115247666D02*
X120621677Y-107186649D01*
X109025126Y-111712132D02*
X112560660Y-115247666D01*
X117086144Y-103651115D02*
X120621677Y-107186649D01*
G04 #@! TO.C,RV1*
X109025126Y-68712132D02*
X117086144Y-60651115D01*
X112560660Y-72247666D02*
X120621677Y-64186649D01*
X109025126Y-68712132D02*
X112560660Y-72247666D01*
X117086144Y-60651115D02*
X120621677Y-64186649D01*
D13*
G04 #@! TO.C,X14*
X137750000Y-81900000D02*
X137750000Y-72650000D01*
X137750000Y-72650000D02*
X140250000Y-72650000D01*
X140250000Y-72650000D02*
X140250000Y-81900000D01*
X140250000Y-81900000D02*
X137750000Y-81900000D01*
G04 #@! TO.C,X17*
X80750000Y-59840000D02*
X80750000Y-50590000D01*
X80750000Y-50590000D02*
X83250000Y-50590000D01*
X83250000Y-50590000D02*
X83250000Y-59840000D01*
X83250000Y-59840000D02*
X80750000Y-59840000D01*
G04 #@! TO.C,X3*
X95460000Y-78750000D02*
X104710000Y-78750000D01*
X104710000Y-78750000D02*
X104710000Y-81250000D01*
X104710000Y-81250000D02*
X95460000Y-81250000D01*
X95460000Y-81250000D02*
X95460000Y-78750000D01*
G04 #@! TO.C,X6*
X112040000Y-51250000D02*
X121290000Y-51250000D01*
X121290000Y-51250000D02*
X121290000Y-53750000D01*
X121290000Y-53750000D02*
X112040000Y-53750000D01*
X112040000Y-53750000D02*
X112040000Y-51250000D01*
G04 #@! TO.C,X26*
X102960000Y-58550000D02*
X112210000Y-58550000D01*
X112210000Y-58550000D02*
X112210000Y-61050000D01*
X112210000Y-61050000D02*
X102960000Y-61050000D01*
X102960000Y-61050000D02*
X102960000Y-58550000D01*
G04 #@! TO.C,X10*
X112040000Y-94250000D02*
X121290000Y-94250000D01*
X121290000Y-94250000D02*
X121290000Y-96750000D01*
X121290000Y-96750000D02*
X112040000Y-96750000D01*
X112040000Y-96750000D02*
X112040000Y-94250000D01*
G04 #@! TO.C,X8*
X95460000Y-124750000D02*
X95460000Y-122250000D01*
X104710000Y-124750000D02*
X95460000Y-124750000D01*
X104710000Y-122250000D02*
X104710000Y-124750000D01*
X95460000Y-122250000D02*
X104710000Y-122250000D01*
D14*
G04 #@! TO.C,X1*
X91000000Y-118000000D02*
X105000000Y-118000000D01*
X105000000Y-118000000D02*
X105000000Y-129000000D01*
X105000000Y-129000000D02*
X91000000Y-129000000D01*
X91000000Y-129000000D02*
X91000000Y-118000000D01*
G04 #@! TO.C,X2*
X112000000Y-89900000D02*
X126000000Y-89900000D01*
X126000000Y-89900000D02*
X126000000Y-100900000D01*
X126000000Y-100900000D02*
X112000000Y-100900000D01*
X112000000Y-100900000D02*
X112000000Y-89900000D01*
G04 #@! TO.C,X4*
X91100000Y-74700000D02*
X105100000Y-74700000D01*
X105100000Y-74700000D02*
X105100000Y-85700000D01*
X105100000Y-85700000D02*
X91100000Y-85700000D01*
X91100000Y-85700000D02*
X91100000Y-74700000D01*
G04 #@! TO.C,X5*
X112000000Y-46900000D02*
X126000000Y-46900000D01*
X126000000Y-46900000D02*
X126000000Y-57900000D01*
X126000000Y-57900000D02*
X112000000Y-57900000D01*
X112000000Y-57900000D02*
X112000000Y-46900000D01*
D12*
G04 #@! TO.C,D4*
X131200000Y-125500000D02*
X136900000Y-125500000D01*
X136900000Y-125500000D02*
X136900000Y-122500000D01*
X136900000Y-122500000D02*
X131200000Y-122500000D01*
G04 #@! TO.C,D2*
X136900000Y-79500000D02*
X131200000Y-79500000D01*
X136900000Y-82500000D02*
X136900000Y-79500000D01*
X131200000Y-82500000D02*
X136900000Y-82500000D01*
D13*
G04 #@! TO.C,X7*
X140250000Y-124900000D02*
X137750000Y-124900000D01*
X140250000Y-115650000D02*
X140250000Y-124900000D01*
X137750000Y-115650000D02*
X140250000Y-115650000D01*
X137750000Y-124900000D02*
X137750000Y-115650000D01*
G04 #@! TO.C,X12*
X102960000Y-101550000D02*
X112210000Y-101550000D01*
X112210000Y-101550000D02*
X112210000Y-104050000D01*
X112210000Y-104050000D02*
X102960000Y-104050000D01*
X102960000Y-104050000D02*
X102960000Y-101550000D01*
D12*
G04 #@! TO.C,D3*
X84300000Y-96500000D02*
X90000000Y-96500000D01*
X84300000Y-93500000D02*
X84300000Y-96500000D01*
X90000000Y-93500000D02*
X84300000Y-93500000D01*
G04 #@! TO.C,R6*
X133550000Y-128070000D02*
X131550000Y-128070000D01*
X131550000Y-125930000D02*
X133550000Y-125930000D01*
G04 #@! TO.C,R8*
X136450000Y-125930000D02*
X138450000Y-125930000D01*
X138450000Y-128070000D02*
X136450000Y-128070000D01*
G04 #@! TO.C,R7*
X82550000Y-90930000D02*
X84550000Y-90930000D01*
X84550000Y-93070000D02*
X82550000Y-93070000D01*
G04 #@! TO.C,R9*
X89550000Y-93070000D02*
X87550000Y-93070000D01*
X87550000Y-90930000D02*
X89550000Y-90930000D01*
G04 #@! TO.C,D1*
X90000000Y-50500000D02*
X84300000Y-50500000D01*
X84300000Y-50500000D02*
X84300000Y-53500000D01*
X84300000Y-53500000D02*
X90000000Y-53500000D01*
G04 #@! TO.C,R4*
X87550000Y-47930000D02*
X89550000Y-47930000D01*
X89550000Y-50070000D02*
X87550000Y-50070000D01*
G04 #@! TO.C,R3*
X138450000Y-85070000D02*
X136450000Y-85070000D01*
X136450000Y-82930000D02*
X138450000Y-82930000D01*
G04 #@! TO.C,R2*
X84550000Y-50070000D02*
X82550000Y-50070000D01*
X82550000Y-47930000D02*
X84550000Y-47930000D01*
G04 #@! TO.C,R1*
X131550000Y-82930000D02*
X133550000Y-82930000D01*
X133550000Y-85070000D02*
X131550000Y-85070000D01*
D13*
G04 #@! TO.C,X9*
X80750000Y-102960000D02*
X80750000Y-93710000D01*
X80750000Y-93710000D02*
X83250000Y-93710000D01*
X83250000Y-93710000D02*
X83250000Y-102960000D01*
X83250000Y-102960000D02*
X80750000Y-102960000D01*
G04 #@! TO.C,X11*
X117000000Y-82750000D02*
X117000000Y-85250000D01*
X107750000Y-82750000D02*
X117000000Y-82750000D01*
X107750000Y-85250000D02*
X107750000Y-82750000D01*
X117000000Y-85250000D02*
X107750000Y-85250000D01*
G04 #@! TO.C,X13*
X116960000Y-128250000D02*
X107710000Y-128250000D01*
X107710000Y-128250000D02*
X107710000Y-125750000D01*
X107710000Y-125750000D02*
X116960000Y-125750000D01*
X116960000Y-125750000D02*
X116960000Y-128250000D01*
G04 #@! TO.C,V1.1*
D15*
X126452380Y-107904761D02*
X127119047Y-109904761D01*
X127785714Y-107904761D01*
X129500000Y-109904761D02*
X128357142Y-109904761D01*
X128928571Y-109904761D02*
X128928571Y-107904761D01*
X128738095Y-108190476D01*
X128547619Y-108380952D01*
X128357142Y-108476190D01*
X130357142Y-109714285D02*
X130452380Y-109809523D01*
X130357142Y-109904761D01*
X130261904Y-109809523D01*
X130357142Y-109714285D01*
X130357142Y-109904761D01*
X132357142Y-109904761D02*
X131214285Y-109904761D01*
X131785714Y-109904761D02*
X131785714Y-107904761D01*
X131595238Y-108190476D01*
X131404761Y-108380952D01*
X131214285Y-108476190D01*
G04 #@! TO.C,V1.2*
X89471959Y-108851741D02*
X90103619Y-110863071D01*
X90805089Y-108875011D01*
X92484209Y-110904625D02*
X91341526Y-110884679D01*
X91912868Y-110894652D02*
X91947773Y-108894956D01*
X91752339Y-109177303D01*
X91558567Y-109364426D01*
X91366458Y-109456325D01*
X93344546Y-110729137D02*
X93438107Y-110826022D01*
X93341222Y-110919584D01*
X93247660Y-110822698D01*
X93344546Y-110729137D01*
X93341222Y-110919584D01*
X94229814Y-109125295D02*
X94326700Y-109031733D01*
X94518809Y-108939834D01*
X94994927Y-108948145D01*
X95183712Y-109046693D01*
X95277274Y-109143578D01*
X95369173Y-109335688D01*
X95365849Y-109526135D01*
X95265639Y-109810143D01*
X94103010Y-110932881D01*
X95340917Y-110954489D01*
G04 #@! TO.C,V2.1*
X126452380Y-64904761D02*
X127119047Y-66904761D01*
X127785714Y-64904761D01*
X128357142Y-65095238D02*
X128452380Y-65000000D01*
X128642857Y-64904761D01*
X129119047Y-64904761D01*
X129309523Y-65000000D01*
X129404761Y-65095238D01*
X129500000Y-65285714D01*
X129500000Y-65476190D01*
X129404761Y-65761904D01*
X128261904Y-66904761D01*
X129500000Y-66904761D01*
X130357142Y-66714285D02*
X130452380Y-66809523D01*
X130357142Y-66904761D01*
X130261904Y-66809523D01*
X130357142Y-66714285D01*
X130357142Y-66904761D01*
X132357142Y-66904761D02*
X131214285Y-66904761D01*
X131785714Y-66904761D02*
X131785714Y-64904761D01*
X131595238Y-65190476D01*
X131404761Y-65380952D01*
X131214285Y-65476190D01*
G04 #@! TO.C,V2.2*
X89591294Y-65351740D02*
X90222954Y-67363070D01*
X90924424Y-65375010D01*
X91492442Y-65575430D02*
X91589327Y-65481868D01*
X91781437Y-65389969D01*
X92257555Y-65398280D01*
X92446340Y-65496828D01*
X92539901Y-65593713D01*
X92631801Y-65785823D01*
X92628476Y-65976270D01*
X92528266Y-66260278D01*
X91365638Y-67383016D01*
X92603544Y-67404624D01*
X93463881Y-67229136D02*
X93557442Y-67326021D01*
X93460557Y-67419583D01*
X93366995Y-67322697D01*
X93463881Y-67229136D01*
X93460557Y-67419583D01*
X94349149Y-65625294D02*
X94446035Y-65531732D01*
X94638144Y-65439833D01*
X95114262Y-65448144D01*
X95303047Y-65546692D01*
X95396609Y-65643577D01*
X95488508Y-65835687D01*
X95485184Y-66026134D01*
X95384974Y-66310142D01*
X94222345Y-67432880D01*
X95460252Y-67454488D01*
G04 #@! TO.C,RV3*
D13*
X114929289Y-110518544D02*
X114528595Y-110447834D01*
X114646446Y-110801387D02*
X114151471Y-110306412D01*
X114340033Y-110117851D01*
X114410744Y-110094280D01*
X114457884Y-110094280D01*
X114528595Y-110117851D01*
X114599306Y-110188561D01*
X114622876Y-110259272D01*
X114622876Y-110306412D01*
X114599306Y-110377123D01*
X114410744Y-110565685D01*
X114575735Y-109882148D02*
X115235702Y-110212132D01*
X114905719Y-109552165D01*
X115023570Y-109434314D02*
X115329983Y-109127901D01*
X115353553Y-109481455D01*
X115424264Y-109410744D01*
X115494974Y-109387174D01*
X115542115Y-109387174D01*
X115612825Y-109410744D01*
X115730677Y-109528595D01*
X115754247Y-109599306D01*
X115754247Y-109646446D01*
X115730677Y-109717157D01*
X115589255Y-109858578D01*
X115518544Y-109882148D01*
X115471404Y-109882148D01*
G04 #@! TO.C,RV1*
X114929289Y-66518544D02*
X114528595Y-66447834D01*
X114646446Y-66801387D02*
X114151471Y-66306412D01*
X114340033Y-66117851D01*
X114410744Y-66094280D01*
X114457884Y-66094280D01*
X114528595Y-66117851D01*
X114599306Y-66188561D01*
X114622876Y-66259272D01*
X114622876Y-66306412D01*
X114599306Y-66377123D01*
X114410744Y-66565685D01*
X114575735Y-65882148D02*
X115235702Y-66212132D01*
X114905719Y-65552165D01*
X115824957Y-65622876D02*
X115542115Y-65905719D01*
X115683536Y-65764297D02*
X115188561Y-65269322D01*
X115212132Y-65387174D01*
X115212132Y-65481455D01*
X115188561Y-65552165D01*
G04 #@! TO.C,X14*
D16*
X136457142Y-70342857D02*
X137257142Y-71542857D01*
X137257142Y-70342857D02*
X136457142Y-71542857D01*
X138342857Y-71542857D02*
X137657142Y-71542857D01*
X138000000Y-71542857D02*
X138000000Y-70342857D01*
X137885714Y-70514285D01*
X137771428Y-70628571D01*
X137657142Y-70685714D01*
X139371428Y-70742857D02*
X139371428Y-71542857D01*
X139085714Y-70285714D02*
X138800000Y-71142857D01*
X139542857Y-71142857D01*
G04 #@! TO.C,X17*
X80457142Y-61342857D02*
X81257142Y-62542857D01*
X81257142Y-61342857D02*
X80457142Y-62542857D01*
X82342857Y-62542857D02*
X81657142Y-62542857D01*
X82000000Y-62542857D02*
X82000000Y-61342857D01*
X81885714Y-61514285D01*
X81771428Y-61628571D01*
X81657142Y-61685714D01*
X82742857Y-61342857D02*
X83542857Y-61342857D01*
X83028571Y-62542857D01*
G04 #@! TO.C,X26*
X105957142Y-61342857D02*
X106757142Y-62542857D01*
X106757142Y-61342857D02*
X105957142Y-62542857D01*
X107157142Y-61457142D02*
X107214285Y-61400000D01*
X107328571Y-61342857D01*
X107614285Y-61342857D01*
X107728571Y-61400000D01*
X107785714Y-61457142D01*
X107842857Y-61571428D01*
X107842857Y-61685714D01*
X107785714Y-61857142D01*
X107100000Y-62542857D01*
X107842857Y-62542857D01*
X108871428Y-61342857D02*
X108642857Y-61342857D01*
X108528571Y-61400000D01*
X108471428Y-61457142D01*
X108357142Y-61628571D01*
X108300000Y-61857142D01*
X108300000Y-62314285D01*
X108357142Y-62428571D01*
X108414285Y-62485714D01*
X108528571Y-62542857D01*
X108757142Y-62542857D01*
X108871428Y-62485714D01*
X108928571Y-62428571D01*
X108985714Y-62314285D01*
X108985714Y-62028571D01*
X108928571Y-61914285D01*
X108871428Y-61857142D01*
X108757142Y-61800000D01*
X108528571Y-61800000D01*
X108414285Y-61857142D01*
X108357142Y-61914285D01*
X108300000Y-62028571D01*
G04 #@! TO.C,X1*
D15*
X90404761Y-125333333D02*
X90404761Y-126285714D01*
X88404761Y-126285714D01*
X90404761Y-124666666D02*
X88404761Y-124666666D01*
X88404761Y-124190476D01*
X88500000Y-123904761D01*
X88690476Y-123714285D01*
X88880952Y-123619047D01*
X89261904Y-123523809D01*
X89547619Y-123523809D01*
X89928571Y-123619047D01*
X90119047Y-123714285D01*
X90309523Y-123904761D01*
X90404761Y-124190476D01*
X90404761Y-124666666D01*
X88404761Y-122857142D02*
X88404761Y-121619047D01*
X89166666Y-122285714D01*
X89166666Y-122000000D01*
X89261904Y-121809523D01*
X89357142Y-121714285D01*
X89547619Y-121619047D01*
X90023809Y-121619047D01*
X90214285Y-121714285D01*
X90309523Y-121809523D01*
X90404761Y-122000000D01*
X90404761Y-122571428D01*
X90309523Y-122761904D01*
X90214285Y-122857142D01*
G04 #@! TO.C,X2*
X129904761Y-98023809D02*
X127904761Y-98023809D01*
X127904761Y-97261904D01*
X128000000Y-97071428D01*
X128095238Y-96976190D01*
X128285714Y-96880952D01*
X128571428Y-96880952D01*
X128761904Y-96976190D01*
X128857142Y-97071428D01*
X128952380Y-97261904D01*
X128952380Y-98023809D01*
X129904761Y-96023809D02*
X127904761Y-96023809D01*
X128857142Y-96023809D02*
X128857142Y-94880952D01*
X129904761Y-94880952D02*
X127904761Y-94880952D01*
X127904761Y-94119047D02*
X127904761Y-92880952D01*
X128666666Y-93547619D01*
X128666666Y-93261904D01*
X128761904Y-93071428D01*
X128857142Y-92976190D01*
X129047619Y-92880952D01*
X129523809Y-92880952D01*
X129714285Y-92976190D01*
X129809523Y-93071428D01*
X129904761Y-93261904D01*
X129904761Y-93833333D01*
X129809523Y-94023809D01*
X129714285Y-94119047D01*
G04 #@! TO.C,X4*
X90404761Y-81833333D02*
X90404761Y-82785714D01*
X88404761Y-82785714D01*
X90404761Y-81166666D02*
X88404761Y-81166666D01*
X88404761Y-80690476D01*
X88500000Y-80404761D01*
X88690476Y-80214285D01*
X88880952Y-80119047D01*
X89261904Y-80023809D01*
X89547619Y-80023809D01*
X89928571Y-80119047D01*
X90119047Y-80214285D01*
X90309523Y-80404761D01*
X90404761Y-80690476D01*
X90404761Y-81166666D01*
X90404761Y-78119047D02*
X90404761Y-79261904D01*
X90404761Y-78690476D02*
X88404761Y-78690476D01*
X88690476Y-78880952D01*
X88880952Y-79071428D01*
X88976190Y-79261904D01*
G04 #@! TO.C,X5*
X129904761Y-54523809D02*
X127904761Y-54523809D01*
X127904761Y-53761904D01*
X128000000Y-53571428D01*
X128095238Y-53476190D01*
X128285714Y-53380952D01*
X128571428Y-53380952D01*
X128761904Y-53476190D01*
X128857142Y-53571428D01*
X128952380Y-53761904D01*
X128952380Y-54523809D01*
X129904761Y-52523809D02*
X127904761Y-52523809D01*
X128857142Y-52523809D02*
X128857142Y-51380952D01*
X129904761Y-51380952D02*
X127904761Y-51380952D01*
X129904761Y-49380952D02*
X129904761Y-50523809D01*
X129904761Y-49952380D02*
X127904761Y-49952380D01*
X128190476Y-50142857D01*
X128380952Y-50333333D01*
X128476190Y-50523809D01*
G04 #@! TO.C,D4*
D13*
X132483333Y-122316666D02*
X132483333Y-121616666D01*
X132650000Y-121616666D01*
X132750000Y-121650000D01*
X132816666Y-121716666D01*
X132850000Y-121783333D01*
X132883333Y-121916666D01*
X132883333Y-122016666D01*
X132850000Y-122150000D01*
X132816666Y-122216666D01*
X132750000Y-122283333D01*
X132650000Y-122316666D01*
X132483333Y-122316666D01*
X133483333Y-121850000D02*
X133483333Y-122316666D01*
X133316666Y-121583333D02*
X133150000Y-122083333D01*
X133583333Y-122083333D01*
G04 #@! TO.C,D2*
X132483333Y-79316666D02*
X132483333Y-78616666D01*
X132650000Y-78616666D01*
X132750000Y-78650000D01*
X132816666Y-78716666D01*
X132850000Y-78783333D01*
X132883333Y-78916666D01*
X132883333Y-79016666D01*
X132850000Y-79150000D01*
X132816666Y-79216666D01*
X132750000Y-79283333D01*
X132650000Y-79316666D01*
X132483333Y-79316666D01*
X133150000Y-78683333D02*
X133183333Y-78650000D01*
X133250000Y-78616666D01*
X133416666Y-78616666D01*
X133483333Y-78650000D01*
X133516666Y-78683333D01*
X133550000Y-78750000D01*
X133550000Y-78816666D01*
X133516666Y-78916666D01*
X133116666Y-79316666D01*
X133550000Y-79316666D01*
G04 #@! TO.C,X7*
D16*
X137028571Y-113342857D02*
X137828571Y-114542857D01*
X137828571Y-113342857D02*
X137028571Y-114542857D01*
X138171428Y-113342857D02*
X138971428Y-113342857D01*
X138457142Y-114542857D01*
G04 #@! TO.C,X12*
X105957142Y-104342857D02*
X106757142Y-105542857D01*
X106757142Y-104342857D02*
X105957142Y-105542857D01*
X107842857Y-105542857D02*
X107157142Y-105542857D01*
X107500000Y-105542857D02*
X107500000Y-104342857D01*
X107385714Y-104514285D01*
X107271428Y-104628571D01*
X107157142Y-104685714D01*
X108300000Y-104457142D02*
X108357142Y-104400000D01*
X108471428Y-104342857D01*
X108757142Y-104342857D01*
X108871428Y-104400000D01*
X108928571Y-104457142D01*
X108985714Y-104571428D01*
X108985714Y-104685714D01*
X108928571Y-104857142D01*
X108242857Y-105542857D01*
X108985714Y-105542857D01*
G04 #@! TO.C,D3*
D13*
X87083333Y-97566666D02*
X87083333Y-96866666D01*
X87250000Y-96866666D01*
X87350000Y-96900000D01*
X87416666Y-96966666D01*
X87450000Y-97033333D01*
X87483333Y-97166666D01*
X87483333Y-97266666D01*
X87450000Y-97400000D01*
X87416666Y-97466666D01*
X87350000Y-97533333D01*
X87250000Y-97566666D01*
X87083333Y-97566666D01*
X87716666Y-96866666D02*
X88150000Y-96866666D01*
X87916666Y-97133333D01*
X88016666Y-97133333D01*
X88083333Y-97166666D01*
X88116666Y-97200000D01*
X88150000Y-97266666D01*
X88150000Y-97433333D01*
X88116666Y-97500000D01*
X88083333Y-97533333D01*
X88016666Y-97566666D01*
X87816666Y-97566666D01*
X87750000Y-97533333D01*
X87716666Y-97500000D01*
G04 #@! TO.C,R6*
X132883333Y-129316666D02*
X132650000Y-128983333D01*
X132483333Y-129316666D02*
X132483333Y-128616666D01*
X132750000Y-128616666D01*
X132816666Y-128650000D01*
X132850000Y-128683333D01*
X132883333Y-128750000D01*
X132883333Y-128850000D01*
X132850000Y-128916666D01*
X132816666Y-128950000D01*
X132750000Y-128983333D01*
X132483333Y-128983333D01*
X133483333Y-128616666D02*
X133350000Y-128616666D01*
X133283333Y-128650000D01*
X133250000Y-128683333D01*
X133183333Y-128783333D01*
X133150000Y-128916666D01*
X133150000Y-129183333D01*
X133183333Y-129250000D01*
X133216666Y-129283333D01*
X133283333Y-129316666D01*
X133416666Y-129316666D01*
X133483333Y-129283333D01*
X133516666Y-129250000D01*
X133550000Y-129183333D01*
X133550000Y-129016666D01*
X133516666Y-128950000D01*
X133483333Y-128916666D01*
X133416666Y-128883333D01*
X133283333Y-128883333D01*
X133216666Y-128916666D01*
X133183333Y-128950000D01*
X133150000Y-129016666D01*
G04 #@! TO.C,R8*
X137333333Y-129166666D02*
X137100000Y-128833333D01*
X136933333Y-129166666D02*
X136933333Y-128466666D01*
X137200000Y-128466666D01*
X137266666Y-128500000D01*
X137300000Y-128533333D01*
X137333333Y-128600000D01*
X137333333Y-128700000D01*
X137300000Y-128766666D01*
X137266666Y-128800000D01*
X137200000Y-128833333D01*
X136933333Y-128833333D01*
X137733333Y-128766666D02*
X137666666Y-128733333D01*
X137633333Y-128700000D01*
X137600000Y-128633333D01*
X137600000Y-128600000D01*
X137633333Y-128533333D01*
X137666666Y-128500000D01*
X137733333Y-128466666D01*
X137866666Y-128466666D01*
X137933333Y-128500000D01*
X137966666Y-128533333D01*
X138000000Y-128600000D01*
X138000000Y-128633333D01*
X137966666Y-128700000D01*
X137933333Y-128733333D01*
X137866666Y-128766666D01*
X137733333Y-128766666D01*
X137666666Y-128800000D01*
X137633333Y-128833333D01*
X137600000Y-128900000D01*
X137600000Y-129033333D01*
X137633333Y-129100000D01*
X137666666Y-129133333D01*
X137733333Y-129166666D01*
X137866666Y-129166666D01*
X137933333Y-129133333D01*
X137966666Y-129100000D01*
X138000000Y-129033333D01*
X138000000Y-128900000D01*
X137966666Y-128833333D01*
X137933333Y-128800000D01*
X137866666Y-128766666D01*
G04 #@! TO.C,R7*
X83433333Y-90466666D02*
X83200000Y-90133333D01*
X83033333Y-90466666D02*
X83033333Y-89766666D01*
X83300000Y-89766666D01*
X83366666Y-89800000D01*
X83400000Y-89833333D01*
X83433333Y-89900000D01*
X83433333Y-90000000D01*
X83400000Y-90066666D01*
X83366666Y-90100000D01*
X83300000Y-90133333D01*
X83033333Y-90133333D01*
X83666666Y-89766666D02*
X84133333Y-89766666D01*
X83833333Y-90466666D01*
G04 #@! TO.C,R9*
X88383333Y-90566666D02*
X88150000Y-90233333D01*
X87983333Y-90566666D02*
X87983333Y-89866666D01*
X88250000Y-89866666D01*
X88316666Y-89900000D01*
X88350000Y-89933333D01*
X88383333Y-90000000D01*
X88383333Y-90100000D01*
X88350000Y-90166666D01*
X88316666Y-90200000D01*
X88250000Y-90233333D01*
X87983333Y-90233333D01*
X88716666Y-90566666D02*
X88850000Y-90566666D01*
X88916666Y-90533333D01*
X88950000Y-90500000D01*
X89016666Y-90400000D01*
X89050000Y-90266666D01*
X89050000Y-90000000D01*
X89016666Y-89933333D01*
X88983333Y-89900000D01*
X88916666Y-89866666D01*
X88783333Y-89866666D01*
X88716666Y-89900000D01*
X88683333Y-89933333D01*
X88650000Y-90000000D01*
X88650000Y-90166666D01*
X88683333Y-90233333D01*
X88716666Y-90266666D01*
X88783333Y-90300000D01*
X88916666Y-90300000D01*
X88983333Y-90266666D01*
X89016666Y-90233333D01*
X89050000Y-90166666D01*
G04 #@! TO.C,D1*
X87083333Y-54566666D02*
X87083333Y-53866666D01*
X87250000Y-53866666D01*
X87350000Y-53900000D01*
X87416666Y-53966666D01*
X87450000Y-54033333D01*
X87483333Y-54166666D01*
X87483333Y-54266666D01*
X87450000Y-54400000D01*
X87416666Y-54466666D01*
X87350000Y-54533333D01*
X87250000Y-54566666D01*
X87083333Y-54566666D01*
X88150000Y-54566666D02*
X87750000Y-54566666D01*
X87950000Y-54566666D02*
X87950000Y-53866666D01*
X87883333Y-53966666D01*
X87816666Y-54033333D01*
X87750000Y-54066666D01*
G04 #@! TO.C,R4*
X88383333Y-47566666D02*
X88150000Y-47233333D01*
X87983333Y-47566666D02*
X87983333Y-46866666D01*
X88250000Y-46866666D01*
X88316666Y-46900000D01*
X88350000Y-46933333D01*
X88383333Y-47000000D01*
X88383333Y-47100000D01*
X88350000Y-47166666D01*
X88316666Y-47200000D01*
X88250000Y-47233333D01*
X87983333Y-47233333D01*
X88983333Y-47100000D02*
X88983333Y-47566666D01*
X88816666Y-46833333D02*
X88650000Y-47333333D01*
X89083333Y-47333333D01*
G04 #@! TO.C,R3*
X137333333Y-86166666D02*
X137100000Y-85833333D01*
X136933333Y-86166666D02*
X136933333Y-85466666D01*
X137200000Y-85466666D01*
X137266666Y-85500000D01*
X137300000Y-85533333D01*
X137333333Y-85600000D01*
X137333333Y-85700000D01*
X137300000Y-85766666D01*
X137266666Y-85800000D01*
X137200000Y-85833333D01*
X136933333Y-85833333D01*
X137566666Y-85466666D02*
X138000000Y-85466666D01*
X137766666Y-85733333D01*
X137866666Y-85733333D01*
X137933333Y-85766666D01*
X137966666Y-85800000D01*
X138000000Y-85866666D01*
X138000000Y-86033333D01*
X137966666Y-86100000D01*
X137933333Y-86133333D01*
X137866666Y-86166666D01*
X137666666Y-86166666D01*
X137600000Y-86133333D01*
X137566666Y-86100000D01*
G04 #@! TO.C,R2*
X83433333Y-47466666D02*
X83200000Y-47133333D01*
X83033333Y-47466666D02*
X83033333Y-46766666D01*
X83300000Y-46766666D01*
X83366666Y-46800000D01*
X83400000Y-46833333D01*
X83433333Y-46900000D01*
X83433333Y-47000000D01*
X83400000Y-47066666D01*
X83366666Y-47100000D01*
X83300000Y-47133333D01*
X83033333Y-47133333D01*
X83700000Y-46833333D02*
X83733333Y-46800000D01*
X83800000Y-46766666D01*
X83966666Y-46766666D01*
X84033333Y-46800000D01*
X84066666Y-46833333D01*
X84100000Y-46900000D01*
X84100000Y-46966666D01*
X84066666Y-47066666D01*
X83666666Y-47466666D01*
X84100000Y-47466666D01*
G04 #@! TO.C,R1*
X132883333Y-86316666D02*
X132650000Y-85983333D01*
X132483333Y-86316666D02*
X132483333Y-85616666D01*
X132750000Y-85616666D01*
X132816666Y-85650000D01*
X132850000Y-85683333D01*
X132883333Y-85750000D01*
X132883333Y-85850000D01*
X132850000Y-85916666D01*
X132816666Y-85950000D01*
X132750000Y-85983333D01*
X132483333Y-85983333D01*
X133550000Y-86316666D02*
X133150000Y-86316666D01*
X133350000Y-86316666D02*
X133350000Y-85616666D01*
X133283333Y-85716666D01*
X133216666Y-85783333D01*
X133150000Y-85816666D01*
G04 #@! TO.C,X9*
D16*
X81028571Y-104342857D02*
X81828571Y-105542857D01*
X81828571Y-104342857D02*
X81028571Y-105542857D01*
X82342857Y-105542857D02*
X82571428Y-105542857D01*
X82685714Y-105485714D01*
X82742857Y-105428571D01*
X82857142Y-105257142D01*
X82914285Y-105028571D01*
X82914285Y-104571428D01*
X82857142Y-104457142D01*
X82800000Y-104400000D01*
X82685714Y-104342857D01*
X82457142Y-104342857D01*
X82342857Y-104400000D01*
X82285714Y-104457142D01*
X82228571Y-104571428D01*
X82228571Y-104857142D01*
X82285714Y-104971428D01*
X82342857Y-105028571D01*
X82457142Y-105085714D01*
X82685714Y-105085714D01*
X82800000Y-105028571D01*
X82857142Y-104971428D01*
X82914285Y-104857142D01*
G04 #@! TO.C,X11*
D13*
X111170000Y-85616666D02*
X111636666Y-86316666D01*
X111636666Y-85616666D02*
X111170000Y-86316666D01*
X112270000Y-86316666D02*
X111870000Y-86316666D01*
X112070000Y-86316666D02*
X112070000Y-85616666D01*
X112003333Y-85716666D01*
X111936666Y-85783333D01*
X111870000Y-85816666D01*
X112936666Y-86316666D02*
X112536666Y-86316666D01*
X112736666Y-86316666D02*
X112736666Y-85616666D01*
X112670000Y-85716666D01*
X112603333Y-85783333D01*
X112536666Y-85816666D01*
G04 #@! TO.C,X13*
X111130000Y-128616666D02*
X111596666Y-129316666D01*
X111596666Y-128616666D02*
X111130000Y-129316666D01*
X112230000Y-129316666D02*
X111830000Y-129316666D01*
X112030000Y-129316666D02*
X112030000Y-128616666D01*
X111963333Y-128716666D01*
X111896666Y-128783333D01*
X111830000Y-128816666D01*
X112463333Y-128616666D02*
X112896666Y-128616666D01*
X112663333Y-128883333D01*
X112763333Y-128883333D01*
X112830000Y-128916666D01*
X112863333Y-128950000D01*
X112896666Y-129016666D01*
X112896666Y-129183333D01*
X112863333Y-129250000D01*
X112830000Y-129283333D01*
X112763333Y-129316666D01*
X112563333Y-129316666D01*
X112496666Y-129283333D01*
X112463333Y-129250000D01*
G04 #@! TD*
M02*
