G04 #@! TF.GenerationSoftware,KiCad,Pcbnew,(5.0.0)*
G04 #@! TF.CreationDate,2019-02-27T15:58:09+02:00*
G04 #@! TF.ProjectId,tp_x2_EKA,74705F78325F454B412E6B696361645F,3*
G04 #@! TF.SameCoordinates,Original*
G04 #@! TF.FileFunction,Legend,Top*
G04 #@! TF.FilePolarity,Positive*
%FSLAX46Y46*%
G04 Gerber Fmt 4.6, Leading zero omitted, Abs format (unit mm)*
G04 Created by KiCad (PCBNEW (5.0.0)) date 02/27/19 15:58:09*
%MOMM*%
%LPD*%
G01*
G04 APERTURE LIST*
%ADD10C,0.100000*%
%ADD11C,0.120000*%
%ADD12C,0.150000*%
%ADD13C,0.250000*%
%ADD14C,0.400000*%
%ADD15C,0.300000*%
G04 APERTURE END LIST*
D10*
X145000000Y-58250000D02*
X145000000Y-60500000D01*
X141250000Y-60500000D02*
X141250000Y-58250000D01*
X141250000Y-58250000D02*
X145000000Y-58250000D01*
X145000000Y-60500000D02*
X141250000Y-60500000D01*
X145000000Y-106750000D02*
X145000000Y-109000000D01*
X141250000Y-106750000D02*
X145000000Y-106750000D01*
X141250000Y-109000000D02*
X141250000Y-106750000D01*
X145000000Y-109000000D02*
X141250000Y-109000000D01*
X117500000Y-114500000D02*
G75*
G03X117500000Y-114500000I-3750000J0D01*
G01*
X207250000Y-114750000D02*
G75*
G03X207250000Y-114750000I-3750000J0D01*
G01*
X207250000Y-67000000D02*
G75*
G03X207250000Y-67000000I-3750000J0D01*
G01*
X117750000Y-66500000D02*
G75*
G03X117750000Y-66500000I-3750000J0D01*
G01*
X215750000Y-115250000D02*
X215750000Y-117500000D01*
X212000000Y-115250000D02*
X215750000Y-115250000D01*
X212000000Y-117500000D02*
X212000000Y-115250000D01*
X215750000Y-117500000D02*
X212000000Y-117500000D01*
X211750000Y-69500000D02*
X211750000Y-67250000D01*
X215000000Y-67250000D02*
X215000000Y-69500000D01*
X215000000Y-69500000D02*
X211750000Y-69500000D01*
X211750000Y-67250000D02*
X215000000Y-67250000D01*
X97500000Y-114500000D02*
X97500000Y-112250000D01*
X101250000Y-112250000D02*
X101250000Y-114500000D01*
X101250000Y-114500000D02*
X97500000Y-114500000D01*
X97500000Y-112250000D02*
X101250000Y-112250000D01*
X97750000Y-66500000D02*
X97750000Y-64250000D01*
X101000000Y-66500000D02*
X97750000Y-66500000D01*
X101000000Y-64250000D02*
X101000000Y-66500000D01*
X97750000Y-64250000D02*
X101000000Y-64250000D01*
D11*
G04 #@! TO.C,D2*
X212400000Y-125000000D02*
X206700000Y-125000000D01*
X212400000Y-128000000D02*
X212400000Y-125000000D01*
X206700000Y-128000000D02*
X212400000Y-128000000D01*
D12*
G04 #@! TO.C,X14*
X213250000Y-127400000D02*
X213250000Y-118150000D01*
X213250000Y-118150000D02*
X215750000Y-118150000D01*
X215750000Y-118150000D02*
X215750000Y-127400000D01*
X215750000Y-127400000D02*
X213250000Y-127400000D01*
G04 #@! TO.C,X26*
X138700000Y-105150000D02*
X138700000Y-102650000D01*
X147950000Y-105150000D02*
X138700000Y-105150000D01*
X147950000Y-102650000D02*
X147950000Y-105150000D01*
X138700000Y-102650000D02*
X147950000Y-102650000D01*
G04 #@! TO.C,X6*
X173000000Y-123750000D02*
X173000000Y-126250000D01*
X163750000Y-123750000D02*
X173000000Y-123750000D01*
X163750000Y-126250000D02*
X163750000Y-123750000D01*
X173000000Y-126250000D02*
X163750000Y-126250000D01*
G04 #@! TO.C,X17*
X100650000Y-111460000D02*
X98150000Y-111460000D01*
X100650000Y-102210000D02*
X100650000Y-111460000D01*
X98150000Y-102210000D02*
X100650000Y-102210000D01*
X98150000Y-111460000D02*
X98150000Y-102210000D01*
D11*
G04 #@! TO.C,R1*
X207050000Y-128630000D02*
X209050000Y-128630000D01*
X209050000Y-130770000D02*
X207050000Y-130770000D01*
D10*
G04 #@! TO.C,X5*
X156000000Y-109900000D02*
X156000000Y-98900000D01*
X170000000Y-109900000D02*
X156000000Y-109900000D01*
X170000000Y-98900000D02*
X170000000Y-109900000D01*
X156000000Y-98900000D02*
X170000000Y-98900000D01*
G04 #@! TO.C,X4*
X140500000Y-122000000D02*
X154500000Y-122000000D01*
X154500000Y-122000000D02*
X154500000Y-133000000D01*
X154500000Y-133000000D02*
X140500000Y-133000000D01*
X140500000Y-133000000D02*
X140500000Y-122000000D01*
D11*
G04 #@! TO.C,R4*
X104950000Y-99430000D02*
X106950000Y-99430000D01*
X106950000Y-101570000D02*
X104950000Y-101570000D01*
G04 #@! TO.C,D1*
X107400000Y-102000000D02*
X101700000Y-102000000D01*
X101700000Y-102000000D02*
X101700000Y-105000000D01*
X101700000Y-105000000D02*
X107400000Y-105000000D01*
G04 #@! TO.C,R2*
X101950000Y-101570000D02*
X99950000Y-101570000D01*
X99950000Y-99430000D02*
X101950000Y-99430000D01*
G04 #@! TO.C,R3*
X213950000Y-130770000D02*
X211950000Y-130770000D01*
X211950000Y-128630000D02*
X213950000Y-128630000D01*
D12*
G04 #@! TO.C,X3*
X173000000Y-78250000D02*
X163750000Y-78250000D01*
X163750000Y-78250000D02*
X163750000Y-75750000D01*
X163750000Y-75750000D02*
X173000000Y-75750000D01*
X173000000Y-75750000D02*
X173000000Y-78250000D01*
D11*
G04 #@! TO.C,D4*
X206700000Y-80000000D02*
X212400000Y-80000000D01*
X212400000Y-80000000D02*
X212400000Y-77000000D01*
X212400000Y-77000000D02*
X206700000Y-77000000D01*
D12*
G04 #@! TO.C,X7*
X215750000Y-79400000D02*
X213250000Y-79400000D01*
X215750000Y-70150000D02*
X215750000Y-79400000D01*
X213250000Y-70150000D02*
X215750000Y-70150000D01*
X213250000Y-79400000D02*
X213250000Y-70150000D01*
G04 #@! TO.C,X12*
X138700000Y-54650000D02*
X147950000Y-54650000D01*
X147950000Y-54650000D02*
X147950000Y-57150000D01*
X147950000Y-57150000D02*
X138700000Y-57150000D01*
X138700000Y-57150000D02*
X138700000Y-54650000D01*
D11*
G04 #@! TO.C,D3*
X101700000Y-57000000D02*
X107400000Y-57000000D01*
X101700000Y-54000000D02*
X101700000Y-57000000D01*
X107400000Y-54000000D02*
X101700000Y-54000000D01*
G04 #@! TO.C,R6*
X209050000Y-82770000D02*
X207050000Y-82770000D01*
X207050000Y-80630000D02*
X209050000Y-80630000D01*
G04 #@! TO.C,R8*
X211950000Y-80630000D02*
X213950000Y-80630000D01*
X213950000Y-82770000D02*
X211950000Y-82770000D01*
G04 #@! TO.C,R7*
X99950000Y-51430000D02*
X101950000Y-51430000D01*
X101950000Y-53570000D02*
X99950000Y-53570000D01*
G04 #@! TO.C,R9*
X106950000Y-53570000D02*
X104950000Y-53570000D01*
X104950000Y-51430000D02*
X106950000Y-51430000D01*
D12*
G04 #@! TO.C,X9*
X98150000Y-63460000D02*
X98150000Y-54210000D01*
X98150000Y-54210000D02*
X100650000Y-54210000D01*
X100650000Y-54210000D02*
X100650000Y-63460000D01*
X100650000Y-63460000D02*
X98150000Y-63460000D01*
D10*
G04 #@! TO.C,X1*
X140500000Y-85000000D02*
X140500000Y-74000000D01*
X154500000Y-85000000D02*
X140500000Y-85000000D01*
X154500000Y-74000000D02*
X154500000Y-85000000D01*
X140500000Y-74000000D02*
X154500000Y-74000000D01*
G04 #@! TO.C,X2*
X156000000Y-50900000D02*
X170000000Y-50900000D01*
X170000000Y-50900000D02*
X170000000Y-61900000D01*
X170000000Y-61900000D02*
X156000000Y-61900000D01*
X156000000Y-61900000D02*
X156000000Y-50900000D01*
G04 #@! TO.C,D2*
D12*
X207983333Y-124816666D02*
X207983333Y-124116666D01*
X208150000Y-124116666D01*
X208250000Y-124150000D01*
X208316666Y-124216666D01*
X208350000Y-124283333D01*
X208383333Y-124416666D01*
X208383333Y-124516666D01*
X208350000Y-124650000D01*
X208316666Y-124716666D01*
X208250000Y-124783333D01*
X208150000Y-124816666D01*
X207983333Y-124816666D01*
X208650000Y-124183333D02*
X208683333Y-124150000D01*
X208750000Y-124116666D01*
X208916666Y-124116666D01*
X208983333Y-124150000D01*
X209016666Y-124183333D01*
X209050000Y-124250000D01*
X209050000Y-124316666D01*
X209016666Y-124416666D01*
X208616666Y-124816666D01*
X209050000Y-124816666D01*
G04 #@! TO.C,X14*
D13*
X212457142Y-115842857D02*
X213257142Y-117042857D01*
X213257142Y-115842857D02*
X212457142Y-117042857D01*
X214342857Y-117042857D02*
X213657142Y-117042857D01*
X214000000Y-117042857D02*
X214000000Y-115842857D01*
X213885714Y-116014285D01*
X213771428Y-116128571D01*
X213657142Y-116185714D01*
X215371428Y-116242857D02*
X215371428Y-117042857D01*
X215085714Y-115785714D02*
X214800000Y-116642857D01*
X215542857Y-116642857D01*
G04 #@! TO.C,X26*
X141697142Y-107342857D02*
X142497142Y-108542857D01*
X142497142Y-107342857D02*
X141697142Y-108542857D01*
X142897142Y-107457142D02*
X142954285Y-107400000D01*
X143068571Y-107342857D01*
X143354285Y-107342857D01*
X143468571Y-107400000D01*
X143525714Y-107457142D01*
X143582857Y-107571428D01*
X143582857Y-107685714D01*
X143525714Y-107857142D01*
X142840000Y-108542857D01*
X143582857Y-108542857D01*
X144611428Y-107342857D02*
X144382857Y-107342857D01*
X144268571Y-107400000D01*
X144211428Y-107457142D01*
X144097142Y-107628571D01*
X144040000Y-107857142D01*
X144040000Y-108314285D01*
X144097142Y-108428571D01*
X144154285Y-108485714D01*
X144268571Y-108542857D01*
X144497142Y-108542857D01*
X144611428Y-108485714D01*
X144668571Y-108428571D01*
X144725714Y-108314285D01*
X144725714Y-108028571D01*
X144668571Y-107914285D01*
X144611428Y-107857142D01*
X144497142Y-107800000D01*
X144268571Y-107800000D01*
X144154285Y-107857142D01*
X144097142Y-107914285D01*
X144040000Y-108028571D01*
G04 #@! TO.C,V2.1*
D14*
X110852380Y-113604761D02*
X111519047Y-115604761D01*
X112185714Y-113604761D01*
X112757142Y-113795238D02*
X112852380Y-113700000D01*
X113042857Y-113604761D01*
X113519047Y-113604761D01*
X113709523Y-113700000D01*
X113804761Y-113795238D01*
X113900000Y-113985714D01*
X113900000Y-114176190D01*
X113804761Y-114461904D01*
X112661904Y-115604761D01*
X113900000Y-115604761D01*
X114757142Y-115414285D02*
X114852380Y-115509523D01*
X114757142Y-115604761D01*
X114661904Y-115509523D01*
X114757142Y-115414285D01*
X114757142Y-115604761D01*
X116757142Y-115604761D02*
X115614285Y-115604761D01*
X116185714Y-115604761D02*
X116185714Y-113604761D01*
X115995238Y-113890476D01*
X115804761Y-114080952D01*
X115614285Y-114176190D01*
G04 #@! TO.C,V2.2*
X200395360Y-113813508D02*
X201062027Y-115813508D01*
X201728694Y-113813508D01*
X202300122Y-114003985D02*
X202395360Y-113908747D01*
X202585837Y-113813508D01*
X203062027Y-113813508D01*
X203252503Y-113908747D01*
X203347741Y-114003985D01*
X203442980Y-114194461D01*
X203442980Y-114384937D01*
X203347741Y-114670651D01*
X202204884Y-115813508D01*
X203442980Y-115813508D01*
X204300122Y-115623032D02*
X204395360Y-115718270D01*
X204300122Y-115813508D01*
X204204884Y-115718270D01*
X204300122Y-115623032D01*
X204300122Y-115813508D01*
X205157265Y-114003985D02*
X205252503Y-113908747D01*
X205442980Y-113813508D01*
X205919170Y-113813508D01*
X206109646Y-113908747D01*
X206204884Y-114003985D01*
X206300122Y-114194461D01*
X206300122Y-114384937D01*
X206204884Y-114670651D01*
X205062027Y-115813508D01*
X206300122Y-115813508D01*
G04 #@! TO.C,X6*
D13*
X167530476Y-121452380D02*
X168197142Y-122452380D01*
X168197142Y-121452380D02*
X167530476Y-122452380D01*
X169006666Y-121452380D02*
X168816190Y-121452380D01*
X168720952Y-121500000D01*
X168673333Y-121547619D01*
X168578095Y-121690476D01*
X168530476Y-121880952D01*
X168530476Y-122261904D01*
X168578095Y-122357142D01*
X168625714Y-122404761D01*
X168720952Y-122452380D01*
X168911428Y-122452380D01*
X169006666Y-122404761D01*
X169054285Y-122357142D01*
X169101904Y-122261904D01*
X169101904Y-122023809D01*
X169054285Y-121928571D01*
X169006666Y-121880952D01*
X168911428Y-121833333D01*
X168720952Y-121833333D01*
X168625714Y-121880952D01*
X168578095Y-121928571D01*
X168530476Y-122023809D01*
G04 #@! TO.C,X17*
X97857142Y-112842857D02*
X98657142Y-114042857D01*
X98657142Y-112842857D02*
X97857142Y-114042857D01*
X99742857Y-114042857D02*
X99057142Y-114042857D01*
X99400000Y-114042857D02*
X99400000Y-112842857D01*
X99285714Y-113014285D01*
X99171428Y-113128571D01*
X99057142Y-113185714D01*
X100142857Y-112842857D02*
X100942857Y-112842857D01*
X100428571Y-114042857D01*
G04 #@! TO.C,R1*
D12*
X208383333Y-132016666D02*
X208150000Y-131683333D01*
X207983333Y-132016666D02*
X207983333Y-131316666D01*
X208250000Y-131316666D01*
X208316666Y-131350000D01*
X208350000Y-131383333D01*
X208383333Y-131450000D01*
X208383333Y-131550000D01*
X208350000Y-131616666D01*
X208316666Y-131650000D01*
X208250000Y-131683333D01*
X207983333Y-131683333D01*
X209050000Y-132016666D02*
X208650000Y-132016666D01*
X208850000Y-132016666D02*
X208850000Y-131316666D01*
X208783333Y-131416666D01*
X208716666Y-131483333D01*
X208650000Y-131516666D01*
G04 #@! TO.C,X5*
D15*
X161785714Y-112178571D02*
X162785714Y-113678571D01*
X162785714Y-112178571D02*
X161785714Y-113678571D01*
X164071428Y-112178571D02*
X163357142Y-112178571D01*
X163285714Y-112892857D01*
X163357142Y-112821428D01*
X163500000Y-112750000D01*
X163857142Y-112750000D01*
X164000000Y-112821428D01*
X164071428Y-112892857D01*
X164142857Y-113035714D01*
X164142857Y-113392857D01*
X164071428Y-113535714D01*
X164000000Y-113607142D01*
X163857142Y-113678571D01*
X163500000Y-113678571D01*
X163357142Y-113607142D01*
X163285714Y-113535714D01*
G04 #@! TO.C,X4*
X147285714Y-118678571D02*
X148285714Y-120178571D01*
X148285714Y-118678571D02*
X147285714Y-120178571D01*
X149500000Y-119178571D02*
X149500000Y-120178571D01*
X149142857Y-118607142D02*
X148785714Y-119678571D01*
X149714285Y-119678571D01*
G04 #@! TO.C,R4*
D12*
X105783333Y-99066666D02*
X105550000Y-98733333D01*
X105383333Y-99066666D02*
X105383333Y-98366666D01*
X105650000Y-98366666D01*
X105716666Y-98400000D01*
X105750000Y-98433333D01*
X105783333Y-98500000D01*
X105783333Y-98600000D01*
X105750000Y-98666666D01*
X105716666Y-98700000D01*
X105650000Y-98733333D01*
X105383333Y-98733333D01*
X106383333Y-98600000D02*
X106383333Y-99066666D01*
X106216666Y-98333333D02*
X106050000Y-98833333D01*
X106483333Y-98833333D01*
G04 #@! TO.C,D1*
X104483333Y-106066666D02*
X104483333Y-105366666D01*
X104650000Y-105366666D01*
X104750000Y-105400000D01*
X104816666Y-105466666D01*
X104850000Y-105533333D01*
X104883333Y-105666666D01*
X104883333Y-105766666D01*
X104850000Y-105900000D01*
X104816666Y-105966666D01*
X104750000Y-106033333D01*
X104650000Y-106066666D01*
X104483333Y-106066666D01*
X105550000Y-106066666D02*
X105150000Y-106066666D01*
X105350000Y-106066666D02*
X105350000Y-105366666D01*
X105283333Y-105466666D01*
X105216666Y-105533333D01*
X105150000Y-105566666D01*
G04 #@! TO.C,R2*
X100833333Y-98966666D02*
X100600000Y-98633333D01*
X100433333Y-98966666D02*
X100433333Y-98266666D01*
X100700000Y-98266666D01*
X100766666Y-98300000D01*
X100800000Y-98333333D01*
X100833333Y-98400000D01*
X100833333Y-98500000D01*
X100800000Y-98566666D01*
X100766666Y-98600000D01*
X100700000Y-98633333D01*
X100433333Y-98633333D01*
X101100000Y-98333333D02*
X101133333Y-98300000D01*
X101200000Y-98266666D01*
X101366666Y-98266666D01*
X101433333Y-98300000D01*
X101466666Y-98333333D01*
X101500000Y-98400000D01*
X101500000Y-98466666D01*
X101466666Y-98566666D01*
X101066666Y-98966666D01*
X101500000Y-98966666D01*
G04 #@! TO.C,R3*
X212833333Y-131866666D02*
X212600000Y-131533333D01*
X212433333Y-131866666D02*
X212433333Y-131166666D01*
X212700000Y-131166666D01*
X212766666Y-131200000D01*
X212800000Y-131233333D01*
X212833333Y-131300000D01*
X212833333Y-131400000D01*
X212800000Y-131466666D01*
X212766666Y-131500000D01*
X212700000Y-131533333D01*
X212433333Y-131533333D01*
X213066666Y-131166666D02*
X213500000Y-131166666D01*
X213266666Y-131433333D01*
X213366666Y-131433333D01*
X213433333Y-131466666D01*
X213466666Y-131500000D01*
X213500000Y-131566666D01*
X213500000Y-131733333D01*
X213466666Y-131800000D01*
X213433333Y-131833333D01*
X213366666Y-131866666D01*
X213166666Y-131866666D01*
X213100000Y-131833333D01*
X213066666Y-131800000D01*
G04 #@! TO.C,X3*
D13*
X167690476Y-73452380D02*
X168357142Y-74452380D01*
X168357142Y-73452380D02*
X167690476Y-74452380D01*
X168642857Y-73452380D02*
X169261904Y-73452380D01*
X168928571Y-73833333D01*
X169071428Y-73833333D01*
X169166666Y-73880952D01*
X169214285Y-73928571D01*
X169261904Y-74023809D01*
X169261904Y-74261904D01*
X169214285Y-74357142D01*
X169166666Y-74404761D01*
X169071428Y-74452380D01*
X168785714Y-74452380D01*
X168690476Y-74404761D01*
X168642857Y-74357142D01*
G04 #@! TO.C,V1.2*
D14*
X200395360Y-65813508D02*
X201062027Y-67813508D01*
X201728694Y-65813508D01*
X203442980Y-67813508D02*
X202300122Y-67813508D01*
X202871551Y-67813508D02*
X202871551Y-65813508D01*
X202681075Y-66099223D01*
X202490599Y-66289699D01*
X202300122Y-66384937D01*
X204300122Y-67623032D02*
X204395360Y-67718270D01*
X204300122Y-67813508D01*
X204204884Y-67718270D01*
X204300122Y-67623032D01*
X204300122Y-67813508D01*
X205157265Y-66003985D02*
X205252503Y-65908747D01*
X205442980Y-65813508D01*
X205919170Y-65813508D01*
X206109646Y-65908747D01*
X206204884Y-66003985D01*
X206300122Y-66194461D01*
X206300122Y-66384937D01*
X206204884Y-66670651D01*
X205062027Y-67813508D01*
X206300122Y-67813508D01*
G04 #@! TO.C,V1.1*
X110852380Y-65604761D02*
X111519047Y-67604761D01*
X112185714Y-65604761D01*
X113900000Y-67604761D02*
X112757142Y-67604761D01*
X113328571Y-67604761D02*
X113328571Y-65604761D01*
X113138095Y-65890476D01*
X112947619Y-66080952D01*
X112757142Y-66176190D01*
X114757142Y-67414285D02*
X114852380Y-67509523D01*
X114757142Y-67604761D01*
X114661904Y-67509523D01*
X114757142Y-67414285D01*
X114757142Y-67604761D01*
X116757142Y-67604761D02*
X115614285Y-67604761D01*
X116185714Y-67604761D02*
X116185714Y-65604761D01*
X115995238Y-65890476D01*
X115804761Y-66080952D01*
X115614285Y-66176190D01*
G04 #@! TO.C,D4*
D12*
X207983333Y-76816666D02*
X207983333Y-76116666D01*
X208150000Y-76116666D01*
X208250000Y-76150000D01*
X208316666Y-76216666D01*
X208350000Y-76283333D01*
X208383333Y-76416666D01*
X208383333Y-76516666D01*
X208350000Y-76650000D01*
X208316666Y-76716666D01*
X208250000Y-76783333D01*
X208150000Y-76816666D01*
X207983333Y-76816666D01*
X208983333Y-76350000D02*
X208983333Y-76816666D01*
X208816666Y-76083333D02*
X208650000Y-76583333D01*
X209083333Y-76583333D01*
G04 #@! TO.C,X7*
D13*
X212528571Y-67842857D02*
X213328571Y-69042857D01*
X213328571Y-67842857D02*
X212528571Y-69042857D01*
X213671428Y-67842857D02*
X214471428Y-67842857D01*
X213957142Y-69042857D01*
G04 #@! TO.C,X12*
X141697142Y-58842857D02*
X142497142Y-60042857D01*
X142497142Y-58842857D02*
X141697142Y-60042857D01*
X143582857Y-60042857D02*
X142897142Y-60042857D01*
X143240000Y-60042857D02*
X143240000Y-58842857D01*
X143125714Y-59014285D01*
X143011428Y-59128571D01*
X142897142Y-59185714D01*
X144040000Y-58957142D02*
X144097142Y-58900000D01*
X144211428Y-58842857D01*
X144497142Y-58842857D01*
X144611428Y-58900000D01*
X144668571Y-58957142D01*
X144725714Y-59071428D01*
X144725714Y-59185714D01*
X144668571Y-59357142D01*
X143982857Y-60042857D01*
X144725714Y-60042857D01*
G04 #@! TO.C,D3*
D12*
X104483333Y-58066666D02*
X104483333Y-57366666D01*
X104650000Y-57366666D01*
X104750000Y-57400000D01*
X104816666Y-57466666D01*
X104850000Y-57533333D01*
X104883333Y-57666666D01*
X104883333Y-57766666D01*
X104850000Y-57900000D01*
X104816666Y-57966666D01*
X104750000Y-58033333D01*
X104650000Y-58066666D01*
X104483333Y-58066666D01*
X105116666Y-57366666D02*
X105550000Y-57366666D01*
X105316666Y-57633333D01*
X105416666Y-57633333D01*
X105483333Y-57666666D01*
X105516666Y-57700000D01*
X105550000Y-57766666D01*
X105550000Y-57933333D01*
X105516666Y-58000000D01*
X105483333Y-58033333D01*
X105416666Y-58066666D01*
X105216666Y-58066666D01*
X105150000Y-58033333D01*
X105116666Y-58000000D01*
G04 #@! TO.C,R6*
X208383333Y-84016666D02*
X208150000Y-83683333D01*
X207983333Y-84016666D02*
X207983333Y-83316666D01*
X208250000Y-83316666D01*
X208316666Y-83350000D01*
X208350000Y-83383333D01*
X208383333Y-83450000D01*
X208383333Y-83550000D01*
X208350000Y-83616666D01*
X208316666Y-83650000D01*
X208250000Y-83683333D01*
X207983333Y-83683333D01*
X208983333Y-83316666D02*
X208850000Y-83316666D01*
X208783333Y-83350000D01*
X208750000Y-83383333D01*
X208683333Y-83483333D01*
X208650000Y-83616666D01*
X208650000Y-83883333D01*
X208683333Y-83950000D01*
X208716666Y-83983333D01*
X208783333Y-84016666D01*
X208916666Y-84016666D01*
X208983333Y-83983333D01*
X209016666Y-83950000D01*
X209050000Y-83883333D01*
X209050000Y-83716666D01*
X209016666Y-83650000D01*
X208983333Y-83616666D01*
X208916666Y-83583333D01*
X208783333Y-83583333D01*
X208716666Y-83616666D01*
X208683333Y-83650000D01*
X208650000Y-83716666D01*
G04 #@! TO.C,R8*
X212833333Y-83866666D02*
X212600000Y-83533333D01*
X212433333Y-83866666D02*
X212433333Y-83166666D01*
X212700000Y-83166666D01*
X212766666Y-83200000D01*
X212800000Y-83233333D01*
X212833333Y-83300000D01*
X212833333Y-83400000D01*
X212800000Y-83466666D01*
X212766666Y-83500000D01*
X212700000Y-83533333D01*
X212433333Y-83533333D01*
X213233333Y-83466666D02*
X213166666Y-83433333D01*
X213133333Y-83400000D01*
X213100000Y-83333333D01*
X213100000Y-83300000D01*
X213133333Y-83233333D01*
X213166666Y-83200000D01*
X213233333Y-83166666D01*
X213366666Y-83166666D01*
X213433333Y-83200000D01*
X213466666Y-83233333D01*
X213500000Y-83300000D01*
X213500000Y-83333333D01*
X213466666Y-83400000D01*
X213433333Y-83433333D01*
X213366666Y-83466666D01*
X213233333Y-83466666D01*
X213166666Y-83500000D01*
X213133333Y-83533333D01*
X213100000Y-83600000D01*
X213100000Y-83733333D01*
X213133333Y-83800000D01*
X213166666Y-83833333D01*
X213233333Y-83866666D01*
X213366666Y-83866666D01*
X213433333Y-83833333D01*
X213466666Y-83800000D01*
X213500000Y-83733333D01*
X213500000Y-83600000D01*
X213466666Y-83533333D01*
X213433333Y-83500000D01*
X213366666Y-83466666D01*
G04 #@! TO.C,R7*
X100833333Y-50966666D02*
X100600000Y-50633333D01*
X100433333Y-50966666D02*
X100433333Y-50266666D01*
X100700000Y-50266666D01*
X100766666Y-50300000D01*
X100800000Y-50333333D01*
X100833333Y-50400000D01*
X100833333Y-50500000D01*
X100800000Y-50566666D01*
X100766666Y-50600000D01*
X100700000Y-50633333D01*
X100433333Y-50633333D01*
X101066666Y-50266666D02*
X101533333Y-50266666D01*
X101233333Y-50966666D01*
G04 #@! TO.C,R9*
X105783333Y-51066666D02*
X105550000Y-50733333D01*
X105383333Y-51066666D02*
X105383333Y-50366666D01*
X105650000Y-50366666D01*
X105716666Y-50400000D01*
X105750000Y-50433333D01*
X105783333Y-50500000D01*
X105783333Y-50600000D01*
X105750000Y-50666666D01*
X105716666Y-50700000D01*
X105650000Y-50733333D01*
X105383333Y-50733333D01*
X106116666Y-51066666D02*
X106250000Y-51066666D01*
X106316666Y-51033333D01*
X106350000Y-51000000D01*
X106416666Y-50900000D01*
X106450000Y-50766666D01*
X106450000Y-50500000D01*
X106416666Y-50433333D01*
X106383333Y-50400000D01*
X106316666Y-50366666D01*
X106183333Y-50366666D01*
X106116666Y-50400000D01*
X106083333Y-50433333D01*
X106050000Y-50500000D01*
X106050000Y-50666666D01*
X106083333Y-50733333D01*
X106116666Y-50766666D01*
X106183333Y-50800000D01*
X106316666Y-50800000D01*
X106383333Y-50766666D01*
X106416666Y-50733333D01*
X106450000Y-50666666D01*
G04 #@! TO.C,X9*
D13*
X98428571Y-64842857D02*
X99228571Y-66042857D01*
X99228571Y-64842857D02*
X98428571Y-66042857D01*
X99742857Y-66042857D02*
X99971428Y-66042857D01*
X100085714Y-65985714D01*
X100142857Y-65928571D01*
X100257142Y-65757142D01*
X100314285Y-65528571D01*
X100314285Y-65071428D01*
X100257142Y-64957142D01*
X100200000Y-64900000D01*
X100085714Y-64842857D01*
X99857142Y-64842857D01*
X99742857Y-64900000D01*
X99685714Y-64957142D01*
X99628571Y-65071428D01*
X99628571Y-65357142D01*
X99685714Y-65471428D01*
X99742857Y-65528571D01*
X99857142Y-65585714D01*
X100085714Y-65585714D01*
X100200000Y-65528571D01*
X100257142Y-65471428D01*
X100314285Y-65357142D01*
G04 #@! TO.C,X1*
D15*
X147285714Y-70678571D02*
X148285714Y-72178571D01*
X148285714Y-70678571D02*
X147285714Y-72178571D01*
X149642857Y-72178571D02*
X148785714Y-72178571D01*
X149214285Y-72178571D02*
X149214285Y-70678571D01*
X149071428Y-70892857D01*
X148928571Y-71035714D01*
X148785714Y-71107142D01*
G04 #@! TO.C,X2*
X161785714Y-63678571D02*
X162785714Y-65178571D01*
X162785714Y-63678571D02*
X161785714Y-65178571D01*
X163285714Y-63821428D02*
X163357142Y-63750000D01*
X163500000Y-63678571D01*
X163857142Y-63678571D01*
X164000000Y-63750000D01*
X164071428Y-63821428D01*
X164142857Y-63964285D01*
X164142857Y-64107142D01*
X164071428Y-64321428D01*
X163214285Y-65178571D01*
X164142857Y-65178571D01*
G04 #@! TD*
M02*
