M48
;DRILL file {KiCad (5.0.0)} date 11/05/18 15:09:04
;FORMAT={-:-/ absolute / metric / decimal}
FMAT,2
METRIC,TZ
T1C1.000
T2C1.200
T3C1.500
T4C1.600
T5C2.000
T6C8.000
%
G90
G05
M71
T1
X91.Y-57.
X91.Y-100.
X96.Y-49.
X96.Y-92.
X96.5Y-61.5
X96.5Y-104.5
X100.5Y-60.5
X100.5Y-72.5
X100.5Y-103.5
X100.5Y-116.
X103.Y-68.5
X103.Y-111.5
X105.Y-49.
X105.Y-92.
X107.Y-67.5
X107.Y-110.
X108.Y-55.5
X108.Y-98.5
X109.5Y-51.
X109.5Y-94.5
X116.Y-61.
X116.Y-104.
X117.5Y-72.5
X117.5Y-115.5
X120.5Y-59.5
X120.5Y-103.
X122.5Y-72.5
X122.5Y-115.5
X125.5Y-84.5
X125.5Y-127.5
X130.5Y-76.
X130.5Y-119.
T2
X118.005Y-64.399
X118.005Y-107.399
X111.5Y-111.5
X111.5Y-68.5
T3
X139.Y-117.86
X139.Y-122.94
X104.92Y-59.8
X110.Y-59.8
X109.96Y-84.
X115.04Y-84.
X109.92Y-127.
X115.Y-127.
X139.Y-74.86
X139.Y-79.94
X82.Y-52.8
X82.Y-57.88
X104.92Y-102.8
X110.Y-102.8
X82.Y-95.92
X82.Y-101.
T5
X114.Y-48.9
X114.Y-56.
X119.Y-48.9
X119.Y-56.
X124.Y-48.9
X124.Y-56.
X93.Y-120.
X93.Y-127.1
X98.Y-120.
X98.Y-127.1
X103.Y-120.
X103.Y-127.1
X114.Y-91.9
X114.Y-99.
X119.Y-91.9
X119.Y-99.
X124.Y-91.9
X124.Y-99.
X93.1Y-76.7
X93.1Y-83.8
X98.1Y-76.7
X98.1Y-83.8
X103.1Y-76.7
X103.1Y-83.8
T6
X100.4Y-53.9
X120.4Y-122.
X120.4Y-78.9
X100.3Y-96.9
X110.3Y-74.6
X110.4Y-117.6
T4
X85.334Y-110.005G85X87.205Y-114.208
G05
X88.159Y-103.649G85X93.871Y-102.642
G05
X95.904Y-115.263G85X99.063Y-110.399
G05
X124.796Y-103.537G85X121.637Y-108.401
G05
X132.541Y-115.151G85X126.829Y-116.158
G05
X135.366Y-108.795G85X133.495Y-104.592
G05
X85.334Y-67.005G85X87.205Y-71.208
G05
X88.159Y-60.649G85X93.871Y-59.642
G05
X95.904Y-72.263G85X99.063Y-67.399
G05
X124.796Y-60.537G85X121.637Y-65.401
G05
X132.541Y-72.151G85X126.829Y-73.158
G05
X135.366Y-65.795G85X133.495Y-61.592
G05
T0
M30
