G04 #@! TF.GenerationSoftware,KiCad,Pcbnew,(5.0.0)*
G04 #@! TF.CreationDate,2018-10-17T16:15:22+03:00*
G04 #@! TF.ProjectId,tp_x2,74705F78322E6B696361645F70636200,rev?*
G04 #@! TF.SameCoordinates,Original*
G04 #@! TF.FileFunction,Copper,L1,Top,Signal*
G04 #@! TF.FilePolarity,Positive*
%FSLAX46Y46*%
G04 Gerber Fmt 4.6, Leading zero omitted, Abs format (unit mm)*
G04 Created by KiCad (PCBNEW (5.0.0)) date 10/17/18 16:15:22*
%MOMM*%
%LPD*%
G01*
G04 APERTURE LIST*
G04 #@! TA.AperFunction,ComponentPad*
%ADD10C,2.800000*%
G04 #@! TD*
G04 #@! TA.AperFunction,Conductor*
%ADD11C,2.800000*%
G04 #@! TD*
G04 #@! TA.AperFunction,ComponentPad*
%ADD12C,1.600000*%
G04 #@! TD*
G04 #@! TA.AperFunction,Conductor*
%ADD13C,1.600000*%
G04 #@! TD*
G04 #@! TA.AperFunction,ComponentPad*
%ADD14O,1.800000X3.600000*%
G04 #@! TD*
G04 #@! TA.AperFunction,ComponentPad*
%ADD15O,3.600000X1.800000*%
G04 #@! TD*
G04 #@! TA.AperFunction,ComponentPad*
%ADD16C,2.499360*%
G04 #@! TD*
G04 #@! TA.AperFunction,SMDPad,CuDef*
%ADD17R,1.500000X2.700000*%
G04 #@! TD*
G04 #@! TA.AperFunction,SMDPad,CuDef*
%ADD18R,0.900000X1.700000*%
G04 #@! TD*
G04 #@! TA.AperFunction,Conductor*
%ADD19C,0.600000*%
G04 #@! TD*
G04 #@! TA.AperFunction,Conductor*
%ADD20C,0.254000*%
G04 #@! TD*
G04 APERTURE END LIST*
D10*
G04 #@! TO.P,V1.1,2*
G04 #@! TO.N,Net-(D4-Pad1)*
X134430862Y-106693548D03*
D11*
G04 #@! TD*
G04 #@! TO.N,Net-(D4-Pad1)*
G04 #@! TO.C,V1.1*
X135447704Y-108977412D02*
X133414020Y-104409684D01*
D10*
G04 #@! TO.P,V1.1,1*
G04 #@! TO.N,/PH3*
X123216375Y-105968774D03*
D11*
G04 #@! TD*
G04 #@! TO.N,/PH3*
G04 #@! TO.C,V1.1*
X124850292Y-103452762D02*
X121582458Y-108484786D01*
D10*
G04 #@! TO.P,V1.1,3*
G04 #@! TO.N,/LD3*
X129684811Y-115654296D03*
D11*
G04 #@! TD*
G04 #@! TO.N,/LD3*
G04 #@! TO.C,V1.1*
X132639234Y-115133351D02*
X126730388Y-116175241D01*
D10*
G04 #@! TO.P,V1.2,2*
G04 #@! TO.N,Net-(D3-Pad1)*
X86269138Y-112106452D03*
D11*
G04 #@! TD*
G04 #@! TO.N,Net-(D3-Pad1)*
G04 #@! TO.C,V1.2*
X85252296Y-109822588D02*
X87285980Y-114390316D01*
D10*
G04 #@! TO.P,V1.2,1*
G04 #@! TO.N,/LD3*
X97483625Y-112831226D03*
D11*
G04 #@! TD*
G04 #@! TO.N,/LD3*
G04 #@! TO.C,V1.2*
X95849708Y-115347238D02*
X99117542Y-110315214D01*
D10*
G04 #@! TO.P,V1.2,3*
G04 #@! TO.N,/PH3*
X91015189Y-103145704D03*
D11*
G04 #@! TD*
G04 #@! TO.N,/PH3*
G04 #@! TO.C,V1.2*
X88060766Y-103666649D02*
X93969612Y-102624759D01*
D10*
G04 #@! TO.P,V2.1,2*
G04 #@! TO.N,Net-(D2-Pad1)*
X134430862Y-63693548D03*
D11*
G04 #@! TD*
G04 #@! TO.N,Net-(D2-Pad1)*
G04 #@! TO.C,V2.1*
X135447704Y-65977412D02*
X133414020Y-61409684D01*
D10*
G04 #@! TO.P,V2.1,1*
G04 #@! TO.N,/PH1*
X123216375Y-62968774D03*
D11*
G04 #@! TD*
G04 #@! TO.N,/PH1*
G04 #@! TO.C,V2.1*
X124850292Y-60452762D02*
X121582458Y-65484786D01*
D10*
G04 #@! TO.P,V2.1,3*
G04 #@! TO.N,/LD1*
X129684811Y-72654296D03*
D11*
G04 #@! TD*
G04 #@! TO.N,/LD1*
G04 #@! TO.C,V2.1*
X132639234Y-72133351D02*
X126730388Y-73175241D01*
D10*
G04 #@! TO.P,V2.2,2*
G04 #@! TO.N,Net-(D1-Pad1)*
X86269138Y-69106452D03*
D11*
G04 #@! TD*
G04 #@! TO.N,Net-(D1-Pad1)*
G04 #@! TO.C,V2.2*
X85252296Y-66822588D02*
X87285980Y-71390316D01*
D10*
G04 #@! TO.P,V2.2,1*
G04 #@! TO.N,/LD1*
X97483625Y-69831226D03*
D11*
G04 #@! TD*
G04 #@! TO.N,/LD1*
G04 #@! TO.C,V2.2*
X95849708Y-72347238D02*
X99117542Y-67315214D01*
D10*
G04 #@! TO.P,V2.2,3*
G04 #@! TO.N,/PH1*
X91015189Y-60145704D03*
D11*
G04 #@! TD*
G04 #@! TO.N,/PH1*
G04 #@! TO.C,V2.2*
X88060766Y-60666649D02*
X93969612Y-59624759D01*
D12*
G04 #@! TO.P,RV3,1*
G04 #@! TO.N,/LD3*
X111500000Y-111500000D03*
D13*
G04 #@! TD*
G04 #@! TO.N,/LD3*
G04 #@! TO.C,RV3*
X110934315Y-112065685D02*
X112065685Y-110934315D01*
D12*
G04 #@! TO.P,RV3,2*
G04 #@! TO.N,/PH3*
X118005382Y-107398781D03*
D13*
G04 #@! TD*
G04 #@! TO.N,/PH3*
G04 #@! TO.C,RV3*
X117439697Y-107964466D02*
X118571067Y-106833096D01*
D12*
G04 #@! TO.P,RV1,1*
G04 #@! TO.N,/LD1*
X111500000Y-68500000D03*
D13*
G04 #@! TD*
G04 #@! TO.N,/LD1*
G04 #@! TO.C,RV1*
X110934315Y-69065685D02*
X112065685Y-67934315D01*
D12*
G04 #@! TO.P,RV1,2*
G04 #@! TO.N,/PH1*
X118005382Y-64398781D03*
D13*
G04 #@! TD*
G04 #@! TO.N,/PH1*
G04 #@! TO.C,RV1*
X117439697Y-64964466D02*
X118571067Y-63833096D01*
D14*
G04 #@! TO.P,X14,1*
G04 #@! TO.N,/CTRL1B*
X139000000Y-74860000D03*
X139000000Y-79940000D03*
G04 #@! TD*
G04 #@! TO.P,X17,1*
G04 #@! TO.N,/CTRL1A*
X82000000Y-52800000D03*
X82000000Y-57880000D03*
G04 #@! TD*
D15*
G04 #@! TO.P,X3,1*
G04 #@! TO.N,/LD1*
X102500000Y-80000000D03*
X97420000Y-80000000D03*
G04 #@! TD*
G04 #@! TO.P,X6,1*
G04 #@! TO.N,/PH1*
X119080000Y-52500000D03*
X114000000Y-52500000D03*
G04 #@! TD*
G04 #@! TO.P,X26,1*
G04 #@! TO.N,/PH1*
X110000000Y-59800000D03*
X104920000Y-59800000D03*
G04 #@! TD*
D16*
G04 #@! TO.P,H39,1*
G04 #@! TO.N,/PH3*
X100500000Y-103500000D03*
G04 #@! TD*
G04 #@! TO.P,H28,1*
G04 #@! TO.N,/LD3*
X117500000Y-115500000D03*
G04 #@! TD*
G04 #@! TO.P,H34,1*
G04 #@! TO.N,/PH3*
X96500000Y-104500000D03*
G04 #@! TD*
G04 #@! TO.P,H33,1*
G04 #@! TO.N,/PH3*
X120500000Y-103000000D03*
G04 #@! TD*
G04 #@! TO.P,H32,1*
G04 #@! TO.N,/PH3*
X116000000Y-104000000D03*
G04 #@! TD*
G04 #@! TO.P,H37,1*
G04 #@! TO.N,/PH3*
X105000000Y-92000000D03*
G04 #@! TD*
G04 #@! TO.P,H30,1*
G04 #@! TO.N,/LD3*
X107000000Y-110000000D03*
G04 #@! TD*
G04 #@! TO.P,H27,1*
G04 #@! TO.N,/LD3*
X130500000Y-119000000D03*
G04 #@! TD*
G04 #@! TO.P,H24,1*
G04 #@! TO.N,/LD3*
X103000000Y-111500000D03*
G04 #@! TD*
G04 #@! TO.P,H23,1*
G04 #@! TO.N,/LD3*
X100500000Y-116000000D03*
G04 #@! TD*
G04 #@! TO.P,H22,1*
G04 #@! TO.N,/LD3*
X125500000Y-127500000D03*
G04 #@! TD*
G04 #@! TO.P,H20,1*
G04 #@! TO.N,/PH1*
X96000000Y-49000000D03*
G04 #@! TD*
G04 #@! TO.P,H38,1*
G04 #@! TO.N,/PH3*
X96000000Y-92000000D03*
G04 #@! TD*
G04 #@! TO.P,H9,1*
G04 #@! TO.N,/LD1*
X117500000Y-72500000D03*
G04 #@! TD*
G04 #@! TO.P,H29,1*
G04 #@! TO.N,/LD3*
X122500000Y-115500000D03*
G04 #@! TD*
G04 #@! TO.P,H10,1*
G04 #@! TO.N,/LD1*
X130500000Y-76000000D03*
G04 #@! TD*
G04 #@! TO.P,H19,1*
G04 #@! TO.N,/PH1*
X120500000Y-59500000D03*
G04 #@! TD*
G04 #@! TO.P,H1,1*
G04 #@! TO.N,/LD1*
X103000000Y-68500000D03*
G04 #@! TD*
G04 #@! TO.P,H2,1*
G04 #@! TO.N,/LD1*
X107000000Y-67500000D03*
G04 #@! TD*
G04 #@! TO.P,H3,1*
G04 #@! TO.N,/LD1*
X125500000Y-84500000D03*
G04 #@! TD*
G04 #@! TO.P,H5,1*
G04 #@! TO.N,/LD1*
X122500000Y-72500000D03*
G04 #@! TD*
G04 #@! TO.P,H13,1*
G04 #@! TO.N,/PH1*
X116000000Y-61000000D03*
G04 #@! TD*
G04 #@! TO.P,H18,1*
G04 #@! TO.N,/PH1*
X100500000Y-60500000D03*
G04 #@! TD*
G04 #@! TO.P,H16,1*
G04 #@! TO.N,/PH1*
X105000000Y-49000000D03*
G04 #@! TD*
G04 #@! TO.P,H17,1*
G04 #@! TO.N,/PH1*
X91000000Y-57000000D03*
G04 #@! TD*
G04 #@! TO.P,H14,1*
G04 #@! TO.N,/PH1*
X96500000Y-61500000D03*
G04 #@! TD*
G04 #@! TO.P,H40,1*
G04 #@! TO.N,/PH3*
X91000000Y-100000000D03*
G04 #@! TD*
G04 #@! TO.P,H6,1*
G04 #@! TO.N,/LD1*
X100500000Y-72500000D03*
G04 #@! TD*
D15*
G04 #@! TO.P,X10,1*
G04 #@! TO.N,/PH3*
X119080000Y-95500000D03*
X114000000Y-95500000D03*
G04 #@! TD*
G04 #@! TO.P,X8,1*
G04 #@! TO.N,/LD3*
X97420000Y-123500000D03*
X102500000Y-123500000D03*
G04 #@! TD*
D10*
G04 #@! TO.P,X1,1*
G04 #@! TO.N,/LD3*
X93000000Y-120000000D03*
X98000000Y-120000000D03*
X103000000Y-120000000D03*
X93000000Y-127100000D03*
X98000000Y-127100000D03*
X103000000Y-127100000D03*
G04 #@! TD*
G04 #@! TO.P,X2,1*
G04 #@! TO.N,/PH3*
X114000000Y-91900000D03*
X119000000Y-91900000D03*
X124000000Y-91900000D03*
X114000000Y-99000000D03*
X119000000Y-99000000D03*
X124000000Y-99000000D03*
G04 #@! TD*
G04 #@! TO.P,X4,1*
G04 #@! TO.N,/LD1*
X93100000Y-76700000D03*
X98100000Y-76700000D03*
X103100000Y-76700000D03*
X93100000Y-83800000D03*
X98100000Y-83800000D03*
X103100000Y-83800000D03*
G04 #@! TD*
G04 #@! TO.P,X5,1*
G04 #@! TO.N,/PH1*
X114000000Y-48900000D03*
X119000000Y-48900000D03*
X124000000Y-48900000D03*
X114000000Y-56000000D03*
X119000000Y-56000000D03*
X124000000Y-56000000D03*
G04 #@! TD*
D17*
G04 #@! TO.P,D4,1*
G04 #@! TO.N,Net-(D4-Pad1)*
X136000000Y-124000000D03*
G04 #@! TO.P,D4,2*
G04 #@! TO.N,/LD3*
X131200000Y-124000000D03*
G04 #@! TD*
G04 #@! TO.P,D2,2*
G04 #@! TO.N,/LD1*
X131200000Y-81000000D03*
G04 #@! TO.P,D2,1*
G04 #@! TO.N,Net-(D2-Pad1)*
X136000000Y-81000000D03*
G04 #@! TD*
D14*
G04 #@! TO.P,X7,1*
G04 #@! TO.N,Net-(X7-Pad1)*
X139000000Y-122940000D03*
X139000000Y-117860000D03*
G04 #@! TD*
D15*
G04 #@! TO.P,X12,1*
G04 #@! TO.N,/PH3*
X110000000Y-102800000D03*
X104920000Y-102800000D03*
G04 #@! TD*
D17*
G04 #@! TO.P,D3,2*
G04 #@! TO.N,/PH3*
X90000000Y-95000000D03*
G04 #@! TO.P,D3,1*
G04 #@! TO.N,Net-(D3-Pad1)*
X85200000Y-95000000D03*
G04 #@! TD*
D18*
G04 #@! TO.P,R6,1*
G04 #@! TO.N,/LD3*
X131100000Y-127000000D03*
G04 #@! TO.P,R6,2*
G04 #@! TO.N,Net-(D4-Pad1)*
X134000000Y-127000000D03*
G04 #@! TD*
G04 #@! TO.P,R8,1*
G04 #@! TO.N,N/C*
X138900000Y-127000000D03*
G04 #@! TO.P,R8,2*
G04 #@! TO.N,Net-(D4-Pad1)*
X136000000Y-127000000D03*
G04 #@! TD*
G04 #@! TO.P,R7,2*
G04 #@! TO.N,Net-(D3-Pad1)*
X85000000Y-92000000D03*
G04 #@! TO.P,R7,1*
G04 #@! TO.N,/CTRL3A*
X82100000Y-92000000D03*
G04 #@! TD*
G04 #@! TO.P,R9,2*
G04 #@! TO.N,Net-(D3-Pad1)*
X87100000Y-92000000D03*
G04 #@! TO.P,R9,1*
G04 #@! TO.N,/PH3*
X90000000Y-92000000D03*
G04 #@! TD*
D17*
G04 #@! TO.P,D1,1*
G04 #@! TO.N,Net-(D1-Pad1)*
X85200000Y-52000000D03*
G04 #@! TO.P,D1,2*
G04 #@! TO.N,/PH1*
X90000000Y-52000000D03*
G04 #@! TD*
D18*
G04 #@! TO.P,R4,1*
G04 #@! TO.N,/PH1*
X90000000Y-49000000D03*
G04 #@! TO.P,R4,2*
G04 #@! TO.N,Net-(D1-Pad1)*
X87100000Y-49000000D03*
G04 #@! TD*
G04 #@! TO.P,R3,2*
G04 #@! TO.N,Net-(D2-Pad1)*
X136000000Y-84000000D03*
G04 #@! TO.P,R3,1*
G04 #@! TO.N,/CTRL1B*
X138900000Y-84000000D03*
G04 #@! TD*
G04 #@! TO.P,R2,1*
G04 #@! TO.N,/CTRL1A*
X82100000Y-49000000D03*
G04 #@! TO.P,R2,2*
G04 #@! TO.N,Net-(D1-Pad1)*
X85000000Y-49000000D03*
G04 #@! TD*
G04 #@! TO.P,R1,2*
G04 #@! TO.N,Net-(D2-Pad1)*
X134000000Y-84000000D03*
G04 #@! TO.P,R1,1*
G04 #@! TO.N,/LD1*
X131100000Y-84000000D03*
G04 #@! TD*
D14*
G04 #@! TO.P,X9,1*
G04 #@! TO.N,/CTRL3A*
X82000000Y-95920000D03*
X82000000Y-101000000D03*
G04 #@! TD*
D15*
G04 #@! TO.P,X11,1*
G04 #@! TO.N,/LD1*
X115040000Y-84000000D03*
X109960000Y-84000000D03*
G04 #@! TD*
G04 #@! TO.P,X13,1*
G04 #@! TO.N,/LD3*
X109920000Y-127000000D03*
X115000000Y-127000000D03*
G04 #@! TD*
D16*
G04 #@! TO.P,H11,1*
G04 #@! TO.N,/PH1*
X108000000Y-55500000D03*
G04 #@! TD*
G04 #@! TO.P,H12,1*
G04 #@! TO.N,/PH1*
X109500000Y-51000000D03*
G04 #@! TD*
G04 #@! TO.P,H15,1*
G04 #@! TO.N,/PH1*
X124000000Y-52500000D03*
G04 #@! TD*
G04 #@! TO.P,H31,1*
G04 #@! TO.N,/PH3*
X108000000Y-98500000D03*
G04 #@! TD*
G04 #@! TO.P,H35,1*
G04 #@! TO.N,/PH3*
X124000000Y-95500000D03*
G04 #@! TD*
G04 #@! TO.P,H36,1*
G04 #@! TO.N,/PH3*
X109500000Y-94500000D03*
G04 #@! TD*
D19*
G04 #@! TO.N,/CTRL1A*
X82100000Y-49100000D02*
X82000000Y-49000000D01*
X82100000Y-52900000D02*
X82100000Y-49100000D01*
X82000000Y-58000000D02*
X82000000Y-53000000D01*
X82000000Y-53000000D02*
X82100000Y-52900000D01*
G04 #@! TO.N,/CTRL1B*
X139000000Y-74920000D02*
X139000000Y-80000000D01*
X138900000Y-83900000D02*
X139000000Y-84000000D01*
X139000000Y-80000000D02*
X138900000Y-80100000D01*
X138900000Y-80100000D02*
X138900000Y-83900000D01*
G04 #@! TO.N,/CTRL3A*
X82000000Y-101000000D02*
X82000000Y-96000000D01*
X82000000Y-96000000D02*
X82100000Y-95900000D01*
X82100000Y-92100000D02*
X82000000Y-92000000D01*
X82100000Y-95900000D02*
X82100000Y-92100000D01*
G04 #@! TO.N,Net-(X7-Pad1)*
X138900000Y-126900000D02*
X139000000Y-127000000D01*
X139000000Y-123000000D02*
X138900000Y-123100000D01*
X138900000Y-123100000D02*
X138900000Y-126900000D01*
X139000000Y-117920000D02*
X139000000Y-123000000D01*
G04 #@! TD*
D20*
G04 #@! TO.N,/PH1*
G36*
X92873000Y-55000000D02*
X92882667Y-55048601D01*
X92910197Y-55089803D01*
X92951399Y-55117333D01*
X93000000Y-55127000D01*
X94000000Y-55127000D01*
X94048601Y-55117333D01*
X94089803Y-55089803D01*
X94117333Y-55048601D01*
X94127000Y-55000000D01*
X94127000Y-53375993D01*
X95627694Y-53375993D01*
X95631048Y-54337033D01*
X95827578Y-55277769D01*
X96209256Y-56159773D01*
X96760489Y-56947015D01*
X97458760Y-57607337D01*
X98275545Y-58113766D01*
X99177480Y-58445613D01*
X100127719Y-58589323D01*
X101087448Y-58539026D01*
X102017460Y-58296776D01*
X102879766Y-57872469D01*
X103639141Y-57283437D01*
X104264564Y-56553743D01*
X104730489Y-55713194D01*
X105017880Y-54796126D01*
X105115000Y-53840000D01*
X105114884Y-53806804D01*
X105011092Y-52851380D01*
X104717305Y-51936340D01*
X104245524Y-51099064D01*
X103615021Y-50373754D01*
X102851553Y-49790038D01*
X101986306Y-49371762D01*
X101054625Y-49136010D01*
X100094569Y-49092414D01*
X99145355Y-49242755D01*
X98245760Y-49580891D01*
X97432530Y-50093009D01*
X96738885Y-50758190D01*
X96193162Y-51549261D01*
X95817651Y-52433908D01*
X95627694Y-53375993D01*
X94127000Y-53375993D01*
X94127000Y-46735000D01*
X126873000Y-46735000D01*
X126873000Y-67765000D01*
X119916380Y-67765000D01*
X114081303Y-62902436D01*
X114037778Y-62878749D01*
X114000000Y-62873000D01*
X113884592Y-62873000D01*
X113786783Y-62807646D01*
X113572388Y-62765000D01*
X113500000Y-62750601D01*
X113427612Y-62765000D01*
X97072388Y-62765000D01*
X97000000Y-62750601D01*
X96927612Y-62765000D01*
X96713217Y-62807646D01*
X96615408Y-62873000D01*
X87052606Y-62873000D01*
X86127000Y-61947394D01*
X86127000Y-59052606D01*
X88552606Y-56627000D01*
X89000000Y-56627000D01*
X89048601Y-56617333D01*
X89089803Y-56589803D01*
X89117333Y-56548601D01*
X89127000Y-56500000D01*
X89127000Y-53711443D01*
X89174214Y-53731000D01*
X89777750Y-53731000D01*
X89873000Y-53635750D01*
X89873000Y-52127000D01*
X90127000Y-52127000D01*
X90127000Y-53635750D01*
X90222250Y-53731000D01*
X90825786Y-53731000D01*
X90965820Y-53672996D01*
X91072996Y-53565819D01*
X91131000Y-53425785D01*
X91131000Y-52222250D01*
X91035750Y-52127000D01*
X90127000Y-52127000D01*
X89873000Y-52127000D01*
X89853000Y-52127000D01*
X89853000Y-51873000D01*
X89873000Y-51873000D01*
X89873000Y-50364250D01*
X90127000Y-50364250D01*
X90127000Y-51873000D01*
X91035750Y-51873000D01*
X91131000Y-51777750D01*
X91131000Y-50574215D01*
X91072996Y-50434181D01*
X90965820Y-50327004D01*
X90825786Y-50269000D01*
X90222250Y-50269000D01*
X90127000Y-50364250D01*
X89873000Y-50364250D01*
X89777750Y-50269000D01*
X89174214Y-50269000D01*
X89127000Y-50288557D01*
X89127000Y-49222250D01*
X89169000Y-49222250D01*
X89169000Y-49925785D01*
X89227004Y-50065819D01*
X89334180Y-50172996D01*
X89474214Y-50231000D01*
X89777750Y-50231000D01*
X89873000Y-50135750D01*
X89873000Y-49127000D01*
X90127000Y-49127000D01*
X90127000Y-50135750D01*
X90222250Y-50231000D01*
X90525786Y-50231000D01*
X90665820Y-50172996D01*
X90772996Y-50065819D01*
X90831000Y-49925785D01*
X90831000Y-49222250D01*
X90735750Y-49127000D01*
X90127000Y-49127000D01*
X89873000Y-49127000D01*
X89264250Y-49127000D01*
X89169000Y-49222250D01*
X89127000Y-49222250D01*
X89127000Y-48074215D01*
X89169000Y-48074215D01*
X89169000Y-48777750D01*
X89264250Y-48873000D01*
X89873000Y-48873000D01*
X89873000Y-47864250D01*
X90127000Y-47864250D01*
X90127000Y-48873000D01*
X90735750Y-48873000D01*
X90831000Y-48777750D01*
X90831000Y-48074215D01*
X90772996Y-47934181D01*
X90665820Y-47827004D01*
X90525786Y-47769000D01*
X90222250Y-47769000D01*
X90127000Y-47864250D01*
X89873000Y-47864250D01*
X89777750Y-47769000D01*
X89474214Y-47769000D01*
X89334180Y-47827004D01*
X89227004Y-47934181D01*
X89169000Y-48074215D01*
X89127000Y-48074215D01*
X89127000Y-46735000D01*
X92873000Y-46735000D01*
X92873000Y-55000000D01*
X92873000Y-55000000D01*
G37*
X92873000Y-55000000D02*
X92882667Y-55048601D01*
X92910197Y-55089803D01*
X92951399Y-55117333D01*
X93000000Y-55127000D01*
X94000000Y-55127000D01*
X94048601Y-55117333D01*
X94089803Y-55089803D01*
X94117333Y-55048601D01*
X94127000Y-55000000D01*
X94127000Y-53375993D01*
X95627694Y-53375993D01*
X95631048Y-54337033D01*
X95827578Y-55277769D01*
X96209256Y-56159773D01*
X96760489Y-56947015D01*
X97458760Y-57607337D01*
X98275545Y-58113766D01*
X99177480Y-58445613D01*
X100127719Y-58589323D01*
X101087448Y-58539026D01*
X102017460Y-58296776D01*
X102879766Y-57872469D01*
X103639141Y-57283437D01*
X104264564Y-56553743D01*
X104730489Y-55713194D01*
X105017880Y-54796126D01*
X105115000Y-53840000D01*
X105114884Y-53806804D01*
X105011092Y-52851380D01*
X104717305Y-51936340D01*
X104245524Y-51099064D01*
X103615021Y-50373754D01*
X102851553Y-49790038D01*
X101986306Y-49371762D01*
X101054625Y-49136010D01*
X100094569Y-49092414D01*
X99145355Y-49242755D01*
X98245760Y-49580891D01*
X97432530Y-50093009D01*
X96738885Y-50758190D01*
X96193162Y-51549261D01*
X95817651Y-52433908D01*
X95627694Y-53375993D01*
X94127000Y-53375993D01*
X94127000Y-46735000D01*
X126873000Y-46735000D01*
X126873000Y-67765000D01*
X119916380Y-67765000D01*
X114081303Y-62902436D01*
X114037778Y-62878749D01*
X114000000Y-62873000D01*
X113884592Y-62873000D01*
X113786783Y-62807646D01*
X113572388Y-62765000D01*
X113500000Y-62750601D01*
X113427612Y-62765000D01*
X97072388Y-62765000D01*
X97000000Y-62750601D01*
X96927612Y-62765000D01*
X96713217Y-62807646D01*
X96615408Y-62873000D01*
X87052606Y-62873000D01*
X86127000Y-61947394D01*
X86127000Y-59052606D01*
X88552606Y-56627000D01*
X89000000Y-56627000D01*
X89048601Y-56617333D01*
X89089803Y-56589803D01*
X89117333Y-56548601D01*
X89127000Y-56500000D01*
X89127000Y-53711443D01*
X89174214Y-53731000D01*
X89777750Y-53731000D01*
X89873000Y-53635750D01*
X89873000Y-52127000D01*
X90127000Y-52127000D01*
X90127000Y-53635750D01*
X90222250Y-53731000D01*
X90825786Y-53731000D01*
X90965820Y-53672996D01*
X91072996Y-53565819D01*
X91131000Y-53425785D01*
X91131000Y-52222250D01*
X91035750Y-52127000D01*
X90127000Y-52127000D01*
X89873000Y-52127000D01*
X89853000Y-52127000D01*
X89853000Y-51873000D01*
X89873000Y-51873000D01*
X89873000Y-50364250D01*
X90127000Y-50364250D01*
X90127000Y-51873000D01*
X91035750Y-51873000D01*
X91131000Y-51777750D01*
X91131000Y-50574215D01*
X91072996Y-50434181D01*
X90965820Y-50327004D01*
X90825786Y-50269000D01*
X90222250Y-50269000D01*
X90127000Y-50364250D01*
X89873000Y-50364250D01*
X89777750Y-50269000D01*
X89174214Y-50269000D01*
X89127000Y-50288557D01*
X89127000Y-49222250D01*
X89169000Y-49222250D01*
X89169000Y-49925785D01*
X89227004Y-50065819D01*
X89334180Y-50172996D01*
X89474214Y-50231000D01*
X89777750Y-50231000D01*
X89873000Y-50135750D01*
X89873000Y-49127000D01*
X90127000Y-49127000D01*
X90127000Y-50135750D01*
X90222250Y-50231000D01*
X90525786Y-50231000D01*
X90665820Y-50172996D01*
X90772996Y-50065819D01*
X90831000Y-49925785D01*
X90831000Y-49222250D01*
X90735750Y-49127000D01*
X90127000Y-49127000D01*
X89873000Y-49127000D01*
X89264250Y-49127000D01*
X89169000Y-49222250D01*
X89127000Y-49222250D01*
X89127000Y-48074215D01*
X89169000Y-48074215D01*
X89169000Y-48777750D01*
X89264250Y-48873000D01*
X89873000Y-48873000D01*
X89873000Y-47864250D01*
X90127000Y-47864250D01*
X90127000Y-48873000D01*
X90735750Y-48873000D01*
X90831000Y-48777750D01*
X90831000Y-48074215D01*
X90772996Y-47934181D01*
X90665820Y-47827004D01*
X90525786Y-47769000D01*
X90222250Y-47769000D01*
X90127000Y-47864250D01*
X89873000Y-47864250D01*
X89777750Y-47769000D01*
X89474214Y-47769000D01*
X89334180Y-47827004D01*
X89227004Y-47934181D01*
X89169000Y-48074215D01*
X89127000Y-48074215D01*
X89127000Y-46735000D01*
X92873000Y-46735000D01*
X92873000Y-55000000D01*
G04 #@! TO.N,/LD1*
G36*
X115918697Y-70097564D02*
X115962222Y-70121251D01*
X116000000Y-70127000D01*
X116115408Y-70127000D01*
X116213217Y-70192354D01*
X116500000Y-70249399D01*
X116572388Y-70235000D01*
X128427612Y-70235000D01*
X128500000Y-70249399D01*
X128572388Y-70235000D01*
X128786783Y-70192354D01*
X128884592Y-70127000D01*
X133947394Y-70127000D01*
X134873000Y-71052606D01*
X134873000Y-73947394D01*
X131910197Y-76910197D01*
X131882667Y-76951399D01*
X131873000Y-77000000D01*
X131873000Y-79223000D01*
X131579750Y-79223000D01*
X131473000Y-79329750D01*
X131473000Y-80727000D01*
X131493000Y-80727000D01*
X131493000Y-81273000D01*
X131473000Y-81273000D01*
X131473000Y-82670250D01*
X131525750Y-82723000D01*
X131431750Y-82723000D01*
X131325000Y-82829750D01*
X131325000Y-83727000D01*
X131393000Y-83727000D01*
X131393000Y-84273000D01*
X131325000Y-84273000D01*
X131325000Y-85170250D01*
X131431750Y-85277000D01*
X131634935Y-85277000D01*
X131791876Y-85211993D01*
X131873000Y-85130869D01*
X131873000Y-86265000D01*
X129127000Y-86265000D01*
X129127000Y-84379750D01*
X130223000Y-84379750D01*
X130223000Y-84934936D01*
X130288007Y-85091876D01*
X130408124Y-85211993D01*
X130565065Y-85277000D01*
X130768250Y-85277000D01*
X130875000Y-85170250D01*
X130875000Y-84273000D01*
X130329750Y-84273000D01*
X130223000Y-84379750D01*
X129127000Y-84379750D01*
X129127000Y-81379750D01*
X130023000Y-81379750D01*
X130023000Y-82434936D01*
X130088007Y-82591876D01*
X130208124Y-82711993D01*
X130365065Y-82777000D01*
X130434697Y-82777000D01*
X130408124Y-82788007D01*
X130288007Y-82908124D01*
X130223000Y-83065064D01*
X130223000Y-83620250D01*
X130329750Y-83727000D01*
X130875000Y-83727000D01*
X130875000Y-82829750D01*
X130821250Y-82776000D01*
X130927000Y-82670250D01*
X130927000Y-81273000D01*
X130129750Y-81273000D01*
X130023000Y-81379750D01*
X129127000Y-81379750D01*
X129127000Y-79565064D01*
X130023000Y-79565064D01*
X130023000Y-80620250D01*
X130129750Y-80727000D01*
X130927000Y-80727000D01*
X130927000Y-79329750D01*
X130820250Y-79223000D01*
X130365065Y-79223000D01*
X130208124Y-79288007D01*
X130088007Y-79408124D01*
X130023000Y-79565064D01*
X129127000Y-79565064D01*
X129127000Y-78000000D01*
X129117333Y-77951399D01*
X129089803Y-77910197D01*
X129048601Y-77882667D01*
X129000000Y-77873000D01*
X128000000Y-77873000D01*
X127951399Y-77882667D01*
X127910197Y-77910197D01*
X127882667Y-77951399D01*
X127873000Y-78000000D01*
X127873000Y-86265000D01*
X90127000Y-86265000D01*
X90127000Y-76041298D01*
X91527221Y-74115993D01*
X105597694Y-74115993D01*
X105601048Y-75077033D01*
X105797578Y-76017769D01*
X106179256Y-76899773D01*
X106730489Y-77687015D01*
X107428760Y-78347337D01*
X108245545Y-78853766D01*
X109147480Y-79185613D01*
X110097719Y-79329323D01*
X111057448Y-79279026D01*
X111987460Y-79036776D01*
X112849766Y-78612469D01*
X112948358Y-78535993D01*
X115667694Y-78535993D01*
X115671048Y-79497033D01*
X115867578Y-80437769D01*
X116249256Y-81319773D01*
X116800489Y-82107015D01*
X117498760Y-82767337D01*
X118315545Y-83273766D01*
X119217480Y-83605613D01*
X120167719Y-83749323D01*
X121127448Y-83699026D01*
X122057460Y-83456776D01*
X122919766Y-83032469D01*
X123679141Y-82443437D01*
X124304564Y-81713743D01*
X124770489Y-80873194D01*
X125057880Y-79956126D01*
X125155000Y-79000000D01*
X125154884Y-78966804D01*
X125051092Y-78011380D01*
X124757305Y-77096340D01*
X124285524Y-76259064D01*
X123655021Y-75533754D01*
X122891553Y-74950038D01*
X122026306Y-74531762D01*
X121094625Y-74296010D01*
X120134569Y-74252414D01*
X119185355Y-74402755D01*
X118285760Y-74740891D01*
X117472530Y-75253009D01*
X116778885Y-75918190D01*
X116233162Y-76709261D01*
X115857651Y-77593908D01*
X115667694Y-78535993D01*
X112948358Y-78535993D01*
X113609141Y-78023437D01*
X114234564Y-77293743D01*
X114700489Y-76453194D01*
X114987880Y-75536126D01*
X115085000Y-74580000D01*
X115084884Y-74546804D01*
X114981092Y-73591380D01*
X114687305Y-72676340D01*
X114215524Y-71839064D01*
X113585021Y-71113754D01*
X112821553Y-70530038D01*
X111956306Y-70111762D01*
X111024625Y-69876010D01*
X110064569Y-69832414D01*
X109115355Y-69982755D01*
X108215760Y-70320891D01*
X107402530Y-70833009D01*
X106708885Y-71498190D01*
X106163162Y-72289261D01*
X105787651Y-73173908D01*
X105597694Y-74115993D01*
X91527221Y-74115993D01*
X97986126Y-65235000D01*
X110083620Y-65235000D01*
X115918697Y-70097564D01*
X115918697Y-70097564D01*
G37*
X115918697Y-70097564D02*
X115962222Y-70121251D01*
X116000000Y-70127000D01*
X116115408Y-70127000D01*
X116213217Y-70192354D01*
X116500000Y-70249399D01*
X116572388Y-70235000D01*
X128427612Y-70235000D01*
X128500000Y-70249399D01*
X128572388Y-70235000D01*
X128786783Y-70192354D01*
X128884592Y-70127000D01*
X133947394Y-70127000D01*
X134873000Y-71052606D01*
X134873000Y-73947394D01*
X131910197Y-76910197D01*
X131882667Y-76951399D01*
X131873000Y-77000000D01*
X131873000Y-79223000D01*
X131579750Y-79223000D01*
X131473000Y-79329750D01*
X131473000Y-80727000D01*
X131493000Y-80727000D01*
X131493000Y-81273000D01*
X131473000Y-81273000D01*
X131473000Y-82670250D01*
X131525750Y-82723000D01*
X131431750Y-82723000D01*
X131325000Y-82829750D01*
X131325000Y-83727000D01*
X131393000Y-83727000D01*
X131393000Y-84273000D01*
X131325000Y-84273000D01*
X131325000Y-85170250D01*
X131431750Y-85277000D01*
X131634935Y-85277000D01*
X131791876Y-85211993D01*
X131873000Y-85130869D01*
X131873000Y-86265000D01*
X129127000Y-86265000D01*
X129127000Y-84379750D01*
X130223000Y-84379750D01*
X130223000Y-84934936D01*
X130288007Y-85091876D01*
X130408124Y-85211993D01*
X130565065Y-85277000D01*
X130768250Y-85277000D01*
X130875000Y-85170250D01*
X130875000Y-84273000D01*
X130329750Y-84273000D01*
X130223000Y-84379750D01*
X129127000Y-84379750D01*
X129127000Y-81379750D01*
X130023000Y-81379750D01*
X130023000Y-82434936D01*
X130088007Y-82591876D01*
X130208124Y-82711993D01*
X130365065Y-82777000D01*
X130434697Y-82777000D01*
X130408124Y-82788007D01*
X130288007Y-82908124D01*
X130223000Y-83065064D01*
X130223000Y-83620250D01*
X130329750Y-83727000D01*
X130875000Y-83727000D01*
X130875000Y-82829750D01*
X130821250Y-82776000D01*
X130927000Y-82670250D01*
X130927000Y-81273000D01*
X130129750Y-81273000D01*
X130023000Y-81379750D01*
X129127000Y-81379750D01*
X129127000Y-79565064D01*
X130023000Y-79565064D01*
X130023000Y-80620250D01*
X130129750Y-80727000D01*
X130927000Y-80727000D01*
X130927000Y-79329750D01*
X130820250Y-79223000D01*
X130365065Y-79223000D01*
X130208124Y-79288007D01*
X130088007Y-79408124D01*
X130023000Y-79565064D01*
X129127000Y-79565064D01*
X129127000Y-78000000D01*
X129117333Y-77951399D01*
X129089803Y-77910197D01*
X129048601Y-77882667D01*
X129000000Y-77873000D01*
X128000000Y-77873000D01*
X127951399Y-77882667D01*
X127910197Y-77910197D01*
X127882667Y-77951399D01*
X127873000Y-78000000D01*
X127873000Y-86265000D01*
X90127000Y-86265000D01*
X90127000Y-76041298D01*
X91527221Y-74115993D01*
X105597694Y-74115993D01*
X105601048Y-75077033D01*
X105797578Y-76017769D01*
X106179256Y-76899773D01*
X106730489Y-77687015D01*
X107428760Y-78347337D01*
X108245545Y-78853766D01*
X109147480Y-79185613D01*
X110097719Y-79329323D01*
X111057448Y-79279026D01*
X111987460Y-79036776D01*
X112849766Y-78612469D01*
X112948358Y-78535993D01*
X115667694Y-78535993D01*
X115671048Y-79497033D01*
X115867578Y-80437769D01*
X116249256Y-81319773D01*
X116800489Y-82107015D01*
X117498760Y-82767337D01*
X118315545Y-83273766D01*
X119217480Y-83605613D01*
X120167719Y-83749323D01*
X121127448Y-83699026D01*
X122057460Y-83456776D01*
X122919766Y-83032469D01*
X123679141Y-82443437D01*
X124304564Y-81713743D01*
X124770489Y-80873194D01*
X125057880Y-79956126D01*
X125155000Y-79000000D01*
X125154884Y-78966804D01*
X125051092Y-78011380D01*
X124757305Y-77096340D01*
X124285524Y-76259064D01*
X123655021Y-75533754D01*
X122891553Y-74950038D01*
X122026306Y-74531762D01*
X121094625Y-74296010D01*
X120134569Y-74252414D01*
X119185355Y-74402755D01*
X118285760Y-74740891D01*
X117472530Y-75253009D01*
X116778885Y-75918190D01*
X116233162Y-76709261D01*
X115857651Y-77593908D01*
X115667694Y-78535993D01*
X112948358Y-78535993D01*
X113609141Y-78023437D01*
X114234564Y-77293743D01*
X114700489Y-76453194D01*
X114987880Y-75536126D01*
X115085000Y-74580000D01*
X115084884Y-74546804D01*
X114981092Y-73591380D01*
X114687305Y-72676340D01*
X114215524Y-71839064D01*
X113585021Y-71113754D01*
X112821553Y-70530038D01*
X111956306Y-70111762D01*
X111024625Y-69876010D01*
X110064569Y-69832414D01*
X109115355Y-69982755D01*
X108215760Y-70320891D01*
X107402530Y-70833009D01*
X106708885Y-71498190D01*
X106163162Y-72289261D01*
X105787651Y-73173908D01*
X105597694Y-74115993D01*
X91527221Y-74115993D01*
X97986126Y-65235000D01*
X110083620Y-65235000D01*
X115918697Y-70097564D01*
G04 #@! TO.N,Net-(D1-Pad1)*
G36*
X87573000Y-47769000D02*
X87322250Y-47769000D01*
X87227000Y-47864250D01*
X87227000Y-48873000D01*
X87247000Y-48873000D01*
X87247000Y-49127000D01*
X87227000Y-49127000D01*
X87227000Y-50135750D01*
X87322250Y-50231000D01*
X87573000Y-50231000D01*
X87573000Y-54473000D01*
X85000000Y-54473000D01*
X84951399Y-54482667D01*
X84910197Y-54510197D01*
X84882667Y-54551399D01*
X84873000Y-54600000D01*
X84873000Y-65000000D01*
X84882667Y-65048601D01*
X84910197Y-65089803D01*
X84951399Y-65117333D01*
X85000000Y-65127000D01*
X86921510Y-65127000D01*
X88873000Y-69029980D01*
X88873000Y-72873000D01*
X86304921Y-72873000D01*
X84027000Y-70449680D01*
X84027000Y-52222250D01*
X84069000Y-52222250D01*
X84069000Y-53425785D01*
X84127004Y-53565819D01*
X84234180Y-53672996D01*
X84374214Y-53731000D01*
X84977750Y-53731000D01*
X85073000Y-53635750D01*
X85073000Y-52127000D01*
X85327000Y-52127000D01*
X85327000Y-53635750D01*
X85422250Y-53731000D01*
X86025786Y-53731000D01*
X86165820Y-53672996D01*
X86272996Y-53565819D01*
X86331000Y-53425785D01*
X86331000Y-52222250D01*
X86235750Y-52127000D01*
X85327000Y-52127000D01*
X85073000Y-52127000D01*
X84164250Y-52127000D01*
X84069000Y-52222250D01*
X84027000Y-52222250D01*
X84027000Y-50574215D01*
X84069000Y-50574215D01*
X84069000Y-51777750D01*
X84164250Y-51873000D01*
X85073000Y-51873000D01*
X85073000Y-50364250D01*
X85327000Y-50364250D01*
X85327000Y-51873000D01*
X86235750Y-51873000D01*
X86331000Y-51777750D01*
X86331000Y-50574215D01*
X86272996Y-50434181D01*
X86165820Y-50327004D01*
X86025786Y-50269000D01*
X85422250Y-50269000D01*
X85327000Y-50364250D01*
X85073000Y-50364250D01*
X84977750Y-50269000D01*
X84374214Y-50269000D01*
X84234180Y-50327004D01*
X84127004Y-50434181D01*
X84069000Y-50574215D01*
X84027000Y-50574215D01*
X84027000Y-49222250D01*
X84169000Y-49222250D01*
X84169000Y-49925785D01*
X84227004Y-50065819D01*
X84334180Y-50172996D01*
X84474214Y-50231000D01*
X84777750Y-50231000D01*
X84873000Y-50135750D01*
X84873000Y-49127000D01*
X85127000Y-49127000D01*
X85127000Y-50135750D01*
X85222250Y-50231000D01*
X85525786Y-50231000D01*
X85665820Y-50172996D01*
X85772996Y-50065819D01*
X85831000Y-49925785D01*
X85831000Y-49222250D01*
X86269000Y-49222250D01*
X86269000Y-49925785D01*
X86327004Y-50065819D01*
X86434180Y-50172996D01*
X86574214Y-50231000D01*
X86877750Y-50231000D01*
X86973000Y-50135750D01*
X86973000Y-49127000D01*
X86364250Y-49127000D01*
X86269000Y-49222250D01*
X85831000Y-49222250D01*
X85735750Y-49127000D01*
X85127000Y-49127000D01*
X84873000Y-49127000D01*
X84264250Y-49127000D01*
X84169000Y-49222250D01*
X84027000Y-49222250D01*
X84027000Y-48074215D01*
X84169000Y-48074215D01*
X84169000Y-48777750D01*
X84264250Y-48873000D01*
X84873000Y-48873000D01*
X84873000Y-47864250D01*
X85127000Y-47864250D01*
X85127000Y-48873000D01*
X85735750Y-48873000D01*
X85831000Y-48777750D01*
X85831000Y-48074215D01*
X86269000Y-48074215D01*
X86269000Y-48777750D01*
X86364250Y-48873000D01*
X86973000Y-48873000D01*
X86973000Y-47864250D01*
X86877750Y-47769000D01*
X86574214Y-47769000D01*
X86434180Y-47827004D01*
X86327004Y-47934181D01*
X86269000Y-48074215D01*
X85831000Y-48074215D01*
X85772996Y-47934181D01*
X85665820Y-47827004D01*
X85525786Y-47769000D01*
X85222250Y-47769000D01*
X85127000Y-47864250D01*
X84873000Y-47864250D01*
X84777750Y-47769000D01*
X84474214Y-47769000D01*
X84334180Y-47827004D01*
X84227004Y-47934181D01*
X84169000Y-48074215D01*
X84027000Y-48074215D01*
X84027000Y-47127000D01*
X87573000Y-47127000D01*
X87573000Y-47769000D01*
X87573000Y-47769000D01*
G37*
X87573000Y-47769000D02*
X87322250Y-47769000D01*
X87227000Y-47864250D01*
X87227000Y-48873000D01*
X87247000Y-48873000D01*
X87247000Y-49127000D01*
X87227000Y-49127000D01*
X87227000Y-50135750D01*
X87322250Y-50231000D01*
X87573000Y-50231000D01*
X87573000Y-54473000D01*
X85000000Y-54473000D01*
X84951399Y-54482667D01*
X84910197Y-54510197D01*
X84882667Y-54551399D01*
X84873000Y-54600000D01*
X84873000Y-65000000D01*
X84882667Y-65048601D01*
X84910197Y-65089803D01*
X84951399Y-65117333D01*
X85000000Y-65127000D01*
X86921510Y-65127000D01*
X88873000Y-69029980D01*
X88873000Y-72873000D01*
X86304921Y-72873000D01*
X84027000Y-70449680D01*
X84027000Y-52222250D01*
X84069000Y-52222250D01*
X84069000Y-53425785D01*
X84127004Y-53565819D01*
X84234180Y-53672996D01*
X84374214Y-53731000D01*
X84977750Y-53731000D01*
X85073000Y-53635750D01*
X85073000Y-52127000D01*
X85327000Y-52127000D01*
X85327000Y-53635750D01*
X85422250Y-53731000D01*
X86025786Y-53731000D01*
X86165820Y-53672996D01*
X86272996Y-53565819D01*
X86331000Y-53425785D01*
X86331000Y-52222250D01*
X86235750Y-52127000D01*
X85327000Y-52127000D01*
X85073000Y-52127000D01*
X84164250Y-52127000D01*
X84069000Y-52222250D01*
X84027000Y-52222250D01*
X84027000Y-50574215D01*
X84069000Y-50574215D01*
X84069000Y-51777750D01*
X84164250Y-51873000D01*
X85073000Y-51873000D01*
X85073000Y-50364250D01*
X85327000Y-50364250D01*
X85327000Y-51873000D01*
X86235750Y-51873000D01*
X86331000Y-51777750D01*
X86331000Y-50574215D01*
X86272996Y-50434181D01*
X86165820Y-50327004D01*
X86025786Y-50269000D01*
X85422250Y-50269000D01*
X85327000Y-50364250D01*
X85073000Y-50364250D01*
X84977750Y-50269000D01*
X84374214Y-50269000D01*
X84234180Y-50327004D01*
X84127004Y-50434181D01*
X84069000Y-50574215D01*
X84027000Y-50574215D01*
X84027000Y-49222250D01*
X84169000Y-49222250D01*
X84169000Y-49925785D01*
X84227004Y-50065819D01*
X84334180Y-50172996D01*
X84474214Y-50231000D01*
X84777750Y-50231000D01*
X84873000Y-50135750D01*
X84873000Y-49127000D01*
X85127000Y-49127000D01*
X85127000Y-50135750D01*
X85222250Y-50231000D01*
X85525786Y-50231000D01*
X85665820Y-50172996D01*
X85772996Y-50065819D01*
X85831000Y-49925785D01*
X85831000Y-49222250D01*
X86269000Y-49222250D01*
X86269000Y-49925785D01*
X86327004Y-50065819D01*
X86434180Y-50172996D01*
X86574214Y-50231000D01*
X86877750Y-50231000D01*
X86973000Y-50135750D01*
X86973000Y-49127000D01*
X86364250Y-49127000D01*
X86269000Y-49222250D01*
X85831000Y-49222250D01*
X85735750Y-49127000D01*
X85127000Y-49127000D01*
X84873000Y-49127000D01*
X84264250Y-49127000D01*
X84169000Y-49222250D01*
X84027000Y-49222250D01*
X84027000Y-48074215D01*
X84169000Y-48074215D01*
X84169000Y-48777750D01*
X84264250Y-48873000D01*
X84873000Y-48873000D01*
X84873000Y-47864250D01*
X85127000Y-47864250D01*
X85127000Y-48873000D01*
X85735750Y-48873000D01*
X85831000Y-48777750D01*
X85831000Y-48074215D01*
X86269000Y-48074215D01*
X86269000Y-48777750D01*
X86364250Y-48873000D01*
X86973000Y-48873000D01*
X86973000Y-47864250D01*
X86877750Y-47769000D01*
X86574214Y-47769000D01*
X86434180Y-47827004D01*
X86327004Y-47934181D01*
X86269000Y-48074215D01*
X85831000Y-48074215D01*
X85772996Y-47934181D01*
X85665820Y-47827004D01*
X85525786Y-47769000D01*
X85222250Y-47769000D01*
X85127000Y-47864250D01*
X84873000Y-47864250D01*
X84777750Y-47769000D01*
X84474214Y-47769000D01*
X84334180Y-47827004D01*
X84227004Y-47934181D01*
X84169000Y-48074215D01*
X84027000Y-48074215D01*
X84027000Y-47127000D01*
X87573000Y-47127000D01*
X87573000Y-47769000D01*
G04 #@! TO.N,Net-(D2-Pad1)*
G36*
X137073000Y-61546682D02*
X137073000Y-79434191D01*
X137072996Y-79434181D01*
X136965820Y-79327004D01*
X136825786Y-79269000D01*
X136222250Y-79269000D01*
X136127000Y-79364250D01*
X136127000Y-80873000D01*
X136147000Y-80873000D01*
X136147000Y-81127000D01*
X136127000Y-81127000D01*
X136127000Y-82635750D01*
X136222250Y-82731000D01*
X136825786Y-82731000D01*
X136965820Y-82672996D01*
X137072996Y-82565819D01*
X137073000Y-82565809D01*
X137073000Y-86265000D01*
X133627000Y-86265000D01*
X133627000Y-85231000D01*
X133777750Y-85231000D01*
X133873000Y-85135750D01*
X133873000Y-84127000D01*
X134127000Y-84127000D01*
X134127000Y-85135750D01*
X134222250Y-85231000D01*
X134525786Y-85231000D01*
X134665820Y-85172996D01*
X134772996Y-85065819D01*
X134831000Y-84925785D01*
X134831000Y-84222250D01*
X135169000Y-84222250D01*
X135169000Y-84925785D01*
X135227004Y-85065819D01*
X135334180Y-85172996D01*
X135474214Y-85231000D01*
X135777750Y-85231000D01*
X135873000Y-85135750D01*
X135873000Y-84127000D01*
X136127000Y-84127000D01*
X136127000Y-85135750D01*
X136222250Y-85231000D01*
X136525786Y-85231000D01*
X136665820Y-85172996D01*
X136772996Y-85065819D01*
X136831000Y-84925785D01*
X136831000Y-84222250D01*
X136735750Y-84127000D01*
X136127000Y-84127000D01*
X135873000Y-84127000D01*
X135264250Y-84127000D01*
X135169000Y-84222250D01*
X134831000Y-84222250D01*
X134735750Y-84127000D01*
X134127000Y-84127000D01*
X133873000Y-84127000D01*
X133853000Y-84127000D01*
X133853000Y-83873000D01*
X133873000Y-83873000D01*
X133873000Y-82864250D01*
X134127000Y-82864250D01*
X134127000Y-83873000D01*
X134735750Y-83873000D01*
X134831000Y-83777750D01*
X134831000Y-83074215D01*
X135169000Y-83074215D01*
X135169000Y-83777750D01*
X135264250Y-83873000D01*
X135873000Y-83873000D01*
X135873000Y-82864250D01*
X136127000Y-82864250D01*
X136127000Y-83873000D01*
X136735750Y-83873000D01*
X136831000Y-83777750D01*
X136831000Y-83074215D01*
X136772996Y-82934181D01*
X136665820Y-82827004D01*
X136525786Y-82769000D01*
X136222250Y-82769000D01*
X136127000Y-82864250D01*
X135873000Y-82864250D01*
X135777750Y-82769000D01*
X135474214Y-82769000D01*
X135334180Y-82827004D01*
X135227004Y-82934181D01*
X135169000Y-83074215D01*
X134831000Y-83074215D01*
X134772996Y-82934181D01*
X134665820Y-82827004D01*
X134525786Y-82769000D01*
X134222250Y-82769000D01*
X134127000Y-82864250D01*
X133873000Y-82864250D01*
X133777750Y-82769000D01*
X133627000Y-82769000D01*
X133627000Y-81222250D01*
X134869000Y-81222250D01*
X134869000Y-82425785D01*
X134927004Y-82565819D01*
X135034180Y-82672996D01*
X135174214Y-82731000D01*
X135777750Y-82731000D01*
X135873000Y-82635750D01*
X135873000Y-81127000D01*
X134964250Y-81127000D01*
X134869000Y-81222250D01*
X133627000Y-81222250D01*
X133627000Y-79574215D01*
X134869000Y-79574215D01*
X134869000Y-80777750D01*
X134964250Y-80873000D01*
X135873000Y-80873000D01*
X135873000Y-79364250D01*
X135777750Y-79269000D01*
X135174214Y-79269000D01*
X135034180Y-79327004D01*
X134927004Y-79434181D01*
X134869000Y-79574215D01*
X133627000Y-79574215D01*
X133627000Y-79127000D01*
X136000000Y-79127000D01*
X136048601Y-79117333D01*
X136089803Y-79089803D01*
X136117333Y-79048601D01*
X136127000Y-79000000D01*
X136127000Y-70000000D01*
X136117333Y-69951399D01*
X136089803Y-69910197D01*
X131627000Y-65447394D01*
X131627000Y-59627000D01*
X135441271Y-59627000D01*
X137073000Y-61546682D01*
X137073000Y-61546682D01*
G37*
X137073000Y-61546682D02*
X137073000Y-79434191D01*
X137072996Y-79434181D01*
X136965820Y-79327004D01*
X136825786Y-79269000D01*
X136222250Y-79269000D01*
X136127000Y-79364250D01*
X136127000Y-80873000D01*
X136147000Y-80873000D01*
X136147000Y-81127000D01*
X136127000Y-81127000D01*
X136127000Y-82635750D01*
X136222250Y-82731000D01*
X136825786Y-82731000D01*
X136965820Y-82672996D01*
X137072996Y-82565819D01*
X137073000Y-82565809D01*
X137073000Y-86265000D01*
X133627000Y-86265000D01*
X133627000Y-85231000D01*
X133777750Y-85231000D01*
X133873000Y-85135750D01*
X133873000Y-84127000D01*
X134127000Y-84127000D01*
X134127000Y-85135750D01*
X134222250Y-85231000D01*
X134525786Y-85231000D01*
X134665820Y-85172996D01*
X134772996Y-85065819D01*
X134831000Y-84925785D01*
X134831000Y-84222250D01*
X135169000Y-84222250D01*
X135169000Y-84925785D01*
X135227004Y-85065819D01*
X135334180Y-85172996D01*
X135474214Y-85231000D01*
X135777750Y-85231000D01*
X135873000Y-85135750D01*
X135873000Y-84127000D01*
X136127000Y-84127000D01*
X136127000Y-85135750D01*
X136222250Y-85231000D01*
X136525786Y-85231000D01*
X136665820Y-85172996D01*
X136772996Y-85065819D01*
X136831000Y-84925785D01*
X136831000Y-84222250D01*
X136735750Y-84127000D01*
X136127000Y-84127000D01*
X135873000Y-84127000D01*
X135264250Y-84127000D01*
X135169000Y-84222250D01*
X134831000Y-84222250D01*
X134735750Y-84127000D01*
X134127000Y-84127000D01*
X133873000Y-84127000D01*
X133853000Y-84127000D01*
X133853000Y-83873000D01*
X133873000Y-83873000D01*
X133873000Y-82864250D01*
X134127000Y-82864250D01*
X134127000Y-83873000D01*
X134735750Y-83873000D01*
X134831000Y-83777750D01*
X134831000Y-83074215D01*
X135169000Y-83074215D01*
X135169000Y-83777750D01*
X135264250Y-83873000D01*
X135873000Y-83873000D01*
X135873000Y-82864250D01*
X136127000Y-82864250D01*
X136127000Y-83873000D01*
X136735750Y-83873000D01*
X136831000Y-83777750D01*
X136831000Y-83074215D01*
X136772996Y-82934181D01*
X136665820Y-82827004D01*
X136525786Y-82769000D01*
X136222250Y-82769000D01*
X136127000Y-82864250D01*
X135873000Y-82864250D01*
X135777750Y-82769000D01*
X135474214Y-82769000D01*
X135334180Y-82827004D01*
X135227004Y-82934181D01*
X135169000Y-83074215D01*
X134831000Y-83074215D01*
X134772996Y-82934181D01*
X134665820Y-82827004D01*
X134525786Y-82769000D01*
X134222250Y-82769000D01*
X134127000Y-82864250D01*
X133873000Y-82864250D01*
X133777750Y-82769000D01*
X133627000Y-82769000D01*
X133627000Y-81222250D01*
X134869000Y-81222250D01*
X134869000Y-82425785D01*
X134927004Y-82565819D01*
X135034180Y-82672996D01*
X135174214Y-82731000D01*
X135777750Y-82731000D01*
X135873000Y-82635750D01*
X135873000Y-81127000D01*
X134964250Y-81127000D01*
X134869000Y-81222250D01*
X133627000Y-81222250D01*
X133627000Y-79574215D01*
X134869000Y-79574215D01*
X134869000Y-80777750D01*
X134964250Y-80873000D01*
X135873000Y-80873000D01*
X135873000Y-79364250D01*
X135777750Y-79269000D01*
X135174214Y-79269000D01*
X135034180Y-79327004D01*
X134927004Y-79434181D01*
X134869000Y-79574215D01*
X133627000Y-79574215D01*
X133627000Y-79127000D01*
X136000000Y-79127000D01*
X136048601Y-79117333D01*
X136089803Y-79089803D01*
X136117333Y-79048601D01*
X136127000Y-79000000D01*
X136127000Y-70000000D01*
X136117333Y-69951399D01*
X136089803Y-69910197D01*
X131627000Y-65447394D01*
X131627000Y-59627000D01*
X135441271Y-59627000D01*
X137073000Y-61546682D01*
G04 #@! TO.N,Net-(D3-Pad1)*
G36*
X87573000Y-90769000D02*
X87322250Y-90769000D01*
X87227000Y-90864250D01*
X87227000Y-91873000D01*
X87247000Y-91873000D01*
X87247000Y-92127000D01*
X87227000Y-92127000D01*
X87227000Y-93135750D01*
X87322250Y-93231000D01*
X87573000Y-93231000D01*
X87573000Y-97473000D01*
X85000000Y-97473000D01*
X84951399Y-97482667D01*
X84910197Y-97510197D01*
X84882667Y-97551399D01*
X84873000Y-97600000D01*
X84873000Y-108000000D01*
X84882667Y-108048601D01*
X84910197Y-108089803D01*
X84951399Y-108117333D01*
X85000000Y-108127000D01*
X86921510Y-108127000D01*
X88873000Y-112029980D01*
X88873000Y-115873000D01*
X86304921Y-115873000D01*
X84027000Y-113449680D01*
X84027000Y-95222250D01*
X84069000Y-95222250D01*
X84069000Y-96425785D01*
X84127004Y-96565819D01*
X84234180Y-96672996D01*
X84374214Y-96731000D01*
X84977750Y-96731000D01*
X85073000Y-96635750D01*
X85073000Y-95127000D01*
X85327000Y-95127000D01*
X85327000Y-96635750D01*
X85422250Y-96731000D01*
X86025786Y-96731000D01*
X86165820Y-96672996D01*
X86272996Y-96565819D01*
X86331000Y-96425785D01*
X86331000Y-95222250D01*
X86235750Y-95127000D01*
X85327000Y-95127000D01*
X85073000Y-95127000D01*
X84164250Y-95127000D01*
X84069000Y-95222250D01*
X84027000Y-95222250D01*
X84027000Y-93574215D01*
X84069000Y-93574215D01*
X84069000Y-94777750D01*
X84164250Y-94873000D01*
X85073000Y-94873000D01*
X85073000Y-93364250D01*
X85327000Y-93364250D01*
X85327000Y-94873000D01*
X86235750Y-94873000D01*
X86331000Y-94777750D01*
X86331000Y-93574215D01*
X86272996Y-93434181D01*
X86165820Y-93327004D01*
X86025786Y-93269000D01*
X85422250Y-93269000D01*
X85327000Y-93364250D01*
X85073000Y-93364250D01*
X84977750Y-93269000D01*
X84374214Y-93269000D01*
X84234180Y-93327004D01*
X84127004Y-93434181D01*
X84069000Y-93574215D01*
X84027000Y-93574215D01*
X84027000Y-92222250D01*
X84169000Y-92222250D01*
X84169000Y-92925785D01*
X84227004Y-93065819D01*
X84334180Y-93172996D01*
X84474214Y-93231000D01*
X84777750Y-93231000D01*
X84873000Y-93135750D01*
X84873000Y-92127000D01*
X85127000Y-92127000D01*
X85127000Y-93135750D01*
X85222250Y-93231000D01*
X85525786Y-93231000D01*
X85665820Y-93172996D01*
X85772996Y-93065819D01*
X85831000Y-92925785D01*
X85831000Y-92222250D01*
X86269000Y-92222250D01*
X86269000Y-92925785D01*
X86327004Y-93065819D01*
X86434180Y-93172996D01*
X86574214Y-93231000D01*
X86877750Y-93231000D01*
X86973000Y-93135750D01*
X86973000Y-92127000D01*
X86364250Y-92127000D01*
X86269000Y-92222250D01*
X85831000Y-92222250D01*
X85735750Y-92127000D01*
X85127000Y-92127000D01*
X84873000Y-92127000D01*
X84264250Y-92127000D01*
X84169000Y-92222250D01*
X84027000Y-92222250D01*
X84027000Y-91074215D01*
X84169000Y-91074215D01*
X84169000Y-91777750D01*
X84264250Y-91873000D01*
X84873000Y-91873000D01*
X84873000Y-90864250D01*
X85127000Y-90864250D01*
X85127000Y-91873000D01*
X85735750Y-91873000D01*
X85831000Y-91777750D01*
X85831000Y-91074215D01*
X86269000Y-91074215D01*
X86269000Y-91777750D01*
X86364250Y-91873000D01*
X86973000Y-91873000D01*
X86973000Y-90864250D01*
X86877750Y-90769000D01*
X86574214Y-90769000D01*
X86434180Y-90827004D01*
X86327004Y-90934181D01*
X86269000Y-91074215D01*
X85831000Y-91074215D01*
X85772996Y-90934181D01*
X85665820Y-90827004D01*
X85525786Y-90769000D01*
X85222250Y-90769000D01*
X85127000Y-90864250D01*
X84873000Y-90864250D01*
X84777750Y-90769000D01*
X84474214Y-90769000D01*
X84334180Y-90827004D01*
X84227004Y-90934181D01*
X84169000Y-91074215D01*
X84027000Y-91074215D01*
X84027000Y-90127000D01*
X87573000Y-90127000D01*
X87573000Y-90769000D01*
X87573000Y-90769000D01*
G37*
X87573000Y-90769000D02*
X87322250Y-90769000D01*
X87227000Y-90864250D01*
X87227000Y-91873000D01*
X87247000Y-91873000D01*
X87247000Y-92127000D01*
X87227000Y-92127000D01*
X87227000Y-93135750D01*
X87322250Y-93231000D01*
X87573000Y-93231000D01*
X87573000Y-97473000D01*
X85000000Y-97473000D01*
X84951399Y-97482667D01*
X84910197Y-97510197D01*
X84882667Y-97551399D01*
X84873000Y-97600000D01*
X84873000Y-108000000D01*
X84882667Y-108048601D01*
X84910197Y-108089803D01*
X84951399Y-108117333D01*
X85000000Y-108127000D01*
X86921510Y-108127000D01*
X88873000Y-112029980D01*
X88873000Y-115873000D01*
X86304921Y-115873000D01*
X84027000Y-113449680D01*
X84027000Y-95222250D01*
X84069000Y-95222250D01*
X84069000Y-96425785D01*
X84127004Y-96565819D01*
X84234180Y-96672996D01*
X84374214Y-96731000D01*
X84977750Y-96731000D01*
X85073000Y-96635750D01*
X85073000Y-95127000D01*
X85327000Y-95127000D01*
X85327000Y-96635750D01*
X85422250Y-96731000D01*
X86025786Y-96731000D01*
X86165820Y-96672996D01*
X86272996Y-96565819D01*
X86331000Y-96425785D01*
X86331000Y-95222250D01*
X86235750Y-95127000D01*
X85327000Y-95127000D01*
X85073000Y-95127000D01*
X84164250Y-95127000D01*
X84069000Y-95222250D01*
X84027000Y-95222250D01*
X84027000Y-93574215D01*
X84069000Y-93574215D01*
X84069000Y-94777750D01*
X84164250Y-94873000D01*
X85073000Y-94873000D01*
X85073000Y-93364250D01*
X85327000Y-93364250D01*
X85327000Y-94873000D01*
X86235750Y-94873000D01*
X86331000Y-94777750D01*
X86331000Y-93574215D01*
X86272996Y-93434181D01*
X86165820Y-93327004D01*
X86025786Y-93269000D01*
X85422250Y-93269000D01*
X85327000Y-93364250D01*
X85073000Y-93364250D01*
X84977750Y-93269000D01*
X84374214Y-93269000D01*
X84234180Y-93327004D01*
X84127004Y-93434181D01*
X84069000Y-93574215D01*
X84027000Y-93574215D01*
X84027000Y-92222250D01*
X84169000Y-92222250D01*
X84169000Y-92925785D01*
X84227004Y-93065819D01*
X84334180Y-93172996D01*
X84474214Y-93231000D01*
X84777750Y-93231000D01*
X84873000Y-93135750D01*
X84873000Y-92127000D01*
X85127000Y-92127000D01*
X85127000Y-93135750D01*
X85222250Y-93231000D01*
X85525786Y-93231000D01*
X85665820Y-93172996D01*
X85772996Y-93065819D01*
X85831000Y-92925785D01*
X85831000Y-92222250D01*
X86269000Y-92222250D01*
X86269000Y-92925785D01*
X86327004Y-93065819D01*
X86434180Y-93172996D01*
X86574214Y-93231000D01*
X86877750Y-93231000D01*
X86973000Y-93135750D01*
X86973000Y-92127000D01*
X86364250Y-92127000D01*
X86269000Y-92222250D01*
X85831000Y-92222250D01*
X85735750Y-92127000D01*
X85127000Y-92127000D01*
X84873000Y-92127000D01*
X84264250Y-92127000D01*
X84169000Y-92222250D01*
X84027000Y-92222250D01*
X84027000Y-91074215D01*
X84169000Y-91074215D01*
X84169000Y-91777750D01*
X84264250Y-91873000D01*
X84873000Y-91873000D01*
X84873000Y-90864250D01*
X85127000Y-90864250D01*
X85127000Y-91873000D01*
X85735750Y-91873000D01*
X85831000Y-91777750D01*
X85831000Y-91074215D01*
X86269000Y-91074215D01*
X86269000Y-91777750D01*
X86364250Y-91873000D01*
X86973000Y-91873000D01*
X86973000Y-90864250D01*
X86877750Y-90769000D01*
X86574214Y-90769000D01*
X86434180Y-90827004D01*
X86327004Y-90934181D01*
X86269000Y-91074215D01*
X85831000Y-91074215D01*
X85772996Y-90934181D01*
X85665820Y-90827004D01*
X85525786Y-90769000D01*
X85222250Y-90769000D01*
X85127000Y-90864250D01*
X84873000Y-90864250D01*
X84777750Y-90769000D01*
X84474214Y-90769000D01*
X84334180Y-90827004D01*
X84227004Y-90934181D01*
X84169000Y-91074215D01*
X84027000Y-91074215D01*
X84027000Y-90127000D01*
X87573000Y-90127000D01*
X87573000Y-90769000D01*
G04 #@! TO.N,/PH3*
G36*
X92873000Y-98000000D02*
X92882667Y-98048601D01*
X92910197Y-98089803D01*
X92951399Y-98117333D01*
X93000000Y-98127000D01*
X94000000Y-98127000D01*
X94048601Y-98117333D01*
X94089803Y-98089803D01*
X94117333Y-98048601D01*
X94127000Y-98000000D01*
X94127000Y-96375993D01*
X95627694Y-96375993D01*
X95631048Y-97337033D01*
X95827578Y-98277769D01*
X96209256Y-99159773D01*
X96760489Y-99947015D01*
X97458760Y-100607337D01*
X98275545Y-101113766D01*
X99177480Y-101445613D01*
X100127719Y-101589323D01*
X101087448Y-101539026D01*
X102017460Y-101296776D01*
X102879766Y-100872469D01*
X103639141Y-100283437D01*
X104264564Y-99553743D01*
X104730489Y-98713194D01*
X105017880Y-97796126D01*
X105115000Y-96840000D01*
X105114884Y-96806804D01*
X105011092Y-95851380D01*
X104717305Y-94936340D01*
X104245524Y-94099064D01*
X103615021Y-93373754D01*
X102851553Y-92790038D01*
X101986306Y-92371762D01*
X101054625Y-92136010D01*
X100094569Y-92092414D01*
X99145355Y-92242755D01*
X98245760Y-92580891D01*
X97432530Y-93093009D01*
X96738885Y-93758190D01*
X96193162Y-94549261D01*
X95817651Y-95433908D01*
X95627694Y-96375993D01*
X94127000Y-96375993D01*
X94127000Y-89735000D01*
X126873000Y-89735000D01*
X126873000Y-110765000D01*
X119916380Y-110765000D01*
X114081303Y-105902436D01*
X114037778Y-105878749D01*
X114000000Y-105873000D01*
X113884592Y-105873000D01*
X113786783Y-105807646D01*
X113572388Y-105765000D01*
X113500000Y-105750601D01*
X113427612Y-105765000D01*
X97072388Y-105765000D01*
X97000000Y-105750601D01*
X96927612Y-105765000D01*
X96713217Y-105807646D01*
X96615408Y-105873000D01*
X87052606Y-105873000D01*
X86127000Y-104947394D01*
X86127000Y-102052606D01*
X88552606Y-99627000D01*
X89000000Y-99627000D01*
X89048601Y-99617333D01*
X89089803Y-99589803D01*
X89117333Y-99548601D01*
X89127000Y-99500000D01*
X89127000Y-96711443D01*
X89174214Y-96731000D01*
X89777750Y-96731000D01*
X89873000Y-96635750D01*
X89873000Y-95127000D01*
X90127000Y-95127000D01*
X90127000Y-96635750D01*
X90222250Y-96731000D01*
X90825786Y-96731000D01*
X90965820Y-96672996D01*
X91072996Y-96565819D01*
X91131000Y-96425785D01*
X91131000Y-95222250D01*
X91035750Y-95127000D01*
X90127000Y-95127000D01*
X89873000Y-95127000D01*
X89853000Y-95127000D01*
X89853000Y-94873000D01*
X89873000Y-94873000D01*
X89873000Y-93364250D01*
X90127000Y-93364250D01*
X90127000Y-94873000D01*
X91035750Y-94873000D01*
X91131000Y-94777750D01*
X91131000Y-93574215D01*
X91072996Y-93434181D01*
X90965820Y-93327004D01*
X90825786Y-93269000D01*
X90222250Y-93269000D01*
X90127000Y-93364250D01*
X89873000Y-93364250D01*
X89777750Y-93269000D01*
X89174214Y-93269000D01*
X89127000Y-93288557D01*
X89127000Y-92222250D01*
X89169000Y-92222250D01*
X89169000Y-92925785D01*
X89227004Y-93065819D01*
X89334180Y-93172996D01*
X89474214Y-93231000D01*
X89777750Y-93231000D01*
X89873000Y-93135750D01*
X89873000Y-92127000D01*
X90127000Y-92127000D01*
X90127000Y-93135750D01*
X90222250Y-93231000D01*
X90525786Y-93231000D01*
X90665820Y-93172996D01*
X90772996Y-93065819D01*
X90831000Y-92925785D01*
X90831000Y-92222250D01*
X90735750Y-92127000D01*
X90127000Y-92127000D01*
X89873000Y-92127000D01*
X89264250Y-92127000D01*
X89169000Y-92222250D01*
X89127000Y-92222250D01*
X89127000Y-91074215D01*
X89169000Y-91074215D01*
X89169000Y-91777750D01*
X89264250Y-91873000D01*
X89873000Y-91873000D01*
X89873000Y-90864250D01*
X90127000Y-90864250D01*
X90127000Y-91873000D01*
X90735750Y-91873000D01*
X90831000Y-91777750D01*
X90831000Y-91074215D01*
X90772996Y-90934181D01*
X90665820Y-90827004D01*
X90525786Y-90769000D01*
X90222250Y-90769000D01*
X90127000Y-90864250D01*
X89873000Y-90864250D01*
X89777750Y-90769000D01*
X89474214Y-90769000D01*
X89334180Y-90827004D01*
X89227004Y-90934181D01*
X89169000Y-91074215D01*
X89127000Y-91074215D01*
X89127000Y-89735000D01*
X92873000Y-89735000D01*
X92873000Y-98000000D01*
X92873000Y-98000000D01*
G37*
X92873000Y-98000000D02*
X92882667Y-98048601D01*
X92910197Y-98089803D01*
X92951399Y-98117333D01*
X93000000Y-98127000D01*
X94000000Y-98127000D01*
X94048601Y-98117333D01*
X94089803Y-98089803D01*
X94117333Y-98048601D01*
X94127000Y-98000000D01*
X94127000Y-96375993D01*
X95627694Y-96375993D01*
X95631048Y-97337033D01*
X95827578Y-98277769D01*
X96209256Y-99159773D01*
X96760489Y-99947015D01*
X97458760Y-100607337D01*
X98275545Y-101113766D01*
X99177480Y-101445613D01*
X100127719Y-101589323D01*
X101087448Y-101539026D01*
X102017460Y-101296776D01*
X102879766Y-100872469D01*
X103639141Y-100283437D01*
X104264564Y-99553743D01*
X104730489Y-98713194D01*
X105017880Y-97796126D01*
X105115000Y-96840000D01*
X105114884Y-96806804D01*
X105011092Y-95851380D01*
X104717305Y-94936340D01*
X104245524Y-94099064D01*
X103615021Y-93373754D01*
X102851553Y-92790038D01*
X101986306Y-92371762D01*
X101054625Y-92136010D01*
X100094569Y-92092414D01*
X99145355Y-92242755D01*
X98245760Y-92580891D01*
X97432530Y-93093009D01*
X96738885Y-93758190D01*
X96193162Y-94549261D01*
X95817651Y-95433908D01*
X95627694Y-96375993D01*
X94127000Y-96375993D01*
X94127000Y-89735000D01*
X126873000Y-89735000D01*
X126873000Y-110765000D01*
X119916380Y-110765000D01*
X114081303Y-105902436D01*
X114037778Y-105878749D01*
X114000000Y-105873000D01*
X113884592Y-105873000D01*
X113786783Y-105807646D01*
X113572388Y-105765000D01*
X113500000Y-105750601D01*
X113427612Y-105765000D01*
X97072388Y-105765000D01*
X97000000Y-105750601D01*
X96927612Y-105765000D01*
X96713217Y-105807646D01*
X96615408Y-105873000D01*
X87052606Y-105873000D01*
X86127000Y-104947394D01*
X86127000Y-102052606D01*
X88552606Y-99627000D01*
X89000000Y-99627000D01*
X89048601Y-99617333D01*
X89089803Y-99589803D01*
X89117333Y-99548601D01*
X89127000Y-99500000D01*
X89127000Y-96711443D01*
X89174214Y-96731000D01*
X89777750Y-96731000D01*
X89873000Y-96635750D01*
X89873000Y-95127000D01*
X90127000Y-95127000D01*
X90127000Y-96635750D01*
X90222250Y-96731000D01*
X90825786Y-96731000D01*
X90965820Y-96672996D01*
X91072996Y-96565819D01*
X91131000Y-96425785D01*
X91131000Y-95222250D01*
X91035750Y-95127000D01*
X90127000Y-95127000D01*
X89873000Y-95127000D01*
X89853000Y-95127000D01*
X89853000Y-94873000D01*
X89873000Y-94873000D01*
X89873000Y-93364250D01*
X90127000Y-93364250D01*
X90127000Y-94873000D01*
X91035750Y-94873000D01*
X91131000Y-94777750D01*
X91131000Y-93574215D01*
X91072996Y-93434181D01*
X90965820Y-93327004D01*
X90825786Y-93269000D01*
X90222250Y-93269000D01*
X90127000Y-93364250D01*
X89873000Y-93364250D01*
X89777750Y-93269000D01*
X89174214Y-93269000D01*
X89127000Y-93288557D01*
X89127000Y-92222250D01*
X89169000Y-92222250D01*
X89169000Y-92925785D01*
X89227004Y-93065819D01*
X89334180Y-93172996D01*
X89474214Y-93231000D01*
X89777750Y-93231000D01*
X89873000Y-93135750D01*
X89873000Y-92127000D01*
X90127000Y-92127000D01*
X90127000Y-93135750D01*
X90222250Y-93231000D01*
X90525786Y-93231000D01*
X90665820Y-93172996D01*
X90772996Y-93065819D01*
X90831000Y-92925785D01*
X90831000Y-92222250D01*
X90735750Y-92127000D01*
X90127000Y-92127000D01*
X89873000Y-92127000D01*
X89264250Y-92127000D01*
X89169000Y-92222250D01*
X89127000Y-92222250D01*
X89127000Y-91074215D01*
X89169000Y-91074215D01*
X89169000Y-91777750D01*
X89264250Y-91873000D01*
X89873000Y-91873000D01*
X89873000Y-90864250D01*
X90127000Y-90864250D01*
X90127000Y-91873000D01*
X90735750Y-91873000D01*
X90831000Y-91777750D01*
X90831000Y-91074215D01*
X90772996Y-90934181D01*
X90665820Y-90827004D01*
X90525786Y-90769000D01*
X90222250Y-90769000D01*
X90127000Y-90864250D01*
X89873000Y-90864250D01*
X89777750Y-90769000D01*
X89474214Y-90769000D01*
X89334180Y-90827004D01*
X89227004Y-90934181D01*
X89169000Y-91074215D01*
X89127000Y-91074215D01*
X89127000Y-89735000D01*
X92873000Y-89735000D01*
X92873000Y-98000000D01*
G04 #@! TO.N,/LD3*
G36*
X115918697Y-113097564D02*
X115962222Y-113121251D01*
X116000000Y-113127000D01*
X116115408Y-113127000D01*
X116213217Y-113192354D01*
X116500000Y-113249399D01*
X116572388Y-113235000D01*
X128427612Y-113235000D01*
X128500000Y-113249399D01*
X128572388Y-113235000D01*
X128786783Y-113192354D01*
X128884592Y-113127000D01*
X133947394Y-113127000D01*
X134873000Y-114052606D01*
X134873000Y-116947394D01*
X131910197Y-119910197D01*
X131882667Y-119951399D01*
X131873000Y-120000000D01*
X131873000Y-122223000D01*
X131579750Y-122223000D01*
X131473000Y-122329750D01*
X131473000Y-123727000D01*
X131493000Y-123727000D01*
X131493000Y-124273000D01*
X131473000Y-124273000D01*
X131473000Y-125670250D01*
X131525750Y-125723000D01*
X131431750Y-125723000D01*
X131325000Y-125829750D01*
X131325000Y-126727000D01*
X131393000Y-126727000D01*
X131393000Y-127273000D01*
X131325000Y-127273000D01*
X131325000Y-128170250D01*
X131431750Y-128277000D01*
X131634935Y-128277000D01*
X131791876Y-128211993D01*
X131873000Y-128130869D01*
X131873000Y-129265000D01*
X129127000Y-129265000D01*
X129127000Y-127379750D01*
X130223000Y-127379750D01*
X130223000Y-127934936D01*
X130288007Y-128091876D01*
X130408124Y-128211993D01*
X130565065Y-128277000D01*
X130768250Y-128277000D01*
X130875000Y-128170250D01*
X130875000Y-127273000D01*
X130329750Y-127273000D01*
X130223000Y-127379750D01*
X129127000Y-127379750D01*
X129127000Y-124379750D01*
X130023000Y-124379750D01*
X130023000Y-125434936D01*
X130088007Y-125591876D01*
X130208124Y-125711993D01*
X130365065Y-125777000D01*
X130434697Y-125777000D01*
X130408124Y-125788007D01*
X130288007Y-125908124D01*
X130223000Y-126065064D01*
X130223000Y-126620250D01*
X130329750Y-126727000D01*
X130875000Y-126727000D01*
X130875000Y-125829750D01*
X130821250Y-125776000D01*
X130927000Y-125670250D01*
X130927000Y-124273000D01*
X130129750Y-124273000D01*
X130023000Y-124379750D01*
X129127000Y-124379750D01*
X129127000Y-122565064D01*
X130023000Y-122565064D01*
X130023000Y-123620250D01*
X130129750Y-123727000D01*
X130927000Y-123727000D01*
X130927000Y-122329750D01*
X130820250Y-122223000D01*
X130365065Y-122223000D01*
X130208124Y-122288007D01*
X130088007Y-122408124D01*
X130023000Y-122565064D01*
X129127000Y-122565064D01*
X129127000Y-121000000D01*
X129117333Y-120951399D01*
X129089803Y-120910197D01*
X129048601Y-120882667D01*
X129000000Y-120873000D01*
X128000000Y-120873000D01*
X127951399Y-120882667D01*
X127910197Y-120910197D01*
X127882667Y-120951399D01*
X127873000Y-121000000D01*
X127873000Y-129265000D01*
X90127000Y-129265000D01*
X90127000Y-119041298D01*
X91527221Y-117115993D01*
X105597694Y-117115993D01*
X105601048Y-118077033D01*
X105797578Y-119017769D01*
X106179256Y-119899773D01*
X106730489Y-120687015D01*
X107428760Y-121347337D01*
X108245545Y-121853766D01*
X109147480Y-122185613D01*
X110097719Y-122329323D01*
X111057448Y-122279026D01*
X111987460Y-122036776D01*
X112849766Y-121612469D01*
X112948358Y-121535993D01*
X115667694Y-121535993D01*
X115671048Y-122497033D01*
X115867578Y-123437769D01*
X116249256Y-124319773D01*
X116800489Y-125107015D01*
X117498760Y-125767337D01*
X118315545Y-126273766D01*
X119217480Y-126605613D01*
X120167719Y-126749323D01*
X121127448Y-126699026D01*
X122057460Y-126456776D01*
X122919766Y-126032469D01*
X123679141Y-125443437D01*
X124304564Y-124713743D01*
X124770489Y-123873194D01*
X125057880Y-122956126D01*
X125155000Y-122000000D01*
X125154884Y-121966804D01*
X125051092Y-121011380D01*
X124757305Y-120096340D01*
X124285524Y-119259064D01*
X123655021Y-118533754D01*
X122891553Y-117950038D01*
X122026306Y-117531762D01*
X121094625Y-117296010D01*
X120134569Y-117252414D01*
X119185355Y-117402755D01*
X118285760Y-117740891D01*
X117472530Y-118253009D01*
X116778885Y-118918190D01*
X116233162Y-119709261D01*
X115857651Y-120593908D01*
X115667694Y-121535993D01*
X112948358Y-121535993D01*
X113609141Y-121023437D01*
X114234564Y-120293743D01*
X114700489Y-119453194D01*
X114987880Y-118536126D01*
X115085000Y-117580000D01*
X115084884Y-117546804D01*
X114981092Y-116591380D01*
X114687305Y-115676340D01*
X114215524Y-114839064D01*
X113585021Y-114113754D01*
X112821553Y-113530038D01*
X111956306Y-113111762D01*
X111024625Y-112876010D01*
X110064569Y-112832414D01*
X109115355Y-112982755D01*
X108215760Y-113320891D01*
X107402530Y-113833009D01*
X106708885Y-114498190D01*
X106163162Y-115289261D01*
X105787651Y-116173908D01*
X105597694Y-117115993D01*
X91527221Y-117115993D01*
X97986126Y-108235000D01*
X110083620Y-108235000D01*
X115918697Y-113097564D01*
X115918697Y-113097564D01*
G37*
X115918697Y-113097564D02*
X115962222Y-113121251D01*
X116000000Y-113127000D01*
X116115408Y-113127000D01*
X116213217Y-113192354D01*
X116500000Y-113249399D01*
X116572388Y-113235000D01*
X128427612Y-113235000D01*
X128500000Y-113249399D01*
X128572388Y-113235000D01*
X128786783Y-113192354D01*
X128884592Y-113127000D01*
X133947394Y-113127000D01*
X134873000Y-114052606D01*
X134873000Y-116947394D01*
X131910197Y-119910197D01*
X131882667Y-119951399D01*
X131873000Y-120000000D01*
X131873000Y-122223000D01*
X131579750Y-122223000D01*
X131473000Y-122329750D01*
X131473000Y-123727000D01*
X131493000Y-123727000D01*
X131493000Y-124273000D01*
X131473000Y-124273000D01*
X131473000Y-125670250D01*
X131525750Y-125723000D01*
X131431750Y-125723000D01*
X131325000Y-125829750D01*
X131325000Y-126727000D01*
X131393000Y-126727000D01*
X131393000Y-127273000D01*
X131325000Y-127273000D01*
X131325000Y-128170250D01*
X131431750Y-128277000D01*
X131634935Y-128277000D01*
X131791876Y-128211993D01*
X131873000Y-128130869D01*
X131873000Y-129265000D01*
X129127000Y-129265000D01*
X129127000Y-127379750D01*
X130223000Y-127379750D01*
X130223000Y-127934936D01*
X130288007Y-128091876D01*
X130408124Y-128211993D01*
X130565065Y-128277000D01*
X130768250Y-128277000D01*
X130875000Y-128170250D01*
X130875000Y-127273000D01*
X130329750Y-127273000D01*
X130223000Y-127379750D01*
X129127000Y-127379750D01*
X129127000Y-124379750D01*
X130023000Y-124379750D01*
X130023000Y-125434936D01*
X130088007Y-125591876D01*
X130208124Y-125711993D01*
X130365065Y-125777000D01*
X130434697Y-125777000D01*
X130408124Y-125788007D01*
X130288007Y-125908124D01*
X130223000Y-126065064D01*
X130223000Y-126620250D01*
X130329750Y-126727000D01*
X130875000Y-126727000D01*
X130875000Y-125829750D01*
X130821250Y-125776000D01*
X130927000Y-125670250D01*
X130927000Y-124273000D01*
X130129750Y-124273000D01*
X130023000Y-124379750D01*
X129127000Y-124379750D01*
X129127000Y-122565064D01*
X130023000Y-122565064D01*
X130023000Y-123620250D01*
X130129750Y-123727000D01*
X130927000Y-123727000D01*
X130927000Y-122329750D01*
X130820250Y-122223000D01*
X130365065Y-122223000D01*
X130208124Y-122288007D01*
X130088007Y-122408124D01*
X130023000Y-122565064D01*
X129127000Y-122565064D01*
X129127000Y-121000000D01*
X129117333Y-120951399D01*
X129089803Y-120910197D01*
X129048601Y-120882667D01*
X129000000Y-120873000D01*
X128000000Y-120873000D01*
X127951399Y-120882667D01*
X127910197Y-120910197D01*
X127882667Y-120951399D01*
X127873000Y-121000000D01*
X127873000Y-129265000D01*
X90127000Y-129265000D01*
X90127000Y-119041298D01*
X91527221Y-117115993D01*
X105597694Y-117115993D01*
X105601048Y-118077033D01*
X105797578Y-119017769D01*
X106179256Y-119899773D01*
X106730489Y-120687015D01*
X107428760Y-121347337D01*
X108245545Y-121853766D01*
X109147480Y-122185613D01*
X110097719Y-122329323D01*
X111057448Y-122279026D01*
X111987460Y-122036776D01*
X112849766Y-121612469D01*
X112948358Y-121535993D01*
X115667694Y-121535993D01*
X115671048Y-122497033D01*
X115867578Y-123437769D01*
X116249256Y-124319773D01*
X116800489Y-125107015D01*
X117498760Y-125767337D01*
X118315545Y-126273766D01*
X119217480Y-126605613D01*
X120167719Y-126749323D01*
X121127448Y-126699026D01*
X122057460Y-126456776D01*
X122919766Y-126032469D01*
X123679141Y-125443437D01*
X124304564Y-124713743D01*
X124770489Y-123873194D01*
X125057880Y-122956126D01*
X125155000Y-122000000D01*
X125154884Y-121966804D01*
X125051092Y-121011380D01*
X124757305Y-120096340D01*
X124285524Y-119259064D01*
X123655021Y-118533754D01*
X122891553Y-117950038D01*
X122026306Y-117531762D01*
X121094625Y-117296010D01*
X120134569Y-117252414D01*
X119185355Y-117402755D01*
X118285760Y-117740891D01*
X117472530Y-118253009D01*
X116778885Y-118918190D01*
X116233162Y-119709261D01*
X115857651Y-120593908D01*
X115667694Y-121535993D01*
X112948358Y-121535993D01*
X113609141Y-121023437D01*
X114234564Y-120293743D01*
X114700489Y-119453194D01*
X114987880Y-118536126D01*
X115085000Y-117580000D01*
X115084884Y-117546804D01*
X114981092Y-116591380D01*
X114687305Y-115676340D01*
X114215524Y-114839064D01*
X113585021Y-114113754D01*
X112821553Y-113530038D01*
X111956306Y-113111762D01*
X111024625Y-112876010D01*
X110064569Y-112832414D01*
X109115355Y-112982755D01*
X108215760Y-113320891D01*
X107402530Y-113833009D01*
X106708885Y-114498190D01*
X106163162Y-115289261D01*
X105787651Y-116173908D01*
X105597694Y-117115993D01*
X91527221Y-117115993D01*
X97986126Y-108235000D01*
X110083620Y-108235000D01*
X115918697Y-113097564D01*
G04 #@! TO.N,Net-(D4-Pad1)*
G36*
X137073000Y-104546682D02*
X137073000Y-122434191D01*
X137072996Y-122434181D01*
X136965820Y-122327004D01*
X136825786Y-122269000D01*
X136222250Y-122269000D01*
X136127000Y-122364250D01*
X136127000Y-123873000D01*
X136147000Y-123873000D01*
X136147000Y-124127000D01*
X136127000Y-124127000D01*
X136127000Y-125635750D01*
X136222250Y-125731000D01*
X136825786Y-125731000D01*
X136965820Y-125672996D01*
X137072996Y-125565819D01*
X137073000Y-125565809D01*
X137073000Y-129265000D01*
X133627000Y-129265000D01*
X133627000Y-128231000D01*
X133777750Y-128231000D01*
X133873000Y-128135750D01*
X133873000Y-127127000D01*
X134127000Y-127127000D01*
X134127000Y-128135750D01*
X134222250Y-128231000D01*
X134525786Y-128231000D01*
X134665820Y-128172996D01*
X134772996Y-128065819D01*
X134831000Y-127925785D01*
X134831000Y-127222250D01*
X135169000Y-127222250D01*
X135169000Y-127925785D01*
X135227004Y-128065819D01*
X135334180Y-128172996D01*
X135474214Y-128231000D01*
X135777750Y-128231000D01*
X135873000Y-128135750D01*
X135873000Y-127127000D01*
X136127000Y-127127000D01*
X136127000Y-128135750D01*
X136222250Y-128231000D01*
X136525786Y-128231000D01*
X136665820Y-128172996D01*
X136772996Y-128065819D01*
X136831000Y-127925785D01*
X136831000Y-127222250D01*
X136735750Y-127127000D01*
X136127000Y-127127000D01*
X135873000Y-127127000D01*
X135264250Y-127127000D01*
X135169000Y-127222250D01*
X134831000Y-127222250D01*
X134735750Y-127127000D01*
X134127000Y-127127000D01*
X133873000Y-127127000D01*
X133853000Y-127127000D01*
X133853000Y-126873000D01*
X133873000Y-126873000D01*
X133873000Y-125864250D01*
X134127000Y-125864250D01*
X134127000Y-126873000D01*
X134735750Y-126873000D01*
X134831000Y-126777750D01*
X134831000Y-126074215D01*
X135169000Y-126074215D01*
X135169000Y-126777750D01*
X135264250Y-126873000D01*
X135873000Y-126873000D01*
X135873000Y-125864250D01*
X136127000Y-125864250D01*
X136127000Y-126873000D01*
X136735750Y-126873000D01*
X136831000Y-126777750D01*
X136831000Y-126074215D01*
X136772996Y-125934181D01*
X136665820Y-125827004D01*
X136525786Y-125769000D01*
X136222250Y-125769000D01*
X136127000Y-125864250D01*
X135873000Y-125864250D01*
X135777750Y-125769000D01*
X135474214Y-125769000D01*
X135334180Y-125827004D01*
X135227004Y-125934181D01*
X135169000Y-126074215D01*
X134831000Y-126074215D01*
X134772996Y-125934181D01*
X134665820Y-125827004D01*
X134525786Y-125769000D01*
X134222250Y-125769000D01*
X134127000Y-125864250D01*
X133873000Y-125864250D01*
X133777750Y-125769000D01*
X133627000Y-125769000D01*
X133627000Y-124222250D01*
X134869000Y-124222250D01*
X134869000Y-125425785D01*
X134927004Y-125565819D01*
X135034180Y-125672996D01*
X135174214Y-125731000D01*
X135777750Y-125731000D01*
X135873000Y-125635750D01*
X135873000Y-124127000D01*
X134964250Y-124127000D01*
X134869000Y-124222250D01*
X133627000Y-124222250D01*
X133627000Y-122574215D01*
X134869000Y-122574215D01*
X134869000Y-123777750D01*
X134964250Y-123873000D01*
X135873000Y-123873000D01*
X135873000Y-122364250D01*
X135777750Y-122269000D01*
X135174214Y-122269000D01*
X135034180Y-122327004D01*
X134927004Y-122434181D01*
X134869000Y-122574215D01*
X133627000Y-122574215D01*
X133627000Y-122127000D01*
X136000000Y-122127000D01*
X136048601Y-122117333D01*
X136089803Y-122089803D01*
X136117333Y-122048601D01*
X136127000Y-122000000D01*
X136127000Y-113000000D01*
X136117333Y-112951399D01*
X136089803Y-112910197D01*
X131627000Y-108447394D01*
X131627000Y-102627000D01*
X135441271Y-102627000D01*
X137073000Y-104546682D01*
X137073000Y-104546682D01*
G37*
X137073000Y-104546682D02*
X137073000Y-122434191D01*
X137072996Y-122434181D01*
X136965820Y-122327004D01*
X136825786Y-122269000D01*
X136222250Y-122269000D01*
X136127000Y-122364250D01*
X136127000Y-123873000D01*
X136147000Y-123873000D01*
X136147000Y-124127000D01*
X136127000Y-124127000D01*
X136127000Y-125635750D01*
X136222250Y-125731000D01*
X136825786Y-125731000D01*
X136965820Y-125672996D01*
X137072996Y-125565819D01*
X137073000Y-125565809D01*
X137073000Y-129265000D01*
X133627000Y-129265000D01*
X133627000Y-128231000D01*
X133777750Y-128231000D01*
X133873000Y-128135750D01*
X133873000Y-127127000D01*
X134127000Y-127127000D01*
X134127000Y-128135750D01*
X134222250Y-128231000D01*
X134525786Y-128231000D01*
X134665820Y-128172996D01*
X134772996Y-128065819D01*
X134831000Y-127925785D01*
X134831000Y-127222250D01*
X135169000Y-127222250D01*
X135169000Y-127925785D01*
X135227004Y-128065819D01*
X135334180Y-128172996D01*
X135474214Y-128231000D01*
X135777750Y-128231000D01*
X135873000Y-128135750D01*
X135873000Y-127127000D01*
X136127000Y-127127000D01*
X136127000Y-128135750D01*
X136222250Y-128231000D01*
X136525786Y-128231000D01*
X136665820Y-128172996D01*
X136772996Y-128065819D01*
X136831000Y-127925785D01*
X136831000Y-127222250D01*
X136735750Y-127127000D01*
X136127000Y-127127000D01*
X135873000Y-127127000D01*
X135264250Y-127127000D01*
X135169000Y-127222250D01*
X134831000Y-127222250D01*
X134735750Y-127127000D01*
X134127000Y-127127000D01*
X133873000Y-127127000D01*
X133853000Y-127127000D01*
X133853000Y-126873000D01*
X133873000Y-126873000D01*
X133873000Y-125864250D01*
X134127000Y-125864250D01*
X134127000Y-126873000D01*
X134735750Y-126873000D01*
X134831000Y-126777750D01*
X134831000Y-126074215D01*
X135169000Y-126074215D01*
X135169000Y-126777750D01*
X135264250Y-126873000D01*
X135873000Y-126873000D01*
X135873000Y-125864250D01*
X136127000Y-125864250D01*
X136127000Y-126873000D01*
X136735750Y-126873000D01*
X136831000Y-126777750D01*
X136831000Y-126074215D01*
X136772996Y-125934181D01*
X136665820Y-125827004D01*
X136525786Y-125769000D01*
X136222250Y-125769000D01*
X136127000Y-125864250D01*
X135873000Y-125864250D01*
X135777750Y-125769000D01*
X135474214Y-125769000D01*
X135334180Y-125827004D01*
X135227004Y-125934181D01*
X135169000Y-126074215D01*
X134831000Y-126074215D01*
X134772996Y-125934181D01*
X134665820Y-125827004D01*
X134525786Y-125769000D01*
X134222250Y-125769000D01*
X134127000Y-125864250D01*
X133873000Y-125864250D01*
X133777750Y-125769000D01*
X133627000Y-125769000D01*
X133627000Y-124222250D01*
X134869000Y-124222250D01*
X134869000Y-125425785D01*
X134927004Y-125565819D01*
X135034180Y-125672996D01*
X135174214Y-125731000D01*
X135777750Y-125731000D01*
X135873000Y-125635750D01*
X135873000Y-124127000D01*
X134964250Y-124127000D01*
X134869000Y-124222250D01*
X133627000Y-124222250D01*
X133627000Y-122574215D01*
X134869000Y-122574215D01*
X134869000Y-123777750D01*
X134964250Y-123873000D01*
X135873000Y-123873000D01*
X135873000Y-122364250D01*
X135777750Y-122269000D01*
X135174214Y-122269000D01*
X135034180Y-122327004D01*
X134927004Y-122434181D01*
X134869000Y-122574215D01*
X133627000Y-122574215D01*
X133627000Y-122127000D01*
X136000000Y-122127000D01*
X136048601Y-122117333D01*
X136089803Y-122089803D01*
X136117333Y-122048601D01*
X136127000Y-122000000D01*
X136127000Y-113000000D01*
X136117333Y-112951399D01*
X136089803Y-112910197D01*
X131627000Y-108447394D01*
X131627000Y-102627000D01*
X135441271Y-102627000D01*
X137073000Y-104546682D01*
G04 #@! TD*
M02*
