G04 #@! TF.GenerationSoftware,KiCad,Pcbnew,(5.0.0)*
G04 #@! TF.CreationDate,2018-11-05T15:09:06+02:00*
G04 #@! TF.ProjectId,tp_x2,74705F78322E6B696361645F70636200,rev?*
G04 #@! TF.SameCoordinates,Original*
G04 #@! TF.FileFunction,Legend,Top*
G04 #@! TF.FilePolarity,Positive*
%FSLAX46Y46*%
G04 Gerber Fmt 4.6, Leading zero omitted, Abs format (unit mm)*
G04 Created by KiCad (PCBNEW (5.0.0)) date 11/05/18 15:09:06*
%MOMM*%
%LPD*%
G01*
G04 APERTURE LIST*
%ADD10C,0.300000*%
%ADD11C,0.200000*%
%ADD12C,0.150000*%
%ADD13C,0.120000*%
%ADD14C,0.100000*%
%ADD15C,0.250000*%
%ADD16C,0.400000*%
G04 APERTURE END LIST*
D10*
X84392857Y-113250000D02*
X84250000Y-113178571D01*
X84035714Y-113178571D01*
X83821428Y-113250000D01*
X83678571Y-113392857D01*
X83607142Y-113535714D01*
X83535714Y-113821428D01*
X83535714Y-114035714D01*
X83607142Y-114321428D01*
X83678571Y-114464285D01*
X83821428Y-114607142D01*
X84035714Y-114678571D01*
X84178571Y-114678571D01*
X84392857Y-114607142D01*
X84464285Y-114535714D01*
X84464285Y-114035714D01*
X84178571Y-114035714D01*
X137392857Y-104250000D02*
X137250000Y-104178571D01*
X137035714Y-104178571D01*
X136821428Y-104250000D01*
X136678571Y-104392857D01*
X136607142Y-104535714D01*
X136535714Y-104821428D01*
X136535714Y-105035714D01*
X136607142Y-105321428D01*
X136678571Y-105464285D01*
X136821428Y-105607142D01*
X137035714Y-105678571D01*
X137178571Y-105678571D01*
X137392857Y-105607142D01*
X137464285Y-105535714D01*
X137464285Y-105035714D01*
X137178571Y-105035714D01*
X137392857Y-61250000D02*
X137250000Y-61178571D01*
X137035714Y-61178571D01*
X136821428Y-61250000D01*
X136678571Y-61392857D01*
X136607142Y-61535714D01*
X136535714Y-61821428D01*
X136535714Y-62035714D01*
X136607142Y-62321428D01*
X136678571Y-62464285D01*
X136821428Y-62607142D01*
X137035714Y-62678571D01*
X137178571Y-62678571D01*
X137392857Y-62607142D01*
X137464285Y-62535714D01*
X137464285Y-62035714D01*
X137178571Y-62035714D01*
X84392857Y-70250000D02*
X84250000Y-70178571D01*
X84035714Y-70178571D01*
X83821428Y-70250000D01*
X83678571Y-70392857D01*
X83607142Y-70535714D01*
X83535714Y-70821428D01*
X83535714Y-71035714D01*
X83607142Y-71321428D01*
X83678571Y-71464285D01*
X83821428Y-71607142D01*
X84035714Y-71678571D01*
X84178571Y-71678571D01*
X84392857Y-71607142D01*
X84464285Y-71535714D01*
X84464285Y-71035714D01*
X84178571Y-71035714D01*
D11*
X132879460Y-109000000D02*
G75*
G03X132879460Y-109000000I-3889730J0D01*
G01*
X96179460Y-109300000D02*
G75*
G03X96179460Y-109300000I-3889730J0D01*
G01*
X132579460Y-66200000D02*
G75*
G03X132579460Y-66200000I-3889730J0D01*
G01*
X95989730Y-66310270D02*
G75*
G03X95989730Y-66310270I-3889730J0D01*
G01*
X80000000Y-106000000D02*
X80000000Y-104000000D01*
X84000000Y-106000000D02*
X80000000Y-106000000D01*
X84000000Y-104000000D02*
X84000000Y-106000000D01*
X80000000Y-104000000D02*
X84000000Y-104000000D01*
X136000000Y-72000000D02*
X136000000Y-70000000D01*
X140000000Y-72000000D02*
X136000000Y-72000000D01*
X140000000Y-70000000D02*
X140000000Y-72000000D01*
X136000000Y-70000000D02*
X140000000Y-70000000D01*
X136000000Y-115000000D02*
X136000000Y-113000000D01*
X140000000Y-115000000D02*
X136000000Y-115000000D01*
X140000000Y-113000000D02*
X140000000Y-115000000D01*
X136000000Y-113000000D02*
X140000000Y-113000000D01*
X109500000Y-106000000D02*
X109500000Y-104000000D01*
X105500000Y-106000000D02*
X109500000Y-106000000D01*
X105500000Y-104000000D02*
X105500000Y-106000000D01*
X109500000Y-63000000D02*
X109500000Y-61000000D01*
X105500000Y-63000000D02*
X109500000Y-63000000D01*
X105500000Y-61000000D02*
X105500000Y-63000000D01*
X80000000Y-63000000D02*
X80000000Y-61000000D01*
X84000000Y-63000000D02*
X80000000Y-63000000D01*
X84000000Y-61000000D02*
X84000000Y-63000000D01*
X80000000Y-61000000D02*
X84000000Y-61000000D01*
D12*
G04 #@! TO.C,X3*
X116960000Y-128250000D02*
X107710000Y-128250000D01*
X107710000Y-128250000D02*
X107710000Y-125750000D01*
X107710000Y-125750000D02*
X116960000Y-125750000D01*
X116960000Y-125750000D02*
X116960000Y-128250000D01*
G04 #@! TO.C,X14*
X137750000Y-81900000D02*
X137750000Y-72650000D01*
X137750000Y-72650000D02*
X140250000Y-72650000D01*
X140250000Y-72650000D02*
X140250000Y-81900000D01*
X140250000Y-81900000D02*
X137750000Y-81900000D01*
G04 #@! TO.C,X17*
X80750000Y-59840000D02*
X80750000Y-50590000D01*
X80750000Y-50590000D02*
X83250000Y-50590000D01*
X83250000Y-50590000D02*
X83250000Y-59840000D01*
X83250000Y-59840000D02*
X80750000Y-59840000D01*
G04 #@! TO.C,X26*
X102960000Y-58550000D02*
X112210000Y-58550000D01*
X112210000Y-58550000D02*
X112210000Y-61050000D01*
X112210000Y-61050000D02*
X102960000Y-61050000D01*
X102960000Y-61050000D02*
X102960000Y-58550000D01*
D13*
G04 #@! TO.C,D4*
X131200000Y-125500000D02*
X136900000Y-125500000D01*
X136900000Y-125500000D02*
X136900000Y-122500000D01*
X136900000Y-122500000D02*
X131200000Y-122500000D01*
G04 #@! TO.C,D2*
X136900000Y-79500000D02*
X131200000Y-79500000D01*
X136900000Y-82500000D02*
X136900000Y-79500000D01*
X131200000Y-82500000D02*
X136900000Y-82500000D01*
D12*
G04 #@! TO.C,X7*
X140250000Y-124900000D02*
X137750000Y-124900000D01*
X140250000Y-115650000D02*
X140250000Y-124900000D01*
X137750000Y-115650000D02*
X140250000Y-115650000D01*
X137750000Y-124900000D02*
X137750000Y-115650000D01*
G04 #@! TO.C,X12*
X102960000Y-101550000D02*
X112210000Y-101550000D01*
X112210000Y-101550000D02*
X112210000Y-104050000D01*
X112210000Y-104050000D02*
X102960000Y-104050000D01*
X102960000Y-104050000D02*
X102960000Y-101550000D01*
D13*
G04 #@! TO.C,D3*
X84300000Y-96500000D02*
X90000000Y-96500000D01*
X84300000Y-93500000D02*
X84300000Y-96500000D01*
X90000000Y-93500000D02*
X84300000Y-93500000D01*
G04 #@! TO.C,R6*
X133550000Y-128070000D02*
X131550000Y-128070000D01*
X131550000Y-125930000D02*
X133550000Y-125930000D01*
G04 #@! TO.C,R8*
X136450000Y-125930000D02*
X138450000Y-125930000D01*
X138450000Y-128070000D02*
X136450000Y-128070000D01*
G04 #@! TO.C,R7*
X82550000Y-90930000D02*
X84550000Y-90930000D01*
X84550000Y-93070000D02*
X82550000Y-93070000D01*
G04 #@! TO.C,R9*
X89550000Y-93070000D02*
X87550000Y-93070000D01*
X87550000Y-90930000D02*
X89550000Y-90930000D01*
G04 #@! TO.C,D1*
X90000000Y-50500000D02*
X84300000Y-50500000D01*
X84300000Y-50500000D02*
X84300000Y-53500000D01*
X84300000Y-53500000D02*
X90000000Y-53500000D01*
G04 #@! TO.C,R4*
X87550000Y-47930000D02*
X89550000Y-47930000D01*
X89550000Y-50070000D02*
X87550000Y-50070000D01*
G04 #@! TO.C,R3*
X138450000Y-85070000D02*
X136450000Y-85070000D01*
X136450000Y-82930000D02*
X138450000Y-82930000D01*
G04 #@! TO.C,R2*
X84550000Y-50070000D02*
X82550000Y-50070000D01*
X82550000Y-47930000D02*
X84550000Y-47930000D01*
G04 #@! TO.C,R1*
X131550000Y-82930000D02*
X133550000Y-82930000D01*
X133550000Y-85070000D02*
X131550000Y-85070000D01*
D12*
G04 #@! TO.C,X9*
X80750000Y-102960000D02*
X80750000Y-93710000D01*
X80750000Y-93710000D02*
X83250000Y-93710000D01*
X83250000Y-93710000D02*
X83250000Y-102960000D01*
X83250000Y-102960000D02*
X80750000Y-102960000D01*
G04 #@! TO.C,X6*
X117000000Y-82750000D02*
X117000000Y-85250000D01*
X107750000Y-82750000D02*
X117000000Y-82750000D01*
X107750000Y-85250000D02*
X107750000Y-82750000D01*
X117000000Y-85250000D02*
X107750000Y-85250000D01*
D14*
G04 #@! TO.C,X1*
X91000000Y-129000000D02*
X91000000Y-118000000D01*
X105000000Y-129000000D02*
X91000000Y-129000000D01*
X105000000Y-118000000D02*
X105000000Y-129000000D01*
X91000000Y-118000000D02*
X105000000Y-118000000D01*
G04 #@! TO.C,X2*
X112000000Y-89900000D02*
X126000000Y-89900000D01*
X126000000Y-89900000D02*
X126000000Y-100900000D01*
X126000000Y-100900000D02*
X112000000Y-100900000D01*
X112000000Y-100900000D02*
X112000000Y-89900000D01*
G04 #@! TO.C,X4*
X91100000Y-85700000D02*
X91100000Y-74700000D01*
X105100000Y-85700000D02*
X91100000Y-85700000D01*
X105100000Y-74700000D02*
X105100000Y-85700000D01*
X91100000Y-74700000D02*
X105100000Y-74700000D01*
G04 #@! TO.C,X5*
X112000000Y-46900000D02*
X126000000Y-46900000D01*
X126000000Y-46900000D02*
X126000000Y-57900000D01*
X126000000Y-57900000D02*
X112000000Y-57900000D01*
X112000000Y-57900000D02*
X112000000Y-46900000D01*
G04 #@! TO.C,X3*
D15*
X111490476Y-124152380D02*
X112157142Y-125152380D01*
X112157142Y-124152380D02*
X111490476Y-125152380D01*
X112442857Y-124152380D02*
X113061904Y-124152380D01*
X112728571Y-124533333D01*
X112871428Y-124533333D01*
X112966666Y-124580952D01*
X113014285Y-124628571D01*
X113061904Y-124723809D01*
X113061904Y-124961904D01*
X113014285Y-125057142D01*
X112966666Y-125104761D01*
X112871428Y-125152380D01*
X112585714Y-125152380D01*
X112490476Y-125104761D01*
X112442857Y-125057142D01*
G04 #@! TO.C,V1.1*
D16*
X126052381Y-108004761D02*
X126719048Y-110004761D01*
X127385715Y-108004761D01*
X129100001Y-110004761D02*
X127957143Y-110004761D01*
X128528572Y-110004761D02*
X128528572Y-108004761D01*
X128338096Y-108290476D01*
X128147620Y-108480952D01*
X127957143Y-108576190D01*
X129957143Y-109814285D02*
X130052381Y-109909523D01*
X129957143Y-110004761D01*
X129861905Y-109909523D01*
X129957143Y-109814285D01*
X129957143Y-110004761D01*
X131957143Y-110004761D02*
X130814286Y-110004761D01*
X131385715Y-110004761D02*
X131385715Y-108004761D01*
X131195239Y-108290476D01*
X131004762Y-108480952D01*
X130814286Y-108576190D01*
G04 #@! TO.C,V2.2*
X89171959Y-65451740D02*
X89803619Y-67463070D01*
X90505089Y-65475010D01*
X91073107Y-65675430D02*
X91169992Y-65581868D01*
X91362102Y-65489969D01*
X91838220Y-65498280D01*
X92027005Y-65596828D01*
X92120566Y-65693713D01*
X92212466Y-65885823D01*
X92209141Y-66076270D01*
X92108931Y-66360278D01*
X90946303Y-67483016D01*
X92184209Y-67504624D01*
X93044546Y-67329136D02*
X93138107Y-67426021D01*
X93041222Y-67519583D01*
X92947660Y-67422697D01*
X93044546Y-67329136D01*
X93041222Y-67519583D01*
X93929814Y-65725294D02*
X94026700Y-65631732D01*
X94218809Y-65539833D01*
X94694927Y-65548144D01*
X94883712Y-65646692D01*
X94977274Y-65743577D01*
X95069173Y-65935687D01*
X95065849Y-66126134D01*
X94965639Y-66410142D01*
X93803010Y-67532880D01*
X95040917Y-67554488D01*
G04 #@! TO.C,V1.2*
X89271959Y-108251740D02*
X89903619Y-110263070D01*
X90605089Y-108275010D01*
X92284209Y-110304624D02*
X91141526Y-110284678D01*
X91712868Y-110294651D02*
X91747773Y-108294955D01*
X91552339Y-108577302D01*
X91358567Y-108764425D01*
X91166458Y-108856324D01*
X93144546Y-110129136D02*
X93238107Y-110226021D01*
X93141222Y-110319583D01*
X93047660Y-110222697D01*
X93144546Y-110129136D01*
X93141222Y-110319583D01*
X94029814Y-108525294D02*
X94126700Y-108431732D01*
X94318809Y-108339833D01*
X94794927Y-108348144D01*
X94983712Y-108446692D01*
X95077274Y-108543577D01*
X95169173Y-108735687D01*
X95165849Y-108926134D01*
X95065639Y-109210142D01*
X93903010Y-110332880D01*
X95140917Y-110354488D01*
G04 #@! TO.C,V2.1*
X125852380Y-65204761D02*
X126519047Y-67204761D01*
X127185714Y-65204761D01*
X127757142Y-65395238D02*
X127852380Y-65300000D01*
X128042857Y-65204761D01*
X128519047Y-65204761D01*
X128709523Y-65300000D01*
X128804761Y-65395238D01*
X128900000Y-65585714D01*
X128900000Y-65776190D01*
X128804761Y-66061904D01*
X127661904Y-67204761D01*
X128900000Y-67204761D01*
X129757142Y-67014285D02*
X129852380Y-67109523D01*
X129757142Y-67204761D01*
X129661904Y-67109523D01*
X129757142Y-67014285D01*
X129757142Y-67204761D01*
X131757142Y-67204761D02*
X130614285Y-67204761D01*
X131185714Y-67204761D02*
X131185714Y-65204761D01*
X130995238Y-65490476D01*
X130804761Y-65680952D01*
X130614285Y-65776190D01*
G04 #@! TO.C,X14*
D15*
X136457142Y-70342857D02*
X137257142Y-71542857D01*
X137257142Y-70342857D02*
X136457142Y-71542857D01*
X138342857Y-71542857D02*
X137657142Y-71542857D01*
X138000000Y-71542857D02*
X138000000Y-70342857D01*
X137885714Y-70514285D01*
X137771428Y-70628571D01*
X137657142Y-70685714D01*
X139371428Y-70742857D02*
X139371428Y-71542857D01*
X139085714Y-70285714D02*
X138800000Y-71142857D01*
X139542857Y-71142857D01*
G04 #@! TO.C,X17*
X80457142Y-61342857D02*
X81257142Y-62542857D01*
X81257142Y-61342857D02*
X80457142Y-62542857D01*
X82342857Y-62542857D02*
X81657142Y-62542857D01*
X82000000Y-62542857D02*
X82000000Y-61342857D01*
X81885714Y-61514285D01*
X81771428Y-61628571D01*
X81657142Y-61685714D01*
X82742857Y-61342857D02*
X83542857Y-61342857D01*
X83028571Y-62542857D01*
G04 #@! TO.C,X26*
X105957142Y-61342857D02*
X106757142Y-62542857D01*
X106757142Y-61342857D02*
X105957142Y-62542857D01*
X107157142Y-61457142D02*
X107214285Y-61400000D01*
X107328571Y-61342857D01*
X107614285Y-61342857D01*
X107728571Y-61400000D01*
X107785714Y-61457142D01*
X107842857Y-61571428D01*
X107842857Y-61685714D01*
X107785714Y-61857142D01*
X107100000Y-62542857D01*
X107842857Y-62542857D01*
X108871428Y-61342857D02*
X108642857Y-61342857D01*
X108528571Y-61400000D01*
X108471428Y-61457142D01*
X108357142Y-61628571D01*
X108300000Y-61857142D01*
X108300000Y-62314285D01*
X108357142Y-62428571D01*
X108414285Y-62485714D01*
X108528571Y-62542857D01*
X108757142Y-62542857D01*
X108871428Y-62485714D01*
X108928571Y-62428571D01*
X108985714Y-62314285D01*
X108985714Y-62028571D01*
X108928571Y-61914285D01*
X108871428Y-61857142D01*
X108757142Y-61800000D01*
X108528571Y-61800000D01*
X108414285Y-61857142D01*
X108357142Y-61914285D01*
X108300000Y-62028571D01*
G04 #@! TO.C,D4*
D12*
X132483333Y-122316666D02*
X132483333Y-121616666D01*
X132650000Y-121616666D01*
X132750000Y-121650000D01*
X132816666Y-121716666D01*
X132850000Y-121783333D01*
X132883333Y-121916666D01*
X132883333Y-122016666D01*
X132850000Y-122150000D01*
X132816666Y-122216666D01*
X132750000Y-122283333D01*
X132650000Y-122316666D01*
X132483333Y-122316666D01*
X133483333Y-121850000D02*
X133483333Y-122316666D01*
X133316666Y-121583333D02*
X133150000Y-122083333D01*
X133583333Y-122083333D01*
G04 #@! TO.C,D2*
X132483333Y-79316666D02*
X132483333Y-78616666D01*
X132650000Y-78616666D01*
X132750000Y-78650000D01*
X132816666Y-78716666D01*
X132850000Y-78783333D01*
X132883333Y-78916666D01*
X132883333Y-79016666D01*
X132850000Y-79150000D01*
X132816666Y-79216666D01*
X132750000Y-79283333D01*
X132650000Y-79316666D01*
X132483333Y-79316666D01*
X133150000Y-78683333D02*
X133183333Y-78650000D01*
X133250000Y-78616666D01*
X133416666Y-78616666D01*
X133483333Y-78650000D01*
X133516666Y-78683333D01*
X133550000Y-78750000D01*
X133550000Y-78816666D01*
X133516666Y-78916666D01*
X133116666Y-79316666D01*
X133550000Y-79316666D01*
G04 #@! TO.C,X7*
D15*
X137028571Y-113342857D02*
X137828571Y-114542857D01*
X137828571Y-113342857D02*
X137028571Y-114542857D01*
X138171428Y-113342857D02*
X138971428Y-113342857D01*
X138457142Y-114542857D01*
G04 #@! TO.C,X12*
X105957142Y-104342857D02*
X106757142Y-105542857D01*
X106757142Y-104342857D02*
X105957142Y-105542857D01*
X107842857Y-105542857D02*
X107157142Y-105542857D01*
X107500000Y-105542857D02*
X107500000Y-104342857D01*
X107385714Y-104514285D01*
X107271428Y-104628571D01*
X107157142Y-104685714D01*
X108300000Y-104457142D02*
X108357142Y-104400000D01*
X108471428Y-104342857D01*
X108757142Y-104342857D01*
X108871428Y-104400000D01*
X108928571Y-104457142D01*
X108985714Y-104571428D01*
X108985714Y-104685714D01*
X108928571Y-104857142D01*
X108242857Y-105542857D01*
X108985714Y-105542857D01*
G04 #@! TO.C,D3*
D12*
X87083333Y-97566666D02*
X87083333Y-96866666D01*
X87250000Y-96866666D01*
X87350000Y-96900000D01*
X87416666Y-96966666D01*
X87450000Y-97033333D01*
X87483333Y-97166666D01*
X87483333Y-97266666D01*
X87450000Y-97400000D01*
X87416666Y-97466666D01*
X87350000Y-97533333D01*
X87250000Y-97566666D01*
X87083333Y-97566666D01*
X87716666Y-96866666D02*
X88150000Y-96866666D01*
X87916666Y-97133333D01*
X88016666Y-97133333D01*
X88083333Y-97166666D01*
X88116666Y-97200000D01*
X88150000Y-97266666D01*
X88150000Y-97433333D01*
X88116666Y-97500000D01*
X88083333Y-97533333D01*
X88016666Y-97566666D01*
X87816666Y-97566666D01*
X87750000Y-97533333D01*
X87716666Y-97500000D01*
G04 #@! TO.C,R6*
X132883333Y-129316666D02*
X132650000Y-128983333D01*
X132483333Y-129316666D02*
X132483333Y-128616666D01*
X132750000Y-128616666D01*
X132816666Y-128650000D01*
X132850000Y-128683333D01*
X132883333Y-128750000D01*
X132883333Y-128850000D01*
X132850000Y-128916666D01*
X132816666Y-128950000D01*
X132750000Y-128983333D01*
X132483333Y-128983333D01*
X133483333Y-128616666D02*
X133350000Y-128616666D01*
X133283333Y-128650000D01*
X133250000Y-128683333D01*
X133183333Y-128783333D01*
X133150000Y-128916666D01*
X133150000Y-129183333D01*
X133183333Y-129250000D01*
X133216666Y-129283333D01*
X133283333Y-129316666D01*
X133416666Y-129316666D01*
X133483333Y-129283333D01*
X133516666Y-129250000D01*
X133550000Y-129183333D01*
X133550000Y-129016666D01*
X133516666Y-128950000D01*
X133483333Y-128916666D01*
X133416666Y-128883333D01*
X133283333Y-128883333D01*
X133216666Y-128916666D01*
X133183333Y-128950000D01*
X133150000Y-129016666D01*
G04 #@! TO.C,R8*
X137333333Y-129166666D02*
X137100000Y-128833333D01*
X136933333Y-129166666D02*
X136933333Y-128466666D01*
X137200000Y-128466666D01*
X137266666Y-128500000D01*
X137300000Y-128533333D01*
X137333333Y-128600000D01*
X137333333Y-128700000D01*
X137300000Y-128766666D01*
X137266666Y-128800000D01*
X137200000Y-128833333D01*
X136933333Y-128833333D01*
X137733333Y-128766666D02*
X137666666Y-128733333D01*
X137633333Y-128700000D01*
X137600000Y-128633333D01*
X137600000Y-128600000D01*
X137633333Y-128533333D01*
X137666666Y-128500000D01*
X137733333Y-128466666D01*
X137866666Y-128466666D01*
X137933333Y-128500000D01*
X137966666Y-128533333D01*
X138000000Y-128600000D01*
X138000000Y-128633333D01*
X137966666Y-128700000D01*
X137933333Y-128733333D01*
X137866666Y-128766666D01*
X137733333Y-128766666D01*
X137666666Y-128800000D01*
X137633333Y-128833333D01*
X137600000Y-128900000D01*
X137600000Y-129033333D01*
X137633333Y-129100000D01*
X137666666Y-129133333D01*
X137733333Y-129166666D01*
X137866666Y-129166666D01*
X137933333Y-129133333D01*
X137966666Y-129100000D01*
X138000000Y-129033333D01*
X138000000Y-128900000D01*
X137966666Y-128833333D01*
X137933333Y-128800000D01*
X137866666Y-128766666D01*
G04 #@! TO.C,R7*
X83433333Y-90466666D02*
X83200000Y-90133333D01*
X83033333Y-90466666D02*
X83033333Y-89766666D01*
X83300000Y-89766666D01*
X83366666Y-89800000D01*
X83400000Y-89833333D01*
X83433333Y-89900000D01*
X83433333Y-90000000D01*
X83400000Y-90066666D01*
X83366666Y-90100000D01*
X83300000Y-90133333D01*
X83033333Y-90133333D01*
X83666666Y-89766666D02*
X84133333Y-89766666D01*
X83833333Y-90466666D01*
G04 #@! TO.C,R9*
X88383333Y-90566666D02*
X88150000Y-90233333D01*
X87983333Y-90566666D02*
X87983333Y-89866666D01*
X88250000Y-89866666D01*
X88316666Y-89900000D01*
X88350000Y-89933333D01*
X88383333Y-90000000D01*
X88383333Y-90100000D01*
X88350000Y-90166666D01*
X88316666Y-90200000D01*
X88250000Y-90233333D01*
X87983333Y-90233333D01*
X88716666Y-90566666D02*
X88850000Y-90566666D01*
X88916666Y-90533333D01*
X88950000Y-90500000D01*
X89016666Y-90400000D01*
X89050000Y-90266666D01*
X89050000Y-90000000D01*
X89016666Y-89933333D01*
X88983333Y-89900000D01*
X88916666Y-89866666D01*
X88783333Y-89866666D01*
X88716666Y-89900000D01*
X88683333Y-89933333D01*
X88650000Y-90000000D01*
X88650000Y-90166666D01*
X88683333Y-90233333D01*
X88716666Y-90266666D01*
X88783333Y-90300000D01*
X88916666Y-90300000D01*
X88983333Y-90266666D01*
X89016666Y-90233333D01*
X89050000Y-90166666D01*
G04 #@! TO.C,D1*
X87083333Y-54566666D02*
X87083333Y-53866666D01*
X87250000Y-53866666D01*
X87350000Y-53900000D01*
X87416666Y-53966666D01*
X87450000Y-54033333D01*
X87483333Y-54166666D01*
X87483333Y-54266666D01*
X87450000Y-54400000D01*
X87416666Y-54466666D01*
X87350000Y-54533333D01*
X87250000Y-54566666D01*
X87083333Y-54566666D01*
X88150000Y-54566666D02*
X87750000Y-54566666D01*
X87950000Y-54566666D02*
X87950000Y-53866666D01*
X87883333Y-53966666D01*
X87816666Y-54033333D01*
X87750000Y-54066666D01*
G04 #@! TO.C,R4*
X88383333Y-47566666D02*
X88150000Y-47233333D01*
X87983333Y-47566666D02*
X87983333Y-46866666D01*
X88250000Y-46866666D01*
X88316666Y-46900000D01*
X88350000Y-46933333D01*
X88383333Y-47000000D01*
X88383333Y-47100000D01*
X88350000Y-47166666D01*
X88316666Y-47200000D01*
X88250000Y-47233333D01*
X87983333Y-47233333D01*
X88983333Y-47100000D02*
X88983333Y-47566666D01*
X88816666Y-46833333D02*
X88650000Y-47333333D01*
X89083333Y-47333333D01*
G04 #@! TO.C,R3*
X137333333Y-86166666D02*
X137100000Y-85833333D01*
X136933333Y-86166666D02*
X136933333Y-85466666D01*
X137200000Y-85466666D01*
X137266666Y-85500000D01*
X137300000Y-85533333D01*
X137333333Y-85600000D01*
X137333333Y-85700000D01*
X137300000Y-85766666D01*
X137266666Y-85800000D01*
X137200000Y-85833333D01*
X136933333Y-85833333D01*
X137566666Y-85466666D02*
X138000000Y-85466666D01*
X137766666Y-85733333D01*
X137866666Y-85733333D01*
X137933333Y-85766666D01*
X137966666Y-85800000D01*
X138000000Y-85866666D01*
X138000000Y-86033333D01*
X137966666Y-86100000D01*
X137933333Y-86133333D01*
X137866666Y-86166666D01*
X137666666Y-86166666D01*
X137600000Y-86133333D01*
X137566666Y-86100000D01*
G04 #@! TO.C,R2*
X83433333Y-47466666D02*
X83200000Y-47133333D01*
X83033333Y-47466666D02*
X83033333Y-46766666D01*
X83300000Y-46766666D01*
X83366666Y-46800000D01*
X83400000Y-46833333D01*
X83433333Y-46900000D01*
X83433333Y-47000000D01*
X83400000Y-47066666D01*
X83366666Y-47100000D01*
X83300000Y-47133333D01*
X83033333Y-47133333D01*
X83700000Y-46833333D02*
X83733333Y-46800000D01*
X83800000Y-46766666D01*
X83966666Y-46766666D01*
X84033333Y-46800000D01*
X84066666Y-46833333D01*
X84100000Y-46900000D01*
X84100000Y-46966666D01*
X84066666Y-47066666D01*
X83666666Y-47466666D01*
X84100000Y-47466666D01*
G04 #@! TO.C,R1*
X132883333Y-86316666D02*
X132650000Y-85983333D01*
X132483333Y-86316666D02*
X132483333Y-85616666D01*
X132750000Y-85616666D01*
X132816666Y-85650000D01*
X132850000Y-85683333D01*
X132883333Y-85750000D01*
X132883333Y-85850000D01*
X132850000Y-85916666D01*
X132816666Y-85950000D01*
X132750000Y-85983333D01*
X132483333Y-85983333D01*
X133550000Y-86316666D02*
X133150000Y-86316666D01*
X133350000Y-86316666D02*
X133350000Y-85616666D01*
X133283333Y-85716666D01*
X133216666Y-85783333D01*
X133150000Y-85816666D01*
G04 #@! TO.C,X9*
D15*
X81028571Y-104342857D02*
X81828571Y-105542857D01*
X81828571Y-104342857D02*
X81028571Y-105542857D01*
X82342857Y-105542857D02*
X82571428Y-105542857D01*
X82685714Y-105485714D01*
X82742857Y-105428571D01*
X82857142Y-105257142D01*
X82914285Y-105028571D01*
X82914285Y-104571428D01*
X82857142Y-104457142D01*
X82800000Y-104400000D01*
X82685714Y-104342857D01*
X82457142Y-104342857D01*
X82342857Y-104400000D01*
X82285714Y-104457142D01*
X82228571Y-104571428D01*
X82228571Y-104857142D01*
X82285714Y-104971428D01*
X82342857Y-105028571D01*
X82457142Y-105085714D01*
X82685714Y-105085714D01*
X82800000Y-105028571D01*
X82857142Y-104971428D01*
X82914285Y-104857142D01*
G04 #@! TO.C,X6*
D10*
X111528571Y-80942857D02*
X112328571Y-82142857D01*
X112328571Y-80942857D02*
X111528571Y-82142857D01*
X113300000Y-80942857D02*
X113071428Y-80942857D01*
X112957142Y-81000000D01*
X112900000Y-81057142D01*
X112785714Y-81228571D01*
X112728571Y-81457142D01*
X112728571Y-81914285D01*
X112785714Y-82028571D01*
X112842857Y-82085714D01*
X112957142Y-82142857D01*
X113185714Y-82142857D01*
X113300000Y-82085714D01*
X113357142Y-82028571D01*
X113414285Y-81914285D01*
X113414285Y-81628571D01*
X113357142Y-81514285D01*
X113300000Y-81457142D01*
X113185714Y-81400000D01*
X112957142Y-81400000D01*
X112842857Y-81457142D01*
X112785714Y-81514285D01*
X112728571Y-81628571D01*
G04 #@! TO.C,X1*
X89178571Y-125214285D02*
X90678571Y-124214285D01*
X89178571Y-124214285D02*
X90678571Y-125214285D01*
X90678571Y-122857142D02*
X90678571Y-123714285D01*
X90678571Y-123285714D02*
X89178571Y-123285714D01*
X89392857Y-123428571D01*
X89535714Y-123571428D01*
X89607142Y-123714285D01*
G04 #@! TO.C,X2*
X128178571Y-96214285D02*
X129678571Y-95214285D01*
X128178571Y-95214285D02*
X129678571Y-96214285D01*
X128321428Y-94714285D02*
X128250000Y-94642857D01*
X128178571Y-94500000D01*
X128178571Y-94142857D01*
X128250000Y-94000000D01*
X128321428Y-93928571D01*
X128464285Y-93857142D01*
X128607142Y-93857142D01*
X128821428Y-93928571D01*
X129678571Y-94785714D01*
X129678571Y-93857142D01*
G04 #@! TO.C,X4*
X89178571Y-82214285D02*
X90678571Y-81214285D01*
X89178571Y-81214285D02*
X90678571Y-82214285D01*
X89678571Y-80000000D02*
X90678571Y-80000000D01*
X89107142Y-80357142D02*
X90178571Y-80714285D01*
X90178571Y-79785714D01*
G04 #@! TO.C,X5*
X128178571Y-53214285D02*
X129678571Y-52214285D01*
X128178571Y-52214285D02*
X129678571Y-53214285D01*
X128178571Y-50928571D02*
X128178571Y-51642857D01*
X128892857Y-51714285D01*
X128821428Y-51642857D01*
X128750000Y-51500000D01*
X128750000Y-51142857D01*
X128821428Y-51000000D01*
X128892857Y-50928571D01*
X129035714Y-50857142D01*
X129392857Y-50857142D01*
X129535714Y-50928571D01*
X129607142Y-51000000D01*
X129678571Y-51142857D01*
X129678571Y-51500000D01*
X129607142Y-51642857D01*
X129535714Y-51714285D01*
G04 #@! TD*
M02*
