G04 #@! TF.GenerationSoftware,KiCad,Pcbnew,(5.0.0)*
G04 #@! TF.CreationDate,2018-11-05T15:09:06+02:00*
G04 #@! TF.ProjectId,tp_x2,74705F78322E6B696361645F70636200,rev?*
G04 #@! TF.SameCoordinates,Original*
G04 #@! TF.FileFunction,Copper,L1,Top,Signal*
G04 #@! TF.FilePolarity,Positive*
%FSLAX46Y46*%
G04 Gerber Fmt 4.6, Leading zero omitted, Abs format (unit mm)*
G04 Created by KiCad (PCBNEW (5.0.0)) date 11/05/18 15:09:06*
%MOMM*%
%LPD*%
G01*
G04 APERTURE LIST*
G04 #@! TA.AperFunction,ComponentPad*
%ADD10O,3.600000X1.800000*%
G04 #@! TD*
G04 #@! TA.AperFunction,ComponentPad*
%ADD11C,2.800000*%
G04 #@! TD*
G04 #@! TA.AperFunction,Conductor*
%ADD12C,2.800000*%
G04 #@! TD*
G04 #@! TA.AperFunction,ComponentPad*
%ADD13O,1.800000X3.600000*%
G04 #@! TD*
G04 #@! TA.AperFunction,SMDPad,CuDef*
%ADD14R,1.500000X2.700000*%
G04 #@! TD*
G04 #@! TA.AperFunction,SMDPad,CuDef*
%ADD15R,0.900000X1.700000*%
G04 #@! TD*
G04 #@! TA.AperFunction,ComponentPad*
%ADD16C,2.499360*%
G04 #@! TD*
G04 #@! TA.AperFunction,ViaPad*
%ADD17C,2.200000*%
G04 #@! TD*
G04 #@! TA.AperFunction,Conductor*
%ADD18C,0.600000*%
G04 #@! TD*
G04 #@! TA.AperFunction,Conductor*
%ADD19C,0.254000*%
G04 #@! TD*
G04 APERTURE END LIST*
D10*
G04 #@! TO.P,X3,1*
G04 #@! TO.N,/LD1*
X109920000Y-127000000D03*
X115000000Y-127000000D03*
G04 #@! TD*
D11*
G04 #@! TO.P,V1.1,2*
G04 #@! TO.N,Net-(D4-Pad1)*
X134430862Y-106693548D03*
D12*
G04 #@! TD*
G04 #@! TO.N,Net-(D4-Pad1)*
G04 #@! TO.C,V1.1*
X135447704Y-108977412D02*
X133414020Y-104409684D01*
D11*
G04 #@! TO.P,V1.1,1*
G04 #@! TO.N,/PH1*
X123216375Y-105968774D03*
D12*
G04 #@! TD*
G04 #@! TO.N,/PH1*
G04 #@! TO.C,V1.1*
X124850292Y-103452762D02*
X121582458Y-108484786D01*
D11*
G04 #@! TO.P,V1.1,3*
G04 #@! TO.N,/LD1*
X129684811Y-115654296D03*
D12*
G04 #@! TD*
G04 #@! TO.N,/LD1*
G04 #@! TO.C,V1.1*
X132639234Y-115133351D02*
X126730388Y-116175241D01*
D11*
G04 #@! TO.P,V2.2,2*
G04 #@! TO.N,Net-(D1-Pad1)*
X86269138Y-69106452D03*
D12*
G04 #@! TD*
G04 #@! TO.N,Net-(D1-Pad1)*
G04 #@! TO.C,V2.2*
X85252296Y-66822588D02*
X87285980Y-71390316D01*
D11*
G04 #@! TO.P,V2.2,1*
G04 #@! TO.N,/LD3*
X97483625Y-69831226D03*
D12*
G04 #@! TD*
G04 #@! TO.N,/LD3*
G04 #@! TO.C,V2.2*
X95849708Y-72347238D02*
X99117542Y-67315214D01*
D11*
G04 #@! TO.P,V2.2,3*
G04 #@! TO.N,/PH3*
X91015189Y-60145704D03*
D12*
G04 #@! TD*
G04 #@! TO.N,/PH3*
G04 #@! TO.C,V2.2*
X88060766Y-60666649D02*
X93969612Y-59624759D01*
D11*
G04 #@! TO.P,V1.2,2*
G04 #@! TO.N,Net-(D3-Pad1)*
X86269138Y-112106452D03*
D12*
G04 #@! TD*
G04 #@! TO.N,Net-(D3-Pad1)*
G04 #@! TO.C,V1.2*
X85252296Y-109822588D02*
X87285980Y-114390316D01*
D11*
G04 #@! TO.P,V1.2,1*
G04 #@! TO.N,/LD1*
X97483625Y-112831226D03*
D12*
G04 #@! TD*
G04 #@! TO.N,/LD1*
G04 #@! TO.C,V1.2*
X95849708Y-115347238D02*
X99117542Y-110315214D01*
D11*
G04 #@! TO.P,V1.2,3*
G04 #@! TO.N,/PH1*
X91015189Y-103145704D03*
D12*
G04 #@! TD*
G04 #@! TO.N,/PH1*
G04 #@! TO.C,V1.2*
X88060766Y-103666649D02*
X93969612Y-102624759D01*
D11*
G04 #@! TO.P,V2.1,2*
G04 #@! TO.N,Net-(D2-Pad1)*
X134430862Y-63693548D03*
D12*
G04 #@! TD*
G04 #@! TO.N,Net-(D2-Pad1)*
G04 #@! TO.C,V2.1*
X135447704Y-65977412D02*
X133414020Y-61409684D01*
D11*
G04 #@! TO.P,V2.1,1*
G04 #@! TO.N,/PH3*
X123216375Y-62968774D03*
D12*
G04 #@! TD*
G04 #@! TO.N,/PH3*
G04 #@! TO.C,V2.1*
X124850292Y-60452762D02*
X121582458Y-65484786D01*
D11*
G04 #@! TO.P,V2.1,3*
G04 #@! TO.N,/LD3*
X129684811Y-72654296D03*
D12*
G04 #@! TD*
G04 #@! TO.N,/LD3*
G04 #@! TO.C,V2.1*
X132639234Y-72133351D02*
X126730388Y-73175241D01*
D13*
G04 #@! TO.P,X14,1*
G04 #@! TO.N,/CTRL3B*
X139000000Y-74860000D03*
X139000000Y-79940000D03*
G04 #@! TD*
G04 #@! TO.P,X17,1*
G04 #@! TO.N,/CTRL3A*
X82000000Y-52800000D03*
X82000000Y-57880000D03*
G04 #@! TD*
D10*
G04 #@! TO.P,X26,1*
G04 #@! TO.N,/PH3*
X110000000Y-59800000D03*
X104920000Y-59800000D03*
G04 #@! TD*
D14*
G04 #@! TO.P,D4,1*
G04 #@! TO.N,Net-(D4-Pad1)*
X136000000Y-124000000D03*
G04 #@! TO.P,D4,2*
G04 #@! TO.N,/LD1*
X131200000Y-124000000D03*
G04 #@! TD*
G04 #@! TO.P,D2,2*
G04 #@! TO.N,/LD3*
X131200000Y-81000000D03*
G04 #@! TO.P,D2,1*
G04 #@! TO.N,Net-(D2-Pad1)*
X136000000Y-81000000D03*
G04 #@! TD*
D13*
G04 #@! TO.P,X7,1*
G04 #@! TO.N,/CTRL1B*
X139000000Y-122940000D03*
X139000000Y-117860000D03*
G04 #@! TD*
D10*
G04 #@! TO.P,X12,1*
G04 #@! TO.N,/PH1*
X110000000Y-102800000D03*
X104920000Y-102800000D03*
G04 #@! TD*
D14*
G04 #@! TO.P,D3,2*
G04 #@! TO.N,/PH1*
X90000000Y-95000000D03*
G04 #@! TO.P,D3,1*
G04 #@! TO.N,Net-(D3-Pad1)*
X85200000Y-95000000D03*
G04 #@! TD*
D15*
G04 #@! TO.P,R6,1*
G04 #@! TO.N,/LD1*
X131100000Y-127000000D03*
G04 #@! TO.P,R6,2*
G04 #@! TO.N,Net-(D4-Pad1)*
X134000000Y-127000000D03*
G04 #@! TD*
G04 #@! TO.P,R8,1*
G04 #@! TO.N,/CTRL1B*
X138900000Y-127000000D03*
G04 #@! TO.P,R8,2*
G04 #@! TO.N,Net-(D4-Pad1)*
X136000000Y-127000000D03*
G04 #@! TD*
G04 #@! TO.P,R7,2*
G04 #@! TO.N,Net-(D3-Pad1)*
X85000000Y-92000000D03*
G04 #@! TO.P,R7,1*
G04 #@! TO.N,/CTRL1A*
X82100000Y-92000000D03*
G04 #@! TD*
G04 #@! TO.P,R9,2*
G04 #@! TO.N,Net-(D3-Pad1)*
X87100000Y-92000000D03*
G04 #@! TO.P,R9,1*
G04 #@! TO.N,/PH1*
X90000000Y-92000000D03*
G04 #@! TD*
D14*
G04 #@! TO.P,D1,1*
G04 #@! TO.N,Net-(D1-Pad1)*
X85200000Y-52000000D03*
G04 #@! TO.P,D1,2*
G04 #@! TO.N,/PH3*
X90000000Y-52000000D03*
G04 #@! TD*
D15*
G04 #@! TO.P,R4,1*
G04 #@! TO.N,/PH3*
X90000000Y-49000000D03*
G04 #@! TO.P,R4,2*
G04 #@! TO.N,Net-(D1-Pad1)*
X87100000Y-49000000D03*
G04 #@! TD*
G04 #@! TO.P,R3,2*
G04 #@! TO.N,Net-(D2-Pad1)*
X136000000Y-84000000D03*
G04 #@! TO.P,R3,1*
G04 #@! TO.N,/CTRL3B*
X138900000Y-84000000D03*
G04 #@! TD*
G04 #@! TO.P,R2,1*
G04 #@! TO.N,/CTRL3A*
X82100000Y-49000000D03*
G04 #@! TO.P,R2,2*
G04 #@! TO.N,Net-(D1-Pad1)*
X85000000Y-49000000D03*
G04 #@! TD*
G04 #@! TO.P,R1,2*
G04 #@! TO.N,Net-(D2-Pad1)*
X134000000Y-84000000D03*
G04 #@! TO.P,R1,1*
G04 #@! TO.N,/LD3*
X131100000Y-84000000D03*
G04 #@! TD*
D13*
G04 #@! TO.P,X9,1*
G04 #@! TO.N,/CTRL1A*
X82000000Y-95920000D03*
X82000000Y-101000000D03*
G04 #@! TD*
D10*
G04 #@! TO.P,X6,1*
G04 #@! TO.N,/LD3*
X115040000Y-84000000D03*
X109960000Y-84000000D03*
G04 #@! TD*
D11*
G04 #@! TO.P,X1,1*
G04 #@! TO.N,/LD1*
X103000000Y-127100000D03*
X98000000Y-127100000D03*
X93000000Y-127100000D03*
X103000000Y-120000000D03*
X98000000Y-120000000D03*
X93000000Y-120000000D03*
G04 #@! TD*
G04 #@! TO.P,X2,1*
G04 #@! TO.N,/PH1*
X114000000Y-91900000D03*
X119000000Y-91900000D03*
X124000000Y-91900000D03*
X114000000Y-99000000D03*
X119000000Y-99000000D03*
X124000000Y-99000000D03*
G04 #@! TD*
G04 #@! TO.P,X4,1*
G04 #@! TO.N,/LD3*
X103100000Y-83800000D03*
X98100000Y-83800000D03*
X93100000Y-83800000D03*
X103100000Y-76700000D03*
X98100000Y-76700000D03*
X93100000Y-76700000D03*
G04 #@! TD*
G04 #@! TO.P,X5,1*
G04 #@! TO.N,/PH3*
X114000000Y-48900000D03*
X119000000Y-48900000D03*
X124000000Y-48900000D03*
X114000000Y-56000000D03*
X119000000Y-56000000D03*
X124000000Y-56000000D03*
G04 #@! TD*
D16*
G04 #@! TO.P,H1,1*
G04 #@! TO.N,/LD1*
X111500000Y-111500000D03*
G04 #@! TD*
G04 #@! TO.P,H2,1*
G04 #@! TO.N,/PH1*
X118005382Y-107398781D03*
G04 #@! TD*
G04 #@! TO.P,H3,1*
G04 #@! TO.N,/LD3*
X111500000Y-68500000D03*
G04 #@! TD*
G04 #@! TO.P,H4,1*
G04 #@! TO.N,/PH3*
X118005382Y-64398781D03*
G04 #@! TD*
D17*
G04 #@! TO.N,/PH1*
X96000000Y-92000000D03*
X105000000Y-92000000D03*
X109500000Y-94500000D03*
X108000000Y-98500000D03*
X91000000Y-100000000D03*
X96500000Y-104500000D03*
X100500000Y-103500000D03*
X116000000Y-104000000D03*
X120500000Y-103000000D03*
G04 #@! TO.N,/LD1*
X100500000Y-116000000D03*
X103000000Y-111500000D03*
X107000000Y-110000000D03*
X117500000Y-115500000D03*
X122500000Y-115500000D03*
X130500000Y-119000000D03*
X125500000Y-127500000D03*
G04 #@! TO.N,/LD3*
X100500000Y-72500000D03*
X103000000Y-68500000D03*
X107000000Y-67500000D03*
X117500000Y-72500000D03*
X122500000Y-72500000D03*
X125500000Y-84500000D03*
X130500000Y-76000000D03*
G04 #@! TO.N,/PH3*
X91000000Y-57000000D03*
X96000000Y-49000000D03*
X105000000Y-49000000D03*
X109500000Y-51000000D03*
X108000000Y-55500000D03*
X96500000Y-61500000D03*
X100500000Y-60500000D03*
X120500000Y-59500000D03*
X116000000Y-61000000D03*
G04 #@! TD*
D18*
G04 #@! TO.N,/CTRL1A*
X82000000Y-101000000D02*
X82000000Y-96000000D01*
X82000000Y-96000000D02*
X82100000Y-95900000D01*
X82100000Y-92100000D02*
X82000000Y-92000000D01*
X82100000Y-95900000D02*
X82100000Y-92100000D01*
G04 #@! TO.N,/CTRL1B*
X138900000Y-126900000D02*
X139000000Y-127000000D01*
X139000000Y-123000000D02*
X138900000Y-123100000D01*
X138900000Y-123100000D02*
X138900000Y-126900000D01*
X139000000Y-117920000D02*
X139000000Y-123000000D01*
G04 #@! TO.N,/CTRL3A*
X82100000Y-49100000D02*
X82000000Y-49000000D01*
X82100000Y-52900000D02*
X82100000Y-49100000D01*
X82000000Y-58000000D02*
X82000000Y-53000000D01*
X82000000Y-53000000D02*
X82100000Y-52900000D01*
G04 #@! TO.N,/CTRL3B*
X139000000Y-74920000D02*
X139000000Y-80000000D01*
X138900000Y-83900000D02*
X139000000Y-84000000D01*
X139000000Y-80000000D02*
X138900000Y-80100000D01*
X138900000Y-80100000D02*
X138900000Y-83900000D01*
G04 #@! TD*
D19*
G04 #@! TO.N,/PH3*
G36*
X92873000Y-55000000D02*
X92882667Y-55048601D01*
X92910197Y-55089803D01*
X92951399Y-55117333D01*
X93000000Y-55127000D01*
X94000000Y-55127000D01*
X94048601Y-55117333D01*
X94089803Y-55089803D01*
X94117333Y-55048601D01*
X94127000Y-55000000D01*
X94127000Y-52978041D01*
X95765000Y-52978041D01*
X95765000Y-54821959D01*
X96470637Y-56525517D01*
X97774483Y-57829363D01*
X99478041Y-58535000D01*
X101321959Y-58535000D01*
X103025517Y-57829363D01*
X104329363Y-56525517D01*
X105035000Y-54821959D01*
X105035000Y-52978041D01*
X104329363Y-51274483D01*
X103025517Y-49970637D01*
X101321959Y-49265000D01*
X99478041Y-49265000D01*
X97774483Y-49970637D01*
X96470637Y-51274483D01*
X95765000Y-52978041D01*
X94127000Y-52978041D01*
X94127000Y-46735000D01*
X126873000Y-46735000D01*
X126873000Y-67765000D01*
X119916380Y-67765000D01*
X114081303Y-62902436D01*
X114037778Y-62878749D01*
X114000000Y-62873000D01*
X113884592Y-62873000D01*
X113786783Y-62807646D01*
X113572388Y-62765000D01*
X113500000Y-62750601D01*
X113427612Y-62765000D01*
X97072388Y-62765000D01*
X97000000Y-62750601D01*
X96927612Y-62765000D01*
X96713217Y-62807646D01*
X96615408Y-62873000D01*
X87052606Y-62873000D01*
X86127000Y-61947394D01*
X86127000Y-59052606D01*
X88552606Y-56627000D01*
X89000000Y-56627000D01*
X89048601Y-56617333D01*
X89089803Y-56589803D01*
X89117333Y-56548601D01*
X89127000Y-56500000D01*
X89127000Y-53711443D01*
X89174214Y-53731000D01*
X89777750Y-53731000D01*
X89873000Y-53635750D01*
X89873000Y-52127000D01*
X90127000Y-52127000D01*
X90127000Y-53635750D01*
X90222250Y-53731000D01*
X90825786Y-53731000D01*
X90965820Y-53672996D01*
X91072996Y-53565819D01*
X91131000Y-53425785D01*
X91131000Y-52222250D01*
X91035750Y-52127000D01*
X90127000Y-52127000D01*
X89873000Y-52127000D01*
X89853000Y-52127000D01*
X89853000Y-51873000D01*
X89873000Y-51873000D01*
X89873000Y-50364250D01*
X90127000Y-50364250D01*
X90127000Y-51873000D01*
X91035750Y-51873000D01*
X91131000Y-51777750D01*
X91131000Y-50574215D01*
X91072996Y-50434181D01*
X90965820Y-50327004D01*
X90825786Y-50269000D01*
X90222250Y-50269000D01*
X90127000Y-50364250D01*
X89873000Y-50364250D01*
X89777750Y-50269000D01*
X89174214Y-50269000D01*
X89127000Y-50288557D01*
X89127000Y-49222250D01*
X89169000Y-49222250D01*
X89169000Y-49925785D01*
X89227004Y-50065819D01*
X89334180Y-50172996D01*
X89474214Y-50231000D01*
X89777750Y-50231000D01*
X89873000Y-50135750D01*
X89873000Y-49127000D01*
X90127000Y-49127000D01*
X90127000Y-50135750D01*
X90222250Y-50231000D01*
X90525786Y-50231000D01*
X90665820Y-50172996D01*
X90772996Y-50065819D01*
X90831000Y-49925785D01*
X90831000Y-49222250D01*
X90735750Y-49127000D01*
X90127000Y-49127000D01*
X89873000Y-49127000D01*
X89264250Y-49127000D01*
X89169000Y-49222250D01*
X89127000Y-49222250D01*
X89127000Y-48074215D01*
X89169000Y-48074215D01*
X89169000Y-48777750D01*
X89264250Y-48873000D01*
X89873000Y-48873000D01*
X89873000Y-47864250D01*
X90127000Y-47864250D01*
X90127000Y-48873000D01*
X90735750Y-48873000D01*
X90831000Y-48777750D01*
X90831000Y-48074215D01*
X90772996Y-47934181D01*
X90665820Y-47827004D01*
X90525786Y-47769000D01*
X90222250Y-47769000D01*
X90127000Y-47864250D01*
X89873000Y-47864250D01*
X89777750Y-47769000D01*
X89474214Y-47769000D01*
X89334180Y-47827004D01*
X89227004Y-47934181D01*
X89169000Y-48074215D01*
X89127000Y-48074215D01*
X89127000Y-46735000D01*
X92873000Y-46735000D01*
X92873000Y-55000000D01*
X92873000Y-55000000D01*
G37*
X92873000Y-55000000D02*
X92882667Y-55048601D01*
X92910197Y-55089803D01*
X92951399Y-55117333D01*
X93000000Y-55127000D01*
X94000000Y-55127000D01*
X94048601Y-55117333D01*
X94089803Y-55089803D01*
X94117333Y-55048601D01*
X94127000Y-55000000D01*
X94127000Y-52978041D01*
X95765000Y-52978041D01*
X95765000Y-54821959D01*
X96470637Y-56525517D01*
X97774483Y-57829363D01*
X99478041Y-58535000D01*
X101321959Y-58535000D01*
X103025517Y-57829363D01*
X104329363Y-56525517D01*
X105035000Y-54821959D01*
X105035000Y-52978041D01*
X104329363Y-51274483D01*
X103025517Y-49970637D01*
X101321959Y-49265000D01*
X99478041Y-49265000D01*
X97774483Y-49970637D01*
X96470637Y-51274483D01*
X95765000Y-52978041D01*
X94127000Y-52978041D01*
X94127000Y-46735000D01*
X126873000Y-46735000D01*
X126873000Y-67765000D01*
X119916380Y-67765000D01*
X114081303Y-62902436D01*
X114037778Y-62878749D01*
X114000000Y-62873000D01*
X113884592Y-62873000D01*
X113786783Y-62807646D01*
X113572388Y-62765000D01*
X113500000Y-62750601D01*
X113427612Y-62765000D01*
X97072388Y-62765000D01*
X97000000Y-62750601D01*
X96927612Y-62765000D01*
X96713217Y-62807646D01*
X96615408Y-62873000D01*
X87052606Y-62873000D01*
X86127000Y-61947394D01*
X86127000Y-59052606D01*
X88552606Y-56627000D01*
X89000000Y-56627000D01*
X89048601Y-56617333D01*
X89089803Y-56589803D01*
X89117333Y-56548601D01*
X89127000Y-56500000D01*
X89127000Y-53711443D01*
X89174214Y-53731000D01*
X89777750Y-53731000D01*
X89873000Y-53635750D01*
X89873000Y-52127000D01*
X90127000Y-52127000D01*
X90127000Y-53635750D01*
X90222250Y-53731000D01*
X90825786Y-53731000D01*
X90965820Y-53672996D01*
X91072996Y-53565819D01*
X91131000Y-53425785D01*
X91131000Y-52222250D01*
X91035750Y-52127000D01*
X90127000Y-52127000D01*
X89873000Y-52127000D01*
X89853000Y-52127000D01*
X89853000Y-51873000D01*
X89873000Y-51873000D01*
X89873000Y-50364250D01*
X90127000Y-50364250D01*
X90127000Y-51873000D01*
X91035750Y-51873000D01*
X91131000Y-51777750D01*
X91131000Y-50574215D01*
X91072996Y-50434181D01*
X90965820Y-50327004D01*
X90825786Y-50269000D01*
X90222250Y-50269000D01*
X90127000Y-50364250D01*
X89873000Y-50364250D01*
X89777750Y-50269000D01*
X89174214Y-50269000D01*
X89127000Y-50288557D01*
X89127000Y-49222250D01*
X89169000Y-49222250D01*
X89169000Y-49925785D01*
X89227004Y-50065819D01*
X89334180Y-50172996D01*
X89474214Y-50231000D01*
X89777750Y-50231000D01*
X89873000Y-50135750D01*
X89873000Y-49127000D01*
X90127000Y-49127000D01*
X90127000Y-50135750D01*
X90222250Y-50231000D01*
X90525786Y-50231000D01*
X90665820Y-50172996D01*
X90772996Y-50065819D01*
X90831000Y-49925785D01*
X90831000Y-49222250D01*
X90735750Y-49127000D01*
X90127000Y-49127000D01*
X89873000Y-49127000D01*
X89264250Y-49127000D01*
X89169000Y-49222250D01*
X89127000Y-49222250D01*
X89127000Y-48074215D01*
X89169000Y-48074215D01*
X89169000Y-48777750D01*
X89264250Y-48873000D01*
X89873000Y-48873000D01*
X89873000Y-47864250D01*
X90127000Y-47864250D01*
X90127000Y-48873000D01*
X90735750Y-48873000D01*
X90831000Y-48777750D01*
X90831000Y-48074215D01*
X90772996Y-47934181D01*
X90665820Y-47827004D01*
X90525786Y-47769000D01*
X90222250Y-47769000D01*
X90127000Y-47864250D01*
X89873000Y-47864250D01*
X89777750Y-47769000D01*
X89474214Y-47769000D01*
X89334180Y-47827004D01*
X89227004Y-47934181D01*
X89169000Y-48074215D01*
X89127000Y-48074215D01*
X89127000Y-46735000D01*
X92873000Y-46735000D01*
X92873000Y-55000000D01*
G04 #@! TO.N,/LD3*
G36*
X115918697Y-70097564D02*
X115962222Y-70121251D01*
X116000000Y-70127000D01*
X116115408Y-70127000D01*
X116213217Y-70192354D01*
X116500000Y-70249399D01*
X116572388Y-70235000D01*
X128427612Y-70235000D01*
X128500000Y-70249399D01*
X128572388Y-70235000D01*
X128786783Y-70192354D01*
X128884592Y-70127000D01*
X133947394Y-70127000D01*
X134873000Y-71052606D01*
X134873000Y-73947394D01*
X131910197Y-76910197D01*
X131882667Y-76951399D01*
X131873000Y-77000000D01*
X131873000Y-79223000D01*
X131579750Y-79223000D01*
X131473000Y-79329750D01*
X131473000Y-80727000D01*
X131493000Y-80727000D01*
X131493000Y-81273000D01*
X131473000Y-81273000D01*
X131473000Y-82670250D01*
X131525750Y-82723000D01*
X131431750Y-82723000D01*
X131325000Y-82829750D01*
X131325000Y-83727000D01*
X131393000Y-83727000D01*
X131393000Y-84273000D01*
X131325000Y-84273000D01*
X131325000Y-85170250D01*
X131431750Y-85277000D01*
X131634935Y-85277000D01*
X131791876Y-85211993D01*
X131873000Y-85130869D01*
X131873000Y-86265000D01*
X129127000Y-86265000D01*
X129127000Y-84379750D01*
X130223000Y-84379750D01*
X130223000Y-84934936D01*
X130288007Y-85091876D01*
X130408124Y-85211993D01*
X130565065Y-85277000D01*
X130768250Y-85277000D01*
X130875000Y-85170250D01*
X130875000Y-84273000D01*
X130329750Y-84273000D01*
X130223000Y-84379750D01*
X129127000Y-84379750D01*
X129127000Y-81379750D01*
X130023000Y-81379750D01*
X130023000Y-82434936D01*
X130088007Y-82591876D01*
X130208124Y-82711993D01*
X130365065Y-82777000D01*
X130434697Y-82777000D01*
X130408124Y-82788007D01*
X130288007Y-82908124D01*
X130223000Y-83065064D01*
X130223000Y-83620250D01*
X130329750Y-83727000D01*
X130875000Y-83727000D01*
X130875000Y-82829750D01*
X130821250Y-82776000D01*
X130927000Y-82670250D01*
X130927000Y-81273000D01*
X130129750Y-81273000D01*
X130023000Y-81379750D01*
X129127000Y-81379750D01*
X129127000Y-79565064D01*
X130023000Y-79565064D01*
X130023000Y-80620250D01*
X130129750Y-80727000D01*
X130927000Y-80727000D01*
X130927000Y-79329750D01*
X130820250Y-79223000D01*
X130365065Y-79223000D01*
X130208124Y-79288007D01*
X130088007Y-79408124D01*
X130023000Y-79565064D01*
X129127000Y-79565064D01*
X129127000Y-78000000D01*
X129117333Y-77951399D01*
X129089803Y-77910197D01*
X129048601Y-77882667D01*
X129000000Y-77873000D01*
X128000000Y-77873000D01*
X127951399Y-77882667D01*
X127910197Y-77910197D01*
X127882667Y-77951399D01*
X127873000Y-78000000D01*
X127873000Y-86265000D01*
X90127000Y-86265000D01*
X90127000Y-76041298D01*
X91845732Y-73678041D01*
X105665000Y-73678041D01*
X105665000Y-75521959D01*
X106370637Y-77225517D01*
X107674483Y-78529363D01*
X109378041Y-79235000D01*
X111221959Y-79235000D01*
X112925517Y-78529363D01*
X113476839Y-77978041D01*
X115765000Y-77978041D01*
X115765000Y-79821959D01*
X116470637Y-81525517D01*
X117774483Y-82829363D01*
X119478041Y-83535000D01*
X121321959Y-83535000D01*
X123025517Y-82829363D01*
X124329363Y-81525517D01*
X125035000Y-79821959D01*
X125035000Y-77978041D01*
X124329363Y-76274483D01*
X123025517Y-74970637D01*
X121321959Y-74265000D01*
X119478041Y-74265000D01*
X117774483Y-74970637D01*
X116470637Y-76274483D01*
X115765000Y-77978041D01*
X113476839Y-77978041D01*
X114229363Y-77225517D01*
X114935000Y-75521959D01*
X114935000Y-73678041D01*
X114229363Y-71974483D01*
X112925517Y-70670637D01*
X111221959Y-69965000D01*
X109378041Y-69965000D01*
X107674483Y-70670637D01*
X106370637Y-71974483D01*
X105665000Y-73678041D01*
X91845732Y-73678041D01*
X97986126Y-65235000D01*
X110083620Y-65235000D01*
X115918697Y-70097564D01*
X115918697Y-70097564D01*
G37*
X115918697Y-70097564D02*
X115962222Y-70121251D01*
X116000000Y-70127000D01*
X116115408Y-70127000D01*
X116213217Y-70192354D01*
X116500000Y-70249399D01*
X116572388Y-70235000D01*
X128427612Y-70235000D01*
X128500000Y-70249399D01*
X128572388Y-70235000D01*
X128786783Y-70192354D01*
X128884592Y-70127000D01*
X133947394Y-70127000D01*
X134873000Y-71052606D01*
X134873000Y-73947394D01*
X131910197Y-76910197D01*
X131882667Y-76951399D01*
X131873000Y-77000000D01*
X131873000Y-79223000D01*
X131579750Y-79223000D01*
X131473000Y-79329750D01*
X131473000Y-80727000D01*
X131493000Y-80727000D01*
X131493000Y-81273000D01*
X131473000Y-81273000D01*
X131473000Y-82670250D01*
X131525750Y-82723000D01*
X131431750Y-82723000D01*
X131325000Y-82829750D01*
X131325000Y-83727000D01*
X131393000Y-83727000D01*
X131393000Y-84273000D01*
X131325000Y-84273000D01*
X131325000Y-85170250D01*
X131431750Y-85277000D01*
X131634935Y-85277000D01*
X131791876Y-85211993D01*
X131873000Y-85130869D01*
X131873000Y-86265000D01*
X129127000Y-86265000D01*
X129127000Y-84379750D01*
X130223000Y-84379750D01*
X130223000Y-84934936D01*
X130288007Y-85091876D01*
X130408124Y-85211993D01*
X130565065Y-85277000D01*
X130768250Y-85277000D01*
X130875000Y-85170250D01*
X130875000Y-84273000D01*
X130329750Y-84273000D01*
X130223000Y-84379750D01*
X129127000Y-84379750D01*
X129127000Y-81379750D01*
X130023000Y-81379750D01*
X130023000Y-82434936D01*
X130088007Y-82591876D01*
X130208124Y-82711993D01*
X130365065Y-82777000D01*
X130434697Y-82777000D01*
X130408124Y-82788007D01*
X130288007Y-82908124D01*
X130223000Y-83065064D01*
X130223000Y-83620250D01*
X130329750Y-83727000D01*
X130875000Y-83727000D01*
X130875000Y-82829750D01*
X130821250Y-82776000D01*
X130927000Y-82670250D01*
X130927000Y-81273000D01*
X130129750Y-81273000D01*
X130023000Y-81379750D01*
X129127000Y-81379750D01*
X129127000Y-79565064D01*
X130023000Y-79565064D01*
X130023000Y-80620250D01*
X130129750Y-80727000D01*
X130927000Y-80727000D01*
X130927000Y-79329750D01*
X130820250Y-79223000D01*
X130365065Y-79223000D01*
X130208124Y-79288007D01*
X130088007Y-79408124D01*
X130023000Y-79565064D01*
X129127000Y-79565064D01*
X129127000Y-78000000D01*
X129117333Y-77951399D01*
X129089803Y-77910197D01*
X129048601Y-77882667D01*
X129000000Y-77873000D01*
X128000000Y-77873000D01*
X127951399Y-77882667D01*
X127910197Y-77910197D01*
X127882667Y-77951399D01*
X127873000Y-78000000D01*
X127873000Y-86265000D01*
X90127000Y-86265000D01*
X90127000Y-76041298D01*
X91845732Y-73678041D01*
X105665000Y-73678041D01*
X105665000Y-75521959D01*
X106370637Y-77225517D01*
X107674483Y-78529363D01*
X109378041Y-79235000D01*
X111221959Y-79235000D01*
X112925517Y-78529363D01*
X113476839Y-77978041D01*
X115765000Y-77978041D01*
X115765000Y-79821959D01*
X116470637Y-81525517D01*
X117774483Y-82829363D01*
X119478041Y-83535000D01*
X121321959Y-83535000D01*
X123025517Y-82829363D01*
X124329363Y-81525517D01*
X125035000Y-79821959D01*
X125035000Y-77978041D01*
X124329363Y-76274483D01*
X123025517Y-74970637D01*
X121321959Y-74265000D01*
X119478041Y-74265000D01*
X117774483Y-74970637D01*
X116470637Y-76274483D01*
X115765000Y-77978041D01*
X113476839Y-77978041D01*
X114229363Y-77225517D01*
X114935000Y-75521959D01*
X114935000Y-73678041D01*
X114229363Y-71974483D01*
X112925517Y-70670637D01*
X111221959Y-69965000D01*
X109378041Y-69965000D01*
X107674483Y-70670637D01*
X106370637Y-71974483D01*
X105665000Y-73678041D01*
X91845732Y-73678041D01*
X97986126Y-65235000D01*
X110083620Y-65235000D01*
X115918697Y-70097564D01*
G04 #@! TO.N,Net-(D1-Pad1)*
G36*
X87573000Y-47769000D02*
X87322250Y-47769000D01*
X87227000Y-47864250D01*
X87227000Y-48873000D01*
X87247000Y-48873000D01*
X87247000Y-49127000D01*
X87227000Y-49127000D01*
X87227000Y-50135750D01*
X87322250Y-50231000D01*
X87573000Y-50231000D01*
X87573000Y-54473000D01*
X85000000Y-54473000D01*
X84951399Y-54482667D01*
X84910197Y-54510197D01*
X84882667Y-54551399D01*
X84873000Y-54600000D01*
X84873000Y-65000000D01*
X84882667Y-65048601D01*
X84910197Y-65089803D01*
X84951399Y-65117333D01*
X85000000Y-65127000D01*
X86921510Y-65127000D01*
X88873000Y-69029980D01*
X88873000Y-72873000D01*
X86304921Y-72873000D01*
X84027000Y-70449680D01*
X84027000Y-52222250D01*
X84069000Y-52222250D01*
X84069000Y-53425785D01*
X84127004Y-53565819D01*
X84234180Y-53672996D01*
X84374214Y-53731000D01*
X84977750Y-53731000D01*
X85073000Y-53635750D01*
X85073000Y-52127000D01*
X85327000Y-52127000D01*
X85327000Y-53635750D01*
X85422250Y-53731000D01*
X86025786Y-53731000D01*
X86165820Y-53672996D01*
X86272996Y-53565819D01*
X86331000Y-53425785D01*
X86331000Y-52222250D01*
X86235750Y-52127000D01*
X85327000Y-52127000D01*
X85073000Y-52127000D01*
X84164250Y-52127000D01*
X84069000Y-52222250D01*
X84027000Y-52222250D01*
X84027000Y-50574215D01*
X84069000Y-50574215D01*
X84069000Y-51777750D01*
X84164250Y-51873000D01*
X85073000Y-51873000D01*
X85073000Y-50364250D01*
X85327000Y-50364250D01*
X85327000Y-51873000D01*
X86235750Y-51873000D01*
X86331000Y-51777750D01*
X86331000Y-50574215D01*
X86272996Y-50434181D01*
X86165820Y-50327004D01*
X86025786Y-50269000D01*
X85422250Y-50269000D01*
X85327000Y-50364250D01*
X85073000Y-50364250D01*
X84977750Y-50269000D01*
X84374214Y-50269000D01*
X84234180Y-50327004D01*
X84127004Y-50434181D01*
X84069000Y-50574215D01*
X84027000Y-50574215D01*
X84027000Y-49222250D01*
X84169000Y-49222250D01*
X84169000Y-49925785D01*
X84227004Y-50065819D01*
X84334180Y-50172996D01*
X84474214Y-50231000D01*
X84777750Y-50231000D01*
X84873000Y-50135750D01*
X84873000Y-49127000D01*
X85127000Y-49127000D01*
X85127000Y-50135750D01*
X85222250Y-50231000D01*
X85525786Y-50231000D01*
X85665820Y-50172996D01*
X85772996Y-50065819D01*
X85831000Y-49925785D01*
X85831000Y-49222250D01*
X86269000Y-49222250D01*
X86269000Y-49925785D01*
X86327004Y-50065819D01*
X86434180Y-50172996D01*
X86574214Y-50231000D01*
X86877750Y-50231000D01*
X86973000Y-50135750D01*
X86973000Y-49127000D01*
X86364250Y-49127000D01*
X86269000Y-49222250D01*
X85831000Y-49222250D01*
X85735750Y-49127000D01*
X85127000Y-49127000D01*
X84873000Y-49127000D01*
X84264250Y-49127000D01*
X84169000Y-49222250D01*
X84027000Y-49222250D01*
X84027000Y-48074215D01*
X84169000Y-48074215D01*
X84169000Y-48777750D01*
X84264250Y-48873000D01*
X84873000Y-48873000D01*
X84873000Y-47864250D01*
X85127000Y-47864250D01*
X85127000Y-48873000D01*
X85735750Y-48873000D01*
X85831000Y-48777750D01*
X85831000Y-48074215D01*
X86269000Y-48074215D01*
X86269000Y-48777750D01*
X86364250Y-48873000D01*
X86973000Y-48873000D01*
X86973000Y-47864250D01*
X86877750Y-47769000D01*
X86574214Y-47769000D01*
X86434180Y-47827004D01*
X86327004Y-47934181D01*
X86269000Y-48074215D01*
X85831000Y-48074215D01*
X85772996Y-47934181D01*
X85665820Y-47827004D01*
X85525786Y-47769000D01*
X85222250Y-47769000D01*
X85127000Y-47864250D01*
X84873000Y-47864250D01*
X84777750Y-47769000D01*
X84474214Y-47769000D01*
X84334180Y-47827004D01*
X84227004Y-47934181D01*
X84169000Y-48074215D01*
X84027000Y-48074215D01*
X84027000Y-47127000D01*
X87573000Y-47127000D01*
X87573000Y-47769000D01*
X87573000Y-47769000D01*
G37*
X87573000Y-47769000D02*
X87322250Y-47769000D01*
X87227000Y-47864250D01*
X87227000Y-48873000D01*
X87247000Y-48873000D01*
X87247000Y-49127000D01*
X87227000Y-49127000D01*
X87227000Y-50135750D01*
X87322250Y-50231000D01*
X87573000Y-50231000D01*
X87573000Y-54473000D01*
X85000000Y-54473000D01*
X84951399Y-54482667D01*
X84910197Y-54510197D01*
X84882667Y-54551399D01*
X84873000Y-54600000D01*
X84873000Y-65000000D01*
X84882667Y-65048601D01*
X84910197Y-65089803D01*
X84951399Y-65117333D01*
X85000000Y-65127000D01*
X86921510Y-65127000D01*
X88873000Y-69029980D01*
X88873000Y-72873000D01*
X86304921Y-72873000D01*
X84027000Y-70449680D01*
X84027000Y-52222250D01*
X84069000Y-52222250D01*
X84069000Y-53425785D01*
X84127004Y-53565819D01*
X84234180Y-53672996D01*
X84374214Y-53731000D01*
X84977750Y-53731000D01*
X85073000Y-53635750D01*
X85073000Y-52127000D01*
X85327000Y-52127000D01*
X85327000Y-53635750D01*
X85422250Y-53731000D01*
X86025786Y-53731000D01*
X86165820Y-53672996D01*
X86272996Y-53565819D01*
X86331000Y-53425785D01*
X86331000Y-52222250D01*
X86235750Y-52127000D01*
X85327000Y-52127000D01*
X85073000Y-52127000D01*
X84164250Y-52127000D01*
X84069000Y-52222250D01*
X84027000Y-52222250D01*
X84027000Y-50574215D01*
X84069000Y-50574215D01*
X84069000Y-51777750D01*
X84164250Y-51873000D01*
X85073000Y-51873000D01*
X85073000Y-50364250D01*
X85327000Y-50364250D01*
X85327000Y-51873000D01*
X86235750Y-51873000D01*
X86331000Y-51777750D01*
X86331000Y-50574215D01*
X86272996Y-50434181D01*
X86165820Y-50327004D01*
X86025786Y-50269000D01*
X85422250Y-50269000D01*
X85327000Y-50364250D01*
X85073000Y-50364250D01*
X84977750Y-50269000D01*
X84374214Y-50269000D01*
X84234180Y-50327004D01*
X84127004Y-50434181D01*
X84069000Y-50574215D01*
X84027000Y-50574215D01*
X84027000Y-49222250D01*
X84169000Y-49222250D01*
X84169000Y-49925785D01*
X84227004Y-50065819D01*
X84334180Y-50172996D01*
X84474214Y-50231000D01*
X84777750Y-50231000D01*
X84873000Y-50135750D01*
X84873000Y-49127000D01*
X85127000Y-49127000D01*
X85127000Y-50135750D01*
X85222250Y-50231000D01*
X85525786Y-50231000D01*
X85665820Y-50172996D01*
X85772996Y-50065819D01*
X85831000Y-49925785D01*
X85831000Y-49222250D01*
X86269000Y-49222250D01*
X86269000Y-49925785D01*
X86327004Y-50065819D01*
X86434180Y-50172996D01*
X86574214Y-50231000D01*
X86877750Y-50231000D01*
X86973000Y-50135750D01*
X86973000Y-49127000D01*
X86364250Y-49127000D01*
X86269000Y-49222250D01*
X85831000Y-49222250D01*
X85735750Y-49127000D01*
X85127000Y-49127000D01*
X84873000Y-49127000D01*
X84264250Y-49127000D01*
X84169000Y-49222250D01*
X84027000Y-49222250D01*
X84027000Y-48074215D01*
X84169000Y-48074215D01*
X84169000Y-48777750D01*
X84264250Y-48873000D01*
X84873000Y-48873000D01*
X84873000Y-47864250D01*
X85127000Y-47864250D01*
X85127000Y-48873000D01*
X85735750Y-48873000D01*
X85831000Y-48777750D01*
X85831000Y-48074215D01*
X86269000Y-48074215D01*
X86269000Y-48777750D01*
X86364250Y-48873000D01*
X86973000Y-48873000D01*
X86973000Y-47864250D01*
X86877750Y-47769000D01*
X86574214Y-47769000D01*
X86434180Y-47827004D01*
X86327004Y-47934181D01*
X86269000Y-48074215D01*
X85831000Y-48074215D01*
X85772996Y-47934181D01*
X85665820Y-47827004D01*
X85525786Y-47769000D01*
X85222250Y-47769000D01*
X85127000Y-47864250D01*
X84873000Y-47864250D01*
X84777750Y-47769000D01*
X84474214Y-47769000D01*
X84334180Y-47827004D01*
X84227004Y-47934181D01*
X84169000Y-48074215D01*
X84027000Y-48074215D01*
X84027000Y-47127000D01*
X87573000Y-47127000D01*
X87573000Y-47769000D01*
G04 #@! TO.N,Net-(D2-Pad1)*
G36*
X137073000Y-61546682D02*
X137073000Y-79434191D01*
X137072996Y-79434181D01*
X136965820Y-79327004D01*
X136825786Y-79269000D01*
X136222250Y-79269000D01*
X136127000Y-79364250D01*
X136127000Y-80873000D01*
X136147000Y-80873000D01*
X136147000Y-81127000D01*
X136127000Y-81127000D01*
X136127000Y-82635750D01*
X136222250Y-82731000D01*
X136825786Y-82731000D01*
X136965820Y-82672996D01*
X137072996Y-82565819D01*
X137073000Y-82565809D01*
X137073000Y-86265000D01*
X133627000Y-86265000D01*
X133627000Y-85231000D01*
X133777750Y-85231000D01*
X133873000Y-85135750D01*
X133873000Y-84127000D01*
X134127000Y-84127000D01*
X134127000Y-85135750D01*
X134222250Y-85231000D01*
X134525786Y-85231000D01*
X134665820Y-85172996D01*
X134772996Y-85065819D01*
X134831000Y-84925785D01*
X134831000Y-84222250D01*
X135169000Y-84222250D01*
X135169000Y-84925785D01*
X135227004Y-85065819D01*
X135334180Y-85172996D01*
X135474214Y-85231000D01*
X135777750Y-85231000D01*
X135873000Y-85135750D01*
X135873000Y-84127000D01*
X136127000Y-84127000D01*
X136127000Y-85135750D01*
X136222250Y-85231000D01*
X136525786Y-85231000D01*
X136665820Y-85172996D01*
X136772996Y-85065819D01*
X136831000Y-84925785D01*
X136831000Y-84222250D01*
X136735750Y-84127000D01*
X136127000Y-84127000D01*
X135873000Y-84127000D01*
X135264250Y-84127000D01*
X135169000Y-84222250D01*
X134831000Y-84222250D01*
X134735750Y-84127000D01*
X134127000Y-84127000D01*
X133873000Y-84127000D01*
X133853000Y-84127000D01*
X133853000Y-83873000D01*
X133873000Y-83873000D01*
X133873000Y-82864250D01*
X134127000Y-82864250D01*
X134127000Y-83873000D01*
X134735750Y-83873000D01*
X134831000Y-83777750D01*
X134831000Y-83074215D01*
X135169000Y-83074215D01*
X135169000Y-83777750D01*
X135264250Y-83873000D01*
X135873000Y-83873000D01*
X135873000Y-82864250D01*
X136127000Y-82864250D01*
X136127000Y-83873000D01*
X136735750Y-83873000D01*
X136831000Y-83777750D01*
X136831000Y-83074215D01*
X136772996Y-82934181D01*
X136665820Y-82827004D01*
X136525786Y-82769000D01*
X136222250Y-82769000D01*
X136127000Y-82864250D01*
X135873000Y-82864250D01*
X135777750Y-82769000D01*
X135474214Y-82769000D01*
X135334180Y-82827004D01*
X135227004Y-82934181D01*
X135169000Y-83074215D01*
X134831000Y-83074215D01*
X134772996Y-82934181D01*
X134665820Y-82827004D01*
X134525786Y-82769000D01*
X134222250Y-82769000D01*
X134127000Y-82864250D01*
X133873000Y-82864250D01*
X133777750Y-82769000D01*
X133627000Y-82769000D01*
X133627000Y-81222250D01*
X134869000Y-81222250D01*
X134869000Y-82425785D01*
X134927004Y-82565819D01*
X135034180Y-82672996D01*
X135174214Y-82731000D01*
X135777750Y-82731000D01*
X135873000Y-82635750D01*
X135873000Y-81127000D01*
X134964250Y-81127000D01*
X134869000Y-81222250D01*
X133627000Y-81222250D01*
X133627000Y-79574215D01*
X134869000Y-79574215D01*
X134869000Y-80777750D01*
X134964250Y-80873000D01*
X135873000Y-80873000D01*
X135873000Y-79364250D01*
X135777750Y-79269000D01*
X135174214Y-79269000D01*
X135034180Y-79327004D01*
X134927004Y-79434181D01*
X134869000Y-79574215D01*
X133627000Y-79574215D01*
X133627000Y-79127000D01*
X136000000Y-79127000D01*
X136048601Y-79117333D01*
X136089803Y-79089803D01*
X136117333Y-79048601D01*
X136127000Y-79000000D01*
X136127000Y-70000000D01*
X136117333Y-69951399D01*
X136089803Y-69910197D01*
X131627000Y-65447394D01*
X131627000Y-59627000D01*
X135441271Y-59627000D01*
X137073000Y-61546682D01*
X137073000Y-61546682D01*
G37*
X137073000Y-61546682D02*
X137073000Y-79434191D01*
X137072996Y-79434181D01*
X136965820Y-79327004D01*
X136825786Y-79269000D01*
X136222250Y-79269000D01*
X136127000Y-79364250D01*
X136127000Y-80873000D01*
X136147000Y-80873000D01*
X136147000Y-81127000D01*
X136127000Y-81127000D01*
X136127000Y-82635750D01*
X136222250Y-82731000D01*
X136825786Y-82731000D01*
X136965820Y-82672996D01*
X137072996Y-82565819D01*
X137073000Y-82565809D01*
X137073000Y-86265000D01*
X133627000Y-86265000D01*
X133627000Y-85231000D01*
X133777750Y-85231000D01*
X133873000Y-85135750D01*
X133873000Y-84127000D01*
X134127000Y-84127000D01*
X134127000Y-85135750D01*
X134222250Y-85231000D01*
X134525786Y-85231000D01*
X134665820Y-85172996D01*
X134772996Y-85065819D01*
X134831000Y-84925785D01*
X134831000Y-84222250D01*
X135169000Y-84222250D01*
X135169000Y-84925785D01*
X135227004Y-85065819D01*
X135334180Y-85172996D01*
X135474214Y-85231000D01*
X135777750Y-85231000D01*
X135873000Y-85135750D01*
X135873000Y-84127000D01*
X136127000Y-84127000D01*
X136127000Y-85135750D01*
X136222250Y-85231000D01*
X136525786Y-85231000D01*
X136665820Y-85172996D01*
X136772996Y-85065819D01*
X136831000Y-84925785D01*
X136831000Y-84222250D01*
X136735750Y-84127000D01*
X136127000Y-84127000D01*
X135873000Y-84127000D01*
X135264250Y-84127000D01*
X135169000Y-84222250D01*
X134831000Y-84222250D01*
X134735750Y-84127000D01*
X134127000Y-84127000D01*
X133873000Y-84127000D01*
X133853000Y-84127000D01*
X133853000Y-83873000D01*
X133873000Y-83873000D01*
X133873000Y-82864250D01*
X134127000Y-82864250D01*
X134127000Y-83873000D01*
X134735750Y-83873000D01*
X134831000Y-83777750D01*
X134831000Y-83074215D01*
X135169000Y-83074215D01*
X135169000Y-83777750D01*
X135264250Y-83873000D01*
X135873000Y-83873000D01*
X135873000Y-82864250D01*
X136127000Y-82864250D01*
X136127000Y-83873000D01*
X136735750Y-83873000D01*
X136831000Y-83777750D01*
X136831000Y-83074215D01*
X136772996Y-82934181D01*
X136665820Y-82827004D01*
X136525786Y-82769000D01*
X136222250Y-82769000D01*
X136127000Y-82864250D01*
X135873000Y-82864250D01*
X135777750Y-82769000D01*
X135474214Y-82769000D01*
X135334180Y-82827004D01*
X135227004Y-82934181D01*
X135169000Y-83074215D01*
X134831000Y-83074215D01*
X134772996Y-82934181D01*
X134665820Y-82827004D01*
X134525786Y-82769000D01*
X134222250Y-82769000D01*
X134127000Y-82864250D01*
X133873000Y-82864250D01*
X133777750Y-82769000D01*
X133627000Y-82769000D01*
X133627000Y-81222250D01*
X134869000Y-81222250D01*
X134869000Y-82425785D01*
X134927004Y-82565819D01*
X135034180Y-82672996D01*
X135174214Y-82731000D01*
X135777750Y-82731000D01*
X135873000Y-82635750D01*
X135873000Y-81127000D01*
X134964250Y-81127000D01*
X134869000Y-81222250D01*
X133627000Y-81222250D01*
X133627000Y-79574215D01*
X134869000Y-79574215D01*
X134869000Y-80777750D01*
X134964250Y-80873000D01*
X135873000Y-80873000D01*
X135873000Y-79364250D01*
X135777750Y-79269000D01*
X135174214Y-79269000D01*
X135034180Y-79327004D01*
X134927004Y-79434181D01*
X134869000Y-79574215D01*
X133627000Y-79574215D01*
X133627000Y-79127000D01*
X136000000Y-79127000D01*
X136048601Y-79117333D01*
X136089803Y-79089803D01*
X136117333Y-79048601D01*
X136127000Y-79000000D01*
X136127000Y-70000000D01*
X136117333Y-69951399D01*
X136089803Y-69910197D01*
X131627000Y-65447394D01*
X131627000Y-59627000D01*
X135441271Y-59627000D01*
X137073000Y-61546682D01*
G04 #@! TO.N,Net-(D3-Pad1)*
G36*
X87573000Y-90769000D02*
X87322250Y-90769000D01*
X87227000Y-90864250D01*
X87227000Y-91873000D01*
X87247000Y-91873000D01*
X87247000Y-92127000D01*
X87227000Y-92127000D01*
X87227000Y-93135750D01*
X87322250Y-93231000D01*
X87573000Y-93231000D01*
X87573000Y-97473000D01*
X85000000Y-97473000D01*
X84951399Y-97482667D01*
X84910197Y-97510197D01*
X84882667Y-97551399D01*
X84873000Y-97600000D01*
X84873000Y-108000000D01*
X84882667Y-108048601D01*
X84910197Y-108089803D01*
X84951399Y-108117333D01*
X85000000Y-108127000D01*
X86921510Y-108127000D01*
X88873000Y-112029980D01*
X88873000Y-115873000D01*
X86304921Y-115873000D01*
X84027000Y-113449680D01*
X84027000Y-95222250D01*
X84069000Y-95222250D01*
X84069000Y-96425785D01*
X84127004Y-96565819D01*
X84234180Y-96672996D01*
X84374214Y-96731000D01*
X84977750Y-96731000D01*
X85073000Y-96635750D01*
X85073000Y-95127000D01*
X85327000Y-95127000D01*
X85327000Y-96635750D01*
X85422250Y-96731000D01*
X86025786Y-96731000D01*
X86165820Y-96672996D01*
X86272996Y-96565819D01*
X86331000Y-96425785D01*
X86331000Y-95222250D01*
X86235750Y-95127000D01*
X85327000Y-95127000D01*
X85073000Y-95127000D01*
X84164250Y-95127000D01*
X84069000Y-95222250D01*
X84027000Y-95222250D01*
X84027000Y-93574215D01*
X84069000Y-93574215D01*
X84069000Y-94777750D01*
X84164250Y-94873000D01*
X85073000Y-94873000D01*
X85073000Y-93364250D01*
X85327000Y-93364250D01*
X85327000Y-94873000D01*
X86235750Y-94873000D01*
X86331000Y-94777750D01*
X86331000Y-93574215D01*
X86272996Y-93434181D01*
X86165820Y-93327004D01*
X86025786Y-93269000D01*
X85422250Y-93269000D01*
X85327000Y-93364250D01*
X85073000Y-93364250D01*
X84977750Y-93269000D01*
X84374214Y-93269000D01*
X84234180Y-93327004D01*
X84127004Y-93434181D01*
X84069000Y-93574215D01*
X84027000Y-93574215D01*
X84027000Y-92222250D01*
X84169000Y-92222250D01*
X84169000Y-92925785D01*
X84227004Y-93065819D01*
X84334180Y-93172996D01*
X84474214Y-93231000D01*
X84777750Y-93231000D01*
X84873000Y-93135750D01*
X84873000Y-92127000D01*
X85127000Y-92127000D01*
X85127000Y-93135750D01*
X85222250Y-93231000D01*
X85525786Y-93231000D01*
X85665820Y-93172996D01*
X85772996Y-93065819D01*
X85831000Y-92925785D01*
X85831000Y-92222250D01*
X86269000Y-92222250D01*
X86269000Y-92925785D01*
X86327004Y-93065819D01*
X86434180Y-93172996D01*
X86574214Y-93231000D01*
X86877750Y-93231000D01*
X86973000Y-93135750D01*
X86973000Y-92127000D01*
X86364250Y-92127000D01*
X86269000Y-92222250D01*
X85831000Y-92222250D01*
X85735750Y-92127000D01*
X85127000Y-92127000D01*
X84873000Y-92127000D01*
X84264250Y-92127000D01*
X84169000Y-92222250D01*
X84027000Y-92222250D01*
X84027000Y-91074215D01*
X84169000Y-91074215D01*
X84169000Y-91777750D01*
X84264250Y-91873000D01*
X84873000Y-91873000D01*
X84873000Y-90864250D01*
X85127000Y-90864250D01*
X85127000Y-91873000D01*
X85735750Y-91873000D01*
X85831000Y-91777750D01*
X85831000Y-91074215D01*
X86269000Y-91074215D01*
X86269000Y-91777750D01*
X86364250Y-91873000D01*
X86973000Y-91873000D01*
X86973000Y-90864250D01*
X86877750Y-90769000D01*
X86574214Y-90769000D01*
X86434180Y-90827004D01*
X86327004Y-90934181D01*
X86269000Y-91074215D01*
X85831000Y-91074215D01*
X85772996Y-90934181D01*
X85665820Y-90827004D01*
X85525786Y-90769000D01*
X85222250Y-90769000D01*
X85127000Y-90864250D01*
X84873000Y-90864250D01*
X84777750Y-90769000D01*
X84474214Y-90769000D01*
X84334180Y-90827004D01*
X84227004Y-90934181D01*
X84169000Y-91074215D01*
X84027000Y-91074215D01*
X84027000Y-90127000D01*
X87573000Y-90127000D01*
X87573000Y-90769000D01*
X87573000Y-90769000D01*
G37*
X87573000Y-90769000D02*
X87322250Y-90769000D01*
X87227000Y-90864250D01*
X87227000Y-91873000D01*
X87247000Y-91873000D01*
X87247000Y-92127000D01*
X87227000Y-92127000D01*
X87227000Y-93135750D01*
X87322250Y-93231000D01*
X87573000Y-93231000D01*
X87573000Y-97473000D01*
X85000000Y-97473000D01*
X84951399Y-97482667D01*
X84910197Y-97510197D01*
X84882667Y-97551399D01*
X84873000Y-97600000D01*
X84873000Y-108000000D01*
X84882667Y-108048601D01*
X84910197Y-108089803D01*
X84951399Y-108117333D01*
X85000000Y-108127000D01*
X86921510Y-108127000D01*
X88873000Y-112029980D01*
X88873000Y-115873000D01*
X86304921Y-115873000D01*
X84027000Y-113449680D01*
X84027000Y-95222250D01*
X84069000Y-95222250D01*
X84069000Y-96425785D01*
X84127004Y-96565819D01*
X84234180Y-96672996D01*
X84374214Y-96731000D01*
X84977750Y-96731000D01*
X85073000Y-96635750D01*
X85073000Y-95127000D01*
X85327000Y-95127000D01*
X85327000Y-96635750D01*
X85422250Y-96731000D01*
X86025786Y-96731000D01*
X86165820Y-96672996D01*
X86272996Y-96565819D01*
X86331000Y-96425785D01*
X86331000Y-95222250D01*
X86235750Y-95127000D01*
X85327000Y-95127000D01*
X85073000Y-95127000D01*
X84164250Y-95127000D01*
X84069000Y-95222250D01*
X84027000Y-95222250D01*
X84027000Y-93574215D01*
X84069000Y-93574215D01*
X84069000Y-94777750D01*
X84164250Y-94873000D01*
X85073000Y-94873000D01*
X85073000Y-93364250D01*
X85327000Y-93364250D01*
X85327000Y-94873000D01*
X86235750Y-94873000D01*
X86331000Y-94777750D01*
X86331000Y-93574215D01*
X86272996Y-93434181D01*
X86165820Y-93327004D01*
X86025786Y-93269000D01*
X85422250Y-93269000D01*
X85327000Y-93364250D01*
X85073000Y-93364250D01*
X84977750Y-93269000D01*
X84374214Y-93269000D01*
X84234180Y-93327004D01*
X84127004Y-93434181D01*
X84069000Y-93574215D01*
X84027000Y-93574215D01*
X84027000Y-92222250D01*
X84169000Y-92222250D01*
X84169000Y-92925785D01*
X84227004Y-93065819D01*
X84334180Y-93172996D01*
X84474214Y-93231000D01*
X84777750Y-93231000D01*
X84873000Y-93135750D01*
X84873000Y-92127000D01*
X85127000Y-92127000D01*
X85127000Y-93135750D01*
X85222250Y-93231000D01*
X85525786Y-93231000D01*
X85665820Y-93172996D01*
X85772996Y-93065819D01*
X85831000Y-92925785D01*
X85831000Y-92222250D01*
X86269000Y-92222250D01*
X86269000Y-92925785D01*
X86327004Y-93065819D01*
X86434180Y-93172996D01*
X86574214Y-93231000D01*
X86877750Y-93231000D01*
X86973000Y-93135750D01*
X86973000Y-92127000D01*
X86364250Y-92127000D01*
X86269000Y-92222250D01*
X85831000Y-92222250D01*
X85735750Y-92127000D01*
X85127000Y-92127000D01*
X84873000Y-92127000D01*
X84264250Y-92127000D01*
X84169000Y-92222250D01*
X84027000Y-92222250D01*
X84027000Y-91074215D01*
X84169000Y-91074215D01*
X84169000Y-91777750D01*
X84264250Y-91873000D01*
X84873000Y-91873000D01*
X84873000Y-90864250D01*
X85127000Y-90864250D01*
X85127000Y-91873000D01*
X85735750Y-91873000D01*
X85831000Y-91777750D01*
X85831000Y-91074215D01*
X86269000Y-91074215D01*
X86269000Y-91777750D01*
X86364250Y-91873000D01*
X86973000Y-91873000D01*
X86973000Y-90864250D01*
X86877750Y-90769000D01*
X86574214Y-90769000D01*
X86434180Y-90827004D01*
X86327004Y-90934181D01*
X86269000Y-91074215D01*
X85831000Y-91074215D01*
X85772996Y-90934181D01*
X85665820Y-90827004D01*
X85525786Y-90769000D01*
X85222250Y-90769000D01*
X85127000Y-90864250D01*
X84873000Y-90864250D01*
X84777750Y-90769000D01*
X84474214Y-90769000D01*
X84334180Y-90827004D01*
X84227004Y-90934181D01*
X84169000Y-91074215D01*
X84027000Y-91074215D01*
X84027000Y-90127000D01*
X87573000Y-90127000D01*
X87573000Y-90769000D01*
G04 #@! TO.N,/PH1*
G36*
X92873000Y-98000000D02*
X92882667Y-98048601D01*
X92910197Y-98089803D01*
X92951399Y-98117333D01*
X93000000Y-98127000D01*
X94000000Y-98127000D01*
X94048601Y-98117333D01*
X94089803Y-98089803D01*
X94117333Y-98048601D01*
X94127000Y-98000000D01*
X94127000Y-95978041D01*
X95665000Y-95978041D01*
X95665000Y-97821959D01*
X96370637Y-99525517D01*
X97674483Y-100829363D01*
X99378041Y-101535000D01*
X101221959Y-101535000D01*
X102925517Y-100829363D01*
X104229363Y-99525517D01*
X104935000Y-97821959D01*
X104935000Y-95978041D01*
X104229363Y-94274483D01*
X102925517Y-92970637D01*
X101221959Y-92265000D01*
X99378041Y-92265000D01*
X97674483Y-92970637D01*
X96370637Y-94274483D01*
X95665000Y-95978041D01*
X94127000Y-95978041D01*
X94127000Y-89735000D01*
X126873000Y-89735000D01*
X126873000Y-110765000D01*
X119916380Y-110765000D01*
X114081303Y-105902436D01*
X114037778Y-105878749D01*
X114000000Y-105873000D01*
X113884592Y-105873000D01*
X113786783Y-105807646D01*
X113572388Y-105765000D01*
X113500000Y-105750601D01*
X113427612Y-105765000D01*
X97072388Y-105765000D01*
X97000000Y-105750601D01*
X96927612Y-105765000D01*
X96713217Y-105807646D01*
X96615408Y-105873000D01*
X87052606Y-105873000D01*
X86127000Y-104947394D01*
X86127000Y-102052606D01*
X88552606Y-99627000D01*
X89000000Y-99627000D01*
X89048601Y-99617333D01*
X89089803Y-99589803D01*
X89117333Y-99548601D01*
X89127000Y-99500000D01*
X89127000Y-96711443D01*
X89174214Y-96731000D01*
X89777750Y-96731000D01*
X89873000Y-96635750D01*
X89873000Y-95127000D01*
X90127000Y-95127000D01*
X90127000Y-96635750D01*
X90222250Y-96731000D01*
X90825786Y-96731000D01*
X90965820Y-96672996D01*
X91072996Y-96565819D01*
X91131000Y-96425785D01*
X91131000Y-95222250D01*
X91035750Y-95127000D01*
X90127000Y-95127000D01*
X89873000Y-95127000D01*
X89853000Y-95127000D01*
X89853000Y-94873000D01*
X89873000Y-94873000D01*
X89873000Y-93364250D01*
X90127000Y-93364250D01*
X90127000Y-94873000D01*
X91035750Y-94873000D01*
X91131000Y-94777750D01*
X91131000Y-93574215D01*
X91072996Y-93434181D01*
X90965820Y-93327004D01*
X90825786Y-93269000D01*
X90222250Y-93269000D01*
X90127000Y-93364250D01*
X89873000Y-93364250D01*
X89777750Y-93269000D01*
X89174214Y-93269000D01*
X89127000Y-93288557D01*
X89127000Y-92222250D01*
X89169000Y-92222250D01*
X89169000Y-92925785D01*
X89227004Y-93065819D01*
X89334180Y-93172996D01*
X89474214Y-93231000D01*
X89777750Y-93231000D01*
X89873000Y-93135750D01*
X89873000Y-92127000D01*
X90127000Y-92127000D01*
X90127000Y-93135750D01*
X90222250Y-93231000D01*
X90525786Y-93231000D01*
X90665820Y-93172996D01*
X90772996Y-93065819D01*
X90831000Y-92925785D01*
X90831000Y-92222250D01*
X90735750Y-92127000D01*
X90127000Y-92127000D01*
X89873000Y-92127000D01*
X89264250Y-92127000D01*
X89169000Y-92222250D01*
X89127000Y-92222250D01*
X89127000Y-91074215D01*
X89169000Y-91074215D01*
X89169000Y-91777750D01*
X89264250Y-91873000D01*
X89873000Y-91873000D01*
X89873000Y-90864250D01*
X90127000Y-90864250D01*
X90127000Y-91873000D01*
X90735750Y-91873000D01*
X90831000Y-91777750D01*
X90831000Y-91074215D01*
X90772996Y-90934181D01*
X90665820Y-90827004D01*
X90525786Y-90769000D01*
X90222250Y-90769000D01*
X90127000Y-90864250D01*
X89873000Y-90864250D01*
X89777750Y-90769000D01*
X89474214Y-90769000D01*
X89334180Y-90827004D01*
X89227004Y-90934181D01*
X89169000Y-91074215D01*
X89127000Y-91074215D01*
X89127000Y-89735000D01*
X92873000Y-89735000D01*
X92873000Y-98000000D01*
X92873000Y-98000000D01*
G37*
X92873000Y-98000000D02*
X92882667Y-98048601D01*
X92910197Y-98089803D01*
X92951399Y-98117333D01*
X93000000Y-98127000D01*
X94000000Y-98127000D01*
X94048601Y-98117333D01*
X94089803Y-98089803D01*
X94117333Y-98048601D01*
X94127000Y-98000000D01*
X94127000Y-95978041D01*
X95665000Y-95978041D01*
X95665000Y-97821959D01*
X96370637Y-99525517D01*
X97674483Y-100829363D01*
X99378041Y-101535000D01*
X101221959Y-101535000D01*
X102925517Y-100829363D01*
X104229363Y-99525517D01*
X104935000Y-97821959D01*
X104935000Y-95978041D01*
X104229363Y-94274483D01*
X102925517Y-92970637D01*
X101221959Y-92265000D01*
X99378041Y-92265000D01*
X97674483Y-92970637D01*
X96370637Y-94274483D01*
X95665000Y-95978041D01*
X94127000Y-95978041D01*
X94127000Y-89735000D01*
X126873000Y-89735000D01*
X126873000Y-110765000D01*
X119916380Y-110765000D01*
X114081303Y-105902436D01*
X114037778Y-105878749D01*
X114000000Y-105873000D01*
X113884592Y-105873000D01*
X113786783Y-105807646D01*
X113572388Y-105765000D01*
X113500000Y-105750601D01*
X113427612Y-105765000D01*
X97072388Y-105765000D01*
X97000000Y-105750601D01*
X96927612Y-105765000D01*
X96713217Y-105807646D01*
X96615408Y-105873000D01*
X87052606Y-105873000D01*
X86127000Y-104947394D01*
X86127000Y-102052606D01*
X88552606Y-99627000D01*
X89000000Y-99627000D01*
X89048601Y-99617333D01*
X89089803Y-99589803D01*
X89117333Y-99548601D01*
X89127000Y-99500000D01*
X89127000Y-96711443D01*
X89174214Y-96731000D01*
X89777750Y-96731000D01*
X89873000Y-96635750D01*
X89873000Y-95127000D01*
X90127000Y-95127000D01*
X90127000Y-96635750D01*
X90222250Y-96731000D01*
X90825786Y-96731000D01*
X90965820Y-96672996D01*
X91072996Y-96565819D01*
X91131000Y-96425785D01*
X91131000Y-95222250D01*
X91035750Y-95127000D01*
X90127000Y-95127000D01*
X89873000Y-95127000D01*
X89853000Y-95127000D01*
X89853000Y-94873000D01*
X89873000Y-94873000D01*
X89873000Y-93364250D01*
X90127000Y-93364250D01*
X90127000Y-94873000D01*
X91035750Y-94873000D01*
X91131000Y-94777750D01*
X91131000Y-93574215D01*
X91072996Y-93434181D01*
X90965820Y-93327004D01*
X90825786Y-93269000D01*
X90222250Y-93269000D01*
X90127000Y-93364250D01*
X89873000Y-93364250D01*
X89777750Y-93269000D01*
X89174214Y-93269000D01*
X89127000Y-93288557D01*
X89127000Y-92222250D01*
X89169000Y-92222250D01*
X89169000Y-92925785D01*
X89227004Y-93065819D01*
X89334180Y-93172996D01*
X89474214Y-93231000D01*
X89777750Y-93231000D01*
X89873000Y-93135750D01*
X89873000Y-92127000D01*
X90127000Y-92127000D01*
X90127000Y-93135750D01*
X90222250Y-93231000D01*
X90525786Y-93231000D01*
X90665820Y-93172996D01*
X90772996Y-93065819D01*
X90831000Y-92925785D01*
X90831000Y-92222250D01*
X90735750Y-92127000D01*
X90127000Y-92127000D01*
X89873000Y-92127000D01*
X89264250Y-92127000D01*
X89169000Y-92222250D01*
X89127000Y-92222250D01*
X89127000Y-91074215D01*
X89169000Y-91074215D01*
X89169000Y-91777750D01*
X89264250Y-91873000D01*
X89873000Y-91873000D01*
X89873000Y-90864250D01*
X90127000Y-90864250D01*
X90127000Y-91873000D01*
X90735750Y-91873000D01*
X90831000Y-91777750D01*
X90831000Y-91074215D01*
X90772996Y-90934181D01*
X90665820Y-90827004D01*
X90525786Y-90769000D01*
X90222250Y-90769000D01*
X90127000Y-90864250D01*
X89873000Y-90864250D01*
X89777750Y-90769000D01*
X89474214Y-90769000D01*
X89334180Y-90827004D01*
X89227004Y-90934181D01*
X89169000Y-91074215D01*
X89127000Y-91074215D01*
X89127000Y-89735000D01*
X92873000Y-89735000D01*
X92873000Y-98000000D01*
G04 #@! TO.N,/LD1*
G36*
X115918697Y-113097564D02*
X115962222Y-113121251D01*
X116000000Y-113127000D01*
X116115408Y-113127000D01*
X116213217Y-113192354D01*
X116500000Y-113249399D01*
X116572388Y-113235000D01*
X128427612Y-113235000D01*
X128500000Y-113249399D01*
X128572388Y-113235000D01*
X128786783Y-113192354D01*
X128884592Y-113127000D01*
X133947394Y-113127000D01*
X134873000Y-114052606D01*
X134873000Y-116947394D01*
X131910197Y-119910197D01*
X131882667Y-119951399D01*
X131873000Y-120000000D01*
X131873000Y-122223000D01*
X131579750Y-122223000D01*
X131473000Y-122329750D01*
X131473000Y-123727000D01*
X131493000Y-123727000D01*
X131493000Y-124273000D01*
X131473000Y-124273000D01*
X131473000Y-125670250D01*
X131525750Y-125723000D01*
X131431750Y-125723000D01*
X131325000Y-125829750D01*
X131325000Y-126727000D01*
X131393000Y-126727000D01*
X131393000Y-127273000D01*
X131325000Y-127273000D01*
X131325000Y-128170250D01*
X131431750Y-128277000D01*
X131634935Y-128277000D01*
X131791876Y-128211993D01*
X131873000Y-128130869D01*
X131873000Y-129265000D01*
X129127000Y-129265000D01*
X129127000Y-127379750D01*
X130223000Y-127379750D01*
X130223000Y-127934936D01*
X130288007Y-128091876D01*
X130408124Y-128211993D01*
X130565065Y-128277000D01*
X130768250Y-128277000D01*
X130875000Y-128170250D01*
X130875000Y-127273000D01*
X130329750Y-127273000D01*
X130223000Y-127379750D01*
X129127000Y-127379750D01*
X129127000Y-124379750D01*
X130023000Y-124379750D01*
X130023000Y-125434936D01*
X130088007Y-125591876D01*
X130208124Y-125711993D01*
X130365065Y-125777000D01*
X130434697Y-125777000D01*
X130408124Y-125788007D01*
X130288007Y-125908124D01*
X130223000Y-126065064D01*
X130223000Y-126620250D01*
X130329750Y-126727000D01*
X130875000Y-126727000D01*
X130875000Y-125829750D01*
X130821250Y-125776000D01*
X130927000Y-125670250D01*
X130927000Y-124273000D01*
X130129750Y-124273000D01*
X130023000Y-124379750D01*
X129127000Y-124379750D01*
X129127000Y-122565064D01*
X130023000Y-122565064D01*
X130023000Y-123620250D01*
X130129750Y-123727000D01*
X130927000Y-123727000D01*
X130927000Y-122329750D01*
X130820250Y-122223000D01*
X130365065Y-122223000D01*
X130208124Y-122288007D01*
X130088007Y-122408124D01*
X130023000Y-122565064D01*
X129127000Y-122565064D01*
X129127000Y-121000000D01*
X129117333Y-120951399D01*
X129089803Y-120910197D01*
X129048601Y-120882667D01*
X129000000Y-120873000D01*
X128000000Y-120873000D01*
X127951399Y-120882667D01*
X127910197Y-120910197D01*
X127882667Y-120951399D01*
X127873000Y-121000000D01*
X127873000Y-129265000D01*
X90127000Y-129265000D01*
X90127000Y-119041298D01*
X91845732Y-116678041D01*
X105765000Y-116678041D01*
X105765000Y-118521959D01*
X106470637Y-120225517D01*
X107774483Y-121529363D01*
X109478041Y-122235000D01*
X111321959Y-122235000D01*
X113025517Y-121529363D01*
X113476839Y-121078041D01*
X115765000Y-121078041D01*
X115765000Y-122921959D01*
X116470637Y-124625517D01*
X117774483Y-125929363D01*
X119478041Y-126635000D01*
X121321959Y-126635000D01*
X123025517Y-125929363D01*
X124329363Y-124625517D01*
X125035000Y-122921959D01*
X125035000Y-121078041D01*
X124329363Y-119374483D01*
X123025517Y-118070637D01*
X121321959Y-117365000D01*
X119478041Y-117365000D01*
X117774483Y-118070637D01*
X116470637Y-119374483D01*
X115765000Y-121078041D01*
X113476839Y-121078041D01*
X114329363Y-120225517D01*
X115035000Y-118521959D01*
X115035000Y-116678041D01*
X114329363Y-114974483D01*
X113025517Y-113670637D01*
X111321959Y-112965000D01*
X109478041Y-112965000D01*
X107774483Y-113670637D01*
X106470637Y-114974483D01*
X105765000Y-116678041D01*
X91845732Y-116678041D01*
X97986126Y-108235000D01*
X110083620Y-108235000D01*
X115918697Y-113097564D01*
X115918697Y-113097564D01*
G37*
X115918697Y-113097564D02*
X115962222Y-113121251D01*
X116000000Y-113127000D01*
X116115408Y-113127000D01*
X116213217Y-113192354D01*
X116500000Y-113249399D01*
X116572388Y-113235000D01*
X128427612Y-113235000D01*
X128500000Y-113249399D01*
X128572388Y-113235000D01*
X128786783Y-113192354D01*
X128884592Y-113127000D01*
X133947394Y-113127000D01*
X134873000Y-114052606D01*
X134873000Y-116947394D01*
X131910197Y-119910197D01*
X131882667Y-119951399D01*
X131873000Y-120000000D01*
X131873000Y-122223000D01*
X131579750Y-122223000D01*
X131473000Y-122329750D01*
X131473000Y-123727000D01*
X131493000Y-123727000D01*
X131493000Y-124273000D01*
X131473000Y-124273000D01*
X131473000Y-125670250D01*
X131525750Y-125723000D01*
X131431750Y-125723000D01*
X131325000Y-125829750D01*
X131325000Y-126727000D01*
X131393000Y-126727000D01*
X131393000Y-127273000D01*
X131325000Y-127273000D01*
X131325000Y-128170250D01*
X131431750Y-128277000D01*
X131634935Y-128277000D01*
X131791876Y-128211993D01*
X131873000Y-128130869D01*
X131873000Y-129265000D01*
X129127000Y-129265000D01*
X129127000Y-127379750D01*
X130223000Y-127379750D01*
X130223000Y-127934936D01*
X130288007Y-128091876D01*
X130408124Y-128211993D01*
X130565065Y-128277000D01*
X130768250Y-128277000D01*
X130875000Y-128170250D01*
X130875000Y-127273000D01*
X130329750Y-127273000D01*
X130223000Y-127379750D01*
X129127000Y-127379750D01*
X129127000Y-124379750D01*
X130023000Y-124379750D01*
X130023000Y-125434936D01*
X130088007Y-125591876D01*
X130208124Y-125711993D01*
X130365065Y-125777000D01*
X130434697Y-125777000D01*
X130408124Y-125788007D01*
X130288007Y-125908124D01*
X130223000Y-126065064D01*
X130223000Y-126620250D01*
X130329750Y-126727000D01*
X130875000Y-126727000D01*
X130875000Y-125829750D01*
X130821250Y-125776000D01*
X130927000Y-125670250D01*
X130927000Y-124273000D01*
X130129750Y-124273000D01*
X130023000Y-124379750D01*
X129127000Y-124379750D01*
X129127000Y-122565064D01*
X130023000Y-122565064D01*
X130023000Y-123620250D01*
X130129750Y-123727000D01*
X130927000Y-123727000D01*
X130927000Y-122329750D01*
X130820250Y-122223000D01*
X130365065Y-122223000D01*
X130208124Y-122288007D01*
X130088007Y-122408124D01*
X130023000Y-122565064D01*
X129127000Y-122565064D01*
X129127000Y-121000000D01*
X129117333Y-120951399D01*
X129089803Y-120910197D01*
X129048601Y-120882667D01*
X129000000Y-120873000D01*
X128000000Y-120873000D01*
X127951399Y-120882667D01*
X127910197Y-120910197D01*
X127882667Y-120951399D01*
X127873000Y-121000000D01*
X127873000Y-129265000D01*
X90127000Y-129265000D01*
X90127000Y-119041298D01*
X91845732Y-116678041D01*
X105765000Y-116678041D01*
X105765000Y-118521959D01*
X106470637Y-120225517D01*
X107774483Y-121529363D01*
X109478041Y-122235000D01*
X111321959Y-122235000D01*
X113025517Y-121529363D01*
X113476839Y-121078041D01*
X115765000Y-121078041D01*
X115765000Y-122921959D01*
X116470637Y-124625517D01*
X117774483Y-125929363D01*
X119478041Y-126635000D01*
X121321959Y-126635000D01*
X123025517Y-125929363D01*
X124329363Y-124625517D01*
X125035000Y-122921959D01*
X125035000Y-121078041D01*
X124329363Y-119374483D01*
X123025517Y-118070637D01*
X121321959Y-117365000D01*
X119478041Y-117365000D01*
X117774483Y-118070637D01*
X116470637Y-119374483D01*
X115765000Y-121078041D01*
X113476839Y-121078041D01*
X114329363Y-120225517D01*
X115035000Y-118521959D01*
X115035000Y-116678041D01*
X114329363Y-114974483D01*
X113025517Y-113670637D01*
X111321959Y-112965000D01*
X109478041Y-112965000D01*
X107774483Y-113670637D01*
X106470637Y-114974483D01*
X105765000Y-116678041D01*
X91845732Y-116678041D01*
X97986126Y-108235000D01*
X110083620Y-108235000D01*
X115918697Y-113097564D01*
G04 #@! TO.N,Net-(D4-Pad1)*
G36*
X137073000Y-104546682D02*
X137073000Y-122434191D01*
X137072996Y-122434181D01*
X136965820Y-122327004D01*
X136825786Y-122269000D01*
X136222250Y-122269000D01*
X136127000Y-122364250D01*
X136127000Y-123873000D01*
X136147000Y-123873000D01*
X136147000Y-124127000D01*
X136127000Y-124127000D01*
X136127000Y-125635750D01*
X136222250Y-125731000D01*
X136825786Y-125731000D01*
X136965820Y-125672996D01*
X137072996Y-125565819D01*
X137073000Y-125565809D01*
X137073000Y-129265000D01*
X133627000Y-129265000D01*
X133627000Y-128231000D01*
X133777750Y-128231000D01*
X133873000Y-128135750D01*
X133873000Y-127127000D01*
X134127000Y-127127000D01*
X134127000Y-128135750D01*
X134222250Y-128231000D01*
X134525786Y-128231000D01*
X134665820Y-128172996D01*
X134772996Y-128065819D01*
X134831000Y-127925785D01*
X134831000Y-127222250D01*
X135169000Y-127222250D01*
X135169000Y-127925785D01*
X135227004Y-128065819D01*
X135334180Y-128172996D01*
X135474214Y-128231000D01*
X135777750Y-128231000D01*
X135873000Y-128135750D01*
X135873000Y-127127000D01*
X136127000Y-127127000D01*
X136127000Y-128135750D01*
X136222250Y-128231000D01*
X136525786Y-128231000D01*
X136665820Y-128172996D01*
X136772996Y-128065819D01*
X136831000Y-127925785D01*
X136831000Y-127222250D01*
X136735750Y-127127000D01*
X136127000Y-127127000D01*
X135873000Y-127127000D01*
X135264250Y-127127000D01*
X135169000Y-127222250D01*
X134831000Y-127222250D01*
X134735750Y-127127000D01*
X134127000Y-127127000D01*
X133873000Y-127127000D01*
X133853000Y-127127000D01*
X133853000Y-126873000D01*
X133873000Y-126873000D01*
X133873000Y-125864250D01*
X134127000Y-125864250D01*
X134127000Y-126873000D01*
X134735750Y-126873000D01*
X134831000Y-126777750D01*
X134831000Y-126074215D01*
X135169000Y-126074215D01*
X135169000Y-126777750D01*
X135264250Y-126873000D01*
X135873000Y-126873000D01*
X135873000Y-125864250D01*
X136127000Y-125864250D01*
X136127000Y-126873000D01*
X136735750Y-126873000D01*
X136831000Y-126777750D01*
X136831000Y-126074215D01*
X136772996Y-125934181D01*
X136665820Y-125827004D01*
X136525786Y-125769000D01*
X136222250Y-125769000D01*
X136127000Y-125864250D01*
X135873000Y-125864250D01*
X135777750Y-125769000D01*
X135474214Y-125769000D01*
X135334180Y-125827004D01*
X135227004Y-125934181D01*
X135169000Y-126074215D01*
X134831000Y-126074215D01*
X134772996Y-125934181D01*
X134665820Y-125827004D01*
X134525786Y-125769000D01*
X134222250Y-125769000D01*
X134127000Y-125864250D01*
X133873000Y-125864250D01*
X133777750Y-125769000D01*
X133627000Y-125769000D01*
X133627000Y-124222250D01*
X134869000Y-124222250D01*
X134869000Y-125425785D01*
X134927004Y-125565819D01*
X135034180Y-125672996D01*
X135174214Y-125731000D01*
X135777750Y-125731000D01*
X135873000Y-125635750D01*
X135873000Y-124127000D01*
X134964250Y-124127000D01*
X134869000Y-124222250D01*
X133627000Y-124222250D01*
X133627000Y-122574215D01*
X134869000Y-122574215D01*
X134869000Y-123777750D01*
X134964250Y-123873000D01*
X135873000Y-123873000D01*
X135873000Y-122364250D01*
X135777750Y-122269000D01*
X135174214Y-122269000D01*
X135034180Y-122327004D01*
X134927004Y-122434181D01*
X134869000Y-122574215D01*
X133627000Y-122574215D01*
X133627000Y-122127000D01*
X136000000Y-122127000D01*
X136048601Y-122117333D01*
X136089803Y-122089803D01*
X136117333Y-122048601D01*
X136127000Y-122000000D01*
X136127000Y-113000000D01*
X136117333Y-112951399D01*
X136089803Y-112910197D01*
X131627000Y-108447394D01*
X131627000Y-102627000D01*
X135441271Y-102627000D01*
X137073000Y-104546682D01*
X137073000Y-104546682D01*
G37*
X137073000Y-104546682D02*
X137073000Y-122434191D01*
X137072996Y-122434181D01*
X136965820Y-122327004D01*
X136825786Y-122269000D01*
X136222250Y-122269000D01*
X136127000Y-122364250D01*
X136127000Y-123873000D01*
X136147000Y-123873000D01*
X136147000Y-124127000D01*
X136127000Y-124127000D01*
X136127000Y-125635750D01*
X136222250Y-125731000D01*
X136825786Y-125731000D01*
X136965820Y-125672996D01*
X137072996Y-125565819D01*
X137073000Y-125565809D01*
X137073000Y-129265000D01*
X133627000Y-129265000D01*
X133627000Y-128231000D01*
X133777750Y-128231000D01*
X133873000Y-128135750D01*
X133873000Y-127127000D01*
X134127000Y-127127000D01*
X134127000Y-128135750D01*
X134222250Y-128231000D01*
X134525786Y-128231000D01*
X134665820Y-128172996D01*
X134772996Y-128065819D01*
X134831000Y-127925785D01*
X134831000Y-127222250D01*
X135169000Y-127222250D01*
X135169000Y-127925785D01*
X135227004Y-128065819D01*
X135334180Y-128172996D01*
X135474214Y-128231000D01*
X135777750Y-128231000D01*
X135873000Y-128135750D01*
X135873000Y-127127000D01*
X136127000Y-127127000D01*
X136127000Y-128135750D01*
X136222250Y-128231000D01*
X136525786Y-128231000D01*
X136665820Y-128172996D01*
X136772996Y-128065819D01*
X136831000Y-127925785D01*
X136831000Y-127222250D01*
X136735750Y-127127000D01*
X136127000Y-127127000D01*
X135873000Y-127127000D01*
X135264250Y-127127000D01*
X135169000Y-127222250D01*
X134831000Y-127222250D01*
X134735750Y-127127000D01*
X134127000Y-127127000D01*
X133873000Y-127127000D01*
X133853000Y-127127000D01*
X133853000Y-126873000D01*
X133873000Y-126873000D01*
X133873000Y-125864250D01*
X134127000Y-125864250D01*
X134127000Y-126873000D01*
X134735750Y-126873000D01*
X134831000Y-126777750D01*
X134831000Y-126074215D01*
X135169000Y-126074215D01*
X135169000Y-126777750D01*
X135264250Y-126873000D01*
X135873000Y-126873000D01*
X135873000Y-125864250D01*
X136127000Y-125864250D01*
X136127000Y-126873000D01*
X136735750Y-126873000D01*
X136831000Y-126777750D01*
X136831000Y-126074215D01*
X136772996Y-125934181D01*
X136665820Y-125827004D01*
X136525786Y-125769000D01*
X136222250Y-125769000D01*
X136127000Y-125864250D01*
X135873000Y-125864250D01*
X135777750Y-125769000D01*
X135474214Y-125769000D01*
X135334180Y-125827004D01*
X135227004Y-125934181D01*
X135169000Y-126074215D01*
X134831000Y-126074215D01*
X134772996Y-125934181D01*
X134665820Y-125827004D01*
X134525786Y-125769000D01*
X134222250Y-125769000D01*
X134127000Y-125864250D01*
X133873000Y-125864250D01*
X133777750Y-125769000D01*
X133627000Y-125769000D01*
X133627000Y-124222250D01*
X134869000Y-124222250D01*
X134869000Y-125425785D01*
X134927004Y-125565819D01*
X135034180Y-125672996D01*
X135174214Y-125731000D01*
X135777750Y-125731000D01*
X135873000Y-125635750D01*
X135873000Y-124127000D01*
X134964250Y-124127000D01*
X134869000Y-124222250D01*
X133627000Y-124222250D01*
X133627000Y-122574215D01*
X134869000Y-122574215D01*
X134869000Y-123777750D01*
X134964250Y-123873000D01*
X135873000Y-123873000D01*
X135873000Y-122364250D01*
X135777750Y-122269000D01*
X135174214Y-122269000D01*
X135034180Y-122327004D01*
X134927004Y-122434181D01*
X134869000Y-122574215D01*
X133627000Y-122574215D01*
X133627000Y-122127000D01*
X136000000Y-122127000D01*
X136048601Y-122117333D01*
X136089803Y-122089803D01*
X136117333Y-122048601D01*
X136127000Y-122000000D01*
X136127000Y-113000000D01*
X136117333Y-112951399D01*
X136089803Y-112910197D01*
X131627000Y-108447394D01*
X131627000Y-102627000D01*
X135441271Y-102627000D01*
X137073000Y-104546682D01*
G04 #@! TD*
M02*
