M48
;DRILL file {KiCad (5.0.0)} date 02/08/19 13:36:21
;FORMAT={-:-/ absolute / metric / decimal}
FMAT,2
METRIC,TZ
T1C1.200
T2C1.500
T3C1.600
T4C2.000
T5C8.000
%
G90
G05
M71
T1
X179.Y-131.
X185.Y-124.
X318.Y-184.
X178.Y-171.
X272.Y-139.
X272.Y-59.
X115.Y-101.
X318.Y-104.
X115.Y-61.
X254.Y-59.
X200.Y-128.
X185.Y-204.
X131.Y-129.
X254.Y-179.
X200.Y-168.
X321.Y-168.
X308.Y-59.
X187.Y-99.
X200.Y-208.
X252.Y-129.
X252.Y-209.
X308.Y-179.
X119.Y-207.
X161.Y-171.
X178.Y-91.
X308.Y-139.
X321.Y-88.
X240.Y-87.
X252.Y-89.
X126.Y-79.
X254.Y-99.
X151.Y-59.
X161.Y-211.
X151.Y-99.
X179.Y-211.
X300.Y-131.
X247.Y-119.
X247.Y-159.
X151.Y-179.
X321.Y-208.
X282.Y-211.
X133.Y-139.
X115.Y-181.
X272.Y-179.
X311.Y-151.
X131.Y-169.
X197.Y-64.
X311.Y-111.
X311.Y-71.
X240.Y-127.
X126.Y-199.
X200.Y-88.
X187.Y-59.
X300.Y-211.
X190.Y-111.
X187.Y-139.
X247.Y-199.
X236.Y-181.
X133.Y-179.
X236.Y-141.
X311.Y-191.
X306.Y-204.
X126.Y-159.
X115.Y-141.
X252.Y-169.
X321.Y-128.
X119.Y-87.
X282.Y-91.
X131.Y-89.
X161.Y-91.
X306.Y-84.
X190.Y-191.
X126.Y-119.
X197.Y-144.
X299.Y-91.
X240.Y-207.
X240.Y-167.
X151.Y-139.
X197.Y-184.
X306.Y-164.
X236.Y-101.
X247.Y-79.
X131.Y-209.
X185.Y-84.
X272.Y-99.
X133.Y-59.
X197.Y-104.
X119.Y-167.
X161.Y-131.
X282.Y-131.
X254.Y-139.
X301.Y-171.
X190.Y-151.
X318.Y-144.
X185.Y-164.
X187.Y-179.
X282.Y-171.
X318.Y-64.
X236.Y-61.
X306.Y-124.
X308.Y-99.
X190.Y-71.
X133.Y-99.
X119.Y-127.
T2
X220.4Y-184.42
X220.4Y-189.5
X286.96Y-205.
X292.04Y-205.
X261.66Y-63.9
X266.74Y-63.9
X140.66Y-143.9
X145.74Y-143.9
X286.96Y-125.
X292.04Y-125.
X214.5Y-80.36
X214.5Y-85.44
X99.4Y-104.42
X99.4Y-109.5
X261.66Y-183.9
X266.74Y-183.9
X99.4Y-184.42
X99.4Y-189.5
X99.4Y-64.42
X99.4Y-69.5
X140.66Y-183.9
X145.74Y-183.9
X165.96Y-85.
X171.04Y-85.
X165.96Y-205.
X171.04Y-205.
X220.4Y-144.42
X220.4Y-149.5
X214.5Y-160.36
X214.5Y-165.44
X335.5Y-160.36
X335.5Y-165.44
X220.4Y-104.42
X220.4Y-109.5
X165.96Y-125.
X171.04Y-125.
X99.4Y-144.42
X99.4Y-149.5
X140.66Y-63.9
X145.74Y-63.9
X286.96Y-85.
X292.04Y-85.
X220.4Y-64.42
X220.4Y-69.5
X214.5Y-120.36
X214.5Y-125.44
X261.66Y-103.9
X266.74Y-103.9
X140.66Y-103.9
X145.74Y-103.9
X286.96Y-165.
X292.04Y-165.
X165.96Y-165.
X171.04Y-165.
X214.5Y-200.36
X214.5Y-205.44
X261.66Y-143.9
X266.74Y-143.9
X335.5Y-120.36
X335.5Y-125.44
X335.5Y-80.36
X335.5Y-85.44
X335.5Y-200.36
X335.5Y-205.44
T4
X263.5Y-164.
X263.5Y-171.1
X268.5Y-164.
X268.5Y-171.1
X273.5Y-164.
X273.5Y-171.1
X158.Y-180.9
X158.Y-188.
X163.Y-180.9
X163.Y-188.
X168.Y-180.9
X168.Y-188.
X158.Y-60.9
X158.Y-68.
X163.Y-60.9
X163.Y-68.
X168.Y-60.9
X168.Y-68.
X263.5Y-84.
X263.5Y-91.1
X268.5Y-84.
X268.5Y-91.1
X273.5Y-84.
X273.5Y-91.1
X279.Y-60.9
X279.Y-68.
X284.Y-60.9
X284.Y-68.
X289.Y-60.9
X289.Y-68.
X263.5Y-204.
X263.5Y-211.1
X268.5Y-204.
X268.5Y-211.1
X273.5Y-204.
X273.5Y-211.1
X279.Y-180.9
X279.Y-188.
X284.Y-180.9
X284.Y-188.
X289.Y-180.9
X289.Y-188.
X142.5Y-164.
X142.5Y-171.1
X147.5Y-164.
X147.5Y-171.1
X152.5Y-164.
X152.5Y-171.1
X279.Y-100.9
X279.Y-108.
X284.Y-100.9
X284.Y-108.
X289.Y-100.9
X289.Y-108.
X158.Y-140.9
X158.Y-148.
X163.Y-140.9
X163.Y-148.
X168.Y-140.9
X168.Y-148.
X142.5Y-124.
X142.5Y-131.1
X147.5Y-124.
X147.5Y-131.1
X152.5Y-124.
X152.5Y-131.1
X279.Y-140.9
X279.Y-148.
X284.Y-140.9
X284.Y-148.
X289.Y-140.9
X289.Y-148.
X158.Y-100.9
X158.Y-108.
X163.Y-100.9
X163.Y-108.
X168.Y-100.9
X168.Y-108.
X142.5Y-204.
X142.5Y-211.1
X147.5Y-204.
X147.5Y-211.1
X152.5Y-204.
X152.5Y-211.1
X142.5Y-84.
X142.5Y-91.1
X147.5Y-84.
X147.5Y-91.1
X152.5Y-84.
X152.5Y-91.1
X263.5Y-124.
X263.5Y-131.1
X268.5Y-124.
X268.5Y-131.1
X273.5Y-124.
X273.5Y-131.1
T5
X313.6Y-126.
X244.9Y-64.1
X179.Y-67.
X179.Y-187.
X179.Y-147.
X313.6Y-206.
X192.6Y-206.
X192.6Y-86.
X192.6Y-166.
X313.6Y-166.
X244.9Y-104.1
X300.Y-187.
X244.9Y-184.1
X300.Y-107.
X123.9Y-64.1
X313.6Y-86.
X123.9Y-184.1
X123.9Y-104.1
X244.9Y-144.1
X300.Y-147.
X123.9Y-144.1
X192.6Y-126.
X179.Y-107.
X300.Y-67.
T3
X227.833Y-74.404G85X228.946Y-78.867
G05
X231.719Y-68.635G85X237.519Y-68.635
G05
X237.33Y-81.418G85X241.285Y-77.176
G05
X106.833Y-114.404G85X107.946Y-118.867
G05
X110.719Y-108.635G85X116.519Y-108.635
G05
X116.33Y-121.418G85X120.285Y-117.176
G05
X321.17Y-188.682G85X317.215Y-192.924
G05
X326.781Y-201.465G85X320.981Y-201.465
G05
X330.667Y-195.696G85X329.554Y-191.233
G05
X200.17Y-148.682G85X196.215Y-152.924
G05
X205.781Y-161.465G85X199.981Y-161.465
G05
X209.667Y-155.696G85X208.554Y-151.233
G05
X200.17Y-108.682G85X196.215Y-112.924
G05
X205.781Y-121.465G85X199.981Y-121.465
G05
X209.667Y-115.696G85X208.554Y-111.233
G05
X200.17Y-68.682G85X196.215Y-72.924
G05
X205.781Y-81.465G85X199.981Y-81.465
G05
X209.667Y-75.696G85X208.554Y-71.233
G05
X106.833Y-194.404G85X107.946Y-198.867
G05
X110.719Y-188.635G85X116.519Y-188.635
G05
X116.33Y-201.418G85X120.285Y-197.176
G05
X227.833Y-194.404G85X228.946Y-198.867
G05
X231.719Y-188.635G85X237.519Y-188.635
G05
X237.33Y-201.418G85X241.285Y-197.176
G05
X200.17Y-188.682G85X196.215Y-192.924
G05
X205.781Y-201.465G85X199.981Y-201.465
G05
X209.667Y-195.696G85X208.554Y-191.233
G05
X321.17Y-148.682G85X317.215Y-152.924
G05
X326.781Y-161.465G85X320.981Y-161.465
G05
X330.667Y-155.696G85X329.554Y-151.233
G05
X227.833Y-154.404G85X228.946Y-158.867
G05
X231.719Y-148.635G85X237.519Y-148.635
G05
X237.33Y-161.418G85X241.285Y-157.176
G05
X106.833Y-154.404G85X107.946Y-158.867
G05
X110.719Y-148.635G85X116.519Y-148.635
G05
X116.33Y-161.418G85X120.285Y-157.176
G05
X227.833Y-114.404G85X228.946Y-118.867
G05
X231.719Y-108.635G85X237.519Y-108.635
G05
X237.33Y-121.418G85X241.285Y-117.176
G05
X106.833Y-74.404G85X107.946Y-78.867
G05
X110.719Y-68.635G85X116.519Y-68.635
G05
X116.33Y-81.418G85X120.285Y-77.176
G05
X321.17Y-108.682G85X317.215Y-112.924
G05
X326.781Y-121.465G85X320.981Y-121.465
G05
X330.667Y-115.696G85X329.554Y-111.233
G05
X321.17Y-68.682G85X317.215Y-72.924
G05
X326.781Y-81.465G85X320.981Y-81.465
G05
X330.667Y-75.696G85X329.554Y-71.233
G05
T0
M30
