G04 #@! TF.GenerationSoftware,KiCad,Pcbnew,(5.0.0)*
G04 #@! TF.CreationDate,2019-02-08T13:36:19+02:00*
G04 #@! TF.ProjectId,tp_x2_EKA_PnP,74705F78325F454B415F506E502E6B69,3*
G04 #@! TF.SameCoordinates,Original*
G04 #@! TF.FileFunction,Legend,Top*
G04 #@! TF.FilePolarity,Positive*
%FSLAX46Y46*%
G04 Gerber Fmt 4.6, Leading zero omitted, Abs format (unit mm)*
G04 Created by KiCad (PCBNEW (5.0.0)) date 02/08/19 13:36:19*
%MOMM*%
%LPD*%
G01*
G04 APERTURE LIST*
%ADD10C,0.100000*%
%ADD11C,0.120000*%
%ADD12C,0.150000*%
%ADD13C,0.300000*%
%ADD14C,0.250000*%
%ADD15C,0.400000*%
G04 APERTURE END LIST*
D10*
X333000000Y-197500000D02*
X333000000Y-195250000D01*
X218750000Y-154500000D02*
X218750000Y-152250000D01*
X332750000Y-157500000D02*
X332750000Y-155250000D01*
X222250000Y-192250000D02*
X222250000Y-194500000D01*
X336750000Y-197500000D02*
X333000000Y-197500000D01*
X333000000Y-195250000D02*
X336750000Y-195250000D01*
X218750000Y-152250000D02*
X222000000Y-152250000D01*
X238500000Y-194500000D02*
G75*
G03X238500000Y-194500000I-3750000J0D01*
G01*
X266000000Y-189000000D02*
X262250000Y-189000000D01*
X328250000Y-155000000D02*
G75*
G03X328250000Y-155000000I-3750000J0D01*
G01*
X262250000Y-189000000D02*
X262250000Y-186750000D01*
X262250000Y-148500000D02*
X262250000Y-146250000D01*
X218500000Y-194500000D02*
X218500000Y-192250000D01*
X266000000Y-148500000D02*
X262250000Y-148500000D01*
X332750000Y-155250000D02*
X336000000Y-155250000D01*
X336000000Y-157500000D02*
X332750000Y-157500000D01*
X222000000Y-154500000D02*
X218750000Y-154500000D01*
X218500000Y-192250000D02*
X222250000Y-192250000D01*
X262250000Y-186750000D02*
X266000000Y-186750000D01*
X336000000Y-155250000D02*
X336000000Y-157500000D01*
X238750000Y-154500000D02*
G75*
G03X238750000Y-154500000I-3750000J0D01*
G01*
X266000000Y-146250000D02*
X266000000Y-148500000D01*
X262250000Y-146250000D02*
X266000000Y-146250000D01*
X222250000Y-194500000D02*
X218500000Y-194500000D01*
X222000000Y-152250000D02*
X222000000Y-154500000D01*
X328250000Y-194750000D02*
G75*
G03X328250000Y-194750000I-3750000J0D01*
G01*
X266000000Y-186750000D02*
X266000000Y-189000000D01*
X336750000Y-195250000D02*
X336750000Y-197500000D01*
X97750000Y-154500000D02*
X97750000Y-152250000D01*
X101250000Y-194500000D02*
X97500000Y-194500000D01*
X215000000Y-155250000D02*
X215000000Y-157500000D01*
X211750000Y-157500000D02*
X211750000Y-155250000D01*
X211750000Y-155250000D02*
X215000000Y-155250000D01*
X212000000Y-195250000D02*
X215750000Y-195250000D01*
X215000000Y-157500000D02*
X211750000Y-157500000D01*
X117750000Y-154500000D02*
G75*
G03X117750000Y-154500000I-3750000J0D01*
G01*
X97500000Y-194500000D02*
X97500000Y-192250000D01*
X212000000Y-197500000D02*
X212000000Y-195250000D01*
X215750000Y-195250000D02*
X215750000Y-197500000D01*
X97750000Y-152250000D02*
X101000000Y-152250000D01*
X101000000Y-154500000D02*
X97750000Y-154500000D01*
X101250000Y-192250000D02*
X101250000Y-194500000D01*
X215750000Y-197500000D02*
X212000000Y-197500000D01*
X101000000Y-152250000D02*
X101000000Y-154500000D01*
X97500000Y-192250000D02*
X101250000Y-192250000D01*
X117500000Y-194500000D02*
G75*
G03X117500000Y-194500000I-3750000J0D01*
G01*
X145000000Y-186750000D02*
X145000000Y-189000000D01*
X145000000Y-189000000D02*
X141250000Y-189000000D01*
X207250000Y-155000000D02*
G75*
G03X207250000Y-155000000I-3750000J0D01*
G01*
X141250000Y-189000000D02*
X141250000Y-186750000D01*
X141250000Y-148500000D02*
X141250000Y-146250000D01*
X141250000Y-146250000D02*
X145000000Y-146250000D01*
X141250000Y-186750000D02*
X145000000Y-186750000D01*
X145000000Y-146250000D02*
X145000000Y-148500000D01*
X207250000Y-194750000D02*
G75*
G03X207250000Y-194750000I-3750000J0D01*
G01*
X145000000Y-148500000D02*
X141250000Y-148500000D01*
X218750000Y-74500000D02*
X218750000Y-72250000D01*
X222250000Y-114500000D02*
X218500000Y-114500000D01*
X336000000Y-75250000D02*
X336000000Y-77500000D01*
X332750000Y-77500000D02*
X332750000Y-75250000D01*
X332750000Y-75250000D02*
X336000000Y-75250000D01*
X333000000Y-115250000D02*
X336750000Y-115250000D01*
X336000000Y-77500000D02*
X332750000Y-77500000D01*
X238750000Y-74500000D02*
G75*
G03X238750000Y-74500000I-3750000J0D01*
G01*
X218500000Y-114500000D02*
X218500000Y-112250000D01*
X333000000Y-117500000D02*
X333000000Y-115250000D01*
X336750000Y-115250000D02*
X336750000Y-117500000D01*
X218750000Y-72250000D02*
X222000000Y-72250000D01*
X222000000Y-74500000D02*
X218750000Y-74500000D01*
X222250000Y-112250000D02*
X222250000Y-114500000D01*
X336750000Y-117500000D02*
X333000000Y-117500000D01*
X222000000Y-72250000D02*
X222000000Y-74500000D01*
X218500000Y-112250000D02*
X222250000Y-112250000D01*
X238500000Y-114500000D02*
G75*
G03X238500000Y-114500000I-3750000J0D01*
G01*
X266000000Y-106750000D02*
X266000000Y-109000000D01*
X266000000Y-109000000D02*
X262250000Y-109000000D01*
X328250000Y-75000000D02*
G75*
G03X328250000Y-75000000I-3750000J0D01*
G01*
X262250000Y-109000000D02*
X262250000Y-106750000D01*
X262250000Y-68500000D02*
X262250000Y-66250000D01*
X262250000Y-66250000D02*
X266000000Y-66250000D01*
X262250000Y-106750000D02*
X266000000Y-106750000D01*
X266000000Y-66250000D02*
X266000000Y-68500000D01*
X328250000Y-114750000D02*
G75*
G03X328250000Y-114750000I-3750000J0D01*
G01*
X266000000Y-68500000D02*
X262250000Y-68500000D01*
X145000000Y-66250000D02*
X145000000Y-68500000D01*
X141250000Y-68500000D02*
X141250000Y-66250000D01*
X141250000Y-66250000D02*
X145000000Y-66250000D01*
X145000000Y-68500000D02*
X141250000Y-68500000D01*
X145000000Y-106750000D02*
X145000000Y-109000000D01*
X141250000Y-106750000D02*
X145000000Y-106750000D01*
X141250000Y-109000000D02*
X141250000Y-106750000D01*
X145000000Y-109000000D02*
X141250000Y-109000000D01*
X117500000Y-114500000D02*
G75*
G03X117500000Y-114500000I-3750000J0D01*
G01*
X207250000Y-114750000D02*
G75*
G03X207250000Y-114750000I-3750000J0D01*
G01*
X207250000Y-75000000D02*
G75*
G03X207250000Y-75000000I-3750000J0D01*
G01*
X117750000Y-74500000D02*
G75*
G03X117750000Y-74500000I-3750000J0D01*
G01*
X215750000Y-115250000D02*
X215750000Y-117500000D01*
X212000000Y-115250000D02*
X215750000Y-115250000D01*
X212000000Y-117500000D02*
X212000000Y-115250000D01*
X215750000Y-117500000D02*
X212000000Y-117500000D01*
X211750000Y-77500000D02*
X211750000Y-75250000D01*
X215000000Y-75250000D02*
X215000000Y-77500000D01*
X215000000Y-77500000D02*
X211750000Y-77500000D01*
X211750000Y-75250000D02*
X215000000Y-75250000D01*
X97500000Y-114500000D02*
X97500000Y-112250000D01*
X101250000Y-112250000D02*
X101250000Y-114500000D01*
X101250000Y-114500000D02*
X97500000Y-114500000D01*
X97500000Y-112250000D02*
X101250000Y-112250000D01*
X97750000Y-74500000D02*
X97750000Y-72250000D01*
X101000000Y-74500000D02*
X97750000Y-74500000D01*
X101000000Y-72250000D02*
X101000000Y-74500000D01*
X97750000Y-72250000D02*
X101000000Y-72250000D01*
D11*
G04 #@! TO.C,R4*
X106950000Y-181570000D02*
X104950000Y-181570000D01*
X104950000Y-179430000D02*
X106950000Y-179430000D01*
G04 #@! TO.C,R3*
X211950000Y-208630000D02*
X213950000Y-208630000D01*
X213950000Y-210770000D02*
X211950000Y-210770000D01*
G04 #@! TO.C,R2*
X99950000Y-179430000D02*
X101950000Y-179430000D01*
X101950000Y-181570000D02*
X99950000Y-181570000D01*
G04 #@! TO.C,D1*
X101700000Y-185000000D02*
X107400000Y-185000000D01*
X101700000Y-182000000D02*
X101700000Y-185000000D01*
X107400000Y-182000000D02*
X101700000Y-182000000D01*
D10*
G04 #@! TO.C,X4*
X140500000Y-213000000D02*
X140500000Y-202000000D01*
X154500000Y-213000000D02*
X140500000Y-213000000D01*
X154500000Y-202000000D02*
X154500000Y-213000000D01*
X140500000Y-202000000D02*
X154500000Y-202000000D01*
G04 #@! TO.C,X5*
X156000000Y-178900000D02*
X170000000Y-178900000D01*
X170000000Y-178900000D02*
X170000000Y-189900000D01*
X170000000Y-189900000D02*
X156000000Y-189900000D01*
X156000000Y-189900000D02*
X156000000Y-178900000D01*
D12*
G04 #@! TO.C,X17*
X98150000Y-191460000D02*
X98150000Y-182210000D01*
X98150000Y-182210000D02*
X100650000Y-182210000D01*
X100650000Y-182210000D02*
X100650000Y-191460000D01*
X100650000Y-191460000D02*
X98150000Y-191460000D01*
D11*
G04 #@! TO.C,R1*
X209050000Y-210770000D02*
X207050000Y-210770000D01*
X207050000Y-208630000D02*
X209050000Y-208630000D01*
G04 #@! TO.C,R4*
X225950000Y-179430000D02*
X227950000Y-179430000D01*
X227950000Y-181570000D02*
X225950000Y-181570000D01*
G04 #@! TO.C,D1*
X228400000Y-182000000D02*
X222700000Y-182000000D01*
X222700000Y-182000000D02*
X222700000Y-185000000D01*
X222700000Y-185000000D02*
X228400000Y-185000000D01*
G04 #@! TO.C,R1*
X328050000Y-208630000D02*
X330050000Y-208630000D01*
X330050000Y-210770000D02*
X328050000Y-210770000D01*
G04 #@! TO.C,R3*
X334950000Y-210770000D02*
X332950000Y-210770000D01*
X332950000Y-208630000D02*
X334950000Y-208630000D01*
D12*
G04 #@! TO.C,X17*
X221650000Y-191460000D02*
X219150000Y-191460000D01*
X221650000Y-182210000D02*
X221650000Y-191460000D01*
X219150000Y-182210000D02*
X221650000Y-182210000D01*
X219150000Y-191460000D02*
X219150000Y-182210000D01*
D10*
G04 #@! TO.C,X5*
X277000000Y-189900000D02*
X277000000Y-178900000D01*
X291000000Y-189900000D02*
X277000000Y-189900000D01*
X291000000Y-178900000D02*
X291000000Y-189900000D01*
X277000000Y-178900000D02*
X291000000Y-178900000D01*
D11*
G04 #@! TO.C,R2*
X222950000Y-181570000D02*
X220950000Y-181570000D01*
X220950000Y-179430000D02*
X222950000Y-179430000D01*
D10*
G04 #@! TO.C,X4*
X261500000Y-202000000D02*
X275500000Y-202000000D01*
X275500000Y-202000000D02*
X275500000Y-213000000D01*
X275500000Y-213000000D02*
X261500000Y-213000000D01*
X261500000Y-213000000D02*
X261500000Y-202000000D01*
D11*
G04 #@! TO.C,D2*
X333400000Y-205000000D02*
X327700000Y-205000000D01*
X333400000Y-208000000D02*
X333400000Y-205000000D01*
X327700000Y-208000000D02*
X333400000Y-208000000D01*
D10*
G04 #@! TO.C,X2*
X277000000Y-138900000D02*
X291000000Y-138900000D01*
X291000000Y-138900000D02*
X291000000Y-149900000D01*
X291000000Y-149900000D02*
X277000000Y-149900000D01*
X277000000Y-149900000D02*
X277000000Y-138900000D01*
D12*
G04 #@! TO.C,X6*
X294000000Y-203750000D02*
X294000000Y-206250000D01*
X284750000Y-203750000D02*
X294000000Y-203750000D01*
X284750000Y-206250000D02*
X284750000Y-203750000D01*
X294000000Y-206250000D02*
X284750000Y-206250000D01*
D11*
G04 #@! TO.C,D3*
X222700000Y-145000000D02*
X228400000Y-145000000D01*
X222700000Y-142000000D02*
X222700000Y-145000000D01*
X228400000Y-142000000D02*
X222700000Y-142000000D01*
G04 #@! TO.C,R7*
X220950000Y-139430000D02*
X222950000Y-139430000D01*
X222950000Y-141570000D02*
X220950000Y-141570000D01*
D12*
G04 #@! TO.C,X7*
X336750000Y-167400000D02*
X334250000Y-167400000D01*
X336750000Y-158150000D02*
X336750000Y-167400000D01*
X334250000Y-158150000D02*
X336750000Y-158150000D01*
X334250000Y-167400000D02*
X334250000Y-158150000D01*
G04 #@! TO.C,X3*
X294000000Y-166250000D02*
X284750000Y-166250000D01*
X284750000Y-166250000D02*
X284750000Y-163750000D01*
X284750000Y-163750000D02*
X294000000Y-163750000D01*
X294000000Y-163750000D02*
X294000000Y-166250000D01*
D11*
G04 #@! TO.C,R6*
X330050000Y-170770000D02*
X328050000Y-170770000D01*
X328050000Y-168630000D02*
X330050000Y-168630000D01*
G04 #@! TO.C,R8*
X332950000Y-168630000D02*
X334950000Y-168630000D01*
X334950000Y-170770000D02*
X332950000Y-170770000D01*
D12*
G04 #@! TO.C,X9*
X219150000Y-151460000D02*
X219150000Y-142210000D01*
X219150000Y-142210000D02*
X221650000Y-142210000D01*
X221650000Y-142210000D02*
X221650000Y-151460000D01*
X221650000Y-151460000D02*
X219150000Y-151460000D01*
D10*
G04 #@! TO.C,X1*
X261500000Y-173000000D02*
X261500000Y-162000000D01*
X275500000Y-173000000D02*
X261500000Y-173000000D01*
X275500000Y-162000000D02*
X275500000Y-173000000D01*
X261500000Y-162000000D02*
X275500000Y-162000000D01*
D12*
G04 #@! TO.C,X12*
X259700000Y-142650000D02*
X268950000Y-142650000D01*
X268950000Y-142650000D02*
X268950000Y-145150000D01*
X268950000Y-145150000D02*
X259700000Y-145150000D01*
X259700000Y-145150000D02*
X259700000Y-142650000D01*
D11*
G04 #@! TO.C,D4*
X327700000Y-168000000D02*
X333400000Y-168000000D01*
X333400000Y-168000000D02*
X333400000Y-165000000D01*
X333400000Y-165000000D02*
X327700000Y-165000000D01*
G04 #@! TO.C,R9*
X227950000Y-141570000D02*
X225950000Y-141570000D01*
X225950000Y-139430000D02*
X227950000Y-139430000D01*
D12*
G04 #@! TO.C,X26*
X259700000Y-185150000D02*
X259700000Y-182650000D01*
X268950000Y-185150000D02*
X259700000Y-185150000D01*
X268950000Y-182650000D02*
X268950000Y-185150000D01*
X259700000Y-182650000D02*
X268950000Y-182650000D01*
D11*
G04 #@! TO.C,R9*
X104950000Y-139430000D02*
X106950000Y-139430000D01*
X106950000Y-141570000D02*
X104950000Y-141570000D01*
G04 #@! TO.C,R7*
X101950000Y-141570000D02*
X99950000Y-141570000D01*
X99950000Y-139430000D02*
X101950000Y-139430000D01*
G04 #@! TO.C,R6*
X207050000Y-168630000D02*
X209050000Y-168630000D01*
X209050000Y-170770000D02*
X207050000Y-170770000D01*
G04 #@! TO.C,R8*
X213950000Y-170770000D02*
X211950000Y-170770000D01*
X211950000Y-168630000D02*
X213950000Y-168630000D01*
D12*
G04 #@! TO.C,X12*
X138700000Y-145150000D02*
X138700000Y-142650000D01*
X147950000Y-145150000D02*
X138700000Y-145150000D01*
X147950000Y-142650000D02*
X147950000Y-145150000D01*
X138700000Y-142650000D02*
X147950000Y-142650000D01*
D10*
G04 #@! TO.C,X1*
X140500000Y-162000000D02*
X154500000Y-162000000D01*
X154500000Y-162000000D02*
X154500000Y-173000000D01*
X154500000Y-173000000D02*
X140500000Y-173000000D01*
X140500000Y-173000000D02*
X140500000Y-162000000D01*
D12*
G04 #@! TO.C,X9*
X100650000Y-151460000D02*
X98150000Y-151460000D01*
X100650000Y-142210000D02*
X100650000Y-151460000D01*
X98150000Y-142210000D02*
X100650000Y-142210000D01*
X98150000Y-151460000D02*
X98150000Y-142210000D01*
D11*
G04 #@! TO.C,D3*
X107400000Y-142000000D02*
X101700000Y-142000000D01*
X101700000Y-142000000D02*
X101700000Y-145000000D01*
X101700000Y-145000000D02*
X107400000Y-145000000D01*
G04 #@! TO.C,D4*
X212400000Y-165000000D02*
X206700000Y-165000000D01*
X212400000Y-168000000D02*
X212400000Y-165000000D01*
X206700000Y-168000000D02*
X212400000Y-168000000D01*
D12*
G04 #@! TO.C,X3*
X173000000Y-163750000D02*
X173000000Y-166250000D01*
X163750000Y-163750000D02*
X173000000Y-163750000D01*
X163750000Y-166250000D02*
X163750000Y-163750000D01*
X173000000Y-166250000D02*
X163750000Y-166250000D01*
G04 #@! TO.C,X7*
X213250000Y-167400000D02*
X213250000Y-158150000D01*
X213250000Y-158150000D02*
X215750000Y-158150000D01*
X215750000Y-158150000D02*
X215750000Y-167400000D01*
X215750000Y-167400000D02*
X213250000Y-167400000D01*
D10*
G04 #@! TO.C,X2*
X156000000Y-149900000D02*
X156000000Y-138900000D01*
X170000000Y-149900000D02*
X156000000Y-149900000D01*
X170000000Y-138900000D02*
X170000000Y-149900000D01*
X156000000Y-138900000D02*
X170000000Y-138900000D01*
D12*
G04 #@! TO.C,X14*
X334250000Y-207400000D02*
X334250000Y-198150000D01*
X334250000Y-198150000D02*
X336750000Y-198150000D01*
X336750000Y-198150000D02*
X336750000Y-207400000D01*
X336750000Y-207400000D02*
X334250000Y-207400000D01*
D11*
G04 #@! TO.C,D2*
X206700000Y-208000000D02*
X212400000Y-208000000D01*
X212400000Y-208000000D02*
X212400000Y-205000000D01*
X212400000Y-205000000D02*
X206700000Y-205000000D01*
D12*
G04 #@! TO.C,X6*
X173000000Y-206250000D02*
X163750000Y-206250000D01*
X163750000Y-206250000D02*
X163750000Y-203750000D01*
X163750000Y-203750000D02*
X173000000Y-203750000D01*
X173000000Y-203750000D02*
X173000000Y-206250000D01*
G04 #@! TO.C,X14*
X215750000Y-207400000D02*
X213250000Y-207400000D01*
X215750000Y-198150000D02*
X215750000Y-207400000D01*
X213250000Y-198150000D02*
X215750000Y-198150000D01*
X213250000Y-207400000D02*
X213250000Y-198150000D01*
G04 #@! TO.C,X26*
X138700000Y-182650000D02*
X147950000Y-182650000D01*
X147950000Y-182650000D02*
X147950000Y-185150000D01*
X147950000Y-185150000D02*
X138700000Y-185150000D01*
X138700000Y-185150000D02*
X138700000Y-182650000D01*
D11*
G04 #@! TO.C,R4*
X227950000Y-101570000D02*
X225950000Y-101570000D01*
X225950000Y-99430000D02*
X227950000Y-99430000D01*
G04 #@! TO.C,R3*
X332950000Y-128630000D02*
X334950000Y-128630000D01*
X334950000Y-130770000D02*
X332950000Y-130770000D01*
G04 #@! TO.C,R2*
X220950000Y-99430000D02*
X222950000Y-99430000D01*
X222950000Y-101570000D02*
X220950000Y-101570000D01*
G04 #@! TO.C,D1*
X222700000Y-105000000D02*
X228400000Y-105000000D01*
X222700000Y-102000000D02*
X222700000Y-105000000D01*
X228400000Y-102000000D02*
X222700000Y-102000000D01*
D10*
G04 #@! TO.C,X4*
X261500000Y-133000000D02*
X261500000Y-122000000D01*
X275500000Y-133000000D02*
X261500000Y-133000000D01*
X275500000Y-122000000D02*
X275500000Y-133000000D01*
X261500000Y-122000000D02*
X275500000Y-122000000D01*
G04 #@! TO.C,X5*
X277000000Y-98900000D02*
X291000000Y-98900000D01*
X291000000Y-98900000D02*
X291000000Y-109900000D01*
X291000000Y-109900000D02*
X277000000Y-109900000D01*
X277000000Y-109900000D02*
X277000000Y-98900000D01*
D12*
G04 #@! TO.C,X17*
X219150000Y-111460000D02*
X219150000Y-102210000D01*
X219150000Y-102210000D02*
X221650000Y-102210000D01*
X221650000Y-102210000D02*
X221650000Y-111460000D01*
X221650000Y-111460000D02*
X219150000Y-111460000D01*
D11*
G04 #@! TO.C,R1*
X330050000Y-130770000D02*
X328050000Y-130770000D01*
X328050000Y-128630000D02*
X330050000Y-128630000D01*
G04 #@! TO.C,R9*
X225950000Y-59430000D02*
X227950000Y-59430000D01*
X227950000Y-61570000D02*
X225950000Y-61570000D01*
G04 #@! TO.C,R7*
X222950000Y-61570000D02*
X220950000Y-61570000D01*
X220950000Y-59430000D02*
X222950000Y-59430000D01*
G04 #@! TO.C,R6*
X328050000Y-88630000D02*
X330050000Y-88630000D01*
X330050000Y-90770000D02*
X328050000Y-90770000D01*
G04 #@! TO.C,R8*
X334950000Y-90770000D02*
X332950000Y-90770000D01*
X332950000Y-88630000D02*
X334950000Y-88630000D01*
D12*
G04 #@! TO.C,X12*
X259700000Y-65150000D02*
X259700000Y-62650000D01*
X268950000Y-65150000D02*
X259700000Y-65150000D01*
X268950000Y-62650000D02*
X268950000Y-65150000D01*
X259700000Y-62650000D02*
X268950000Y-62650000D01*
D10*
G04 #@! TO.C,X1*
X261500000Y-82000000D02*
X275500000Y-82000000D01*
X275500000Y-82000000D02*
X275500000Y-93000000D01*
X275500000Y-93000000D02*
X261500000Y-93000000D01*
X261500000Y-93000000D02*
X261500000Y-82000000D01*
D12*
G04 #@! TO.C,X9*
X221650000Y-71460000D02*
X219150000Y-71460000D01*
X221650000Y-62210000D02*
X221650000Y-71460000D01*
X219150000Y-62210000D02*
X221650000Y-62210000D01*
X219150000Y-71460000D02*
X219150000Y-62210000D01*
D11*
G04 #@! TO.C,D3*
X228400000Y-62000000D02*
X222700000Y-62000000D01*
X222700000Y-62000000D02*
X222700000Y-65000000D01*
X222700000Y-65000000D02*
X228400000Y-65000000D01*
G04 #@! TO.C,D4*
X333400000Y-85000000D02*
X327700000Y-85000000D01*
X333400000Y-88000000D02*
X333400000Y-85000000D01*
X327700000Y-88000000D02*
X333400000Y-88000000D01*
D12*
G04 #@! TO.C,X3*
X294000000Y-83750000D02*
X294000000Y-86250000D01*
X284750000Y-83750000D02*
X294000000Y-83750000D01*
X284750000Y-86250000D02*
X284750000Y-83750000D01*
X294000000Y-86250000D02*
X284750000Y-86250000D01*
G04 #@! TO.C,X7*
X334250000Y-87400000D02*
X334250000Y-78150000D01*
X334250000Y-78150000D02*
X336750000Y-78150000D01*
X336750000Y-78150000D02*
X336750000Y-87400000D01*
X336750000Y-87400000D02*
X334250000Y-87400000D01*
D10*
G04 #@! TO.C,X2*
X277000000Y-69900000D02*
X277000000Y-58900000D01*
X291000000Y-69900000D02*
X277000000Y-69900000D01*
X291000000Y-58900000D02*
X291000000Y-69900000D01*
X277000000Y-58900000D02*
X291000000Y-58900000D01*
D11*
G04 #@! TO.C,D2*
X327700000Y-128000000D02*
X333400000Y-128000000D01*
X333400000Y-128000000D02*
X333400000Y-125000000D01*
X333400000Y-125000000D02*
X327700000Y-125000000D01*
D12*
G04 #@! TO.C,X6*
X294000000Y-126250000D02*
X284750000Y-126250000D01*
X284750000Y-126250000D02*
X284750000Y-123750000D01*
X284750000Y-123750000D02*
X294000000Y-123750000D01*
X294000000Y-123750000D02*
X294000000Y-126250000D01*
G04 #@! TO.C,X14*
X336750000Y-127400000D02*
X334250000Y-127400000D01*
X336750000Y-118150000D02*
X336750000Y-127400000D01*
X334250000Y-118150000D02*
X336750000Y-118150000D01*
X334250000Y-127400000D02*
X334250000Y-118150000D01*
G04 #@! TO.C,X26*
X259700000Y-102650000D02*
X268950000Y-102650000D01*
X268950000Y-102650000D02*
X268950000Y-105150000D01*
X268950000Y-105150000D02*
X259700000Y-105150000D01*
X259700000Y-105150000D02*
X259700000Y-102650000D01*
D11*
G04 #@! TO.C,D2*
X212400000Y-125000000D02*
X206700000Y-125000000D01*
X212400000Y-128000000D02*
X212400000Y-125000000D01*
X206700000Y-128000000D02*
X212400000Y-128000000D01*
D12*
G04 #@! TO.C,X14*
X213250000Y-127400000D02*
X213250000Y-118150000D01*
X213250000Y-118150000D02*
X215750000Y-118150000D01*
X215750000Y-118150000D02*
X215750000Y-127400000D01*
X215750000Y-127400000D02*
X213250000Y-127400000D01*
G04 #@! TO.C,X26*
X138700000Y-105150000D02*
X138700000Y-102650000D01*
X147950000Y-105150000D02*
X138700000Y-105150000D01*
X147950000Y-102650000D02*
X147950000Y-105150000D01*
X138700000Y-102650000D02*
X147950000Y-102650000D01*
G04 #@! TO.C,X6*
X173000000Y-123750000D02*
X173000000Y-126250000D01*
X163750000Y-123750000D02*
X173000000Y-123750000D01*
X163750000Y-126250000D02*
X163750000Y-123750000D01*
X173000000Y-126250000D02*
X163750000Y-126250000D01*
G04 #@! TO.C,X17*
X100650000Y-111460000D02*
X98150000Y-111460000D01*
X100650000Y-102210000D02*
X100650000Y-111460000D01*
X98150000Y-102210000D02*
X100650000Y-102210000D01*
X98150000Y-111460000D02*
X98150000Y-102210000D01*
D11*
G04 #@! TO.C,R1*
X207050000Y-128630000D02*
X209050000Y-128630000D01*
X209050000Y-130770000D02*
X207050000Y-130770000D01*
D10*
G04 #@! TO.C,X5*
X156000000Y-109900000D02*
X156000000Y-98900000D01*
X170000000Y-109900000D02*
X156000000Y-109900000D01*
X170000000Y-98900000D02*
X170000000Y-109900000D01*
X156000000Y-98900000D02*
X170000000Y-98900000D01*
G04 #@! TO.C,X4*
X140500000Y-122000000D02*
X154500000Y-122000000D01*
X154500000Y-122000000D02*
X154500000Y-133000000D01*
X154500000Y-133000000D02*
X140500000Y-133000000D01*
X140500000Y-133000000D02*
X140500000Y-122000000D01*
D11*
G04 #@! TO.C,R4*
X104950000Y-99430000D02*
X106950000Y-99430000D01*
X106950000Y-101570000D02*
X104950000Y-101570000D01*
G04 #@! TO.C,D1*
X107400000Y-102000000D02*
X101700000Y-102000000D01*
X101700000Y-102000000D02*
X101700000Y-105000000D01*
X101700000Y-105000000D02*
X107400000Y-105000000D01*
G04 #@! TO.C,R2*
X101950000Y-101570000D02*
X99950000Y-101570000D01*
X99950000Y-99430000D02*
X101950000Y-99430000D01*
G04 #@! TO.C,R3*
X213950000Y-130770000D02*
X211950000Y-130770000D01*
X211950000Y-128630000D02*
X213950000Y-128630000D01*
D12*
G04 #@! TO.C,X3*
X173000000Y-86250000D02*
X163750000Y-86250000D01*
X163750000Y-86250000D02*
X163750000Y-83750000D01*
X163750000Y-83750000D02*
X173000000Y-83750000D01*
X173000000Y-83750000D02*
X173000000Y-86250000D01*
D11*
G04 #@! TO.C,D4*
X206700000Y-88000000D02*
X212400000Y-88000000D01*
X212400000Y-88000000D02*
X212400000Y-85000000D01*
X212400000Y-85000000D02*
X206700000Y-85000000D01*
D12*
G04 #@! TO.C,X7*
X215750000Y-87400000D02*
X213250000Y-87400000D01*
X215750000Y-78150000D02*
X215750000Y-87400000D01*
X213250000Y-78150000D02*
X215750000Y-78150000D01*
X213250000Y-87400000D02*
X213250000Y-78150000D01*
G04 #@! TO.C,X12*
X138700000Y-62650000D02*
X147950000Y-62650000D01*
X147950000Y-62650000D02*
X147950000Y-65150000D01*
X147950000Y-65150000D02*
X138700000Y-65150000D01*
X138700000Y-65150000D02*
X138700000Y-62650000D01*
D11*
G04 #@! TO.C,D3*
X101700000Y-65000000D02*
X107400000Y-65000000D01*
X101700000Y-62000000D02*
X101700000Y-65000000D01*
X107400000Y-62000000D02*
X101700000Y-62000000D01*
G04 #@! TO.C,R6*
X209050000Y-90770000D02*
X207050000Y-90770000D01*
X207050000Y-88630000D02*
X209050000Y-88630000D01*
G04 #@! TO.C,R8*
X211950000Y-88630000D02*
X213950000Y-88630000D01*
X213950000Y-90770000D02*
X211950000Y-90770000D01*
G04 #@! TO.C,R7*
X99950000Y-59430000D02*
X101950000Y-59430000D01*
X101950000Y-61570000D02*
X99950000Y-61570000D01*
G04 #@! TO.C,R9*
X106950000Y-61570000D02*
X104950000Y-61570000D01*
X104950000Y-59430000D02*
X106950000Y-59430000D01*
D12*
G04 #@! TO.C,X9*
X98150000Y-71460000D02*
X98150000Y-62210000D01*
X98150000Y-62210000D02*
X100650000Y-62210000D01*
X100650000Y-62210000D02*
X100650000Y-71460000D01*
X100650000Y-71460000D02*
X98150000Y-71460000D01*
D10*
G04 #@! TO.C,X1*
X140500000Y-93000000D02*
X140500000Y-82000000D01*
X154500000Y-93000000D02*
X140500000Y-93000000D01*
X154500000Y-82000000D02*
X154500000Y-93000000D01*
X140500000Y-82000000D02*
X154500000Y-82000000D01*
G04 #@! TO.C,X2*
X156000000Y-58900000D02*
X170000000Y-58900000D01*
X170000000Y-58900000D02*
X170000000Y-69900000D01*
X170000000Y-69900000D02*
X156000000Y-69900000D01*
X156000000Y-69900000D02*
X156000000Y-58900000D01*
G04 #@! TO.C,R4*
D12*
X105783333Y-179066666D02*
X105550000Y-178733333D01*
X105383333Y-179066666D02*
X105383333Y-178366666D01*
X105650000Y-178366666D01*
X105716666Y-178400000D01*
X105750000Y-178433333D01*
X105783333Y-178500000D01*
X105783333Y-178600000D01*
X105750000Y-178666666D01*
X105716666Y-178700000D01*
X105650000Y-178733333D01*
X105383333Y-178733333D01*
X106383333Y-178600000D02*
X106383333Y-179066666D01*
X106216666Y-178333333D02*
X106050000Y-178833333D01*
X106483333Y-178833333D01*
G04 #@! TO.C,R3*
X212833333Y-211866666D02*
X212600000Y-211533333D01*
X212433333Y-211866666D02*
X212433333Y-211166666D01*
X212700000Y-211166666D01*
X212766666Y-211200000D01*
X212800000Y-211233333D01*
X212833333Y-211300000D01*
X212833333Y-211400000D01*
X212800000Y-211466666D01*
X212766666Y-211500000D01*
X212700000Y-211533333D01*
X212433333Y-211533333D01*
X213066666Y-211166666D02*
X213500000Y-211166666D01*
X213266666Y-211433333D01*
X213366666Y-211433333D01*
X213433333Y-211466666D01*
X213466666Y-211500000D01*
X213500000Y-211566666D01*
X213500000Y-211733333D01*
X213466666Y-211800000D01*
X213433333Y-211833333D01*
X213366666Y-211866666D01*
X213166666Y-211866666D01*
X213100000Y-211833333D01*
X213066666Y-211800000D01*
G04 #@! TO.C,R2*
X100833333Y-178966666D02*
X100600000Y-178633333D01*
X100433333Y-178966666D02*
X100433333Y-178266666D01*
X100700000Y-178266666D01*
X100766666Y-178300000D01*
X100800000Y-178333333D01*
X100833333Y-178400000D01*
X100833333Y-178500000D01*
X100800000Y-178566666D01*
X100766666Y-178600000D01*
X100700000Y-178633333D01*
X100433333Y-178633333D01*
X101100000Y-178333333D02*
X101133333Y-178300000D01*
X101200000Y-178266666D01*
X101366666Y-178266666D01*
X101433333Y-178300000D01*
X101466666Y-178333333D01*
X101500000Y-178400000D01*
X101500000Y-178466666D01*
X101466666Y-178566666D01*
X101066666Y-178966666D01*
X101500000Y-178966666D01*
G04 #@! TO.C,D1*
X104483333Y-186066666D02*
X104483333Y-185366666D01*
X104650000Y-185366666D01*
X104750000Y-185400000D01*
X104816666Y-185466666D01*
X104850000Y-185533333D01*
X104883333Y-185666666D01*
X104883333Y-185766666D01*
X104850000Y-185900000D01*
X104816666Y-185966666D01*
X104750000Y-186033333D01*
X104650000Y-186066666D01*
X104483333Y-186066666D01*
X105550000Y-186066666D02*
X105150000Y-186066666D01*
X105350000Y-186066666D02*
X105350000Y-185366666D01*
X105283333Y-185466666D01*
X105216666Y-185533333D01*
X105150000Y-185566666D01*
G04 #@! TO.C,X4*
D13*
X147285714Y-198678571D02*
X148285714Y-200178571D01*
X148285714Y-198678571D02*
X147285714Y-200178571D01*
X149500000Y-199178571D02*
X149500000Y-200178571D01*
X149142857Y-198607142D02*
X148785714Y-199678571D01*
X149714285Y-199678571D01*
G04 #@! TO.C,X5*
X161785714Y-192178571D02*
X162785714Y-193678571D01*
X162785714Y-192178571D02*
X161785714Y-193678571D01*
X164071428Y-192178571D02*
X163357142Y-192178571D01*
X163285714Y-192892857D01*
X163357142Y-192821428D01*
X163500000Y-192750000D01*
X163857142Y-192750000D01*
X164000000Y-192821428D01*
X164071428Y-192892857D01*
X164142857Y-193035714D01*
X164142857Y-193392857D01*
X164071428Y-193535714D01*
X164000000Y-193607142D01*
X163857142Y-193678571D01*
X163500000Y-193678571D01*
X163357142Y-193607142D01*
X163285714Y-193535714D01*
G04 #@! TO.C,X17*
D14*
X97857142Y-192842857D02*
X98657142Y-194042857D01*
X98657142Y-192842857D02*
X97857142Y-194042857D01*
X99742857Y-194042857D02*
X99057142Y-194042857D01*
X99400000Y-194042857D02*
X99400000Y-192842857D01*
X99285714Y-193014285D01*
X99171428Y-193128571D01*
X99057142Y-193185714D01*
X100142857Y-192842857D02*
X100942857Y-192842857D01*
X100428571Y-194042857D01*
G04 #@! TO.C,R1*
D12*
X208383333Y-212016666D02*
X208150000Y-211683333D01*
X207983333Y-212016666D02*
X207983333Y-211316666D01*
X208250000Y-211316666D01*
X208316666Y-211350000D01*
X208350000Y-211383333D01*
X208383333Y-211450000D01*
X208383333Y-211550000D01*
X208350000Y-211616666D01*
X208316666Y-211650000D01*
X208250000Y-211683333D01*
X207983333Y-211683333D01*
X209050000Y-212016666D02*
X208650000Y-212016666D01*
X208850000Y-212016666D02*
X208850000Y-211316666D01*
X208783333Y-211416666D01*
X208716666Y-211483333D01*
X208650000Y-211516666D01*
G04 #@! TO.C,R4*
X226783333Y-179066666D02*
X226550000Y-178733333D01*
X226383333Y-179066666D02*
X226383333Y-178366666D01*
X226650000Y-178366666D01*
X226716666Y-178400000D01*
X226750000Y-178433333D01*
X226783333Y-178500000D01*
X226783333Y-178600000D01*
X226750000Y-178666666D01*
X226716666Y-178700000D01*
X226650000Y-178733333D01*
X226383333Y-178733333D01*
X227383333Y-178600000D02*
X227383333Y-179066666D01*
X227216666Y-178333333D02*
X227050000Y-178833333D01*
X227483333Y-178833333D01*
G04 #@! TO.C,D1*
X225483333Y-186066666D02*
X225483333Y-185366666D01*
X225650000Y-185366666D01*
X225750000Y-185400000D01*
X225816666Y-185466666D01*
X225850000Y-185533333D01*
X225883333Y-185666666D01*
X225883333Y-185766666D01*
X225850000Y-185900000D01*
X225816666Y-185966666D01*
X225750000Y-186033333D01*
X225650000Y-186066666D01*
X225483333Y-186066666D01*
X226550000Y-186066666D02*
X226150000Y-186066666D01*
X226350000Y-186066666D02*
X226350000Y-185366666D01*
X226283333Y-185466666D01*
X226216666Y-185533333D01*
X226150000Y-185566666D01*
G04 #@! TO.C,R1*
X329383333Y-212016666D02*
X329150000Y-211683333D01*
X328983333Y-212016666D02*
X328983333Y-211316666D01*
X329250000Y-211316666D01*
X329316666Y-211350000D01*
X329350000Y-211383333D01*
X329383333Y-211450000D01*
X329383333Y-211550000D01*
X329350000Y-211616666D01*
X329316666Y-211650000D01*
X329250000Y-211683333D01*
X328983333Y-211683333D01*
X330050000Y-212016666D02*
X329650000Y-212016666D01*
X329850000Y-212016666D02*
X329850000Y-211316666D01*
X329783333Y-211416666D01*
X329716666Y-211483333D01*
X329650000Y-211516666D01*
G04 #@! TO.C,R3*
X333833333Y-211866666D02*
X333600000Y-211533333D01*
X333433333Y-211866666D02*
X333433333Y-211166666D01*
X333700000Y-211166666D01*
X333766666Y-211200000D01*
X333800000Y-211233333D01*
X333833333Y-211300000D01*
X333833333Y-211400000D01*
X333800000Y-211466666D01*
X333766666Y-211500000D01*
X333700000Y-211533333D01*
X333433333Y-211533333D01*
X334066666Y-211166666D02*
X334500000Y-211166666D01*
X334266666Y-211433333D01*
X334366666Y-211433333D01*
X334433333Y-211466666D01*
X334466666Y-211500000D01*
X334500000Y-211566666D01*
X334500000Y-211733333D01*
X334466666Y-211800000D01*
X334433333Y-211833333D01*
X334366666Y-211866666D01*
X334166666Y-211866666D01*
X334100000Y-211833333D01*
X334066666Y-211800000D01*
G04 #@! TO.C,X17*
D14*
X218857142Y-192842857D02*
X219657142Y-194042857D01*
X219657142Y-192842857D02*
X218857142Y-194042857D01*
X220742857Y-194042857D02*
X220057142Y-194042857D01*
X220400000Y-194042857D02*
X220400000Y-192842857D01*
X220285714Y-193014285D01*
X220171428Y-193128571D01*
X220057142Y-193185714D01*
X221142857Y-192842857D02*
X221942857Y-192842857D01*
X221428571Y-194042857D01*
G04 #@! TO.C,X5*
D13*
X282785714Y-192178571D02*
X283785714Y-193678571D01*
X283785714Y-192178571D02*
X282785714Y-193678571D01*
X285071428Y-192178571D02*
X284357142Y-192178571D01*
X284285714Y-192892857D01*
X284357142Y-192821428D01*
X284500000Y-192750000D01*
X284857142Y-192750000D01*
X285000000Y-192821428D01*
X285071428Y-192892857D01*
X285142857Y-193035714D01*
X285142857Y-193392857D01*
X285071428Y-193535714D01*
X285000000Y-193607142D01*
X284857142Y-193678571D01*
X284500000Y-193678571D01*
X284357142Y-193607142D01*
X284285714Y-193535714D01*
G04 #@! TO.C,R2*
D12*
X221833333Y-178966666D02*
X221600000Y-178633333D01*
X221433333Y-178966666D02*
X221433333Y-178266666D01*
X221700000Y-178266666D01*
X221766666Y-178300000D01*
X221800000Y-178333333D01*
X221833333Y-178400000D01*
X221833333Y-178500000D01*
X221800000Y-178566666D01*
X221766666Y-178600000D01*
X221700000Y-178633333D01*
X221433333Y-178633333D01*
X222100000Y-178333333D02*
X222133333Y-178300000D01*
X222200000Y-178266666D01*
X222366666Y-178266666D01*
X222433333Y-178300000D01*
X222466666Y-178333333D01*
X222500000Y-178400000D01*
X222500000Y-178466666D01*
X222466666Y-178566666D01*
X222066666Y-178966666D01*
X222500000Y-178966666D01*
G04 #@! TO.C,X4*
D13*
X268285714Y-198678571D02*
X269285714Y-200178571D01*
X269285714Y-198678571D02*
X268285714Y-200178571D01*
X270500000Y-199178571D02*
X270500000Y-200178571D01*
X270142857Y-198607142D02*
X269785714Y-199678571D01*
X270714285Y-199678571D01*
G04 #@! TO.C,V2.1*
D15*
X231852380Y-193604761D02*
X232519047Y-195604761D01*
X233185714Y-193604761D01*
X233757142Y-193795238D02*
X233852380Y-193700000D01*
X234042857Y-193604761D01*
X234519047Y-193604761D01*
X234709523Y-193700000D01*
X234804761Y-193795238D01*
X234900000Y-193985714D01*
X234900000Y-194176190D01*
X234804761Y-194461904D01*
X233661904Y-195604761D01*
X234900000Y-195604761D01*
X235757142Y-195414285D02*
X235852380Y-195509523D01*
X235757142Y-195604761D01*
X235661904Y-195509523D01*
X235757142Y-195414285D01*
X235757142Y-195604761D01*
X237757142Y-195604761D02*
X236614285Y-195604761D01*
X237185714Y-195604761D02*
X237185714Y-193604761D01*
X236995238Y-193890476D01*
X236804761Y-194080952D01*
X236614285Y-194176190D01*
G04 #@! TO.C,D2*
D12*
X328983333Y-204816666D02*
X328983333Y-204116666D01*
X329150000Y-204116666D01*
X329250000Y-204150000D01*
X329316666Y-204216666D01*
X329350000Y-204283333D01*
X329383333Y-204416666D01*
X329383333Y-204516666D01*
X329350000Y-204650000D01*
X329316666Y-204716666D01*
X329250000Y-204783333D01*
X329150000Y-204816666D01*
X328983333Y-204816666D01*
X329650000Y-204183333D02*
X329683333Y-204150000D01*
X329750000Y-204116666D01*
X329916666Y-204116666D01*
X329983333Y-204150000D01*
X330016666Y-204183333D01*
X330050000Y-204250000D01*
X330050000Y-204316666D01*
X330016666Y-204416666D01*
X329616666Y-204816666D01*
X330050000Y-204816666D01*
G04 #@! TO.C,X2*
D13*
X282785714Y-151678571D02*
X283785714Y-153178571D01*
X283785714Y-151678571D02*
X282785714Y-153178571D01*
X284285714Y-151821428D02*
X284357142Y-151750000D01*
X284500000Y-151678571D01*
X284857142Y-151678571D01*
X285000000Y-151750000D01*
X285071428Y-151821428D01*
X285142857Y-151964285D01*
X285142857Y-152107142D01*
X285071428Y-152321428D01*
X284214285Y-153178571D01*
X285142857Y-153178571D01*
G04 #@! TO.C,V2.2*
D15*
X321395360Y-193813508D02*
X322062027Y-195813508D01*
X322728694Y-193813508D01*
X323300122Y-194003985D02*
X323395360Y-193908747D01*
X323585837Y-193813508D01*
X324062027Y-193813508D01*
X324252503Y-193908747D01*
X324347741Y-194003985D01*
X324442980Y-194194461D01*
X324442980Y-194384937D01*
X324347741Y-194670651D01*
X323204884Y-195813508D01*
X324442980Y-195813508D01*
X325300122Y-195623032D02*
X325395360Y-195718270D01*
X325300122Y-195813508D01*
X325204884Y-195718270D01*
X325300122Y-195623032D01*
X325300122Y-195813508D01*
X326157265Y-194003985D02*
X326252503Y-193908747D01*
X326442980Y-193813508D01*
X326919170Y-193813508D01*
X327109646Y-193908747D01*
X327204884Y-194003985D01*
X327300122Y-194194461D01*
X327300122Y-194384937D01*
X327204884Y-194670651D01*
X326062027Y-195813508D01*
X327300122Y-195813508D01*
G04 #@! TO.C,X6*
D14*
X288530476Y-201452380D02*
X289197142Y-202452380D01*
X289197142Y-201452380D02*
X288530476Y-202452380D01*
X290006666Y-201452380D02*
X289816190Y-201452380D01*
X289720952Y-201500000D01*
X289673333Y-201547619D01*
X289578095Y-201690476D01*
X289530476Y-201880952D01*
X289530476Y-202261904D01*
X289578095Y-202357142D01*
X289625714Y-202404761D01*
X289720952Y-202452380D01*
X289911428Y-202452380D01*
X290006666Y-202404761D01*
X290054285Y-202357142D01*
X290101904Y-202261904D01*
X290101904Y-202023809D01*
X290054285Y-201928571D01*
X290006666Y-201880952D01*
X289911428Y-201833333D01*
X289720952Y-201833333D01*
X289625714Y-201880952D01*
X289578095Y-201928571D01*
X289530476Y-202023809D01*
G04 #@! TO.C,D3*
D12*
X225483333Y-146066666D02*
X225483333Y-145366666D01*
X225650000Y-145366666D01*
X225750000Y-145400000D01*
X225816666Y-145466666D01*
X225850000Y-145533333D01*
X225883333Y-145666666D01*
X225883333Y-145766666D01*
X225850000Y-145900000D01*
X225816666Y-145966666D01*
X225750000Y-146033333D01*
X225650000Y-146066666D01*
X225483333Y-146066666D01*
X226116666Y-145366666D02*
X226550000Y-145366666D01*
X226316666Y-145633333D01*
X226416666Y-145633333D01*
X226483333Y-145666666D01*
X226516666Y-145700000D01*
X226550000Y-145766666D01*
X226550000Y-145933333D01*
X226516666Y-146000000D01*
X226483333Y-146033333D01*
X226416666Y-146066666D01*
X226216666Y-146066666D01*
X226150000Y-146033333D01*
X226116666Y-146000000D01*
G04 #@! TO.C,R7*
X221833333Y-138966666D02*
X221600000Y-138633333D01*
X221433333Y-138966666D02*
X221433333Y-138266666D01*
X221700000Y-138266666D01*
X221766666Y-138300000D01*
X221800000Y-138333333D01*
X221833333Y-138400000D01*
X221833333Y-138500000D01*
X221800000Y-138566666D01*
X221766666Y-138600000D01*
X221700000Y-138633333D01*
X221433333Y-138633333D01*
X222066666Y-138266666D02*
X222533333Y-138266666D01*
X222233333Y-138966666D01*
G04 #@! TO.C,X7*
D14*
X333528571Y-155842857D02*
X334328571Y-157042857D01*
X334328571Y-155842857D02*
X333528571Y-157042857D01*
X334671428Y-155842857D02*
X335471428Y-155842857D01*
X334957142Y-157042857D01*
G04 #@! TO.C,X3*
X288690476Y-161452380D02*
X289357142Y-162452380D01*
X289357142Y-161452380D02*
X288690476Y-162452380D01*
X289642857Y-161452380D02*
X290261904Y-161452380D01*
X289928571Y-161833333D01*
X290071428Y-161833333D01*
X290166666Y-161880952D01*
X290214285Y-161928571D01*
X290261904Y-162023809D01*
X290261904Y-162261904D01*
X290214285Y-162357142D01*
X290166666Y-162404761D01*
X290071428Y-162452380D01*
X289785714Y-162452380D01*
X289690476Y-162404761D01*
X289642857Y-162357142D01*
G04 #@! TO.C,R6*
D12*
X329383333Y-172016666D02*
X329150000Y-171683333D01*
X328983333Y-172016666D02*
X328983333Y-171316666D01*
X329250000Y-171316666D01*
X329316666Y-171350000D01*
X329350000Y-171383333D01*
X329383333Y-171450000D01*
X329383333Y-171550000D01*
X329350000Y-171616666D01*
X329316666Y-171650000D01*
X329250000Y-171683333D01*
X328983333Y-171683333D01*
X329983333Y-171316666D02*
X329850000Y-171316666D01*
X329783333Y-171350000D01*
X329750000Y-171383333D01*
X329683333Y-171483333D01*
X329650000Y-171616666D01*
X329650000Y-171883333D01*
X329683333Y-171950000D01*
X329716666Y-171983333D01*
X329783333Y-172016666D01*
X329916666Y-172016666D01*
X329983333Y-171983333D01*
X330016666Y-171950000D01*
X330050000Y-171883333D01*
X330050000Y-171716666D01*
X330016666Y-171650000D01*
X329983333Y-171616666D01*
X329916666Y-171583333D01*
X329783333Y-171583333D01*
X329716666Y-171616666D01*
X329683333Y-171650000D01*
X329650000Y-171716666D01*
G04 #@! TO.C,V1.1*
D15*
X231852380Y-153604761D02*
X232519047Y-155604761D01*
X233185714Y-153604761D01*
X234900000Y-155604761D02*
X233757142Y-155604761D01*
X234328571Y-155604761D02*
X234328571Y-153604761D01*
X234138095Y-153890476D01*
X233947619Y-154080952D01*
X233757142Y-154176190D01*
X235757142Y-155414285D02*
X235852380Y-155509523D01*
X235757142Y-155604761D01*
X235661904Y-155509523D01*
X235757142Y-155414285D01*
X235757142Y-155604761D01*
X237757142Y-155604761D02*
X236614285Y-155604761D01*
X237185714Y-155604761D02*
X237185714Y-153604761D01*
X236995238Y-153890476D01*
X236804761Y-154080952D01*
X236614285Y-154176190D01*
G04 #@! TO.C,R8*
D12*
X333833333Y-171866666D02*
X333600000Y-171533333D01*
X333433333Y-171866666D02*
X333433333Y-171166666D01*
X333700000Y-171166666D01*
X333766666Y-171200000D01*
X333800000Y-171233333D01*
X333833333Y-171300000D01*
X333833333Y-171400000D01*
X333800000Y-171466666D01*
X333766666Y-171500000D01*
X333700000Y-171533333D01*
X333433333Y-171533333D01*
X334233333Y-171466666D02*
X334166666Y-171433333D01*
X334133333Y-171400000D01*
X334100000Y-171333333D01*
X334100000Y-171300000D01*
X334133333Y-171233333D01*
X334166666Y-171200000D01*
X334233333Y-171166666D01*
X334366666Y-171166666D01*
X334433333Y-171200000D01*
X334466666Y-171233333D01*
X334500000Y-171300000D01*
X334500000Y-171333333D01*
X334466666Y-171400000D01*
X334433333Y-171433333D01*
X334366666Y-171466666D01*
X334233333Y-171466666D01*
X334166666Y-171500000D01*
X334133333Y-171533333D01*
X334100000Y-171600000D01*
X334100000Y-171733333D01*
X334133333Y-171800000D01*
X334166666Y-171833333D01*
X334233333Y-171866666D01*
X334366666Y-171866666D01*
X334433333Y-171833333D01*
X334466666Y-171800000D01*
X334500000Y-171733333D01*
X334500000Y-171600000D01*
X334466666Y-171533333D01*
X334433333Y-171500000D01*
X334366666Y-171466666D01*
G04 #@! TO.C,X9*
D14*
X219428571Y-152842857D02*
X220228571Y-154042857D01*
X220228571Y-152842857D02*
X219428571Y-154042857D01*
X220742857Y-154042857D02*
X220971428Y-154042857D01*
X221085714Y-153985714D01*
X221142857Y-153928571D01*
X221257142Y-153757142D01*
X221314285Y-153528571D01*
X221314285Y-153071428D01*
X221257142Y-152957142D01*
X221200000Y-152900000D01*
X221085714Y-152842857D01*
X220857142Y-152842857D01*
X220742857Y-152900000D01*
X220685714Y-152957142D01*
X220628571Y-153071428D01*
X220628571Y-153357142D01*
X220685714Y-153471428D01*
X220742857Y-153528571D01*
X220857142Y-153585714D01*
X221085714Y-153585714D01*
X221200000Y-153528571D01*
X221257142Y-153471428D01*
X221314285Y-153357142D01*
G04 #@! TO.C,X1*
D13*
X268285714Y-158678571D02*
X269285714Y-160178571D01*
X269285714Y-158678571D02*
X268285714Y-160178571D01*
X270642857Y-160178571D02*
X269785714Y-160178571D01*
X270214285Y-160178571D02*
X270214285Y-158678571D01*
X270071428Y-158892857D01*
X269928571Y-159035714D01*
X269785714Y-159107142D01*
G04 #@! TO.C,X12*
D14*
X262697142Y-146842857D02*
X263497142Y-148042857D01*
X263497142Y-146842857D02*
X262697142Y-148042857D01*
X264582857Y-148042857D02*
X263897142Y-148042857D01*
X264240000Y-148042857D02*
X264240000Y-146842857D01*
X264125714Y-147014285D01*
X264011428Y-147128571D01*
X263897142Y-147185714D01*
X265040000Y-146957142D02*
X265097142Y-146900000D01*
X265211428Y-146842857D01*
X265497142Y-146842857D01*
X265611428Y-146900000D01*
X265668571Y-146957142D01*
X265725714Y-147071428D01*
X265725714Y-147185714D01*
X265668571Y-147357142D01*
X264982857Y-148042857D01*
X265725714Y-148042857D01*
G04 #@! TO.C,D4*
D12*
X328983333Y-164816666D02*
X328983333Y-164116666D01*
X329150000Y-164116666D01*
X329250000Y-164150000D01*
X329316666Y-164216666D01*
X329350000Y-164283333D01*
X329383333Y-164416666D01*
X329383333Y-164516666D01*
X329350000Y-164650000D01*
X329316666Y-164716666D01*
X329250000Y-164783333D01*
X329150000Y-164816666D01*
X328983333Y-164816666D01*
X329983333Y-164350000D02*
X329983333Y-164816666D01*
X329816666Y-164083333D02*
X329650000Y-164583333D01*
X330083333Y-164583333D01*
G04 #@! TO.C,R9*
X226783333Y-139066666D02*
X226550000Y-138733333D01*
X226383333Y-139066666D02*
X226383333Y-138366666D01*
X226650000Y-138366666D01*
X226716666Y-138400000D01*
X226750000Y-138433333D01*
X226783333Y-138500000D01*
X226783333Y-138600000D01*
X226750000Y-138666666D01*
X226716666Y-138700000D01*
X226650000Y-138733333D01*
X226383333Y-138733333D01*
X227116666Y-139066666D02*
X227250000Y-139066666D01*
X227316666Y-139033333D01*
X227350000Y-139000000D01*
X227416666Y-138900000D01*
X227450000Y-138766666D01*
X227450000Y-138500000D01*
X227416666Y-138433333D01*
X227383333Y-138400000D01*
X227316666Y-138366666D01*
X227183333Y-138366666D01*
X227116666Y-138400000D01*
X227083333Y-138433333D01*
X227050000Y-138500000D01*
X227050000Y-138666666D01*
X227083333Y-138733333D01*
X227116666Y-138766666D01*
X227183333Y-138800000D01*
X227316666Y-138800000D01*
X227383333Y-138766666D01*
X227416666Y-138733333D01*
X227450000Y-138666666D01*
G04 #@! TO.C,V1.2*
D15*
X321395360Y-153813508D02*
X322062027Y-155813508D01*
X322728694Y-153813508D01*
X324442980Y-155813508D02*
X323300122Y-155813508D01*
X323871551Y-155813508D02*
X323871551Y-153813508D01*
X323681075Y-154099223D01*
X323490599Y-154289699D01*
X323300122Y-154384937D01*
X325300122Y-155623032D02*
X325395360Y-155718270D01*
X325300122Y-155813508D01*
X325204884Y-155718270D01*
X325300122Y-155623032D01*
X325300122Y-155813508D01*
X326157265Y-154003985D02*
X326252503Y-153908747D01*
X326442980Y-153813508D01*
X326919170Y-153813508D01*
X327109646Y-153908747D01*
X327204884Y-154003985D01*
X327300122Y-154194461D01*
X327300122Y-154384937D01*
X327204884Y-154670651D01*
X326062027Y-155813508D01*
X327300122Y-155813508D01*
G04 #@! TO.C,X26*
D14*
X262697142Y-187342857D02*
X263497142Y-188542857D01*
X263497142Y-187342857D02*
X262697142Y-188542857D01*
X263897142Y-187457142D02*
X263954285Y-187400000D01*
X264068571Y-187342857D01*
X264354285Y-187342857D01*
X264468571Y-187400000D01*
X264525714Y-187457142D01*
X264582857Y-187571428D01*
X264582857Y-187685714D01*
X264525714Y-187857142D01*
X263840000Y-188542857D01*
X264582857Y-188542857D01*
X265611428Y-187342857D02*
X265382857Y-187342857D01*
X265268571Y-187400000D01*
X265211428Y-187457142D01*
X265097142Y-187628571D01*
X265040000Y-187857142D01*
X265040000Y-188314285D01*
X265097142Y-188428571D01*
X265154285Y-188485714D01*
X265268571Y-188542857D01*
X265497142Y-188542857D01*
X265611428Y-188485714D01*
X265668571Y-188428571D01*
X265725714Y-188314285D01*
X265725714Y-188028571D01*
X265668571Y-187914285D01*
X265611428Y-187857142D01*
X265497142Y-187800000D01*
X265268571Y-187800000D01*
X265154285Y-187857142D01*
X265097142Y-187914285D01*
X265040000Y-188028571D01*
G04 #@! TO.C,R9*
D12*
X105783333Y-139066666D02*
X105550000Y-138733333D01*
X105383333Y-139066666D02*
X105383333Y-138366666D01*
X105650000Y-138366666D01*
X105716666Y-138400000D01*
X105750000Y-138433333D01*
X105783333Y-138500000D01*
X105783333Y-138600000D01*
X105750000Y-138666666D01*
X105716666Y-138700000D01*
X105650000Y-138733333D01*
X105383333Y-138733333D01*
X106116666Y-139066666D02*
X106250000Y-139066666D01*
X106316666Y-139033333D01*
X106350000Y-139000000D01*
X106416666Y-138900000D01*
X106450000Y-138766666D01*
X106450000Y-138500000D01*
X106416666Y-138433333D01*
X106383333Y-138400000D01*
X106316666Y-138366666D01*
X106183333Y-138366666D01*
X106116666Y-138400000D01*
X106083333Y-138433333D01*
X106050000Y-138500000D01*
X106050000Y-138666666D01*
X106083333Y-138733333D01*
X106116666Y-138766666D01*
X106183333Y-138800000D01*
X106316666Y-138800000D01*
X106383333Y-138766666D01*
X106416666Y-138733333D01*
X106450000Y-138666666D01*
G04 #@! TO.C,R7*
X100833333Y-138966666D02*
X100600000Y-138633333D01*
X100433333Y-138966666D02*
X100433333Y-138266666D01*
X100700000Y-138266666D01*
X100766666Y-138300000D01*
X100800000Y-138333333D01*
X100833333Y-138400000D01*
X100833333Y-138500000D01*
X100800000Y-138566666D01*
X100766666Y-138600000D01*
X100700000Y-138633333D01*
X100433333Y-138633333D01*
X101066666Y-138266666D02*
X101533333Y-138266666D01*
X101233333Y-138966666D01*
G04 #@! TO.C,R6*
X208383333Y-172016666D02*
X208150000Y-171683333D01*
X207983333Y-172016666D02*
X207983333Y-171316666D01*
X208250000Y-171316666D01*
X208316666Y-171350000D01*
X208350000Y-171383333D01*
X208383333Y-171450000D01*
X208383333Y-171550000D01*
X208350000Y-171616666D01*
X208316666Y-171650000D01*
X208250000Y-171683333D01*
X207983333Y-171683333D01*
X208983333Y-171316666D02*
X208850000Y-171316666D01*
X208783333Y-171350000D01*
X208750000Y-171383333D01*
X208683333Y-171483333D01*
X208650000Y-171616666D01*
X208650000Y-171883333D01*
X208683333Y-171950000D01*
X208716666Y-171983333D01*
X208783333Y-172016666D01*
X208916666Y-172016666D01*
X208983333Y-171983333D01*
X209016666Y-171950000D01*
X209050000Y-171883333D01*
X209050000Y-171716666D01*
X209016666Y-171650000D01*
X208983333Y-171616666D01*
X208916666Y-171583333D01*
X208783333Y-171583333D01*
X208716666Y-171616666D01*
X208683333Y-171650000D01*
X208650000Y-171716666D01*
G04 #@! TO.C,R8*
X212833333Y-171866666D02*
X212600000Y-171533333D01*
X212433333Y-171866666D02*
X212433333Y-171166666D01*
X212700000Y-171166666D01*
X212766666Y-171200000D01*
X212800000Y-171233333D01*
X212833333Y-171300000D01*
X212833333Y-171400000D01*
X212800000Y-171466666D01*
X212766666Y-171500000D01*
X212700000Y-171533333D01*
X212433333Y-171533333D01*
X213233333Y-171466666D02*
X213166666Y-171433333D01*
X213133333Y-171400000D01*
X213100000Y-171333333D01*
X213100000Y-171300000D01*
X213133333Y-171233333D01*
X213166666Y-171200000D01*
X213233333Y-171166666D01*
X213366666Y-171166666D01*
X213433333Y-171200000D01*
X213466666Y-171233333D01*
X213500000Y-171300000D01*
X213500000Y-171333333D01*
X213466666Y-171400000D01*
X213433333Y-171433333D01*
X213366666Y-171466666D01*
X213233333Y-171466666D01*
X213166666Y-171500000D01*
X213133333Y-171533333D01*
X213100000Y-171600000D01*
X213100000Y-171733333D01*
X213133333Y-171800000D01*
X213166666Y-171833333D01*
X213233333Y-171866666D01*
X213366666Y-171866666D01*
X213433333Y-171833333D01*
X213466666Y-171800000D01*
X213500000Y-171733333D01*
X213500000Y-171600000D01*
X213466666Y-171533333D01*
X213433333Y-171500000D01*
X213366666Y-171466666D01*
G04 #@! TO.C,X12*
D14*
X141697142Y-146842857D02*
X142497142Y-148042857D01*
X142497142Y-146842857D02*
X141697142Y-148042857D01*
X143582857Y-148042857D02*
X142897142Y-148042857D01*
X143240000Y-148042857D02*
X143240000Y-146842857D01*
X143125714Y-147014285D01*
X143011428Y-147128571D01*
X142897142Y-147185714D01*
X144040000Y-146957142D02*
X144097142Y-146900000D01*
X144211428Y-146842857D01*
X144497142Y-146842857D01*
X144611428Y-146900000D01*
X144668571Y-146957142D01*
X144725714Y-147071428D01*
X144725714Y-147185714D01*
X144668571Y-147357142D01*
X143982857Y-148042857D01*
X144725714Y-148042857D01*
G04 #@! TO.C,V1.1*
D15*
X110852380Y-153604761D02*
X111519047Y-155604761D01*
X112185714Y-153604761D01*
X113900000Y-155604761D02*
X112757142Y-155604761D01*
X113328571Y-155604761D02*
X113328571Y-153604761D01*
X113138095Y-153890476D01*
X112947619Y-154080952D01*
X112757142Y-154176190D01*
X114757142Y-155414285D02*
X114852380Y-155509523D01*
X114757142Y-155604761D01*
X114661904Y-155509523D01*
X114757142Y-155414285D01*
X114757142Y-155604761D01*
X116757142Y-155604761D02*
X115614285Y-155604761D01*
X116185714Y-155604761D02*
X116185714Y-153604761D01*
X115995238Y-153890476D01*
X115804761Y-154080952D01*
X115614285Y-154176190D01*
G04 #@! TO.C,X1*
D13*
X147285714Y-158678571D02*
X148285714Y-160178571D01*
X148285714Y-158678571D02*
X147285714Y-160178571D01*
X149642857Y-160178571D02*
X148785714Y-160178571D01*
X149214285Y-160178571D02*
X149214285Y-158678571D01*
X149071428Y-158892857D01*
X148928571Y-159035714D01*
X148785714Y-159107142D01*
G04 #@! TO.C,X9*
D14*
X98428571Y-152842857D02*
X99228571Y-154042857D01*
X99228571Y-152842857D02*
X98428571Y-154042857D01*
X99742857Y-154042857D02*
X99971428Y-154042857D01*
X100085714Y-153985714D01*
X100142857Y-153928571D01*
X100257142Y-153757142D01*
X100314285Y-153528571D01*
X100314285Y-153071428D01*
X100257142Y-152957142D01*
X100200000Y-152900000D01*
X100085714Y-152842857D01*
X99857142Y-152842857D01*
X99742857Y-152900000D01*
X99685714Y-152957142D01*
X99628571Y-153071428D01*
X99628571Y-153357142D01*
X99685714Y-153471428D01*
X99742857Y-153528571D01*
X99857142Y-153585714D01*
X100085714Y-153585714D01*
X100200000Y-153528571D01*
X100257142Y-153471428D01*
X100314285Y-153357142D01*
G04 #@! TO.C,D3*
D12*
X104483333Y-146066666D02*
X104483333Y-145366666D01*
X104650000Y-145366666D01*
X104750000Y-145400000D01*
X104816666Y-145466666D01*
X104850000Y-145533333D01*
X104883333Y-145666666D01*
X104883333Y-145766666D01*
X104850000Y-145900000D01*
X104816666Y-145966666D01*
X104750000Y-146033333D01*
X104650000Y-146066666D01*
X104483333Y-146066666D01*
X105116666Y-145366666D02*
X105550000Y-145366666D01*
X105316666Y-145633333D01*
X105416666Y-145633333D01*
X105483333Y-145666666D01*
X105516666Y-145700000D01*
X105550000Y-145766666D01*
X105550000Y-145933333D01*
X105516666Y-146000000D01*
X105483333Y-146033333D01*
X105416666Y-146066666D01*
X105216666Y-146066666D01*
X105150000Y-146033333D01*
X105116666Y-146000000D01*
G04 #@! TO.C,D4*
X207983333Y-164816666D02*
X207983333Y-164116666D01*
X208150000Y-164116666D01*
X208250000Y-164150000D01*
X208316666Y-164216666D01*
X208350000Y-164283333D01*
X208383333Y-164416666D01*
X208383333Y-164516666D01*
X208350000Y-164650000D01*
X208316666Y-164716666D01*
X208250000Y-164783333D01*
X208150000Y-164816666D01*
X207983333Y-164816666D01*
X208983333Y-164350000D02*
X208983333Y-164816666D01*
X208816666Y-164083333D02*
X208650000Y-164583333D01*
X209083333Y-164583333D01*
G04 #@! TO.C,V1.2*
D15*
X200395360Y-153813508D02*
X201062027Y-155813508D01*
X201728694Y-153813508D01*
X203442980Y-155813508D02*
X202300122Y-155813508D01*
X202871551Y-155813508D02*
X202871551Y-153813508D01*
X202681075Y-154099223D01*
X202490599Y-154289699D01*
X202300122Y-154384937D01*
X204300122Y-155623032D02*
X204395360Y-155718270D01*
X204300122Y-155813508D01*
X204204884Y-155718270D01*
X204300122Y-155623032D01*
X204300122Y-155813508D01*
X205157265Y-154003985D02*
X205252503Y-153908747D01*
X205442980Y-153813508D01*
X205919170Y-153813508D01*
X206109646Y-153908747D01*
X206204884Y-154003985D01*
X206300122Y-154194461D01*
X206300122Y-154384937D01*
X206204884Y-154670651D01*
X205062027Y-155813508D01*
X206300122Y-155813508D01*
G04 #@! TO.C,X3*
D14*
X167690476Y-161452380D02*
X168357142Y-162452380D01*
X168357142Y-161452380D02*
X167690476Y-162452380D01*
X168642857Y-161452380D02*
X169261904Y-161452380D01*
X168928571Y-161833333D01*
X169071428Y-161833333D01*
X169166666Y-161880952D01*
X169214285Y-161928571D01*
X169261904Y-162023809D01*
X169261904Y-162261904D01*
X169214285Y-162357142D01*
X169166666Y-162404761D01*
X169071428Y-162452380D01*
X168785714Y-162452380D01*
X168690476Y-162404761D01*
X168642857Y-162357142D01*
G04 #@! TO.C,X7*
X212528571Y-155842857D02*
X213328571Y-157042857D01*
X213328571Y-155842857D02*
X212528571Y-157042857D01*
X213671428Y-155842857D02*
X214471428Y-155842857D01*
X213957142Y-157042857D01*
G04 #@! TO.C,X2*
D13*
X161785714Y-151678571D02*
X162785714Y-153178571D01*
X162785714Y-151678571D02*
X161785714Y-153178571D01*
X163285714Y-151821428D02*
X163357142Y-151750000D01*
X163500000Y-151678571D01*
X163857142Y-151678571D01*
X164000000Y-151750000D01*
X164071428Y-151821428D01*
X164142857Y-151964285D01*
X164142857Y-152107142D01*
X164071428Y-152321428D01*
X163214285Y-153178571D01*
X164142857Y-153178571D01*
G04 #@! TO.C,X14*
D14*
X333457142Y-195842857D02*
X334257142Y-197042857D01*
X334257142Y-195842857D02*
X333457142Y-197042857D01*
X335342857Y-197042857D02*
X334657142Y-197042857D01*
X335000000Y-197042857D02*
X335000000Y-195842857D01*
X334885714Y-196014285D01*
X334771428Y-196128571D01*
X334657142Y-196185714D01*
X336371428Y-196242857D02*
X336371428Y-197042857D01*
X336085714Y-195785714D02*
X335800000Y-196642857D01*
X336542857Y-196642857D01*
G04 #@! TO.C,V2.1*
D15*
X110852380Y-193604761D02*
X111519047Y-195604761D01*
X112185714Y-193604761D01*
X112757142Y-193795238D02*
X112852380Y-193700000D01*
X113042857Y-193604761D01*
X113519047Y-193604761D01*
X113709523Y-193700000D01*
X113804761Y-193795238D01*
X113900000Y-193985714D01*
X113900000Y-194176190D01*
X113804761Y-194461904D01*
X112661904Y-195604761D01*
X113900000Y-195604761D01*
X114757142Y-195414285D02*
X114852380Y-195509523D01*
X114757142Y-195604761D01*
X114661904Y-195509523D01*
X114757142Y-195414285D01*
X114757142Y-195604761D01*
X116757142Y-195604761D02*
X115614285Y-195604761D01*
X116185714Y-195604761D02*
X116185714Y-193604761D01*
X115995238Y-193890476D01*
X115804761Y-194080952D01*
X115614285Y-194176190D01*
G04 #@! TO.C,D2*
D12*
X207983333Y-204816666D02*
X207983333Y-204116666D01*
X208150000Y-204116666D01*
X208250000Y-204150000D01*
X208316666Y-204216666D01*
X208350000Y-204283333D01*
X208383333Y-204416666D01*
X208383333Y-204516666D01*
X208350000Y-204650000D01*
X208316666Y-204716666D01*
X208250000Y-204783333D01*
X208150000Y-204816666D01*
X207983333Y-204816666D01*
X208650000Y-204183333D02*
X208683333Y-204150000D01*
X208750000Y-204116666D01*
X208916666Y-204116666D01*
X208983333Y-204150000D01*
X209016666Y-204183333D01*
X209050000Y-204250000D01*
X209050000Y-204316666D01*
X209016666Y-204416666D01*
X208616666Y-204816666D01*
X209050000Y-204816666D01*
G04 #@! TO.C,X6*
D14*
X167530476Y-201452380D02*
X168197142Y-202452380D01*
X168197142Y-201452380D02*
X167530476Y-202452380D01*
X169006666Y-201452380D02*
X168816190Y-201452380D01*
X168720952Y-201500000D01*
X168673333Y-201547619D01*
X168578095Y-201690476D01*
X168530476Y-201880952D01*
X168530476Y-202261904D01*
X168578095Y-202357142D01*
X168625714Y-202404761D01*
X168720952Y-202452380D01*
X168911428Y-202452380D01*
X169006666Y-202404761D01*
X169054285Y-202357142D01*
X169101904Y-202261904D01*
X169101904Y-202023809D01*
X169054285Y-201928571D01*
X169006666Y-201880952D01*
X168911428Y-201833333D01*
X168720952Y-201833333D01*
X168625714Y-201880952D01*
X168578095Y-201928571D01*
X168530476Y-202023809D01*
G04 #@! TO.C,V2.2*
D15*
X200395360Y-193813508D02*
X201062027Y-195813508D01*
X201728694Y-193813508D01*
X202300122Y-194003985D02*
X202395360Y-193908747D01*
X202585837Y-193813508D01*
X203062027Y-193813508D01*
X203252503Y-193908747D01*
X203347741Y-194003985D01*
X203442980Y-194194461D01*
X203442980Y-194384937D01*
X203347741Y-194670651D01*
X202204884Y-195813508D01*
X203442980Y-195813508D01*
X204300122Y-195623032D02*
X204395360Y-195718270D01*
X204300122Y-195813508D01*
X204204884Y-195718270D01*
X204300122Y-195623032D01*
X204300122Y-195813508D01*
X205157265Y-194003985D02*
X205252503Y-193908747D01*
X205442980Y-193813508D01*
X205919170Y-193813508D01*
X206109646Y-193908747D01*
X206204884Y-194003985D01*
X206300122Y-194194461D01*
X206300122Y-194384937D01*
X206204884Y-194670651D01*
X205062027Y-195813508D01*
X206300122Y-195813508D01*
G04 #@! TO.C,X14*
D14*
X212457142Y-195842857D02*
X213257142Y-197042857D01*
X213257142Y-195842857D02*
X212457142Y-197042857D01*
X214342857Y-197042857D02*
X213657142Y-197042857D01*
X214000000Y-197042857D02*
X214000000Y-195842857D01*
X213885714Y-196014285D01*
X213771428Y-196128571D01*
X213657142Y-196185714D01*
X215371428Y-196242857D02*
X215371428Y-197042857D01*
X215085714Y-195785714D02*
X214800000Y-196642857D01*
X215542857Y-196642857D01*
G04 #@! TO.C,X26*
X141697142Y-187342857D02*
X142497142Y-188542857D01*
X142497142Y-187342857D02*
X141697142Y-188542857D01*
X142897142Y-187457142D02*
X142954285Y-187400000D01*
X143068571Y-187342857D01*
X143354285Y-187342857D01*
X143468571Y-187400000D01*
X143525714Y-187457142D01*
X143582857Y-187571428D01*
X143582857Y-187685714D01*
X143525714Y-187857142D01*
X142840000Y-188542857D01*
X143582857Y-188542857D01*
X144611428Y-187342857D02*
X144382857Y-187342857D01*
X144268571Y-187400000D01*
X144211428Y-187457142D01*
X144097142Y-187628571D01*
X144040000Y-187857142D01*
X144040000Y-188314285D01*
X144097142Y-188428571D01*
X144154285Y-188485714D01*
X144268571Y-188542857D01*
X144497142Y-188542857D01*
X144611428Y-188485714D01*
X144668571Y-188428571D01*
X144725714Y-188314285D01*
X144725714Y-188028571D01*
X144668571Y-187914285D01*
X144611428Y-187857142D01*
X144497142Y-187800000D01*
X144268571Y-187800000D01*
X144154285Y-187857142D01*
X144097142Y-187914285D01*
X144040000Y-188028571D01*
G04 #@! TO.C,R4*
D12*
X226783333Y-99066666D02*
X226550000Y-98733333D01*
X226383333Y-99066666D02*
X226383333Y-98366666D01*
X226650000Y-98366666D01*
X226716666Y-98400000D01*
X226750000Y-98433333D01*
X226783333Y-98500000D01*
X226783333Y-98600000D01*
X226750000Y-98666666D01*
X226716666Y-98700000D01*
X226650000Y-98733333D01*
X226383333Y-98733333D01*
X227383333Y-98600000D02*
X227383333Y-99066666D01*
X227216666Y-98333333D02*
X227050000Y-98833333D01*
X227483333Y-98833333D01*
G04 #@! TO.C,R3*
X333833333Y-131866666D02*
X333600000Y-131533333D01*
X333433333Y-131866666D02*
X333433333Y-131166666D01*
X333700000Y-131166666D01*
X333766666Y-131200000D01*
X333800000Y-131233333D01*
X333833333Y-131300000D01*
X333833333Y-131400000D01*
X333800000Y-131466666D01*
X333766666Y-131500000D01*
X333700000Y-131533333D01*
X333433333Y-131533333D01*
X334066666Y-131166666D02*
X334500000Y-131166666D01*
X334266666Y-131433333D01*
X334366666Y-131433333D01*
X334433333Y-131466666D01*
X334466666Y-131500000D01*
X334500000Y-131566666D01*
X334500000Y-131733333D01*
X334466666Y-131800000D01*
X334433333Y-131833333D01*
X334366666Y-131866666D01*
X334166666Y-131866666D01*
X334100000Y-131833333D01*
X334066666Y-131800000D01*
G04 #@! TO.C,R2*
X221833333Y-98966666D02*
X221600000Y-98633333D01*
X221433333Y-98966666D02*
X221433333Y-98266666D01*
X221700000Y-98266666D01*
X221766666Y-98300000D01*
X221800000Y-98333333D01*
X221833333Y-98400000D01*
X221833333Y-98500000D01*
X221800000Y-98566666D01*
X221766666Y-98600000D01*
X221700000Y-98633333D01*
X221433333Y-98633333D01*
X222100000Y-98333333D02*
X222133333Y-98300000D01*
X222200000Y-98266666D01*
X222366666Y-98266666D01*
X222433333Y-98300000D01*
X222466666Y-98333333D01*
X222500000Y-98400000D01*
X222500000Y-98466666D01*
X222466666Y-98566666D01*
X222066666Y-98966666D01*
X222500000Y-98966666D01*
G04 #@! TO.C,D1*
X225483333Y-106066666D02*
X225483333Y-105366666D01*
X225650000Y-105366666D01*
X225750000Y-105400000D01*
X225816666Y-105466666D01*
X225850000Y-105533333D01*
X225883333Y-105666666D01*
X225883333Y-105766666D01*
X225850000Y-105900000D01*
X225816666Y-105966666D01*
X225750000Y-106033333D01*
X225650000Y-106066666D01*
X225483333Y-106066666D01*
X226550000Y-106066666D02*
X226150000Y-106066666D01*
X226350000Y-106066666D02*
X226350000Y-105366666D01*
X226283333Y-105466666D01*
X226216666Y-105533333D01*
X226150000Y-105566666D01*
G04 #@! TO.C,X4*
D13*
X268285714Y-118678571D02*
X269285714Y-120178571D01*
X269285714Y-118678571D02*
X268285714Y-120178571D01*
X270500000Y-119178571D02*
X270500000Y-120178571D01*
X270142857Y-118607142D02*
X269785714Y-119678571D01*
X270714285Y-119678571D01*
G04 #@! TO.C,X5*
X282785714Y-112178571D02*
X283785714Y-113678571D01*
X283785714Y-112178571D02*
X282785714Y-113678571D01*
X285071428Y-112178571D02*
X284357142Y-112178571D01*
X284285714Y-112892857D01*
X284357142Y-112821428D01*
X284500000Y-112750000D01*
X284857142Y-112750000D01*
X285000000Y-112821428D01*
X285071428Y-112892857D01*
X285142857Y-113035714D01*
X285142857Y-113392857D01*
X285071428Y-113535714D01*
X285000000Y-113607142D01*
X284857142Y-113678571D01*
X284500000Y-113678571D01*
X284357142Y-113607142D01*
X284285714Y-113535714D01*
G04 #@! TO.C,X17*
D14*
X218857142Y-112842857D02*
X219657142Y-114042857D01*
X219657142Y-112842857D02*
X218857142Y-114042857D01*
X220742857Y-114042857D02*
X220057142Y-114042857D01*
X220400000Y-114042857D02*
X220400000Y-112842857D01*
X220285714Y-113014285D01*
X220171428Y-113128571D01*
X220057142Y-113185714D01*
X221142857Y-112842857D02*
X221942857Y-112842857D01*
X221428571Y-114042857D01*
G04 #@! TO.C,R1*
D12*
X329383333Y-132016666D02*
X329150000Y-131683333D01*
X328983333Y-132016666D02*
X328983333Y-131316666D01*
X329250000Y-131316666D01*
X329316666Y-131350000D01*
X329350000Y-131383333D01*
X329383333Y-131450000D01*
X329383333Y-131550000D01*
X329350000Y-131616666D01*
X329316666Y-131650000D01*
X329250000Y-131683333D01*
X328983333Y-131683333D01*
X330050000Y-132016666D02*
X329650000Y-132016666D01*
X329850000Y-132016666D02*
X329850000Y-131316666D01*
X329783333Y-131416666D01*
X329716666Y-131483333D01*
X329650000Y-131516666D01*
G04 #@! TO.C,R9*
X226783333Y-59066666D02*
X226550000Y-58733333D01*
X226383333Y-59066666D02*
X226383333Y-58366666D01*
X226650000Y-58366666D01*
X226716666Y-58400000D01*
X226750000Y-58433333D01*
X226783333Y-58500000D01*
X226783333Y-58600000D01*
X226750000Y-58666666D01*
X226716666Y-58700000D01*
X226650000Y-58733333D01*
X226383333Y-58733333D01*
X227116666Y-59066666D02*
X227250000Y-59066666D01*
X227316666Y-59033333D01*
X227350000Y-59000000D01*
X227416666Y-58900000D01*
X227450000Y-58766666D01*
X227450000Y-58500000D01*
X227416666Y-58433333D01*
X227383333Y-58400000D01*
X227316666Y-58366666D01*
X227183333Y-58366666D01*
X227116666Y-58400000D01*
X227083333Y-58433333D01*
X227050000Y-58500000D01*
X227050000Y-58666666D01*
X227083333Y-58733333D01*
X227116666Y-58766666D01*
X227183333Y-58800000D01*
X227316666Y-58800000D01*
X227383333Y-58766666D01*
X227416666Y-58733333D01*
X227450000Y-58666666D01*
G04 #@! TO.C,R7*
X221833333Y-58966666D02*
X221600000Y-58633333D01*
X221433333Y-58966666D02*
X221433333Y-58266666D01*
X221700000Y-58266666D01*
X221766666Y-58300000D01*
X221800000Y-58333333D01*
X221833333Y-58400000D01*
X221833333Y-58500000D01*
X221800000Y-58566666D01*
X221766666Y-58600000D01*
X221700000Y-58633333D01*
X221433333Y-58633333D01*
X222066666Y-58266666D02*
X222533333Y-58266666D01*
X222233333Y-58966666D01*
G04 #@! TO.C,R6*
X329383333Y-92016666D02*
X329150000Y-91683333D01*
X328983333Y-92016666D02*
X328983333Y-91316666D01*
X329250000Y-91316666D01*
X329316666Y-91350000D01*
X329350000Y-91383333D01*
X329383333Y-91450000D01*
X329383333Y-91550000D01*
X329350000Y-91616666D01*
X329316666Y-91650000D01*
X329250000Y-91683333D01*
X328983333Y-91683333D01*
X329983333Y-91316666D02*
X329850000Y-91316666D01*
X329783333Y-91350000D01*
X329750000Y-91383333D01*
X329683333Y-91483333D01*
X329650000Y-91616666D01*
X329650000Y-91883333D01*
X329683333Y-91950000D01*
X329716666Y-91983333D01*
X329783333Y-92016666D01*
X329916666Y-92016666D01*
X329983333Y-91983333D01*
X330016666Y-91950000D01*
X330050000Y-91883333D01*
X330050000Y-91716666D01*
X330016666Y-91650000D01*
X329983333Y-91616666D01*
X329916666Y-91583333D01*
X329783333Y-91583333D01*
X329716666Y-91616666D01*
X329683333Y-91650000D01*
X329650000Y-91716666D01*
G04 #@! TO.C,R8*
X333833333Y-91866666D02*
X333600000Y-91533333D01*
X333433333Y-91866666D02*
X333433333Y-91166666D01*
X333700000Y-91166666D01*
X333766666Y-91200000D01*
X333800000Y-91233333D01*
X333833333Y-91300000D01*
X333833333Y-91400000D01*
X333800000Y-91466666D01*
X333766666Y-91500000D01*
X333700000Y-91533333D01*
X333433333Y-91533333D01*
X334233333Y-91466666D02*
X334166666Y-91433333D01*
X334133333Y-91400000D01*
X334100000Y-91333333D01*
X334100000Y-91300000D01*
X334133333Y-91233333D01*
X334166666Y-91200000D01*
X334233333Y-91166666D01*
X334366666Y-91166666D01*
X334433333Y-91200000D01*
X334466666Y-91233333D01*
X334500000Y-91300000D01*
X334500000Y-91333333D01*
X334466666Y-91400000D01*
X334433333Y-91433333D01*
X334366666Y-91466666D01*
X334233333Y-91466666D01*
X334166666Y-91500000D01*
X334133333Y-91533333D01*
X334100000Y-91600000D01*
X334100000Y-91733333D01*
X334133333Y-91800000D01*
X334166666Y-91833333D01*
X334233333Y-91866666D01*
X334366666Y-91866666D01*
X334433333Y-91833333D01*
X334466666Y-91800000D01*
X334500000Y-91733333D01*
X334500000Y-91600000D01*
X334466666Y-91533333D01*
X334433333Y-91500000D01*
X334366666Y-91466666D01*
G04 #@! TO.C,X12*
D14*
X262697142Y-66842857D02*
X263497142Y-68042857D01*
X263497142Y-66842857D02*
X262697142Y-68042857D01*
X264582857Y-68042857D02*
X263897142Y-68042857D01*
X264240000Y-68042857D02*
X264240000Y-66842857D01*
X264125714Y-67014285D01*
X264011428Y-67128571D01*
X263897142Y-67185714D01*
X265040000Y-66957142D02*
X265097142Y-66900000D01*
X265211428Y-66842857D01*
X265497142Y-66842857D01*
X265611428Y-66900000D01*
X265668571Y-66957142D01*
X265725714Y-67071428D01*
X265725714Y-67185714D01*
X265668571Y-67357142D01*
X264982857Y-68042857D01*
X265725714Y-68042857D01*
G04 #@! TO.C,V1.1*
D15*
X231852380Y-73604761D02*
X232519047Y-75604761D01*
X233185714Y-73604761D01*
X234900000Y-75604761D02*
X233757142Y-75604761D01*
X234328571Y-75604761D02*
X234328571Y-73604761D01*
X234138095Y-73890476D01*
X233947619Y-74080952D01*
X233757142Y-74176190D01*
X235757142Y-75414285D02*
X235852380Y-75509523D01*
X235757142Y-75604761D01*
X235661904Y-75509523D01*
X235757142Y-75414285D01*
X235757142Y-75604761D01*
X237757142Y-75604761D02*
X236614285Y-75604761D01*
X237185714Y-75604761D02*
X237185714Y-73604761D01*
X236995238Y-73890476D01*
X236804761Y-74080952D01*
X236614285Y-74176190D01*
G04 #@! TO.C,X1*
D13*
X268285714Y-78678571D02*
X269285714Y-80178571D01*
X269285714Y-78678571D02*
X268285714Y-80178571D01*
X270642857Y-80178571D02*
X269785714Y-80178571D01*
X270214285Y-80178571D02*
X270214285Y-78678571D01*
X270071428Y-78892857D01*
X269928571Y-79035714D01*
X269785714Y-79107142D01*
G04 #@! TO.C,X9*
D14*
X219428571Y-72842857D02*
X220228571Y-74042857D01*
X220228571Y-72842857D02*
X219428571Y-74042857D01*
X220742857Y-74042857D02*
X220971428Y-74042857D01*
X221085714Y-73985714D01*
X221142857Y-73928571D01*
X221257142Y-73757142D01*
X221314285Y-73528571D01*
X221314285Y-73071428D01*
X221257142Y-72957142D01*
X221200000Y-72900000D01*
X221085714Y-72842857D01*
X220857142Y-72842857D01*
X220742857Y-72900000D01*
X220685714Y-72957142D01*
X220628571Y-73071428D01*
X220628571Y-73357142D01*
X220685714Y-73471428D01*
X220742857Y-73528571D01*
X220857142Y-73585714D01*
X221085714Y-73585714D01*
X221200000Y-73528571D01*
X221257142Y-73471428D01*
X221314285Y-73357142D01*
G04 #@! TO.C,D3*
D12*
X225483333Y-66066666D02*
X225483333Y-65366666D01*
X225650000Y-65366666D01*
X225750000Y-65400000D01*
X225816666Y-65466666D01*
X225850000Y-65533333D01*
X225883333Y-65666666D01*
X225883333Y-65766666D01*
X225850000Y-65900000D01*
X225816666Y-65966666D01*
X225750000Y-66033333D01*
X225650000Y-66066666D01*
X225483333Y-66066666D01*
X226116666Y-65366666D02*
X226550000Y-65366666D01*
X226316666Y-65633333D01*
X226416666Y-65633333D01*
X226483333Y-65666666D01*
X226516666Y-65700000D01*
X226550000Y-65766666D01*
X226550000Y-65933333D01*
X226516666Y-66000000D01*
X226483333Y-66033333D01*
X226416666Y-66066666D01*
X226216666Y-66066666D01*
X226150000Y-66033333D01*
X226116666Y-66000000D01*
G04 #@! TO.C,D4*
X328983333Y-84816666D02*
X328983333Y-84116666D01*
X329150000Y-84116666D01*
X329250000Y-84150000D01*
X329316666Y-84216666D01*
X329350000Y-84283333D01*
X329383333Y-84416666D01*
X329383333Y-84516666D01*
X329350000Y-84650000D01*
X329316666Y-84716666D01*
X329250000Y-84783333D01*
X329150000Y-84816666D01*
X328983333Y-84816666D01*
X329983333Y-84350000D02*
X329983333Y-84816666D01*
X329816666Y-84083333D02*
X329650000Y-84583333D01*
X330083333Y-84583333D01*
G04 #@! TO.C,V1.2*
D15*
X321395360Y-73813508D02*
X322062027Y-75813508D01*
X322728694Y-73813508D01*
X324442980Y-75813508D02*
X323300122Y-75813508D01*
X323871551Y-75813508D02*
X323871551Y-73813508D01*
X323681075Y-74099223D01*
X323490599Y-74289699D01*
X323300122Y-74384937D01*
X325300122Y-75623032D02*
X325395360Y-75718270D01*
X325300122Y-75813508D01*
X325204884Y-75718270D01*
X325300122Y-75623032D01*
X325300122Y-75813508D01*
X326157265Y-74003985D02*
X326252503Y-73908747D01*
X326442980Y-73813508D01*
X326919170Y-73813508D01*
X327109646Y-73908747D01*
X327204884Y-74003985D01*
X327300122Y-74194461D01*
X327300122Y-74384937D01*
X327204884Y-74670651D01*
X326062027Y-75813508D01*
X327300122Y-75813508D01*
G04 #@! TO.C,X3*
D14*
X288690476Y-81452380D02*
X289357142Y-82452380D01*
X289357142Y-81452380D02*
X288690476Y-82452380D01*
X289642857Y-81452380D02*
X290261904Y-81452380D01*
X289928571Y-81833333D01*
X290071428Y-81833333D01*
X290166666Y-81880952D01*
X290214285Y-81928571D01*
X290261904Y-82023809D01*
X290261904Y-82261904D01*
X290214285Y-82357142D01*
X290166666Y-82404761D01*
X290071428Y-82452380D01*
X289785714Y-82452380D01*
X289690476Y-82404761D01*
X289642857Y-82357142D01*
G04 #@! TO.C,X7*
X333528571Y-75842857D02*
X334328571Y-77042857D01*
X334328571Y-75842857D02*
X333528571Y-77042857D01*
X334671428Y-75842857D02*
X335471428Y-75842857D01*
X334957142Y-77042857D01*
G04 #@! TO.C,X2*
D13*
X282785714Y-71678571D02*
X283785714Y-73178571D01*
X283785714Y-71678571D02*
X282785714Y-73178571D01*
X284285714Y-71821428D02*
X284357142Y-71750000D01*
X284500000Y-71678571D01*
X284857142Y-71678571D01*
X285000000Y-71750000D01*
X285071428Y-71821428D01*
X285142857Y-71964285D01*
X285142857Y-72107142D01*
X285071428Y-72321428D01*
X284214285Y-73178571D01*
X285142857Y-73178571D01*
G04 #@! TO.C,V2.1*
D15*
X231852380Y-113604761D02*
X232519047Y-115604761D01*
X233185714Y-113604761D01*
X233757142Y-113795238D02*
X233852380Y-113700000D01*
X234042857Y-113604761D01*
X234519047Y-113604761D01*
X234709523Y-113700000D01*
X234804761Y-113795238D01*
X234900000Y-113985714D01*
X234900000Y-114176190D01*
X234804761Y-114461904D01*
X233661904Y-115604761D01*
X234900000Y-115604761D01*
X235757142Y-115414285D02*
X235852380Y-115509523D01*
X235757142Y-115604761D01*
X235661904Y-115509523D01*
X235757142Y-115414285D01*
X235757142Y-115604761D01*
X237757142Y-115604761D02*
X236614285Y-115604761D01*
X237185714Y-115604761D02*
X237185714Y-113604761D01*
X236995238Y-113890476D01*
X236804761Y-114080952D01*
X236614285Y-114176190D01*
G04 #@! TO.C,D2*
D12*
X328983333Y-124816666D02*
X328983333Y-124116666D01*
X329150000Y-124116666D01*
X329250000Y-124150000D01*
X329316666Y-124216666D01*
X329350000Y-124283333D01*
X329383333Y-124416666D01*
X329383333Y-124516666D01*
X329350000Y-124650000D01*
X329316666Y-124716666D01*
X329250000Y-124783333D01*
X329150000Y-124816666D01*
X328983333Y-124816666D01*
X329650000Y-124183333D02*
X329683333Y-124150000D01*
X329750000Y-124116666D01*
X329916666Y-124116666D01*
X329983333Y-124150000D01*
X330016666Y-124183333D01*
X330050000Y-124250000D01*
X330050000Y-124316666D01*
X330016666Y-124416666D01*
X329616666Y-124816666D01*
X330050000Y-124816666D01*
G04 #@! TO.C,X6*
D14*
X288530476Y-121452380D02*
X289197142Y-122452380D01*
X289197142Y-121452380D02*
X288530476Y-122452380D01*
X290006666Y-121452380D02*
X289816190Y-121452380D01*
X289720952Y-121500000D01*
X289673333Y-121547619D01*
X289578095Y-121690476D01*
X289530476Y-121880952D01*
X289530476Y-122261904D01*
X289578095Y-122357142D01*
X289625714Y-122404761D01*
X289720952Y-122452380D01*
X289911428Y-122452380D01*
X290006666Y-122404761D01*
X290054285Y-122357142D01*
X290101904Y-122261904D01*
X290101904Y-122023809D01*
X290054285Y-121928571D01*
X290006666Y-121880952D01*
X289911428Y-121833333D01*
X289720952Y-121833333D01*
X289625714Y-121880952D01*
X289578095Y-121928571D01*
X289530476Y-122023809D01*
G04 #@! TO.C,V2.2*
D15*
X321395360Y-113813508D02*
X322062027Y-115813508D01*
X322728694Y-113813508D01*
X323300122Y-114003985D02*
X323395360Y-113908747D01*
X323585837Y-113813508D01*
X324062027Y-113813508D01*
X324252503Y-113908747D01*
X324347741Y-114003985D01*
X324442980Y-114194461D01*
X324442980Y-114384937D01*
X324347741Y-114670651D01*
X323204884Y-115813508D01*
X324442980Y-115813508D01*
X325300122Y-115623032D02*
X325395360Y-115718270D01*
X325300122Y-115813508D01*
X325204884Y-115718270D01*
X325300122Y-115623032D01*
X325300122Y-115813508D01*
X326157265Y-114003985D02*
X326252503Y-113908747D01*
X326442980Y-113813508D01*
X326919170Y-113813508D01*
X327109646Y-113908747D01*
X327204884Y-114003985D01*
X327300122Y-114194461D01*
X327300122Y-114384937D01*
X327204884Y-114670651D01*
X326062027Y-115813508D01*
X327300122Y-115813508D01*
G04 #@! TO.C,X14*
D14*
X333457142Y-115842857D02*
X334257142Y-117042857D01*
X334257142Y-115842857D02*
X333457142Y-117042857D01*
X335342857Y-117042857D02*
X334657142Y-117042857D01*
X335000000Y-117042857D02*
X335000000Y-115842857D01*
X334885714Y-116014285D01*
X334771428Y-116128571D01*
X334657142Y-116185714D01*
X336371428Y-116242857D02*
X336371428Y-117042857D01*
X336085714Y-115785714D02*
X335800000Y-116642857D01*
X336542857Y-116642857D01*
G04 #@! TO.C,X26*
X262697142Y-107342857D02*
X263497142Y-108542857D01*
X263497142Y-107342857D02*
X262697142Y-108542857D01*
X263897142Y-107457142D02*
X263954285Y-107400000D01*
X264068571Y-107342857D01*
X264354285Y-107342857D01*
X264468571Y-107400000D01*
X264525714Y-107457142D01*
X264582857Y-107571428D01*
X264582857Y-107685714D01*
X264525714Y-107857142D01*
X263840000Y-108542857D01*
X264582857Y-108542857D01*
X265611428Y-107342857D02*
X265382857Y-107342857D01*
X265268571Y-107400000D01*
X265211428Y-107457142D01*
X265097142Y-107628571D01*
X265040000Y-107857142D01*
X265040000Y-108314285D01*
X265097142Y-108428571D01*
X265154285Y-108485714D01*
X265268571Y-108542857D01*
X265497142Y-108542857D01*
X265611428Y-108485714D01*
X265668571Y-108428571D01*
X265725714Y-108314285D01*
X265725714Y-108028571D01*
X265668571Y-107914285D01*
X265611428Y-107857142D01*
X265497142Y-107800000D01*
X265268571Y-107800000D01*
X265154285Y-107857142D01*
X265097142Y-107914285D01*
X265040000Y-108028571D01*
G04 #@! TO.C,D2*
D12*
X207983333Y-124816666D02*
X207983333Y-124116666D01*
X208150000Y-124116666D01*
X208250000Y-124150000D01*
X208316666Y-124216666D01*
X208350000Y-124283333D01*
X208383333Y-124416666D01*
X208383333Y-124516666D01*
X208350000Y-124650000D01*
X208316666Y-124716666D01*
X208250000Y-124783333D01*
X208150000Y-124816666D01*
X207983333Y-124816666D01*
X208650000Y-124183333D02*
X208683333Y-124150000D01*
X208750000Y-124116666D01*
X208916666Y-124116666D01*
X208983333Y-124150000D01*
X209016666Y-124183333D01*
X209050000Y-124250000D01*
X209050000Y-124316666D01*
X209016666Y-124416666D01*
X208616666Y-124816666D01*
X209050000Y-124816666D01*
G04 #@! TO.C,X14*
D14*
X212457142Y-115842857D02*
X213257142Y-117042857D01*
X213257142Y-115842857D02*
X212457142Y-117042857D01*
X214342857Y-117042857D02*
X213657142Y-117042857D01*
X214000000Y-117042857D02*
X214000000Y-115842857D01*
X213885714Y-116014285D01*
X213771428Y-116128571D01*
X213657142Y-116185714D01*
X215371428Y-116242857D02*
X215371428Y-117042857D01*
X215085714Y-115785714D02*
X214800000Y-116642857D01*
X215542857Y-116642857D01*
G04 #@! TO.C,X26*
X141697142Y-107342857D02*
X142497142Y-108542857D01*
X142497142Y-107342857D02*
X141697142Y-108542857D01*
X142897142Y-107457142D02*
X142954285Y-107400000D01*
X143068571Y-107342857D01*
X143354285Y-107342857D01*
X143468571Y-107400000D01*
X143525714Y-107457142D01*
X143582857Y-107571428D01*
X143582857Y-107685714D01*
X143525714Y-107857142D01*
X142840000Y-108542857D01*
X143582857Y-108542857D01*
X144611428Y-107342857D02*
X144382857Y-107342857D01*
X144268571Y-107400000D01*
X144211428Y-107457142D01*
X144097142Y-107628571D01*
X144040000Y-107857142D01*
X144040000Y-108314285D01*
X144097142Y-108428571D01*
X144154285Y-108485714D01*
X144268571Y-108542857D01*
X144497142Y-108542857D01*
X144611428Y-108485714D01*
X144668571Y-108428571D01*
X144725714Y-108314285D01*
X144725714Y-108028571D01*
X144668571Y-107914285D01*
X144611428Y-107857142D01*
X144497142Y-107800000D01*
X144268571Y-107800000D01*
X144154285Y-107857142D01*
X144097142Y-107914285D01*
X144040000Y-108028571D01*
G04 #@! TO.C,V2.1*
D15*
X110852380Y-113604761D02*
X111519047Y-115604761D01*
X112185714Y-113604761D01*
X112757142Y-113795238D02*
X112852380Y-113700000D01*
X113042857Y-113604761D01*
X113519047Y-113604761D01*
X113709523Y-113700000D01*
X113804761Y-113795238D01*
X113900000Y-113985714D01*
X113900000Y-114176190D01*
X113804761Y-114461904D01*
X112661904Y-115604761D01*
X113900000Y-115604761D01*
X114757142Y-115414285D02*
X114852380Y-115509523D01*
X114757142Y-115604761D01*
X114661904Y-115509523D01*
X114757142Y-115414285D01*
X114757142Y-115604761D01*
X116757142Y-115604761D02*
X115614285Y-115604761D01*
X116185714Y-115604761D02*
X116185714Y-113604761D01*
X115995238Y-113890476D01*
X115804761Y-114080952D01*
X115614285Y-114176190D01*
G04 #@! TO.C,V2.2*
X200395360Y-113813508D02*
X201062027Y-115813508D01*
X201728694Y-113813508D01*
X202300122Y-114003985D02*
X202395360Y-113908747D01*
X202585837Y-113813508D01*
X203062027Y-113813508D01*
X203252503Y-113908747D01*
X203347741Y-114003985D01*
X203442980Y-114194461D01*
X203442980Y-114384937D01*
X203347741Y-114670651D01*
X202204884Y-115813508D01*
X203442980Y-115813508D01*
X204300122Y-115623032D02*
X204395360Y-115718270D01*
X204300122Y-115813508D01*
X204204884Y-115718270D01*
X204300122Y-115623032D01*
X204300122Y-115813508D01*
X205157265Y-114003985D02*
X205252503Y-113908747D01*
X205442980Y-113813508D01*
X205919170Y-113813508D01*
X206109646Y-113908747D01*
X206204884Y-114003985D01*
X206300122Y-114194461D01*
X206300122Y-114384937D01*
X206204884Y-114670651D01*
X205062027Y-115813508D01*
X206300122Y-115813508D01*
G04 #@! TO.C,X6*
D14*
X167530476Y-121452380D02*
X168197142Y-122452380D01*
X168197142Y-121452380D02*
X167530476Y-122452380D01*
X169006666Y-121452380D02*
X168816190Y-121452380D01*
X168720952Y-121500000D01*
X168673333Y-121547619D01*
X168578095Y-121690476D01*
X168530476Y-121880952D01*
X168530476Y-122261904D01*
X168578095Y-122357142D01*
X168625714Y-122404761D01*
X168720952Y-122452380D01*
X168911428Y-122452380D01*
X169006666Y-122404761D01*
X169054285Y-122357142D01*
X169101904Y-122261904D01*
X169101904Y-122023809D01*
X169054285Y-121928571D01*
X169006666Y-121880952D01*
X168911428Y-121833333D01*
X168720952Y-121833333D01*
X168625714Y-121880952D01*
X168578095Y-121928571D01*
X168530476Y-122023809D01*
G04 #@! TO.C,X17*
X97857142Y-112842857D02*
X98657142Y-114042857D01*
X98657142Y-112842857D02*
X97857142Y-114042857D01*
X99742857Y-114042857D02*
X99057142Y-114042857D01*
X99400000Y-114042857D02*
X99400000Y-112842857D01*
X99285714Y-113014285D01*
X99171428Y-113128571D01*
X99057142Y-113185714D01*
X100142857Y-112842857D02*
X100942857Y-112842857D01*
X100428571Y-114042857D01*
G04 #@! TO.C,R1*
D12*
X208383333Y-132016666D02*
X208150000Y-131683333D01*
X207983333Y-132016666D02*
X207983333Y-131316666D01*
X208250000Y-131316666D01*
X208316666Y-131350000D01*
X208350000Y-131383333D01*
X208383333Y-131450000D01*
X208383333Y-131550000D01*
X208350000Y-131616666D01*
X208316666Y-131650000D01*
X208250000Y-131683333D01*
X207983333Y-131683333D01*
X209050000Y-132016666D02*
X208650000Y-132016666D01*
X208850000Y-132016666D02*
X208850000Y-131316666D01*
X208783333Y-131416666D01*
X208716666Y-131483333D01*
X208650000Y-131516666D01*
G04 #@! TO.C,X5*
D13*
X161785714Y-112178571D02*
X162785714Y-113678571D01*
X162785714Y-112178571D02*
X161785714Y-113678571D01*
X164071428Y-112178571D02*
X163357142Y-112178571D01*
X163285714Y-112892857D01*
X163357142Y-112821428D01*
X163500000Y-112750000D01*
X163857142Y-112750000D01*
X164000000Y-112821428D01*
X164071428Y-112892857D01*
X164142857Y-113035714D01*
X164142857Y-113392857D01*
X164071428Y-113535714D01*
X164000000Y-113607142D01*
X163857142Y-113678571D01*
X163500000Y-113678571D01*
X163357142Y-113607142D01*
X163285714Y-113535714D01*
G04 #@! TO.C,X4*
X147285714Y-118678571D02*
X148285714Y-120178571D01*
X148285714Y-118678571D02*
X147285714Y-120178571D01*
X149500000Y-119178571D02*
X149500000Y-120178571D01*
X149142857Y-118607142D02*
X148785714Y-119678571D01*
X149714285Y-119678571D01*
G04 #@! TO.C,R4*
D12*
X105783333Y-99066666D02*
X105550000Y-98733333D01*
X105383333Y-99066666D02*
X105383333Y-98366666D01*
X105650000Y-98366666D01*
X105716666Y-98400000D01*
X105750000Y-98433333D01*
X105783333Y-98500000D01*
X105783333Y-98600000D01*
X105750000Y-98666666D01*
X105716666Y-98700000D01*
X105650000Y-98733333D01*
X105383333Y-98733333D01*
X106383333Y-98600000D02*
X106383333Y-99066666D01*
X106216666Y-98333333D02*
X106050000Y-98833333D01*
X106483333Y-98833333D01*
G04 #@! TO.C,D1*
X104483333Y-106066666D02*
X104483333Y-105366666D01*
X104650000Y-105366666D01*
X104750000Y-105400000D01*
X104816666Y-105466666D01*
X104850000Y-105533333D01*
X104883333Y-105666666D01*
X104883333Y-105766666D01*
X104850000Y-105900000D01*
X104816666Y-105966666D01*
X104750000Y-106033333D01*
X104650000Y-106066666D01*
X104483333Y-106066666D01*
X105550000Y-106066666D02*
X105150000Y-106066666D01*
X105350000Y-106066666D02*
X105350000Y-105366666D01*
X105283333Y-105466666D01*
X105216666Y-105533333D01*
X105150000Y-105566666D01*
G04 #@! TO.C,R2*
X100833333Y-98966666D02*
X100600000Y-98633333D01*
X100433333Y-98966666D02*
X100433333Y-98266666D01*
X100700000Y-98266666D01*
X100766666Y-98300000D01*
X100800000Y-98333333D01*
X100833333Y-98400000D01*
X100833333Y-98500000D01*
X100800000Y-98566666D01*
X100766666Y-98600000D01*
X100700000Y-98633333D01*
X100433333Y-98633333D01*
X101100000Y-98333333D02*
X101133333Y-98300000D01*
X101200000Y-98266666D01*
X101366666Y-98266666D01*
X101433333Y-98300000D01*
X101466666Y-98333333D01*
X101500000Y-98400000D01*
X101500000Y-98466666D01*
X101466666Y-98566666D01*
X101066666Y-98966666D01*
X101500000Y-98966666D01*
G04 #@! TO.C,R3*
X212833333Y-131866666D02*
X212600000Y-131533333D01*
X212433333Y-131866666D02*
X212433333Y-131166666D01*
X212700000Y-131166666D01*
X212766666Y-131200000D01*
X212800000Y-131233333D01*
X212833333Y-131300000D01*
X212833333Y-131400000D01*
X212800000Y-131466666D01*
X212766666Y-131500000D01*
X212700000Y-131533333D01*
X212433333Y-131533333D01*
X213066666Y-131166666D02*
X213500000Y-131166666D01*
X213266666Y-131433333D01*
X213366666Y-131433333D01*
X213433333Y-131466666D01*
X213466666Y-131500000D01*
X213500000Y-131566666D01*
X213500000Y-131733333D01*
X213466666Y-131800000D01*
X213433333Y-131833333D01*
X213366666Y-131866666D01*
X213166666Y-131866666D01*
X213100000Y-131833333D01*
X213066666Y-131800000D01*
G04 #@! TO.C,X3*
D14*
X167690476Y-81452380D02*
X168357142Y-82452380D01*
X168357142Y-81452380D02*
X167690476Y-82452380D01*
X168642857Y-81452380D02*
X169261904Y-81452380D01*
X168928571Y-81833333D01*
X169071428Y-81833333D01*
X169166666Y-81880952D01*
X169214285Y-81928571D01*
X169261904Y-82023809D01*
X169261904Y-82261904D01*
X169214285Y-82357142D01*
X169166666Y-82404761D01*
X169071428Y-82452380D01*
X168785714Y-82452380D01*
X168690476Y-82404761D01*
X168642857Y-82357142D01*
G04 #@! TO.C,V1.2*
D15*
X200395360Y-73813508D02*
X201062027Y-75813508D01*
X201728694Y-73813508D01*
X203442980Y-75813508D02*
X202300122Y-75813508D01*
X202871551Y-75813508D02*
X202871551Y-73813508D01*
X202681075Y-74099223D01*
X202490599Y-74289699D01*
X202300122Y-74384937D01*
X204300122Y-75623032D02*
X204395360Y-75718270D01*
X204300122Y-75813508D01*
X204204884Y-75718270D01*
X204300122Y-75623032D01*
X204300122Y-75813508D01*
X205157265Y-74003985D02*
X205252503Y-73908747D01*
X205442980Y-73813508D01*
X205919170Y-73813508D01*
X206109646Y-73908747D01*
X206204884Y-74003985D01*
X206300122Y-74194461D01*
X206300122Y-74384937D01*
X206204884Y-74670651D01*
X205062027Y-75813508D01*
X206300122Y-75813508D01*
G04 #@! TO.C,V1.1*
X110852380Y-73604761D02*
X111519047Y-75604761D01*
X112185714Y-73604761D01*
X113900000Y-75604761D02*
X112757142Y-75604761D01*
X113328571Y-75604761D02*
X113328571Y-73604761D01*
X113138095Y-73890476D01*
X112947619Y-74080952D01*
X112757142Y-74176190D01*
X114757142Y-75414285D02*
X114852380Y-75509523D01*
X114757142Y-75604761D01*
X114661904Y-75509523D01*
X114757142Y-75414285D01*
X114757142Y-75604761D01*
X116757142Y-75604761D02*
X115614285Y-75604761D01*
X116185714Y-75604761D02*
X116185714Y-73604761D01*
X115995238Y-73890476D01*
X115804761Y-74080952D01*
X115614285Y-74176190D01*
G04 #@! TO.C,D4*
D12*
X207983333Y-84816666D02*
X207983333Y-84116666D01*
X208150000Y-84116666D01*
X208250000Y-84150000D01*
X208316666Y-84216666D01*
X208350000Y-84283333D01*
X208383333Y-84416666D01*
X208383333Y-84516666D01*
X208350000Y-84650000D01*
X208316666Y-84716666D01*
X208250000Y-84783333D01*
X208150000Y-84816666D01*
X207983333Y-84816666D01*
X208983333Y-84350000D02*
X208983333Y-84816666D01*
X208816666Y-84083333D02*
X208650000Y-84583333D01*
X209083333Y-84583333D01*
G04 #@! TO.C,X7*
D14*
X212528571Y-75842857D02*
X213328571Y-77042857D01*
X213328571Y-75842857D02*
X212528571Y-77042857D01*
X213671428Y-75842857D02*
X214471428Y-75842857D01*
X213957142Y-77042857D01*
G04 #@! TO.C,X12*
X141697142Y-66842857D02*
X142497142Y-68042857D01*
X142497142Y-66842857D02*
X141697142Y-68042857D01*
X143582857Y-68042857D02*
X142897142Y-68042857D01*
X143240000Y-68042857D02*
X143240000Y-66842857D01*
X143125714Y-67014285D01*
X143011428Y-67128571D01*
X142897142Y-67185714D01*
X144040000Y-66957142D02*
X144097142Y-66900000D01*
X144211428Y-66842857D01*
X144497142Y-66842857D01*
X144611428Y-66900000D01*
X144668571Y-66957142D01*
X144725714Y-67071428D01*
X144725714Y-67185714D01*
X144668571Y-67357142D01*
X143982857Y-68042857D01*
X144725714Y-68042857D01*
G04 #@! TO.C,D3*
D12*
X104483333Y-66066666D02*
X104483333Y-65366666D01*
X104650000Y-65366666D01*
X104750000Y-65400000D01*
X104816666Y-65466666D01*
X104850000Y-65533333D01*
X104883333Y-65666666D01*
X104883333Y-65766666D01*
X104850000Y-65900000D01*
X104816666Y-65966666D01*
X104750000Y-66033333D01*
X104650000Y-66066666D01*
X104483333Y-66066666D01*
X105116666Y-65366666D02*
X105550000Y-65366666D01*
X105316666Y-65633333D01*
X105416666Y-65633333D01*
X105483333Y-65666666D01*
X105516666Y-65700000D01*
X105550000Y-65766666D01*
X105550000Y-65933333D01*
X105516666Y-66000000D01*
X105483333Y-66033333D01*
X105416666Y-66066666D01*
X105216666Y-66066666D01*
X105150000Y-66033333D01*
X105116666Y-66000000D01*
G04 #@! TO.C,R6*
X208383333Y-92016666D02*
X208150000Y-91683333D01*
X207983333Y-92016666D02*
X207983333Y-91316666D01*
X208250000Y-91316666D01*
X208316666Y-91350000D01*
X208350000Y-91383333D01*
X208383333Y-91450000D01*
X208383333Y-91550000D01*
X208350000Y-91616666D01*
X208316666Y-91650000D01*
X208250000Y-91683333D01*
X207983333Y-91683333D01*
X208983333Y-91316666D02*
X208850000Y-91316666D01*
X208783333Y-91350000D01*
X208750000Y-91383333D01*
X208683333Y-91483333D01*
X208650000Y-91616666D01*
X208650000Y-91883333D01*
X208683333Y-91950000D01*
X208716666Y-91983333D01*
X208783333Y-92016666D01*
X208916666Y-92016666D01*
X208983333Y-91983333D01*
X209016666Y-91950000D01*
X209050000Y-91883333D01*
X209050000Y-91716666D01*
X209016666Y-91650000D01*
X208983333Y-91616666D01*
X208916666Y-91583333D01*
X208783333Y-91583333D01*
X208716666Y-91616666D01*
X208683333Y-91650000D01*
X208650000Y-91716666D01*
G04 #@! TO.C,R8*
X212833333Y-91866666D02*
X212600000Y-91533333D01*
X212433333Y-91866666D02*
X212433333Y-91166666D01*
X212700000Y-91166666D01*
X212766666Y-91200000D01*
X212800000Y-91233333D01*
X212833333Y-91300000D01*
X212833333Y-91400000D01*
X212800000Y-91466666D01*
X212766666Y-91500000D01*
X212700000Y-91533333D01*
X212433333Y-91533333D01*
X213233333Y-91466666D02*
X213166666Y-91433333D01*
X213133333Y-91400000D01*
X213100000Y-91333333D01*
X213100000Y-91300000D01*
X213133333Y-91233333D01*
X213166666Y-91200000D01*
X213233333Y-91166666D01*
X213366666Y-91166666D01*
X213433333Y-91200000D01*
X213466666Y-91233333D01*
X213500000Y-91300000D01*
X213500000Y-91333333D01*
X213466666Y-91400000D01*
X213433333Y-91433333D01*
X213366666Y-91466666D01*
X213233333Y-91466666D01*
X213166666Y-91500000D01*
X213133333Y-91533333D01*
X213100000Y-91600000D01*
X213100000Y-91733333D01*
X213133333Y-91800000D01*
X213166666Y-91833333D01*
X213233333Y-91866666D01*
X213366666Y-91866666D01*
X213433333Y-91833333D01*
X213466666Y-91800000D01*
X213500000Y-91733333D01*
X213500000Y-91600000D01*
X213466666Y-91533333D01*
X213433333Y-91500000D01*
X213366666Y-91466666D01*
G04 #@! TO.C,R7*
X100833333Y-58966666D02*
X100600000Y-58633333D01*
X100433333Y-58966666D02*
X100433333Y-58266666D01*
X100700000Y-58266666D01*
X100766666Y-58300000D01*
X100800000Y-58333333D01*
X100833333Y-58400000D01*
X100833333Y-58500000D01*
X100800000Y-58566666D01*
X100766666Y-58600000D01*
X100700000Y-58633333D01*
X100433333Y-58633333D01*
X101066666Y-58266666D02*
X101533333Y-58266666D01*
X101233333Y-58966666D01*
G04 #@! TO.C,R9*
X105783333Y-59066666D02*
X105550000Y-58733333D01*
X105383333Y-59066666D02*
X105383333Y-58366666D01*
X105650000Y-58366666D01*
X105716666Y-58400000D01*
X105750000Y-58433333D01*
X105783333Y-58500000D01*
X105783333Y-58600000D01*
X105750000Y-58666666D01*
X105716666Y-58700000D01*
X105650000Y-58733333D01*
X105383333Y-58733333D01*
X106116666Y-59066666D02*
X106250000Y-59066666D01*
X106316666Y-59033333D01*
X106350000Y-59000000D01*
X106416666Y-58900000D01*
X106450000Y-58766666D01*
X106450000Y-58500000D01*
X106416666Y-58433333D01*
X106383333Y-58400000D01*
X106316666Y-58366666D01*
X106183333Y-58366666D01*
X106116666Y-58400000D01*
X106083333Y-58433333D01*
X106050000Y-58500000D01*
X106050000Y-58666666D01*
X106083333Y-58733333D01*
X106116666Y-58766666D01*
X106183333Y-58800000D01*
X106316666Y-58800000D01*
X106383333Y-58766666D01*
X106416666Y-58733333D01*
X106450000Y-58666666D01*
G04 #@! TO.C,X9*
D14*
X98428571Y-72842857D02*
X99228571Y-74042857D01*
X99228571Y-72842857D02*
X98428571Y-74042857D01*
X99742857Y-74042857D02*
X99971428Y-74042857D01*
X100085714Y-73985714D01*
X100142857Y-73928571D01*
X100257142Y-73757142D01*
X100314285Y-73528571D01*
X100314285Y-73071428D01*
X100257142Y-72957142D01*
X100200000Y-72900000D01*
X100085714Y-72842857D01*
X99857142Y-72842857D01*
X99742857Y-72900000D01*
X99685714Y-72957142D01*
X99628571Y-73071428D01*
X99628571Y-73357142D01*
X99685714Y-73471428D01*
X99742857Y-73528571D01*
X99857142Y-73585714D01*
X100085714Y-73585714D01*
X100200000Y-73528571D01*
X100257142Y-73471428D01*
X100314285Y-73357142D01*
G04 #@! TO.C,X1*
D13*
X147285714Y-78678571D02*
X148285714Y-80178571D01*
X148285714Y-78678571D02*
X147285714Y-80178571D01*
X149642857Y-80178571D02*
X148785714Y-80178571D01*
X149214285Y-80178571D02*
X149214285Y-78678571D01*
X149071428Y-78892857D01*
X148928571Y-79035714D01*
X148785714Y-79107142D01*
G04 #@! TO.C,X2*
X161785714Y-71678571D02*
X162785714Y-73178571D01*
X162785714Y-71678571D02*
X161785714Y-73178571D01*
X163285714Y-71821428D02*
X163357142Y-71750000D01*
X163500000Y-71678571D01*
X163857142Y-71678571D01*
X164000000Y-71750000D01*
X164071428Y-71821428D01*
X164142857Y-71964285D01*
X164142857Y-72107142D01*
X164071428Y-72321428D01*
X163214285Y-73178571D01*
X164142857Y-73178571D01*
G04 #@! TD*
M02*
